%TF.GenerationSoftware,KiCad,Pcbnew,9.0.7*%
%TF.CreationDate,2026-01-12T17:17:52+03:00*%
%TF.ProjectId,Motor_Driver_Shell_Eco,4d6f746f-725f-4447-9269-7665725f5368,rev?*%
%TF.SameCoordinates,Original*%
%TF.FileFunction,Copper,L5,Inr*%
%TF.FilePolarity,Positive*%
%FSLAX46Y46*%
G04 Gerber Fmt 4.6, Leading zero omitted, Abs format (unit mm)*
G04 Created by KiCad (PCBNEW 9.0.7) date 2026-01-12 17:17:52*
%MOMM*%
%LPD*%
G01*
G04 APERTURE LIST*
G04 Aperture macros list*
%AMRoundRect*
0 Rectangle with rounded corners*
0 $1 Rounding radius*
0 $2 $3 $4 $5 $6 $7 $8 $9 X,Y pos of 4 corners*
0 Add a 4 corners polygon primitive as box body*
4,1,4,$2,$3,$4,$5,$6,$7,$8,$9,$2,$3,0*
0 Add four circle primitives for the rounded corners*
1,1,$1+$1,$2,$3*
1,1,$1+$1,$4,$5*
1,1,$1+$1,$6,$7*
1,1,$1+$1,$8,$9*
0 Add four rect primitives between the rounded corners*
20,1,$1+$1,$2,$3,$4,$5,0*
20,1,$1+$1,$4,$5,$6,$7,0*
20,1,$1+$1,$6,$7,$8,$9,0*
20,1,$1+$1,$8,$9,$2,$3,0*%
G04 Aperture macros list end*
%TA.AperFunction,ComponentPad*%
%ADD10R,1.800000X1.800000*%
%TD*%
%TA.AperFunction,ComponentPad*%
%ADD11C,1.800000*%
%TD*%
%TA.AperFunction,ComponentPad*%
%ADD12C,1.600000*%
%TD*%
%TA.AperFunction,ComponentPad*%
%ADD13R,1.350000X1.350000*%
%TD*%
%TA.AperFunction,ComponentPad*%
%ADD14C,1.350000*%
%TD*%
%TA.AperFunction,ComponentPad*%
%ADD15C,2.000000*%
%TD*%
%TA.AperFunction,ComponentPad*%
%ADD16R,2.000000X2.000000*%
%TD*%
%TA.AperFunction,ComponentPad*%
%ADD17RoundRect,0.250000X0.650000X-0.650000X0.650000X0.650000X-0.650000X0.650000X-0.650000X-0.650000X0*%
%TD*%
%TA.AperFunction,ComponentPad*%
%ADD18C,0.800000*%
%TD*%
%TA.AperFunction,ComponentPad*%
%ADD19C,7.400000*%
%TD*%
%TA.AperFunction,ComponentPad*%
%ADD20RoundRect,0.250000X0.750000X-0.750000X0.750000X0.750000X-0.750000X0.750000X-0.750000X-0.750000X0*%
%TD*%
%TA.AperFunction,ComponentPad*%
%ADD21RoundRect,0.250000X0.550000X-0.550000X0.550000X0.550000X-0.550000X0.550000X-0.550000X-0.550000X0*%
%TD*%
%TA.AperFunction,ComponentPad*%
%ADD22C,1.500000*%
%TD*%
%TA.AperFunction,ComponentPad*%
%ADD23R,1.000000X1.000000*%
%TD*%
%TA.AperFunction,ComponentPad*%
%ADD24C,1.000000*%
%TD*%
%TA.AperFunction,HeatsinkPad*%
%ADD25C,0.500000*%
%TD*%
%TA.AperFunction,HeatsinkPad*%
%ADD26O,2.100000X1.000000*%
%TD*%
%TA.AperFunction,HeatsinkPad*%
%ADD27O,1.800000X1.000000*%
%TD*%
%TA.AperFunction,ViaPad*%
%ADD28C,0.300000*%
%TD*%
%TA.AperFunction,ViaPad*%
%ADD29C,0.600000*%
%TD*%
%TA.AperFunction,ViaPad*%
%ADD30C,0.650000*%
%TD*%
%TA.AperFunction,ViaPad*%
%ADD31C,0.800000*%
%TD*%
%TA.AperFunction,ViaPad*%
%ADD32C,0.400000*%
%TD*%
%TA.AperFunction,ViaPad*%
%ADD33C,0.500000*%
%TD*%
%TA.AperFunction,Conductor*%
%ADD34C,0.350000*%
%TD*%
%TA.AperFunction,Conductor*%
%ADD35C,0.300000*%
%TD*%
G04 APERTURE END LIST*
D10*
%TO.N,GND*%
%TO.C,D3*%
X100955000Y-126525000D03*
D11*
%TO.N,Net-(D3-A)*%
X103495000Y-126525000D03*
%TD*%
D12*
%TO.N,+VDC*%
%TO.C,C6*%
X122225000Y-75150000D03*
%TO.N,-VDC*%
X124725000Y-75150000D03*
%TD*%
%TO.N,Net-(D4-K)*%
%TO.C,C39*%
X170625000Y-119862500D03*
%TO.N,/FET/Phase_B_FET/PHASE_B*%
X170625000Y-114862500D03*
%TD*%
D13*
%TO.N,GND*%
%TO.C,J7*%
X95925000Y-109425000D03*
D14*
%TO.N,BRAKE*%
X95925000Y-111425000D03*
%TD*%
D12*
%TO.N,Net-(D5-K)*%
%TO.C,C40*%
X169850000Y-68987500D03*
%TO.N,/FET/Phase_C_FET/PHASE_C*%
X169850000Y-63987500D03*
%TD*%
D13*
%TO.N,GND*%
%TO.C,J4*%
X136075000Y-142050000D03*
D14*
%TO.N,TEMP_SENSOR*%
X134075000Y-142050000D03*
%TD*%
D15*
%TO.N,Net-(H1-Pad1)*%
%TO.C,S1*%
X97400000Y-44845000D03*
X97400000Y-47385000D03*
X97400000Y-49925000D03*
%TO.N,+VDC*%
X110862000Y-49975800D03*
X110862000Y-47435800D03*
X110862000Y-44895800D03*
%TO.N,Net-(S1-Vout)*%
X106702800Y-35701000D03*
%TO.N,GND*%
X104162800Y-35701000D03*
%TO.N,+5V*%
X101622800Y-35701000D03*
%TD*%
D12*
%TO.N,Net-(JP1-C)*%
%TO.C,R12*%
X106150000Y-129575000D03*
%TO.N,Net-(J13-Pin_2)*%
X98530000Y-129575000D03*
%TD*%
%TO.N,+12V*%
%TO.C,C88*%
X158900000Y-118975000D03*
%TO.N,GND*%
X158900000Y-113975000D03*
%TD*%
D15*
%TO.N,CSense_OUT_LES*%
%TO.C,C8*%
X93000000Y-63500000D03*
%TO.N,GND*%
X93000000Y-53500000D03*
%TD*%
D12*
%TO.N,+12V*%
%TO.C,C90*%
X157225000Y-69975000D03*
%TO.N,GND*%
X157225000Y-64975000D03*
%TD*%
D13*
%TO.N,+3V3*%
%TO.C,J9*%
X98575000Y-167300000D03*
D14*
%TO.N,REGEN*%
X98575000Y-169300000D03*
%TO.N,GND*%
X98575000Y-171300000D03*
%TD*%
D12*
%TO.N,+VDC*%
%TO.C,C4*%
X129125000Y-74850000D03*
%TO.N,-VDC*%
X131625000Y-74850000D03*
%TD*%
D16*
%TO.N,+5V*%
%TO.C,BZ1*%
X120175000Y-124175000D03*
D15*
%TO.N,Net-(BZ1--)*%
X127775000Y-124175000D03*
%TD*%
D17*
%TO.N,+VDC*%
%TO.C,D1*%
X114350000Y-51255000D03*
D11*
%TO.N,-VDC*%
X114350000Y-41095000D03*
%TD*%
D15*
%TO.N,GND*%
%TO.C,C28*%
X140067500Y-166910000D03*
%TO.N,/MCU/NRST*%
X135067500Y-166910000D03*
%TD*%
%TO.N,+VDC*%
%TO.C,C1*%
X144175000Y-57725000D03*
%TO.N,-VDC*%
X144175000Y-50225000D03*
%TD*%
D18*
%TO.N,Net-(H1-Pad1)*%
%TO.C,H1*%
X92162779Y-32675000D03*
X92975558Y-30712779D03*
X92975558Y-34637221D03*
X94937779Y-29900000D03*
D19*
X94937779Y-32675000D03*
D18*
X94937779Y-35450000D03*
X96900000Y-30712779D03*
X96900000Y-34637221D03*
X97712779Y-32675000D03*
%TD*%
D13*
%TO.N,GND*%
%TO.C,J10*%
X95925000Y-115475000D03*
D14*
%TO.N,CRUISE*%
X95925000Y-117475000D03*
%TD*%
D20*
%TO.N,CSense_OUT_LES*%
%TO.C,C7*%
X98975000Y-71500000D03*
D15*
%TO.N,GND*%
X98975000Y-66500000D03*
%TD*%
D21*
%TO.N,+5V*%
%TO.C,D2*%
X131900000Y-131872500D03*
D12*
%TO.N,Net-(BZ1--)*%
X131900000Y-124252500D03*
%TD*%
D15*
%TO.N,GND*%
%TO.C,SW1*%
X141567500Y-175810000D03*
X135067500Y-175810000D03*
%TO.N,/MCU/NRST*%
X141567500Y-171310000D03*
X135067500Y-171310000D03*
%TD*%
D13*
%TO.N,+3V3*%
%TO.C,J8*%
X98725000Y-174625000D03*
D14*
%TO.N,ACCEL*%
X98725000Y-176625000D03*
%TO.N,GND*%
X98725000Y-178625000D03*
%TD*%
D22*
%TO.N,Net-(U1-PH0)*%
%TO.C,Y1*%
X130025000Y-160750000D03*
%TO.N,Net-(U1-PH1)*%
X130025000Y-155850000D03*
%TD*%
D12*
%TO.N,+VDC*%
%TO.C,C5*%
X136150000Y-75025000D03*
%TO.N,-VDC*%
X138650000Y-75025000D03*
%TD*%
D18*
%TO.N,/FET/Phase_C_FET/PHASE_C*%
%TO.C,H7*%
X181187779Y-67462779D03*
X179225558Y-66650000D03*
X183150000Y-66650000D03*
X178412779Y-64687779D03*
D19*
X181187779Y-64687779D03*
D18*
X183962779Y-64687779D03*
X179225558Y-62725558D03*
X183150000Y-62725558D03*
X181187779Y-61912779D03*
%TD*%
%TO.N,-VDC*%
%TO.C,H2*%
X113075000Y-32375000D03*
X113887779Y-30412779D03*
X113887779Y-34337221D03*
X115850000Y-29600000D03*
D19*
X115850000Y-32375000D03*
D18*
X115850000Y-35150000D03*
X117812221Y-30412779D03*
X117812221Y-34337221D03*
X118625000Y-32375000D03*
%TD*%
D12*
%TO.N,+12V*%
%TO.C,C89*%
X159525000Y-169750000D03*
%TO.N,GND*%
X159525000Y-164750000D03*
%TD*%
%TO.N,+VDC*%
%TO.C,R1*%
X119000000Y-56520000D03*
%TO.N,-VDC*%
X119000000Y-41280000D03*
%TD*%
D15*
%TO.N,+3V3*%
%TO.C,SW2*%
X127967500Y-180960000D03*
X121467500Y-180960000D03*
%TO.N,/MCU/BOOT0*%
X127967500Y-176460000D03*
X121467500Y-176460000D03*
%TD*%
D23*
%TO.N,STATUS_LED*%
%TO.C,JP1*%
X106360000Y-126825000D03*
D24*
%TO.N,Net-(JP1-C)*%
X107630000Y-126825000D03*
%TO.N,Net-(JP1-B)*%
X108900000Y-126825000D03*
%TD*%
D12*
%TO.N,Net-(Q1-B)*%
%TO.C,R20*%
X134790000Y-131872500D03*
%TO.N,GND*%
X142410000Y-131872500D03*
%TD*%
D18*
%TO.N,/FET/Phase_B_FET/PHASE_B*%
%TO.C,H4*%
X181962779Y-118337779D03*
X180000558Y-117525000D03*
X183925000Y-117525000D03*
X179187779Y-115562779D03*
D19*
X181962779Y-115562779D03*
D18*
X184737779Y-115562779D03*
X180000558Y-113600558D03*
X183925000Y-113600558D03*
X181962779Y-112787779D03*
%TD*%
D13*
%TO.N,Net-(J2-Pin_1)*%
%TO.C,J2*%
X95325000Y-150650000D03*
D14*
%TO.N,Net-(J2-Pin_2)*%
X95325000Y-148650000D03*
%TO.N,Net-(J2-Pin_3)*%
X95325000Y-146650000D03*
%TO.N,+5V*%
X95325000Y-144650000D03*
%TO.N,GND*%
X95325000Y-142650000D03*
%TD*%
D15*
%TO.N,+VDC*%
%TO.C,C2*%
X129925000Y-49200000D03*
%TO.N,-VDC*%
X129925000Y-41700000D03*
%TD*%
D12*
%TO.N,Net-(S1-Vout)*%
%TO.C,R2*%
X106150000Y-59045000D03*
%TO.N,CSense_OUT_LES*%
X106150000Y-69205000D03*
%TD*%
D13*
%TO.N,GND*%
%TO.C,J12*%
X95925000Y-121525000D03*
D14*
%TO.N,PANIC STOP*%
X95925000Y-123525000D03*
%TD*%
D13*
%TO.N,GND*%
%TO.C,J13*%
X95925000Y-127575000D03*
D14*
%TO.N,Net-(J13-Pin_2)*%
X95925000Y-129575000D03*
%TD*%
D13*
%TO.N,Net-(J3-Pin_1)*%
%TO.C,J3*%
X98675000Y-181800000D03*
D14*
%TO.N,Net-(J3-Pin_2)*%
X98675000Y-183800000D03*
%TD*%
D23*
%TO.N,BT_STATE*%
%TO.C,J6*%
X95550000Y-133510000D03*
D24*
%TO.N,BT_TX*%
X95550000Y-134780000D03*
%TO.N,BT_RX*%
X95550000Y-136050000D03*
%TO.N,GND*%
X95550000Y-137320000D03*
%TO.N,+5V*%
X95550000Y-138590000D03*
%TO.N,BT_KEY*%
X95550000Y-139860000D03*
%TD*%
D15*
%TO.N,+VDC*%
%TO.C,C3*%
X130000000Y-66475000D03*
%TO.N,-VDC*%
X130000000Y-58975000D03*
%TD*%
D12*
%TO.N,/MCU/NRST*%
%TO.C,R7*%
X131517500Y-171360000D03*
%TO.N,+3V3*%
X131517500Y-178980000D03*
%TD*%
D18*
%TO.N,/FET/Phase_A_FET/PHASE_A*%
%TO.C,H6*%
X182437779Y-169087779D03*
X180475558Y-168275000D03*
X184400000Y-168275000D03*
X179662779Y-166312779D03*
D19*
X182437779Y-166312779D03*
D18*
X185212779Y-166312779D03*
X180475558Y-164350558D03*
X184400000Y-164350558D03*
X182437779Y-163537779D03*
%TD*%
D12*
%TO.N,Net-(Q1-B)*%
%TO.C,R11*%
X139175000Y-134865000D03*
%TO.N,BUZZER*%
X139175000Y-142485000D03*
%TD*%
%TO.N,+3V3*%
%TO.C,R50*%
X127525000Y-139550000D03*
%TO.N,TEMP_SENSOR*%
X127525000Y-147170000D03*
%TD*%
D25*
%TO.N,-VDC*%
%TO.C,U2*%
X127065000Y-101287500D03*
X125765000Y-101287500D03*
X124465000Y-101287500D03*
X123165000Y-101287500D03*
X127065000Y-102587500D03*
X125765000Y-102587500D03*
X124465000Y-102587500D03*
X123165000Y-102587500D03*
%TD*%
D26*
%TO.N,GND*%
%TO.C,J11*%
X97640000Y-156030000D03*
D27*
X93460000Y-156030000D03*
D26*
X97640000Y-164670000D03*
D27*
X93460000Y-164670000D03*
%TD*%
D23*
%TO.N,+3V3*%
%TO.C,J5*%
X107695000Y-172950000D03*
D24*
%TO.N,SWCLK*%
X106425000Y-172950000D03*
%TO.N,GND*%
X105155000Y-172950000D03*
%TO.N,SWDIO*%
X103885000Y-172950000D03*
%TD*%
D12*
%TO.N,Net-(D7-K)*%
%TO.C,C57*%
X171100000Y-170612500D03*
%TO.N,/FET/Phase_A_FET/PHASE_A*%
X171100000Y-165612500D03*
%TD*%
D13*
%TO.N,/MCU/I2C_SCL*%
%TO.C,J1*%
X120167500Y-173110000D03*
D14*
%TO.N,/MCU/I2C_SDA*%
X122167500Y-173110000D03*
%TO.N,+5V*%
X124167500Y-173110000D03*
%TO.N,GND*%
X126167500Y-173110000D03*
%TD*%
D28*
%TO.N,VBAT*%
X129925000Y-162850000D03*
D29*
%TO.N,CSense_OUT_LES*%
X120525000Y-155800000D03*
D30*
%TO.N,Net-(U2-VCC)*%
X124500000Y-106000000D03*
X121875000Y-106625000D03*
D29*
%TO.N,+12V*%
X161250000Y-70450000D03*
X162500000Y-172075000D03*
X162025000Y-121325000D03*
D30*
X129975000Y-133175000D03*
X130125000Y-116625000D03*
D31*
%TO.N,+5V*%
X120175000Y-80525000D03*
D29*
X127725000Y-137475000D03*
D32*
%TO.N,/MCU/NRST*%
X121102586Y-158613898D03*
D28*
%TO.N,Net-(J2-Pin_1)*%
X103825000Y-153250000D03*
D33*
%TO.N,Net-(J2-Pin_2)*%
X103950000Y-156175000D03*
D28*
%TO.N,Net-(J2-Pin_3)*%
X103575000Y-158800000D03*
D29*
%TO.N,BT_RX*%
X108650000Y-152375000D03*
%TO.N,BT_KEY*%
X108575000Y-153325000D03*
%TO.N,BT_STATE*%
X112000000Y-160375000D03*
%TO.N,BT_TX*%
X109487500Y-151962500D03*
%TO.N,BRAKE*%
X122175000Y-163950000D03*
D30*
%TO.N,ACCEL*%
X121375000Y-154750000D03*
D29*
%TO.N,REGEN*%
X121125000Y-153825000D03*
%TO.N,CRUISE*%
X123400000Y-163925000D03*
D32*
%TO.N,/MCU/BOOT0*%
X120950000Y-168592500D03*
D29*
%TO.N,BUZZER*%
X139175000Y-144975000D03*
X122499140Y-168946836D03*
%TO.N,STATUS_LED*%
X120300000Y-164075000D03*
D28*
%TO.N,TMP_ALERT*%
X115400000Y-169010000D03*
D32*
X113467500Y-173860000D03*
D29*
%TO.N,/FET/Phase_A_FET/PHASE_A*%
X184600000Y-158075000D03*
X185600000Y-150175000D03*
X180600000Y-138175000D03*
X184600000Y-145175000D03*
X185600000Y-144175000D03*
X177600000Y-148175000D03*
X175800000Y-141175000D03*
X178600000Y-162075000D03*
X179600000Y-146175000D03*
X183600000Y-141175000D03*
X186600000Y-148175000D03*
X181600000Y-162075000D03*
X172800000Y-138175000D03*
X183600000Y-157175000D03*
X176800000Y-151175000D03*
X176800000Y-164175000D03*
X176800000Y-153175000D03*
X182600000Y-150175000D03*
X184600000Y-149175000D03*
X182600000Y-151175000D03*
X182600000Y-139175000D03*
X174800000Y-156175000D03*
X185600000Y-152175000D03*
X177600000Y-138175000D03*
X184600000Y-152175000D03*
X176800000Y-142175000D03*
X172800000Y-165075000D03*
X185600000Y-149175000D03*
X182600000Y-147175000D03*
X183600000Y-159075000D03*
X181600000Y-154175000D03*
X172800000Y-144175000D03*
X173800000Y-151175000D03*
X174800000Y-144175000D03*
X177600000Y-158075000D03*
X175800000Y-163175000D03*
X184600000Y-142175000D03*
X172800000Y-151175000D03*
X172800000Y-156175000D03*
X186600000Y-147175000D03*
X181600000Y-142175000D03*
X179600000Y-142175000D03*
X174800000Y-148175000D03*
X176800000Y-162175000D03*
X185600000Y-160075000D03*
X172800000Y-153175000D03*
X186600000Y-158075000D03*
X184600000Y-139175000D03*
X180600000Y-159075000D03*
X175800000Y-138175000D03*
X181600000Y-144175000D03*
X176800000Y-145175000D03*
X183600000Y-139175000D03*
X179600000Y-155175000D03*
X175800000Y-147175000D03*
X179600000Y-147175000D03*
X181600000Y-151175000D03*
X180600000Y-141175000D03*
X172800000Y-141175000D03*
X181600000Y-138175000D03*
X176800000Y-146175000D03*
X182600000Y-152175000D03*
X173800000Y-161175000D03*
X175800000Y-160175000D03*
X173800000Y-138175000D03*
X172800000Y-142175000D03*
X172800000Y-145175000D03*
X183600000Y-152175000D03*
X186600000Y-140175000D03*
X185600000Y-157175000D03*
X185600000Y-162075000D03*
X174800000Y-139175000D03*
X186600000Y-155175000D03*
X184600000Y-147175000D03*
X176800000Y-157175000D03*
X175800000Y-148175000D03*
X180600000Y-151175000D03*
X182600000Y-159075000D03*
X180600000Y-162075000D03*
X175800000Y-150175000D03*
X183600000Y-155175000D03*
X175800000Y-162175000D03*
X174800000Y-165075000D03*
X175800000Y-140175000D03*
X185600000Y-153175000D03*
X174800000Y-143175000D03*
X183600000Y-149175000D03*
X182600000Y-145175000D03*
X178600000Y-160075000D03*
X184600000Y-155175000D03*
X177600000Y-160075000D03*
X182600000Y-138175000D03*
X180600000Y-158075000D03*
X186600000Y-138175000D03*
X180600000Y-150175000D03*
X182600000Y-146175000D03*
X174800000Y-142175000D03*
X173800000Y-164175000D03*
X181600000Y-146175000D03*
X182600000Y-155175000D03*
X178600000Y-141175000D03*
X181600000Y-140175000D03*
X172800000Y-166075000D03*
X176800000Y-140175000D03*
X173800000Y-150175000D03*
X185600000Y-145175000D03*
X177600000Y-157175000D03*
X181600000Y-153175000D03*
X174800000Y-141175000D03*
X180600000Y-139175000D03*
X181600000Y-143175000D03*
X183600000Y-151175000D03*
X178600000Y-145175000D03*
X183600000Y-161075000D03*
X178600000Y-138175000D03*
X182600000Y-141175000D03*
X175800000Y-139175000D03*
X186600000Y-152175000D03*
X182600000Y-161075000D03*
X186600000Y-146175000D03*
X180600000Y-140175000D03*
X174800000Y-158175000D03*
X175800000Y-167075000D03*
X184600000Y-148175000D03*
X184600000Y-156175000D03*
X173800000Y-160175000D03*
X173800000Y-145175000D03*
X174800000Y-159175000D03*
X178600000Y-152175000D03*
X179600000Y-162075000D03*
X172800000Y-158175000D03*
X183600000Y-148175000D03*
X177600000Y-161075000D03*
X178600000Y-146175000D03*
X184600000Y-154175000D03*
X180600000Y-156175000D03*
X172800000Y-152175000D03*
X174800000Y-153175000D03*
X177600000Y-159075000D03*
X179600000Y-161075000D03*
X175800000Y-143175000D03*
X185600000Y-142175000D03*
X174800000Y-140175000D03*
X186600000Y-142175000D03*
X181600000Y-149175000D03*
X179800000Y-163175000D03*
X183600000Y-153175000D03*
X180600000Y-144175000D03*
X185600000Y-155175000D03*
X179600000Y-140175000D03*
X175800000Y-165075000D03*
X180600000Y-155175000D03*
X183600000Y-140175000D03*
X185600000Y-159075000D03*
X174800000Y-138175000D03*
X178600000Y-147175000D03*
X179600000Y-159075000D03*
X172800000Y-157175000D03*
X177600000Y-143175000D03*
X174800000Y-161175000D03*
X183600000Y-143175000D03*
X183600000Y-162075000D03*
X182600000Y-157175000D03*
X179600000Y-139175000D03*
X179600000Y-138175000D03*
X172800000Y-139175000D03*
X177600000Y-141175000D03*
X176800000Y-159175000D03*
X177600000Y-140175000D03*
X185600000Y-139175000D03*
X177600000Y-146175000D03*
X176800000Y-156175000D03*
X176800000Y-150175000D03*
X186600000Y-162075000D03*
X181600000Y-159075000D03*
X181600000Y-157175000D03*
X186600000Y-159075000D03*
X177800000Y-163175000D03*
X183600000Y-158075000D03*
X176800000Y-160175000D03*
X184600000Y-140175000D03*
X174800000Y-167075000D03*
X176800000Y-138175000D03*
X181600000Y-160075000D03*
X178600000Y-151175000D03*
X179600000Y-144175000D03*
X173800000Y-167075000D03*
X186600000Y-151175000D03*
X172800000Y-154175000D03*
X184600000Y-141175000D03*
X175800000Y-155175000D03*
X173800000Y-156175000D03*
X176800000Y-148175000D03*
X174800000Y-150175000D03*
X175800000Y-154175000D03*
X184600000Y-138175000D03*
X173800000Y-158175000D03*
X176800000Y-147175000D03*
X177600000Y-142175000D03*
X180600000Y-161075000D03*
X181600000Y-152175000D03*
X178600000Y-142175000D03*
X178600000Y-143175000D03*
X181600000Y-145175000D03*
X177600000Y-155175000D03*
X176800000Y-141175000D03*
X180600000Y-146175000D03*
X177600000Y-139175000D03*
X186600000Y-154175000D03*
X176800000Y-161175000D03*
X172800000Y-155175000D03*
X173800000Y-143175000D03*
X176800000Y-152175000D03*
X181600000Y-147175000D03*
X176800000Y-149175000D03*
X177800000Y-167075000D03*
X177600000Y-149175000D03*
X172800000Y-167075000D03*
X180600000Y-152175000D03*
X174800000Y-146175000D03*
X184600000Y-151175000D03*
X181600000Y-141175000D03*
X182600000Y-158075000D03*
X185600000Y-148175000D03*
X177800000Y-164175000D03*
X182600000Y-156175000D03*
X175800000Y-159175000D03*
X172800000Y-143175000D03*
X182600000Y-162075000D03*
X175800000Y-156175000D03*
X173800000Y-148175000D03*
X175800000Y-146175000D03*
X175800000Y-166075000D03*
X173800000Y-140175000D03*
X174800000Y-162175000D03*
X177600000Y-152175000D03*
X173800000Y-149175000D03*
X178600000Y-139175000D03*
X185600000Y-141175000D03*
X182600000Y-154175000D03*
X185600000Y-156175000D03*
X173800000Y-146175000D03*
X178600000Y-159075000D03*
X176800000Y-165075000D03*
X175800000Y-142175000D03*
X174800000Y-145175000D03*
X179600000Y-148175000D03*
X177800000Y-166075000D03*
X186600000Y-141175000D03*
X180600000Y-148175000D03*
X179600000Y-153175000D03*
X178800000Y-163175000D03*
X175800000Y-145175000D03*
X179600000Y-160075000D03*
X174800000Y-147175000D03*
X178600000Y-156175000D03*
X186600000Y-144175000D03*
X182600000Y-143175000D03*
X184600000Y-146175000D03*
X183600000Y-146175000D03*
X177600000Y-162075000D03*
X184600000Y-160075000D03*
X180600000Y-145175000D03*
X173800000Y-142175000D03*
X178600000Y-161075000D03*
X175800000Y-144175000D03*
X172800000Y-163175000D03*
X186600000Y-157175000D03*
X173800000Y-154175000D03*
X186600000Y-153175000D03*
X184600000Y-150175000D03*
X184600000Y-162075000D03*
X178600000Y-144175000D03*
X182600000Y-140175000D03*
X174800000Y-152175000D03*
X174800000Y-163175000D03*
X178800000Y-164175000D03*
X181600000Y-139175000D03*
X181600000Y-158075000D03*
X174800000Y-164175000D03*
X179600000Y-151175000D03*
X182600000Y-153175000D03*
X178600000Y-158075000D03*
X186600000Y-145175000D03*
X178600000Y-150175000D03*
X176800000Y-139175000D03*
X173800000Y-144175000D03*
X174800000Y-157175000D03*
X180600000Y-147175000D03*
X181600000Y-161075000D03*
X182600000Y-142175000D03*
X177800000Y-165075000D03*
X172800000Y-140175000D03*
X185600000Y-158075000D03*
X183600000Y-154175000D03*
X177600000Y-151175000D03*
X184600000Y-143175000D03*
X183600000Y-147175000D03*
X184600000Y-157175000D03*
X186600000Y-143175000D03*
X183600000Y-156175000D03*
X179600000Y-149175000D03*
X185600000Y-147175000D03*
X186600000Y-156175000D03*
X180600000Y-154175000D03*
X186600000Y-139175000D03*
X182600000Y-149175000D03*
X173800000Y-141175000D03*
X173800000Y-163175000D03*
X174800000Y-160175000D03*
X173800000Y-153175000D03*
X183600000Y-145175000D03*
X174800000Y-166075000D03*
X180600000Y-149175000D03*
X172800000Y-164175000D03*
X174800000Y-149175000D03*
X176800000Y-144175000D03*
X185600000Y-140175000D03*
X177600000Y-154175000D03*
X177600000Y-153175000D03*
X185600000Y-151175000D03*
X186600000Y-160075000D03*
X185600000Y-143175000D03*
X175800000Y-158175000D03*
X175800000Y-151175000D03*
X179600000Y-141175000D03*
X177600000Y-150175000D03*
X176800000Y-155175000D03*
X184600000Y-159075000D03*
X178600000Y-148175000D03*
X174800000Y-155175000D03*
X178600000Y-154175000D03*
X178600000Y-149175000D03*
X183600000Y-150175000D03*
X180600000Y-153175000D03*
X182600000Y-160075000D03*
X173800000Y-147175000D03*
X177600000Y-147175000D03*
X183600000Y-144175000D03*
X179600000Y-158075000D03*
X173800000Y-162175000D03*
X179600000Y-154175000D03*
X176800000Y-154175000D03*
X176800000Y-158175000D03*
X185600000Y-161075000D03*
X175800000Y-152175000D03*
X181600000Y-156175000D03*
X179600000Y-143175000D03*
X173800000Y-139175000D03*
X175800000Y-157175000D03*
X180600000Y-157175000D03*
X177600000Y-156175000D03*
X179600000Y-152175000D03*
X176800000Y-163175000D03*
X185600000Y-146175000D03*
X174800000Y-154175000D03*
X175800000Y-153175000D03*
X182600000Y-148175000D03*
X185600000Y-154175000D03*
X179600000Y-157175000D03*
X181600000Y-150175000D03*
X179600000Y-150175000D03*
X175800000Y-149175000D03*
X186600000Y-161075000D03*
X176800000Y-166075000D03*
X175800000Y-164175000D03*
X184600000Y-161075000D03*
X173800000Y-166075000D03*
X182600000Y-144175000D03*
X178600000Y-155175000D03*
X184600000Y-144175000D03*
X178600000Y-153175000D03*
X173800000Y-165075000D03*
X173800000Y-159175000D03*
X186600000Y-149175000D03*
X177600000Y-144175000D03*
X180600000Y-142175000D03*
X173800000Y-157175000D03*
X178600000Y-140175000D03*
X176800000Y-167075000D03*
X177600000Y-145175000D03*
X186600000Y-150175000D03*
X179600000Y-145175000D03*
X174800000Y-151175000D03*
X184600000Y-153175000D03*
X183600000Y-160075000D03*
X185600000Y-138175000D03*
X176800000Y-143175000D03*
X173800000Y-152175000D03*
X175800000Y-161175000D03*
X180600000Y-143175000D03*
X173800000Y-155175000D03*
X178600000Y-157175000D03*
X181600000Y-155175000D03*
X179600000Y-156175000D03*
X183600000Y-138175000D03*
X183600000Y-142175000D03*
X180600000Y-160075000D03*
X181600000Y-148175000D03*
%TO.N,HS_MOS_C*%
X158600000Y-72900000D03*
X118725000Y-144100000D03*
%TO.N,/FET/HS_MOS_A*%
X160025000Y-174535000D03*
X118750000Y-146975000D03*
%TO.N,LS_MOS_C*%
X158600000Y-74175000D03*
X118725000Y-143299997D03*
%TO.N,CAN_S*%
X113375000Y-164950000D03*
X113250000Y-153800000D03*
X102525000Y-180400000D03*
D32*
%TO.N,+3V3*%
X121625000Y-156750000D03*
D29*
X102175000Y-177450000D03*
D32*
X131025000Y-165900000D03*
D29*
X182200000Y-124550000D03*
D28*
X109617500Y-173860000D03*
D29*
X111800000Y-176435000D03*
D32*
%TO.N,VDD_1*%
X126875000Y-160200000D03*
X132467500Y-159360000D03*
D28*
%TO.N,VDD_2*%
X126925000Y-156150000D03*
D29*
%TO.N,CAN_RX*%
X116300000Y-165050000D03*
X108050000Y-180125000D03*
%TO.N,CAN_TX*%
X108125000Y-183950000D03*
X115750000Y-164300000D03*
D28*
%TO.N,GND*%
X107625000Y-152400000D03*
D30*
X125350000Y-147225000D03*
X134000000Y-147600000D03*
X142300000Y-138525000D03*
D29*
X187025000Y-73225000D03*
X181250000Y-28100000D03*
D30*
X137743290Y-93750000D03*
X140925000Y-114575000D03*
X123425000Y-141325000D03*
D28*
X107575000Y-158200000D03*
D29*
X157250000Y-129575000D03*
D30*
X138500000Y-93800000D03*
D28*
X127125000Y-155650000D03*
D30*
X138544276Y-92950000D03*
X107525000Y-146400000D03*
X117100000Y-110325000D03*
X139175000Y-93675000D03*
D28*
X107525000Y-155450000D03*
D29*
X182475000Y-129625000D03*
D30*
X139300000Y-92900000D03*
X137800000Y-92875000D03*
D28*
X126825000Y-160950000D03*
D29*
X185314975Y-24925025D03*
X134625000Y-135525000D03*
D30*
X111812500Y-146162500D03*
D29*
X181625000Y-79100000D03*
X187300000Y-123975000D03*
X140850000Y-127675000D03*
X114800000Y-175750000D03*
%TO.N,+VDC*%
X163250000Y-57550000D03*
X163250000Y-41550000D03*
X159125000Y-93425000D03*
X165500000Y-144175000D03*
X164025000Y-102425000D03*
X180900000Y-136475000D03*
X173650000Y-35250000D03*
X165250000Y-44550000D03*
X162125000Y-88425000D03*
X159600000Y-137175000D03*
X164250000Y-33550000D03*
X166250000Y-58550000D03*
X160600000Y-150175000D03*
X160350000Y-57550000D03*
X162600000Y-154175000D03*
X176650000Y-32850000D03*
X181650000Y-33850000D03*
X178425000Y-85725000D03*
X172225000Y-86125000D03*
X176900000Y-134475000D03*
X162600000Y-158175000D03*
X175650000Y-32850000D03*
X162250000Y-48550000D03*
X166500000Y-158175000D03*
X158350000Y-37550000D03*
X161600000Y-158175000D03*
X159125000Y-98425000D03*
X164500000Y-153175000D03*
X162125000Y-103425000D03*
X165500000Y-153175000D03*
X158350000Y-44550000D03*
X166500000Y-138175000D03*
X167500000Y-138175000D03*
X159350000Y-36550000D03*
X175650000Y-34850000D03*
X171450000Y-33250000D03*
X159600000Y-144175000D03*
X161350000Y-36550000D03*
X171225000Y-85125000D03*
X181900000Y-136475000D03*
X164250000Y-39550000D03*
X169800000Y-135875000D03*
X163250000Y-39550000D03*
X160350000Y-39550000D03*
X168800000Y-135875000D03*
X160350000Y-34550000D03*
X170225000Y-86125000D03*
X165250000Y-34550000D03*
X165500000Y-148175000D03*
X164250000Y-40550000D03*
X164025000Y-109425000D03*
X160350000Y-36550000D03*
X169800000Y-136875000D03*
X166025000Y-84425000D03*
X176650000Y-34850000D03*
X177900000Y-136475000D03*
X159600000Y-154175000D03*
X165025000Y-108425000D03*
X171450000Y-35250000D03*
X163250000Y-44550000D03*
X163250000Y-56550000D03*
X176425000Y-85725000D03*
X162125000Y-89425000D03*
X166500000Y-156175000D03*
X169325000Y-85125000D03*
X178425000Y-84725000D03*
X160125000Y-91425000D03*
X162125000Y-107425000D03*
X164250000Y-57550000D03*
X166250000Y-53550000D03*
X180425000Y-84725000D03*
X159600000Y-159175000D03*
X164500000Y-155175000D03*
X162250000Y-55550000D03*
X164500000Y-137175000D03*
X161125000Y-98425000D03*
X159125000Y-90425000D03*
X178900000Y-135475000D03*
X166250000Y-40550000D03*
X163250000Y-50550000D03*
X160600000Y-148175000D03*
X161350000Y-49550000D03*
X159350000Y-51550000D03*
X164250000Y-54550000D03*
X165500000Y-139175000D03*
X160125000Y-90425000D03*
X159125000Y-109425000D03*
X158350000Y-54550000D03*
X160600000Y-144175000D03*
X161600000Y-137175000D03*
X162250000Y-42550000D03*
X160350000Y-58550000D03*
X165025000Y-109425000D03*
X165025000Y-96425000D03*
X173425000Y-86125000D03*
X162250000Y-53550000D03*
X165025000Y-94425000D03*
X182900000Y-134475000D03*
X165025000Y-86425000D03*
X162600000Y-151175000D03*
X162125000Y-90425000D03*
X169450000Y-34250000D03*
X160350000Y-51550000D03*
X165500000Y-141175000D03*
X182425000Y-85725000D03*
X164250000Y-35550000D03*
X161125000Y-93425000D03*
X168550000Y-34250000D03*
X167500000Y-157175000D03*
X164500000Y-143175000D03*
X158350000Y-40550000D03*
X159125000Y-96425000D03*
X172650000Y-33250000D03*
X163250000Y-38550000D03*
X166025000Y-94425000D03*
X159600000Y-148175000D03*
X170450000Y-35250000D03*
X159350000Y-40550000D03*
X162125000Y-106425000D03*
X164250000Y-58550000D03*
X159125000Y-102425000D03*
X163500000Y-146175000D03*
X167025000Y-90425000D03*
X169325000Y-84125000D03*
X159350000Y-45550000D03*
X165025000Y-105425000D03*
X166500000Y-141175000D03*
X158350000Y-57550000D03*
X160125000Y-107425000D03*
X167500000Y-144175000D03*
X177650000Y-32850000D03*
X165025000Y-102425000D03*
X164250000Y-34550000D03*
X159350000Y-46550000D03*
X161125000Y-84425000D03*
X159600000Y-149175000D03*
X165025000Y-90425000D03*
X163025000Y-102425000D03*
X164250000Y-55550000D03*
X168325000Y-84125000D03*
X161125000Y-94425000D03*
X164025000Y-105425000D03*
X163025000Y-97425000D03*
X165500000Y-156175000D03*
X172225000Y-85125000D03*
X161600000Y-159175000D03*
X162250000Y-47550000D03*
X162600000Y-152175000D03*
X163250000Y-48550000D03*
X165250000Y-51550000D03*
X160600000Y-154175000D03*
X167500000Y-149175000D03*
X163025000Y-92425000D03*
X166500000Y-160175000D03*
X165500000Y-147175000D03*
X162125000Y-100425000D03*
X181650000Y-34850000D03*
X174650000Y-34250000D03*
X163500000Y-137175000D03*
X161350000Y-39550000D03*
X161600000Y-160175000D03*
X164250000Y-42550000D03*
X163025000Y-86425000D03*
X177425000Y-85725000D03*
X162125000Y-98425000D03*
X164025000Y-93425000D03*
X159125000Y-91425000D03*
X166025000Y-107425000D03*
X163250000Y-34550000D03*
X158350000Y-42550000D03*
X158350000Y-55550000D03*
X161600000Y-145175000D03*
X160600000Y-145175000D03*
X163500000Y-160175000D03*
X163250000Y-58550000D03*
X163025000Y-101425000D03*
X160600000Y-149175000D03*
X165500000Y-157175000D03*
X165025000Y-106425000D03*
X164025000Y-108425000D03*
X162600000Y-138175000D03*
X159600000Y-142175000D03*
X166250000Y-37550000D03*
X167500000Y-148175000D03*
X166500000Y-146175000D03*
X161125000Y-91425000D03*
X160350000Y-50550000D03*
X160600000Y-141175000D03*
X164500000Y-156175000D03*
X175900000Y-135875000D03*
X163025000Y-95425000D03*
X165500000Y-136175000D03*
X172225000Y-84125000D03*
X165500000Y-146175000D03*
X162600000Y-156175000D03*
X158350000Y-53550000D03*
X162600000Y-141175000D03*
X164500000Y-160175000D03*
X174650000Y-35250000D03*
X170225000Y-85125000D03*
X159600000Y-140175000D03*
X179425000Y-84725000D03*
X165500000Y-143175000D03*
X168325000Y-86125000D03*
X181900000Y-134475000D03*
X160350000Y-42550000D03*
X166500000Y-136175000D03*
X162250000Y-43550000D03*
X160600000Y-158175000D03*
X164500000Y-146175000D03*
X165250000Y-33550000D03*
X164250000Y-50550000D03*
X164500000Y-136175000D03*
X163025000Y-105425000D03*
X162600000Y-144175000D03*
X169450000Y-33250000D03*
X177425000Y-83725000D03*
X159350000Y-37550000D03*
X165250000Y-35550000D03*
X165250000Y-50550000D03*
X158350000Y-49550000D03*
X165250000Y-40550000D03*
X162600000Y-157175000D03*
X165025000Y-89425000D03*
X166025000Y-85425000D03*
X180900000Y-135475000D03*
X165500000Y-135175000D03*
X161125000Y-109425000D03*
X163025000Y-104425000D03*
X167500000Y-147175000D03*
X171700000Y-135875000D03*
X159350000Y-48550000D03*
X160125000Y-104425000D03*
X167025000Y-103425000D03*
X166250000Y-51550000D03*
X165250000Y-52550000D03*
X165025000Y-91425000D03*
X165025000Y-107425000D03*
X166500000Y-135175000D03*
X161125000Y-89425000D03*
X166250000Y-45550000D03*
X166925000Y-84425000D03*
X161125000Y-95425000D03*
X166250000Y-49550000D03*
X161125000Y-105425000D03*
X164500000Y-144175000D03*
X162250000Y-58550000D03*
X166250000Y-36550000D03*
X160350000Y-48550000D03*
X158350000Y-52550000D03*
X161600000Y-155175000D03*
X166025000Y-104425000D03*
X160350000Y-37550000D03*
X161600000Y-146175000D03*
X164500000Y-135175000D03*
X160600000Y-147175000D03*
X172700000Y-136875000D03*
X164500000Y-154175000D03*
X163250000Y-51550000D03*
X161125000Y-104425000D03*
X164250000Y-51550000D03*
X165500000Y-142175000D03*
X161125000Y-106425000D03*
X166250000Y-50550000D03*
X164250000Y-41550000D03*
X164250000Y-56550000D03*
X161350000Y-50550000D03*
X159600000Y-157175000D03*
X173650000Y-33250000D03*
X160600000Y-138175000D03*
X166150000Y-33550000D03*
X163025000Y-90425000D03*
X174425000Y-86125000D03*
X166250000Y-39550000D03*
X163250000Y-35550000D03*
X164025000Y-106425000D03*
X167500000Y-159175000D03*
X163250000Y-52550000D03*
X161600000Y-140175000D03*
X159350000Y-49550000D03*
X160600000Y-146175000D03*
X175425000Y-84125000D03*
X162600000Y-155175000D03*
X159125000Y-88425000D03*
X159600000Y-138175000D03*
X167500000Y-140175000D03*
X163500000Y-138175000D03*
X163025000Y-100425000D03*
X166025000Y-102425000D03*
X159600000Y-160175000D03*
X165250000Y-53550000D03*
X159350000Y-50550000D03*
X160125000Y-101425000D03*
X166500000Y-148175000D03*
X161350000Y-55550000D03*
X161125000Y-100425000D03*
X159350000Y-52550000D03*
X161125000Y-85425000D03*
X166025000Y-88425000D03*
X163500000Y-139175000D03*
X175650000Y-33850000D03*
X164250000Y-44550000D03*
X163025000Y-91425000D03*
X164025000Y-107425000D03*
X168550000Y-33250000D03*
X167500000Y-141175000D03*
X161125000Y-108425000D03*
X179900000Y-136475000D03*
X174425000Y-85125000D03*
X158350000Y-35550000D03*
X174650000Y-33250000D03*
X159350000Y-44550000D03*
X167025000Y-89425000D03*
X159600000Y-141175000D03*
X161350000Y-43550000D03*
X176900000Y-136475000D03*
X165025000Y-101425000D03*
X162125000Y-85425000D03*
X162600000Y-147175000D03*
X164025000Y-88425000D03*
X160125000Y-105425000D03*
X161600000Y-139175000D03*
X166500000Y-151175000D03*
X166025000Y-95425000D03*
X162250000Y-38550000D03*
X161125000Y-92425000D03*
X165500000Y-150175000D03*
X164025000Y-96425000D03*
X165250000Y-41550000D03*
X163500000Y-156175000D03*
X165500000Y-145175000D03*
X161350000Y-34550000D03*
X161350000Y-51550000D03*
X167500000Y-152175000D03*
X158350000Y-48550000D03*
X167025000Y-93425000D03*
X163500000Y-142175000D03*
X160125000Y-100425000D03*
X163500000Y-159175000D03*
X166025000Y-96425000D03*
X159125000Y-106425000D03*
X165500000Y-151175000D03*
X161600000Y-149175000D03*
X167025000Y-97425000D03*
X161125000Y-96425000D03*
X171225000Y-86125000D03*
X166250000Y-55550000D03*
X167025000Y-87425000D03*
X163500000Y-158175000D03*
X165025000Y-88425000D03*
X161600000Y-153175000D03*
X179425000Y-83725000D03*
X161600000Y-150175000D03*
X160600000Y-157175000D03*
X160350000Y-46550000D03*
X163250000Y-53550000D03*
X182425000Y-83725000D03*
X166500000Y-147175000D03*
X158350000Y-36550000D03*
X170450000Y-34250000D03*
X164250000Y-46550000D03*
X163025000Y-109425000D03*
X160350000Y-35550000D03*
X162600000Y-146175000D03*
X159125000Y-97425000D03*
X159350000Y-53550000D03*
X160125000Y-106425000D03*
X160350000Y-40550000D03*
X162250000Y-54550000D03*
X167500000Y-153175000D03*
X160350000Y-56550000D03*
X161600000Y-144175000D03*
X166250000Y-57550000D03*
X165250000Y-55550000D03*
X178650000Y-32850000D03*
X160125000Y-103425000D03*
X165250000Y-58550000D03*
X160125000Y-98425000D03*
X163500000Y-135175000D03*
X164025000Y-97425000D03*
X180900000Y-134475000D03*
X166500000Y-149175000D03*
X163500000Y-145175000D03*
X160600000Y-143175000D03*
X163250000Y-55550000D03*
X162250000Y-37550000D03*
X169325000Y-86125000D03*
X164025000Y-103425000D03*
X164025000Y-85425000D03*
X162125000Y-94425000D03*
X158350000Y-51550000D03*
X167025000Y-102425000D03*
X181425000Y-83725000D03*
X164500000Y-158175000D03*
X161350000Y-38550000D03*
X166500000Y-142175000D03*
X170225000Y-84125000D03*
X164250000Y-49550000D03*
X165025000Y-84425000D03*
X171450000Y-34250000D03*
X161125000Y-99425000D03*
X162250000Y-57550000D03*
X166250000Y-46550000D03*
X159125000Y-86425000D03*
X167500000Y-146175000D03*
X165250000Y-57550000D03*
X175900000Y-136875000D03*
X166500000Y-137175000D03*
X167025000Y-94425000D03*
X178650000Y-33850000D03*
X171700000Y-134875000D03*
X164025000Y-101425000D03*
X161350000Y-46550000D03*
X165500000Y-158175000D03*
X175425000Y-86125000D03*
X159125000Y-107425000D03*
X165025000Y-98425000D03*
X158350000Y-41550000D03*
X163500000Y-148175000D03*
X167025000Y-107425000D03*
X166500000Y-143175000D03*
X180425000Y-83725000D03*
X160125000Y-94425000D03*
X164500000Y-140175000D03*
X162250000Y-44550000D03*
X165250000Y-46550000D03*
X159350000Y-39550000D03*
X164500000Y-145175000D03*
X159125000Y-89425000D03*
X163500000Y-147175000D03*
X165250000Y-45550000D03*
X165500000Y-155175000D03*
X163500000Y-152175000D03*
X166025000Y-100425000D03*
X163500000Y-149175000D03*
X162600000Y-160175000D03*
X165500000Y-137175000D03*
X159350000Y-41550000D03*
X160125000Y-93425000D03*
X165500000Y-154175000D03*
X160125000Y-97425000D03*
X159125000Y-101425000D03*
X163250000Y-47550000D03*
X162250000Y-49550000D03*
X164025000Y-100425000D03*
X164025000Y-92425000D03*
X161600000Y-151175000D03*
X166025000Y-108425000D03*
X182425000Y-84725000D03*
X181425000Y-85725000D03*
X172650000Y-35250000D03*
X160125000Y-85425000D03*
X161600000Y-154175000D03*
X159125000Y-99425000D03*
X162600000Y-153175000D03*
X164250000Y-38550000D03*
X166500000Y-157175000D03*
X164025000Y-98425000D03*
X162125000Y-91425000D03*
X161600000Y-152175000D03*
X163500000Y-155175000D03*
X160600000Y-159175000D03*
X164025000Y-89425000D03*
X166025000Y-90425000D03*
X177900000Y-134475000D03*
X180650000Y-32850000D03*
X162250000Y-40550000D03*
X166025000Y-105425000D03*
X174425000Y-84125000D03*
X164500000Y-142175000D03*
X163025000Y-88425000D03*
X164250000Y-48550000D03*
X162250000Y-35550000D03*
X162600000Y-150175000D03*
X166025000Y-101425000D03*
X165025000Y-97425000D03*
X164025000Y-104425000D03*
X164250000Y-52550000D03*
X166025000Y-86425000D03*
X166250000Y-56550000D03*
X160125000Y-96425000D03*
X162125000Y-105425000D03*
X181650000Y-32850000D03*
X159350000Y-34550000D03*
X162250000Y-45550000D03*
X179650000Y-33850000D03*
X161350000Y-40550000D03*
X164500000Y-141175000D03*
X165250000Y-39550000D03*
X163025000Y-106425000D03*
X164025000Y-87425000D03*
X161350000Y-58550000D03*
X173900000Y-135875000D03*
X161125000Y-87425000D03*
X159600000Y-155175000D03*
X159600000Y-153175000D03*
X162600000Y-148175000D03*
X163250000Y-40550000D03*
X160350000Y-41550000D03*
X173425000Y-85125000D03*
X167025000Y-98425000D03*
X167025000Y-101425000D03*
X166250000Y-38550000D03*
X160350000Y-55550000D03*
X167025000Y-109425000D03*
X164025000Y-90425000D03*
X160600000Y-136175000D03*
X164025000Y-99425000D03*
X162250000Y-36550000D03*
X160125000Y-95425000D03*
X161600000Y-135175000D03*
X179425000Y-85725000D03*
X163250000Y-37550000D03*
X167025000Y-100425000D03*
X160600000Y-152175000D03*
X159125000Y-87425000D03*
X159600000Y-156175000D03*
X163025000Y-89425000D03*
X164250000Y-43550000D03*
X159125000Y-104425000D03*
X172700000Y-134875000D03*
X167025000Y-106425000D03*
X182900000Y-135475000D03*
X182900000Y-136475000D03*
X175900000Y-134875000D03*
X163250000Y-49550000D03*
X167500000Y-154175000D03*
X159125000Y-100425000D03*
X165500000Y-160175000D03*
X160125000Y-92425000D03*
X166500000Y-152175000D03*
X166025000Y-92425000D03*
X163500000Y-151175000D03*
X162125000Y-86425000D03*
X163025000Y-93425000D03*
X165250000Y-42550000D03*
X160125000Y-87425000D03*
X163025000Y-94425000D03*
X166025000Y-98425000D03*
X158350000Y-46550000D03*
X160600000Y-156175000D03*
X159600000Y-143175000D03*
X159125000Y-108425000D03*
X162250000Y-50550000D03*
X159125000Y-95425000D03*
X159600000Y-139175000D03*
X162600000Y-137175000D03*
X165500000Y-149175000D03*
X161600000Y-142175000D03*
X164250000Y-53550000D03*
X159600000Y-150175000D03*
X160600000Y-142175000D03*
X165250000Y-54550000D03*
X163500000Y-157175000D03*
X167500000Y-160175000D03*
X167500000Y-139175000D03*
X164500000Y-149175000D03*
X162250000Y-52550000D03*
X163025000Y-84425000D03*
X158350000Y-45550000D03*
X162125000Y-99425000D03*
X165025000Y-99425000D03*
X166250000Y-54550000D03*
X162600000Y-142175000D03*
X164250000Y-37550000D03*
X165025000Y-93425000D03*
X160350000Y-52550000D03*
X163025000Y-85425000D03*
X166500000Y-144175000D03*
X179900000Y-135475000D03*
X171700000Y-136875000D03*
X162250000Y-39550000D03*
X160600000Y-140175000D03*
X158350000Y-39550000D03*
X166250000Y-42550000D03*
X159350000Y-55550000D03*
X163500000Y-136175000D03*
X179650000Y-34850000D03*
X176425000Y-83725000D03*
X163025000Y-108425000D03*
X158350000Y-47550000D03*
X161350000Y-52550000D03*
X161350000Y-57550000D03*
X165250000Y-43550000D03*
X166025000Y-106425000D03*
X165500000Y-140175000D03*
X177900000Y-135475000D03*
X167025000Y-91425000D03*
X165025000Y-103425000D03*
X165250000Y-37550000D03*
X163025000Y-99425000D03*
X159350000Y-57550000D03*
X165025000Y-87425000D03*
X167500000Y-136175000D03*
X166025000Y-93425000D03*
X167025000Y-92425000D03*
X162600000Y-143175000D03*
X163250000Y-42550000D03*
X167550000Y-35250000D03*
X160350000Y-49550000D03*
X165250000Y-56550000D03*
X162250000Y-46550000D03*
X165025000Y-92425000D03*
X161125000Y-88425000D03*
X167500000Y-150175000D03*
X168550000Y-35250000D03*
X166025000Y-89425000D03*
X159600000Y-151175000D03*
X178900000Y-136475000D03*
X161350000Y-33550000D03*
X160350000Y-45550000D03*
X164250000Y-45550000D03*
X161350000Y-53550000D03*
X159350000Y-54550000D03*
X164250000Y-36550000D03*
X166500000Y-154175000D03*
X165500000Y-152175000D03*
X180425000Y-85725000D03*
X161350000Y-42550000D03*
X162250000Y-34550000D03*
X167550000Y-34250000D03*
X181425000Y-84725000D03*
X177425000Y-84725000D03*
X160600000Y-139175000D03*
X161125000Y-86425000D03*
X160125000Y-89425000D03*
X163500000Y-144175000D03*
X167025000Y-85425000D03*
X167025000Y-96425000D03*
X177650000Y-33850000D03*
X162125000Y-102425000D03*
X164250000Y-47550000D03*
X158350000Y-38550000D03*
X160600000Y-153175000D03*
X168325000Y-85125000D03*
X160600000Y-160175000D03*
X167500000Y-158175000D03*
X170700000Y-134875000D03*
X179900000Y-134475000D03*
X162125000Y-87425000D03*
X160125000Y-109425000D03*
X159350000Y-42550000D03*
X163500000Y-154175000D03*
X162125000Y-84425000D03*
X158350000Y-56550000D03*
X159125000Y-103425000D03*
X167025000Y-104425000D03*
X165025000Y-104425000D03*
X166500000Y-140175000D03*
X161600000Y-143175000D03*
X169800000Y-134875000D03*
X169450000Y-35250000D03*
X165250000Y-49550000D03*
X162125000Y-95425000D03*
X167025000Y-108425000D03*
X164025000Y-84425000D03*
X161350000Y-37550000D03*
X163025000Y-87425000D03*
X167025000Y-88425000D03*
X161125000Y-97425000D03*
X164025000Y-95425000D03*
X173650000Y-34250000D03*
X162600000Y-140175000D03*
X163025000Y-96425000D03*
X163250000Y-33550000D03*
X173900000Y-136875000D03*
X160125000Y-108425000D03*
X163500000Y-143175000D03*
X166250000Y-52550000D03*
X159125000Y-92425000D03*
X164500000Y-148175000D03*
X160125000Y-86425000D03*
X167025000Y-105425000D03*
X161350000Y-41550000D03*
X159600000Y-152175000D03*
X164025000Y-86425000D03*
X166250000Y-43550000D03*
X160350000Y-53550000D03*
X166500000Y-139175000D03*
X173900000Y-134875000D03*
X167500000Y-145175000D03*
X161600000Y-138175000D03*
X163500000Y-140175000D03*
X161350000Y-45550000D03*
X161350000Y-54550000D03*
X158350000Y-43550000D03*
X161350000Y-47550000D03*
X166250000Y-35550000D03*
X178900000Y-134475000D03*
X162250000Y-41550000D03*
X166250000Y-48550000D03*
X159350000Y-58550000D03*
X166500000Y-153175000D03*
X167500000Y-137175000D03*
X163025000Y-103425000D03*
X161125000Y-101425000D03*
X168800000Y-136875000D03*
X162125000Y-101425000D03*
X161125000Y-103425000D03*
X163250000Y-36550000D03*
X164500000Y-151175000D03*
X164025000Y-94425000D03*
X160350000Y-33550000D03*
X167550000Y-33250000D03*
X158350000Y-50550000D03*
X176900000Y-135475000D03*
X172650000Y-34250000D03*
X164500000Y-152175000D03*
X162125000Y-96425000D03*
X180650000Y-34850000D03*
X161350000Y-35550000D03*
X167500000Y-143175000D03*
X162600000Y-145175000D03*
X168800000Y-134875000D03*
X167500000Y-156175000D03*
X167500000Y-155175000D03*
X161125000Y-90425000D03*
X159350000Y-56550000D03*
X162600000Y-159175000D03*
X159350000Y-38550000D03*
X164500000Y-157175000D03*
X161125000Y-107425000D03*
X165025000Y-95425000D03*
X178425000Y-83725000D03*
X164025000Y-91425000D03*
X164500000Y-147175000D03*
X174900000Y-136875000D03*
X159600000Y-145175000D03*
X174900000Y-135875000D03*
X170700000Y-135875000D03*
X161600000Y-141175000D03*
X162600000Y-149175000D03*
X158350000Y-58550000D03*
X160125000Y-88425000D03*
X162600000Y-139175000D03*
X166500000Y-150175000D03*
X161350000Y-56550000D03*
X164500000Y-139175000D03*
X160125000Y-102425000D03*
X167025000Y-86425000D03*
X175425000Y-85125000D03*
X160350000Y-38550000D03*
X166025000Y-87425000D03*
X166500000Y-145175000D03*
X159350000Y-47550000D03*
X167400000Y-135175000D03*
X161600000Y-148175000D03*
X160600000Y-155175000D03*
X159600000Y-158175000D03*
X160350000Y-54550000D03*
X163250000Y-45550000D03*
X170700000Y-136875000D03*
X176650000Y-33850000D03*
X160350000Y-47550000D03*
X165250000Y-38550000D03*
X172700000Y-135875000D03*
X163250000Y-46550000D03*
X162125000Y-97425000D03*
X162250000Y-33550000D03*
X160600000Y-151175000D03*
X160350000Y-44550000D03*
X173425000Y-84125000D03*
X177650000Y-34850000D03*
X163250000Y-54550000D03*
X160125000Y-99425000D03*
X161600000Y-147175000D03*
X163500000Y-153175000D03*
X171225000Y-84125000D03*
X160600000Y-137175000D03*
X167025000Y-95425000D03*
X167025000Y-99425000D03*
X162250000Y-51550000D03*
X161350000Y-44550000D03*
X165250000Y-36550000D03*
X163500000Y-141175000D03*
X166025000Y-91425000D03*
X159350000Y-35550000D03*
X176425000Y-84725000D03*
X163250000Y-43550000D03*
X162125000Y-108425000D03*
X163025000Y-107425000D03*
X164500000Y-150175000D03*
X162125000Y-92425000D03*
X165250000Y-48550000D03*
X166025000Y-99425000D03*
X166250000Y-41550000D03*
X165025000Y-100425000D03*
X179650000Y-32850000D03*
X159600000Y-146175000D03*
X161600000Y-157175000D03*
X166025000Y-103425000D03*
X162600000Y-135175000D03*
X166250000Y-44550000D03*
X162125000Y-104425000D03*
X161600000Y-136175000D03*
X178650000Y-34850000D03*
X161350000Y-48550000D03*
X162125000Y-109425000D03*
X159125000Y-105425000D03*
X163025000Y-98425000D03*
X167500000Y-151175000D03*
X159350000Y-43550000D03*
X163500000Y-150175000D03*
X180650000Y-33850000D03*
X166025000Y-97425000D03*
X159125000Y-94425000D03*
X165500000Y-138175000D03*
X170450000Y-33250000D03*
X174900000Y-134875000D03*
X165500000Y-159175000D03*
X166250000Y-34550000D03*
X162125000Y-93425000D03*
X166500000Y-155175000D03*
X166500000Y-159175000D03*
X164500000Y-138175000D03*
X165025000Y-85425000D03*
X164500000Y-159175000D03*
X161125000Y-102425000D03*
X159600000Y-147175000D03*
X165250000Y-47550000D03*
X162600000Y-136175000D03*
X160350000Y-43550000D03*
X161600000Y-156175000D03*
X166025000Y-109425000D03*
X166250000Y-47550000D03*
X181900000Y-135475000D03*
X167500000Y-142175000D03*
X162250000Y-56550000D03*
%TO.N,/FET/LS_MOS_B*%
X147375000Y-125625000D03*
X144825000Y-125650000D03*
X118725000Y-145100000D03*
X159750000Y-125050000D03*
%TO.N,/FET/LS_MOS_A*%
X118750000Y-147850000D03*
X160125000Y-175825000D03*
%TO.N,/FET/HS_MOS_B*%
X118700000Y-146025000D03*
X159615000Y-123785000D03*
%TO.N,Current Sense_A*%
X121237500Y-143162500D03*
X186500000Y-128475000D03*
X120450000Y-148850000D03*
%TO.N,-VDC*%
X175350000Y-30050000D03*
X179125000Y-80925000D03*
X189125000Y-82925000D03*
X163550000Y-32250000D03*
X189350000Y-43850000D03*
X194600000Y-146475000D03*
X193125000Y-83925000D03*
X167550000Y-31250000D03*
X170325000Y-82125000D03*
X171550000Y-31250000D03*
X186125000Y-80925000D03*
X193125000Y-93725000D03*
X193125000Y-102525000D03*
X172325000Y-81125000D03*
X190600000Y-143475000D03*
X189125000Y-105525000D03*
X189125000Y-81925000D03*
X193600000Y-135675000D03*
X189350000Y-41050000D03*
X190600000Y-154275000D03*
X188125000Y-82925000D03*
X193350000Y-54650000D03*
X191350000Y-52650000D03*
X189350000Y-39050000D03*
X191350000Y-36050000D03*
X192350000Y-40050000D03*
X189350000Y-50650000D03*
X192600000Y-142675000D03*
X193600000Y-157275000D03*
X194125000Y-105525000D03*
X192600000Y-151475000D03*
X193600000Y-156275000D03*
X190125000Y-84925000D03*
X194125000Y-101525000D03*
X192125000Y-105525000D03*
X189350000Y-33050000D03*
X192600000Y-144475000D03*
X188350000Y-53650000D03*
X193600000Y-154275000D03*
X192125000Y-94725000D03*
X190125000Y-99725000D03*
X192600000Y-158275000D03*
X187125000Y-81925000D03*
X178125000Y-81925000D03*
X190350000Y-48850000D03*
X164800000Y-133875000D03*
X189125000Y-99725000D03*
X189350000Y-51650000D03*
X161800000Y-133875000D03*
X162800000Y-131875000D03*
X192125000Y-84925000D03*
X189350000Y-41850000D03*
X193125000Y-87925000D03*
X189125000Y-103525000D03*
X194600000Y-156275000D03*
X178600000Y-132675000D03*
X190600000Y-134675000D03*
X185600000Y-132675000D03*
X190350000Y-43850000D03*
X177125000Y-81925000D03*
X188350000Y-33050000D03*
X193125000Y-100525000D03*
X190125000Y-86925000D03*
X192350000Y-36050000D03*
X195475000Y-130475000D03*
X180350000Y-31050000D03*
X180600000Y-132675000D03*
X185125000Y-80925000D03*
X190125000Y-107525000D03*
X175325000Y-82125000D03*
X192125000Y-104525000D03*
X193600000Y-141675000D03*
X166550000Y-30250000D03*
X192600000Y-150475000D03*
X193350000Y-41050000D03*
X160550000Y-32250000D03*
X194125000Y-82925000D03*
X190600000Y-132675000D03*
X180350000Y-30050000D03*
X167325000Y-81125000D03*
X190125000Y-90925000D03*
X191350000Y-48850000D03*
X176350000Y-30050000D03*
X166550000Y-32250000D03*
X193350000Y-44850000D03*
X173550000Y-32250000D03*
X190600000Y-145475000D03*
X192125000Y-98725000D03*
X189125000Y-107525000D03*
X190125000Y-102525000D03*
X191600000Y-153275000D03*
X192600000Y-133675000D03*
X192600000Y-141675000D03*
X191600000Y-154275000D03*
X188350000Y-56650000D03*
X193600000Y-143475000D03*
X193600000Y-136675000D03*
X173325000Y-83125000D03*
X175800000Y-132875000D03*
X191350000Y-54650000D03*
X194125000Y-90925000D03*
X190600000Y-133675000D03*
X192125000Y-85925000D03*
X188125000Y-80925000D03*
X164325000Y-82125000D03*
X165550000Y-30250000D03*
X166800000Y-133875000D03*
X185350000Y-32050000D03*
X187350000Y-30050000D03*
X192350000Y-55650000D03*
X193600000Y-140675000D03*
X190600000Y-140675000D03*
X193600000Y-133675000D03*
X193600000Y-137675000D03*
X191600000Y-155275000D03*
X187125000Y-84925000D03*
X189600000Y-157275000D03*
X192125000Y-97725000D03*
X190600000Y-142675000D03*
X190600000Y-152275000D03*
X194125000Y-103525000D03*
X189125000Y-84925000D03*
X193125000Y-91925000D03*
X190125000Y-91925000D03*
X191350000Y-32050000D03*
X189600000Y-131675000D03*
X189600000Y-136675000D03*
X193600000Y-142675000D03*
X190600000Y-138675000D03*
X189350000Y-48850000D03*
X194125000Y-92725000D03*
X191600000Y-140675000D03*
X190600000Y-157275000D03*
X173800000Y-131875000D03*
X161325000Y-83125000D03*
X171325000Y-81125000D03*
X185350000Y-33050000D03*
X188600000Y-136675000D03*
X193125000Y-89925000D03*
X190125000Y-105525000D03*
X177125000Y-80925000D03*
X192125000Y-93725000D03*
X174800000Y-132875000D03*
X176600000Y-131675000D03*
X189350000Y-52650000D03*
X192125000Y-102525000D03*
X189350000Y-49850000D03*
X164325000Y-83125000D03*
X193125000Y-103525000D03*
X182350000Y-31050000D03*
X171325000Y-82125000D03*
X167550000Y-32250000D03*
X192600000Y-139675000D03*
X167325000Y-83125000D03*
X194325000Y-26000000D03*
X193350000Y-45850000D03*
X169325000Y-83125000D03*
X189350000Y-42850000D03*
X192600000Y-156275000D03*
X162325000Y-81125000D03*
X188350000Y-30050000D03*
X192350000Y-38050000D03*
X164550000Y-30250000D03*
X190600000Y-144475000D03*
X189125000Y-106525000D03*
X165325000Y-83125000D03*
X190600000Y-150475000D03*
X190125000Y-104525000D03*
X192600000Y-134675000D03*
X192350000Y-53650000D03*
X174325000Y-83125000D03*
X194125000Y-96725000D03*
X190600000Y-155275000D03*
X184125000Y-80925000D03*
X172800000Y-131875000D03*
X192125000Y-91925000D03*
X173325000Y-82125000D03*
X187350000Y-32050000D03*
X172550000Y-31250000D03*
X186600000Y-132675000D03*
X193600000Y-149475000D03*
X191600000Y-157275000D03*
X183125000Y-81925000D03*
X189350000Y-30050000D03*
X192600000Y-138675000D03*
X192600000Y-145475000D03*
X186350000Y-32050000D03*
X186600000Y-134675000D03*
X191125000Y-105525000D03*
X183350000Y-30050000D03*
X194125000Y-86925000D03*
X165800000Y-132875000D03*
X187125000Y-80925000D03*
X190350000Y-41050000D03*
X193350000Y-46850000D03*
X194600000Y-147475000D03*
X192600000Y-137675000D03*
X194600000Y-154275000D03*
X185600000Y-133775000D03*
X193125000Y-98725000D03*
X192350000Y-33050000D03*
X161550000Y-31250000D03*
X194125000Y-97725000D03*
X189350000Y-40050000D03*
X190350000Y-34050000D03*
X165325000Y-81125000D03*
X191350000Y-42850000D03*
X186600000Y-131675000D03*
X191125000Y-86925000D03*
X163325000Y-81125000D03*
X193125000Y-94725000D03*
X194125000Y-93725000D03*
X188350000Y-49850000D03*
X171325000Y-83125000D03*
X191350000Y-46850000D03*
X193350000Y-41850000D03*
X171550000Y-30250000D03*
X170550000Y-32250000D03*
X193350000Y-52650000D03*
X187600000Y-134675000D03*
X194600000Y-148475000D03*
X184350000Y-31050000D03*
X170325000Y-83125000D03*
X162550000Y-32250000D03*
X179350000Y-30050000D03*
X189350000Y-36050000D03*
X173325000Y-81125000D03*
X189600000Y-153275000D03*
X189350000Y-37050000D03*
X189600000Y-135675000D03*
X168550000Y-30250000D03*
X190350000Y-54650000D03*
X169550000Y-30250000D03*
X169325000Y-82125000D03*
X193125000Y-86925000D03*
X191125000Y-90925000D03*
X193350000Y-37050000D03*
X189600000Y-158275000D03*
X177350000Y-31050000D03*
X185350000Y-31050000D03*
X191350000Y-34050000D03*
X192350000Y-39050000D03*
X162800000Y-133875000D03*
X193350000Y-33050000D03*
X193125000Y-99725000D03*
X178350000Y-31050000D03*
X189350000Y-54650000D03*
X176125000Y-81925000D03*
X192125000Y-86925000D03*
X191350000Y-49850000D03*
X166325000Y-81125000D03*
X178350000Y-30050000D03*
X192350000Y-51650000D03*
X162325000Y-83125000D03*
X193600000Y-148475000D03*
X192350000Y-42850000D03*
X190125000Y-100725000D03*
X165800000Y-131875000D03*
X172325000Y-82125000D03*
X186125000Y-83925000D03*
X193125000Y-82925000D03*
X189600000Y-134675000D03*
X190350000Y-35050000D03*
X186125000Y-82925000D03*
X184350000Y-32150000D03*
X166550000Y-31250000D03*
X191125000Y-106525000D03*
X189600000Y-151475000D03*
X191125000Y-103525000D03*
X168325000Y-81125000D03*
X168325000Y-83125000D03*
X173800000Y-132875000D03*
X170550000Y-31250000D03*
X193600000Y-150475000D03*
X177600000Y-131675000D03*
X193600000Y-145475000D03*
X192600000Y-149475000D03*
X181600000Y-132675000D03*
X191350000Y-40050000D03*
X192125000Y-82925000D03*
X193350000Y-32050000D03*
X191125000Y-88925000D03*
X191125000Y-84925000D03*
X184125000Y-81925000D03*
X191600000Y-151475000D03*
X182600000Y-131675000D03*
X190350000Y-32050000D03*
X185125000Y-83025000D03*
X192125000Y-89925000D03*
X194600000Y-142675000D03*
X171800000Y-133875000D03*
X194125000Y-91925000D03*
X193350000Y-43850000D03*
X193600000Y-139675000D03*
X190125000Y-94725000D03*
X187350000Y-33050000D03*
X163800000Y-132875000D03*
X190600000Y-151475000D03*
X172550000Y-30250000D03*
X194600000Y-133675000D03*
X188350000Y-35050000D03*
X192350000Y-49650000D03*
X194600000Y-140675000D03*
X190350000Y-42850000D03*
X179600000Y-131675000D03*
X189125000Y-86925000D03*
X189600000Y-155275000D03*
X181125000Y-80925000D03*
X190125000Y-80925000D03*
X190125000Y-82925000D03*
X190125000Y-81925000D03*
X192600000Y-140675000D03*
X176350000Y-31050000D03*
X170550000Y-30250000D03*
X174325000Y-82125000D03*
X193600000Y-153275000D03*
X176125000Y-80925000D03*
X181350000Y-30050000D03*
X188125000Y-83925000D03*
X194600000Y-155275000D03*
X182125000Y-81925000D03*
X191600000Y-150475000D03*
X176600000Y-132675000D03*
X193125000Y-95725000D03*
X193125000Y-90925000D03*
X193350000Y-36050000D03*
X193125000Y-97725000D03*
X182125000Y-80925000D03*
X166800000Y-132875000D03*
X188600000Y-134675000D03*
X189125000Y-80925000D03*
X194125000Y-98725000D03*
X190600000Y-139675000D03*
X184350000Y-30050000D03*
X188600000Y-135675000D03*
X191125000Y-85925000D03*
X191600000Y-139675000D03*
X183600000Y-132675000D03*
X189125000Y-102525000D03*
X191600000Y-156275000D03*
X190350000Y-39050000D03*
X194600000Y-134675000D03*
X191600000Y-158275000D03*
X193350000Y-49650000D03*
X186125000Y-81925000D03*
X179125000Y-81925000D03*
X190350000Y-40050000D03*
X191600000Y-144475000D03*
X191125000Y-89925000D03*
X193125000Y-96725000D03*
X164550000Y-31250000D03*
X175600000Y-131875000D03*
X194600000Y-149475000D03*
X188350000Y-36050000D03*
X194600000Y-145475000D03*
X192350000Y-47850000D03*
X192600000Y-157275000D03*
X190350000Y-49850000D03*
X190350000Y-41850000D03*
X194125000Y-95725000D03*
X191350000Y-47850000D03*
X193125000Y-88925000D03*
X191350000Y-39050000D03*
X193125000Y-85925000D03*
X183350000Y-31050000D03*
X192350000Y-32050000D03*
X188350000Y-34050000D03*
X192600000Y-153275000D03*
X188125000Y-81925000D03*
X167800000Y-131875000D03*
X186350000Y-31050000D03*
X174800000Y-131875000D03*
X191600000Y-134675000D03*
X194125000Y-94725000D03*
X188350000Y-32050000D03*
X190350000Y-56650000D03*
X189125000Y-100725000D03*
X184600000Y-132675000D03*
X165550000Y-31250000D03*
X191125000Y-94725000D03*
X188350000Y-54650000D03*
X190125000Y-93725000D03*
X190600000Y-156275000D03*
X190350000Y-38050000D03*
X194600000Y-137675000D03*
X187350000Y-34050000D03*
X180125000Y-81925000D03*
X191350000Y-37050000D03*
X190350000Y-50650000D03*
X192125000Y-100725000D03*
X194600000Y-152275000D03*
X169800000Y-131875000D03*
X182600000Y-132675000D03*
X192350000Y-48850000D03*
X180600000Y-131675000D03*
X165800000Y-133875000D03*
X192125000Y-107525000D03*
X188125000Y-84925000D03*
X191600000Y-143475000D03*
X190125000Y-83925000D03*
X194125000Y-99725000D03*
X188600000Y-133675000D03*
X181125000Y-81925000D03*
X190125000Y-92725000D03*
X190600000Y-153275000D03*
X187600000Y-131675000D03*
X190125000Y-103525000D03*
X191125000Y-91925000D03*
X191125000Y-99725000D03*
X190350000Y-36050000D03*
X187350000Y-31050000D03*
X188350000Y-55650000D03*
X191350000Y-43850000D03*
X192125000Y-88925000D03*
X193350000Y-38050000D03*
X186350000Y-34050000D03*
X171800000Y-131875000D03*
X162550000Y-31250000D03*
X163800000Y-133875000D03*
X191600000Y-135675000D03*
X163325000Y-83125000D03*
X192125000Y-106525000D03*
X191125000Y-82925000D03*
X189600000Y-152275000D03*
X169800000Y-132875000D03*
X191125000Y-102525000D03*
X194600000Y-151275000D03*
X191600000Y-136675000D03*
X190125000Y-85925000D03*
X168325000Y-82125000D03*
X187125000Y-82925000D03*
X193600000Y-146475000D03*
X191125000Y-101525000D03*
X191350000Y-55650000D03*
X193600000Y-147475000D03*
X186350000Y-30050000D03*
X194125000Y-83925000D03*
X172800000Y-133875000D03*
X183600000Y-131675000D03*
X190600000Y-158275000D03*
X191600000Y-145475000D03*
X190125000Y-101525000D03*
X194600000Y-144475000D03*
X193350000Y-39050000D03*
X194600000Y-139675000D03*
X168800000Y-132875000D03*
X168550000Y-31250000D03*
X191600000Y-141675000D03*
X183125000Y-80925000D03*
X191350000Y-56650000D03*
X192600000Y-148475000D03*
X194125000Y-84925000D03*
X192350000Y-43850000D03*
X161550000Y-30250000D03*
X173550000Y-30250000D03*
X192350000Y-35050000D03*
X167550000Y-30250000D03*
X192350000Y-44850000D03*
X191350000Y-51650000D03*
X192125000Y-92725000D03*
X188350000Y-52650000D03*
X162550000Y-30250000D03*
X193600000Y-151275000D03*
X189600000Y-156275000D03*
X192350000Y-50650000D03*
X191600000Y-137675000D03*
X189350000Y-56650000D03*
X189350000Y-31050000D03*
X191350000Y-53650000D03*
X195075000Y-79775000D03*
X188350000Y-50650000D03*
X194600000Y-138675000D03*
X195400000Y-124500000D03*
X187600000Y-135675000D03*
X164550000Y-32250000D03*
X189125000Y-85925000D03*
X163800000Y-131875000D03*
X178125000Y-80925000D03*
X192350000Y-46850000D03*
X194400000Y-28950000D03*
X191600000Y-142675000D03*
X185350000Y-30050000D03*
X162325000Y-82125000D03*
X193125000Y-84925000D03*
X194600000Y-150475000D03*
X185125000Y-81925000D03*
X162800000Y-132875000D03*
X170800000Y-133875000D03*
X173550000Y-31250000D03*
X190600000Y-141675000D03*
X175125000Y-81125000D03*
X166325000Y-83125000D03*
X190600000Y-136675000D03*
X189350000Y-32050000D03*
X188600000Y-132675000D03*
X192350000Y-41050000D03*
X192600000Y-135675000D03*
X193125000Y-92725000D03*
X169550000Y-31250000D03*
X189600000Y-150475000D03*
X180125000Y-80925000D03*
X184600000Y-131675000D03*
X191350000Y-41050000D03*
X192600000Y-143475000D03*
X191350000Y-33050000D03*
X189350000Y-55650000D03*
X192125000Y-101525000D03*
X169800000Y-133875000D03*
X192350000Y-37050000D03*
X165325000Y-82125000D03*
X189350000Y-35050000D03*
X192600000Y-155275000D03*
X161550000Y-32250000D03*
X194125000Y-89925000D03*
X194600000Y-143475000D03*
X179350000Y-31050000D03*
X193350000Y-51650000D03*
X194600000Y-153275000D03*
X193600000Y-138675000D03*
X194125000Y-87925000D03*
X189350000Y-34050000D03*
X192125000Y-83925000D03*
X190600000Y-137675000D03*
X188350000Y-31050000D03*
X189125000Y-104525000D03*
X177600000Y-132675000D03*
X192600000Y-136675000D03*
X190600000Y-131675000D03*
X171550000Y-32250000D03*
X192125000Y-103525000D03*
X187600000Y-133675000D03*
X161800000Y-132875000D03*
X164800000Y-131875000D03*
X171800000Y-132875000D03*
X163550000Y-30250000D03*
X172550000Y-32250000D03*
X192350000Y-54650000D03*
X189350000Y-53650000D03*
X177350000Y-30050000D03*
X188350000Y-51650000D03*
X168800000Y-133875000D03*
X193350000Y-42850000D03*
X189600000Y-133675000D03*
X193125000Y-106525000D03*
X191125000Y-107525000D03*
X194125000Y-100525000D03*
X193125000Y-105525000D03*
X191125000Y-93725000D03*
X193350000Y-40050000D03*
X168550000Y-32250000D03*
X189350000Y-38050000D03*
X194125000Y-85925000D03*
X194600000Y-136675000D03*
X167800000Y-132875000D03*
X191600000Y-138675000D03*
X192125000Y-87925000D03*
X172325000Y-83125000D03*
X182350000Y-30050000D03*
X170325000Y-81125000D03*
X191350000Y-41850000D03*
X163550000Y-31250000D03*
X190350000Y-52650000D03*
X194125000Y-104525000D03*
X189600000Y-132675000D03*
X192125000Y-90925000D03*
X190125000Y-88925000D03*
X194125000Y-88925000D03*
X191600000Y-152275000D03*
X189125000Y-83925000D03*
X160550000Y-31250000D03*
X193350000Y-53650000D03*
X191125000Y-100725000D03*
X167800000Y-133875000D03*
X189125000Y-101525000D03*
X181350000Y-31050000D03*
X194600000Y-135675000D03*
X193350000Y-34050000D03*
X194125000Y-102525000D03*
X174325000Y-81125000D03*
X191125000Y-92725000D03*
X190350000Y-51650000D03*
X192125000Y-99725000D03*
X186600000Y-133675000D03*
X187350000Y-35050000D03*
X175350000Y-31050000D03*
X172800000Y-132875000D03*
X169550000Y-32250000D03*
X189600000Y-154275000D03*
X190125000Y-87925000D03*
X192350000Y-45850000D03*
X189600000Y-137675000D03*
X181600000Y-131675000D03*
X191125000Y-83925000D03*
X192600000Y-154275000D03*
X192600000Y-152275000D03*
X190350000Y-33050000D03*
X190125000Y-89925000D03*
X169325000Y-81125000D03*
X167325000Y-82125000D03*
X166325000Y-82125000D03*
X188600000Y-131675000D03*
X190125000Y-106525000D03*
X187125000Y-83925000D03*
X193600000Y-152275000D03*
X170800000Y-131875000D03*
X193600000Y-134675000D03*
X170800000Y-132875000D03*
X190350000Y-55650000D03*
X193350000Y-50650000D03*
X164800000Y-132875000D03*
X179600000Y-132675000D03*
X190350000Y-37050000D03*
X193600000Y-155275000D03*
X191125000Y-104525000D03*
X193350000Y-35050000D03*
X173800000Y-133875000D03*
X191350000Y-38050000D03*
X193350000Y-47850000D03*
X165550000Y-32250000D03*
X193125000Y-104525000D03*
X193350000Y-48850000D03*
X193125000Y-101525000D03*
X187600000Y-132675000D03*
X195200000Y-73600000D03*
X191600000Y-133675000D03*
X191125000Y-87925000D03*
X193600000Y-144475000D03*
X191350000Y-50650000D03*
X194600000Y-141675000D03*
X174350000Y-30250000D03*
X168800000Y-131875000D03*
X166800000Y-131875000D03*
X188350000Y-48850000D03*
X174550000Y-31250000D03*
X192350000Y-41850000D03*
X192350000Y-52650000D03*
X186350000Y-33050000D03*
X192350000Y-34050000D03*
X161325000Y-82125000D03*
X164325000Y-81125000D03*
X191350000Y-35050000D03*
X190600000Y-135675000D03*
X163325000Y-82125000D03*
X174800000Y-133875000D03*
X185600000Y-131675000D03*
X178600000Y-131675000D03*
X188125000Y-85925000D03*
X190350000Y-53650000D03*
%TO.N,Net-(D7-K)*%
X166975000Y-171600000D03*
%TO.N,Net-(D4-K)*%
X166500000Y-120850000D03*
%TO.N,/FET/Phase_B_FET/PHASE_B*%
X181125000Y-94425000D03*
X184125000Y-98425000D03*
X178125000Y-94425000D03*
X186125000Y-99425000D03*
X172325000Y-116325000D03*
X180125000Y-109325000D03*
X185125000Y-111325000D03*
X173325000Y-110425000D03*
X184125000Y-97425000D03*
X180125000Y-108325000D03*
X184125000Y-104425000D03*
X176325000Y-97425000D03*
X177125000Y-99425000D03*
X176325000Y-105425000D03*
X186125000Y-90425000D03*
X181125000Y-99425000D03*
X181125000Y-91425000D03*
X183125000Y-104425000D03*
X175325000Y-108425000D03*
X183125000Y-109325000D03*
X185125000Y-92425000D03*
X183125000Y-89425000D03*
X183125000Y-103425000D03*
X177125000Y-107325000D03*
X178125000Y-105425000D03*
X177325000Y-114325000D03*
X176325000Y-89425000D03*
X177125000Y-102425000D03*
X184125000Y-91425000D03*
X178125000Y-101425000D03*
X173325000Y-112425000D03*
X180125000Y-92425000D03*
X173325000Y-87425000D03*
X179125000Y-90425000D03*
X177325000Y-116325000D03*
X183125000Y-108325000D03*
X183125000Y-101425000D03*
X182125000Y-93425000D03*
X186125000Y-111325000D03*
X173325000Y-97425000D03*
X181125000Y-95425000D03*
X172325000Y-93425000D03*
X175325000Y-100425000D03*
X183125000Y-105425000D03*
X173325000Y-111425000D03*
X186125000Y-94425000D03*
X184125000Y-94425000D03*
X178125000Y-93425000D03*
X186125000Y-88425000D03*
X172325000Y-101425000D03*
X185125000Y-108325000D03*
X185125000Y-87425000D03*
X179125000Y-97425000D03*
X174325000Y-104425000D03*
X184125000Y-105425000D03*
X174325000Y-115325000D03*
X182125000Y-88425000D03*
X174325000Y-108425000D03*
X185125000Y-103425000D03*
X172325000Y-89425000D03*
X173325000Y-101425000D03*
X175325000Y-113425000D03*
X185125000Y-100425000D03*
X173325000Y-88425000D03*
X177125000Y-89425000D03*
X184125000Y-110325000D03*
X186125000Y-103425000D03*
X174325000Y-102425000D03*
X179125000Y-98425000D03*
X177125000Y-98425000D03*
X179125000Y-91425000D03*
X177125000Y-87425000D03*
X183125000Y-91425000D03*
X172325000Y-94425000D03*
X175325000Y-91425000D03*
X174325000Y-103425000D03*
X178125000Y-102425000D03*
X173325000Y-102425000D03*
X179125000Y-94425000D03*
X174325000Y-100425000D03*
X179125000Y-108325000D03*
X178125000Y-100425000D03*
X184125000Y-106425000D03*
X184125000Y-102425000D03*
X173325000Y-89425000D03*
X176325000Y-106425000D03*
X184125000Y-100425000D03*
X186125000Y-106425000D03*
X176325000Y-93425000D03*
X173325000Y-94425000D03*
X174325000Y-112425000D03*
X173325000Y-90425000D03*
X173325000Y-106425000D03*
X181125000Y-101425000D03*
X172325000Y-115325000D03*
X178125000Y-87425000D03*
X176325000Y-110425000D03*
X173325000Y-100425000D03*
X179125000Y-110325000D03*
X182125000Y-111325000D03*
X184125000Y-99425000D03*
X181125000Y-104425000D03*
X184125000Y-101425000D03*
X175325000Y-98425000D03*
X186125000Y-100425000D03*
X186125000Y-97425000D03*
X185125000Y-104425000D03*
X182125000Y-106425000D03*
X180125000Y-106425000D03*
X175325000Y-92425000D03*
X186125000Y-95425000D03*
X181125000Y-106425000D03*
X183125000Y-97425000D03*
X173325000Y-104425000D03*
X185125000Y-109325000D03*
X183125000Y-99425000D03*
X184125000Y-89425000D03*
X182125000Y-97425000D03*
X176325000Y-88425000D03*
X180125000Y-111325000D03*
X177125000Y-110325000D03*
X174325000Y-98425000D03*
X177125000Y-106425000D03*
X185125000Y-89425000D03*
X173325000Y-103425000D03*
X186125000Y-89425000D03*
X178125000Y-99425000D03*
X179125000Y-89425000D03*
X185125000Y-94425000D03*
X176325000Y-111425000D03*
X182125000Y-94425000D03*
X179125000Y-105425000D03*
X175325000Y-106425000D03*
X184125000Y-108325000D03*
X176325000Y-104425000D03*
X179125000Y-107325000D03*
X172325000Y-114325000D03*
X178325000Y-113425000D03*
X180125000Y-105425000D03*
X172325000Y-100425000D03*
X179125000Y-99425000D03*
X179125000Y-111325000D03*
X181125000Y-88425000D03*
X180125000Y-110325000D03*
X175325000Y-105425000D03*
X178125000Y-88425000D03*
X172325000Y-91425000D03*
X183125000Y-90425000D03*
X183125000Y-107325000D03*
X178125000Y-92425000D03*
X180125000Y-88425000D03*
X174325000Y-105425000D03*
X182125000Y-87425000D03*
X184125000Y-93425000D03*
X177125000Y-88425000D03*
X183125000Y-95425000D03*
X175325000Y-103425000D03*
X177125000Y-101425000D03*
X179125000Y-102425000D03*
X179325000Y-112425000D03*
X182125000Y-108325000D03*
X181125000Y-96425000D03*
X177125000Y-90425000D03*
X176325000Y-109425000D03*
X177125000Y-93425000D03*
X181125000Y-110325000D03*
X182125000Y-99425000D03*
X180125000Y-87425000D03*
X186125000Y-92425000D03*
X180125000Y-96425000D03*
X180125000Y-104425000D03*
X175325000Y-96425000D03*
X175325000Y-109425000D03*
X181125000Y-109325000D03*
X176325000Y-113425000D03*
X180125000Y-107325000D03*
X183125000Y-87425000D03*
X185125000Y-105425000D03*
X175325000Y-112425000D03*
X174325000Y-96425000D03*
X182125000Y-98425000D03*
X173325000Y-96425000D03*
X176325000Y-112425000D03*
X176325000Y-92425000D03*
X180125000Y-101425000D03*
X177125000Y-100425000D03*
X176325000Y-90425000D03*
X176325000Y-95425000D03*
X174325000Y-109425000D03*
X181125000Y-100425000D03*
X175325000Y-101425000D03*
X181125000Y-93425000D03*
X182125000Y-90425000D03*
X172325000Y-87425000D03*
X175325000Y-95425000D03*
X173325000Y-91425000D03*
X173325000Y-95425000D03*
X177125000Y-96425000D03*
X182125000Y-102425000D03*
X176325000Y-103425000D03*
X173325000Y-99425000D03*
X173325000Y-115325000D03*
X173325000Y-105425000D03*
X172325000Y-107425000D03*
X176325000Y-94425000D03*
X182125000Y-101425000D03*
X180125000Y-102425000D03*
X186125000Y-110325000D03*
X174325000Y-107425000D03*
X178125000Y-89425000D03*
X175325000Y-114325000D03*
X174325000Y-92425000D03*
X181125000Y-107325000D03*
X186125000Y-109325000D03*
X180125000Y-95425000D03*
X174325000Y-99425000D03*
X176325000Y-91425000D03*
X182125000Y-91425000D03*
X176325000Y-101425000D03*
X175325000Y-88425000D03*
X178125000Y-106425000D03*
X183125000Y-106425000D03*
X174325000Y-116325000D03*
X183125000Y-110325000D03*
X184125000Y-90425000D03*
X178125000Y-107325000D03*
X179125000Y-104425000D03*
X176325000Y-96425000D03*
X177125000Y-94425000D03*
X178125000Y-109325000D03*
X179125000Y-100425000D03*
X184125000Y-95425000D03*
X183125000Y-100425000D03*
X186125000Y-105425000D03*
X185125000Y-107325000D03*
X175325000Y-87425000D03*
X186125000Y-93425000D03*
X177325000Y-115325000D03*
X182125000Y-107325000D03*
X177125000Y-111325000D03*
X183125000Y-92425000D03*
X175325000Y-102425000D03*
X181125000Y-105425000D03*
X184125000Y-87425000D03*
X183125000Y-98425000D03*
X175325000Y-104425000D03*
X181125000Y-103425000D03*
X173325000Y-114325000D03*
X174325000Y-95425000D03*
X181125000Y-102425000D03*
X177125000Y-95425000D03*
X185125000Y-98425000D03*
X179125000Y-95425000D03*
X172325000Y-112425000D03*
X182125000Y-95425000D03*
X175325000Y-97425000D03*
X181125000Y-89425000D03*
X183125000Y-96425000D03*
X179125000Y-92425000D03*
X179125000Y-103425000D03*
X186125000Y-107325000D03*
X175325000Y-90425000D03*
X178125000Y-96425000D03*
X186125000Y-102425000D03*
X173325000Y-107425000D03*
X178125000Y-111325000D03*
X174325000Y-91425000D03*
X173325000Y-98425000D03*
X181125000Y-90425000D03*
X175325000Y-115325000D03*
X176325000Y-108425000D03*
X186125000Y-87425000D03*
X175325000Y-111425000D03*
X181125000Y-111325000D03*
X176325000Y-115325000D03*
X174325000Y-94425000D03*
X182125000Y-109325000D03*
X185125000Y-99425000D03*
X176325000Y-116325000D03*
X172325000Y-105425000D03*
X180125000Y-89425000D03*
X183125000Y-93425000D03*
X174325000Y-106425000D03*
X178125000Y-90425000D03*
X182125000Y-96425000D03*
X175325000Y-116325000D03*
X182125000Y-92425000D03*
X179125000Y-93425000D03*
X179125000Y-88425000D03*
X184125000Y-88425000D03*
X185125000Y-102425000D03*
X173325000Y-116325000D03*
X177125000Y-103425000D03*
X175325000Y-107425000D03*
X176325000Y-102425000D03*
X178325000Y-112425000D03*
X176325000Y-99425000D03*
X173325000Y-113425000D03*
X176325000Y-98425000D03*
X185125000Y-90425000D03*
X176325000Y-107425000D03*
X178125000Y-103425000D03*
X176325000Y-100425000D03*
X186125000Y-96425000D03*
X174325000Y-101425000D03*
X182125000Y-103425000D03*
X185125000Y-88425000D03*
X173325000Y-92425000D03*
X184125000Y-111325000D03*
X185125000Y-101425000D03*
X177325000Y-112425000D03*
X183125000Y-88425000D03*
X182125000Y-89425000D03*
X177125000Y-108325000D03*
X177125000Y-91425000D03*
X185125000Y-110325000D03*
X174325000Y-89425000D03*
X175325000Y-89425000D03*
X186125000Y-104425000D03*
X181125000Y-97425000D03*
X180125000Y-98425000D03*
X178125000Y-98425000D03*
X174325000Y-93425000D03*
X177125000Y-92425000D03*
X185125000Y-91425000D03*
X183125000Y-111325000D03*
X178125000Y-95425000D03*
X180125000Y-99425000D03*
X180125000Y-91425000D03*
X175325000Y-99425000D03*
X177125000Y-97425000D03*
X174325000Y-114325000D03*
X176325000Y-87425000D03*
X172325000Y-104425000D03*
X186125000Y-101425000D03*
X182125000Y-100425000D03*
X185125000Y-96425000D03*
X172325000Y-103425000D03*
X174325000Y-87425000D03*
X179125000Y-96425000D03*
X183125000Y-102425000D03*
X172325000Y-88425000D03*
X178125000Y-104425000D03*
X172325000Y-90425000D03*
X173325000Y-93425000D03*
X186125000Y-91425000D03*
X178125000Y-110325000D03*
X186125000Y-108325000D03*
X181125000Y-108325000D03*
X175325000Y-94425000D03*
X175325000Y-110425000D03*
X183125000Y-94425000D03*
X185125000Y-95425000D03*
X182125000Y-110325000D03*
X185125000Y-93425000D03*
X174325000Y-111425000D03*
X172325000Y-106425000D03*
X186125000Y-98425000D03*
X174325000Y-90425000D03*
X177125000Y-105425000D03*
X182125000Y-104425000D03*
X179125000Y-106425000D03*
X180125000Y-94425000D03*
X174325000Y-113425000D03*
X177325000Y-113425000D03*
X178125000Y-97425000D03*
X180125000Y-90425000D03*
X180125000Y-93425000D03*
X179125000Y-87425000D03*
X181125000Y-87425000D03*
X180125000Y-100425000D03*
X174325000Y-97425000D03*
X184125000Y-96425000D03*
X184125000Y-92425000D03*
X175325000Y-93425000D03*
X180125000Y-103425000D03*
X174325000Y-110425000D03*
X172325000Y-113425000D03*
X177125000Y-104425000D03*
X181125000Y-98425000D03*
X172325000Y-102425000D03*
X180125000Y-97425000D03*
X177125000Y-109325000D03*
X173325000Y-108425000D03*
X179125000Y-109325000D03*
X174325000Y-88425000D03*
X173325000Y-109425000D03*
X179125000Y-101425000D03*
X184125000Y-107325000D03*
X176325000Y-114325000D03*
X185125000Y-97425000D03*
X184125000Y-109325000D03*
X178125000Y-91425000D03*
X185125000Y-106425000D03*
X181125000Y-92425000D03*
X178125000Y-108325000D03*
X184125000Y-103425000D03*
X172325000Y-92425000D03*
X182125000Y-105425000D03*
%TO.N,Net-(D5-K)*%
X165725000Y-69975000D03*
%TO.N,/FET/Phase_C_FET/PHASE_C*%
X176550000Y-63450000D03*
X179350000Y-50550000D03*
X177350000Y-57450000D03*
X174550000Y-65450000D03*
X184350000Y-38550000D03*
X176350000Y-36550000D03*
X171550000Y-36550000D03*
X172550000Y-65450000D03*
X179350000Y-40550000D03*
X181350000Y-57450000D03*
X185350000Y-37550000D03*
X178350000Y-47550000D03*
X181350000Y-43550000D03*
X183350000Y-44550000D03*
X178350000Y-39550000D03*
X173550000Y-54550000D03*
X181350000Y-59450000D03*
X175550000Y-46550000D03*
X177350000Y-45550000D03*
X183350000Y-36550000D03*
X181350000Y-58450000D03*
X184350000Y-60450000D03*
X182350000Y-58450000D03*
X185350000Y-45550000D03*
X181350000Y-55550000D03*
X183350000Y-48550000D03*
X180350000Y-44550000D03*
X180350000Y-43550000D03*
X180350000Y-58450000D03*
X181350000Y-36550000D03*
X175550000Y-49550000D03*
X178350000Y-41550000D03*
X180350000Y-42550000D03*
X183350000Y-43550000D03*
X179350000Y-56450000D03*
X180350000Y-53550000D03*
X181350000Y-49550000D03*
X182350000Y-41550000D03*
X173550000Y-65450000D03*
X176350000Y-41550000D03*
X185350000Y-54550000D03*
X175550000Y-52550000D03*
X174550000Y-63450000D03*
X177350000Y-41550000D03*
X179350000Y-38550000D03*
X176350000Y-58450000D03*
X176550000Y-64450000D03*
X184350000Y-42550000D03*
X173550000Y-48550000D03*
X184350000Y-53550000D03*
X173550000Y-37550000D03*
X179350000Y-49550000D03*
X182350000Y-52550000D03*
X182350000Y-46550000D03*
X185350000Y-41550000D03*
X173550000Y-43550000D03*
X172550000Y-44550000D03*
X174550000Y-37550000D03*
X175550000Y-36550000D03*
X174550000Y-45550000D03*
X179350000Y-42550000D03*
X172550000Y-57550000D03*
X180350000Y-59450000D03*
X180350000Y-46550000D03*
X175550000Y-40550000D03*
X176550000Y-65450000D03*
X174550000Y-44550000D03*
X175550000Y-41550000D03*
X179350000Y-36550000D03*
X172550000Y-40550000D03*
X171550000Y-64450000D03*
X175550000Y-62550000D03*
X172550000Y-45550000D03*
X171550000Y-41550000D03*
X179350000Y-53550000D03*
X182350000Y-50550000D03*
X184350000Y-54550000D03*
X175550000Y-42550000D03*
X178350000Y-60450000D03*
X182350000Y-60450000D03*
X177350000Y-52550000D03*
X172550000Y-48550000D03*
X184350000Y-52550000D03*
X176350000Y-47550000D03*
X183350000Y-41550000D03*
X174550000Y-38550000D03*
X171550000Y-43550000D03*
X171550000Y-39550000D03*
X173550000Y-58550000D03*
X183350000Y-58450000D03*
X177350000Y-47550000D03*
X182350000Y-53550000D03*
X184350000Y-40550000D03*
X177350000Y-50550000D03*
X175550000Y-57550000D03*
X178350000Y-51550000D03*
X173550000Y-53550000D03*
X172550000Y-36550000D03*
X183350000Y-52550000D03*
X172550000Y-47550000D03*
X182350000Y-55550000D03*
X183350000Y-54550000D03*
X176350000Y-49550000D03*
X173550000Y-60550000D03*
X176350000Y-55550000D03*
X182350000Y-47550000D03*
X182350000Y-59450000D03*
X174550000Y-36550000D03*
X184350000Y-59450000D03*
X181350000Y-45550000D03*
X178550000Y-61550000D03*
X175550000Y-60550000D03*
X179350000Y-37550000D03*
X175550000Y-56550000D03*
X172550000Y-60550000D03*
X182350000Y-43550000D03*
X183350000Y-40550000D03*
X175550000Y-45550000D03*
X181350000Y-42550000D03*
X182350000Y-42550000D03*
X177350000Y-55550000D03*
X178350000Y-40550000D03*
X173550000Y-51550000D03*
X171550000Y-63450000D03*
X175550000Y-50550000D03*
X174550000Y-64450000D03*
X185350000Y-51550000D03*
X185350000Y-39550000D03*
X184350000Y-43550000D03*
X174550000Y-52550000D03*
X183350000Y-60450000D03*
X181350000Y-52550000D03*
X173550000Y-47550000D03*
X185350000Y-60450000D03*
X185350000Y-43550000D03*
X178350000Y-37550000D03*
X182350000Y-36550000D03*
X177350000Y-44550000D03*
X185350000Y-42550000D03*
X179350000Y-59450000D03*
X173550000Y-39550000D03*
X174550000Y-53550000D03*
X174550000Y-43550000D03*
X172550000Y-61550000D03*
X181350000Y-53550000D03*
X171550000Y-50550000D03*
X178350000Y-56450000D03*
X175550000Y-63450000D03*
X175550000Y-61550000D03*
X180350000Y-49550000D03*
X172550000Y-51550000D03*
X176350000Y-59450000D03*
X185350000Y-58450000D03*
X172550000Y-58550000D03*
X173550000Y-52550000D03*
X172550000Y-41550000D03*
X184350000Y-39550000D03*
X180350000Y-38550000D03*
X174550000Y-57550000D03*
X180350000Y-48550000D03*
X175550000Y-65450000D03*
X172550000Y-50550000D03*
X171550000Y-61550000D03*
X171550000Y-42550000D03*
X183350000Y-50550000D03*
X181350000Y-54550000D03*
X174550000Y-48550000D03*
X176350000Y-44550000D03*
X185350000Y-56450000D03*
X176350000Y-46550000D03*
X175550000Y-64450000D03*
X173550000Y-59550000D03*
X184350000Y-37550000D03*
X174550000Y-56550000D03*
X172550000Y-63450000D03*
X173550000Y-57550000D03*
X183350000Y-57450000D03*
X178350000Y-58450000D03*
X178350000Y-49550000D03*
X179350000Y-46550000D03*
X174550000Y-50550000D03*
X176350000Y-43550000D03*
X183350000Y-56450000D03*
X173550000Y-61550000D03*
X174550000Y-59550000D03*
X178350000Y-52550000D03*
X184350000Y-49550000D03*
X177350000Y-58450000D03*
X176350000Y-48550000D03*
X176350000Y-42550000D03*
X173550000Y-49550000D03*
X180350000Y-56450000D03*
X181350000Y-38550000D03*
X174550000Y-46550000D03*
X179350000Y-55550000D03*
X172550000Y-37550000D03*
X184350000Y-46550000D03*
X179350000Y-47550000D03*
X183350000Y-53550000D03*
X181350000Y-60450000D03*
X178350000Y-36550000D03*
X182350000Y-51550000D03*
X176350000Y-45550000D03*
X171550000Y-54550000D03*
X179350000Y-41550000D03*
X184350000Y-47550000D03*
X181350000Y-41550000D03*
X172550000Y-38550000D03*
X181350000Y-56450000D03*
X177350000Y-40550000D03*
X184350000Y-41550000D03*
X175550000Y-39550000D03*
X176350000Y-52550000D03*
X171550000Y-56550000D03*
X176550000Y-61550000D03*
X185350000Y-48550000D03*
X173550000Y-36550000D03*
X182350000Y-40550000D03*
X175550000Y-59550000D03*
X183350000Y-37550000D03*
X177550000Y-61550000D03*
X174550000Y-55550000D03*
X175550000Y-37550000D03*
X183350000Y-55550000D03*
X177350000Y-39550000D03*
X172550000Y-56550000D03*
X184350000Y-50550000D03*
X177550000Y-62550000D03*
X179350000Y-60450000D03*
X172550000Y-43550000D03*
X181350000Y-47550000D03*
X180350000Y-45550000D03*
X179350000Y-48550000D03*
X177350000Y-60450000D03*
X173550000Y-50550000D03*
X178350000Y-45550000D03*
X182350000Y-49550000D03*
X175550000Y-43550000D03*
X175550000Y-44550000D03*
X180350000Y-60450000D03*
X171550000Y-53550000D03*
X185350000Y-52550000D03*
X184350000Y-56450000D03*
X185350000Y-44550000D03*
X182350000Y-54550000D03*
X176350000Y-40550000D03*
X172550000Y-53550000D03*
X172550000Y-59550000D03*
X180350000Y-41550000D03*
X176350000Y-56450000D03*
X173550000Y-63450000D03*
X174550000Y-60550000D03*
X185350000Y-57450000D03*
X178350000Y-53550000D03*
X171550000Y-38550000D03*
X176350000Y-53550000D03*
X181350000Y-44550000D03*
X184350000Y-51550000D03*
X173550000Y-64450000D03*
X184350000Y-57450000D03*
X175550000Y-53550000D03*
X177350000Y-56450000D03*
X177350000Y-42550000D03*
X175550000Y-47550000D03*
X175550000Y-48550000D03*
X177350000Y-38550000D03*
X179350000Y-44550000D03*
X175550000Y-58550000D03*
X178350000Y-54550000D03*
X182350000Y-45550000D03*
X181350000Y-51550000D03*
X179350000Y-51550000D03*
X171550000Y-40550000D03*
X180350000Y-57450000D03*
X172550000Y-39550000D03*
X174550000Y-41550000D03*
X172550000Y-54550000D03*
X180350000Y-37550000D03*
X184350000Y-58450000D03*
X182350000Y-37550000D03*
X171550000Y-65450000D03*
X183350000Y-47550000D03*
X183350000Y-38550000D03*
X172550000Y-42550000D03*
X178350000Y-46550000D03*
X177350000Y-54550000D03*
X172550000Y-46550000D03*
X181350000Y-48550000D03*
X182350000Y-38550000D03*
X175550000Y-51550000D03*
X176350000Y-39550000D03*
X182350000Y-48550000D03*
X173550000Y-41550000D03*
X176350000Y-37550000D03*
X172550000Y-64450000D03*
X178350000Y-48550000D03*
X177350000Y-43550000D03*
X181350000Y-46550000D03*
X174550000Y-42550000D03*
X177350000Y-53550000D03*
X179350000Y-52550000D03*
X178350000Y-50550000D03*
X180350000Y-54550000D03*
X184350000Y-44550000D03*
X173550000Y-45550000D03*
X180350000Y-50550000D03*
X172550000Y-55550000D03*
X179350000Y-45550000D03*
X173550000Y-62550000D03*
X182350000Y-57450000D03*
X183350000Y-51550000D03*
X181350000Y-50550000D03*
X177350000Y-37550000D03*
X180350000Y-47550000D03*
X180350000Y-52550000D03*
X185350000Y-46550000D03*
X184350000Y-36550000D03*
X171550000Y-51550000D03*
X178350000Y-42550000D03*
X185350000Y-55550000D03*
X180350000Y-51550000D03*
X185350000Y-59450000D03*
X176350000Y-50550000D03*
X174550000Y-61550000D03*
X173550000Y-55550000D03*
X178350000Y-57450000D03*
X172550000Y-49550000D03*
X174550000Y-47550000D03*
X176550000Y-62550000D03*
X182350000Y-56450000D03*
X174550000Y-51550000D03*
X175550000Y-55550000D03*
X182350000Y-44550000D03*
X176350000Y-38550000D03*
X173550000Y-56550000D03*
X173550000Y-42550000D03*
X177350000Y-59450000D03*
X173550000Y-46550000D03*
X171550000Y-37550000D03*
X180350000Y-36550000D03*
X184350000Y-55550000D03*
X178350000Y-55550000D03*
X183350000Y-46550000D03*
X185350000Y-36550000D03*
X175550000Y-38550000D03*
X171550000Y-62550000D03*
X174550000Y-62550000D03*
X173550000Y-38550000D03*
X185350000Y-40550000D03*
X171550000Y-55550000D03*
X185350000Y-38550000D03*
X174550000Y-49550000D03*
X172550000Y-62550000D03*
X176350000Y-54550000D03*
X178350000Y-44550000D03*
X181350000Y-37550000D03*
X182350000Y-39550000D03*
X173550000Y-40550000D03*
X183350000Y-45550000D03*
X185350000Y-47550000D03*
X174550000Y-40550000D03*
X180350000Y-55550000D03*
X183350000Y-59450000D03*
X177350000Y-51550000D03*
X185350000Y-50550000D03*
X178350000Y-38550000D03*
X183350000Y-42550000D03*
X173550000Y-44550000D03*
X184350000Y-48550000D03*
X171550000Y-52550000D03*
X175550000Y-54550000D03*
X181350000Y-40550000D03*
X177350000Y-48550000D03*
X178350000Y-43550000D03*
X176350000Y-51550000D03*
X174550000Y-58550000D03*
X177350000Y-36550000D03*
X185350000Y-49550000D03*
X179350000Y-54550000D03*
X174550000Y-39550000D03*
X180350000Y-40550000D03*
X180350000Y-39550000D03*
X176350000Y-57450000D03*
X177350000Y-49550000D03*
X178350000Y-59450000D03*
X183350000Y-39550000D03*
X183350000Y-49550000D03*
X172550000Y-52550000D03*
X185350000Y-53550000D03*
X179350000Y-39550000D03*
X177350000Y-46550000D03*
X179350000Y-58450000D03*
X171550000Y-49550000D03*
X181350000Y-39550000D03*
X179350000Y-57450000D03*
X184350000Y-45550000D03*
X174550000Y-54550000D03*
X179350000Y-43550000D03*
X176350000Y-60450000D03*
%TO.N,PANIC STOP*%
X114450000Y-153525000D03*
%TO.N,Current Sense_B*%
X163500000Y-78275000D03*
X178975000Y-78000000D03*
X186025000Y-77725000D03*
X120746607Y-150027142D03*
%TO.N,Current Sense_C*%
X185250000Y-26850000D03*
X117586439Y-159607845D03*
X155425000Y-32600000D03*
X180275000Y-27450000D03*
%TD*%
D34*
%TO.N,HS_MOS_C*%
X137042290Y-94861636D02*
X118049000Y-113854926D01*
X118049000Y-143580006D02*
X118568994Y-144100000D01*
X137042290Y-92641346D02*
X137042290Y-94861636D01*
X156783636Y-72900000D02*
X137042290Y-92641346D01*
X158600000Y-72900000D02*
X156783636Y-72900000D01*
X118049000Y-113854926D02*
X118049000Y-143580006D01*
X118568994Y-144100000D02*
X118725000Y-144100000D01*
%TO.N,/FET/HS_MOS_A*%
X124108636Y-146975000D02*
X151668636Y-174535000D01*
X151668636Y-174535000D02*
X160025000Y-174535000D01*
X118750000Y-146975000D02*
X124108636Y-146975000D01*
%TO.N,LS_MOS_C*%
X158600000Y-75241364D02*
X158600000Y-74175000D01*
X118725000Y-143299997D02*
X118725000Y-115116364D01*
X118725000Y-115116364D02*
X158600000Y-75241364D01*
%TO.N,/FET/LS_MOS_B*%
X147375000Y-125625000D02*
X148050000Y-124950000D01*
X140387116Y-128351000D02*
X142124000Y-128351000D01*
X142124000Y-128351000D02*
X144825000Y-125650000D01*
X118725000Y-145100000D02*
X123638116Y-145100000D01*
X123638116Y-145100000D02*
X140387116Y-128351000D01*
X159650000Y-124950000D02*
X159750000Y-125050000D01*
X148050000Y-124950000D02*
X159650000Y-124950000D01*
%TO.N,/FET/LS_MOS_A*%
X124204404Y-147850000D02*
X152179404Y-175825000D01*
X152179404Y-175825000D02*
X160125000Y-175825000D01*
X118750000Y-147850000D02*
X124204404Y-147850000D01*
%TO.N,/FET/HS_MOS_B*%
X125558636Y-146025000D02*
X118700000Y-146025000D01*
X147798636Y-123785000D02*
X125558636Y-146025000D01*
X159615000Y-123785000D02*
X147798636Y-123785000D01*
D35*
%TO.N,Current Sense_B*%
X136516290Y-92423470D02*
X136516290Y-94643760D01*
X125836050Y-105324000D02*
X124219991Y-105324000D01*
X156690760Y-72249000D02*
X136516290Y-92423470D01*
X119904346Y-149925000D02*
X120725000Y-149925000D01*
X117523000Y-112020991D02*
X117523000Y-147543654D01*
X158869654Y-72249000D02*
X156690760Y-72249000D01*
X163500000Y-78275000D02*
X163500000Y-76879346D01*
X117523000Y-147543654D02*
X119904346Y-149925000D01*
X163500000Y-76879346D02*
X158869654Y-72249000D01*
X136516290Y-94643760D02*
X125836050Y-105324000D01*
X124219991Y-105324000D02*
X117523000Y-112020991D01*
%TD*%
%TA.AperFunction,Conductor*%
%TO.N,/FET/Phase_A_FET/PHASE_A*%
G36*
X177641636Y-137234437D02*
G01*
X177666503Y-137244737D01*
X177666510Y-137244738D01*
X177666511Y-137244739D01*
X177821153Y-137275499D01*
X177821156Y-137275500D01*
X177821158Y-137275500D01*
X177978844Y-137275500D01*
X177978845Y-137275499D01*
X178057248Y-137259904D01*
X178133488Y-137244739D01*
X178133488Y-137244738D01*
X178133497Y-137244737D01*
X178158363Y-137234437D01*
X178205811Y-137225000D01*
X178594189Y-137225000D01*
X178641636Y-137234437D01*
X178666503Y-137244737D01*
X178666510Y-137244738D01*
X178666511Y-137244739D01*
X178821153Y-137275499D01*
X178821156Y-137275500D01*
X178821158Y-137275500D01*
X178978844Y-137275500D01*
X178978845Y-137275499D01*
X179057248Y-137259904D01*
X179133488Y-137244739D01*
X179133488Y-137244738D01*
X179133497Y-137244737D01*
X179158363Y-137234437D01*
X179205811Y-137225000D01*
X179594189Y-137225000D01*
X179641636Y-137234437D01*
X179666503Y-137244737D01*
X179666510Y-137244738D01*
X179666511Y-137244739D01*
X179821153Y-137275499D01*
X179821156Y-137275500D01*
X179821158Y-137275500D01*
X179978844Y-137275500D01*
X179978845Y-137275499D01*
X180057248Y-137259904D01*
X180133488Y-137244739D01*
X180133488Y-137244738D01*
X180133497Y-137244737D01*
X180158363Y-137234437D01*
X180205811Y-137225000D01*
X180594189Y-137225000D01*
X180641636Y-137234437D01*
X180666503Y-137244737D01*
X180666510Y-137244738D01*
X180666511Y-137244739D01*
X180821153Y-137275499D01*
X180821156Y-137275500D01*
X180821158Y-137275500D01*
X180978844Y-137275500D01*
X180978845Y-137275499D01*
X181057248Y-137259904D01*
X181133488Y-137244739D01*
X181133488Y-137244738D01*
X181133497Y-137244737D01*
X181158363Y-137234437D01*
X181205811Y-137225000D01*
X181594189Y-137225000D01*
X181641636Y-137234437D01*
X181666503Y-137244737D01*
X181666510Y-137244738D01*
X181666511Y-137244739D01*
X181821153Y-137275499D01*
X181821156Y-137275500D01*
X181821158Y-137275500D01*
X181978844Y-137275500D01*
X181978845Y-137275499D01*
X182057248Y-137259904D01*
X182133488Y-137244739D01*
X182133488Y-137244738D01*
X182133497Y-137244737D01*
X182158363Y-137234437D01*
X182205811Y-137225000D01*
X182594189Y-137225000D01*
X182641636Y-137234437D01*
X182666503Y-137244737D01*
X182666510Y-137244738D01*
X182666511Y-137244739D01*
X182821153Y-137275499D01*
X182821156Y-137275500D01*
X182821158Y-137275500D01*
X182978844Y-137275500D01*
X182978845Y-137275499D01*
X183057248Y-137259904D01*
X183133488Y-137244739D01*
X183133488Y-137244738D01*
X183133497Y-137244737D01*
X183158363Y-137234437D01*
X183205811Y-137225000D01*
X187176000Y-137225000D01*
X187243039Y-137244685D01*
X187288794Y-137297489D01*
X187300000Y-137349000D01*
X187300000Y-167623638D01*
X187280315Y-167690677D01*
X187263681Y-167711319D01*
X183836319Y-171138681D01*
X183774996Y-171172166D01*
X183748638Y-171175000D01*
X174051362Y-171175000D01*
X173984323Y-171155315D01*
X173963681Y-171138681D01*
X171586818Y-168761818D01*
X171566782Y-168735562D01*
X169916283Y-165841217D01*
X169900000Y-165779792D01*
X169900000Y-137773055D01*
X169919685Y-137706016D01*
X169972489Y-137660261D01*
X169979520Y-137657307D01*
X169989409Y-137653506D01*
X170033497Y-137644737D01*
X170179179Y-137584394D01*
X170192611Y-137575418D01*
X170205520Y-137570458D01*
X170227113Y-137568698D01*
X170247786Y-137562226D01*
X170261245Y-137565918D01*
X170275159Y-137564785D01*
X170294274Y-137574979D01*
X170315166Y-137580710D01*
X170318850Y-137583077D01*
X170320821Y-137584394D01*
X170320824Y-137584395D01*
X170320827Y-137584397D01*
X170466498Y-137644735D01*
X170466503Y-137644737D01*
X170621153Y-137675499D01*
X170621156Y-137675500D01*
X170621158Y-137675500D01*
X170778844Y-137675500D01*
X170778845Y-137675499D01*
X170933497Y-137644737D01*
X171079179Y-137584394D01*
X171131110Y-137549694D01*
X171197785Y-137528816D01*
X171265165Y-137547300D01*
X171268863Y-137549676D01*
X171320821Y-137584394D01*
X171320823Y-137584395D01*
X171320825Y-137584396D01*
X171466498Y-137644735D01*
X171466503Y-137644737D01*
X171621153Y-137675499D01*
X171621156Y-137675500D01*
X171621158Y-137675500D01*
X171778844Y-137675500D01*
X171778845Y-137675499D01*
X171933497Y-137644737D01*
X172079179Y-137584394D01*
X172131110Y-137549694D01*
X172197785Y-137528816D01*
X172265165Y-137547300D01*
X172268863Y-137549676D01*
X172320821Y-137584394D01*
X172320823Y-137584395D01*
X172320825Y-137584396D01*
X172466498Y-137644735D01*
X172466503Y-137644737D01*
X172621153Y-137675499D01*
X172621156Y-137675500D01*
X172621158Y-137675500D01*
X172778844Y-137675500D01*
X172778845Y-137675499D01*
X172933497Y-137644737D01*
X173079179Y-137584394D01*
X173210289Y-137496789D01*
X173212312Y-137494766D01*
X173213634Y-137494043D01*
X173214999Y-137492924D01*
X173215211Y-137493182D01*
X173273632Y-137461276D01*
X173343324Y-137466255D01*
X173384939Y-137492999D01*
X173385001Y-137492924D01*
X173385648Y-137493454D01*
X173387688Y-137494766D01*
X173389711Y-137496789D01*
X173520814Y-137584390D01*
X173520827Y-137584397D01*
X173666498Y-137644735D01*
X173666503Y-137644737D01*
X173821153Y-137675499D01*
X173821156Y-137675500D01*
X173821158Y-137675500D01*
X173978844Y-137675500D01*
X173978845Y-137675499D01*
X174133497Y-137644737D01*
X174279179Y-137584394D01*
X174331110Y-137549694D01*
X174397785Y-137528816D01*
X174465165Y-137547300D01*
X174468863Y-137549676D01*
X174520821Y-137584394D01*
X174520823Y-137584395D01*
X174520825Y-137584396D01*
X174666498Y-137644735D01*
X174666503Y-137644737D01*
X174821153Y-137675499D01*
X174821156Y-137675500D01*
X174821158Y-137675500D01*
X174978844Y-137675500D01*
X174978845Y-137675499D01*
X175133497Y-137644737D01*
X175279179Y-137584394D01*
X175331110Y-137549694D01*
X175397785Y-137528816D01*
X175465165Y-137547300D01*
X175468863Y-137549676D01*
X175520821Y-137584394D01*
X175520823Y-137584395D01*
X175520825Y-137584396D01*
X175666498Y-137644735D01*
X175666503Y-137644737D01*
X175821153Y-137675499D01*
X175821156Y-137675500D01*
X175821158Y-137675500D01*
X175978844Y-137675500D01*
X175978845Y-137675499D01*
X176133497Y-137644737D01*
X176279179Y-137584394D01*
X176410289Y-137496789D01*
X176521789Y-137385289D01*
X176575632Y-137304707D01*
X176629242Y-137259904D01*
X176698567Y-137251196D01*
X176702925Y-137251982D01*
X176821155Y-137275500D01*
X176821158Y-137275500D01*
X176978844Y-137275500D01*
X176978845Y-137275499D01*
X177057248Y-137259904D01*
X177133488Y-137244739D01*
X177133488Y-137244738D01*
X177133497Y-137244737D01*
X177158363Y-137234437D01*
X177205811Y-137225000D01*
X177594189Y-137225000D01*
X177641636Y-137234437D01*
G37*
%TD.AperFunction*%
%TD*%
%TA.AperFunction,Conductor*%
%TO.N,/FET/Phase_B_FET/PHASE_B*%
G36*
X177166636Y-86484437D02*
G01*
X177191503Y-86494737D01*
X177191510Y-86494738D01*
X177191511Y-86494739D01*
X177346153Y-86525499D01*
X177346156Y-86525500D01*
X177346158Y-86525500D01*
X177503844Y-86525500D01*
X177503845Y-86525499D01*
X177582248Y-86509904D01*
X177658488Y-86494739D01*
X177658488Y-86494738D01*
X177658497Y-86494737D01*
X177683363Y-86484437D01*
X177730811Y-86475000D01*
X178119189Y-86475000D01*
X178166636Y-86484437D01*
X178191503Y-86494737D01*
X178191510Y-86494738D01*
X178191511Y-86494739D01*
X178346153Y-86525499D01*
X178346156Y-86525500D01*
X178346158Y-86525500D01*
X178503844Y-86525500D01*
X178503845Y-86525499D01*
X178582248Y-86509904D01*
X178658488Y-86494739D01*
X178658488Y-86494738D01*
X178658497Y-86494737D01*
X178683363Y-86484437D01*
X178730811Y-86475000D01*
X179119189Y-86475000D01*
X179166636Y-86484437D01*
X179191503Y-86494737D01*
X179191510Y-86494738D01*
X179191511Y-86494739D01*
X179346153Y-86525499D01*
X179346156Y-86525500D01*
X179346158Y-86525500D01*
X179503844Y-86525500D01*
X179503845Y-86525499D01*
X179582248Y-86509904D01*
X179658488Y-86494739D01*
X179658488Y-86494738D01*
X179658497Y-86494737D01*
X179683363Y-86484437D01*
X179730811Y-86475000D01*
X180119189Y-86475000D01*
X180166636Y-86484437D01*
X180191503Y-86494737D01*
X180191510Y-86494738D01*
X180191511Y-86494739D01*
X180346153Y-86525499D01*
X180346156Y-86525500D01*
X180346158Y-86525500D01*
X180503844Y-86525500D01*
X180503845Y-86525499D01*
X180582248Y-86509904D01*
X180658488Y-86494739D01*
X180658488Y-86494738D01*
X180658497Y-86494737D01*
X180683363Y-86484437D01*
X180730811Y-86475000D01*
X181119189Y-86475000D01*
X181166636Y-86484437D01*
X181191503Y-86494737D01*
X181191510Y-86494738D01*
X181191511Y-86494739D01*
X181346153Y-86525499D01*
X181346156Y-86525500D01*
X181346158Y-86525500D01*
X181503844Y-86525500D01*
X181503845Y-86525499D01*
X181582248Y-86509904D01*
X181658488Y-86494739D01*
X181658488Y-86494738D01*
X181658497Y-86494737D01*
X181683363Y-86484437D01*
X181730811Y-86475000D01*
X182119189Y-86475000D01*
X182166636Y-86484437D01*
X182191503Y-86494737D01*
X182191510Y-86494738D01*
X182191511Y-86494739D01*
X182346153Y-86525499D01*
X182346156Y-86525500D01*
X182346158Y-86525500D01*
X182503844Y-86525500D01*
X182503845Y-86525499D01*
X182582248Y-86509904D01*
X182658488Y-86494739D01*
X182658488Y-86494738D01*
X182658497Y-86494737D01*
X182683363Y-86484437D01*
X182730811Y-86475000D01*
X186701000Y-86475000D01*
X186768039Y-86494685D01*
X186813794Y-86547489D01*
X186825000Y-86599000D01*
X186825000Y-116873638D01*
X186805315Y-116940677D01*
X186788681Y-116961319D01*
X183361319Y-120388681D01*
X183299996Y-120422166D01*
X183273638Y-120425000D01*
X173576362Y-120425000D01*
X173509323Y-120405315D01*
X173488681Y-120388681D01*
X171111818Y-118011818D01*
X171091782Y-117985562D01*
X169441283Y-115091217D01*
X169425000Y-115029792D01*
X169425000Y-87023055D01*
X169444685Y-86956016D01*
X169497489Y-86910261D01*
X169504520Y-86907307D01*
X169514409Y-86903506D01*
X169558497Y-86894737D01*
X169704179Y-86834394D01*
X169717611Y-86825418D01*
X169730520Y-86820458D01*
X169752113Y-86818698D01*
X169772786Y-86812226D01*
X169786245Y-86815918D01*
X169800159Y-86814785D01*
X169819274Y-86824979D01*
X169840166Y-86830710D01*
X169843850Y-86833077D01*
X169845821Y-86834394D01*
X169845824Y-86834395D01*
X169845827Y-86834397D01*
X169991498Y-86894735D01*
X169991503Y-86894737D01*
X170146153Y-86925499D01*
X170146156Y-86925500D01*
X170146158Y-86925500D01*
X170303844Y-86925500D01*
X170303845Y-86925499D01*
X170458497Y-86894737D01*
X170604179Y-86834394D01*
X170656110Y-86799694D01*
X170722785Y-86778816D01*
X170790165Y-86797300D01*
X170793863Y-86799676D01*
X170845821Y-86834394D01*
X170845823Y-86834395D01*
X170845825Y-86834396D01*
X170991498Y-86894735D01*
X170991503Y-86894737D01*
X171146153Y-86925499D01*
X171146156Y-86925500D01*
X171146158Y-86925500D01*
X171303844Y-86925500D01*
X171303845Y-86925499D01*
X171458497Y-86894737D01*
X171604179Y-86834394D01*
X171656110Y-86799694D01*
X171722785Y-86778816D01*
X171790165Y-86797300D01*
X171793863Y-86799676D01*
X171845821Y-86834394D01*
X171845823Y-86834395D01*
X171845825Y-86834396D01*
X171991498Y-86894735D01*
X171991503Y-86894737D01*
X172146153Y-86925499D01*
X172146156Y-86925500D01*
X172146158Y-86925500D01*
X172303844Y-86925500D01*
X172303845Y-86925499D01*
X172458497Y-86894737D01*
X172604179Y-86834394D01*
X172735289Y-86746789D01*
X172737312Y-86744766D01*
X172738634Y-86744043D01*
X172739999Y-86742924D01*
X172740211Y-86743182D01*
X172798632Y-86711276D01*
X172868324Y-86716255D01*
X172909939Y-86742999D01*
X172910001Y-86742924D01*
X172910648Y-86743454D01*
X172912688Y-86744766D01*
X172914711Y-86746789D01*
X173045814Y-86834390D01*
X173045827Y-86834397D01*
X173191498Y-86894735D01*
X173191503Y-86894737D01*
X173346153Y-86925499D01*
X173346156Y-86925500D01*
X173346158Y-86925500D01*
X173503844Y-86925500D01*
X173503845Y-86925499D01*
X173658497Y-86894737D01*
X173804179Y-86834394D01*
X173856110Y-86799694D01*
X173922785Y-86778816D01*
X173990165Y-86797300D01*
X173993863Y-86799676D01*
X174045821Y-86834394D01*
X174045823Y-86834395D01*
X174045825Y-86834396D01*
X174191498Y-86894735D01*
X174191503Y-86894737D01*
X174346153Y-86925499D01*
X174346156Y-86925500D01*
X174346158Y-86925500D01*
X174503844Y-86925500D01*
X174503845Y-86925499D01*
X174658497Y-86894737D01*
X174804179Y-86834394D01*
X174856110Y-86799694D01*
X174922785Y-86778816D01*
X174990165Y-86797300D01*
X174993863Y-86799676D01*
X175045821Y-86834394D01*
X175045823Y-86834395D01*
X175045825Y-86834396D01*
X175191498Y-86894735D01*
X175191503Y-86894737D01*
X175346153Y-86925499D01*
X175346156Y-86925500D01*
X175346158Y-86925500D01*
X175503844Y-86925500D01*
X175503845Y-86925499D01*
X175658497Y-86894737D01*
X175804179Y-86834394D01*
X175935289Y-86746789D01*
X176046789Y-86635289D01*
X176100632Y-86554707D01*
X176154242Y-86509904D01*
X176223567Y-86501196D01*
X176227925Y-86501982D01*
X176346155Y-86525500D01*
X176346158Y-86525500D01*
X176503844Y-86525500D01*
X176503845Y-86525499D01*
X176582248Y-86509904D01*
X176658488Y-86494739D01*
X176658488Y-86494738D01*
X176658497Y-86494737D01*
X176683363Y-86484437D01*
X176730811Y-86475000D01*
X177119189Y-86475000D01*
X177166636Y-86484437D01*
G37*
%TD.AperFunction*%
%TD*%
%TA.AperFunction,Conductor*%
%TO.N,/FET/Phase_C_FET/PHASE_C*%
G36*
X176391636Y-35609437D02*
G01*
X176416503Y-35619737D01*
X176416510Y-35619738D01*
X176416511Y-35619739D01*
X176571153Y-35650499D01*
X176571156Y-35650500D01*
X176571158Y-35650500D01*
X176728844Y-35650500D01*
X176728845Y-35650499D01*
X176807248Y-35634904D01*
X176883488Y-35619739D01*
X176883488Y-35619738D01*
X176883497Y-35619737D01*
X176908363Y-35609437D01*
X176955811Y-35600000D01*
X177344189Y-35600000D01*
X177391636Y-35609437D01*
X177416503Y-35619737D01*
X177416510Y-35619738D01*
X177416511Y-35619739D01*
X177571153Y-35650499D01*
X177571156Y-35650500D01*
X177571158Y-35650500D01*
X177728844Y-35650500D01*
X177728845Y-35650499D01*
X177807248Y-35634904D01*
X177883488Y-35619739D01*
X177883488Y-35619738D01*
X177883497Y-35619737D01*
X177908363Y-35609437D01*
X177955811Y-35600000D01*
X178344189Y-35600000D01*
X178391636Y-35609437D01*
X178416503Y-35619737D01*
X178416510Y-35619738D01*
X178416511Y-35619739D01*
X178571153Y-35650499D01*
X178571156Y-35650500D01*
X178571158Y-35650500D01*
X178728844Y-35650500D01*
X178728845Y-35650499D01*
X178807248Y-35634904D01*
X178883488Y-35619739D01*
X178883488Y-35619738D01*
X178883497Y-35619737D01*
X178908363Y-35609437D01*
X178955811Y-35600000D01*
X179344189Y-35600000D01*
X179391636Y-35609437D01*
X179416503Y-35619737D01*
X179416510Y-35619738D01*
X179416511Y-35619739D01*
X179571153Y-35650499D01*
X179571156Y-35650500D01*
X179571158Y-35650500D01*
X179728844Y-35650500D01*
X179728845Y-35650499D01*
X179807248Y-35634904D01*
X179883488Y-35619739D01*
X179883488Y-35619738D01*
X179883497Y-35619737D01*
X179908363Y-35609437D01*
X179955811Y-35600000D01*
X180344189Y-35600000D01*
X180391636Y-35609437D01*
X180416503Y-35619737D01*
X180416510Y-35619738D01*
X180416511Y-35619739D01*
X180571153Y-35650499D01*
X180571156Y-35650500D01*
X180571158Y-35650500D01*
X180728844Y-35650500D01*
X180728845Y-35650499D01*
X180807248Y-35634904D01*
X180883488Y-35619739D01*
X180883488Y-35619738D01*
X180883497Y-35619737D01*
X180908363Y-35609437D01*
X180955811Y-35600000D01*
X181344189Y-35600000D01*
X181391636Y-35609437D01*
X181416503Y-35619737D01*
X181416510Y-35619738D01*
X181416511Y-35619739D01*
X181571153Y-35650499D01*
X181571156Y-35650500D01*
X181571158Y-35650500D01*
X181728844Y-35650500D01*
X181728845Y-35650499D01*
X181807248Y-35634904D01*
X181883488Y-35619739D01*
X181883488Y-35619738D01*
X181883497Y-35619737D01*
X181908363Y-35609437D01*
X181955811Y-35600000D01*
X185926000Y-35600000D01*
X185993039Y-35619685D01*
X186038794Y-35672489D01*
X186050000Y-35724000D01*
X186050000Y-65998638D01*
X186030315Y-66065677D01*
X186013681Y-66086319D01*
X182586319Y-69513681D01*
X182524996Y-69547166D01*
X182498638Y-69550000D01*
X172801362Y-69550000D01*
X172734323Y-69530315D01*
X172713681Y-69513681D01*
X170336818Y-67136818D01*
X170316782Y-67110562D01*
X168666283Y-64216217D01*
X168650000Y-64154792D01*
X168650000Y-36148055D01*
X168669685Y-36081016D01*
X168722489Y-36035261D01*
X168729520Y-36032307D01*
X168739409Y-36028506D01*
X168783497Y-36019737D01*
X168929179Y-35959394D01*
X168942611Y-35950418D01*
X168955520Y-35945458D01*
X168977113Y-35943698D01*
X168997786Y-35937226D01*
X169011245Y-35940918D01*
X169025159Y-35939785D01*
X169044274Y-35949979D01*
X169065166Y-35955710D01*
X169068850Y-35958077D01*
X169070821Y-35959394D01*
X169070824Y-35959395D01*
X169070827Y-35959397D01*
X169216498Y-36019735D01*
X169216503Y-36019737D01*
X169371153Y-36050499D01*
X169371156Y-36050500D01*
X169371158Y-36050500D01*
X169528844Y-36050500D01*
X169528845Y-36050499D01*
X169683497Y-36019737D01*
X169829179Y-35959394D01*
X169881110Y-35924694D01*
X169947785Y-35903816D01*
X170015165Y-35922300D01*
X170018863Y-35924676D01*
X170070821Y-35959394D01*
X170070823Y-35959395D01*
X170070825Y-35959396D01*
X170216498Y-36019735D01*
X170216503Y-36019737D01*
X170371153Y-36050499D01*
X170371156Y-36050500D01*
X170371158Y-36050500D01*
X170528844Y-36050500D01*
X170528845Y-36050499D01*
X170683497Y-36019737D01*
X170829179Y-35959394D01*
X170881110Y-35924694D01*
X170947785Y-35903816D01*
X171015165Y-35922300D01*
X171018863Y-35924676D01*
X171070821Y-35959394D01*
X171070823Y-35959395D01*
X171070825Y-35959396D01*
X171216498Y-36019735D01*
X171216503Y-36019737D01*
X171371153Y-36050499D01*
X171371156Y-36050500D01*
X171371158Y-36050500D01*
X171528844Y-36050500D01*
X171528845Y-36050499D01*
X171683497Y-36019737D01*
X171829179Y-35959394D01*
X171960289Y-35871789D01*
X171962312Y-35869766D01*
X171963634Y-35869043D01*
X171964999Y-35867924D01*
X171965211Y-35868182D01*
X172023632Y-35836276D01*
X172093324Y-35841255D01*
X172134939Y-35867999D01*
X172135001Y-35867924D01*
X172135648Y-35868454D01*
X172137688Y-35869766D01*
X172139711Y-35871789D01*
X172270814Y-35959390D01*
X172270827Y-35959397D01*
X172416498Y-36019735D01*
X172416503Y-36019737D01*
X172571153Y-36050499D01*
X172571156Y-36050500D01*
X172571158Y-36050500D01*
X172728844Y-36050500D01*
X172728845Y-36050499D01*
X172883497Y-36019737D01*
X173029179Y-35959394D01*
X173081110Y-35924694D01*
X173147785Y-35903816D01*
X173215165Y-35922300D01*
X173218863Y-35924676D01*
X173270821Y-35959394D01*
X173270823Y-35959395D01*
X173270825Y-35959396D01*
X173416498Y-36019735D01*
X173416503Y-36019737D01*
X173571153Y-36050499D01*
X173571156Y-36050500D01*
X173571158Y-36050500D01*
X173728844Y-36050500D01*
X173728845Y-36050499D01*
X173883497Y-36019737D01*
X174029179Y-35959394D01*
X174081110Y-35924694D01*
X174147785Y-35903816D01*
X174215165Y-35922300D01*
X174218863Y-35924676D01*
X174270821Y-35959394D01*
X174270823Y-35959395D01*
X174270825Y-35959396D01*
X174416498Y-36019735D01*
X174416503Y-36019737D01*
X174571153Y-36050499D01*
X174571156Y-36050500D01*
X174571158Y-36050500D01*
X174728844Y-36050500D01*
X174728845Y-36050499D01*
X174883497Y-36019737D01*
X175029179Y-35959394D01*
X175160289Y-35871789D01*
X175271789Y-35760289D01*
X175325632Y-35679707D01*
X175379242Y-35634904D01*
X175448567Y-35626196D01*
X175452925Y-35626982D01*
X175571155Y-35650500D01*
X175571158Y-35650500D01*
X175728844Y-35650500D01*
X175728845Y-35650499D01*
X175807248Y-35634904D01*
X175883488Y-35619739D01*
X175883488Y-35619738D01*
X175883497Y-35619737D01*
X175908363Y-35609437D01*
X175955811Y-35600000D01*
X176344189Y-35600000D01*
X176391636Y-35609437D01*
G37*
%TD.AperFunction*%
%TD*%
%TA.AperFunction,Conductor*%
%TO.N,-VDC*%
G36*
X193565677Y-29669685D02*
G01*
X193586319Y-29686319D01*
X194113681Y-30213681D01*
X194147166Y-30275004D01*
X194150000Y-30301362D01*
X194150000Y-54398638D01*
X194130315Y-54465677D01*
X194113681Y-54486319D01*
X191386319Y-57213681D01*
X191324996Y-57247166D01*
X191298638Y-57250000D01*
X188001362Y-57250000D01*
X187971921Y-57241355D01*
X187941935Y-57234832D01*
X187936919Y-57231077D01*
X187934323Y-57230315D01*
X187913681Y-57213681D01*
X187786319Y-57086319D01*
X187752834Y-57024996D01*
X187750000Y-56998638D01*
X187750000Y-36450000D01*
X182750000Y-31450000D01*
X175150000Y-31450000D01*
X175149999Y-31450000D01*
X174186319Y-32413681D01*
X174124996Y-32447166D01*
X174098638Y-32450000D01*
X173731356Y-32450000D01*
X173728842Y-32449500D01*
X173571158Y-32449500D01*
X173568644Y-32450000D01*
X172740010Y-32450000D01*
X172729832Y-32449500D01*
X172728842Y-32449500D01*
X172571158Y-32449500D01*
X172570168Y-32449500D01*
X172559990Y-32450000D01*
X171531356Y-32450000D01*
X171528842Y-32449500D01*
X171371158Y-32449500D01*
X171368644Y-32450000D01*
X170540010Y-32450000D01*
X170529832Y-32449500D01*
X170528842Y-32449500D01*
X170371158Y-32449500D01*
X170370168Y-32449500D01*
X170359990Y-32450000D01*
X169531356Y-32450000D01*
X169528842Y-32449500D01*
X169371158Y-32449500D01*
X169368644Y-32450000D01*
X168640010Y-32450000D01*
X168629832Y-32449500D01*
X168628842Y-32449500D01*
X168471158Y-32449500D01*
X168470168Y-32449500D01*
X168459990Y-32450000D01*
X167631356Y-32450000D01*
X167628842Y-32449500D01*
X167471158Y-32449500D01*
X167468644Y-32450000D01*
X160601362Y-32450000D01*
X160534323Y-32430315D01*
X160513681Y-32413681D01*
X160386319Y-32286319D01*
X160352834Y-32224996D01*
X160350000Y-32198638D01*
X160350000Y-30901362D01*
X160369685Y-30834323D01*
X160386319Y-30813681D01*
X161313681Y-29886319D01*
X161375004Y-29852834D01*
X161401362Y-29850000D01*
X174150000Y-29850000D01*
X174313681Y-29686319D01*
X174375004Y-29652834D01*
X174401362Y-29650000D01*
X193498638Y-29650000D01*
X193565677Y-29669685D01*
G37*
%TD.AperFunction*%
%TD*%
%TA.AperFunction,Conductor*%
%TO.N,+VDC*%
G36*
X181451768Y-32269685D02*
G01*
X181496125Y-32319530D01*
X181987396Y-33324223D01*
X182000000Y-33378693D01*
X182000000Y-34548637D01*
X181980315Y-34615676D01*
X181963681Y-34636318D01*
X181532507Y-35067491D01*
X181471184Y-35100976D01*
X181432675Y-35103213D01*
X181352120Y-35095281D01*
X181344189Y-35094500D01*
X180955811Y-35094500D01*
X180931627Y-35096881D01*
X180857207Y-35104210D01*
X180809749Y-35113649D01*
X180764301Y-35127434D01*
X180752504Y-35130389D01*
X180732733Y-35134322D01*
X180691032Y-35142617D01*
X180666842Y-35145000D01*
X180633157Y-35145000D01*
X180608965Y-35142617D01*
X180562363Y-35133347D01*
X180547492Y-35130388D01*
X180535698Y-35127434D01*
X180522157Y-35123327D01*
X180490249Y-35113648D01*
X180442796Y-35104210D01*
X180365730Y-35096621D01*
X180344189Y-35094500D01*
X179955811Y-35094500D01*
X179931627Y-35096881D01*
X179857207Y-35104210D01*
X179809749Y-35113649D01*
X179764301Y-35127434D01*
X179752504Y-35130389D01*
X179732733Y-35134322D01*
X179691032Y-35142617D01*
X179666842Y-35145000D01*
X179633157Y-35145000D01*
X179608965Y-35142617D01*
X179562363Y-35133347D01*
X179547492Y-35130388D01*
X179535698Y-35127434D01*
X179522157Y-35123327D01*
X179490249Y-35113648D01*
X179442796Y-35104210D01*
X179365730Y-35096621D01*
X179344189Y-35094500D01*
X178955811Y-35094500D01*
X178931627Y-35096881D01*
X178857207Y-35104210D01*
X178809749Y-35113649D01*
X178764301Y-35127434D01*
X178752504Y-35130389D01*
X178732733Y-35134322D01*
X178691032Y-35142617D01*
X178666842Y-35145000D01*
X178633157Y-35145000D01*
X178608965Y-35142617D01*
X178562363Y-35133347D01*
X178547492Y-35130388D01*
X178535698Y-35127434D01*
X178522157Y-35123327D01*
X178490249Y-35113648D01*
X178442796Y-35104210D01*
X178365730Y-35096621D01*
X178344189Y-35094500D01*
X177955811Y-35094500D01*
X177931627Y-35096881D01*
X177857207Y-35104210D01*
X177809749Y-35113649D01*
X177764301Y-35127434D01*
X177752504Y-35130389D01*
X177732733Y-35134322D01*
X177691032Y-35142617D01*
X177666842Y-35145000D01*
X177633157Y-35145000D01*
X177608965Y-35142617D01*
X177562363Y-35133347D01*
X177547492Y-35130388D01*
X177535698Y-35127434D01*
X177522157Y-35123327D01*
X177490249Y-35113648D01*
X177442796Y-35104210D01*
X177365730Y-35096621D01*
X177344189Y-35094500D01*
X176955811Y-35094500D01*
X176931627Y-35096881D01*
X176857207Y-35104210D01*
X176809749Y-35113649D01*
X176764301Y-35127434D01*
X176752504Y-35130389D01*
X176732733Y-35134322D01*
X176691032Y-35142617D01*
X176666842Y-35145000D01*
X176633157Y-35145000D01*
X176608965Y-35142617D01*
X176562363Y-35133347D01*
X176547492Y-35130388D01*
X176535698Y-35127434D01*
X176522157Y-35123327D01*
X176490249Y-35113648D01*
X176442796Y-35104210D01*
X176365730Y-35096621D01*
X176344189Y-35094500D01*
X175955811Y-35094500D01*
X175931627Y-35096881D01*
X175857207Y-35104210D01*
X175809749Y-35113649D01*
X175764301Y-35127434D01*
X175752504Y-35130389D01*
X175732733Y-35134322D01*
X175691032Y-35142617D01*
X175666842Y-35145000D01*
X175633156Y-35145000D01*
X175608965Y-35142617D01*
X175551543Y-35131195D01*
X175548945Y-35130702D01*
X175542619Y-35129502D01*
X175538329Y-35128728D01*
X175530761Y-35127433D01*
X175529423Y-35127204D01*
X175529422Y-35127203D01*
X175529417Y-35127203D01*
X175385566Y-35124637D01*
X175316244Y-35133344D01*
X175316232Y-35133347D01*
X175177495Y-35171408D01*
X175177493Y-35171409D01*
X175055079Y-35247026D01*
X175011426Y-35283508D01*
X175011422Y-35283511D01*
X175001473Y-35291827D01*
X175001471Y-35291828D01*
X174905324Y-35398867D01*
X174881729Y-35434177D01*
X174876801Y-35439903D01*
X174875246Y-35440909D01*
X174870504Y-35446688D01*
X174846693Y-35470499D01*
X174827903Y-35485920D01*
X174799885Y-35504641D01*
X174778448Y-35516100D01*
X174768193Y-35520347D01*
X174747328Y-35528989D01*
X174724071Y-35536045D01*
X174707340Y-35539373D01*
X174691031Y-35542617D01*
X174666841Y-35545000D01*
X174633159Y-35545000D01*
X174608970Y-35542617D01*
X174580740Y-35537002D01*
X174575925Y-35536044D01*
X174552670Y-35528989D01*
X174521556Y-35516102D01*
X174500181Y-35504677D01*
X174500180Y-35504679D01*
X174500161Y-35504666D01*
X174500115Y-35504642D01*
X174499688Y-35504357D01*
X174492123Y-35499401D01*
X174488424Y-35497024D01*
X174480819Y-35492232D01*
X174480813Y-35492229D01*
X174348901Y-35434812D01*
X174348899Y-35434811D01*
X174348896Y-35434810D01*
X174300060Y-35421413D01*
X174281517Y-35416326D01*
X174138755Y-35398396D01*
X173996726Y-35421413D01*
X173996725Y-35421413D01*
X173943074Y-35438212D01*
X173943059Y-35438218D01*
X173930055Y-35442291D01*
X173930054Y-35442291D01*
X173800265Y-35504389D01*
X173792338Y-35509685D01*
X173784126Y-35513579D01*
X173782760Y-35513795D01*
X173778453Y-35516097D01*
X173747329Y-35528989D01*
X173724070Y-35536045D01*
X173707443Y-35539352D01*
X173691030Y-35542617D01*
X173666841Y-35545000D01*
X173633159Y-35545000D01*
X173608970Y-35542617D01*
X173580740Y-35537002D01*
X173575925Y-35536044D01*
X173552670Y-35528989D01*
X173521556Y-35516102D01*
X173500181Y-35504677D01*
X173500180Y-35504679D01*
X173500161Y-35504666D01*
X173500115Y-35504642D01*
X173499688Y-35504357D01*
X173492123Y-35499401D01*
X173488424Y-35497024D01*
X173480819Y-35492232D01*
X173480813Y-35492229D01*
X173348901Y-35434812D01*
X173348899Y-35434811D01*
X173348896Y-35434810D01*
X173300060Y-35421413D01*
X173281517Y-35416326D01*
X173138755Y-35398396D01*
X172996726Y-35421413D01*
X172996725Y-35421413D01*
X172943074Y-35438212D01*
X172943059Y-35438218D01*
X172930055Y-35442291D01*
X172930054Y-35442291D01*
X172800265Y-35504389D01*
X172792338Y-35509685D01*
X172784126Y-35513579D01*
X172782760Y-35513795D01*
X172778453Y-35516097D01*
X172747329Y-35528989D01*
X172724070Y-35536045D01*
X172707443Y-35539352D01*
X172691030Y-35542617D01*
X172666841Y-35545000D01*
X172633159Y-35545000D01*
X172608970Y-35542617D01*
X172575924Y-35536044D01*
X172552667Y-35528988D01*
X172521547Y-35516098D01*
X172500112Y-35504641D01*
X172450017Y-35471169D01*
X172447182Y-35467777D01*
X172411129Y-35444607D01*
X172411125Y-35444604D01*
X172409085Y-35443292D01*
X172409084Y-35443292D01*
X172388948Y-35430341D01*
X172387137Y-35429154D01*
X172380815Y-35424930D01*
X172379416Y-35424211D01*
X172366899Y-35416161D01*
X172366621Y-35416003D01*
X172269937Y-35367611D01*
X172269938Y-35367611D01*
X172129353Y-35337041D01*
X172129347Y-35337040D01*
X172059655Y-35332061D01*
X172059651Y-35332061D01*
X172059647Y-35332061D01*
X172059646Y-35332061D01*
X171916144Y-35342335D01*
X171781337Y-35392628D01*
X171766126Y-35400934D01*
X171766127Y-35400935D01*
X171721081Y-35425536D01*
X171720137Y-35426052D01*
X171719742Y-35426268D01*
X171719667Y-35426309D01*
X171714625Y-35429062D01*
X171712212Y-35429586D01*
X171710311Y-35430857D01*
X171700867Y-35436575D01*
X171697245Y-35438552D01*
X171686268Y-35446922D01*
X171599892Y-35504638D01*
X171578454Y-35516097D01*
X171578452Y-35516098D01*
X171547330Y-35528989D01*
X171524071Y-35536045D01*
X171507340Y-35539373D01*
X171491031Y-35542617D01*
X171466841Y-35545000D01*
X171433159Y-35545000D01*
X171408970Y-35542617D01*
X171380740Y-35537002D01*
X171375925Y-35536044D01*
X171352670Y-35528989D01*
X171321556Y-35516102D01*
X171300181Y-35504677D01*
X171300180Y-35504679D01*
X171300161Y-35504666D01*
X171300115Y-35504642D01*
X171299688Y-35504357D01*
X171292123Y-35499401D01*
X171288424Y-35497024D01*
X171280819Y-35492232D01*
X171280813Y-35492229D01*
X171148901Y-35434812D01*
X171148899Y-35434811D01*
X171148896Y-35434810D01*
X171100060Y-35421413D01*
X171081517Y-35416326D01*
X170938755Y-35398396D01*
X170796726Y-35421413D01*
X170796725Y-35421413D01*
X170743074Y-35438212D01*
X170743059Y-35438218D01*
X170730055Y-35442291D01*
X170730054Y-35442291D01*
X170600265Y-35504389D01*
X170592338Y-35509685D01*
X170584126Y-35513579D01*
X170582760Y-35513795D01*
X170578453Y-35516097D01*
X170547329Y-35528989D01*
X170524070Y-35536045D01*
X170507443Y-35539352D01*
X170491030Y-35542617D01*
X170466841Y-35545000D01*
X170433159Y-35545000D01*
X170408970Y-35542617D01*
X170380740Y-35537002D01*
X170375925Y-35536044D01*
X170352670Y-35528989D01*
X170321556Y-35516102D01*
X170300181Y-35504677D01*
X170300180Y-35504679D01*
X170300161Y-35504666D01*
X170300115Y-35504642D01*
X170299688Y-35504357D01*
X170292123Y-35499401D01*
X170288424Y-35497024D01*
X170280819Y-35492232D01*
X170280813Y-35492229D01*
X170148901Y-35434812D01*
X170148899Y-35434811D01*
X170148896Y-35434810D01*
X170100060Y-35421413D01*
X170081517Y-35416326D01*
X169938755Y-35398396D01*
X169796726Y-35421413D01*
X169796725Y-35421413D01*
X169743074Y-35438212D01*
X169743059Y-35438218D01*
X169730055Y-35442291D01*
X169730054Y-35442291D01*
X169600265Y-35504389D01*
X169592338Y-35509685D01*
X169584126Y-35513579D01*
X169582760Y-35513795D01*
X169578453Y-35516097D01*
X169547329Y-35528989D01*
X169524070Y-35536045D01*
X169507443Y-35539352D01*
X169491030Y-35542617D01*
X169466841Y-35545000D01*
X169433161Y-35545000D01*
X169408968Y-35542617D01*
X169375926Y-35536044D01*
X169352667Y-35528988D01*
X169238624Y-35481750D01*
X169238358Y-35481779D01*
X169220647Y-35477209D01*
X169215698Y-35475534D01*
X169198892Y-35468219D01*
X169178000Y-35462488D01*
X169177927Y-35462749D01*
X169170105Y-35460101D01*
X169169898Y-35459955D01*
X169167678Y-35459251D01*
X169127741Y-35444803D01*
X169127738Y-35444802D01*
X169061995Y-35440750D01*
X169054171Y-35440018D01*
X168988788Y-35431806D01*
X168946867Y-35438595D01*
X168946868Y-35438596D01*
X168936084Y-35440342D01*
X168936047Y-35439869D01*
X168914454Y-35441629D01*
X168880802Y-35449297D01*
X168876903Y-35449929D01*
X168846758Y-35454814D01*
X168825114Y-35461590D01*
X168815628Y-35464151D01*
X168774220Y-35473589D01*
X168761300Y-35478553D01*
X168734906Y-35492226D01*
X168725324Y-35496682D01*
X168638973Y-35532449D01*
X168625986Y-35537002D01*
X168558053Y-35556658D01*
X168558043Y-35556661D01*
X168548175Y-35560454D01*
X168533731Y-35566263D01*
X168526659Y-35569234D01*
X168512500Y-35575439D01*
X168512495Y-35575442D01*
X168504914Y-35580315D01*
X168437875Y-35600000D01*
X166750000Y-35600000D01*
X166750000Y-59226000D01*
X166730315Y-59293039D01*
X166677511Y-59338794D01*
X166626000Y-59350000D01*
X158601362Y-59350000D01*
X158534323Y-59330315D01*
X158513681Y-59313681D01*
X158086319Y-58886319D01*
X158052834Y-58824996D01*
X158050000Y-58798638D01*
X158050000Y-35201361D01*
X158069685Y-35134322D01*
X158086314Y-35113685D01*
X160161583Y-33038416D01*
X160222902Y-33004934D01*
X160292594Y-33009918D01*
X160296685Y-33011528D01*
X160316503Y-33019737D01*
X160471153Y-33050499D01*
X160471156Y-33050500D01*
X160471158Y-33050500D01*
X160628844Y-33050500D01*
X160628845Y-33050499D01*
X160783497Y-33019737D01*
X160846317Y-32993716D01*
X160915793Y-32964939D01*
X160923969Y-32963312D01*
X160928310Y-32960523D01*
X160963245Y-32955500D01*
X161136755Y-32955500D01*
X161184207Y-32964939D01*
X161316498Y-33019735D01*
X161316503Y-33019737D01*
X161471153Y-33050499D01*
X161471156Y-33050500D01*
X161471158Y-33050500D01*
X161628844Y-33050500D01*
X161628845Y-33050499D01*
X161783497Y-33019737D01*
X161846317Y-32993716D01*
X161915793Y-32964939D01*
X161923969Y-32963312D01*
X161928310Y-32960523D01*
X161963245Y-32955500D01*
X162136755Y-32955500D01*
X162184207Y-32964939D01*
X162316498Y-33019735D01*
X162316503Y-33019737D01*
X162471153Y-33050499D01*
X162471156Y-33050500D01*
X162471158Y-33050500D01*
X162628844Y-33050500D01*
X162628845Y-33050499D01*
X162783497Y-33019737D01*
X162846317Y-32993716D01*
X162915793Y-32964939D01*
X162923969Y-32963312D01*
X162928310Y-32960523D01*
X162963245Y-32955500D01*
X163136755Y-32955500D01*
X163184207Y-32964939D01*
X163316498Y-33019735D01*
X163316503Y-33019737D01*
X163471153Y-33050499D01*
X163471156Y-33050500D01*
X163471158Y-33050500D01*
X163628844Y-33050500D01*
X163628845Y-33050499D01*
X163783497Y-33019737D01*
X163846317Y-32993716D01*
X163915793Y-32964939D01*
X163923969Y-32963312D01*
X163928310Y-32960523D01*
X163963245Y-32955500D01*
X164136755Y-32955500D01*
X164184207Y-32964939D01*
X164316498Y-33019735D01*
X164316503Y-33019737D01*
X164471153Y-33050499D01*
X164471156Y-33050500D01*
X164471158Y-33050500D01*
X164628844Y-33050500D01*
X164628845Y-33050499D01*
X164783497Y-33019737D01*
X164846317Y-32993716D01*
X164915793Y-32964939D01*
X164923969Y-32963312D01*
X164928310Y-32960523D01*
X164963245Y-32955500D01*
X165136755Y-32955500D01*
X165184207Y-32964939D01*
X165316498Y-33019735D01*
X165316503Y-33019737D01*
X165471153Y-33050499D01*
X165471156Y-33050500D01*
X165471158Y-33050500D01*
X165628844Y-33050500D01*
X165628845Y-33050499D01*
X165783497Y-33019737D01*
X165846317Y-32993716D01*
X165915793Y-32964939D01*
X165923969Y-32963312D01*
X165928310Y-32960523D01*
X165963245Y-32955500D01*
X166136755Y-32955500D01*
X166184207Y-32964939D01*
X166316498Y-33019735D01*
X166316503Y-33019737D01*
X166471153Y-33050499D01*
X166471156Y-33050500D01*
X166471158Y-33050500D01*
X166628844Y-33050500D01*
X166628845Y-33050499D01*
X166783497Y-33019737D01*
X166846317Y-32993716D01*
X166915793Y-32964939D01*
X166923969Y-32963312D01*
X166928310Y-32960523D01*
X166963245Y-32955500D01*
X167136755Y-32955500D01*
X167184207Y-32964939D01*
X167316498Y-33019735D01*
X167316503Y-33019737D01*
X167471153Y-33050499D01*
X167471156Y-33050500D01*
X167471158Y-33050500D01*
X167628844Y-33050500D01*
X167628845Y-33050499D01*
X167783497Y-33019737D01*
X167846317Y-32993716D01*
X167915793Y-32964939D01*
X167923969Y-32963312D01*
X167928310Y-32960523D01*
X167963245Y-32955500D01*
X168136755Y-32955500D01*
X168184207Y-32964939D01*
X168316498Y-33019735D01*
X168316503Y-33019737D01*
X168471153Y-33050499D01*
X168471156Y-33050500D01*
X168471158Y-33050500D01*
X168628844Y-33050500D01*
X168628845Y-33050499D01*
X168783497Y-33019737D01*
X168846317Y-32993716D01*
X168915793Y-32964939D01*
X168923969Y-32963312D01*
X168928310Y-32960523D01*
X168963245Y-32955500D01*
X169136755Y-32955500D01*
X169184207Y-32964939D01*
X169316498Y-33019735D01*
X169316503Y-33019737D01*
X169471153Y-33050499D01*
X169471156Y-33050500D01*
X169471158Y-33050500D01*
X169628844Y-33050500D01*
X169628845Y-33050499D01*
X169783497Y-33019737D01*
X169846317Y-32993716D01*
X169915793Y-32964939D01*
X169923969Y-32963312D01*
X169928310Y-32960523D01*
X169963245Y-32955500D01*
X170136755Y-32955500D01*
X170184207Y-32964939D01*
X170316498Y-33019735D01*
X170316503Y-33019737D01*
X170471153Y-33050499D01*
X170471156Y-33050500D01*
X170471158Y-33050500D01*
X170628844Y-33050500D01*
X170628845Y-33050499D01*
X170783497Y-33019737D01*
X170846317Y-32993716D01*
X170915793Y-32964939D01*
X170923969Y-32963312D01*
X170928310Y-32960523D01*
X170963245Y-32955500D01*
X171136755Y-32955500D01*
X171184207Y-32964939D01*
X171316498Y-33019735D01*
X171316503Y-33019737D01*
X171471153Y-33050499D01*
X171471156Y-33050500D01*
X171471158Y-33050500D01*
X171628844Y-33050500D01*
X171628845Y-33050499D01*
X171783497Y-33019737D01*
X171846317Y-32993716D01*
X171915793Y-32964939D01*
X171923969Y-32963312D01*
X171928310Y-32960523D01*
X171963245Y-32955500D01*
X172136755Y-32955500D01*
X172184207Y-32964939D01*
X172316498Y-33019735D01*
X172316503Y-33019737D01*
X172471153Y-33050499D01*
X172471156Y-33050500D01*
X172471158Y-33050500D01*
X172628844Y-33050500D01*
X172628845Y-33050499D01*
X172783497Y-33019737D01*
X172846317Y-32993716D01*
X172915793Y-32964939D01*
X172923969Y-32963312D01*
X172928310Y-32960523D01*
X172963245Y-32955500D01*
X173136755Y-32955500D01*
X173184207Y-32964939D01*
X173316498Y-33019735D01*
X173316503Y-33019737D01*
X173471153Y-33050499D01*
X173471156Y-33050500D01*
X173471158Y-33050500D01*
X173628844Y-33050500D01*
X173628845Y-33050499D01*
X173783497Y-33019737D01*
X173846317Y-32993716D01*
X173915793Y-32964939D01*
X173963245Y-32955500D01*
X174098640Y-32955500D01*
X174108786Y-32954955D01*
X174152678Y-32952603D01*
X174152686Y-32952602D01*
X174152688Y-32952602D01*
X174152689Y-32952602D01*
X174159682Y-32951849D01*
X174179036Y-32949769D01*
X174179046Y-32949767D01*
X174179049Y-32949767D01*
X174188648Y-32948211D01*
X174232448Y-32941114D01*
X174367257Y-32890832D01*
X174428580Y-32857347D01*
X174543762Y-32771123D01*
X174820154Y-32494729D01*
X174870549Y-32464153D01*
X175531804Y-32255734D01*
X175569079Y-32250000D01*
X181384729Y-32250000D01*
X181451768Y-32269685D01*
G37*
%TD.AperFunction*%
%TD*%
%TA.AperFunction,Conductor*%
%TO.N,-VDC*%
G36*
X194340677Y-80544685D02*
G01*
X194361319Y-80561319D01*
X194888681Y-81088681D01*
X194922166Y-81150004D01*
X194925000Y-81176362D01*
X194925000Y-105273638D01*
X194905315Y-105340677D01*
X194888681Y-105361319D01*
X192161319Y-108088681D01*
X192099996Y-108122166D01*
X192073638Y-108125000D01*
X188776362Y-108125000D01*
X188746921Y-108116355D01*
X188716935Y-108109832D01*
X188711919Y-108106077D01*
X188709323Y-108105315D01*
X188688681Y-108088681D01*
X188561319Y-107961319D01*
X188527834Y-107899996D01*
X188525000Y-107873638D01*
X188525000Y-87325000D01*
X183525000Y-82325000D01*
X175925000Y-82325000D01*
X175924999Y-82325000D01*
X174961319Y-83288681D01*
X174899996Y-83322166D01*
X174873638Y-83325000D01*
X174506356Y-83325000D01*
X174503842Y-83324500D01*
X174346158Y-83324500D01*
X174343644Y-83325000D01*
X173515010Y-83325000D01*
X173504832Y-83324500D01*
X173503842Y-83324500D01*
X173346158Y-83324500D01*
X173345168Y-83324500D01*
X173334990Y-83325000D01*
X172306356Y-83325000D01*
X172303842Y-83324500D01*
X172146158Y-83324500D01*
X172143644Y-83325000D01*
X171315010Y-83325000D01*
X171304832Y-83324500D01*
X171303842Y-83324500D01*
X171146158Y-83324500D01*
X171145168Y-83324500D01*
X171134990Y-83325000D01*
X170306356Y-83325000D01*
X170303842Y-83324500D01*
X170146158Y-83324500D01*
X170143644Y-83325000D01*
X169415010Y-83325000D01*
X169404832Y-83324500D01*
X169403842Y-83324500D01*
X169246158Y-83324500D01*
X169245168Y-83324500D01*
X169234990Y-83325000D01*
X168406356Y-83325000D01*
X168403842Y-83324500D01*
X168246158Y-83324500D01*
X168243644Y-83325000D01*
X161376362Y-83325000D01*
X161309323Y-83305315D01*
X161288681Y-83288681D01*
X161161319Y-83161319D01*
X161127834Y-83099996D01*
X161125000Y-83073638D01*
X161125000Y-81776362D01*
X161144685Y-81709323D01*
X161161319Y-81688681D01*
X162088681Y-80761319D01*
X162150004Y-80727834D01*
X162176362Y-80725000D01*
X174925000Y-80725000D01*
X175088681Y-80561319D01*
X175150004Y-80527834D01*
X175176362Y-80525000D01*
X194273638Y-80525000D01*
X194340677Y-80544685D01*
G37*
%TD.AperFunction*%
%TD*%
%TA.AperFunction,Conductor*%
%TO.N,-VDC*%
G36*
X198540677Y-131294685D02*
G01*
X198561319Y-131311319D01*
X198988681Y-131738681D01*
X199022166Y-131800004D01*
X199025000Y-131826362D01*
X199025000Y-155148638D01*
X199005315Y-155215677D01*
X198988681Y-155236319D01*
X195386319Y-158838681D01*
X195324996Y-158872166D01*
X195298638Y-158875000D01*
X189251362Y-158875000D01*
X189221921Y-158866355D01*
X189191935Y-158859832D01*
X189186919Y-158856077D01*
X189184323Y-158855315D01*
X189163681Y-158838681D01*
X189036319Y-158711319D01*
X189002834Y-158649996D01*
X189000000Y-158623638D01*
X189000000Y-138075000D01*
X184000000Y-133075000D01*
X176400000Y-133075000D01*
X176399999Y-133075000D01*
X175436319Y-134038681D01*
X175374996Y-134072166D01*
X175348638Y-134075000D01*
X174981356Y-134075000D01*
X174978842Y-134074500D01*
X174821158Y-134074500D01*
X174818644Y-134075000D01*
X173990010Y-134075000D01*
X173979832Y-134074500D01*
X173978842Y-134074500D01*
X173821158Y-134074500D01*
X173820168Y-134074500D01*
X173809990Y-134075000D01*
X172781356Y-134075000D01*
X172778842Y-134074500D01*
X172621158Y-134074500D01*
X172618644Y-134075000D01*
X171790010Y-134075000D01*
X171779832Y-134074500D01*
X171778842Y-134074500D01*
X171621158Y-134074500D01*
X171620168Y-134074500D01*
X171609990Y-134075000D01*
X170781356Y-134075000D01*
X170778842Y-134074500D01*
X170621158Y-134074500D01*
X170618644Y-134075000D01*
X169890010Y-134075000D01*
X169879832Y-134074500D01*
X169878842Y-134074500D01*
X169721158Y-134074500D01*
X169720168Y-134074500D01*
X169709990Y-134075000D01*
X168881356Y-134075000D01*
X168878842Y-134074500D01*
X168721158Y-134074500D01*
X168718644Y-134075000D01*
X161851362Y-134075000D01*
X161784323Y-134055315D01*
X161763681Y-134038681D01*
X161636319Y-133911319D01*
X161602834Y-133849996D01*
X161600000Y-133823638D01*
X161600000Y-132526362D01*
X161619685Y-132459323D01*
X161636319Y-132438681D01*
X162563681Y-131511319D01*
X162625004Y-131477834D01*
X162651362Y-131475000D01*
X175400000Y-131475000D01*
X175563681Y-131311319D01*
X175625004Y-131277834D01*
X175651362Y-131275000D01*
X198473638Y-131275000D01*
X198540677Y-131294685D01*
G37*
%TD.AperFunction*%
%TD*%
%TA.AperFunction,Conductor*%
%TO.N,+VDC*%
G36*
X182226768Y-83144685D02*
G01*
X182271125Y-83194530D01*
X182762396Y-84199223D01*
X182775000Y-84253693D01*
X182775000Y-85423637D01*
X182755315Y-85490676D01*
X182738681Y-85511318D01*
X182307507Y-85942491D01*
X182246184Y-85975976D01*
X182207675Y-85978213D01*
X182127120Y-85970281D01*
X182119189Y-85969500D01*
X181730811Y-85969500D01*
X181706627Y-85971881D01*
X181632207Y-85979210D01*
X181584749Y-85988649D01*
X181539301Y-86002434D01*
X181527504Y-86005389D01*
X181507733Y-86009322D01*
X181466032Y-86017617D01*
X181441842Y-86020000D01*
X181408157Y-86020000D01*
X181383965Y-86017617D01*
X181337363Y-86008347D01*
X181322492Y-86005388D01*
X181310698Y-86002434D01*
X181297157Y-85998327D01*
X181265249Y-85988648D01*
X181217796Y-85979210D01*
X181140730Y-85971621D01*
X181119189Y-85969500D01*
X180730811Y-85969500D01*
X180706627Y-85971881D01*
X180632207Y-85979210D01*
X180584749Y-85988649D01*
X180539301Y-86002434D01*
X180527504Y-86005389D01*
X180507733Y-86009322D01*
X180466032Y-86017617D01*
X180441842Y-86020000D01*
X180408157Y-86020000D01*
X180383965Y-86017617D01*
X180337363Y-86008347D01*
X180322492Y-86005388D01*
X180310698Y-86002434D01*
X180297157Y-85998327D01*
X180265249Y-85988648D01*
X180217796Y-85979210D01*
X180140730Y-85971621D01*
X180119189Y-85969500D01*
X179730811Y-85969500D01*
X179706627Y-85971881D01*
X179632207Y-85979210D01*
X179584749Y-85988649D01*
X179539301Y-86002434D01*
X179527504Y-86005389D01*
X179507733Y-86009322D01*
X179466032Y-86017617D01*
X179441842Y-86020000D01*
X179408157Y-86020000D01*
X179383965Y-86017617D01*
X179337363Y-86008347D01*
X179322492Y-86005388D01*
X179310698Y-86002434D01*
X179297157Y-85998327D01*
X179265249Y-85988648D01*
X179217796Y-85979210D01*
X179140730Y-85971621D01*
X179119189Y-85969500D01*
X178730811Y-85969500D01*
X178706627Y-85971881D01*
X178632207Y-85979210D01*
X178584749Y-85988649D01*
X178539301Y-86002434D01*
X178527504Y-86005389D01*
X178507733Y-86009322D01*
X178466032Y-86017617D01*
X178441842Y-86020000D01*
X178408157Y-86020000D01*
X178383965Y-86017617D01*
X178337363Y-86008347D01*
X178322492Y-86005388D01*
X178310698Y-86002434D01*
X178297157Y-85998327D01*
X178265249Y-85988648D01*
X178217796Y-85979210D01*
X178140730Y-85971621D01*
X178119189Y-85969500D01*
X177730811Y-85969500D01*
X177706627Y-85971881D01*
X177632207Y-85979210D01*
X177584749Y-85988649D01*
X177539301Y-86002434D01*
X177527504Y-86005389D01*
X177507733Y-86009322D01*
X177466032Y-86017617D01*
X177441842Y-86020000D01*
X177408157Y-86020000D01*
X177383965Y-86017617D01*
X177337363Y-86008347D01*
X177322492Y-86005388D01*
X177310698Y-86002434D01*
X177297157Y-85998327D01*
X177265249Y-85988648D01*
X177217796Y-85979210D01*
X177140730Y-85971621D01*
X177119189Y-85969500D01*
X176730811Y-85969500D01*
X176706627Y-85971881D01*
X176632207Y-85979210D01*
X176584749Y-85988649D01*
X176539301Y-86002434D01*
X176527504Y-86005389D01*
X176507733Y-86009322D01*
X176466032Y-86017617D01*
X176441842Y-86020000D01*
X176408156Y-86020000D01*
X176383965Y-86017617D01*
X176326543Y-86006195D01*
X176323945Y-86005702D01*
X176317619Y-86004502D01*
X176313329Y-86003728D01*
X176305761Y-86002433D01*
X176304423Y-86002204D01*
X176304422Y-86002203D01*
X176304417Y-86002203D01*
X176160566Y-85999637D01*
X176091244Y-86008344D01*
X176091232Y-86008347D01*
X175952495Y-86046408D01*
X175952493Y-86046409D01*
X175830079Y-86122026D01*
X175786426Y-86158508D01*
X175786422Y-86158511D01*
X175776473Y-86166827D01*
X175776471Y-86166828D01*
X175680324Y-86273867D01*
X175656729Y-86309177D01*
X175651801Y-86314903D01*
X175650246Y-86315909D01*
X175645504Y-86321688D01*
X175621693Y-86345499D01*
X175602903Y-86360920D01*
X175574885Y-86379641D01*
X175553448Y-86391100D01*
X175543193Y-86395347D01*
X175522328Y-86403989D01*
X175499071Y-86411045D01*
X175482340Y-86414373D01*
X175466031Y-86417617D01*
X175441841Y-86420000D01*
X175408159Y-86420000D01*
X175383970Y-86417617D01*
X175355740Y-86412002D01*
X175350925Y-86411044D01*
X175327670Y-86403989D01*
X175296556Y-86391102D01*
X175275181Y-86379677D01*
X175275180Y-86379679D01*
X175275161Y-86379666D01*
X175275115Y-86379642D01*
X175274688Y-86379357D01*
X175267123Y-86374401D01*
X175263424Y-86372024D01*
X175255819Y-86367232D01*
X175255813Y-86367229D01*
X175123901Y-86309812D01*
X175123899Y-86309811D01*
X175123896Y-86309810D01*
X175075060Y-86296413D01*
X175056517Y-86291326D01*
X174913755Y-86273396D01*
X174771726Y-86296413D01*
X174771725Y-86296413D01*
X174718074Y-86313212D01*
X174718059Y-86313218D01*
X174705055Y-86317291D01*
X174705054Y-86317291D01*
X174575265Y-86379389D01*
X174567338Y-86384685D01*
X174559126Y-86388579D01*
X174557760Y-86388795D01*
X174553453Y-86391097D01*
X174522329Y-86403989D01*
X174499070Y-86411045D01*
X174482443Y-86414352D01*
X174466030Y-86417617D01*
X174441841Y-86420000D01*
X174408159Y-86420000D01*
X174383970Y-86417617D01*
X174355740Y-86412002D01*
X174350925Y-86411044D01*
X174327670Y-86403989D01*
X174296556Y-86391102D01*
X174275181Y-86379677D01*
X174275180Y-86379679D01*
X174275161Y-86379666D01*
X174275115Y-86379642D01*
X174274688Y-86379357D01*
X174267123Y-86374401D01*
X174263424Y-86372024D01*
X174255819Y-86367232D01*
X174255813Y-86367229D01*
X174123901Y-86309812D01*
X174123899Y-86309811D01*
X174123896Y-86309810D01*
X174075060Y-86296413D01*
X174056517Y-86291326D01*
X173913755Y-86273396D01*
X173771726Y-86296413D01*
X173771725Y-86296413D01*
X173718074Y-86313212D01*
X173718059Y-86313218D01*
X173705055Y-86317291D01*
X173705054Y-86317291D01*
X173575265Y-86379389D01*
X173567338Y-86384685D01*
X173559126Y-86388579D01*
X173557760Y-86388795D01*
X173553453Y-86391097D01*
X173522329Y-86403989D01*
X173499070Y-86411045D01*
X173482443Y-86414352D01*
X173466030Y-86417617D01*
X173441841Y-86420000D01*
X173408159Y-86420000D01*
X173383970Y-86417617D01*
X173350924Y-86411044D01*
X173327667Y-86403988D01*
X173296547Y-86391098D01*
X173275112Y-86379641D01*
X173225017Y-86346169D01*
X173222182Y-86342777D01*
X173186129Y-86319607D01*
X173186125Y-86319604D01*
X173184085Y-86318292D01*
X173184084Y-86318292D01*
X173163948Y-86305341D01*
X173162137Y-86304154D01*
X173155815Y-86299930D01*
X173154416Y-86299211D01*
X173141899Y-86291161D01*
X173141621Y-86291003D01*
X173044937Y-86242611D01*
X173044938Y-86242611D01*
X172904353Y-86212041D01*
X172904347Y-86212040D01*
X172834655Y-86207061D01*
X172834651Y-86207061D01*
X172834647Y-86207061D01*
X172834646Y-86207061D01*
X172691144Y-86217335D01*
X172556337Y-86267628D01*
X172541126Y-86275934D01*
X172541127Y-86275935D01*
X172496081Y-86300536D01*
X172495137Y-86301052D01*
X172494742Y-86301268D01*
X172494667Y-86301309D01*
X172489625Y-86304062D01*
X172487212Y-86304586D01*
X172485311Y-86305857D01*
X172475867Y-86311575D01*
X172472245Y-86313552D01*
X172461268Y-86321922D01*
X172374892Y-86379638D01*
X172353454Y-86391097D01*
X172353452Y-86391098D01*
X172322330Y-86403989D01*
X172299071Y-86411045D01*
X172282340Y-86414373D01*
X172266031Y-86417617D01*
X172241841Y-86420000D01*
X172208159Y-86420000D01*
X172183970Y-86417617D01*
X172155740Y-86412002D01*
X172150925Y-86411044D01*
X172127670Y-86403989D01*
X172096556Y-86391102D01*
X172075181Y-86379677D01*
X172075180Y-86379679D01*
X172075161Y-86379666D01*
X172075115Y-86379642D01*
X172074688Y-86379357D01*
X172067123Y-86374401D01*
X172063424Y-86372024D01*
X172055819Y-86367232D01*
X172055813Y-86367229D01*
X171923901Y-86309812D01*
X171923899Y-86309811D01*
X171923896Y-86309810D01*
X171875060Y-86296413D01*
X171856517Y-86291326D01*
X171713755Y-86273396D01*
X171571726Y-86296413D01*
X171571725Y-86296413D01*
X171518074Y-86313212D01*
X171518059Y-86313218D01*
X171505055Y-86317291D01*
X171505054Y-86317291D01*
X171375265Y-86379389D01*
X171367338Y-86384685D01*
X171359126Y-86388579D01*
X171357760Y-86388795D01*
X171353453Y-86391097D01*
X171322329Y-86403989D01*
X171299070Y-86411045D01*
X171282443Y-86414352D01*
X171266030Y-86417617D01*
X171241841Y-86420000D01*
X171208159Y-86420000D01*
X171183970Y-86417617D01*
X171155740Y-86412002D01*
X171150925Y-86411044D01*
X171127670Y-86403989D01*
X171096556Y-86391102D01*
X171075181Y-86379677D01*
X171075180Y-86379679D01*
X171075161Y-86379666D01*
X171075115Y-86379642D01*
X171074688Y-86379357D01*
X171067123Y-86374401D01*
X171063424Y-86372024D01*
X171055819Y-86367232D01*
X171055813Y-86367229D01*
X170923901Y-86309812D01*
X170923899Y-86309811D01*
X170923896Y-86309810D01*
X170875060Y-86296413D01*
X170856517Y-86291326D01*
X170713755Y-86273396D01*
X170571726Y-86296413D01*
X170571725Y-86296413D01*
X170518074Y-86313212D01*
X170518059Y-86313218D01*
X170505055Y-86317291D01*
X170505054Y-86317291D01*
X170375265Y-86379389D01*
X170367338Y-86384685D01*
X170359126Y-86388579D01*
X170357760Y-86388795D01*
X170353453Y-86391097D01*
X170322329Y-86403989D01*
X170299070Y-86411045D01*
X170282443Y-86414352D01*
X170266030Y-86417617D01*
X170241841Y-86420000D01*
X170208161Y-86420000D01*
X170183968Y-86417617D01*
X170150926Y-86411044D01*
X170127667Y-86403988D01*
X170013624Y-86356750D01*
X170013358Y-86356779D01*
X169995647Y-86352209D01*
X169990698Y-86350534D01*
X169973892Y-86343219D01*
X169953000Y-86337488D01*
X169952927Y-86337749D01*
X169945105Y-86335101D01*
X169944898Y-86334955D01*
X169942678Y-86334251D01*
X169902741Y-86319803D01*
X169902738Y-86319802D01*
X169836995Y-86315750D01*
X169829171Y-86315018D01*
X169763788Y-86306806D01*
X169721867Y-86313595D01*
X169721868Y-86313596D01*
X169711084Y-86315342D01*
X169711047Y-86314869D01*
X169689454Y-86316629D01*
X169655802Y-86324297D01*
X169651903Y-86324929D01*
X169621758Y-86329814D01*
X169600114Y-86336590D01*
X169590628Y-86339151D01*
X169549220Y-86348589D01*
X169536300Y-86353553D01*
X169509906Y-86367226D01*
X169500324Y-86371682D01*
X169413973Y-86407449D01*
X169400986Y-86412002D01*
X169333053Y-86431658D01*
X169333043Y-86431661D01*
X169323175Y-86435454D01*
X169308731Y-86441263D01*
X169301659Y-86444234D01*
X169287500Y-86450439D01*
X169287495Y-86450442D01*
X169279914Y-86455315D01*
X169212875Y-86475000D01*
X167525000Y-86475000D01*
X167525000Y-110101000D01*
X167505315Y-110168039D01*
X167452511Y-110213794D01*
X167401000Y-110225000D01*
X159376362Y-110225000D01*
X159309323Y-110205315D01*
X159288681Y-110188681D01*
X158861319Y-109761319D01*
X158827834Y-109699996D01*
X158825000Y-109673638D01*
X158825000Y-86076361D01*
X158844685Y-86009322D01*
X158861314Y-85988685D01*
X160936583Y-83913416D01*
X160997902Y-83879934D01*
X161067594Y-83884918D01*
X161071685Y-83886528D01*
X161091503Y-83894737D01*
X161246153Y-83925499D01*
X161246156Y-83925500D01*
X161246158Y-83925500D01*
X161403844Y-83925500D01*
X161403845Y-83925499D01*
X161558497Y-83894737D01*
X161621317Y-83868716D01*
X161690793Y-83839939D01*
X161698969Y-83838312D01*
X161703310Y-83835523D01*
X161738245Y-83830500D01*
X161911755Y-83830500D01*
X161959207Y-83839939D01*
X162091498Y-83894735D01*
X162091503Y-83894737D01*
X162246153Y-83925499D01*
X162246156Y-83925500D01*
X162246158Y-83925500D01*
X162403844Y-83925500D01*
X162403845Y-83925499D01*
X162558497Y-83894737D01*
X162621317Y-83868716D01*
X162690793Y-83839939D01*
X162698969Y-83838312D01*
X162703310Y-83835523D01*
X162738245Y-83830500D01*
X162911755Y-83830500D01*
X162959207Y-83839939D01*
X163091498Y-83894735D01*
X163091503Y-83894737D01*
X163246153Y-83925499D01*
X163246156Y-83925500D01*
X163246158Y-83925500D01*
X163403844Y-83925500D01*
X163403845Y-83925499D01*
X163558497Y-83894737D01*
X163621317Y-83868716D01*
X163690793Y-83839939D01*
X163698969Y-83838312D01*
X163703310Y-83835523D01*
X163738245Y-83830500D01*
X163911755Y-83830500D01*
X163959207Y-83839939D01*
X164091498Y-83894735D01*
X164091503Y-83894737D01*
X164246153Y-83925499D01*
X164246156Y-83925500D01*
X164246158Y-83925500D01*
X164403844Y-83925500D01*
X164403845Y-83925499D01*
X164558497Y-83894737D01*
X164621317Y-83868716D01*
X164690793Y-83839939D01*
X164698969Y-83838312D01*
X164703310Y-83835523D01*
X164738245Y-83830500D01*
X164911755Y-83830500D01*
X164959207Y-83839939D01*
X165091498Y-83894735D01*
X165091503Y-83894737D01*
X165246153Y-83925499D01*
X165246156Y-83925500D01*
X165246158Y-83925500D01*
X165403844Y-83925500D01*
X165403845Y-83925499D01*
X165558497Y-83894737D01*
X165621317Y-83868716D01*
X165690793Y-83839939D01*
X165698969Y-83838312D01*
X165703310Y-83835523D01*
X165738245Y-83830500D01*
X165911755Y-83830500D01*
X165959207Y-83839939D01*
X166091498Y-83894735D01*
X166091503Y-83894737D01*
X166246153Y-83925499D01*
X166246156Y-83925500D01*
X166246158Y-83925500D01*
X166403844Y-83925500D01*
X166403845Y-83925499D01*
X166558497Y-83894737D01*
X166621317Y-83868716D01*
X166690793Y-83839939D01*
X166698969Y-83838312D01*
X166703310Y-83835523D01*
X166738245Y-83830500D01*
X166911755Y-83830500D01*
X166959207Y-83839939D01*
X167091498Y-83894735D01*
X167091503Y-83894737D01*
X167246153Y-83925499D01*
X167246156Y-83925500D01*
X167246158Y-83925500D01*
X167403844Y-83925500D01*
X167403845Y-83925499D01*
X167558497Y-83894737D01*
X167621317Y-83868716D01*
X167690793Y-83839939D01*
X167698969Y-83838312D01*
X167703310Y-83835523D01*
X167738245Y-83830500D01*
X167911755Y-83830500D01*
X167959207Y-83839939D01*
X168091498Y-83894735D01*
X168091503Y-83894737D01*
X168246153Y-83925499D01*
X168246156Y-83925500D01*
X168246158Y-83925500D01*
X168403844Y-83925500D01*
X168403845Y-83925499D01*
X168558497Y-83894737D01*
X168621317Y-83868716D01*
X168690793Y-83839939D01*
X168698969Y-83838312D01*
X168703310Y-83835523D01*
X168738245Y-83830500D01*
X168911755Y-83830500D01*
X168959207Y-83839939D01*
X169091498Y-83894735D01*
X169091503Y-83894737D01*
X169246153Y-83925499D01*
X169246156Y-83925500D01*
X169246158Y-83925500D01*
X169403844Y-83925500D01*
X169403845Y-83925499D01*
X169558497Y-83894737D01*
X169621317Y-83868716D01*
X169690793Y-83839939D01*
X169698969Y-83838312D01*
X169703310Y-83835523D01*
X169738245Y-83830500D01*
X169911755Y-83830500D01*
X169959207Y-83839939D01*
X170091498Y-83894735D01*
X170091503Y-83894737D01*
X170246153Y-83925499D01*
X170246156Y-83925500D01*
X170246158Y-83925500D01*
X170403844Y-83925500D01*
X170403845Y-83925499D01*
X170558497Y-83894737D01*
X170621317Y-83868716D01*
X170690793Y-83839939D01*
X170698969Y-83838312D01*
X170703310Y-83835523D01*
X170738245Y-83830500D01*
X170911755Y-83830500D01*
X170959207Y-83839939D01*
X171091498Y-83894735D01*
X171091503Y-83894737D01*
X171246153Y-83925499D01*
X171246156Y-83925500D01*
X171246158Y-83925500D01*
X171403844Y-83925500D01*
X171403845Y-83925499D01*
X171558497Y-83894737D01*
X171621317Y-83868716D01*
X171690793Y-83839939D01*
X171698969Y-83838312D01*
X171703310Y-83835523D01*
X171738245Y-83830500D01*
X171911755Y-83830500D01*
X171959207Y-83839939D01*
X172091498Y-83894735D01*
X172091503Y-83894737D01*
X172246153Y-83925499D01*
X172246156Y-83925500D01*
X172246158Y-83925500D01*
X172403844Y-83925500D01*
X172403845Y-83925499D01*
X172558497Y-83894737D01*
X172621317Y-83868716D01*
X172690793Y-83839939D01*
X172698969Y-83838312D01*
X172703310Y-83835523D01*
X172738245Y-83830500D01*
X172911755Y-83830500D01*
X172959207Y-83839939D01*
X173091498Y-83894735D01*
X173091503Y-83894737D01*
X173246153Y-83925499D01*
X173246156Y-83925500D01*
X173246158Y-83925500D01*
X173403844Y-83925500D01*
X173403845Y-83925499D01*
X173558497Y-83894737D01*
X173621317Y-83868716D01*
X173690793Y-83839939D01*
X173698969Y-83838312D01*
X173703310Y-83835523D01*
X173738245Y-83830500D01*
X173911755Y-83830500D01*
X173959207Y-83839939D01*
X174091498Y-83894735D01*
X174091503Y-83894737D01*
X174246153Y-83925499D01*
X174246156Y-83925500D01*
X174246158Y-83925500D01*
X174403844Y-83925500D01*
X174403845Y-83925499D01*
X174558497Y-83894737D01*
X174621317Y-83868716D01*
X174690793Y-83839939D01*
X174738245Y-83830500D01*
X174873640Y-83830500D01*
X174883786Y-83829955D01*
X174927678Y-83827603D01*
X174927686Y-83827602D01*
X174927688Y-83827602D01*
X174927689Y-83827602D01*
X174934682Y-83826849D01*
X174954036Y-83824769D01*
X174954046Y-83824767D01*
X174954049Y-83824767D01*
X174963648Y-83823211D01*
X175007448Y-83816114D01*
X175142257Y-83765832D01*
X175203580Y-83732347D01*
X175318762Y-83646123D01*
X175595154Y-83369729D01*
X175645549Y-83339153D01*
X176306804Y-83130734D01*
X176344079Y-83125000D01*
X182159729Y-83125000D01*
X182226768Y-83144685D01*
G37*
%TD.AperFunction*%
%TD*%
%TA.AperFunction,Conductor*%
%TO.N,+VDC*%
G36*
X182701768Y-133894685D02*
G01*
X182746125Y-133944530D01*
X183237396Y-134949223D01*
X183250000Y-135003693D01*
X183250000Y-136173637D01*
X183230315Y-136240676D01*
X183213681Y-136261318D01*
X182782507Y-136692491D01*
X182721184Y-136725976D01*
X182682675Y-136728213D01*
X182602120Y-136720281D01*
X182594189Y-136719500D01*
X182205811Y-136719500D01*
X182181627Y-136721881D01*
X182107207Y-136729210D01*
X182059749Y-136738649D01*
X182014301Y-136752434D01*
X182002504Y-136755389D01*
X181982733Y-136759322D01*
X181941032Y-136767617D01*
X181916842Y-136770000D01*
X181883157Y-136770000D01*
X181858965Y-136767617D01*
X181812363Y-136758347D01*
X181797492Y-136755388D01*
X181785698Y-136752434D01*
X181772157Y-136748327D01*
X181740249Y-136738648D01*
X181692796Y-136729210D01*
X181615730Y-136721621D01*
X181594189Y-136719500D01*
X181205811Y-136719500D01*
X181181627Y-136721881D01*
X181107207Y-136729210D01*
X181059749Y-136738649D01*
X181014301Y-136752434D01*
X181002504Y-136755389D01*
X180982733Y-136759322D01*
X180941032Y-136767617D01*
X180916842Y-136770000D01*
X180883157Y-136770000D01*
X180858965Y-136767617D01*
X180812363Y-136758347D01*
X180797492Y-136755388D01*
X180785698Y-136752434D01*
X180772157Y-136748327D01*
X180740249Y-136738648D01*
X180692796Y-136729210D01*
X180615730Y-136721621D01*
X180594189Y-136719500D01*
X180205811Y-136719500D01*
X180181627Y-136721881D01*
X180107207Y-136729210D01*
X180059749Y-136738649D01*
X180014301Y-136752434D01*
X180002504Y-136755389D01*
X179982733Y-136759322D01*
X179941032Y-136767617D01*
X179916842Y-136770000D01*
X179883157Y-136770000D01*
X179858965Y-136767617D01*
X179812363Y-136758347D01*
X179797492Y-136755388D01*
X179785698Y-136752434D01*
X179772157Y-136748327D01*
X179740249Y-136738648D01*
X179692796Y-136729210D01*
X179615730Y-136721621D01*
X179594189Y-136719500D01*
X179205811Y-136719500D01*
X179181627Y-136721881D01*
X179107207Y-136729210D01*
X179059749Y-136738649D01*
X179014301Y-136752434D01*
X179002504Y-136755389D01*
X178982733Y-136759322D01*
X178941032Y-136767617D01*
X178916842Y-136770000D01*
X178883157Y-136770000D01*
X178858965Y-136767617D01*
X178812363Y-136758347D01*
X178797492Y-136755388D01*
X178785698Y-136752434D01*
X178772157Y-136748327D01*
X178740249Y-136738648D01*
X178692796Y-136729210D01*
X178615730Y-136721621D01*
X178594189Y-136719500D01*
X178205811Y-136719500D01*
X178181627Y-136721881D01*
X178107207Y-136729210D01*
X178059749Y-136738649D01*
X178014301Y-136752434D01*
X178002504Y-136755389D01*
X177982733Y-136759322D01*
X177941032Y-136767617D01*
X177916842Y-136770000D01*
X177883157Y-136770000D01*
X177858965Y-136767617D01*
X177812363Y-136758347D01*
X177797492Y-136755388D01*
X177785698Y-136752434D01*
X177772157Y-136748327D01*
X177740249Y-136738648D01*
X177692796Y-136729210D01*
X177615730Y-136721621D01*
X177594189Y-136719500D01*
X177205811Y-136719500D01*
X177181627Y-136721881D01*
X177107207Y-136729210D01*
X177059749Y-136738649D01*
X177014301Y-136752434D01*
X177002504Y-136755389D01*
X176982733Y-136759322D01*
X176941032Y-136767617D01*
X176916842Y-136770000D01*
X176883156Y-136770000D01*
X176858965Y-136767617D01*
X176801543Y-136756195D01*
X176798945Y-136755702D01*
X176792619Y-136754502D01*
X176788329Y-136753728D01*
X176780761Y-136752433D01*
X176779423Y-136752204D01*
X176779422Y-136752203D01*
X176779417Y-136752203D01*
X176635566Y-136749637D01*
X176566244Y-136758344D01*
X176566232Y-136758347D01*
X176427495Y-136796408D01*
X176427493Y-136796409D01*
X176305079Y-136872026D01*
X176261426Y-136908508D01*
X176261422Y-136908511D01*
X176251473Y-136916827D01*
X176251471Y-136916828D01*
X176155324Y-137023867D01*
X176131729Y-137059177D01*
X176126801Y-137064903D01*
X176125246Y-137065909D01*
X176120504Y-137071688D01*
X176096693Y-137095499D01*
X176077903Y-137110920D01*
X176049885Y-137129641D01*
X176028448Y-137141100D01*
X176018193Y-137145347D01*
X175997328Y-137153989D01*
X175974071Y-137161045D01*
X175957340Y-137164373D01*
X175941031Y-137167617D01*
X175916841Y-137170000D01*
X175883159Y-137170000D01*
X175858970Y-137167617D01*
X175830740Y-137162002D01*
X175825925Y-137161044D01*
X175802670Y-137153989D01*
X175771556Y-137141102D01*
X175750181Y-137129677D01*
X175750180Y-137129679D01*
X175750161Y-137129666D01*
X175750115Y-137129642D01*
X175749688Y-137129357D01*
X175742123Y-137124401D01*
X175738424Y-137122024D01*
X175730819Y-137117232D01*
X175730813Y-137117229D01*
X175598901Y-137059812D01*
X175598899Y-137059811D01*
X175598896Y-137059810D01*
X175550060Y-137046413D01*
X175531517Y-137041326D01*
X175388755Y-137023396D01*
X175246726Y-137046413D01*
X175246725Y-137046413D01*
X175193074Y-137063212D01*
X175193059Y-137063218D01*
X175180055Y-137067291D01*
X175180054Y-137067291D01*
X175050265Y-137129389D01*
X175042338Y-137134685D01*
X175034126Y-137138579D01*
X175032760Y-137138795D01*
X175028453Y-137141097D01*
X174997329Y-137153989D01*
X174974070Y-137161045D01*
X174957443Y-137164352D01*
X174941030Y-137167617D01*
X174916841Y-137170000D01*
X174883159Y-137170000D01*
X174858970Y-137167617D01*
X174830740Y-137162002D01*
X174825925Y-137161044D01*
X174802670Y-137153989D01*
X174771556Y-137141102D01*
X174750181Y-137129677D01*
X174750180Y-137129679D01*
X174750161Y-137129666D01*
X174750115Y-137129642D01*
X174749688Y-137129357D01*
X174742123Y-137124401D01*
X174738424Y-137122024D01*
X174730819Y-137117232D01*
X174730813Y-137117229D01*
X174598901Y-137059812D01*
X174598899Y-137059811D01*
X174598896Y-137059810D01*
X174550060Y-137046413D01*
X174531517Y-137041326D01*
X174388755Y-137023396D01*
X174246726Y-137046413D01*
X174246725Y-137046413D01*
X174193074Y-137063212D01*
X174193059Y-137063218D01*
X174180055Y-137067291D01*
X174180054Y-137067291D01*
X174050265Y-137129389D01*
X174042338Y-137134685D01*
X174034126Y-137138579D01*
X174032760Y-137138795D01*
X174028453Y-137141097D01*
X173997329Y-137153989D01*
X173974070Y-137161045D01*
X173957443Y-137164352D01*
X173941030Y-137167617D01*
X173916841Y-137170000D01*
X173883159Y-137170000D01*
X173858970Y-137167617D01*
X173825924Y-137161044D01*
X173802667Y-137153988D01*
X173771547Y-137141098D01*
X173750112Y-137129641D01*
X173700017Y-137096169D01*
X173697182Y-137092777D01*
X173661129Y-137069607D01*
X173661125Y-137069604D01*
X173659085Y-137068292D01*
X173659084Y-137068292D01*
X173638948Y-137055341D01*
X173637137Y-137054154D01*
X173630815Y-137049930D01*
X173629416Y-137049211D01*
X173616899Y-137041161D01*
X173616621Y-137041003D01*
X173519937Y-136992611D01*
X173519938Y-136992611D01*
X173379353Y-136962041D01*
X173379347Y-136962040D01*
X173309655Y-136957061D01*
X173309651Y-136957061D01*
X173309647Y-136957061D01*
X173309646Y-136957061D01*
X173166144Y-136967335D01*
X173031337Y-137017628D01*
X173016126Y-137025934D01*
X173016127Y-137025935D01*
X172971081Y-137050536D01*
X172970137Y-137051052D01*
X172969742Y-137051268D01*
X172969667Y-137051309D01*
X172964625Y-137054062D01*
X172962212Y-137054586D01*
X172960311Y-137055857D01*
X172950867Y-137061575D01*
X172947245Y-137063552D01*
X172936268Y-137071922D01*
X172849892Y-137129638D01*
X172828454Y-137141097D01*
X172828452Y-137141098D01*
X172797330Y-137153989D01*
X172774071Y-137161045D01*
X172757340Y-137164373D01*
X172741031Y-137167617D01*
X172716841Y-137170000D01*
X172683159Y-137170000D01*
X172658970Y-137167617D01*
X172630740Y-137162002D01*
X172625925Y-137161044D01*
X172602670Y-137153989D01*
X172571556Y-137141102D01*
X172550181Y-137129677D01*
X172550180Y-137129679D01*
X172550161Y-137129666D01*
X172550115Y-137129642D01*
X172549688Y-137129357D01*
X172542123Y-137124401D01*
X172538424Y-137122024D01*
X172530819Y-137117232D01*
X172530813Y-137117229D01*
X172398901Y-137059812D01*
X172398899Y-137059811D01*
X172398896Y-137059810D01*
X172350060Y-137046413D01*
X172331517Y-137041326D01*
X172188755Y-137023396D01*
X172046726Y-137046413D01*
X172046725Y-137046413D01*
X171993074Y-137063212D01*
X171993059Y-137063218D01*
X171980055Y-137067291D01*
X171980054Y-137067291D01*
X171850265Y-137129389D01*
X171842338Y-137134685D01*
X171834126Y-137138579D01*
X171832760Y-137138795D01*
X171828453Y-137141097D01*
X171797329Y-137153989D01*
X171774070Y-137161045D01*
X171757443Y-137164352D01*
X171741030Y-137167617D01*
X171716841Y-137170000D01*
X171683159Y-137170000D01*
X171658970Y-137167617D01*
X171630740Y-137162002D01*
X171625925Y-137161044D01*
X171602670Y-137153989D01*
X171571556Y-137141102D01*
X171550181Y-137129677D01*
X171550180Y-137129679D01*
X171550161Y-137129666D01*
X171550115Y-137129642D01*
X171549688Y-137129357D01*
X171542123Y-137124401D01*
X171538424Y-137122024D01*
X171530819Y-137117232D01*
X171530813Y-137117229D01*
X171398901Y-137059812D01*
X171398899Y-137059811D01*
X171398896Y-137059810D01*
X171350060Y-137046413D01*
X171331517Y-137041326D01*
X171188755Y-137023396D01*
X171046726Y-137046413D01*
X171046725Y-137046413D01*
X170993074Y-137063212D01*
X170993059Y-137063218D01*
X170980055Y-137067291D01*
X170980054Y-137067291D01*
X170850265Y-137129389D01*
X170842338Y-137134685D01*
X170834126Y-137138579D01*
X170832760Y-137138795D01*
X170828453Y-137141097D01*
X170797329Y-137153989D01*
X170774070Y-137161045D01*
X170757443Y-137164352D01*
X170741030Y-137167617D01*
X170716841Y-137170000D01*
X170683161Y-137170000D01*
X170658968Y-137167617D01*
X170625926Y-137161044D01*
X170602667Y-137153988D01*
X170488624Y-137106750D01*
X170488358Y-137106779D01*
X170470647Y-137102209D01*
X170465698Y-137100534D01*
X170448892Y-137093219D01*
X170428000Y-137087488D01*
X170427927Y-137087749D01*
X170420105Y-137085101D01*
X170419898Y-137084955D01*
X170417678Y-137084251D01*
X170377741Y-137069803D01*
X170377738Y-137069802D01*
X170311995Y-137065750D01*
X170304171Y-137065018D01*
X170238788Y-137056806D01*
X170196867Y-137063595D01*
X170196868Y-137063596D01*
X170186084Y-137065342D01*
X170186047Y-137064869D01*
X170164454Y-137066629D01*
X170130802Y-137074297D01*
X170126903Y-137074929D01*
X170096758Y-137079814D01*
X170075114Y-137086590D01*
X170065628Y-137089151D01*
X170024220Y-137098589D01*
X170011300Y-137103553D01*
X169984906Y-137117226D01*
X169975324Y-137121682D01*
X169888973Y-137157449D01*
X169875986Y-137162002D01*
X169808053Y-137181658D01*
X169808043Y-137181661D01*
X169798175Y-137185454D01*
X169783731Y-137191263D01*
X169776659Y-137194234D01*
X169762500Y-137200439D01*
X169762495Y-137200442D01*
X169754914Y-137205315D01*
X169687875Y-137225000D01*
X168000000Y-137225000D01*
X168000000Y-160851000D01*
X167980315Y-160918039D01*
X167927511Y-160963794D01*
X167876000Y-160975000D01*
X159851362Y-160975000D01*
X159784323Y-160955315D01*
X159763681Y-160938681D01*
X159336319Y-160511319D01*
X159302834Y-160449996D01*
X159300000Y-160423638D01*
X159300000Y-136826361D01*
X159319685Y-136759322D01*
X159336314Y-136738685D01*
X161411583Y-134663416D01*
X161472902Y-134629934D01*
X161542594Y-134634918D01*
X161546685Y-134636528D01*
X161566503Y-134644737D01*
X161721153Y-134675499D01*
X161721156Y-134675500D01*
X161721158Y-134675500D01*
X161878844Y-134675500D01*
X161878845Y-134675499D01*
X162033497Y-134644737D01*
X162096317Y-134618716D01*
X162165793Y-134589939D01*
X162173969Y-134588312D01*
X162178310Y-134585523D01*
X162213245Y-134580500D01*
X162386755Y-134580500D01*
X162434207Y-134589939D01*
X162566498Y-134644735D01*
X162566503Y-134644737D01*
X162721153Y-134675499D01*
X162721156Y-134675500D01*
X162721158Y-134675500D01*
X162878844Y-134675500D01*
X162878845Y-134675499D01*
X163033497Y-134644737D01*
X163096317Y-134618716D01*
X163165793Y-134589939D01*
X163173969Y-134588312D01*
X163178310Y-134585523D01*
X163213245Y-134580500D01*
X163386755Y-134580500D01*
X163434207Y-134589939D01*
X163566498Y-134644735D01*
X163566503Y-134644737D01*
X163721153Y-134675499D01*
X163721156Y-134675500D01*
X163721158Y-134675500D01*
X163878844Y-134675500D01*
X163878845Y-134675499D01*
X164033497Y-134644737D01*
X164096317Y-134618716D01*
X164165793Y-134589939D01*
X164173969Y-134588312D01*
X164178310Y-134585523D01*
X164213245Y-134580500D01*
X164386755Y-134580500D01*
X164434207Y-134589939D01*
X164566498Y-134644735D01*
X164566503Y-134644737D01*
X164721153Y-134675499D01*
X164721156Y-134675500D01*
X164721158Y-134675500D01*
X164878844Y-134675500D01*
X164878845Y-134675499D01*
X165033497Y-134644737D01*
X165096317Y-134618716D01*
X165165793Y-134589939D01*
X165173969Y-134588312D01*
X165178310Y-134585523D01*
X165213245Y-134580500D01*
X165386755Y-134580500D01*
X165434207Y-134589939D01*
X165566498Y-134644735D01*
X165566503Y-134644737D01*
X165721153Y-134675499D01*
X165721156Y-134675500D01*
X165721158Y-134675500D01*
X165878844Y-134675500D01*
X165878845Y-134675499D01*
X166033497Y-134644737D01*
X166096317Y-134618716D01*
X166165793Y-134589939D01*
X166173969Y-134588312D01*
X166178310Y-134585523D01*
X166213245Y-134580500D01*
X166386755Y-134580500D01*
X166434207Y-134589939D01*
X166566498Y-134644735D01*
X166566503Y-134644737D01*
X166721153Y-134675499D01*
X166721156Y-134675500D01*
X166721158Y-134675500D01*
X166878844Y-134675500D01*
X166878845Y-134675499D01*
X167033497Y-134644737D01*
X167096317Y-134618716D01*
X167165793Y-134589939D01*
X167173969Y-134588312D01*
X167178310Y-134585523D01*
X167213245Y-134580500D01*
X167386755Y-134580500D01*
X167434207Y-134589939D01*
X167566498Y-134644735D01*
X167566503Y-134644737D01*
X167721153Y-134675499D01*
X167721156Y-134675500D01*
X167721158Y-134675500D01*
X167878844Y-134675500D01*
X167878845Y-134675499D01*
X168033497Y-134644737D01*
X168096317Y-134618716D01*
X168165793Y-134589939D01*
X168173969Y-134588312D01*
X168178310Y-134585523D01*
X168213245Y-134580500D01*
X168386755Y-134580500D01*
X168434207Y-134589939D01*
X168566498Y-134644735D01*
X168566503Y-134644737D01*
X168721153Y-134675499D01*
X168721156Y-134675500D01*
X168721158Y-134675500D01*
X168878844Y-134675500D01*
X168878845Y-134675499D01*
X169033497Y-134644737D01*
X169096317Y-134618716D01*
X169165793Y-134589939D01*
X169173969Y-134588312D01*
X169178310Y-134585523D01*
X169213245Y-134580500D01*
X169386755Y-134580500D01*
X169434207Y-134589939D01*
X169566498Y-134644735D01*
X169566503Y-134644737D01*
X169721153Y-134675499D01*
X169721156Y-134675500D01*
X169721158Y-134675500D01*
X169878844Y-134675500D01*
X169878845Y-134675499D01*
X170033497Y-134644737D01*
X170096317Y-134618716D01*
X170165793Y-134589939D01*
X170173969Y-134588312D01*
X170178310Y-134585523D01*
X170213245Y-134580500D01*
X170386755Y-134580500D01*
X170434207Y-134589939D01*
X170566498Y-134644735D01*
X170566503Y-134644737D01*
X170721153Y-134675499D01*
X170721156Y-134675500D01*
X170721158Y-134675500D01*
X170878844Y-134675500D01*
X170878845Y-134675499D01*
X171033497Y-134644737D01*
X171096317Y-134618716D01*
X171165793Y-134589939D01*
X171173969Y-134588312D01*
X171178310Y-134585523D01*
X171213245Y-134580500D01*
X171386755Y-134580500D01*
X171434207Y-134589939D01*
X171566498Y-134644735D01*
X171566503Y-134644737D01*
X171721153Y-134675499D01*
X171721156Y-134675500D01*
X171721158Y-134675500D01*
X171878844Y-134675500D01*
X171878845Y-134675499D01*
X172033497Y-134644737D01*
X172096317Y-134618716D01*
X172165793Y-134589939D01*
X172173969Y-134588312D01*
X172178310Y-134585523D01*
X172213245Y-134580500D01*
X172386755Y-134580500D01*
X172434207Y-134589939D01*
X172566498Y-134644735D01*
X172566503Y-134644737D01*
X172721153Y-134675499D01*
X172721156Y-134675500D01*
X172721158Y-134675500D01*
X172878844Y-134675500D01*
X172878845Y-134675499D01*
X173033497Y-134644737D01*
X173096317Y-134618716D01*
X173165793Y-134589939D01*
X173173969Y-134588312D01*
X173178310Y-134585523D01*
X173213245Y-134580500D01*
X173386755Y-134580500D01*
X173434207Y-134589939D01*
X173566498Y-134644735D01*
X173566503Y-134644737D01*
X173721153Y-134675499D01*
X173721156Y-134675500D01*
X173721158Y-134675500D01*
X173878844Y-134675500D01*
X173878845Y-134675499D01*
X174033497Y-134644737D01*
X174096317Y-134618716D01*
X174165793Y-134589939D01*
X174173969Y-134588312D01*
X174178310Y-134585523D01*
X174213245Y-134580500D01*
X174386755Y-134580500D01*
X174434207Y-134589939D01*
X174566498Y-134644735D01*
X174566503Y-134644737D01*
X174721153Y-134675499D01*
X174721156Y-134675500D01*
X174721158Y-134675500D01*
X174878844Y-134675500D01*
X174878845Y-134675499D01*
X175033497Y-134644737D01*
X175096317Y-134618716D01*
X175165793Y-134589939D01*
X175213245Y-134580500D01*
X175348640Y-134580500D01*
X175358786Y-134579955D01*
X175402678Y-134577603D01*
X175402686Y-134577602D01*
X175402688Y-134577602D01*
X175402689Y-134577602D01*
X175409682Y-134576849D01*
X175429036Y-134574769D01*
X175429046Y-134574767D01*
X175429049Y-134574767D01*
X175438648Y-134573211D01*
X175482448Y-134566114D01*
X175617257Y-134515832D01*
X175678580Y-134482347D01*
X175793762Y-134396123D01*
X176070154Y-134119729D01*
X176120549Y-134089153D01*
X176781804Y-133880734D01*
X176819079Y-133875000D01*
X182634729Y-133875000D01*
X182701768Y-133894685D01*
G37*
%TD.AperFunction*%
%TD*%
%TA.AperFunction,Conductor*%
%TO.N,-VDC*%
G36*
X127990677Y-28419685D02*
G01*
X128011319Y-28436319D01*
X149388681Y-49813681D01*
X149422166Y-49875004D01*
X149425000Y-49901362D01*
X149425000Y-77573638D01*
X149405315Y-77640677D01*
X149388681Y-77661319D01*
X148736319Y-78313681D01*
X148674996Y-78347166D01*
X148648638Y-78350000D01*
X125426362Y-78350000D01*
X125359323Y-78330315D01*
X125338681Y-78313681D01*
X123207273Y-76182273D01*
X123173788Y-76120950D01*
X123178772Y-76051258D01*
X123207275Y-76006909D01*
X123216966Y-75997219D01*
X123216968Y-75997215D01*
X123216971Y-75997213D01*
X123329759Y-75841971D01*
X123337287Y-75831610D01*
X123430220Y-75649219D01*
X123493477Y-75454534D01*
X123525500Y-75252352D01*
X123525500Y-75047648D01*
X123493477Y-74845466D01*
X123493476Y-74845462D01*
X123493476Y-74845461D01*
X123472562Y-74781094D01*
X123461694Y-74747648D01*
X127824500Y-74747648D01*
X127824500Y-74952351D01*
X127856522Y-75154534D01*
X127919781Y-75349223D01*
X127965220Y-75438400D01*
X128008949Y-75524223D01*
X128012715Y-75531613D01*
X128133028Y-75697213D01*
X128277786Y-75841971D01*
X128432749Y-75954556D01*
X128443390Y-75962287D01*
X128550713Y-76016971D01*
X128625776Y-76055218D01*
X128625778Y-76055218D01*
X128625781Y-76055220D01*
X128730137Y-76089127D01*
X128820465Y-76118477D01*
X128921557Y-76134488D01*
X129022648Y-76150500D01*
X129022649Y-76150500D01*
X129227351Y-76150500D01*
X129227352Y-76150500D01*
X129429534Y-76118477D01*
X129624219Y-76055220D01*
X129806610Y-75962287D01*
X129930579Y-75872219D01*
X129972213Y-75841971D01*
X129972215Y-75841968D01*
X129972219Y-75841966D01*
X130116966Y-75697219D01*
X130116968Y-75697215D01*
X130116971Y-75697213D01*
X130215692Y-75561333D01*
X130237287Y-75531610D01*
X130330220Y-75349219D01*
X130393477Y-75154534D01*
X130425500Y-74952352D01*
X130425500Y-74922648D01*
X134849500Y-74922648D01*
X134849500Y-75127351D01*
X134881522Y-75329534D01*
X134944781Y-75524223D01*
X135037715Y-75706613D01*
X135158028Y-75872213D01*
X135302786Y-76016971D01*
X135442500Y-76118477D01*
X135468390Y-76137287D01*
X135556680Y-76182273D01*
X135650776Y-76230218D01*
X135650778Y-76230218D01*
X135650781Y-76230220D01*
X135749473Y-76262287D01*
X135845465Y-76293477D01*
X135946557Y-76309488D01*
X136047648Y-76325500D01*
X136047649Y-76325500D01*
X136252351Y-76325500D01*
X136252352Y-76325500D01*
X136454534Y-76293477D01*
X136649219Y-76230220D01*
X136831610Y-76137287D01*
X136924590Y-76069732D01*
X136997213Y-76016971D01*
X136997215Y-76016968D01*
X136997219Y-76016966D01*
X137141966Y-75872219D01*
X137141968Y-75872215D01*
X137141971Y-75872213D01*
X137194732Y-75799590D01*
X137262287Y-75706610D01*
X137355220Y-75524219D01*
X137418477Y-75329534D01*
X137450500Y-75127352D01*
X137450500Y-74922648D01*
X137418477Y-74720466D01*
X137417243Y-74716669D01*
X137361616Y-74545466D01*
X137355220Y-74525781D01*
X137355218Y-74525778D01*
X137355218Y-74525776D01*
X137321503Y-74459607D01*
X137262287Y-74343390D01*
X137232783Y-74302781D01*
X137141971Y-74177786D01*
X136997213Y-74033028D01*
X136831613Y-73912715D01*
X136831612Y-73912714D01*
X136831610Y-73912713D01*
X136724297Y-73858034D01*
X136649223Y-73819781D01*
X136454534Y-73756522D01*
X136279995Y-73728878D01*
X136252352Y-73724500D01*
X136047648Y-73724500D01*
X136023329Y-73728351D01*
X135845465Y-73756522D01*
X135650776Y-73819781D01*
X135468386Y-73912715D01*
X135302786Y-74033028D01*
X135158028Y-74177786D01*
X135037715Y-74343386D01*
X134944781Y-74525776D01*
X134881522Y-74720465D01*
X134849500Y-74922648D01*
X130425500Y-74922648D01*
X130425500Y-74747648D01*
X130393477Y-74545466D01*
X130387079Y-74525776D01*
X130330218Y-74350776D01*
X130296503Y-74284607D01*
X130237287Y-74168390D01*
X130229556Y-74157749D01*
X130116971Y-74002786D01*
X129972213Y-73858028D01*
X129806613Y-73737715D01*
X129806612Y-73737714D01*
X129806610Y-73737713D01*
X129749653Y-73708691D01*
X129624223Y-73644781D01*
X129429534Y-73581522D01*
X129254995Y-73553878D01*
X129227352Y-73549500D01*
X129022648Y-73549500D01*
X128998329Y-73553351D01*
X128820465Y-73581522D01*
X128625776Y-73644781D01*
X128443386Y-73737715D01*
X128277786Y-73858028D01*
X128133028Y-74002786D01*
X128012715Y-74168386D01*
X127919781Y-74350776D01*
X127856522Y-74545465D01*
X127824500Y-74747648D01*
X123461694Y-74747648D01*
X123430218Y-74650776D01*
X123396503Y-74584607D01*
X123337287Y-74468390D01*
X123329556Y-74457749D01*
X123216971Y-74302786D01*
X123072213Y-74158028D01*
X122906613Y-74037715D01*
X122906612Y-74037714D01*
X122906610Y-74037713D01*
X122838052Y-74002781D01*
X122724223Y-73944781D01*
X122529534Y-73881522D01*
X122354995Y-73853878D01*
X122327352Y-73849500D01*
X122249000Y-73849500D01*
X122181961Y-73829815D01*
X122136206Y-73777011D01*
X122125000Y-73725500D01*
X122125000Y-66356902D01*
X128499500Y-66356902D01*
X128499500Y-66593097D01*
X128536446Y-66826368D01*
X128609433Y-67050996D01*
X128716657Y-67261433D01*
X128855483Y-67452510D01*
X129022490Y-67619517D01*
X129213567Y-67758343D01*
X129312991Y-67809002D01*
X129424003Y-67865566D01*
X129424005Y-67865566D01*
X129424008Y-67865568D01*
X129544412Y-67904689D01*
X129648631Y-67938553D01*
X129881903Y-67975500D01*
X129881908Y-67975500D01*
X130118097Y-67975500D01*
X130351368Y-67938553D01*
X130575992Y-67865568D01*
X130786433Y-67758343D01*
X130977510Y-67619517D01*
X131144517Y-67452510D01*
X131283343Y-67261433D01*
X131390568Y-67050992D01*
X131463553Y-66826368D01*
X131500500Y-66593097D01*
X131500500Y-66356902D01*
X131463553Y-66123631D01*
X131390566Y-65899003D01*
X131283342Y-65688566D01*
X131144517Y-65497490D01*
X130977510Y-65330483D01*
X130786433Y-65191657D01*
X130575996Y-65084433D01*
X130351368Y-65011446D01*
X130118097Y-64974500D01*
X130118092Y-64974500D01*
X129881908Y-64974500D01*
X129881903Y-64974500D01*
X129648631Y-65011446D01*
X129424003Y-65084433D01*
X129213566Y-65191657D01*
X129104550Y-65270862D01*
X129022490Y-65330483D01*
X129022488Y-65330485D01*
X129022487Y-65330485D01*
X128855485Y-65497487D01*
X128855485Y-65497488D01*
X128855483Y-65497490D01*
X128795862Y-65579550D01*
X128716657Y-65688566D01*
X128609433Y-65899003D01*
X128536446Y-66123631D01*
X128499500Y-66356902D01*
X122125000Y-66356902D01*
X122125000Y-57606902D01*
X142674500Y-57606902D01*
X142674500Y-57843097D01*
X142711446Y-58076368D01*
X142784433Y-58300996D01*
X142891657Y-58511433D01*
X143030483Y-58702510D01*
X143197490Y-58869517D01*
X143388567Y-59008343D01*
X143487991Y-59059002D01*
X143599003Y-59115566D01*
X143599005Y-59115566D01*
X143599008Y-59115568D01*
X143719412Y-59154689D01*
X143823631Y-59188553D01*
X144056903Y-59225500D01*
X144056908Y-59225500D01*
X144293097Y-59225500D01*
X144526368Y-59188553D01*
X144750992Y-59115568D01*
X144961433Y-59008343D01*
X145152510Y-58869517D01*
X145319517Y-58702510D01*
X145458343Y-58511433D01*
X145565568Y-58300992D01*
X145638553Y-58076368D01*
X145675500Y-57843097D01*
X145675500Y-57606902D01*
X145638553Y-57373631D01*
X145565566Y-57149003D01*
X145458342Y-56938566D01*
X145319517Y-56747490D01*
X145152510Y-56580483D01*
X144961433Y-56441657D01*
X144914313Y-56417648D01*
X144750996Y-56334433D01*
X144526368Y-56261446D01*
X144293097Y-56224500D01*
X144293092Y-56224500D01*
X144056908Y-56224500D01*
X144056903Y-56224500D01*
X143823631Y-56261446D01*
X143599003Y-56334433D01*
X143388566Y-56441657D01*
X143279550Y-56520862D01*
X143197490Y-56580483D01*
X143197488Y-56580485D01*
X143197487Y-56580485D01*
X143030485Y-56747487D01*
X143030485Y-56747488D01*
X143030483Y-56747490D01*
X142974507Y-56824534D01*
X142891657Y-56938566D01*
X142784433Y-57149003D01*
X142711446Y-57373631D01*
X142674500Y-57606902D01*
X122125000Y-57606902D01*
X122125000Y-51625000D01*
X119581902Y-49081902D01*
X128424500Y-49081902D01*
X128424500Y-49318097D01*
X128461446Y-49551368D01*
X128534433Y-49775996D01*
X128574434Y-49854501D01*
X128641657Y-49986433D01*
X128780483Y-50177510D01*
X128947490Y-50344517D01*
X129138567Y-50483343D01*
X129237991Y-50534002D01*
X129349003Y-50590566D01*
X129349005Y-50590566D01*
X129349008Y-50590568D01*
X129469412Y-50629689D01*
X129573631Y-50663553D01*
X129806903Y-50700500D01*
X129806908Y-50700500D01*
X130043097Y-50700500D01*
X130276368Y-50663553D01*
X130500992Y-50590568D01*
X130711433Y-50483343D01*
X130902510Y-50344517D01*
X131069517Y-50177510D01*
X131208343Y-49986433D01*
X131315568Y-49775992D01*
X131388553Y-49551368D01*
X131412558Y-49399808D01*
X131425500Y-49318097D01*
X131425500Y-49081902D01*
X131388553Y-48848631D01*
X131315566Y-48624003D01*
X131208342Y-48413566D01*
X131208156Y-48413310D01*
X131069517Y-48222490D01*
X130902510Y-48055483D01*
X130711433Y-47916657D01*
X130500996Y-47809433D01*
X130276368Y-47736446D01*
X130043097Y-47699500D01*
X130043092Y-47699500D01*
X129806908Y-47699500D01*
X129806903Y-47699500D01*
X129573631Y-47736446D01*
X129349003Y-47809433D01*
X129138566Y-47916657D01*
X129029550Y-47995862D01*
X128947490Y-48055483D01*
X128947488Y-48055485D01*
X128947487Y-48055485D01*
X128780485Y-48222487D01*
X128780485Y-48222488D01*
X128780483Y-48222490D01*
X128720862Y-48304550D01*
X128641657Y-48413566D01*
X128534433Y-48624003D01*
X128461446Y-48848631D01*
X128424500Y-49081902D01*
X119581902Y-49081902D01*
X111886319Y-41386319D01*
X111852834Y-41324996D01*
X111850000Y-41298638D01*
X111850000Y-28976362D01*
X111869685Y-28909323D01*
X111886319Y-28888681D01*
X112338681Y-28436319D01*
X112400004Y-28402834D01*
X112426362Y-28400000D01*
X127923638Y-28400000D01*
X127990677Y-28419685D01*
G37*
%TD.AperFunction*%
%TD*%
%TA.AperFunction,Conductor*%
%TO.N,-VDC*%
G36*
X203515677Y-20644685D02*
G01*
X203536319Y-20661319D01*
X204938681Y-22063681D01*
X204972166Y-22125004D01*
X204975000Y-22151362D01*
X204975000Y-123048638D01*
X204955315Y-123115677D01*
X204938681Y-123136319D01*
X201211319Y-126863681D01*
X201149996Y-126897166D01*
X201123638Y-126900000D01*
X192149000Y-126900000D01*
X192081961Y-126880315D01*
X192036206Y-126827511D01*
X192025000Y-126776000D01*
X192025000Y-113301362D01*
X192044685Y-113234323D01*
X192061319Y-113213681D01*
X199650000Y-105625000D01*
X199650000Y-76875000D01*
X192026362Y-76875000D01*
X191959323Y-76855315D01*
X191938681Y-76838681D01*
X191261319Y-76161319D01*
X191227834Y-76099996D01*
X191225000Y-76073638D01*
X191225000Y-73826925D01*
X191225059Y-73823092D01*
X191299948Y-71401669D01*
X191300095Y-71398349D01*
X191621952Y-65827742D01*
X191645471Y-65761952D01*
X191665149Y-65740663D01*
X198800000Y-59638697D01*
X198800000Y-27400000D01*
X197450000Y-26050000D01*
X193499000Y-26050000D01*
X193431961Y-26030315D01*
X193386206Y-25977511D01*
X193375000Y-25926000D01*
X193375000Y-20749000D01*
X193394685Y-20681961D01*
X193447489Y-20636206D01*
X193499000Y-20625000D01*
X203448638Y-20625000D01*
X203515677Y-20644685D01*
G37*
%TD.AperFunction*%
%TD*%
M02*
