%TF.GenerationSoftware,KiCad,Pcbnew,9.0.7*%
%TF.CreationDate,2026-02-26T16:01:45+03:00*%
%TF.ProjectId,Motor_Driver_Shell_Eco,4d6f746f-725f-4447-9269-7665725f5368,rev?*%
%TF.SameCoordinates,Original*%
%TF.FileFunction,Soldermask,Bot*%
%TF.FilePolarity,Negative*%
%FSLAX46Y46*%
G04 Gerber Fmt 4.6, Leading zero omitted, Abs format (unit mm)*
G04 Created by KiCad (PCBNEW 9.0.7) date 2026-02-26 16:01:45*
%MOMM*%
%LPD*%
G01*
G04 APERTURE LIST*
G04 Aperture macros list*
%AMRoundRect*
0 Rectangle with rounded corners*
0 $1 Rounding radius*
0 $2 $3 $4 $5 $6 $7 $8 $9 X,Y pos of 4 corners*
0 Add a 4 corners polygon primitive as box body*
4,1,4,$2,$3,$4,$5,$6,$7,$8,$9,$2,$3,0*
0 Add four circle primitives for the rounded corners*
1,1,$1+$1,$2,$3*
1,1,$1+$1,$4,$5*
1,1,$1+$1,$6,$7*
1,1,$1+$1,$8,$9*
0 Add four rect primitives between the rounded corners*
20,1,$1+$1,$2,$3,$4,$5,0*
20,1,$1+$1,$4,$5,$6,$7,0*
20,1,$1+$1,$6,$7,$8,$9,0*
20,1,$1+$1,$8,$9,$2,$3,0*%
G04 Aperture macros list end*
%ADD10C,0.000000*%
%ADD11C,2.200000*%
%ADD12R,2.000000X2.000000*%
%ADD13C,2.000000*%
%ADD14R,1.800000X1.800000*%
%ADD15C,1.800000*%
%ADD16R,1.350000X1.350000*%
%ADD17C,1.350000*%
%ADD18C,1.600000*%
%ADD19R,1.000000X1.000000*%
%ADD20C,1.000000*%
%ADD21C,2.004000*%
%ADD22RoundRect,0.250000X-0.650000X-0.650000X0.650000X-0.650000X0.650000X0.650000X-0.650000X0.650000X0*%
%ADD23RoundRect,0.250000X0.550000X-0.550000X0.550000X0.550000X-0.550000X0.550000X-0.550000X-0.550000X0*%
%ADD24C,1.500000*%
%ADD25C,0.650000*%
%ADD26O,1.000000X2.100000*%
%ADD27O,1.000000X1.800000*%
%ADD28C,0.800000*%
%ADD29C,7.400000*%
%ADD30RoundRect,0.249999X-1.425001X0.450001X-1.425001X-0.450001X1.425001X-0.450001X1.425001X0.450001X0*%
%ADD31RoundRect,0.250000X0.650000X-1.000000X0.650000X1.000000X-0.650000X1.000000X-0.650000X-1.000000X0*%
%ADD32RoundRect,0.250000X0.450000X-0.350000X0.450000X0.350000X-0.450000X0.350000X-0.450000X-0.350000X0*%
%ADD33RoundRect,0.237500X0.250000X0.237500X-0.250000X0.237500X-0.250000X-0.237500X0.250000X-0.237500X0*%
%ADD34RoundRect,0.250000X1.100000X-0.412500X1.100000X0.412500X-1.100000X0.412500X-1.100000X-0.412500X0*%
%ADD35RoundRect,0.237500X-0.237500X0.300000X-0.237500X-0.300000X0.237500X-0.300000X0.237500X0.300000X0*%
%ADD36RoundRect,0.250000X1.075000X-0.312500X1.075000X0.312500X-1.075000X0.312500X-1.075000X-0.312500X0*%
%ADD37RoundRect,0.237500X0.300000X0.237500X-0.300000X0.237500X-0.300000X-0.237500X0.300000X-0.237500X0*%
%ADD38RoundRect,0.250000X-0.350000X-0.450000X0.350000X-0.450000X0.350000X0.450000X-0.350000X0.450000X0*%
%ADD39RoundRect,0.250000X-0.412500X-1.100000X0.412500X-1.100000X0.412500X1.100000X-0.412500X1.100000X0*%
%ADD40RoundRect,0.237500X0.237500X-0.300000X0.237500X0.300000X-0.237500X0.300000X-0.237500X-0.300000X0*%
%ADD41RoundRect,0.250000X0.337500X0.475000X-0.337500X0.475000X-0.337500X-0.475000X0.337500X-0.475000X0*%
%ADD42RoundRect,0.249999X1.425001X-0.450001X1.425001X0.450001X-1.425001X0.450001X-1.425001X-0.450001X0*%
%ADD43RoundRect,0.150000X-0.150000X0.825000X-0.150000X-0.825000X0.150000X-0.825000X0.150000X0.825000X0*%
G04 APERTURE END LIST*
D10*
G36*
X164001005Y-85278098D02*
G01*
X164001005Y-93708098D01*
X55066005Y-93568098D01*
X55166005Y-85218098D01*
X164001005Y-85278098D01*
G37*
D11*
%TO.C,H9*%
X111750000Y-151500000D03*
%TD*%
D12*
%TO.C,BZ1*%
X93514277Y-62690000D03*
D13*
X93514277Y-55090000D03*
%TD*%
D11*
%TO.C,H6*%
X146000000Y-68750000D03*
%TD*%
D13*
%TO.C,SW2*%
X65834277Y-39870000D03*
X72334277Y-39870000D03*
X65834277Y-44370000D03*
X72334277Y-44370000D03*
%TD*%
D14*
%TO.C,D3*%
X101944277Y-49720000D03*
D15*
X99404277Y-49720000D03*
%TD*%
D13*
%TO.C,C3*%
X178435000Y-107740000D03*
X185935000Y-107740000D03*
%TD*%
%TO.C,C2*%
X178775000Y-91230000D03*
X186275000Y-91230000D03*
%TD*%
D16*
%TO.C,J12*%
X46000000Y-59500000D03*
D17*
X46000000Y-61500000D03*
%TD*%
D11*
%TO.C,H8*%
X154500000Y-151500000D03*
%TD*%
D16*
%TO.C,J9*%
X46000000Y-47050000D03*
D17*
X46000000Y-49050000D03*
X46000000Y-51050000D03*
%TD*%
D16*
%TO.C,J7*%
X46075000Y-54250000D03*
D17*
X46075000Y-56250000D03*
%TD*%
D11*
%TO.C,H3*%
X46800000Y-89300000D03*
%TD*%
D18*
%TO.C,R11*%
X82274277Y-56230000D03*
X82274277Y-48610000D03*
%TD*%
%TO.C,C6*%
X171345000Y-91930000D03*
X168845000Y-91930000D03*
%TD*%
D19*
%TO.C,JP1*%
X96964277Y-49740000D03*
D20*
X95694277Y-49740000D03*
X94424277Y-49740000D03*
%TD*%
D16*
%TO.C,J1*%
X75185000Y-77570000D03*
D17*
X77185000Y-77570000D03*
X79185000Y-77570000D03*
X81185000Y-77570000D03*
%TD*%
D16*
%TO.C,J2*%
X83780000Y-72730000D03*
D17*
X85780000Y-72730000D03*
X87780000Y-72730000D03*
X89780000Y-72730000D03*
X91780000Y-72730000D03*
%TD*%
D21*
%TO.C,MP2*%
X88445908Y-155024235D03*
X88445908Y-152484235D03*
X88445908Y-149944235D03*
X88445908Y-147404235D03*
X96065908Y-147404235D03*
X96065908Y-149944235D03*
X96065908Y-152484235D03*
X96065908Y-155024235D03*
%TD*%
D19*
%TO.C,J5*%
X68204277Y-50550000D03*
D20*
X69474277Y-50550000D03*
X70744277Y-50550000D03*
X72014277Y-50550000D03*
%TD*%
D16*
%TO.C,J13*%
X93815000Y-41280000D03*
D17*
X91815000Y-41280000D03*
%TD*%
D21*
%TO.C,MP3*%
X132688929Y-147276832D03*
X132688929Y-149816832D03*
X132688929Y-152356832D03*
X132688929Y-154896832D03*
X125068929Y-154896832D03*
X125068929Y-152356832D03*
X125068929Y-149816832D03*
X125068929Y-147276832D03*
%TD*%
%TO.C,MP1*%
X59167017Y-147453168D03*
X59167017Y-149993168D03*
X59167017Y-152533168D03*
X59167017Y-155073168D03*
X51547017Y-155073168D03*
X51547017Y-152533168D03*
X51547017Y-149993168D03*
X51547017Y-147453168D03*
%TD*%
D18*
%TO.C,C89*%
X46857017Y-112013168D03*
X51857017Y-112013168D03*
%TD*%
D22*
%TO.C,D1*%
X186660000Y-123610000D03*
D15*
X196820000Y-123610000D03*
%TD*%
D18*
%TO.C,R50*%
X46400000Y-75720000D03*
X46400000Y-68100000D03*
%TD*%
D23*
%TO.C,D2*%
X85754277Y-62750000D03*
D18*
X85754277Y-55130000D03*
%TD*%
%TO.C,C4*%
X171345000Y-107630000D03*
X168845000Y-107630000D03*
%TD*%
D16*
%TO.C,J8*%
X46000000Y-39000000D03*
D17*
X46000000Y-41000000D03*
X46000000Y-43000000D03*
%TD*%
D11*
%TO.C,H10*%
X73250000Y-151000000D03*
%TD*%
D16*
%TO.C,J4*%
X43100000Y-66200000D03*
D17*
X43100000Y-68200000D03*
%TD*%
D24*
%TO.C,Y1*%
X51834277Y-59270000D03*
X51834277Y-64170000D03*
%TD*%
D13*
%TO.C,SW1*%
X56234277Y-39870000D03*
X62734277Y-39870000D03*
X56234277Y-44370000D03*
X62734277Y-44370000D03*
%TD*%
D25*
%TO.C,J11*%
X82295000Y-38900000D03*
X76515000Y-38900000D03*
D26*
X83725000Y-39400000D03*
D27*
X83725000Y-35220000D03*
D26*
X75085000Y-39400000D03*
D27*
X75085000Y-35220000D03*
%TD*%
D13*
%TO.C,C1*%
X196765000Y-96260000D03*
X196765000Y-103760000D03*
%TD*%
D28*
%TO.C,H2*%
X187905000Y-78219442D03*
X188717779Y-76257221D03*
X188717779Y-80181663D03*
X190680000Y-75444442D03*
D29*
X190680000Y-78219442D03*
D28*
X190680000Y-80994442D03*
X192642221Y-76257221D03*
X192642221Y-80181663D03*
X193455000Y-78219442D03*
%TD*%
D11*
%TO.C,H4*%
X104300000Y-40900000D03*
%TD*%
D28*
%TO.C,H1*%
X189262779Y-134637779D03*
X190075558Y-132675558D03*
X190075558Y-136600000D03*
X192037779Y-131862779D03*
D29*
X192037779Y-134637779D03*
D28*
X192037779Y-137412779D03*
X194000000Y-132675558D03*
X194000000Y-136600000D03*
X194812779Y-134637779D03*
%TD*%
D18*
%TO.C,R1*%
X201830000Y-120460000D03*
X186590000Y-120460000D03*
%TD*%
%TO.C,C5*%
X171345000Y-99780000D03*
X168845000Y-99780000D03*
%TD*%
D16*
%TO.C,J3*%
X88635000Y-35440000D03*
D17*
X86635000Y-35440000D03*
%TD*%
D30*
%TO.C,R72*%
X159215000Y-129850000D03*
X159215000Y-135950000D03*
%TD*%
D31*
%TO.C,D5*%
X118798929Y-120546832D03*
X118798929Y-116546832D03*
%TD*%
D32*
%TO.C,R31*%
X96145908Y-139664235D03*
X96145908Y-137664235D03*
%TD*%
D33*
%TO.C,R73*%
X91105000Y-48070000D03*
X89280000Y-48070000D03*
%TD*%
D34*
%TO.C,C45*%
X87795000Y-46345000D03*
X87795000Y-43220000D03*
%TD*%
D35*
%TO.C,C34*%
X77845000Y-65800000D03*
X77845000Y-67525000D03*
%TD*%
D36*
%TO.C,R7*%
X59584277Y-44220000D03*
X59584277Y-41295000D03*
%TD*%
D37*
%TO.C,C36*%
X87957500Y-41510000D03*
X86232500Y-41510000D03*
%TD*%
D38*
%TO.C,C28*%
X57584277Y-46870000D03*
X59584277Y-46870000D03*
%TD*%
D32*
%TO.C,R37*%
X143768929Y-139116832D03*
X143768929Y-137116832D03*
%TD*%
D39*
%TO.C,C9*%
X166000000Y-74000000D03*
X169125000Y-74000000D03*
%TD*%
D35*
%TO.C,C23*%
X63914277Y-66402500D03*
X63914277Y-68127500D03*
%TD*%
%TO.C,C33*%
X79365000Y-64290000D03*
X79365000Y-66015000D03*
%TD*%
D18*
%TO.C,R20*%
X89964277Y-50590000D03*
X89964277Y-58210001D03*
%TD*%
D40*
%TO.C,C53*%
X67204277Y-57765000D03*
X67204277Y-56040000D03*
%TD*%
D32*
%TO.C,R57*%
X70157017Y-140560000D03*
X70157017Y-138560000D03*
%TD*%
%TO.C,R56*%
X59257017Y-140613168D03*
X59257017Y-138613168D03*
%TD*%
D18*
%TO.C,C90*%
X120218929Y-111846832D03*
X125218929Y-111846832D03*
%TD*%
D41*
%TO.C,C27*%
X68600000Y-66370000D03*
X66525000Y-66370000D03*
%TD*%
D35*
%TO.C,C35*%
X76365000Y-67360000D03*
X76365000Y-69085000D03*
%TD*%
D42*
%TO.C,R66*%
X82085000Y-136650000D03*
X82085000Y-130550000D03*
%TD*%
D30*
%TO.C,R38*%
X118655000Y-130600000D03*
X118655000Y-136700000D03*
%TD*%
D32*
%TO.C,R13*%
X59857017Y-116313168D03*
X59857017Y-114313168D03*
%TD*%
D43*
%TO.C,U9*%
X47917017Y-116463168D03*
X49187017Y-116463168D03*
X50457017Y-116463168D03*
X51727017Y-116463168D03*
X51727017Y-121413168D03*
X50457017Y-121413168D03*
X49187017Y-121413168D03*
X47917017Y-121413168D03*
%TD*%
D31*
%TO.C,D7*%
X45357017Y-121013168D03*
X45357017Y-117013168D03*
%TD*%
%TO.C,D4*%
X82345908Y-120864235D03*
X82345908Y-116864235D03*
%TD*%
D30*
%TO.C,R61*%
X155155000Y-129850000D03*
X155155000Y-135950000D03*
%TD*%
D43*
%TO.C,U10*%
X121401429Y-115981832D03*
X122671429Y-115981832D03*
X123941429Y-115981832D03*
X125211429Y-115981832D03*
X125211429Y-120931832D03*
X123941429Y-120931832D03*
X122671429Y-120931832D03*
X121401429Y-120931832D03*
%TD*%
D30*
%TO.C,R71*%
X86065000Y-130550000D03*
X86065000Y-136650000D03*
%TD*%
D18*
%TO.C,C88*%
X83845908Y-112664235D03*
X88845908Y-112664235D03*
%TD*%
D40*
%TO.C,C25*%
X63325000Y-64225000D03*
X63325000Y-62500000D03*
%TD*%
%TO.C,C26*%
X64875000Y-64200000D03*
X64875000Y-62475000D03*
%TD*%
D38*
%TO.C,FB1*%
X66525000Y-64360000D03*
X68525000Y-64360000D03*
%TD*%
D35*
%TO.C,C21*%
X60864277Y-66412500D03*
X60864277Y-68137500D03*
%TD*%
D32*
%TO.C,R55*%
X70657017Y-116213168D03*
X70657017Y-114213168D03*
%TD*%
D35*
%TO.C,C22*%
X62384277Y-66412500D03*
X62384277Y-68137500D03*
%TD*%
D32*
%TO.C,R36*%
X143928929Y-115586832D03*
X143928929Y-113586832D03*
%TD*%
D30*
%TO.C,R70*%
X122665000Y-130600000D03*
X122665000Y-136700000D03*
%TD*%
D32*
%TO.C,R33*%
X106945908Y-139564235D03*
X106945908Y-137564235D03*
%TD*%
%TO.C,R30*%
X96745908Y-116264235D03*
X96745908Y-114264235D03*
%TD*%
D43*
%TO.C,U6*%
X84935908Y-116414235D03*
X86205908Y-116414235D03*
X87475908Y-116414235D03*
X88745908Y-116414235D03*
X88745908Y-121364235D03*
X87475908Y-121364235D03*
X86205908Y-121364235D03*
X84935908Y-121364235D03*
%TD*%
D32*
%TO.C,R32*%
X107545908Y-116364235D03*
X107545908Y-114364235D03*
%TD*%
%TO.C,R34*%
X133128929Y-115586832D03*
X133128929Y-113586832D03*
%TD*%
%TO.C,R35*%
X132828929Y-138986832D03*
X132828929Y-136986832D03*
%TD*%
D40*
%TO.C,C52*%
X68724277Y-57755000D03*
X68724277Y-56030000D03*
%TD*%
%TO.C,C51*%
X70214277Y-57745000D03*
X70214277Y-56020000D03*
%TD*%
M02*
