%TF.GenerationSoftware,KiCad,Pcbnew,9.0.7*%
%TF.CreationDate,2026-02-26T16:01:45+03:00*%
%TF.ProjectId,Motor_Driver_Shell_Eco,4d6f746f-725f-4447-9269-7665725f5368,rev?*%
%TF.SameCoordinates,Original*%
%TF.FileFunction,Legend,Bot*%
%TF.FilePolarity,Positive*%
%FSLAX46Y46*%
G04 Gerber Fmt 4.6, Leading zero omitted, Abs format (unit mm)*
G04 Created by KiCad (PCBNEW 9.0.7) date 2026-02-26 16:01:45*
%MOMM*%
%LPD*%
G01*
G04 APERTURE LIST*
%ADD10C,0.250000*%
%ADD11C,0.150000*%
%ADD12C,0.120000*%
%ADD13C,0.000000*%
G04 APERTURE END LIST*
D10*
X106954574Y-61947000D02*
X106668860Y-62042238D01*
X106668860Y-62042238D02*
X106192669Y-62042238D01*
X106192669Y-62042238D02*
X106002193Y-61947000D01*
X106002193Y-61947000D02*
X105906955Y-61851761D01*
X105906955Y-61851761D02*
X105811717Y-61661285D01*
X105811717Y-61661285D02*
X105811717Y-61470809D01*
X105811717Y-61470809D02*
X105906955Y-61280333D01*
X105906955Y-61280333D02*
X106002193Y-61185095D01*
X106002193Y-61185095D02*
X106192669Y-61089857D01*
X106192669Y-61089857D02*
X106573622Y-60994619D01*
X106573622Y-60994619D02*
X106764098Y-60899380D01*
X106764098Y-60899380D02*
X106859336Y-60804142D01*
X106859336Y-60804142D02*
X106954574Y-60613666D01*
X106954574Y-60613666D02*
X106954574Y-60423190D01*
X106954574Y-60423190D02*
X106859336Y-60232714D01*
X106859336Y-60232714D02*
X106764098Y-60137476D01*
X106764098Y-60137476D02*
X106573622Y-60042238D01*
X106573622Y-60042238D02*
X106097431Y-60042238D01*
X106097431Y-60042238D02*
X105811717Y-60137476D01*
X104954574Y-60994619D02*
X104287907Y-60994619D01*
X104002193Y-62042238D02*
X104954574Y-62042238D01*
X104954574Y-62042238D02*
X104954574Y-60042238D01*
X104954574Y-60042238D02*
X104002193Y-60042238D01*
X103145050Y-62042238D02*
X103145050Y-60042238D01*
X103145050Y-60042238D02*
X102478383Y-61470809D01*
X102478383Y-61470809D02*
X101811717Y-60042238D01*
X101811717Y-60042238D02*
X101811717Y-62042238D01*
X199797431Y-149934787D02*
X199797431Y-148934787D01*
X199797431Y-148934787D02*
X199416479Y-148934787D01*
X199416479Y-148934787D02*
X199321241Y-148982406D01*
X199321241Y-148982406D02*
X199273622Y-149030025D01*
X199273622Y-149030025D02*
X199226003Y-149125263D01*
X199226003Y-149125263D02*
X199226003Y-149268120D01*
X199226003Y-149268120D02*
X199273622Y-149363358D01*
X199273622Y-149363358D02*
X199321241Y-149410977D01*
X199321241Y-149410977D02*
X199416479Y-149458596D01*
X199416479Y-149458596D02*
X199797431Y-149458596D01*
X198797431Y-149410977D02*
X198464098Y-149410977D01*
X198321241Y-149934787D02*
X198797431Y-149934787D01*
X198797431Y-149934787D02*
X198797431Y-148934787D01*
X198797431Y-148934787D02*
X198321241Y-148934787D01*
X197892669Y-149934787D02*
X197892669Y-148934787D01*
X197892669Y-149410977D02*
X197321241Y-149410977D01*
X197321241Y-149934787D02*
X197321241Y-148934787D01*
X196368860Y-149934787D02*
X196845050Y-149934787D01*
X196845050Y-149934787D02*
X196845050Y-148934787D01*
X196035526Y-149934787D02*
X196035526Y-148934787D01*
X195559336Y-149553834D02*
X194797432Y-149553834D01*
X194321241Y-149934787D02*
X194321241Y-148934787D01*
X194321241Y-148934787D02*
X193987908Y-149649072D01*
X193987908Y-149649072D02*
X193654575Y-148934787D01*
X193654575Y-148934787D02*
X193654575Y-149934787D01*
X193178384Y-149934787D02*
X193178384Y-148934787D01*
X193178384Y-148934787D02*
X192940289Y-148934787D01*
X192940289Y-148934787D02*
X192797432Y-148982406D01*
X192797432Y-148982406D02*
X192702194Y-149077644D01*
X192702194Y-149077644D02*
X192654575Y-149172882D01*
X192654575Y-149172882D02*
X192606956Y-149363358D01*
X192606956Y-149363358D02*
X192606956Y-149506215D01*
X192606956Y-149506215D02*
X192654575Y-149696691D01*
X192654575Y-149696691D02*
X192702194Y-149791929D01*
X192702194Y-149791929D02*
X192797432Y-149887168D01*
X192797432Y-149887168D02*
X192940289Y-149934787D01*
X192940289Y-149934787D02*
X193178384Y-149934787D01*
X199797431Y-151544731D02*
X199797431Y-150544731D01*
X199797431Y-150925683D02*
X199702193Y-150878064D01*
X199702193Y-150878064D02*
X199511717Y-150878064D01*
X199511717Y-150878064D02*
X199416479Y-150925683D01*
X199416479Y-150925683D02*
X199368860Y-150973302D01*
X199368860Y-150973302D02*
X199321241Y-151068540D01*
X199321241Y-151068540D02*
X199321241Y-151354254D01*
X199321241Y-151354254D02*
X199368860Y-151449492D01*
X199368860Y-151449492D02*
X199416479Y-151497112D01*
X199416479Y-151497112D02*
X199511717Y-151544731D01*
X199511717Y-151544731D02*
X199702193Y-151544731D01*
X199702193Y-151544731D02*
X199797431Y-151497112D01*
X198987907Y-150878064D02*
X198749812Y-151544731D01*
X198511717Y-150878064D02*
X198749812Y-151544731D01*
X198749812Y-151544731D02*
X198845050Y-151782826D01*
X198845050Y-151782826D02*
X198892669Y-151830445D01*
X198892669Y-151830445D02*
X198987907Y-151878064D01*
X197178383Y-151068540D02*
X197178383Y-151544731D01*
X197511716Y-150544731D02*
X197178383Y-151068540D01*
X197178383Y-151068540D02*
X196845050Y-150544731D01*
X196130764Y-151497112D02*
X196226002Y-151544731D01*
X196226002Y-151544731D02*
X196416478Y-151544731D01*
X196416478Y-151544731D02*
X196511716Y-151497112D01*
X196511716Y-151497112D02*
X196559335Y-151401873D01*
X196559335Y-151401873D02*
X196559335Y-151020921D01*
X196559335Y-151020921D02*
X196511716Y-150925683D01*
X196511716Y-150925683D02*
X196416478Y-150878064D01*
X196416478Y-150878064D02*
X196226002Y-150878064D01*
X196226002Y-150878064D02*
X196130764Y-150925683D01*
X196130764Y-150925683D02*
X196083145Y-151020921D01*
X196083145Y-151020921D02*
X196083145Y-151116159D01*
X196083145Y-151116159D02*
X196559335Y-151211397D01*
X195654573Y-150878064D02*
X195654573Y-151544731D01*
X195654573Y-150973302D02*
X195606954Y-150925683D01*
X195606954Y-150925683D02*
X195511716Y-150878064D01*
X195511716Y-150878064D02*
X195368859Y-150878064D01*
X195368859Y-150878064D02*
X195273621Y-150925683D01*
X195273621Y-150925683D02*
X195226002Y-151020921D01*
X195226002Y-151020921D02*
X195226002Y-151544731D01*
X194368859Y-151497112D02*
X194464097Y-151544731D01*
X194464097Y-151544731D02*
X194654573Y-151544731D01*
X194654573Y-151544731D02*
X194749811Y-151497112D01*
X194749811Y-151497112D02*
X194797430Y-151401873D01*
X194797430Y-151401873D02*
X194797430Y-151020921D01*
X194797430Y-151020921D02*
X194749811Y-150925683D01*
X194749811Y-150925683D02*
X194654573Y-150878064D01*
X194654573Y-150878064D02*
X194464097Y-150878064D01*
X194464097Y-150878064D02*
X194368859Y-150925683D01*
X194368859Y-150925683D02*
X194321240Y-151020921D01*
X194321240Y-151020921D02*
X194321240Y-151116159D01*
X194321240Y-151116159D02*
X194797430Y-151211397D01*
X193892668Y-151544731D02*
X193892668Y-150878064D01*
X193892668Y-151068540D02*
X193845049Y-150973302D01*
X193845049Y-150973302D02*
X193797430Y-150925683D01*
X193797430Y-150925683D02*
X193702192Y-150878064D01*
X193702192Y-150878064D02*
X193606954Y-150878064D01*
X192559334Y-151497112D02*
X192416477Y-151544731D01*
X192416477Y-151544731D02*
X192178382Y-151544731D01*
X192178382Y-151544731D02*
X192083144Y-151497112D01*
X192083144Y-151497112D02*
X192035525Y-151449492D01*
X192035525Y-151449492D02*
X191987906Y-151354254D01*
X191987906Y-151354254D02*
X191987906Y-151259016D01*
X191987906Y-151259016D02*
X192035525Y-151163778D01*
X192035525Y-151163778D02*
X192083144Y-151116159D01*
X192083144Y-151116159D02*
X192178382Y-151068540D01*
X192178382Y-151068540D02*
X192368858Y-151020921D01*
X192368858Y-151020921D02*
X192464096Y-150973302D01*
X192464096Y-150973302D02*
X192511715Y-150925683D01*
X192511715Y-150925683D02*
X192559334Y-150830445D01*
X192559334Y-150830445D02*
X192559334Y-150735207D01*
X192559334Y-150735207D02*
X192511715Y-150639969D01*
X192511715Y-150639969D02*
X192464096Y-150592350D01*
X192464096Y-150592350D02*
X192368858Y-150544731D01*
X192368858Y-150544731D02*
X192130763Y-150544731D01*
X192130763Y-150544731D02*
X191987906Y-150592350D01*
X191559334Y-151449492D02*
X191511715Y-151497112D01*
X191511715Y-151497112D02*
X191559334Y-151544731D01*
X191559334Y-151544731D02*
X191606953Y-151497112D01*
X191606953Y-151497112D02*
X191559334Y-151449492D01*
X191559334Y-151449492D02*
X191559334Y-151544731D01*
X190368858Y-150544731D02*
X190368858Y-150735207D01*
X189987906Y-150544731D02*
X189987906Y-150735207D01*
X189606953Y-151259016D02*
X189130763Y-151259016D01*
X189702191Y-151544731D02*
X189368858Y-150544731D01*
X189368858Y-150544731D02*
X189035525Y-151544731D01*
X188702191Y-150878064D02*
X188702191Y-151544731D01*
X188702191Y-150973302D02*
X188654572Y-150925683D01*
X188654572Y-150925683D02*
X188559334Y-150878064D01*
X188559334Y-150878064D02*
X188416477Y-150878064D01*
X188416477Y-150878064D02*
X188321239Y-150925683D01*
X188321239Y-150925683D02*
X188273620Y-151020921D01*
X188273620Y-151020921D02*
X188273620Y-151544731D01*
X187845048Y-151497112D02*
X187749810Y-151544731D01*
X187749810Y-151544731D02*
X187559334Y-151544731D01*
X187559334Y-151544731D02*
X187464096Y-151497112D01*
X187464096Y-151497112D02*
X187416477Y-151401873D01*
X187416477Y-151401873D02*
X187416477Y-151354254D01*
X187416477Y-151354254D02*
X187464096Y-151259016D01*
X187464096Y-151259016D02*
X187559334Y-151211397D01*
X187559334Y-151211397D02*
X187702191Y-151211397D01*
X187702191Y-151211397D02*
X187797429Y-151163778D01*
X187797429Y-151163778D02*
X187845048Y-151068540D01*
X187845048Y-151068540D02*
X187845048Y-151020921D01*
X187845048Y-151020921D02*
X187797429Y-150925683D01*
X187797429Y-150925683D02*
X187702191Y-150878064D01*
X187702191Y-150878064D02*
X187559334Y-150878064D01*
X187559334Y-150878064D02*
X187464096Y-150925683D01*
X186987905Y-151544731D02*
X186987905Y-150544731D01*
X186559334Y-151544731D02*
X186559334Y-151020921D01*
X186559334Y-151020921D02*
X186606953Y-150925683D01*
X186606953Y-150925683D02*
X186702191Y-150878064D01*
X186702191Y-150878064D02*
X186845048Y-150878064D01*
X186845048Y-150878064D02*
X186940286Y-150925683D01*
X186940286Y-150925683D02*
X186987905Y-150973302D01*
X186083143Y-151544731D02*
X186083143Y-150878064D01*
X186083143Y-150544731D02*
X186130762Y-150592350D01*
X186130762Y-150592350D02*
X186083143Y-150639969D01*
X186083143Y-150639969D02*
X186035524Y-150592350D01*
X186035524Y-150592350D02*
X186083143Y-150544731D01*
X186083143Y-150544731D02*
X186083143Y-150639969D01*
X185606953Y-150878064D02*
X185606953Y-151544731D01*
X185606953Y-150973302D02*
X185559334Y-150925683D01*
X185559334Y-150925683D02*
X185464096Y-150878064D01*
X185464096Y-150878064D02*
X185321239Y-150878064D01*
X185321239Y-150878064D02*
X185226001Y-150925683D01*
X185226001Y-150925683D02*
X185178382Y-151020921D01*
X185178382Y-151020921D02*
X185178382Y-151544731D01*
X184797429Y-151544731D02*
X184273620Y-150878064D01*
X184797429Y-150878064D02*
X184273620Y-151544731D01*
X183940286Y-150544731D02*
X183940286Y-150735207D01*
X183559334Y-150544731D02*
X183559334Y-150735207D01*
X181845048Y-150592350D02*
X181940286Y-150544731D01*
X181940286Y-150544731D02*
X182083143Y-150544731D01*
X182083143Y-150544731D02*
X182226000Y-150592350D01*
X182226000Y-150592350D02*
X182321238Y-150687588D01*
X182321238Y-150687588D02*
X182368857Y-150782826D01*
X182368857Y-150782826D02*
X182416476Y-150973302D01*
X182416476Y-150973302D02*
X182416476Y-151116159D01*
X182416476Y-151116159D02*
X182368857Y-151306635D01*
X182368857Y-151306635D02*
X182321238Y-151401873D01*
X182321238Y-151401873D02*
X182226000Y-151497112D01*
X182226000Y-151497112D02*
X182083143Y-151544731D01*
X182083143Y-151544731D02*
X181987905Y-151544731D01*
X181987905Y-151544731D02*
X181845048Y-151497112D01*
X181845048Y-151497112D02*
X181797429Y-151449492D01*
X181797429Y-151449492D02*
X181797429Y-151116159D01*
X181797429Y-151116159D02*
X181987905Y-151116159D01*
X180940286Y-150878064D02*
X180940286Y-151544731D01*
X181368857Y-150878064D02*
X181368857Y-151401873D01*
X181368857Y-151401873D02*
X181321238Y-151497112D01*
X181321238Y-151497112D02*
X181226000Y-151544731D01*
X181226000Y-151544731D02*
X181083143Y-151544731D01*
X181083143Y-151544731D02*
X180987905Y-151497112D01*
X180987905Y-151497112D02*
X180940286Y-151449492D01*
X181321238Y-150544731D02*
X181273619Y-150592350D01*
X181273619Y-150592350D02*
X181321238Y-150639969D01*
X181321238Y-150639969D02*
X181368857Y-150592350D01*
X181368857Y-150592350D02*
X181321238Y-150544731D01*
X181321238Y-150544731D02*
X181321238Y-150639969D01*
X180940286Y-150544731D02*
X180892667Y-150592350D01*
X180892667Y-150592350D02*
X180940286Y-150639969D01*
X180940286Y-150639969D02*
X180987905Y-150592350D01*
X180987905Y-150592350D02*
X180940286Y-150544731D01*
X180940286Y-150544731D02*
X180940286Y-150639969D01*
X180464095Y-150878064D02*
X180464095Y-151544731D01*
X180464095Y-150973302D02*
X180416476Y-150925683D01*
X180416476Y-150925683D02*
X180321238Y-150878064D01*
X180321238Y-150878064D02*
X180178381Y-150878064D01*
X180178381Y-150878064D02*
X180083143Y-150925683D01*
X180083143Y-150925683D02*
X180035524Y-151020921D01*
X180035524Y-151020921D02*
X180035524Y-151544731D01*
X179178381Y-151497112D02*
X179273619Y-151544731D01*
X179273619Y-151544731D02*
X179464095Y-151544731D01*
X179464095Y-151544731D02*
X179559333Y-151497112D01*
X179559333Y-151497112D02*
X179606952Y-151401873D01*
X179606952Y-151401873D02*
X179606952Y-151020921D01*
X179606952Y-151020921D02*
X179559333Y-150925683D01*
X179559333Y-150925683D02*
X179464095Y-150878064D01*
X179464095Y-150878064D02*
X179273619Y-150878064D01*
X179273619Y-150878064D02*
X179178381Y-150925683D01*
X179178381Y-150925683D02*
X179130762Y-151020921D01*
X179130762Y-151020921D02*
X179130762Y-151116159D01*
X179130762Y-151116159D02*
X179606952Y-151211397D01*
X178749809Y-151497112D02*
X178654571Y-151544731D01*
X178654571Y-151544731D02*
X178464095Y-151544731D01*
X178464095Y-151544731D02*
X178368857Y-151497112D01*
X178368857Y-151497112D02*
X178321238Y-151401873D01*
X178321238Y-151401873D02*
X178321238Y-151354254D01*
X178321238Y-151354254D02*
X178368857Y-151259016D01*
X178368857Y-151259016D02*
X178464095Y-151211397D01*
X178464095Y-151211397D02*
X178606952Y-151211397D01*
X178606952Y-151211397D02*
X178702190Y-151163778D01*
X178702190Y-151163778D02*
X178749809Y-151068540D01*
X178749809Y-151068540D02*
X178749809Y-151020921D01*
X178749809Y-151020921D02*
X178702190Y-150925683D01*
X178702190Y-150925683D02*
X178606952Y-150878064D01*
X178606952Y-150878064D02*
X178464095Y-150878064D01*
X178464095Y-150878064D02*
X178368857Y-150925683D01*
X178559333Y-151592350D02*
X178464095Y-151639969D01*
X178464095Y-151639969D02*
X178416476Y-151735207D01*
X178416476Y-151735207D02*
X178464095Y-151830445D01*
X178464095Y-151830445D02*
X178559333Y-151878064D01*
X178559333Y-151878064D02*
X178702190Y-151878064D01*
X199464098Y-152630865D02*
X199797431Y-152630865D01*
X199797431Y-153154675D02*
X199797431Y-152154675D01*
X199797431Y-152154675D02*
X199321241Y-152154675D01*
X198797431Y-153154675D02*
X198892669Y-153107056D01*
X198892669Y-153107056D02*
X198940288Y-153059436D01*
X198940288Y-153059436D02*
X198987907Y-152964198D01*
X198987907Y-152964198D02*
X198987907Y-152678484D01*
X198987907Y-152678484D02*
X198940288Y-152583246D01*
X198940288Y-152583246D02*
X198892669Y-152535627D01*
X198892669Y-152535627D02*
X198797431Y-152488008D01*
X198797431Y-152488008D02*
X198654574Y-152488008D01*
X198654574Y-152488008D02*
X198559336Y-152535627D01*
X198559336Y-152535627D02*
X198511717Y-152583246D01*
X198511717Y-152583246D02*
X198464098Y-152678484D01*
X198464098Y-152678484D02*
X198464098Y-152964198D01*
X198464098Y-152964198D02*
X198511717Y-153059436D01*
X198511717Y-153059436D02*
X198559336Y-153107056D01*
X198559336Y-153107056D02*
X198654574Y-153154675D01*
X198654574Y-153154675D02*
X198797431Y-153154675D01*
X198035526Y-153154675D02*
X198035526Y-152488008D01*
X198035526Y-152678484D02*
X197987907Y-152583246D01*
X197987907Y-152583246D02*
X197940288Y-152535627D01*
X197940288Y-152535627D02*
X197845050Y-152488008D01*
X197845050Y-152488008D02*
X197749812Y-152488008D01*
X196654573Y-153154675D02*
X196654573Y-152154675D01*
X196654573Y-152154675D02*
X196273621Y-152154675D01*
X196273621Y-152154675D02*
X196178383Y-152202294D01*
X196178383Y-152202294D02*
X196130764Y-152249913D01*
X196130764Y-152249913D02*
X196083145Y-152345151D01*
X196083145Y-152345151D02*
X196083145Y-152488008D01*
X196083145Y-152488008D02*
X196130764Y-152583246D01*
X196130764Y-152583246D02*
X196178383Y-152630865D01*
X196178383Y-152630865D02*
X196273621Y-152678484D01*
X196273621Y-152678484D02*
X196654573Y-152678484D01*
X195273621Y-153107056D02*
X195368859Y-153154675D01*
X195368859Y-153154675D02*
X195559335Y-153154675D01*
X195559335Y-153154675D02*
X195654573Y-153107056D01*
X195654573Y-153107056D02*
X195702192Y-153011817D01*
X195702192Y-153011817D02*
X195702192Y-152630865D01*
X195702192Y-152630865D02*
X195654573Y-152535627D01*
X195654573Y-152535627D02*
X195559335Y-152488008D01*
X195559335Y-152488008D02*
X195368859Y-152488008D01*
X195368859Y-152488008D02*
X195273621Y-152535627D01*
X195273621Y-152535627D02*
X195226002Y-152630865D01*
X195226002Y-152630865D02*
X195226002Y-152726103D01*
X195226002Y-152726103D02*
X195702192Y-152821341D01*
X194797430Y-153154675D02*
X194797430Y-152154675D01*
X194368859Y-153154675D02*
X194368859Y-152630865D01*
X194368859Y-152630865D02*
X194416478Y-152535627D01*
X194416478Y-152535627D02*
X194511716Y-152488008D01*
X194511716Y-152488008D02*
X194654573Y-152488008D01*
X194654573Y-152488008D02*
X194749811Y-152535627D01*
X194749811Y-152535627D02*
X194797430Y-152583246D01*
X193749811Y-153154675D02*
X193845049Y-153107056D01*
X193845049Y-153107056D02*
X193892668Y-153011817D01*
X193892668Y-153011817D02*
X193892668Y-152154675D01*
X193368858Y-153154675D02*
X193368858Y-152488008D01*
X193368858Y-152154675D02*
X193416477Y-152202294D01*
X193416477Y-152202294D02*
X193368858Y-152249913D01*
X193368858Y-152249913D02*
X193321239Y-152202294D01*
X193321239Y-152202294D02*
X193368858Y-152154675D01*
X193368858Y-152154675D02*
X193368858Y-152249913D01*
X192987906Y-152488008D02*
X192749811Y-153154675D01*
X192749811Y-153154675D02*
X192511716Y-152488008D01*
X191702192Y-153154675D02*
X191702192Y-152630865D01*
X191702192Y-152630865D02*
X191749811Y-152535627D01*
X191749811Y-152535627D02*
X191845049Y-152488008D01*
X191845049Y-152488008D02*
X192035525Y-152488008D01*
X192035525Y-152488008D02*
X192130763Y-152535627D01*
X191702192Y-153107056D02*
X191797430Y-153154675D01*
X191797430Y-153154675D02*
X192035525Y-153154675D01*
X192035525Y-153154675D02*
X192130763Y-153107056D01*
X192130763Y-153107056D02*
X192178382Y-153011817D01*
X192178382Y-153011817D02*
X192178382Y-152916579D01*
X192178382Y-152916579D02*
X192130763Y-152821341D01*
X192130763Y-152821341D02*
X192035525Y-152773722D01*
X192035525Y-152773722D02*
X191797430Y-152773722D01*
X191797430Y-152773722D02*
X191702192Y-152726103D01*
X191226001Y-152488008D02*
X191226001Y-153154675D01*
X191226001Y-152583246D02*
X191178382Y-152535627D01*
X191178382Y-152535627D02*
X191083144Y-152488008D01*
X191083144Y-152488008D02*
X190940287Y-152488008D01*
X190940287Y-152488008D02*
X190845049Y-152535627D01*
X190845049Y-152535627D02*
X190797430Y-152630865D01*
X190797430Y-152630865D02*
X190797430Y-153154675D01*
X189702191Y-152154675D02*
X189130763Y-152154675D01*
X189416477Y-153154675D02*
X189416477Y-152154675D01*
X188416477Y-153107056D02*
X188511715Y-153154675D01*
X188511715Y-153154675D02*
X188702191Y-153154675D01*
X188702191Y-153154675D02*
X188797429Y-153107056D01*
X188797429Y-153107056D02*
X188845048Y-153011817D01*
X188845048Y-153011817D02*
X188845048Y-152630865D01*
X188845048Y-152630865D02*
X188797429Y-152535627D01*
X188797429Y-152535627D02*
X188702191Y-152488008D01*
X188702191Y-152488008D02*
X188511715Y-152488008D01*
X188511715Y-152488008D02*
X188416477Y-152535627D01*
X188416477Y-152535627D02*
X188368858Y-152630865D01*
X188368858Y-152630865D02*
X188368858Y-152726103D01*
X188368858Y-152726103D02*
X188845048Y-152821341D01*
X187511715Y-153154675D02*
X187511715Y-152630865D01*
X187511715Y-152630865D02*
X187559334Y-152535627D01*
X187559334Y-152535627D02*
X187654572Y-152488008D01*
X187654572Y-152488008D02*
X187845048Y-152488008D01*
X187845048Y-152488008D02*
X187940286Y-152535627D01*
X187511715Y-153107056D02*
X187606953Y-153154675D01*
X187606953Y-153154675D02*
X187845048Y-153154675D01*
X187845048Y-153154675D02*
X187940286Y-153107056D01*
X187940286Y-153107056D02*
X187987905Y-153011817D01*
X187987905Y-153011817D02*
X187987905Y-152916579D01*
X187987905Y-152916579D02*
X187940286Y-152821341D01*
X187940286Y-152821341D02*
X187845048Y-152773722D01*
X187845048Y-152773722D02*
X187606953Y-152773722D01*
X187606953Y-152773722D02*
X187511715Y-152726103D01*
X187035524Y-153154675D02*
X187035524Y-152488008D01*
X187035524Y-152583246D02*
X186987905Y-152535627D01*
X186987905Y-152535627D02*
X186892667Y-152488008D01*
X186892667Y-152488008D02*
X186749810Y-152488008D01*
X186749810Y-152488008D02*
X186654572Y-152535627D01*
X186654572Y-152535627D02*
X186606953Y-152630865D01*
X186606953Y-152630865D02*
X186606953Y-153154675D01*
X186606953Y-152630865D02*
X186559334Y-152535627D01*
X186559334Y-152535627D02*
X186464096Y-152488008D01*
X186464096Y-152488008D02*
X186321239Y-152488008D01*
X186321239Y-152488008D02*
X186226000Y-152535627D01*
X186226000Y-152535627D02*
X186178381Y-152630865D01*
X186178381Y-152630865D02*
X186178381Y-153154675D01*
X185654572Y-152154675D02*
X185749810Y-152345151D01*
X185273620Y-153107056D02*
X185178382Y-153154675D01*
X185178382Y-153154675D02*
X184987906Y-153154675D01*
X184987906Y-153154675D02*
X184892668Y-153107056D01*
X184892668Y-153107056D02*
X184845049Y-153011817D01*
X184845049Y-153011817D02*
X184845049Y-152964198D01*
X184845049Y-152964198D02*
X184892668Y-152868960D01*
X184892668Y-152868960D02*
X184987906Y-152821341D01*
X184987906Y-152821341D02*
X185130763Y-152821341D01*
X185130763Y-152821341D02*
X185226001Y-152773722D01*
X185226001Y-152773722D02*
X185273620Y-152678484D01*
X185273620Y-152678484D02*
X185273620Y-152630865D01*
X185273620Y-152630865D02*
X185226001Y-152535627D01*
X185226001Y-152535627D02*
X185130763Y-152488008D01*
X185130763Y-152488008D02*
X184987906Y-152488008D01*
X184987906Y-152488008D02*
X184892668Y-152535627D01*
X183226001Y-152488008D02*
X183226001Y-153154675D01*
X183654572Y-152488008D02*
X183654572Y-153011817D01*
X183654572Y-153011817D02*
X183606953Y-153107056D01*
X183606953Y-153107056D02*
X183511715Y-153154675D01*
X183511715Y-153154675D02*
X183368858Y-153154675D01*
X183368858Y-153154675D02*
X183273620Y-153107056D01*
X183273620Y-153107056D02*
X183226001Y-153059436D01*
X182797429Y-153107056D02*
X182702191Y-153154675D01*
X182702191Y-153154675D02*
X182511715Y-153154675D01*
X182511715Y-153154675D02*
X182416477Y-153107056D01*
X182416477Y-153107056D02*
X182368858Y-153011817D01*
X182368858Y-153011817D02*
X182368858Y-152964198D01*
X182368858Y-152964198D02*
X182416477Y-152868960D01*
X182416477Y-152868960D02*
X182511715Y-152821341D01*
X182511715Y-152821341D02*
X182654572Y-152821341D01*
X182654572Y-152821341D02*
X182749810Y-152773722D01*
X182749810Y-152773722D02*
X182797429Y-152678484D01*
X182797429Y-152678484D02*
X182797429Y-152630865D01*
X182797429Y-152630865D02*
X182749810Y-152535627D01*
X182749810Y-152535627D02*
X182654572Y-152488008D01*
X182654572Y-152488008D02*
X182511715Y-152488008D01*
X182511715Y-152488008D02*
X182416477Y-152535627D01*
X181559334Y-153107056D02*
X181654572Y-153154675D01*
X181654572Y-153154675D02*
X181845048Y-153154675D01*
X181845048Y-153154675D02*
X181940286Y-153107056D01*
X181940286Y-153107056D02*
X181987905Y-153011817D01*
X181987905Y-153011817D02*
X181987905Y-152630865D01*
X181987905Y-152630865D02*
X181940286Y-152535627D01*
X181940286Y-152535627D02*
X181845048Y-152488008D01*
X181845048Y-152488008D02*
X181654572Y-152488008D01*
X181654572Y-152488008D02*
X181559334Y-152535627D01*
X181559334Y-152535627D02*
X181511715Y-152630865D01*
X181511715Y-152630865D02*
X181511715Y-152726103D01*
X181511715Y-152726103D02*
X181987905Y-152821341D01*
X179702191Y-152678484D02*
X179749810Y-152630865D01*
X179749810Y-152630865D02*
X179845048Y-152583246D01*
X179845048Y-152583246D02*
X179940286Y-152583246D01*
X179940286Y-152583246D02*
X180035524Y-152630865D01*
X180035524Y-152630865D02*
X180083143Y-152678484D01*
X180083143Y-152678484D02*
X180130762Y-152773722D01*
X180130762Y-152773722D02*
X180130762Y-152868960D01*
X180130762Y-152868960D02*
X180083143Y-152964198D01*
X180083143Y-152964198D02*
X180035524Y-153011817D01*
X180035524Y-153011817D02*
X179940286Y-153059436D01*
X179940286Y-153059436D02*
X179845048Y-153059436D01*
X179845048Y-153059436D02*
X179749810Y-153011817D01*
X179749810Y-153011817D02*
X179702191Y-152964198D01*
X179702191Y-152583246D02*
X179702191Y-152964198D01*
X179702191Y-152964198D02*
X179654572Y-153011817D01*
X179654572Y-153011817D02*
X179606953Y-153011817D01*
X179606953Y-153011817D02*
X179511714Y-152964198D01*
X179511714Y-152964198D02*
X179464095Y-152868960D01*
X179464095Y-152868960D02*
X179464095Y-152630865D01*
X179464095Y-152630865D02*
X179559334Y-152488008D01*
X179559334Y-152488008D02*
X179702191Y-152392770D01*
X179702191Y-152392770D02*
X179892667Y-152345151D01*
X179892667Y-152345151D02*
X180083143Y-152392770D01*
X180083143Y-152392770D02*
X180226000Y-152488008D01*
X180226000Y-152488008D02*
X180321238Y-152630865D01*
X180321238Y-152630865D02*
X180368857Y-152821341D01*
X180368857Y-152821341D02*
X180321238Y-153011817D01*
X180321238Y-153011817D02*
X180226000Y-153154675D01*
X180226000Y-153154675D02*
X180083143Y-153249913D01*
X180083143Y-153249913D02*
X179892667Y-153297532D01*
X179892667Y-153297532D02*
X179702191Y-153249913D01*
X179702191Y-153249913D02*
X179559334Y-153154675D01*
X178321238Y-153107056D02*
X178178381Y-153154675D01*
X178178381Y-153154675D02*
X177940286Y-153154675D01*
X177940286Y-153154675D02*
X177845048Y-153107056D01*
X177845048Y-153107056D02*
X177797429Y-153059436D01*
X177797429Y-153059436D02*
X177749810Y-152964198D01*
X177749810Y-152964198D02*
X177749810Y-152868960D01*
X177749810Y-152868960D02*
X177797429Y-152773722D01*
X177797429Y-152773722D02*
X177845048Y-152726103D01*
X177845048Y-152726103D02*
X177940286Y-152678484D01*
X177940286Y-152678484D02*
X178130762Y-152630865D01*
X178130762Y-152630865D02*
X178226000Y-152583246D01*
X178226000Y-152583246D02*
X178273619Y-152535627D01*
X178273619Y-152535627D02*
X178321238Y-152440389D01*
X178321238Y-152440389D02*
X178321238Y-152345151D01*
X178321238Y-152345151D02*
X178273619Y-152249913D01*
X178273619Y-152249913D02*
X178226000Y-152202294D01*
X178226000Y-152202294D02*
X178130762Y-152154675D01*
X178130762Y-152154675D02*
X177892667Y-152154675D01*
X177892667Y-152154675D02*
X177749810Y-152202294D01*
X177321238Y-153154675D02*
X177321238Y-152154675D01*
X176892667Y-153154675D02*
X176892667Y-152630865D01*
X176892667Y-152630865D02*
X176940286Y-152535627D01*
X176940286Y-152535627D02*
X177035524Y-152488008D01*
X177035524Y-152488008D02*
X177178381Y-152488008D01*
X177178381Y-152488008D02*
X177273619Y-152535627D01*
X177273619Y-152535627D02*
X177321238Y-152583246D01*
X176035524Y-153107056D02*
X176130762Y-153154675D01*
X176130762Y-153154675D02*
X176321238Y-153154675D01*
X176321238Y-153154675D02*
X176416476Y-153107056D01*
X176416476Y-153107056D02*
X176464095Y-153011817D01*
X176464095Y-153011817D02*
X176464095Y-152630865D01*
X176464095Y-152630865D02*
X176416476Y-152535627D01*
X176416476Y-152535627D02*
X176321238Y-152488008D01*
X176321238Y-152488008D02*
X176130762Y-152488008D01*
X176130762Y-152488008D02*
X176035524Y-152535627D01*
X176035524Y-152535627D02*
X175987905Y-152630865D01*
X175987905Y-152630865D02*
X175987905Y-152726103D01*
X175987905Y-152726103D02*
X176464095Y-152821341D01*
X175416476Y-153154675D02*
X175511714Y-153107056D01*
X175511714Y-153107056D02*
X175559333Y-153011817D01*
X175559333Y-153011817D02*
X175559333Y-152154675D01*
X174892666Y-153154675D02*
X174987904Y-153107056D01*
X174987904Y-153107056D02*
X175035523Y-153011817D01*
X175035523Y-153011817D02*
X175035523Y-152154675D01*
X173749808Y-152630865D02*
X173416475Y-152630865D01*
X173273618Y-153154675D02*
X173749808Y-153154675D01*
X173749808Y-153154675D02*
X173749808Y-152154675D01*
X173749808Y-152154675D02*
X173273618Y-152154675D01*
X172416475Y-153107056D02*
X172511713Y-153154675D01*
X172511713Y-153154675D02*
X172702189Y-153154675D01*
X172702189Y-153154675D02*
X172797427Y-153107056D01*
X172797427Y-153107056D02*
X172845046Y-153059436D01*
X172845046Y-153059436D02*
X172892665Y-152964198D01*
X172892665Y-152964198D02*
X172892665Y-152678484D01*
X172892665Y-152678484D02*
X172845046Y-152583246D01*
X172845046Y-152583246D02*
X172797427Y-152535627D01*
X172797427Y-152535627D02*
X172702189Y-152488008D01*
X172702189Y-152488008D02*
X172511713Y-152488008D01*
X172511713Y-152488008D02*
X172416475Y-152535627D01*
X171845046Y-153154675D02*
X171940284Y-153107056D01*
X171940284Y-153107056D02*
X171987903Y-153059436D01*
X171987903Y-153059436D02*
X172035522Y-152964198D01*
X172035522Y-152964198D02*
X172035522Y-152678484D01*
X172035522Y-152678484D02*
X171987903Y-152583246D01*
X171987903Y-152583246D02*
X171940284Y-152535627D01*
X171940284Y-152535627D02*
X171845046Y-152488008D01*
X171845046Y-152488008D02*
X171702189Y-152488008D01*
X171702189Y-152488008D02*
X171606951Y-152535627D01*
X171606951Y-152535627D02*
X171559332Y-152583246D01*
X171559332Y-152583246D02*
X171511713Y-152678484D01*
X171511713Y-152678484D02*
X171511713Y-152964198D01*
X171511713Y-152964198D02*
X171559332Y-153059436D01*
X171559332Y-153059436D02*
X171606951Y-153107056D01*
X171606951Y-153107056D02*
X171702189Y-153154675D01*
X171702189Y-153154675D02*
X171845046Y-153154675D01*
X170321236Y-153154675D02*
X170321236Y-152154675D01*
X170321236Y-152154675D02*
X169987903Y-152868960D01*
X169987903Y-152868960D02*
X169654570Y-152154675D01*
X169654570Y-152154675D02*
X169654570Y-153154675D01*
X168749808Y-153154675D02*
X168749808Y-152630865D01*
X168749808Y-152630865D02*
X168797427Y-152535627D01*
X168797427Y-152535627D02*
X168892665Y-152488008D01*
X168892665Y-152488008D02*
X169083141Y-152488008D01*
X169083141Y-152488008D02*
X169178379Y-152535627D01*
X168749808Y-153107056D02*
X168845046Y-153154675D01*
X168845046Y-153154675D02*
X169083141Y-153154675D01*
X169083141Y-153154675D02*
X169178379Y-153107056D01*
X169178379Y-153107056D02*
X169225998Y-153011817D01*
X169225998Y-153011817D02*
X169225998Y-152916579D01*
X169225998Y-152916579D02*
X169178379Y-152821341D01*
X169178379Y-152821341D02*
X169083141Y-152773722D01*
X169083141Y-152773722D02*
X168845046Y-152773722D01*
X168845046Y-152773722D02*
X168749808Y-152726103D01*
X168273617Y-153154675D02*
X168273617Y-152488008D01*
X168273617Y-152678484D02*
X168225998Y-152583246D01*
X168225998Y-152583246D02*
X168178379Y-152535627D01*
X168178379Y-152535627D02*
X168083141Y-152488008D01*
X168083141Y-152488008D02*
X167987903Y-152488008D01*
X167225998Y-153154675D02*
X167225998Y-152630865D01*
X167225998Y-152630865D02*
X167273617Y-152535627D01*
X167273617Y-152535627D02*
X167368855Y-152488008D01*
X167368855Y-152488008D02*
X167559331Y-152488008D01*
X167559331Y-152488008D02*
X167654569Y-152535627D01*
X167225998Y-153107056D02*
X167321236Y-153154675D01*
X167321236Y-153154675D02*
X167559331Y-153154675D01*
X167559331Y-153154675D02*
X167654569Y-153107056D01*
X167654569Y-153107056D02*
X167702188Y-153011817D01*
X167702188Y-153011817D02*
X167702188Y-152916579D01*
X167702188Y-152916579D02*
X167654569Y-152821341D01*
X167654569Y-152821341D02*
X167559331Y-152773722D01*
X167559331Y-152773722D02*
X167321236Y-152773722D01*
X167321236Y-152773722D02*
X167225998Y-152726103D01*
X166892664Y-152488008D02*
X166511712Y-152488008D01*
X166749807Y-152154675D02*
X166749807Y-153011817D01*
X166749807Y-153011817D02*
X166702188Y-153107056D01*
X166702188Y-153107056D02*
X166606950Y-153154675D01*
X166606950Y-153154675D02*
X166511712Y-153154675D01*
X166178378Y-153154675D02*
X166178378Y-152154675D01*
X165749807Y-153154675D02*
X165749807Y-152630865D01*
X165749807Y-152630865D02*
X165797426Y-152535627D01*
X165797426Y-152535627D02*
X165892664Y-152488008D01*
X165892664Y-152488008D02*
X166035521Y-152488008D01*
X166035521Y-152488008D02*
X166130759Y-152535627D01*
X166130759Y-152535627D02*
X166178378Y-152583246D01*
X165130759Y-153154675D02*
X165225997Y-153107056D01*
X165225997Y-153107056D02*
X165273616Y-153059436D01*
X165273616Y-153059436D02*
X165321235Y-152964198D01*
X165321235Y-152964198D02*
X165321235Y-152678484D01*
X165321235Y-152678484D02*
X165273616Y-152583246D01*
X165273616Y-152583246D02*
X165225997Y-152535627D01*
X165225997Y-152535627D02*
X165130759Y-152488008D01*
X165130759Y-152488008D02*
X164987902Y-152488008D01*
X164987902Y-152488008D02*
X164892664Y-152535627D01*
X164892664Y-152535627D02*
X164845045Y-152583246D01*
X164845045Y-152583246D02*
X164797426Y-152678484D01*
X164797426Y-152678484D02*
X164797426Y-152964198D01*
X164797426Y-152964198D02*
X164845045Y-153059436D01*
X164845045Y-153059436D02*
X164892664Y-153107056D01*
X164892664Y-153107056D02*
X164987902Y-153154675D01*
X164987902Y-153154675D02*
X165130759Y-153154675D01*
X164368854Y-152488008D02*
X164368854Y-153154675D01*
X164368854Y-152583246D02*
X164321235Y-152535627D01*
X164321235Y-152535627D02*
X164225997Y-152488008D01*
X164225997Y-152488008D02*
X164083140Y-152488008D01*
X164083140Y-152488008D02*
X163987902Y-152535627D01*
X163987902Y-152535627D02*
X163940283Y-152630865D01*
X163940283Y-152630865D02*
X163940283Y-153154675D01*
X199797431Y-154764619D02*
X199797431Y-154097952D01*
X199797431Y-154288428D02*
X199749812Y-154193190D01*
X199749812Y-154193190D02*
X199702193Y-154145571D01*
X199702193Y-154145571D02*
X199606955Y-154097952D01*
X199606955Y-154097952D02*
X199511717Y-154097952D01*
X198797431Y-154717000D02*
X198892669Y-154764619D01*
X198892669Y-154764619D02*
X199083145Y-154764619D01*
X199083145Y-154764619D02*
X199178383Y-154717000D01*
X199178383Y-154717000D02*
X199226002Y-154621761D01*
X199226002Y-154621761D02*
X199226002Y-154240809D01*
X199226002Y-154240809D02*
X199178383Y-154145571D01*
X199178383Y-154145571D02*
X199083145Y-154097952D01*
X199083145Y-154097952D02*
X198892669Y-154097952D01*
X198892669Y-154097952D02*
X198797431Y-154145571D01*
X198797431Y-154145571D02*
X198749812Y-154240809D01*
X198749812Y-154240809D02*
X198749812Y-154336047D01*
X198749812Y-154336047D02*
X199226002Y-154431285D01*
X198416478Y-154097952D02*
X198178383Y-154764619D01*
X198178383Y-154764619D02*
X197940288Y-154097952D01*
X196606954Y-153764619D02*
X196511716Y-153764619D01*
X196511716Y-153764619D02*
X196416478Y-153812238D01*
X196416478Y-153812238D02*
X196368859Y-153859857D01*
X196368859Y-153859857D02*
X196321240Y-153955095D01*
X196321240Y-153955095D02*
X196273621Y-154145571D01*
X196273621Y-154145571D02*
X196273621Y-154383666D01*
X196273621Y-154383666D02*
X196321240Y-154574142D01*
X196321240Y-154574142D02*
X196368859Y-154669380D01*
X196368859Y-154669380D02*
X196416478Y-154717000D01*
X196416478Y-154717000D02*
X196511716Y-154764619D01*
X196511716Y-154764619D02*
X196606954Y-154764619D01*
X196606954Y-154764619D02*
X196702192Y-154717000D01*
X196702192Y-154717000D02*
X196749811Y-154669380D01*
X196749811Y-154669380D02*
X196797430Y-154574142D01*
X196797430Y-154574142D02*
X196845049Y-154383666D01*
X196845049Y-154383666D02*
X196845049Y-154145571D01*
X196845049Y-154145571D02*
X196797430Y-153955095D01*
X196797430Y-153955095D02*
X196749811Y-153859857D01*
X196749811Y-153859857D02*
X196702192Y-153812238D01*
X196702192Y-153812238D02*
X196606954Y-153764619D01*
X195845049Y-154669380D02*
X195797430Y-154717000D01*
X195797430Y-154717000D02*
X195845049Y-154764619D01*
X195845049Y-154764619D02*
X195892668Y-154717000D01*
X195892668Y-154717000D02*
X195845049Y-154669380D01*
X195845049Y-154669380D02*
X195845049Y-154764619D01*
X195464097Y-153764619D02*
X194845050Y-153764619D01*
X194845050Y-153764619D02*
X195178383Y-154145571D01*
X195178383Y-154145571D02*
X195035526Y-154145571D01*
X195035526Y-154145571D02*
X194940288Y-154193190D01*
X194940288Y-154193190D02*
X194892669Y-154240809D01*
X194892669Y-154240809D02*
X194845050Y-154336047D01*
X194845050Y-154336047D02*
X194845050Y-154574142D01*
X194845050Y-154574142D02*
X194892669Y-154669380D01*
X194892669Y-154669380D02*
X194940288Y-154717000D01*
X194940288Y-154717000D02*
X195035526Y-154764619D01*
X195035526Y-154764619D02*
X195321240Y-154764619D01*
X195321240Y-154764619D02*
X195416478Y-154717000D01*
X195416478Y-154717000D02*
X195464097Y-154669380D01*
D11*
X157039819Y-132257142D02*
X156563628Y-131923809D01*
X157039819Y-131685714D02*
X156039819Y-131685714D01*
X156039819Y-131685714D02*
X156039819Y-132066666D01*
X156039819Y-132066666D02*
X156087438Y-132161904D01*
X156087438Y-132161904D02*
X156135057Y-132209523D01*
X156135057Y-132209523D02*
X156230295Y-132257142D01*
X156230295Y-132257142D02*
X156373152Y-132257142D01*
X156373152Y-132257142D02*
X156468390Y-132209523D01*
X156468390Y-132209523D02*
X156516009Y-132161904D01*
X156516009Y-132161904D02*
X156563628Y-132066666D01*
X156563628Y-132066666D02*
X156563628Y-131685714D01*
X156039819Y-132590476D02*
X156039819Y-133257142D01*
X156039819Y-133257142D02*
X157039819Y-132828571D01*
X156135057Y-133590476D02*
X156087438Y-133638095D01*
X156087438Y-133638095D02*
X156039819Y-133733333D01*
X156039819Y-133733333D02*
X156039819Y-133971428D01*
X156039819Y-133971428D02*
X156087438Y-134066666D01*
X156087438Y-134066666D02*
X156135057Y-134114285D01*
X156135057Y-134114285D02*
X156230295Y-134161904D01*
X156230295Y-134161904D02*
X156325533Y-134161904D01*
X156325533Y-134161904D02*
X156468390Y-134114285D01*
X156468390Y-134114285D02*
X157039819Y-133542857D01*
X157039819Y-133542857D02*
X157039819Y-134161904D01*
X121753748Y-117808737D02*
X120753748Y-117808737D01*
X120753748Y-117808737D02*
X120753748Y-118046832D01*
X120753748Y-118046832D02*
X120801367Y-118189689D01*
X120801367Y-118189689D02*
X120896605Y-118284927D01*
X120896605Y-118284927D02*
X120991843Y-118332546D01*
X120991843Y-118332546D02*
X121182319Y-118380165D01*
X121182319Y-118380165D02*
X121325176Y-118380165D01*
X121325176Y-118380165D02*
X121515652Y-118332546D01*
X121515652Y-118332546D02*
X121610890Y-118284927D01*
X121610890Y-118284927D02*
X121706129Y-118189689D01*
X121706129Y-118189689D02*
X121753748Y-118046832D01*
X121753748Y-118046832D02*
X121753748Y-117808737D01*
X120753748Y-119284927D02*
X120753748Y-118808737D01*
X120753748Y-118808737D02*
X121229938Y-118761118D01*
X121229938Y-118761118D02*
X121182319Y-118808737D01*
X121182319Y-118808737D02*
X121134700Y-118903975D01*
X121134700Y-118903975D02*
X121134700Y-119142070D01*
X121134700Y-119142070D02*
X121182319Y-119237308D01*
X121182319Y-119237308D02*
X121229938Y-119284927D01*
X121229938Y-119284927D02*
X121325176Y-119332546D01*
X121325176Y-119332546D02*
X121563271Y-119332546D01*
X121563271Y-119332546D02*
X121658509Y-119284927D01*
X121658509Y-119284927D02*
X121706129Y-119237308D01*
X121706129Y-119237308D02*
X121753748Y-119142070D01*
X121753748Y-119142070D02*
X121753748Y-118903975D01*
X121753748Y-118903975D02*
X121706129Y-118808737D01*
X121706129Y-118808737D02*
X121658509Y-118761118D01*
X98250727Y-138021377D02*
X97774536Y-137688044D01*
X98250727Y-137449949D02*
X97250727Y-137449949D01*
X97250727Y-137449949D02*
X97250727Y-137830901D01*
X97250727Y-137830901D02*
X97298346Y-137926139D01*
X97298346Y-137926139D02*
X97345965Y-137973758D01*
X97345965Y-137973758D02*
X97441203Y-138021377D01*
X97441203Y-138021377D02*
X97584060Y-138021377D01*
X97584060Y-138021377D02*
X97679298Y-137973758D01*
X97679298Y-137973758D02*
X97726917Y-137926139D01*
X97726917Y-137926139D02*
X97774536Y-137830901D01*
X97774536Y-137830901D02*
X97774536Y-137449949D01*
X97250727Y-138354711D02*
X97250727Y-138973758D01*
X97250727Y-138973758D02*
X97631679Y-138640425D01*
X97631679Y-138640425D02*
X97631679Y-138783282D01*
X97631679Y-138783282D02*
X97679298Y-138878520D01*
X97679298Y-138878520D02*
X97726917Y-138926139D01*
X97726917Y-138926139D02*
X97822155Y-138973758D01*
X97822155Y-138973758D02*
X98060250Y-138973758D01*
X98060250Y-138973758D02*
X98155488Y-138926139D01*
X98155488Y-138926139D02*
X98203108Y-138878520D01*
X98203108Y-138878520D02*
X98250727Y-138783282D01*
X98250727Y-138783282D02*
X98250727Y-138497568D01*
X98250727Y-138497568D02*
X98203108Y-138402330D01*
X98203108Y-138402330D02*
X98155488Y-138354711D01*
X98250727Y-139926139D02*
X98250727Y-139354711D01*
X98250727Y-139640425D02*
X97250727Y-139640425D01*
X97250727Y-139640425D02*
X97393584Y-139545187D01*
X97393584Y-139545187D02*
X97488822Y-139449949D01*
X97488822Y-139449949D02*
X97536441Y-139354711D01*
X90835357Y-47094819D02*
X91168690Y-46618628D01*
X91406785Y-47094819D02*
X91406785Y-46094819D01*
X91406785Y-46094819D02*
X91025833Y-46094819D01*
X91025833Y-46094819D02*
X90930595Y-46142438D01*
X90930595Y-46142438D02*
X90882976Y-46190057D01*
X90882976Y-46190057D02*
X90835357Y-46285295D01*
X90835357Y-46285295D02*
X90835357Y-46428152D01*
X90835357Y-46428152D02*
X90882976Y-46523390D01*
X90882976Y-46523390D02*
X90930595Y-46571009D01*
X90930595Y-46571009D02*
X91025833Y-46618628D01*
X91025833Y-46618628D02*
X91406785Y-46618628D01*
X90502023Y-46094819D02*
X89835357Y-46094819D01*
X89835357Y-46094819D02*
X90263928Y-47094819D01*
X89549642Y-46094819D02*
X88930595Y-46094819D01*
X88930595Y-46094819D02*
X89263928Y-46475771D01*
X89263928Y-46475771D02*
X89121071Y-46475771D01*
X89121071Y-46475771D02*
X89025833Y-46523390D01*
X89025833Y-46523390D02*
X88978214Y-46571009D01*
X88978214Y-46571009D02*
X88930595Y-46666247D01*
X88930595Y-46666247D02*
X88930595Y-46904342D01*
X88930595Y-46904342D02*
X88978214Y-46999580D01*
X88978214Y-46999580D02*
X89025833Y-47047200D01*
X89025833Y-47047200D02*
X89121071Y-47094819D01*
X89121071Y-47094819D02*
X89406785Y-47094819D01*
X89406785Y-47094819D02*
X89502023Y-47047200D01*
X89502023Y-47047200D02*
X89549642Y-46999580D01*
X90454580Y-44139642D02*
X90502200Y-44092023D01*
X90502200Y-44092023D02*
X90549819Y-43949166D01*
X90549819Y-43949166D02*
X90549819Y-43853928D01*
X90549819Y-43853928D02*
X90502200Y-43711071D01*
X90502200Y-43711071D02*
X90406961Y-43615833D01*
X90406961Y-43615833D02*
X90311723Y-43568214D01*
X90311723Y-43568214D02*
X90121247Y-43520595D01*
X90121247Y-43520595D02*
X89978390Y-43520595D01*
X89978390Y-43520595D02*
X89787914Y-43568214D01*
X89787914Y-43568214D02*
X89692676Y-43615833D01*
X89692676Y-43615833D02*
X89597438Y-43711071D01*
X89597438Y-43711071D02*
X89549819Y-43853928D01*
X89549819Y-43853928D02*
X89549819Y-43949166D01*
X89549819Y-43949166D02*
X89597438Y-44092023D01*
X89597438Y-44092023D02*
X89645057Y-44139642D01*
X89883152Y-44996785D02*
X90549819Y-44996785D01*
X89502200Y-44758690D02*
X90216485Y-44520595D01*
X90216485Y-44520595D02*
X90216485Y-45139642D01*
X89549819Y-45996785D02*
X89549819Y-45520595D01*
X89549819Y-45520595D02*
X90026009Y-45472976D01*
X90026009Y-45472976D02*
X89978390Y-45520595D01*
X89978390Y-45520595D02*
X89930771Y-45615833D01*
X89930771Y-45615833D02*
X89930771Y-45853928D01*
X89930771Y-45853928D02*
X89978390Y-45949166D01*
X89978390Y-45949166D02*
X90026009Y-45996785D01*
X90026009Y-45996785D02*
X90121247Y-46044404D01*
X90121247Y-46044404D02*
X90359342Y-46044404D01*
X90359342Y-46044404D02*
X90454580Y-45996785D01*
X90454580Y-45996785D02*
X90502200Y-45949166D01*
X90502200Y-45949166D02*
X90549819Y-45853928D01*
X90549819Y-45853928D02*
X90549819Y-45615833D01*
X90549819Y-45615833D02*
X90502200Y-45520595D01*
X90502200Y-45520595D02*
X90454580Y-45472976D01*
X76774580Y-66019642D02*
X76822200Y-65972023D01*
X76822200Y-65972023D02*
X76869819Y-65829166D01*
X76869819Y-65829166D02*
X76869819Y-65733928D01*
X76869819Y-65733928D02*
X76822200Y-65591071D01*
X76822200Y-65591071D02*
X76726961Y-65495833D01*
X76726961Y-65495833D02*
X76631723Y-65448214D01*
X76631723Y-65448214D02*
X76441247Y-65400595D01*
X76441247Y-65400595D02*
X76298390Y-65400595D01*
X76298390Y-65400595D02*
X76107914Y-65448214D01*
X76107914Y-65448214D02*
X76012676Y-65495833D01*
X76012676Y-65495833D02*
X75917438Y-65591071D01*
X75917438Y-65591071D02*
X75869819Y-65733928D01*
X75869819Y-65733928D02*
X75869819Y-65829166D01*
X75869819Y-65829166D02*
X75917438Y-65972023D01*
X75917438Y-65972023D02*
X75965057Y-66019642D01*
X75869819Y-66352976D02*
X75869819Y-66972023D01*
X75869819Y-66972023D02*
X76250771Y-66638690D01*
X76250771Y-66638690D02*
X76250771Y-66781547D01*
X76250771Y-66781547D02*
X76298390Y-66876785D01*
X76298390Y-66876785D02*
X76346009Y-66924404D01*
X76346009Y-66924404D02*
X76441247Y-66972023D01*
X76441247Y-66972023D02*
X76679342Y-66972023D01*
X76679342Y-66972023D02*
X76774580Y-66924404D01*
X76774580Y-66924404D02*
X76822200Y-66876785D01*
X76822200Y-66876785D02*
X76869819Y-66781547D01*
X76869819Y-66781547D02*
X76869819Y-66495833D01*
X76869819Y-66495833D02*
X76822200Y-66400595D01*
X76822200Y-66400595D02*
X76774580Y-66352976D01*
X76203152Y-67829166D02*
X76869819Y-67829166D01*
X75822200Y-67591071D02*
X76536485Y-67352976D01*
X76536485Y-67352976D02*
X76536485Y-67972023D01*
X62319096Y-42590833D02*
X61842905Y-42257500D01*
X62319096Y-42019405D02*
X61319096Y-42019405D01*
X61319096Y-42019405D02*
X61319096Y-42400357D01*
X61319096Y-42400357D02*
X61366715Y-42495595D01*
X61366715Y-42495595D02*
X61414334Y-42543214D01*
X61414334Y-42543214D02*
X61509572Y-42590833D01*
X61509572Y-42590833D02*
X61652429Y-42590833D01*
X61652429Y-42590833D02*
X61747667Y-42543214D01*
X61747667Y-42543214D02*
X61795286Y-42495595D01*
X61795286Y-42495595D02*
X61842905Y-42400357D01*
X61842905Y-42400357D02*
X61842905Y-42019405D01*
X61319096Y-42924167D02*
X61319096Y-43590833D01*
X61319096Y-43590833D02*
X62319096Y-43162262D01*
X87737857Y-40439580D02*
X87785476Y-40487200D01*
X87785476Y-40487200D02*
X87928333Y-40534819D01*
X87928333Y-40534819D02*
X88023571Y-40534819D01*
X88023571Y-40534819D02*
X88166428Y-40487200D01*
X88166428Y-40487200D02*
X88261666Y-40391961D01*
X88261666Y-40391961D02*
X88309285Y-40296723D01*
X88309285Y-40296723D02*
X88356904Y-40106247D01*
X88356904Y-40106247D02*
X88356904Y-39963390D01*
X88356904Y-39963390D02*
X88309285Y-39772914D01*
X88309285Y-39772914D02*
X88261666Y-39677676D01*
X88261666Y-39677676D02*
X88166428Y-39582438D01*
X88166428Y-39582438D02*
X88023571Y-39534819D01*
X88023571Y-39534819D02*
X87928333Y-39534819D01*
X87928333Y-39534819D02*
X87785476Y-39582438D01*
X87785476Y-39582438D02*
X87737857Y-39630057D01*
X87404523Y-39534819D02*
X86785476Y-39534819D01*
X86785476Y-39534819D02*
X87118809Y-39915771D01*
X87118809Y-39915771D02*
X86975952Y-39915771D01*
X86975952Y-39915771D02*
X86880714Y-39963390D01*
X86880714Y-39963390D02*
X86833095Y-40011009D01*
X86833095Y-40011009D02*
X86785476Y-40106247D01*
X86785476Y-40106247D02*
X86785476Y-40344342D01*
X86785476Y-40344342D02*
X86833095Y-40439580D01*
X86833095Y-40439580D02*
X86880714Y-40487200D01*
X86880714Y-40487200D02*
X86975952Y-40534819D01*
X86975952Y-40534819D02*
X87261666Y-40534819D01*
X87261666Y-40534819D02*
X87356904Y-40487200D01*
X87356904Y-40487200D02*
X87404523Y-40439580D01*
X85928333Y-39534819D02*
X86118809Y-39534819D01*
X86118809Y-39534819D02*
X86214047Y-39582438D01*
X86214047Y-39582438D02*
X86261666Y-39630057D01*
X86261666Y-39630057D02*
X86356904Y-39772914D01*
X86356904Y-39772914D02*
X86404523Y-39963390D01*
X86404523Y-39963390D02*
X86404523Y-40344342D01*
X86404523Y-40344342D02*
X86356904Y-40439580D01*
X86356904Y-40439580D02*
X86309285Y-40487200D01*
X86309285Y-40487200D02*
X86214047Y-40534819D01*
X86214047Y-40534819D02*
X86023571Y-40534819D01*
X86023571Y-40534819D02*
X85928333Y-40487200D01*
X85928333Y-40487200D02*
X85880714Y-40439580D01*
X85880714Y-40439580D02*
X85833095Y-40344342D01*
X85833095Y-40344342D02*
X85833095Y-40106247D01*
X85833095Y-40106247D02*
X85880714Y-40011009D01*
X85880714Y-40011009D02*
X85928333Y-39963390D01*
X85928333Y-39963390D02*
X86023571Y-39915771D01*
X86023571Y-39915771D02*
X86214047Y-39915771D01*
X86214047Y-39915771D02*
X86309285Y-39963390D01*
X86309285Y-39963390D02*
X86356904Y-40011009D01*
X86356904Y-40011009D02*
X86404523Y-40106247D01*
X59227134Y-48879580D02*
X59274753Y-48927200D01*
X59274753Y-48927200D02*
X59417610Y-48974819D01*
X59417610Y-48974819D02*
X59512848Y-48974819D01*
X59512848Y-48974819D02*
X59655705Y-48927200D01*
X59655705Y-48927200D02*
X59750943Y-48831961D01*
X59750943Y-48831961D02*
X59798562Y-48736723D01*
X59798562Y-48736723D02*
X59846181Y-48546247D01*
X59846181Y-48546247D02*
X59846181Y-48403390D01*
X59846181Y-48403390D02*
X59798562Y-48212914D01*
X59798562Y-48212914D02*
X59750943Y-48117676D01*
X59750943Y-48117676D02*
X59655705Y-48022438D01*
X59655705Y-48022438D02*
X59512848Y-47974819D01*
X59512848Y-47974819D02*
X59417610Y-47974819D01*
X59417610Y-47974819D02*
X59274753Y-48022438D01*
X59274753Y-48022438D02*
X59227134Y-48070057D01*
X58846181Y-48070057D02*
X58798562Y-48022438D01*
X58798562Y-48022438D02*
X58703324Y-47974819D01*
X58703324Y-47974819D02*
X58465229Y-47974819D01*
X58465229Y-47974819D02*
X58369991Y-48022438D01*
X58369991Y-48022438D02*
X58322372Y-48070057D01*
X58322372Y-48070057D02*
X58274753Y-48165295D01*
X58274753Y-48165295D02*
X58274753Y-48260533D01*
X58274753Y-48260533D02*
X58322372Y-48403390D01*
X58322372Y-48403390D02*
X58893800Y-48974819D01*
X58893800Y-48974819D02*
X58274753Y-48974819D01*
X57703324Y-48403390D02*
X57798562Y-48355771D01*
X57798562Y-48355771D02*
X57846181Y-48308152D01*
X57846181Y-48308152D02*
X57893800Y-48212914D01*
X57893800Y-48212914D02*
X57893800Y-48165295D01*
X57893800Y-48165295D02*
X57846181Y-48070057D01*
X57846181Y-48070057D02*
X57798562Y-48022438D01*
X57798562Y-48022438D02*
X57703324Y-47974819D01*
X57703324Y-47974819D02*
X57512848Y-47974819D01*
X57512848Y-47974819D02*
X57417610Y-48022438D01*
X57417610Y-48022438D02*
X57369991Y-48070057D01*
X57369991Y-48070057D02*
X57322372Y-48165295D01*
X57322372Y-48165295D02*
X57322372Y-48212914D01*
X57322372Y-48212914D02*
X57369991Y-48308152D01*
X57369991Y-48308152D02*
X57417610Y-48355771D01*
X57417610Y-48355771D02*
X57512848Y-48403390D01*
X57512848Y-48403390D02*
X57703324Y-48403390D01*
X57703324Y-48403390D02*
X57798562Y-48451009D01*
X57798562Y-48451009D02*
X57846181Y-48498628D01*
X57846181Y-48498628D02*
X57893800Y-48593866D01*
X57893800Y-48593866D02*
X57893800Y-48784342D01*
X57893800Y-48784342D02*
X57846181Y-48879580D01*
X57846181Y-48879580D02*
X57798562Y-48927200D01*
X57798562Y-48927200D02*
X57703324Y-48974819D01*
X57703324Y-48974819D02*
X57512848Y-48974819D01*
X57512848Y-48974819D02*
X57417610Y-48927200D01*
X57417610Y-48927200D02*
X57369991Y-48879580D01*
X57369991Y-48879580D02*
X57322372Y-48784342D01*
X57322372Y-48784342D02*
X57322372Y-48593866D01*
X57322372Y-48593866D02*
X57369991Y-48498628D01*
X57369991Y-48498628D02*
X57417610Y-48451009D01*
X57417610Y-48451009D02*
X57512848Y-48403390D01*
X145873748Y-137473974D02*
X145397557Y-137140641D01*
X145873748Y-136902546D02*
X144873748Y-136902546D01*
X144873748Y-136902546D02*
X144873748Y-137283498D01*
X144873748Y-137283498D02*
X144921367Y-137378736D01*
X144921367Y-137378736D02*
X144968986Y-137426355D01*
X144968986Y-137426355D02*
X145064224Y-137473974D01*
X145064224Y-137473974D02*
X145207081Y-137473974D01*
X145207081Y-137473974D02*
X145302319Y-137426355D01*
X145302319Y-137426355D02*
X145349938Y-137378736D01*
X145349938Y-137378736D02*
X145397557Y-137283498D01*
X145397557Y-137283498D02*
X145397557Y-136902546D01*
X144873748Y-137807308D02*
X144873748Y-138426355D01*
X144873748Y-138426355D02*
X145254700Y-138093022D01*
X145254700Y-138093022D02*
X145254700Y-138235879D01*
X145254700Y-138235879D02*
X145302319Y-138331117D01*
X145302319Y-138331117D02*
X145349938Y-138378736D01*
X145349938Y-138378736D02*
X145445176Y-138426355D01*
X145445176Y-138426355D02*
X145683271Y-138426355D01*
X145683271Y-138426355D02*
X145778509Y-138378736D01*
X145778509Y-138378736D02*
X145826129Y-138331117D01*
X145826129Y-138331117D02*
X145873748Y-138235879D01*
X145873748Y-138235879D02*
X145873748Y-137950165D01*
X145873748Y-137950165D02*
X145826129Y-137854927D01*
X145826129Y-137854927D02*
X145778509Y-137807308D01*
X144873748Y-138759689D02*
X144873748Y-139426355D01*
X144873748Y-139426355D02*
X145873748Y-138997784D01*
X167729166Y-76659580D02*
X167776785Y-76707200D01*
X167776785Y-76707200D02*
X167919642Y-76754819D01*
X167919642Y-76754819D02*
X168014880Y-76754819D01*
X168014880Y-76754819D02*
X168157737Y-76707200D01*
X168157737Y-76707200D02*
X168252975Y-76611961D01*
X168252975Y-76611961D02*
X168300594Y-76516723D01*
X168300594Y-76516723D02*
X168348213Y-76326247D01*
X168348213Y-76326247D02*
X168348213Y-76183390D01*
X168348213Y-76183390D02*
X168300594Y-75992914D01*
X168300594Y-75992914D02*
X168252975Y-75897676D01*
X168252975Y-75897676D02*
X168157737Y-75802438D01*
X168157737Y-75802438D02*
X168014880Y-75754819D01*
X168014880Y-75754819D02*
X167919642Y-75754819D01*
X167919642Y-75754819D02*
X167776785Y-75802438D01*
X167776785Y-75802438D02*
X167729166Y-75850057D01*
X167252975Y-76754819D02*
X167062499Y-76754819D01*
X167062499Y-76754819D02*
X166967261Y-76707200D01*
X166967261Y-76707200D02*
X166919642Y-76659580D01*
X166919642Y-76659580D02*
X166824404Y-76516723D01*
X166824404Y-76516723D02*
X166776785Y-76326247D01*
X166776785Y-76326247D02*
X166776785Y-75945295D01*
X166776785Y-75945295D02*
X166824404Y-75850057D01*
X166824404Y-75850057D02*
X166872023Y-75802438D01*
X166872023Y-75802438D02*
X166967261Y-75754819D01*
X166967261Y-75754819D02*
X167157737Y-75754819D01*
X167157737Y-75754819D02*
X167252975Y-75802438D01*
X167252975Y-75802438D02*
X167300594Y-75850057D01*
X167300594Y-75850057D02*
X167348213Y-75945295D01*
X167348213Y-75945295D02*
X167348213Y-76183390D01*
X167348213Y-76183390D02*
X167300594Y-76278628D01*
X167300594Y-76278628D02*
X167252975Y-76326247D01*
X167252975Y-76326247D02*
X167157737Y-76373866D01*
X167157737Y-76373866D02*
X166967261Y-76373866D01*
X166967261Y-76373866D02*
X166872023Y-76326247D01*
X166872023Y-76326247D02*
X166824404Y-76278628D01*
X166824404Y-76278628D02*
X166776785Y-76183390D01*
X62843857Y-66622142D02*
X62891477Y-66574523D01*
X62891477Y-66574523D02*
X62939096Y-66431666D01*
X62939096Y-66431666D02*
X62939096Y-66336428D01*
X62939096Y-66336428D02*
X62891477Y-66193571D01*
X62891477Y-66193571D02*
X62796238Y-66098333D01*
X62796238Y-66098333D02*
X62701000Y-66050714D01*
X62701000Y-66050714D02*
X62510524Y-66003095D01*
X62510524Y-66003095D02*
X62367667Y-66003095D01*
X62367667Y-66003095D02*
X62177191Y-66050714D01*
X62177191Y-66050714D02*
X62081953Y-66098333D01*
X62081953Y-66098333D02*
X61986715Y-66193571D01*
X61986715Y-66193571D02*
X61939096Y-66336428D01*
X61939096Y-66336428D02*
X61939096Y-66431666D01*
X61939096Y-66431666D02*
X61986715Y-66574523D01*
X61986715Y-66574523D02*
X62034334Y-66622142D01*
X62034334Y-67003095D02*
X61986715Y-67050714D01*
X61986715Y-67050714D02*
X61939096Y-67145952D01*
X61939096Y-67145952D02*
X61939096Y-67384047D01*
X61939096Y-67384047D02*
X61986715Y-67479285D01*
X61986715Y-67479285D02*
X62034334Y-67526904D01*
X62034334Y-67526904D02*
X62129572Y-67574523D01*
X62129572Y-67574523D02*
X62224810Y-67574523D01*
X62224810Y-67574523D02*
X62367667Y-67526904D01*
X62367667Y-67526904D02*
X62939096Y-66955476D01*
X62939096Y-66955476D02*
X62939096Y-67574523D01*
X61939096Y-67907857D02*
X61939096Y-68526904D01*
X61939096Y-68526904D02*
X62320048Y-68193571D01*
X62320048Y-68193571D02*
X62320048Y-68336428D01*
X62320048Y-68336428D02*
X62367667Y-68431666D01*
X62367667Y-68431666D02*
X62415286Y-68479285D01*
X62415286Y-68479285D02*
X62510524Y-68526904D01*
X62510524Y-68526904D02*
X62748619Y-68526904D01*
X62748619Y-68526904D02*
X62843857Y-68479285D01*
X62843857Y-68479285D02*
X62891477Y-68431666D01*
X62891477Y-68431666D02*
X62939096Y-68336428D01*
X62939096Y-68336428D02*
X62939096Y-68050714D01*
X62939096Y-68050714D02*
X62891477Y-67955476D01*
X62891477Y-67955476D02*
X62843857Y-67907857D01*
X78294580Y-64509642D02*
X78342200Y-64462023D01*
X78342200Y-64462023D02*
X78389819Y-64319166D01*
X78389819Y-64319166D02*
X78389819Y-64223928D01*
X78389819Y-64223928D02*
X78342200Y-64081071D01*
X78342200Y-64081071D02*
X78246961Y-63985833D01*
X78246961Y-63985833D02*
X78151723Y-63938214D01*
X78151723Y-63938214D02*
X77961247Y-63890595D01*
X77961247Y-63890595D02*
X77818390Y-63890595D01*
X77818390Y-63890595D02*
X77627914Y-63938214D01*
X77627914Y-63938214D02*
X77532676Y-63985833D01*
X77532676Y-63985833D02*
X77437438Y-64081071D01*
X77437438Y-64081071D02*
X77389819Y-64223928D01*
X77389819Y-64223928D02*
X77389819Y-64319166D01*
X77389819Y-64319166D02*
X77437438Y-64462023D01*
X77437438Y-64462023D02*
X77485057Y-64509642D01*
X77389819Y-64842976D02*
X77389819Y-65462023D01*
X77389819Y-65462023D02*
X77770771Y-65128690D01*
X77770771Y-65128690D02*
X77770771Y-65271547D01*
X77770771Y-65271547D02*
X77818390Y-65366785D01*
X77818390Y-65366785D02*
X77866009Y-65414404D01*
X77866009Y-65414404D02*
X77961247Y-65462023D01*
X77961247Y-65462023D02*
X78199342Y-65462023D01*
X78199342Y-65462023D02*
X78294580Y-65414404D01*
X78294580Y-65414404D02*
X78342200Y-65366785D01*
X78342200Y-65366785D02*
X78389819Y-65271547D01*
X78389819Y-65271547D02*
X78389819Y-64985833D01*
X78389819Y-64985833D02*
X78342200Y-64890595D01*
X78342200Y-64890595D02*
X78294580Y-64842976D01*
X77389819Y-65795357D02*
X77389819Y-66414404D01*
X77389819Y-66414404D02*
X77770771Y-66081071D01*
X77770771Y-66081071D02*
X77770771Y-66223928D01*
X77770771Y-66223928D02*
X77818390Y-66319166D01*
X77818390Y-66319166D02*
X77866009Y-66366785D01*
X77866009Y-66366785D02*
X77961247Y-66414404D01*
X77961247Y-66414404D02*
X78199342Y-66414404D01*
X78199342Y-66414404D02*
X78294580Y-66366785D01*
X78294580Y-66366785D02*
X78342200Y-66319166D01*
X78342200Y-66319166D02*
X78389819Y-66223928D01*
X78389819Y-66223928D02*
X78389819Y-65938214D01*
X78389819Y-65938214D02*
X78342200Y-65842976D01*
X78342200Y-65842976D02*
X78294580Y-65795357D01*
X88049096Y-53757143D02*
X87572905Y-53423810D01*
X88049096Y-53185715D02*
X87049096Y-53185715D01*
X87049096Y-53185715D02*
X87049096Y-53566667D01*
X87049096Y-53566667D02*
X87096715Y-53661905D01*
X87096715Y-53661905D02*
X87144334Y-53709524D01*
X87144334Y-53709524D02*
X87239572Y-53757143D01*
X87239572Y-53757143D02*
X87382429Y-53757143D01*
X87382429Y-53757143D02*
X87477667Y-53709524D01*
X87477667Y-53709524D02*
X87525286Y-53661905D01*
X87525286Y-53661905D02*
X87572905Y-53566667D01*
X87572905Y-53566667D02*
X87572905Y-53185715D01*
X87144334Y-54138096D02*
X87096715Y-54185715D01*
X87096715Y-54185715D02*
X87049096Y-54280953D01*
X87049096Y-54280953D02*
X87049096Y-54519048D01*
X87049096Y-54519048D02*
X87096715Y-54614286D01*
X87096715Y-54614286D02*
X87144334Y-54661905D01*
X87144334Y-54661905D02*
X87239572Y-54709524D01*
X87239572Y-54709524D02*
X87334810Y-54709524D01*
X87334810Y-54709524D02*
X87477667Y-54661905D01*
X87477667Y-54661905D02*
X88049096Y-54090477D01*
X88049096Y-54090477D02*
X88049096Y-54709524D01*
X87049096Y-55328572D02*
X87049096Y-55423810D01*
X87049096Y-55423810D02*
X87096715Y-55519048D01*
X87096715Y-55519048D02*
X87144334Y-55566667D01*
X87144334Y-55566667D02*
X87239572Y-55614286D01*
X87239572Y-55614286D02*
X87430048Y-55661905D01*
X87430048Y-55661905D02*
X87668143Y-55661905D01*
X87668143Y-55661905D02*
X87858619Y-55614286D01*
X87858619Y-55614286D02*
X87953857Y-55566667D01*
X87953857Y-55566667D02*
X88001477Y-55519048D01*
X88001477Y-55519048D02*
X88049096Y-55423810D01*
X88049096Y-55423810D02*
X88049096Y-55328572D01*
X88049096Y-55328572D02*
X88001477Y-55233334D01*
X88001477Y-55233334D02*
X87953857Y-55185715D01*
X87953857Y-55185715D02*
X87858619Y-55138096D01*
X87858619Y-55138096D02*
X87668143Y-55090477D01*
X87668143Y-55090477D02*
X87430048Y-55090477D01*
X87430048Y-55090477D02*
X87239572Y-55138096D01*
X87239572Y-55138096D02*
X87144334Y-55185715D01*
X87144334Y-55185715D02*
X87096715Y-55233334D01*
X87096715Y-55233334D02*
X87049096Y-55328572D01*
X68993857Y-56259642D02*
X69041477Y-56212023D01*
X69041477Y-56212023D02*
X69089096Y-56069166D01*
X69089096Y-56069166D02*
X69089096Y-55973928D01*
X69089096Y-55973928D02*
X69041477Y-55831071D01*
X69041477Y-55831071D02*
X68946238Y-55735833D01*
X68946238Y-55735833D02*
X68851000Y-55688214D01*
X68851000Y-55688214D02*
X68660524Y-55640595D01*
X68660524Y-55640595D02*
X68517667Y-55640595D01*
X68517667Y-55640595D02*
X68327191Y-55688214D01*
X68327191Y-55688214D02*
X68231953Y-55735833D01*
X68231953Y-55735833D02*
X68136715Y-55831071D01*
X68136715Y-55831071D02*
X68089096Y-55973928D01*
X68089096Y-55973928D02*
X68089096Y-56069166D01*
X68089096Y-56069166D02*
X68136715Y-56212023D01*
X68136715Y-56212023D02*
X68184334Y-56259642D01*
X68089096Y-57164404D02*
X68089096Y-56688214D01*
X68089096Y-56688214D02*
X68565286Y-56640595D01*
X68565286Y-56640595D02*
X68517667Y-56688214D01*
X68517667Y-56688214D02*
X68470048Y-56783452D01*
X68470048Y-56783452D02*
X68470048Y-57021547D01*
X68470048Y-57021547D02*
X68517667Y-57116785D01*
X68517667Y-57116785D02*
X68565286Y-57164404D01*
X68565286Y-57164404D02*
X68660524Y-57212023D01*
X68660524Y-57212023D02*
X68898619Y-57212023D01*
X68898619Y-57212023D02*
X68993857Y-57164404D01*
X68993857Y-57164404D02*
X69041477Y-57116785D01*
X69041477Y-57116785D02*
X69089096Y-57021547D01*
X69089096Y-57021547D02*
X69089096Y-56783452D01*
X69089096Y-56783452D02*
X69041477Y-56688214D01*
X69041477Y-56688214D02*
X68993857Y-56640595D01*
X68089096Y-57545357D02*
X68089096Y-58164404D01*
X68089096Y-58164404D02*
X68470048Y-57831071D01*
X68470048Y-57831071D02*
X68470048Y-57973928D01*
X68470048Y-57973928D02*
X68517667Y-58069166D01*
X68517667Y-58069166D02*
X68565286Y-58116785D01*
X68565286Y-58116785D02*
X68660524Y-58164404D01*
X68660524Y-58164404D02*
X68898619Y-58164404D01*
X68898619Y-58164404D02*
X68993857Y-58116785D01*
X68993857Y-58116785D02*
X69041477Y-58069166D01*
X69041477Y-58069166D02*
X69089096Y-57973928D01*
X69089096Y-57973928D02*
X69089096Y-57688214D01*
X69089096Y-57688214D02*
X69041477Y-57592976D01*
X69041477Y-57592976D02*
X68993857Y-57545357D01*
X72261836Y-138917142D02*
X71785645Y-138583809D01*
X72261836Y-138345714D02*
X71261836Y-138345714D01*
X71261836Y-138345714D02*
X71261836Y-138726666D01*
X71261836Y-138726666D02*
X71309455Y-138821904D01*
X71309455Y-138821904D02*
X71357074Y-138869523D01*
X71357074Y-138869523D02*
X71452312Y-138917142D01*
X71452312Y-138917142D02*
X71595169Y-138917142D01*
X71595169Y-138917142D02*
X71690407Y-138869523D01*
X71690407Y-138869523D02*
X71738026Y-138821904D01*
X71738026Y-138821904D02*
X71785645Y-138726666D01*
X71785645Y-138726666D02*
X71785645Y-138345714D01*
X71261836Y-139821904D02*
X71261836Y-139345714D01*
X71261836Y-139345714D02*
X71738026Y-139298095D01*
X71738026Y-139298095D02*
X71690407Y-139345714D01*
X71690407Y-139345714D02*
X71642788Y-139440952D01*
X71642788Y-139440952D02*
X71642788Y-139679047D01*
X71642788Y-139679047D02*
X71690407Y-139774285D01*
X71690407Y-139774285D02*
X71738026Y-139821904D01*
X71738026Y-139821904D02*
X71833264Y-139869523D01*
X71833264Y-139869523D02*
X72071359Y-139869523D01*
X72071359Y-139869523D02*
X72166597Y-139821904D01*
X72166597Y-139821904D02*
X72214217Y-139774285D01*
X72214217Y-139774285D02*
X72261836Y-139679047D01*
X72261836Y-139679047D02*
X72261836Y-139440952D01*
X72261836Y-139440952D02*
X72214217Y-139345714D01*
X72214217Y-139345714D02*
X72166597Y-139298095D01*
X71261836Y-140202857D02*
X71261836Y-140869523D01*
X71261836Y-140869523D02*
X72261836Y-140440952D01*
X61361836Y-138970310D02*
X60885645Y-138636977D01*
X61361836Y-138398882D02*
X60361836Y-138398882D01*
X60361836Y-138398882D02*
X60361836Y-138779834D01*
X60361836Y-138779834D02*
X60409455Y-138875072D01*
X60409455Y-138875072D02*
X60457074Y-138922691D01*
X60457074Y-138922691D02*
X60552312Y-138970310D01*
X60552312Y-138970310D02*
X60695169Y-138970310D01*
X60695169Y-138970310D02*
X60790407Y-138922691D01*
X60790407Y-138922691D02*
X60838026Y-138875072D01*
X60838026Y-138875072D02*
X60885645Y-138779834D01*
X60885645Y-138779834D02*
X60885645Y-138398882D01*
X60361836Y-139875072D02*
X60361836Y-139398882D01*
X60361836Y-139398882D02*
X60838026Y-139351263D01*
X60838026Y-139351263D02*
X60790407Y-139398882D01*
X60790407Y-139398882D02*
X60742788Y-139494120D01*
X60742788Y-139494120D02*
X60742788Y-139732215D01*
X60742788Y-139732215D02*
X60790407Y-139827453D01*
X60790407Y-139827453D02*
X60838026Y-139875072D01*
X60838026Y-139875072D02*
X60933264Y-139922691D01*
X60933264Y-139922691D02*
X61171359Y-139922691D01*
X61171359Y-139922691D02*
X61266597Y-139875072D01*
X61266597Y-139875072D02*
X61314217Y-139827453D01*
X61314217Y-139827453D02*
X61361836Y-139732215D01*
X61361836Y-139732215D02*
X61361836Y-139494120D01*
X61361836Y-139494120D02*
X61314217Y-139398882D01*
X61314217Y-139398882D02*
X61266597Y-139351263D01*
X60361836Y-140779834D02*
X60361836Y-140589358D01*
X60361836Y-140589358D02*
X60409455Y-140494120D01*
X60409455Y-140494120D02*
X60457074Y-140446501D01*
X60457074Y-140446501D02*
X60599931Y-140351263D01*
X60599931Y-140351263D02*
X60790407Y-140303644D01*
X60790407Y-140303644D02*
X61171359Y-140303644D01*
X61171359Y-140303644D02*
X61266597Y-140351263D01*
X61266597Y-140351263D02*
X61314217Y-140398882D01*
X61314217Y-140398882D02*
X61361836Y-140494120D01*
X61361836Y-140494120D02*
X61361836Y-140684596D01*
X61361836Y-140684596D02*
X61314217Y-140779834D01*
X61314217Y-140779834D02*
X61266597Y-140827453D01*
X61266597Y-140827453D02*
X61171359Y-140875072D01*
X61171359Y-140875072D02*
X60933264Y-140875072D01*
X60933264Y-140875072D02*
X60838026Y-140827453D01*
X60838026Y-140827453D02*
X60790407Y-140779834D01*
X60790407Y-140779834D02*
X60742788Y-140684596D01*
X60742788Y-140684596D02*
X60742788Y-140494120D01*
X60742788Y-140494120D02*
X60790407Y-140398882D01*
X60790407Y-140398882D02*
X60838026Y-140351263D01*
X60838026Y-140351263D02*
X60933264Y-140303644D01*
X123361786Y-115206412D02*
X123409405Y-115254032D01*
X123409405Y-115254032D02*
X123552262Y-115301651D01*
X123552262Y-115301651D02*
X123647500Y-115301651D01*
X123647500Y-115301651D02*
X123790357Y-115254032D01*
X123790357Y-115254032D02*
X123885595Y-115158793D01*
X123885595Y-115158793D02*
X123933214Y-115063555D01*
X123933214Y-115063555D02*
X123980833Y-114873079D01*
X123980833Y-114873079D02*
X123980833Y-114730222D01*
X123980833Y-114730222D02*
X123933214Y-114539746D01*
X123933214Y-114539746D02*
X123885595Y-114444508D01*
X123885595Y-114444508D02*
X123790357Y-114349270D01*
X123790357Y-114349270D02*
X123647500Y-114301651D01*
X123647500Y-114301651D02*
X123552262Y-114301651D01*
X123552262Y-114301651D02*
X123409405Y-114349270D01*
X123409405Y-114349270D02*
X123361786Y-114396889D01*
X122885595Y-115301651D02*
X122695119Y-115301651D01*
X122695119Y-115301651D02*
X122599881Y-115254032D01*
X122599881Y-115254032D02*
X122552262Y-115206412D01*
X122552262Y-115206412D02*
X122457024Y-115063555D01*
X122457024Y-115063555D02*
X122409405Y-114873079D01*
X122409405Y-114873079D02*
X122409405Y-114492127D01*
X122409405Y-114492127D02*
X122457024Y-114396889D01*
X122457024Y-114396889D02*
X122504643Y-114349270D01*
X122504643Y-114349270D02*
X122599881Y-114301651D01*
X122599881Y-114301651D02*
X122790357Y-114301651D01*
X122790357Y-114301651D02*
X122885595Y-114349270D01*
X122885595Y-114349270D02*
X122933214Y-114396889D01*
X122933214Y-114396889D02*
X122980833Y-114492127D01*
X122980833Y-114492127D02*
X122980833Y-114730222D01*
X122980833Y-114730222D02*
X122933214Y-114825460D01*
X122933214Y-114825460D02*
X122885595Y-114873079D01*
X122885595Y-114873079D02*
X122790357Y-114920698D01*
X122790357Y-114920698D02*
X122599881Y-114920698D01*
X122599881Y-114920698D02*
X122504643Y-114873079D01*
X122504643Y-114873079D02*
X122457024Y-114825460D01*
X122457024Y-114825460D02*
X122409405Y-114730222D01*
X121790357Y-114301651D02*
X121695119Y-114301651D01*
X121695119Y-114301651D02*
X121599881Y-114349270D01*
X121599881Y-114349270D02*
X121552262Y-114396889D01*
X121552262Y-114396889D02*
X121504643Y-114492127D01*
X121504643Y-114492127D02*
X121457024Y-114682603D01*
X121457024Y-114682603D02*
X121457024Y-114920698D01*
X121457024Y-114920698D02*
X121504643Y-115111174D01*
X121504643Y-115111174D02*
X121552262Y-115206412D01*
X121552262Y-115206412D02*
X121599881Y-115254032D01*
X121599881Y-115254032D02*
X121695119Y-115301651D01*
X121695119Y-115301651D02*
X121790357Y-115301651D01*
X121790357Y-115301651D02*
X121885595Y-115254032D01*
X121885595Y-115254032D02*
X121933214Y-115206412D01*
X121933214Y-115206412D02*
X121980833Y-115111174D01*
X121980833Y-115111174D02*
X122028452Y-114920698D01*
X122028452Y-114920698D02*
X122028452Y-114682603D01*
X122028452Y-114682603D02*
X121980833Y-114492127D01*
X121980833Y-114492127D02*
X121933214Y-114396889D01*
X121933214Y-114396889D02*
X121885595Y-114349270D01*
X121885595Y-114349270D02*
X121790357Y-114301651D01*
X68205357Y-65049580D02*
X68252976Y-65097200D01*
X68252976Y-65097200D02*
X68395833Y-65144819D01*
X68395833Y-65144819D02*
X68491071Y-65144819D01*
X68491071Y-65144819D02*
X68633928Y-65097200D01*
X68633928Y-65097200D02*
X68729166Y-65001961D01*
X68729166Y-65001961D02*
X68776785Y-64906723D01*
X68776785Y-64906723D02*
X68824404Y-64716247D01*
X68824404Y-64716247D02*
X68824404Y-64573390D01*
X68824404Y-64573390D02*
X68776785Y-64382914D01*
X68776785Y-64382914D02*
X68729166Y-64287676D01*
X68729166Y-64287676D02*
X68633928Y-64192438D01*
X68633928Y-64192438D02*
X68491071Y-64144819D01*
X68491071Y-64144819D02*
X68395833Y-64144819D01*
X68395833Y-64144819D02*
X68252976Y-64192438D01*
X68252976Y-64192438D02*
X68205357Y-64240057D01*
X67824404Y-64240057D02*
X67776785Y-64192438D01*
X67776785Y-64192438D02*
X67681547Y-64144819D01*
X67681547Y-64144819D02*
X67443452Y-64144819D01*
X67443452Y-64144819D02*
X67348214Y-64192438D01*
X67348214Y-64192438D02*
X67300595Y-64240057D01*
X67300595Y-64240057D02*
X67252976Y-64335295D01*
X67252976Y-64335295D02*
X67252976Y-64430533D01*
X67252976Y-64430533D02*
X67300595Y-64573390D01*
X67300595Y-64573390D02*
X67872023Y-65144819D01*
X67872023Y-65144819D02*
X67252976Y-65144819D01*
X66919642Y-64144819D02*
X66252976Y-64144819D01*
X66252976Y-64144819D02*
X66681547Y-65144819D01*
X75294580Y-67579642D02*
X75342200Y-67532023D01*
X75342200Y-67532023D02*
X75389819Y-67389166D01*
X75389819Y-67389166D02*
X75389819Y-67293928D01*
X75389819Y-67293928D02*
X75342200Y-67151071D01*
X75342200Y-67151071D02*
X75246961Y-67055833D01*
X75246961Y-67055833D02*
X75151723Y-67008214D01*
X75151723Y-67008214D02*
X74961247Y-66960595D01*
X74961247Y-66960595D02*
X74818390Y-66960595D01*
X74818390Y-66960595D02*
X74627914Y-67008214D01*
X74627914Y-67008214D02*
X74532676Y-67055833D01*
X74532676Y-67055833D02*
X74437438Y-67151071D01*
X74437438Y-67151071D02*
X74389819Y-67293928D01*
X74389819Y-67293928D02*
X74389819Y-67389166D01*
X74389819Y-67389166D02*
X74437438Y-67532023D01*
X74437438Y-67532023D02*
X74485057Y-67579642D01*
X74389819Y-67912976D02*
X74389819Y-68532023D01*
X74389819Y-68532023D02*
X74770771Y-68198690D01*
X74770771Y-68198690D02*
X74770771Y-68341547D01*
X74770771Y-68341547D02*
X74818390Y-68436785D01*
X74818390Y-68436785D02*
X74866009Y-68484404D01*
X74866009Y-68484404D02*
X74961247Y-68532023D01*
X74961247Y-68532023D02*
X75199342Y-68532023D01*
X75199342Y-68532023D02*
X75294580Y-68484404D01*
X75294580Y-68484404D02*
X75342200Y-68436785D01*
X75342200Y-68436785D02*
X75389819Y-68341547D01*
X75389819Y-68341547D02*
X75389819Y-68055833D01*
X75389819Y-68055833D02*
X75342200Y-67960595D01*
X75342200Y-67960595D02*
X75294580Y-67912976D01*
X74389819Y-69436785D02*
X74389819Y-68960595D01*
X74389819Y-68960595D02*
X74866009Y-68912976D01*
X74866009Y-68912976D02*
X74818390Y-68960595D01*
X74818390Y-68960595D02*
X74770771Y-69055833D01*
X74770771Y-69055833D02*
X74770771Y-69293928D01*
X74770771Y-69293928D02*
X74818390Y-69389166D01*
X74818390Y-69389166D02*
X74866009Y-69436785D01*
X74866009Y-69436785D02*
X74961247Y-69484404D01*
X74961247Y-69484404D02*
X75199342Y-69484404D01*
X75199342Y-69484404D02*
X75294580Y-69436785D01*
X75294580Y-69436785D02*
X75342200Y-69389166D01*
X75342200Y-69389166D02*
X75389819Y-69293928D01*
X75389819Y-69293928D02*
X75389819Y-69055833D01*
X75389819Y-69055833D02*
X75342200Y-68960595D01*
X75342200Y-68960595D02*
X75294580Y-68912976D01*
X85169819Y-132957142D02*
X84693628Y-132623809D01*
X85169819Y-132385714D02*
X84169819Y-132385714D01*
X84169819Y-132385714D02*
X84169819Y-132766666D01*
X84169819Y-132766666D02*
X84217438Y-132861904D01*
X84217438Y-132861904D02*
X84265057Y-132909523D01*
X84265057Y-132909523D02*
X84360295Y-132957142D01*
X84360295Y-132957142D02*
X84503152Y-132957142D01*
X84503152Y-132957142D02*
X84598390Y-132909523D01*
X84598390Y-132909523D02*
X84646009Y-132861904D01*
X84646009Y-132861904D02*
X84693628Y-132766666D01*
X84693628Y-132766666D02*
X84693628Y-132385714D01*
X84169819Y-133814285D02*
X84169819Y-133623809D01*
X84169819Y-133623809D02*
X84217438Y-133528571D01*
X84217438Y-133528571D02*
X84265057Y-133480952D01*
X84265057Y-133480952D02*
X84407914Y-133385714D01*
X84407914Y-133385714D02*
X84598390Y-133338095D01*
X84598390Y-133338095D02*
X84979342Y-133338095D01*
X84979342Y-133338095D02*
X85074580Y-133385714D01*
X85074580Y-133385714D02*
X85122200Y-133433333D01*
X85122200Y-133433333D02*
X85169819Y-133528571D01*
X85169819Y-133528571D02*
X85169819Y-133719047D01*
X85169819Y-133719047D02*
X85122200Y-133814285D01*
X85122200Y-133814285D02*
X85074580Y-133861904D01*
X85074580Y-133861904D02*
X84979342Y-133909523D01*
X84979342Y-133909523D02*
X84741247Y-133909523D01*
X84741247Y-133909523D02*
X84646009Y-133861904D01*
X84646009Y-133861904D02*
X84598390Y-133814285D01*
X84598390Y-133814285D02*
X84550771Y-133719047D01*
X84550771Y-133719047D02*
X84550771Y-133528571D01*
X84550771Y-133528571D02*
X84598390Y-133433333D01*
X84598390Y-133433333D02*
X84646009Y-133385714D01*
X84646009Y-133385714D02*
X84741247Y-133338095D01*
X84169819Y-134766666D02*
X84169819Y-134576190D01*
X84169819Y-134576190D02*
X84217438Y-134480952D01*
X84217438Y-134480952D02*
X84265057Y-134433333D01*
X84265057Y-134433333D02*
X84407914Y-134338095D01*
X84407914Y-134338095D02*
X84598390Y-134290476D01*
X84598390Y-134290476D02*
X84979342Y-134290476D01*
X84979342Y-134290476D02*
X85074580Y-134338095D01*
X85074580Y-134338095D02*
X85122200Y-134385714D01*
X85122200Y-134385714D02*
X85169819Y-134480952D01*
X85169819Y-134480952D02*
X85169819Y-134671428D01*
X85169819Y-134671428D02*
X85122200Y-134766666D01*
X85122200Y-134766666D02*
X85074580Y-134814285D01*
X85074580Y-134814285D02*
X84979342Y-134861904D01*
X84979342Y-134861904D02*
X84741247Y-134861904D01*
X84741247Y-134861904D02*
X84646009Y-134814285D01*
X84646009Y-134814285D02*
X84598390Y-134766666D01*
X84598390Y-134766666D02*
X84550771Y-134671428D01*
X84550771Y-134671428D02*
X84550771Y-134480952D01*
X84550771Y-134480952D02*
X84598390Y-134385714D01*
X84598390Y-134385714D02*
X84646009Y-134338095D01*
X84646009Y-134338095D02*
X84741247Y-134290476D01*
X116479819Y-133007142D02*
X116003628Y-132673809D01*
X116479819Y-132435714D02*
X115479819Y-132435714D01*
X115479819Y-132435714D02*
X115479819Y-132816666D01*
X115479819Y-132816666D02*
X115527438Y-132911904D01*
X115527438Y-132911904D02*
X115575057Y-132959523D01*
X115575057Y-132959523D02*
X115670295Y-133007142D01*
X115670295Y-133007142D02*
X115813152Y-133007142D01*
X115813152Y-133007142D02*
X115908390Y-132959523D01*
X115908390Y-132959523D02*
X115956009Y-132911904D01*
X115956009Y-132911904D02*
X116003628Y-132816666D01*
X116003628Y-132816666D02*
X116003628Y-132435714D01*
X115479819Y-133340476D02*
X115479819Y-133959523D01*
X115479819Y-133959523D02*
X115860771Y-133626190D01*
X115860771Y-133626190D02*
X115860771Y-133769047D01*
X115860771Y-133769047D02*
X115908390Y-133864285D01*
X115908390Y-133864285D02*
X115956009Y-133911904D01*
X115956009Y-133911904D02*
X116051247Y-133959523D01*
X116051247Y-133959523D02*
X116289342Y-133959523D01*
X116289342Y-133959523D02*
X116384580Y-133911904D01*
X116384580Y-133911904D02*
X116432200Y-133864285D01*
X116432200Y-133864285D02*
X116479819Y-133769047D01*
X116479819Y-133769047D02*
X116479819Y-133483333D01*
X116479819Y-133483333D02*
X116432200Y-133388095D01*
X116432200Y-133388095D02*
X116384580Y-133340476D01*
X115908390Y-134530952D02*
X115860771Y-134435714D01*
X115860771Y-134435714D02*
X115813152Y-134388095D01*
X115813152Y-134388095D02*
X115717914Y-134340476D01*
X115717914Y-134340476D02*
X115670295Y-134340476D01*
X115670295Y-134340476D02*
X115575057Y-134388095D01*
X115575057Y-134388095D02*
X115527438Y-134435714D01*
X115527438Y-134435714D02*
X115479819Y-134530952D01*
X115479819Y-134530952D02*
X115479819Y-134721428D01*
X115479819Y-134721428D02*
X115527438Y-134816666D01*
X115527438Y-134816666D02*
X115575057Y-134864285D01*
X115575057Y-134864285D02*
X115670295Y-134911904D01*
X115670295Y-134911904D02*
X115717914Y-134911904D01*
X115717914Y-134911904D02*
X115813152Y-134864285D01*
X115813152Y-134864285D02*
X115860771Y-134816666D01*
X115860771Y-134816666D02*
X115908390Y-134721428D01*
X115908390Y-134721428D02*
X115908390Y-134530952D01*
X115908390Y-134530952D02*
X115956009Y-134435714D01*
X115956009Y-134435714D02*
X116003628Y-134388095D01*
X116003628Y-134388095D02*
X116098866Y-134340476D01*
X116098866Y-134340476D02*
X116289342Y-134340476D01*
X116289342Y-134340476D02*
X116384580Y-134388095D01*
X116384580Y-134388095D02*
X116432200Y-134435714D01*
X116432200Y-134435714D02*
X116479819Y-134530952D01*
X116479819Y-134530952D02*
X116479819Y-134721428D01*
X116479819Y-134721428D02*
X116432200Y-134816666D01*
X116432200Y-134816666D02*
X116384580Y-134864285D01*
X116384580Y-134864285D02*
X116289342Y-134911904D01*
X116289342Y-134911904D02*
X116098866Y-134911904D01*
X116098866Y-134911904D02*
X116003628Y-134864285D01*
X116003628Y-134864285D02*
X115956009Y-134816666D01*
X115956009Y-134816666D02*
X115908390Y-134721428D01*
X61961836Y-114670310D02*
X61485645Y-114336977D01*
X61961836Y-114098882D02*
X60961836Y-114098882D01*
X60961836Y-114098882D02*
X60961836Y-114479834D01*
X60961836Y-114479834D02*
X61009455Y-114575072D01*
X61009455Y-114575072D02*
X61057074Y-114622691D01*
X61057074Y-114622691D02*
X61152312Y-114670310D01*
X61152312Y-114670310D02*
X61295169Y-114670310D01*
X61295169Y-114670310D02*
X61390407Y-114622691D01*
X61390407Y-114622691D02*
X61438026Y-114575072D01*
X61438026Y-114575072D02*
X61485645Y-114479834D01*
X61485645Y-114479834D02*
X61485645Y-114098882D01*
X61961836Y-115622691D02*
X61961836Y-115051263D01*
X61961836Y-115336977D02*
X60961836Y-115336977D01*
X60961836Y-115336977D02*
X61104693Y-115241739D01*
X61104693Y-115241739D02*
X61199931Y-115146501D01*
X61199931Y-115146501D02*
X61247550Y-115051263D01*
X60961836Y-115956025D02*
X60961836Y-116575072D01*
X60961836Y-116575072D02*
X61342788Y-116241739D01*
X61342788Y-116241739D02*
X61342788Y-116384596D01*
X61342788Y-116384596D02*
X61390407Y-116479834D01*
X61390407Y-116479834D02*
X61438026Y-116527453D01*
X61438026Y-116527453D02*
X61533264Y-116575072D01*
X61533264Y-116575072D02*
X61771359Y-116575072D01*
X61771359Y-116575072D02*
X61866597Y-116527453D01*
X61866597Y-116527453D02*
X61914217Y-116479834D01*
X61914217Y-116479834D02*
X61961836Y-116384596D01*
X61961836Y-116384596D02*
X61961836Y-116098882D01*
X61961836Y-116098882D02*
X61914217Y-116003644D01*
X61914217Y-116003644D02*
X61866597Y-115956025D01*
X45876836Y-118176263D02*
X46686359Y-118176263D01*
X46686359Y-118176263D02*
X46781597Y-118223882D01*
X46781597Y-118223882D02*
X46829217Y-118271501D01*
X46829217Y-118271501D02*
X46876836Y-118366739D01*
X46876836Y-118366739D02*
X46876836Y-118557215D01*
X46876836Y-118557215D02*
X46829217Y-118652453D01*
X46829217Y-118652453D02*
X46781597Y-118700072D01*
X46781597Y-118700072D02*
X46686359Y-118747691D01*
X46686359Y-118747691D02*
X45876836Y-118747691D01*
X46876836Y-119271501D02*
X46876836Y-119461977D01*
X46876836Y-119461977D02*
X46829217Y-119557215D01*
X46829217Y-119557215D02*
X46781597Y-119604834D01*
X46781597Y-119604834D02*
X46638740Y-119700072D01*
X46638740Y-119700072D02*
X46448264Y-119747691D01*
X46448264Y-119747691D02*
X46067312Y-119747691D01*
X46067312Y-119747691D02*
X45972074Y-119700072D01*
X45972074Y-119700072D02*
X45924455Y-119652453D01*
X45924455Y-119652453D02*
X45876836Y-119557215D01*
X45876836Y-119557215D02*
X45876836Y-119366739D01*
X45876836Y-119366739D02*
X45924455Y-119271501D01*
X45924455Y-119271501D02*
X45972074Y-119223882D01*
X45972074Y-119223882D02*
X46067312Y-119176263D01*
X46067312Y-119176263D02*
X46305407Y-119176263D01*
X46305407Y-119176263D02*
X46400645Y-119223882D01*
X46400645Y-119223882D02*
X46448264Y-119271501D01*
X46448264Y-119271501D02*
X46495883Y-119366739D01*
X46495883Y-119366739D02*
X46495883Y-119557215D01*
X46495883Y-119557215D02*
X46448264Y-119652453D01*
X46448264Y-119652453D02*
X46400645Y-119700072D01*
X46400645Y-119700072D02*
X46305407Y-119747691D01*
X48311836Y-118275073D02*
X47311836Y-118275073D01*
X47311836Y-118275073D02*
X47311836Y-118513168D01*
X47311836Y-118513168D02*
X47359455Y-118656025D01*
X47359455Y-118656025D02*
X47454693Y-118751263D01*
X47454693Y-118751263D02*
X47549931Y-118798882D01*
X47549931Y-118798882D02*
X47740407Y-118846501D01*
X47740407Y-118846501D02*
X47883264Y-118846501D01*
X47883264Y-118846501D02*
X48073740Y-118798882D01*
X48073740Y-118798882D02*
X48168978Y-118751263D01*
X48168978Y-118751263D02*
X48264217Y-118656025D01*
X48264217Y-118656025D02*
X48311836Y-118513168D01*
X48311836Y-118513168D02*
X48311836Y-118275073D01*
X47311836Y-119179835D02*
X47311836Y-119846501D01*
X47311836Y-119846501D02*
X48311836Y-119417930D01*
X85300727Y-118126140D02*
X84300727Y-118126140D01*
X84300727Y-118126140D02*
X84300727Y-118364235D01*
X84300727Y-118364235D02*
X84348346Y-118507092D01*
X84348346Y-118507092D02*
X84443584Y-118602330D01*
X84443584Y-118602330D02*
X84538822Y-118649949D01*
X84538822Y-118649949D02*
X84729298Y-118697568D01*
X84729298Y-118697568D02*
X84872155Y-118697568D01*
X84872155Y-118697568D02*
X85062631Y-118649949D01*
X85062631Y-118649949D02*
X85157869Y-118602330D01*
X85157869Y-118602330D02*
X85253108Y-118507092D01*
X85253108Y-118507092D02*
X85300727Y-118364235D01*
X85300727Y-118364235D02*
X85300727Y-118126140D01*
X84634060Y-119554711D02*
X85300727Y-119554711D01*
X84253108Y-119316616D02*
X84967393Y-119078521D01*
X84967393Y-119078521D02*
X84967393Y-119697568D01*
X152979819Y-132257142D02*
X152503628Y-131923809D01*
X152979819Y-131685714D02*
X151979819Y-131685714D01*
X151979819Y-131685714D02*
X151979819Y-132066666D01*
X151979819Y-132066666D02*
X152027438Y-132161904D01*
X152027438Y-132161904D02*
X152075057Y-132209523D01*
X152075057Y-132209523D02*
X152170295Y-132257142D01*
X152170295Y-132257142D02*
X152313152Y-132257142D01*
X152313152Y-132257142D02*
X152408390Y-132209523D01*
X152408390Y-132209523D02*
X152456009Y-132161904D01*
X152456009Y-132161904D02*
X152503628Y-132066666D01*
X152503628Y-132066666D02*
X152503628Y-131685714D01*
X151979819Y-133114285D02*
X151979819Y-132923809D01*
X151979819Y-132923809D02*
X152027438Y-132828571D01*
X152027438Y-132828571D02*
X152075057Y-132780952D01*
X152075057Y-132780952D02*
X152217914Y-132685714D01*
X152217914Y-132685714D02*
X152408390Y-132638095D01*
X152408390Y-132638095D02*
X152789342Y-132638095D01*
X152789342Y-132638095D02*
X152884580Y-132685714D01*
X152884580Y-132685714D02*
X152932200Y-132733333D01*
X152932200Y-132733333D02*
X152979819Y-132828571D01*
X152979819Y-132828571D02*
X152979819Y-133019047D01*
X152979819Y-133019047D02*
X152932200Y-133114285D01*
X152932200Y-133114285D02*
X152884580Y-133161904D01*
X152884580Y-133161904D02*
X152789342Y-133209523D01*
X152789342Y-133209523D02*
X152551247Y-133209523D01*
X152551247Y-133209523D02*
X152456009Y-133161904D01*
X152456009Y-133161904D02*
X152408390Y-133114285D01*
X152408390Y-133114285D02*
X152360771Y-133019047D01*
X152360771Y-133019047D02*
X152360771Y-132828571D01*
X152360771Y-132828571D02*
X152408390Y-132733333D01*
X152408390Y-132733333D02*
X152456009Y-132685714D01*
X152456009Y-132685714D02*
X152551247Y-132638095D01*
X152979819Y-134161904D02*
X152979819Y-133590476D01*
X152979819Y-133876190D02*
X151979819Y-133876190D01*
X151979819Y-133876190D02*
X152122676Y-133780952D01*
X152122676Y-133780952D02*
X152217914Y-133685714D01*
X152217914Y-133685714D02*
X152265533Y-133590476D01*
X119361248Y-117218737D02*
X120170771Y-117218737D01*
X120170771Y-117218737D02*
X120266009Y-117266356D01*
X120266009Y-117266356D02*
X120313629Y-117313975D01*
X120313629Y-117313975D02*
X120361248Y-117409213D01*
X120361248Y-117409213D02*
X120361248Y-117599689D01*
X120361248Y-117599689D02*
X120313629Y-117694927D01*
X120313629Y-117694927D02*
X120266009Y-117742546D01*
X120266009Y-117742546D02*
X120170771Y-117790165D01*
X120170771Y-117790165D02*
X119361248Y-117790165D01*
X120361248Y-118790165D02*
X120361248Y-118218737D01*
X120361248Y-118504451D02*
X119361248Y-118504451D01*
X119361248Y-118504451D02*
X119504105Y-118409213D01*
X119504105Y-118409213D02*
X119599343Y-118313975D01*
X119599343Y-118313975D02*
X119646962Y-118218737D01*
X119361248Y-119409213D02*
X119361248Y-119504451D01*
X119361248Y-119504451D02*
X119408867Y-119599689D01*
X119408867Y-119599689D02*
X119456486Y-119647308D01*
X119456486Y-119647308D02*
X119551724Y-119694927D01*
X119551724Y-119694927D02*
X119742200Y-119742546D01*
X119742200Y-119742546D02*
X119980295Y-119742546D01*
X119980295Y-119742546D02*
X120170771Y-119694927D01*
X120170771Y-119694927D02*
X120266009Y-119647308D01*
X120266009Y-119647308D02*
X120313629Y-119599689D01*
X120313629Y-119599689D02*
X120361248Y-119504451D01*
X120361248Y-119504451D02*
X120361248Y-119409213D01*
X120361248Y-119409213D02*
X120313629Y-119313975D01*
X120313629Y-119313975D02*
X120266009Y-119266356D01*
X120266009Y-119266356D02*
X120170771Y-119218737D01*
X120170771Y-119218737D02*
X119980295Y-119171118D01*
X119980295Y-119171118D02*
X119742200Y-119171118D01*
X119742200Y-119171118D02*
X119551724Y-119218737D01*
X119551724Y-119218737D02*
X119456486Y-119266356D01*
X119456486Y-119266356D02*
X119408867Y-119313975D01*
X119408867Y-119313975D02*
X119361248Y-119409213D01*
X83889819Y-132957142D02*
X83413628Y-132623809D01*
X83889819Y-132385714D02*
X82889819Y-132385714D01*
X82889819Y-132385714D02*
X82889819Y-132766666D01*
X82889819Y-132766666D02*
X82937438Y-132861904D01*
X82937438Y-132861904D02*
X82985057Y-132909523D01*
X82985057Y-132909523D02*
X83080295Y-132957142D01*
X83080295Y-132957142D02*
X83223152Y-132957142D01*
X83223152Y-132957142D02*
X83318390Y-132909523D01*
X83318390Y-132909523D02*
X83366009Y-132861904D01*
X83366009Y-132861904D02*
X83413628Y-132766666D01*
X83413628Y-132766666D02*
X83413628Y-132385714D01*
X82889819Y-133290476D02*
X82889819Y-133957142D01*
X82889819Y-133957142D02*
X83889819Y-133528571D01*
X83889819Y-134861904D02*
X83889819Y-134290476D01*
X83889819Y-134576190D02*
X82889819Y-134576190D01*
X82889819Y-134576190D02*
X83032676Y-134480952D01*
X83032676Y-134480952D02*
X83127914Y-134385714D01*
X83127914Y-134385714D02*
X83175533Y-134290476D01*
X86988765Y-116023815D02*
X87036384Y-116071435D01*
X87036384Y-116071435D02*
X87179241Y-116119054D01*
X87179241Y-116119054D02*
X87274479Y-116119054D01*
X87274479Y-116119054D02*
X87417336Y-116071435D01*
X87417336Y-116071435D02*
X87512574Y-115976196D01*
X87512574Y-115976196D02*
X87560193Y-115880958D01*
X87560193Y-115880958D02*
X87607812Y-115690482D01*
X87607812Y-115690482D02*
X87607812Y-115547625D01*
X87607812Y-115547625D02*
X87560193Y-115357149D01*
X87560193Y-115357149D02*
X87512574Y-115261911D01*
X87512574Y-115261911D02*
X87417336Y-115166673D01*
X87417336Y-115166673D02*
X87274479Y-115119054D01*
X87274479Y-115119054D02*
X87179241Y-115119054D01*
X87179241Y-115119054D02*
X87036384Y-115166673D01*
X87036384Y-115166673D02*
X86988765Y-115214292D01*
X86417336Y-115547625D02*
X86512574Y-115500006D01*
X86512574Y-115500006D02*
X86560193Y-115452387D01*
X86560193Y-115452387D02*
X86607812Y-115357149D01*
X86607812Y-115357149D02*
X86607812Y-115309530D01*
X86607812Y-115309530D02*
X86560193Y-115214292D01*
X86560193Y-115214292D02*
X86512574Y-115166673D01*
X86512574Y-115166673D02*
X86417336Y-115119054D01*
X86417336Y-115119054D02*
X86226860Y-115119054D01*
X86226860Y-115119054D02*
X86131622Y-115166673D01*
X86131622Y-115166673D02*
X86084003Y-115214292D01*
X86084003Y-115214292D02*
X86036384Y-115309530D01*
X86036384Y-115309530D02*
X86036384Y-115357149D01*
X86036384Y-115357149D02*
X86084003Y-115452387D01*
X86084003Y-115452387D02*
X86131622Y-115500006D01*
X86131622Y-115500006D02*
X86226860Y-115547625D01*
X86226860Y-115547625D02*
X86417336Y-115547625D01*
X86417336Y-115547625D02*
X86512574Y-115595244D01*
X86512574Y-115595244D02*
X86560193Y-115642863D01*
X86560193Y-115642863D02*
X86607812Y-115738101D01*
X86607812Y-115738101D02*
X86607812Y-115928577D01*
X86607812Y-115928577D02*
X86560193Y-116023815D01*
X86560193Y-116023815D02*
X86512574Y-116071435D01*
X86512574Y-116071435D02*
X86417336Y-116119054D01*
X86417336Y-116119054D02*
X86226860Y-116119054D01*
X86226860Y-116119054D02*
X86131622Y-116071435D01*
X86131622Y-116071435D02*
X86084003Y-116023815D01*
X86084003Y-116023815D02*
X86036384Y-115928577D01*
X86036384Y-115928577D02*
X86036384Y-115738101D01*
X86036384Y-115738101D02*
X86084003Y-115642863D01*
X86084003Y-115642863D02*
X86131622Y-115595244D01*
X86131622Y-115595244D02*
X86226860Y-115547625D01*
X85464955Y-115547625D02*
X85560193Y-115500006D01*
X85560193Y-115500006D02*
X85607812Y-115452387D01*
X85607812Y-115452387D02*
X85655431Y-115357149D01*
X85655431Y-115357149D02*
X85655431Y-115309530D01*
X85655431Y-115309530D02*
X85607812Y-115214292D01*
X85607812Y-115214292D02*
X85560193Y-115166673D01*
X85560193Y-115166673D02*
X85464955Y-115119054D01*
X85464955Y-115119054D02*
X85274479Y-115119054D01*
X85274479Y-115119054D02*
X85179241Y-115166673D01*
X85179241Y-115166673D02*
X85131622Y-115214292D01*
X85131622Y-115214292D02*
X85084003Y-115309530D01*
X85084003Y-115309530D02*
X85084003Y-115357149D01*
X85084003Y-115357149D02*
X85131622Y-115452387D01*
X85131622Y-115452387D02*
X85179241Y-115500006D01*
X85179241Y-115500006D02*
X85274479Y-115547625D01*
X85274479Y-115547625D02*
X85464955Y-115547625D01*
X85464955Y-115547625D02*
X85560193Y-115595244D01*
X85560193Y-115595244D02*
X85607812Y-115642863D01*
X85607812Y-115642863D02*
X85655431Y-115738101D01*
X85655431Y-115738101D02*
X85655431Y-115928577D01*
X85655431Y-115928577D02*
X85607812Y-116023815D01*
X85607812Y-116023815D02*
X85560193Y-116071435D01*
X85560193Y-116071435D02*
X85464955Y-116119054D01*
X85464955Y-116119054D02*
X85274479Y-116119054D01*
X85274479Y-116119054D02*
X85179241Y-116071435D01*
X85179241Y-116071435D02*
X85131622Y-116023815D01*
X85131622Y-116023815D02*
X85084003Y-115928577D01*
X85084003Y-115928577D02*
X85084003Y-115738101D01*
X85084003Y-115738101D02*
X85131622Y-115642863D01*
X85131622Y-115642863D02*
X85179241Y-115595244D01*
X85179241Y-115595244D02*
X85274479Y-115547625D01*
X65114580Y-62719642D02*
X65162200Y-62672023D01*
X65162200Y-62672023D02*
X65209819Y-62529166D01*
X65209819Y-62529166D02*
X65209819Y-62433928D01*
X65209819Y-62433928D02*
X65162200Y-62291071D01*
X65162200Y-62291071D02*
X65066961Y-62195833D01*
X65066961Y-62195833D02*
X64971723Y-62148214D01*
X64971723Y-62148214D02*
X64781247Y-62100595D01*
X64781247Y-62100595D02*
X64638390Y-62100595D01*
X64638390Y-62100595D02*
X64447914Y-62148214D01*
X64447914Y-62148214D02*
X64352676Y-62195833D01*
X64352676Y-62195833D02*
X64257438Y-62291071D01*
X64257438Y-62291071D02*
X64209819Y-62433928D01*
X64209819Y-62433928D02*
X64209819Y-62529166D01*
X64209819Y-62529166D02*
X64257438Y-62672023D01*
X64257438Y-62672023D02*
X64305057Y-62719642D01*
X64305057Y-63100595D02*
X64257438Y-63148214D01*
X64257438Y-63148214D02*
X64209819Y-63243452D01*
X64209819Y-63243452D02*
X64209819Y-63481547D01*
X64209819Y-63481547D02*
X64257438Y-63576785D01*
X64257438Y-63576785D02*
X64305057Y-63624404D01*
X64305057Y-63624404D02*
X64400295Y-63672023D01*
X64400295Y-63672023D02*
X64495533Y-63672023D01*
X64495533Y-63672023D02*
X64638390Y-63624404D01*
X64638390Y-63624404D02*
X65209819Y-63052976D01*
X65209819Y-63052976D02*
X65209819Y-63672023D01*
X64209819Y-64576785D02*
X64209819Y-64100595D01*
X64209819Y-64100595D02*
X64686009Y-64052976D01*
X64686009Y-64052976D02*
X64638390Y-64100595D01*
X64638390Y-64100595D02*
X64590771Y-64195833D01*
X64590771Y-64195833D02*
X64590771Y-64433928D01*
X64590771Y-64433928D02*
X64638390Y-64529166D01*
X64638390Y-64529166D02*
X64686009Y-64576785D01*
X64686009Y-64576785D02*
X64781247Y-64624404D01*
X64781247Y-64624404D02*
X65019342Y-64624404D01*
X65019342Y-64624404D02*
X65114580Y-64576785D01*
X65114580Y-64576785D02*
X65162200Y-64529166D01*
X65162200Y-64529166D02*
X65209819Y-64433928D01*
X65209819Y-64433928D02*
X65209819Y-64195833D01*
X65209819Y-64195833D02*
X65162200Y-64100595D01*
X65162200Y-64100595D02*
X65114580Y-64052976D01*
X66664580Y-62694642D02*
X66712200Y-62647023D01*
X66712200Y-62647023D02*
X66759819Y-62504166D01*
X66759819Y-62504166D02*
X66759819Y-62408928D01*
X66759819Y-62408928D02*
X66712200Y-62266071D01*
X66712200Y-62266071D02*
X66616961Y-62170833D01*
X66616961Y-62170833D02*
X66521723Y-62123214D01*
X66521723Y-62123214D02*
X66331247Y-62075595D01*
X66331247Y-62075595D02*
X66188390Y-62075595D01*
X66188390Y-62075595D02*
X65997914Y-62123214D01*
X65997914Y-62123214D02*
X65902676Y-62170833D01*
X65902676Y-62170833D02*
X65807438Y-62266071D01*
X65807438Y-62266071D02*
X65759819Y-62408928D01*
X65759819Y-62408928D02*
X65759819Y-62504166D01*
X65759819Y-62504166D02*
X65807438Y-62647023D01*
X65807438Y-62647023D02*
X65855057Y-62694642D01*
X65855057Y-63075595D02*
X65807438Y-63123214D01*
X65807438Y-63123214D02*
X65759819Y-63218452D01*
X65759819Y-63218452D02*
X65759819Y-63456547D01*
X65759819Y-63456547D02*
X65807438Y-63551785D01*
X65807438Y-63551785D02*
X65855057Y-63599404D01*
X65855057Y-63599404D02*
X65950295Y-63647023D01*
X65950295Y-63647023D02*
X66045533Y-63647023D01*
X66045533Y-63647023D02*
X66188390Y-63599404D01*
X66188390Y-63599404D02*
X66759819Y-63027976D01*
X66759819Y-63027976D02*
X66759819Y-63647023D01*
X65759819Y-64504166D02*
X65759819Y-64313690D01*
X65759819Y-64313690D02*
X65807438Y-64218452D01*
X65807438Y-64218452D02*
X65855057Y-64170833D01*
X65855057Y-64170833D02*
X65997914Y-64075595D01*
X65997914Y-64075595D02*
X66188390Y-64027976D01*
X66188390Y-64027976D02*
X66569342Y-64027976D01*
X66569342Y-64027976D02*
X66664580Y-64075595D01*
X66664580Y-64075595D02*
X66712200Y-64123214D01*
X66712200Y-64123214D02*
X66759819Y-64218452D01*
X66759819Y-64218452D02*
X66759819Y-64408928D01*
X66759819Y-64408928D02*
X66712200Y-64504166D01*
X66712200Y-64504166D02*
X66664580Y-64551785D01*
X66664580Y-64551785D02*
X66569342Y-64599404D01*
X66569342Y-64599404D02*
X66331247Y-64599404D01*
X66331247Y-64599404D02*
X66236009Y-64551785D01*
X66236009Y-64551785D02*
X66188390Y-64504166D01*
X66188390Y-64504166D02*
X66140771Y-64408928D01*
X66140771Y-64408928D02*
X66140771Y-64218452D01*
X66140771Y-64218452D02*
X66188390Y-64123214D01*
X66188390Y-64123214D02*
X66236009Y-64075595D01*
X66236009Y-64075595D02*
X66331247Y-64027976D01*
X68358333Y-65941009D02*
X68691666Y-65941009D01*
X68691666Y-66464819D02*
X68691666Y-65464819D01*
X68691666Y-65464819D02*
X68215476Y-65464819D01*
X67501190Y-65941009D02*
X67358333Y-65988628D01*
X67358333Y-65988628D02*
X67310714Y-66036247D01*
X67310714Y-66036247D02*
X67263095Y-66131485D01*
X67263095Y-66131485D02*
X67263095Y-66274342D01*
X67263095Y-66274342D02*
X67310714Y-66369580D01*
X67310714Y-66369580D02*
X67358333Y-66417200D01*
X67358333Y-66417200D02*
X67453571Y-66464819D01*
X67453571Y-66464819D02*
X67834523Y-66464819D01*
X67834523Y-66464819D02*
X67834523Y-65464819D01*
X67834523Y-65464819D02*
X67501190Y-65464819D01*
X67501190Y-65464819D02*
X67405952Y-65512438D01*
X67405952Y-65512438D02*
X67358333Y-65560057D01*
X67358333Y-65560057D02*
X67310714Y-65655295D01*
X67310714Y-65655295D02*
X67310714Y-65750533D01*
X67310714Y-65750533D02*
X67358333Y-65845771D01*
X67358333Y-65845771D02*
X67405952Y-65893390D01*
X67405952Y-65893390D02*
X67501190Y-65941009D01*
X67501190Y-65941009D02*
X67834523Y-65941009D01*
X66310714Y-66464819D02*
X66882142Y-66464819D01*
X66596428Y-66464819D02*
X66596428Y-65464819D01*
X66596428Y-65464819D02*
X66691666Y-65607676D01*
X66691666Y-65607676D02*
X66786904Y-65702914D01*
X66786904Y-65702914D02*
X66882142Y-65750533D01*
X59793857Y-66632142D02*
X59841477Y-66584523D01*
X59841477Y-66584523D02*
X59889096Y-66441666D01*
X59889096Y-66441666D02*
X59889096Y-66346428D01*
X59889096Y-66346428D02*
X59841477Y-66203571D01*
X59841477Y-66203571D02*
X59746238Y-66108333D01*
X59746238Y-66108333D02*
X59651000Y-66060714D01*
X59651000Y-66060714D02*
X59460524Y-66013095D01*
X59460524Y-66013095D02*
X59317667Y-66013095D01*
X59317667Y-66013095D02*
X59127191Y-66060714D01*
X59127191Y-66060714D02*
X59031953Y-66108333D01*
X59031953Y-66108333D02*
X58936715Y-66203571D01*
X58936715Y-66203571D02*
X58889096Y-66346428D01*
X58889096Y-66346428D02*
X58889096Y-66441666D01*
X58889096Y-66441666D02*
X58936715Y-66584523D01*
X58936715Y-66584523D02*
X58984334Y-66632142D01*
X58984334Y-67013095D02*
X58936715Y-67060714D01*
X58936715Y-67060714D02*
X58889096Y-67155952D01*
X58889096Y-67155952D02*
X58889096Y-67394047D01*
X58889096Y-67394047D02*
X58936715Y-67489285D01*
X58936715Y-67489285D02*
X58984334Y-67536904D01*
X58984334Y-67536904D02*
X59079572Y-67584523D01*
X59079572Y-67584523D02*
X59174810Y-67584523D01*
X59174810Y-67584523D02*
X59317667Y-67536904D01*
X59317667Y-67536904D02*
X59889096Y-66965476D01*
X59889096Y-66965476D02*
X59889096Y-67584523D01*
X59889096Y-68536904D02*
X59889096Y-67965476D01*
X59889096Y-68251190D02*
X58889096Y-68251190D01*
X58889096Y-68251190D02*
X59031953Y-68155952D01*
X59031953Y-68155952D02*
X59127191Y-68060714D01*
X59127191Y-68060714D02*
X59174810Y-67965476D01*
X72761836Y-114570310D02*
X72285645Y-114236977D01*
X72761836Y-113998882D02*
X71761836Y-113998882D01*
X71761836Y-113998882D02*
X71761836Y-114379834D01*
X71761836Y-114379834D02*
X71809455Y-114475072D01*
X71809455Y-114475072D02*
X71857074Y-114522691D01*
X71857074Y-114522691D02*
X71952312Y-114570310D01*
X71952312Y-114570310D02*
X72095169Y-114570310D01*
X72095169Y-114570310D02*
X72190407Y-114522691D01*
X72190407Y-114522691D02*
X72238026Y-114475072D01*
X72238026Y-114475072D02*
X72285645Y-114379834D01*
X72285645Y-114379834D02*
X72285645Y-113998882D01*
X71761836Y-115475072D02*
X71761836Y-114998882D01*
X71761836Y-114998882D02*
X72238026Y-114951263D01*
X72238026Y-114951263D02*
X72190407Y-114998882D01*
X72190407Y-114998882D02*
X72142788Y-115094120D01*
X72142788Y-115094120D02*
X72142788Y-115332215D01*
X72142788Y-115332215D02*
X72190407Y-115427453D01*
X72190407Y-115427453D02*
X72238026Y-115475072D01*
X72238026Y-115475072D02*
X72333264Y-115522691D01*
X72333264Y-115522691D02*
X72571359Y-115522691D01*
X72571359Y-115522691D02*
X72666597Y-115475072D01*
X72666597Y-115475072D02*
X72714217Y-115427453D01*
X72714217Y-115427453D02*
X72761836Y-115332215D01*
X72761836Y-115332215D02*
X72761836Y-115094120D01*
X72761836Y-115094120D02*
X72714217Y-114998882D01*
X72714217Y-114998882D02*
X72666597Y-114951263D01*
X71761836Y-116427453D02*
X71761836Y-115951263D01*
X71761836Y-115951263D02*
X72238026Y-115903644D01*
X72238026Y-115903644D02*
X72190407Y-115951263D01*
X72190407Y-115951263D02*
X72142788Y-116046501D01*
X72142788Y-116046501D02*
X72142788Y-116284596D01*
X72142788Y-116284596D02*
X72190407Y-116379834D01*
X72190407Y-116379834D02*
X72238026Y-116427453D01*
X72238026Y-116427453D02*
X72333264Y-116475072D01*
X72333264Y-116475072D02*
X72571359Y-116475072D01*
X72571359Y-116475072D02*
X72666597Y-116427453D01*
X72666597Y-116427453D02*
X72714217Y-116379834D01*
X72714217Y-116379834D02*
X72761836Y-116284596D01*
X72761836Y-116284596D02*
X72761836Y-116046501D01*
X72761836Y-116046501D02*
X72714217Y-115951263D01*
X72714217Y-115951263D02*
X72666597Y-115903644D01*
X61313857Y-66632142D02*
X61361477Y-66584523D01*
X61361477Y-66584523D02*
X61409096Y-66441666D01*
X61409096Y-66441666D02*
X61409096Y-66346428D01*
X61409096Y-66346428D02*
X61361477Y-66203571D01*
X61361477Y-66203571D02*
X61266238Y-66108333D01*
X61266238Y-66108333D02*
X61171000Y-66060714D01*
X61171000Y-66060714D02*
X60980524Y-66013095D01*
X60980524Y-66013095D02*
X60837667Y-66013095D01*
X60837667Y-66013095D02*
X60647191Y-66060714D01*
X60647191Y-66060714D02*
X60551953Y-66108333D01*
X60551953Y-66108333D02*
X60456715Y-66203571D01*
X60456715Y-66203571D02*
X60409096Y-66346428D01*
X60409096Y-66346428D02*
X60409096Y-66441666D01*
X60409096Y-66441666D02*
X60456715Y-66584523D01*
X60456715Y-66584523D02*
X60504334Y-66632142D01*
X60504334Y-67013095D02*
X60456715Y-67060714D01*
X60456715Y-67060714D02*
X60409096Y-67155952D01*
X60409096Y-67155952D02*
X60409096Y-67394047D01*
X60409096Y-67394047D02*
X60456715Y-67489285D01*
X60456715Y-67489285D02*
X60504334Y-67536904D01*
X60504334Y-67536904D02*
X60599572Y-67584523D01*
X60599572Y-67584523D02*
X60694810Y-67584523D01*
X60694810Y-67584523D02*
X60837667Y-67536904D01*
X60837667Y-67536904D02*
X61409096Y-66965476D01*
X61409096Y-66965476D02*
X61409096Y-67584523D01*
X60504334Y-67965476D02*
X60456715Y-68013095D01*
X60456715Y-68013095D02*
X60409096Y-68108333D01*
X60409096Y-68108333D02*
X60409096Y-68346428D01*
X60409096Y-68346428D02*
X60456715Y-68441666D01*
X60456715Y-68441666D02*
X60504334Y-68489285D01*
X60504334Y-68489285D02*
X60599572Y-68536904D01*
X60599572Y-68536904D02*
X60694810Y-68536904D01*
X60694810Y-68536904D02*
X60837667Y-68489285D01*
X60837667Y-68489285D02*
X61409096Y-67917857D01*
X61409096Y-67917857D02*
X61409096Y-68536904D01*
X146033748Y-113943974D02*
X145557557Y-113610641D01*
X146033748Y-113372546D02*
X145033748Y-113372546D01*
X145033748Y-113372546D02*
X145033748Y-113753498D01*
X145033748Y-113753498D02*
X145081367Y-113848736D01*
X145081367Y-113848736D02*
X145128986Y-113896355D01*
X145128986Y-113896355D02*
X145224224Y-113943974D01*
X145224224Y-113943974D02*
X145367081Y-113943974D01*
X145367081Y-113943974D02*
X145462319Y-113896355D01*
X145462319Y-113896355D02*
X145509938Y-113848736D01*
X145509938Y-113848736D02*
X145557557Y-113753498D01*
X145557557Y-113753498D02*
X145557557Y-113372546D01*
X145033748Y-114277308D02*
X145033748Y-114896355D01*
X145033748Y-114896355D02*
X145414700Y-114563022D01*
X145414700Y-114563022D02*
X145414700Y-114705879D01*
X145414700Y-114705879D02*
X145462319Y-114801117D01*
X145462319Y-114801117D02*
X145509938Y-114848736D01*
X145509938Y-114848736D02*
X145605176Y-114896355D01*
X145605176Y-114896355D02*
X145843271Y-114896355D01*
X145843271Y-114896355D02*
X145938509Y-114848736D01*
X145938509Y-114848736D02*
X145986129Y-114801117D01*
X145986129Y-114801117D02*
X146033748Y-114705879D01*
X146033748Y-114705879D02*
X146033748Y-114420165D01*
X146033748Y-114420165D02*
X145986129Y-114324927D01*
X145986129Y-114324927D02*
X145938509Y-114277308D01*
X145033748Y-115753498D02*
X145033748Y-115563022D01*
X145033748Y-115563022D02*
X145081367Y-115467784D01*
X145081367Y-115467784D02*
X145128986Y-115420165D01*
X145128986Y-115420165D02*
X145271843Y-115324927D01*
X145271843Y-115324927D02*
X145462319Y-115277308D01*
X145462319Y-115277308D02*
X145843271Y-115277308D01*
X145843271Y-115277308D02*
X145938509Y-115324927D01*
X145938509Y-115324927D02*
X145986129Y-115372546D01*
X145986129Y-115372546D02*
X146033748Y-115467784D01*
X146033748Y-115467784D02*
X146033748Y-115658260D01*
X146033748Y-115658260D02*
X145986129Y-115753498D01*
X145986129Y-115753498D02*
X145938509Y-115801117D01*
X145938509Y-115801117D02*
X145843271Y-115848736D01*
X145843271Y-115848736D02*
X145605176Y-115848736D01*
X145605176Y-115848736D02*
X145509938Y-115801117D01*
X145509938Y-115801117D02*
X145462319Y-115753498D01*
X145462319Y-115753498D02*
X145414700Y-115658260D01*
X145414700Y-115658260D02*
X145414700Y-115467784D01*
X145414700Y-115467784D02*
X145462319Y-115372546D01*
X145462319Y-115372546D02*
X145509938Y-115324927D01*
X145509938Y-115324927D02*
X145605176Y-115277308D01*
X120489819Y-133007142D02*
X120013628Y-132673809D01*
X120489819Y-132435714D02*
X119489819Y-132435714D01*
X119489819Y-132435714D02*
X119489819Y-132816666D01*
X119489819Y-132816666D02*
X119537438Y-132911904D01*
X119537438Y-132911904D02*
X119585057Y-132959523D01*
X119585057Y-132959523D02*
X119680295Y-133007142D01*
X119680295Y-133007142D02*
X119823152Y-133007142D01*
X119823152Y-133007142D02*
X119918390Y-132959523D01*
X119918390Y-132959523D02*
X119966009Y-132911904D01*
X119966009Y-132911904D02*
X120013628Y-132816666D01*
X120013628Y-132816666D02*
X120013628Y-132435714D01*
X119489819Y-133340476D02*
X119489819Y-134007142D01*
X119489819Y-134007142D02*
X120489819Y-133578571D01*
X119489819Y-134578571D02*
X119489819Y-134673809D01*
X119489819Y-134673809D02*
X119537438Y-134769047D01*
X119537438Y-134769047D02*
X119585057Y-134816666D01*
X119585057Y-134816666D02*
X119680295Y-134864285D01*
X119680295Y-134864285D02*
X119870771Y-134911904D01*
X119870771Y-134911904D02*
X120108866Y-134911904D01*
X120108866Y-134911904D02*
X120299342Y-134864285D01*
X120299342Y-134864285D02*
X120394580Y-134816666D01*
X120394580Y-134816666D02*
X120442200Y-134769047D01*
X120442200Y-134769047D02*
X120489819Y-134673809D01*
X120489819Y-134673809D02*
X120489819Y-134578571D01*
X120489819Y-134578571D02*
X120442200Y-134483333D01*
X120442200Y-134483333D02*
X120394580Y-134435714D01*
X120394580Y-134435714D02*
X120299342Y-134388095D01*
X120299342Y-134388095D02*
X120108866Y-134340476D01*
X120108866Y-134340476D02*
X119870771Y-134340476D01*
X119870771Y-134340476D02*
X119680295Y-134388095D01*
X119680295Y-134388095D02*
X119585057Y-134435714D01*
X119585057Y-134435714D02*
X119537438Y-134483333D01*
X119537438Y-134483333D02*
X119489819Y-134578571D01*
X109050727Y-137921377D02*
X108574536Y-137588044D01*
X109050727Y-137349949D02*
X108050727Y-137349949D01*
X108050727Y-137349949D02*
X108050727Y-137730901D01*
X108050727Y-137730901D02*
X108098346Y-137826139D01*
X108098346Y-137826139D02*
X108145965Y-137873758D01*
X108145965Y-137873758D02*
X108241203Y-137921377D01*
X108241203Y-137921377D02*
X108384060Y-137921377D01*
X108384060Y-137921377D02*
X108479298Y-137873758D01*
X108479298Y-137873758D02*
X108526917Y-137826139D01*
X108526917Y-137826139D02*
X108574536Y-137730901D01*
X108574536Y-137730901D02*
X108574536Y-137349949D01*
X108050727Y-138254711D02*
X108050727Y-138873758D01*
X108050727Y-138873758D02*
X108431679Y-138540425D01*
X108431679Y-138540425D02*
X108431679Y-138683282D01*
X108431679Y-138683282D02*
X108479298Y-138778520D01*
X108479298Y-138778520D02*
X108526917Y-138826139D01*
X108526917Y-138826139D02*
X108622155Y-138873758D01*
X108622155Y-138873758D02*
X108860250Y-138873758D01*
X108860250Y-138873758D02*
X108955488Y-138826139D01*
X108955488Y-138826139D02*
X109003108Y-138778520D01*
X109003108Y-138778520D02*
X109050727Y-138683282D01*
X109050727Y-138683282D02*
X109050727Y-138397568D01*
X109050727Y-138397568D02*
X109003108Y-138302330D01*
X109003108Y-138302330D02*
X108955488Y-138254711D01*
X108050727Y-139207092D02*
X108050727Y-139826139D01*
X108050727Y-139826139D02*
X108431679Y-139492806D01*
X108431679Y-139492806D02*
X108431679Y-139635663D01*
X108431679Y-139635663D02*
X108479298Y-139730901D01*
X108479298Y-139730901D02*
X108526917Y-139778520D01*
X108526917Y-139778520D02*
X108622155Y-139826139D01*
X108622155Y-139826139D02*
X108860250Y-139826139D01*
X108860250Y-139826139D02*
X108955488Y-139778520D01*
X108955488Y-139778520D02*
X109003108Y-139730901D01*
X109003108Y-139730901D02*
X109050727Y-139635663D01*
X109050727Y-139635663D02*
X109050727Y-139349949D01*
X109050727Y-139349949D02*
X109003108Y-139254711D01*
X109003108Y-139254711D02*
X108955488Y-139207092D01*
X98850727Y-114621377D02*
X98374536Y-114288044D01*
X98850727Y-114049949D02*
X97850727Y-114049949D01*
X97850727Y-114049949D02*
X97850727Y-114430901D01*
X97850727Y-114430901D02*
X97898346Y-114526139D01*
X97898346Y-114526139D02*
X97945965Y-114573758D01*
X97945965Y-114573758D02*
X98041203Y-114621377D01*
X98041203Y-114621377D02*
X98184060Y-114621377D01*
X98184060Y-114621377D02*
X98279298Y-114573758D01*
X98279298Y-114573758D02*
X98326917Y-114526139D01*
X98326917Y-114526139D02*
X98374536Y-114430901D01*
X98374536Y-114430901D02*
X98374536Y-114049949D01*
X97850727Y-114954711D02*
X97850727Y-115573758D01*
X97850727Y-115573758D02*
X98231679Y-115240425D01*
X98231679Y-115240425D02*
X98231679Y-115383282D01*
X98231679Y-115383282D02*
X98279298Y-115478520D01*
X98279298Y-115478520D02*
X98326917Y-115526139D01*
X98326917Y-115526139D02*
X98422155Y-115573758D01*
X98422155Y-115573758D02*
X98660250Y-115573758D01*
X98660250Y-115573758D02*
X98755488Y-115526139D01*
X98755488Y-115526139D02*
X98803108Y-115478520D01*
X98803108Y-115478520D02*
X98850727Y-115383282D01*
X98850727Y-115383282D02*
X98850727Y-115097568D01*
X98850727Y-115097568D02*
X98803108Y-115002330D01*
X98803108Y-115002330D02*
X98755488Y-114954711D01*
X97850727Y-116192806D02*
X97850727Y-116288044D01*
X97850727Y-116288044D02*
X97898346Y-116383282D01*
X97898346Y-116383282D02*
X97945965Y-116430901D01*
X97945965Y-116430901D02*
X98041203Y-116478520D01*
X98041203Y-116478520D02*
X98231679Y-116526139D01*
X98231679Y-116526139D02*
X98469774Y-116526139D01*
X98469774Y-116526139D02*
X98660250Y-116478520D01*
X98660250Y-116478520D02*
X98755488Y-116430901D01*
X98755488Y-116430901D02*
X98803108Y-116383282D01*
X98803108Y-116383282D02*
X98850727Y-116288044D01*
X98850727Y-116288044D02*
X98850727Y-116192806D01*
X98850727Y-116192806D02*
X98803108Y-116097568D01*
X98803108Y-116097568D02*
X98755488Y-116049949D01*
X98755488Y-116049949D02*
X98660250Y-116002330D01*
X98660250Y-116002330D02*
X98469774Y-115954711D01*
X98469774Y-115954711D02*
X98231679Y-115954711D01*
X98231679Y-115954711D02*
X98041203Y-116002330D01*
X98041203Y-116002330D02*
X97945965Y-116049949D01*
X97945965Y-116049949D02*
X97898346Y-116097568D01*
X97898346Y-116097568D02*
X97850727Y-116192806D01*
X82895727Y-118127330D02*
X83705250Y-118127330D01*
X83705250Y-118127330D02*
X83800488Y-118174949D01*
X83800488Y-118174949D02*
X83848108Y-118222568D01*
X83848108Y-118222568D02*
X83895727Y-118317806D01*
X83895727Y-118317806D02*
X83895727Y-118508282D01*
X83895727Y-118508282D02*
X83848108Y-118603520D01*
X83848108Y-118603520D02*
X83800488Y-118651139D01*
X83800488Y-118651139D02*
X83705250Y-118698758D01*
X83705250Y-118698758D02*
X82895727Y-118698758D01*
X82895727Y-119603520D02*
X82895727Y-119413044D01*
X82895727Y-119413044D02*
X82943346Y-119317806D01*
X82943346Y-119317806D02*
X82990965Y-119270187D01*
X82990965Y-119270187D02*
X83133822Y-119174949D01*
X83133822Y-119174949D02*
X83324298Y-119127330D01*
X83324298Y-119127330D02*
X83705250Y-119127330D01*
X83705250Y-119127330D02*
X83800488Y-119174949D01*
X83800488Y-119174949D02*
X83848108Y-119222568D01*
X83848108Y-119222568D02*
X83895727Y-119317806D01*
X83895727Y-119317806D02*
X83895727Y-119508282D01*
X83895727Y-119508282D02*
X83848108Y-119603520D01*
X83848108Y-119603520D02*
X83800488Y-119651139D01*
X83800488Y-119651139D02*
X83705250Y-119698758D01*
X83705250Y-119698758D02*
X83467155Y-119698758D01*
X83467155Y-119698758D02*
X83371917Y-119651139D01*
X83371917Y-119651139D02*
X83324298Y-119603520D01*
X83324298Y-119603520D02*
X83276679Y-119508282D01*
X83276679Y-119508282D02*
X83276679Y-119317806D01*
X83276679Y-119317806D02*
X83324298Y-119222568D01*
X83324298Y-119222568D02*
X83371917Y-119174949D01*
X83371917Y-119174949D02*
X83467155Y-119127330D01*
X109650727Y-114721377D02*
X109174536Y-114388044D01*
X109650727Y-114149949D02*
X108650727Y-114149949D01*
X108650727Y-114149949D02*
X108650727Y-114530901D01*
X108650727Y-114530901D02*
X108698346Y-114626139D01*
X108698346Y-114626139D02*
X108745965Y-114673758D01*
X108745965Y-114673758D02*
X108841203Y-114721377D01*
X108841203Y-114721377D02*
X108984060Y-114721377D01*
X108984060Y-114721377D02*
X109079298Y-114673758D01*
X109079298Y-114673758D02*
X109126917Y-114626139D01*
X109126917Y-114626139D02*
X109174536Y-114530901D01*
X109174536Y-114530901D02*
X109174536Y-114149949D01*
X108650727Y-115054711D02*
X108650727Y-115673758D01*
X108650727Y-115673758D02*
X109031679Y-115340425D01*
X109031679Y-115340425D02*
X109031679Y-115483282D01*
X109031679Y-115483282D02*
X109079298Y-115578520D01*
X109079298Y-115578520D02*
X109126917Y-115626139D01*
X109126917Y-115626139D02*
X109222155Y-115673758D01*
X109222155Y-115673758D02*
X109460250Y-115673758D01*
X109460250Y-115673758D02*
X109555488Y-115626139D01*
X109555488Y-115626139D02*
X109603108Y-115578520D01*
X109603108Y-115578520D02*
X109650727Y-115483282D01*
X109650727Y-115483282D02*
X109650727Y-115197568D01*
X109650727Y-115197568D02*
X109603108Y-115102330D01*
X109603108Y-115102330D02*
X109555488Y-115054711D01*
X108745965Y-116054711D02*
X108698346Y-116102330D01*
X108698346Y-116102330D02*
X108650727Y-116197568D01*
X108650727Y-116197568D02*
X108650727Y-116435663D01*
X108650727Y-116435663D02*
X108698346Y-116530901D01*
X108698346Y-116530901D02*
X108745965Y-116578520D01*
X108745965Y-116578520D02*
X108841203Y-116626139D01*
X108841203Y-116626139D02*
X108936441Y-116626139D01*
X108936441Y-116626139D02*
X109079298Y-116578520D01*
X109079298Y-116578520D02*
X109650727Y-116007092D01*
X109650727Y-116007092D02*
X109650727Y-116626139D01*
X135233748Y-113943974D02*
X134757557Y-113610641D01*
X135233748Y-113372546D02*
X134233748Y-113372546D01*
X134233748Y-113372546D02*
X134233748Y-113753498D01*
X134233748Y-113753498D02*
X134281367Y-113848736D01*
X134281367Y-113848736D02*
X134328986Y-113896355D01*
X134328986Y-113896355D02*
X134424224Y-113943974D01*
X134424224Y-113943974D02*
X134567081Y-113943974D01*
X134567081Y-113943974D02*
X134662319Y-113896355D01*
X134662319Y-113896355D02*
X134709938Y-113848736D01*
X134709938Y-113848736D02*
X134757557Y-113753498D01*
X134757557Y-113753498D02*
X134757557Y-113372546D01*
X134233748Y-114277308D02*
X134233748Y-114896355D01*
X134233748Y-114896355D02*
X134614700Y-114563022D01*
X134614700Y-114563022D02*
X134614700Y-114705879D01*
X134614700Y-114705879D02*
X134662319Y-114801117D01*
X134662319Y-114801117D02*
X134709938Y-114848736D01*
X134709938Y-114848736D02*
X134805176Y-114896355D01*
X134805176Y-114896355D02*
X135043271Y-114896355D01*
X135043271Y-114896355D02*
X135138509Y-114848736D01*
X135138509Y-114848736D02*
X135186129Y-114801117D01*
X135186129Y-114801117D02*
X135233748Y-114705879D01*
X135233748Y-114705879D02*
X135233748Y-114420165D01*
X135233748Y-114420165D02*
X135186129Y-114324927D01*
X135186129Y-114324927D02*
X135138509Y-114277308D01*
X134567081Y-115753498D02*
X135233748Y-115753498D01*
X134186129Y-115515403D02*
X134900414Y-115277308D01*
X134900414Y-115277308D02*
X134900414Y-115896355D01*
X134933748Y-137343974D02*
X134457557Y-137010641D01*
X134933748Y-136772546D02*
X133933748Y-136772546D01*
X133933748Y-136772546D02*
X133933748Y-137153498D01*
X133933748Y-137153498D02*
X133981367Y-137248736D01*
X133981367Y-137248736D02*
X134028986Y-137296355D01*
X134028986Y-137296355D02*
X134124224Y-137343974D01*
X134124224Y-137343974D02*
X134267081Y-137343974D01*
X134267081Y-137343974D02*
X134362319Y-137296355D01*
X134362319Y-137296355D02*
X134409938Y-137248736D01*
X134409938Y-137248736D02*
X134457557Y-137153498D01*
X134457557Y-137153498D02*
X134457557Y-136772546D01*
X133933748Y-137677308D02*
X133933748Y-138296355D01*
X133933748Y-138296355D02*
X134314700Y-137963022D01*
X134314700Y-137963022D02*
X134314700Y-138105879D01*
X134314700Y-138105879D02*
X134362319Y-138201117D01*
X134362319Y-138201117D02*
X134409938Y-138248736D01*
X134409938Y-138248736D02*
X134505176Y-138296355D01*
X134505176Y-138296355D02*
X134743271Y-138296355D01*
X134743271Y-138296355D02*
X134838509Y-138248736D01*
X134838509Y-138248736D02*
X134886129Y-138201117D01*
X134886129Y-138201117D02*
X134933748Y-138105879D01*
X134933748Y-138105879D02*
X134933748Y-137820165D01*
X134933748Y-137820165D02*
X134886129Y-137724927D01*
X134886129Y-137724927D02*
X134838509Y-137677308D01*
X133933748Y-139201117D02*
X133933748Y-138724927D01*
X133933748Y-138724927D02*
X134409938Y-138677308D01*
X134409938Y-138677308D02*
X134362319Y-138724927D01*
X134362319Y-138724927D02*
X134314700Y-138820165D01*
X134314700Y-138820165D02*
X134314700Y-139058260D01*
X134314700Y-139058260D02*
X134362319Y-139153498D01*
X134362319Y-139153498D02*
X134409938Y-139201117D01*
X134409938Y-139201117D02*
X134505176Y-139248736D01*
X134505176Y-139248736D02*
X134743271Y-139248736D01*
X134743271Y-139248736D02*
X134838509Y-139201117D01*
X134838509Y-139201117D02*
X134886129Y-139153498D01*
X134886129Y-139153498D02*
X134933748Y-139058260D01*
X134933748Y-139058260D02*
X134933748Y-138820165D01*
X134933748Y-138820165D02*
X134886129Y-138724927D01*
X134886129Y-138724927D02*
X134838509Y-138677308D01*
X70513857Y-56249642D02*
X70561477Y-56202023D01*
X70561477Y-56202023D02*
X70609096Y-56059166D01*
X70609096Y-56059166D02*
X70609096Y-55963928D01*
X70609096Y-55963928D02*
X70561477Y-55821071D01*
X70561477Y-55821071D02*
X70466238Y-55725833D01*
X70466238Y-55725833D02*
X70371000Y-55678214D01*
X70371000Y-55678214D02*
X70180524Y-55630595D01*
X70180524Y-55630595D02*
X70037667Y-55630595D01*
X70037667Y-55630595D02*
X69847191Y-55678214D01*
X69847191Y-55678214D02*
X69751953Y-55725833D01*
X69751953Y-55725833D02*
X69656715Y-55821071D01*
X69656715Y-55821071D02*
X69609096Y-55963928D01*
X69609096Y-55963928D02*
X69609096Y-56059166D01*
X69609096Y-56059166D02*
X69656715Y-56202023D01*
X69656715Y-56202023D02*
X69704334Y-56249642D01*
X69609096Y-57154404D02*
X69609096Y-56678214D01*
X69609096Y-56678214D02*
X70085286Y-56630595D01*
X70085286Y-56630595D02*
X70037667Y-56678214D01*
X70037667Y-56678214D02*
X69990048Y-56773452D01*
X69990048Y-56773452D02*
X69990048Y-57011547D01*
X69990048Y-57011547D02*
X70037667Y-57106785D01*
X70037667Y-57106785D02*
X70085286Y-57154404D01*
X70085286Y-57154404D02*
X70180524Y-57202023D01*
X70180524Y-57202023D02*
X70418619Y-57202023D01*
X70418619Y-57202023D02*
X70513857Y-57154404D01*
X70513857Y-57154404D02*
X70561477Y-57106785D01*
X70561477Y-57106785D02*
X70609096Y-57011547D01*
X70609096Y-57011547D02*
X70609096Y-56773452D01*
X70609096Y-56773452D02*
X70561477Y-56678214D01*
X70561477Y-56678214D02*
X70513857Y-56630595D01*
X69704334Y-57582976D02*
X69656715Y-57630595D01*
X69656715Y-57630595D02*
X69609096Y-57725833D01*
X69609096Y-57725833D02*
X69609096Y-57963928D01*
X69609096Y-57963928D02*
X69656715Y-58059166D01*
X69656715Y-58059166D02*
X69704334Y-58106785D01*
X69704334Y-58106785D02*
X69799572Y-58154404D01*
X69799572Y-58154404D02*
X69894810Y-58154404D01*
X69894810Y-58154404D02*
X70037667Y-58106785D01*
X70037667Y-58106785D02*
X70609096Y-57535357D01*
X70609096Y-57535357D02*
X70609096Y-58154404D01*
X72003857Y-56239642D02*
X72051477Y-56192023D01*
X72051477Y-56192023D02*
X72099096Y-56049166D01*
X72099096Y-56049166D02*
X72099096Y-55953928D01*
X72099096Y-55953928D02*
X72051477Y-55811071D01*
X72051477Y-55811071D02*
X71956238Y-55715833D01*
X71956238Y-55715833D02*
X71861000Y-55668214D01*
X71861000Y-55668214D02*
X71670524Y-55620595D01*
X71670524Y-55620595D02*
X71527667Y-55620595D01*
X71527667Y-55620595D02*
X71337191Y-55668214D01*
X71337191Y-55668214D02*
X71241953Y-55715833D01*
X71241953Y-55715833D02*
X71146715Y-55811071D01*
X71146715Y-55811071D02*
X71099096Y-55953928D01*
X71099096Y-55953928D02*
X71099096Y-56049166D01*
X71099096Y-56049166D02*
X71146715Y-56192023D01*
X71146715Y-56192023D02*
X71194334Y-56239642D01*
X71099096Y-57144404D02*
X71099096Y-56668214D01*
X71099096Y-56668214D02*
X71575286Y-56620595D01*
X71575286Y-56620595D02*
X71527667Y-56668214D01*
X71527667Y-56668214D02*
X71480048Y-56763452D01*
X71480048Y-56763452D02*
X71480048Y-57001547D01*
X71480048Y-57001547D02*
X71527667Y-57096785D01*
X71527667Y-57096785D02*
X71575286Y-57144404D01*
X71575286Y-57144404D02*
X71670524Y-57192023D01*
X71670524Y-57192023D02*
X71908619Y-57192023D01*
X71908619Y-57192023D02*
X72003857Y-57144404D01*
X72003857Y-57144404D02*
X72051477Y-57096785D01*
X72051477Y-57096785D02*
X72099096Y-57001547D01*
X72099096Y-57001547D02*
X72099096Y-56763452D01*
X72099096Y-56763452D02*
X72051477Y-56668214D01*
X72051477Y-56668214D02*
X72003857Y-56620595D01*
X72099096Y-58144404D02*
X72099096Y-57572976D01*
X72099096Y-57858690D02*
X71099096Y-57858690D01*
X71099096Y-57858690D02*
X71241953Y-57763452D01*
X71241953Y-57763452D02*
X71337191Y-57668214D01*
X71337191Y-57668214D02*
X71384810Y-57572976D01*
D12*
%TO.C,R72*%
X157505000Y-130722936D02*
X157505000Y-135077064D01*
X160925000Y-130722936D02*
X160925000Y-135077064D01*
%TO.C,D5*%
X117148929Y-122056832D02*
X117148929Y-116546832D01*
X120448929Y-122056832D02*
X117148929Y-122056832D01*
X120448929Y-122056832D02*
X120448929Y-116546832D01*
%TO.C,R31*%
X95410908Y-138891299D02*
X95410908Y-138437171D01*
X96880908Y-138891299D02*
X96880908Y-138437171D01*
%TO.C,R73*%
X90447224Y-47547500D02*
X89937776Y-47547500D01*
X90447224Y-48592500D02*
X89937776Y-48592500D01*
%TO.C,C45*%
X86435000Y-45493752D02*
X86435000Y-44071248D01*
X89155000Y-45493752D02*
X89155000Y-44071248D01*
%TO.C,C34*%
X77335000Y-66516233D02*
X77335000Y-66808767D01*
X78355000Y-66516233D02*
X78355000Y-66808767D01*
%TO.C,R7*%
X58229277Y-43481237D02*
X58229277Y-42033763D01*
X60939277Y-43481237D02*
X60939277Y-42033763D01*
%TO.C,C36*%
X87241267Y-41000000D02*
X86948733Y-41000000D01*
X87241267Y-42020000D02*
X86948733Y-42020000D01*
%TO.C,C28*%
X58357213Y-46135000D02*
X58811341Y-46135000D01*
X58357213Y-47605000D02*
X58811341Y-47605000D01*
%TO.C,R37*%
X143033929Y-138343896D02*
X143033929Y-137889768D01*
X144503929Y-138343896D02*
X144503929Y-137889768D01*
%TO.C,C9*%
X166851248Y-72640000D02*
X168273752Y-72640000D01*
X166851248Y-75360000D02*
X168273752Y-75360000D01*
%TO.C,C23*%
X63404277Y-67118733D02*
X63404277Y-67411267D01*
X64424277Y-67118733D02*
X64424277Y-67411267D01*
%TO.C,C33*%
X78855000Y-65006233D02*
X78855000Y-65298767D01*
X79875000Y-65006233D02*
X79875000Y-65298767D01*
%TO.C,R20*%
X88594276Y-51130000D02*
X88594278Y-57669999D01*
X88594278Y-57669999D02*
X88924277Y-57670000D01*
X88924277Y-51130001D02*
X88594276Y-51130000D01*
X91004277Y-51130001D02*
X91334277Y-51130000D01*
X91334277Y-51130000D02*
X91334277Y-57670000D01*
X91334277Y-57670000D02*
X91004277Y-57670000D01*
%TO.C,C53*%
X66694277Y-57048767D02*
X66694277Y-56756233D01*
X67714277Y-57048767D02*
X67714277Y-56756233D01*
%TO.C,R57*%
X69422017Y-139787064D02*
X69422017Y-139332936D01*
X70892017Y-139787064D02*
X70892017Y-139332936D01*
%TO.C,R56*%
X58522017Y-139840232D02*
X58522017Y-139386104D01*
X59992017Y-139840232D02*
X59992017Y-139386104D01*
%TO.C,C90*%
X118998929Y-109976832D02*
X118998929Y-113716832D01*
X118998929Y-113716832D02*
X126438929Y-113716832D01*
X126438929Y-109976832D02*
X118998929Y-109976832D01*
X126438929Y-113716832D02*
X126438929Y-109976832D01*
%TO.C,C27*%
X67823752Y-65635000D02*
X67301248Y-65635000D01*
X67823752Y-67105000D02*
X67301248Y-67105000D01*
%TO.C,C35*%
X75855000Y-68076233D02*
X75855000Y-68368767D01*
X76875000Y-68076233D02*
X76875000Y-68368767D01*
%TO.C,R66*%
X80375000Y-135777064D02*
X80375000Y-131422936D01*
X83795000Y-135777064D02*
X83795000Y-131422936D01*
%TO.C,R38*%
X116945000Y-131472936D02*
X116945000Y-135827064D01*
X120365000Y-131472936D02*
X120365000Y-135827064D01*
%TO.C,R13*%
X59122017Y-115540232D02*
X59122017Y-115086104D01*
X60592017Y-115540232D02*
X60592017Y-115086104D01*
%TO.C,U9*%
X47262017Y-116878168D02*
X47262017Y-120998168D01*
X47262017Y-120998168D02*
X47357017Y-120998168D01*
X47357017Y-116878168D02*
X47262017Y-116878168D01*
X52287017Y-120998168D02*
X52382017Y-120998168D01*
X52382017Y-116878168D02*
X52287017Y-116878168D01*
X52382017Y-120998168D02*
X52382017Y-116878168D01*
X47352017Y-116338168D02*
X47022017Y-116578168D01*
X47022017Y-116098168D01*
X47352017Y-116338168D01*
G36*
X47352017Y-116338168D02*
G01*
X47022017Y-116578168D01*
X47022017Y-116098168D01*
X47352017Y-116338168D01*
G37*
%TO.C,D7*%
X43707017Y-122523168D02*
X43707017Y-117013168D01*
X47007017Y-122523168D02*
X43707017Y-122523168D01*
X47007017Y-122523168D02*
X47007017Y-117013168D01*
D13*
%TO.C,G\u002A\u002A\u002A*%
G36*
X171680037Y-118913661D02*
G01*
X172357670Y-118934236D01*
X173139253Y-118969917D01*
X174041126Y-119020473D01*
X175079627Y-119085671D01*
X176271095Y-119165280D01*
X180328812Y-119441672D01*
X180757338Y-120748417D01*
X180854378Y-121048012D01*
X180981280Y-121452979D01*
X181078550Y-121780009D01*
X181138041Y-122001392D01*
X181151607Y-122089419D01*
X181120438Y-122091607D01*
X180942616Y-122085924D01*
X180623025Y-122069067D01*
X180179273Y-122042163D01*
X179628972Y-122006338D01*
X178989729Y-121962721D01*
X178279156Y-121912438D01*
X177514863Y-121856617D01*
X176558191Y-121787789D01*
X175188872Y-121698445D01*
X173971804Y-121632124D01*
X172897124Y-121589102D01*
X171954974Y-121569658D01*
X171135494Y-121574067D01*
X170428822Y-121602607D01*
X169825099Y-121655553D01*
X169314465Y-121733184D01*
X168887060Y-121835776D01*
X168533023Y-121963606D01*
X168242495Y-122116951D01*
X168101704Y-122217179D01*
X167799789Y-122553522D01*
X167640358Y-122953555D01*
X167620254Y-123401057D01*
X167736321Y-123879812D01*
X167985403Y-124373602D01*
X168364344Y-124866207D01*
X168869988Y-125341410D01*
X168978486Y-125426259D01*
X169471681Y-125761332D01*
X170069131Y-126107614D01*
X170723318Y-126440510D01*
X171386728Y-126735422D01*
X172011844Y-126967756D01*
X172062843Y-126984230D01*
X172692040Y-127164552D01*
X173415682Y-127338571D01*
X174170299Y-127493183D01*
X174892422Y-127615283D01*
X175518585Y-127691768D01*
X175743897Y-127710940D01*
X175987096Y-127724545D01*
X176111563Y-127712549D01*
X176148274Y-127669847D01*
X176128208Y-127591336D01*
X176084326Y-127468805D01*
X175995523Y-127206559D01*
X175874049Y-126839960D01*
X175727675Y-126393174D01*
X175564171Y-125890368D01*
X175391308Y-125355710D01*
X175216857Y-124813366D01*
X175048588Y-124287505D01*
X174894272Y-123802293D01*
X174761680Y-123381897D01*
X174658581Y-123050485D01*
X174592748Y-122832223D01*
X174571950Y-122751279D01*
X174572913Y-122750517D01*
X174676328Y-122742604D01*
X174913514Y-122750224D01*
X175250866Y-122770429D01*
X175654776Y-122800269D01*
X176091640Y-122836795D01*
X176527850Y-122877057D01*
X176929801Y-122918108D01*
X177263887Y-122956996D01*
X177496502Y-122990774D01*
X177594039Y-123016492D01*
X177601053Y-123030364D01*
X177654012Y-123171673D01*
X177750408Y-123447785D01*
X177883674Y-123838749D01*
X178047240Y-124324615D01*
X178234540Y-124885433D01*
X178439005Y-125501254D01*
X178654067Y-126152128D01*
X178873158Y-126818105D01*
X179089711Y-127479234D01*
X179297157Y-128115567D01*
X179488929Y-128707152D01*
X179658458Y-129234041D01*
X179799176Y-129676283D01*
X179904516Y-130013929D01*
X179967910Y-130227028D01*
X179976462Y-130256550D01*
X179983173Y-130299463D01*
X179963884Y-130330779D01*
X179900661Y-130350464D01*
X179775566Y-130358481D01*
X179570666Y-130354795D01*
X179268023Y-130339370D01*
X178849704Y-130312171D01*
X178297772Y-130273161D01*
X177594291Y-130222305D01*
X176858816Y-130169113D01*
X177968304Y-133579886D01*
X178098552Y-133981227D01*
X178324150Y-134681061D01*
X178528310Y-135320370D01*
X178705776Y-135882338D01*
X178851292Y-136350146D01*
X178959601Y-136706976D01*
X179025449Y-136936012D01*
X179043578Y-137020436D01*
X179002183Y-137024540D01*
X178816927Y-137020883D01*
X178510334Y-137006279D01*
X178111661Y-136982205D01*
X177650168Y-136950136D01*
X177348599Y-136928685D01*
X176923644Y-136901298D01*
X176580098Y-136882666D01*
X176347285Y-136874309D01*
X176254527Y-136877749D01*
X176259749Y-136916028D01*
X176307954Y-137095820D01*
X176399552Y-137405364D01*
X176528650Y-137825561D01*
X176689353Y-138337310D01*
X176875768Y-138921515D01*
X177082000Y-139559074D01*
X177101847Y-139620038D01*
X177614723Y-141195803D01*
X178075692Y-142612873D01*
X178485623Y-143873936D01*
X178845389Y-144981682D01*
X179155860Y-145938799D01*
X179417906Y-146747977D01*
X179632399Y-147411905D01*
X179800209Y-147933272D01*
X179922208Y-148314767D01*
X179999265Y-148559078D01*
X180032253Y-148668896D01*
X180026777Y-148698955D01*
X179962182Y-148611067D01*
X179850691Y-148414047D01*
X179848830Y-148410542D01*
X179729367Y-148183497D01*
X179541619Y-147824194D01*
X179293300Y-147347532D01*
X178992124Y-146768407D01*
X178645806Y-146101716D01*
X178262058Y-145362358D01*
X177848596Y-144565228D01*
X177413133Y-143725225D01*
X176963383Y-142857246D01*
X176507061Y-141976188D01*
X176051880Y-141096948D01*
X175605554Y-140234423D01*
X175175798Y-139403511D01*
X174770325Y-138619109D01*
X174396850Y-137896115D01*
X174063085Y-137249425D01*
X173776747Y-136693937D01*
X173545548Y-136244548D01*
X173377202Y-135916155D01*
X173279424Y-135723656D01*
X172837283Y-134841293D01*
X173417304Y-134893568D01*
X173760636Y-134923604D01*
X174414330Y-134974573D01*
X174941078Y-135006347D01*
X175330463Y-135018515D01*
X175572067Y-135010661D01*
X175655473Y-134982374D01*
X175649586Y-134954590D01*
X175601155Y-134787176D01*
X175509099Y-134488137D01*
X175379767Y-134077543D01*
X175219506Y-133575467D01*
X175034663Y-133001979D01*
X174831587Y-132377152D01*
X174826320Y-132361012D01*
X174590689Y-131643217D01*
X174399285Y-131071376D01*
X174245896Y-130629563D01*
X174124312Y-130301852D01*
X174028320Y-130072317D01*
X173951712Y-129925032D01*
X173888276Y-129844073D01*
X173831800Y-129813512D01*
X173781669Y-129803927D01*
X173566222Y-129763392D01*
X173253633Y-129705036D01*
X172892977Y-129638032D01*
X172262481Y-129499185D01*
X171300763Y-129220525D01*
X170301320Y-128863620D01*
X169316041Y-128449119D01*
X168396814Y-127997672D01*
X167595531Y-127529927D01*
X167106998Y-127187825D01*
X166358962Y-126540580D01*
X165738753Y-125832951D01*
X165260302Y-125081849D01*
X164937543Y-124304183D01*
X164922017Y-124251427D01*
X164809669Y-123630164D01*
X164791929Y-122946683D01*
X164866350Y-122270316D01*
X165030484Y-121670392D01*
X165109515Y-121486683D01*
X165475117Y-120903556D01*
X165983692Y-120378717D01*
X166618561Y-119924747D01*
X167363044Y-119554224D01*
X168200459Y-119279729D01*
X168474703Y-119212073D01*
X168882186Y-119120417D01*
X169279244Y-119045489D01*
X169682217Y-118987057D01*
X170107443Y-118944891D01*
X170571262Y-118918757D01*
X171090014Y-118908424D01*
X171680037Y-118913661D01*
G37*
D12*
%TO.C,D4*%
X80695908Y-122374235D02*
X80695908Y-116864235D01*
X83995908Y-122374235D02*
X80695908Y-122374235D01*
X83995908Y-122374235D02*
X83995908Y-116864235D01*
%TO.C,R61*%
X153445000Y-130722936D02*
X153445000Y-135077064D01*
X156865000Y-130722936D02*
X156865000Y-135077064D01*
%TO.C,U10*%
X120746429Y-116396832D02*
X120746429Y-120516832D01*
X120746429Y-120516832D02*
X120841429Y-120516832D01*
X120841429Y-116396832D02*
X120746429Y-116396832D01*
X125771429Y-120516832D02*
X125866429Y-120516832D01*
X125866429Y-116396832D02*
X125771429Y-116396832D01*
X125866429Y-120516832D02*
X125866429Y-116396832D01*
X120836429Y-115856832D02*
X120506429Y-116096832D01*
X120506429Y-115616832D01*
X120836429Y-115856832D01*
G36*
X120836429Y-115856832D02*
G01*
X120506429Y-116096832D01*
X120506429Y-115616832D01*
X120836429Y-115856832D01*
G37*
%TO.C,R71*%
X84355000Y-131422936D02*
X84355000Y-135777064D01*
X87775000Y-131422936D02*
X87775000Y-135777064D01*
%TO.C,C88*%
X82625908Y-110794235D02*
X82625908Y-114534235D01*
X82625908Y-114534235D02*
X90065908Y-114534235D01*
X90065908Y-110794235D02*
X82625908Y-110794235D01*
X90065908Y-114534235D02*
X90065908Y-110794235D01*
%TO.C,C25*%
X62815000Y-63508767D02*
X62815000Y-63216233D01*
X63835000Y-63508767D02*
X63835000Y-63216233D01*
%TO.C,C26*%
X64365000Y-63483767D02*
X64365000Y-63191233D01*
X65385000Y-63483767D02*
X65385000Y-63191233D01*
%TO.C,FB1*%
X67297936Y-63625000D02*
X67752064Y-63625000D01*
X67297936Y-65095000D02*
X67752064Y-65095000D01*
%TO.C,C21*%
X60354277Y-67128733D02*
X60354277Y-67421267D01*
X61374277Y-67128733D02*
X61374277Y-67421267D01*
%TO.C,R55*%
X69922017Y-115440232D02*
X69922017Y-114986104D01*
X71392017Y-115440232D02*
X71392017Y-114986104D01*
%TO.C,C22*%
X61874277Y-67128733D02*
X61874277Y-67421267D01*
X62894277Y-67128733D02*
X62894277Y-67421267D01*
%TO.C,R36*%
X143193929Y-114813896D02*
X143193929Y-114359768D01*
X144663929Y-114813896D02*
X144663929Y-114359768D01*
%TO.C,R70*%
X120955000Y-131472936D02*
X120955000Y-135827064D01*
X124375000Y-131472936D02*
X124375000Y-135827064D01*
%TO.C,R33*%
X106210908Y-138791299D02*
X106210908Y-138337171D01*
X107680908Y-138791299D02*
X107680908Y-138337171D01*
%TO.C,R30*%
X96010908Y-115491299D02*
X96010908Y-115037171D01*
X97480908Y-115491299D02*
X97480908Y-115037171D01*
%TO.C,U6*%
X84280908Y-116829235D02*
X84280908Y-120949235D01*
X84280908Y-120949235D02*
X84375908Y-120949235D01*
X84375908Y-116829235D02*
X84280908Y-116829235D01*
X89305908Y-120949235D02*
X89400908Y-120949235D01*
X89400908Y-116829235D02*
X89305908Y-116829235D01*
X89400908Y-120949235D02*
X89400908Y-116829235D01*
X84370908Y-116289235D02*
X84040908Y-116529235D01*
X84040908Y-116049235D01*
X84370908Y-116289235D01*
G36*
X84370908Y-116289235D02*
G01*
X84040908Y-116529235D01*
X84040908Y-116049235D01*
X84370908Y-116289235D01*
G37*
%TO.C,R32*%
X106810908Y-115591299D02*
X106810908Y-115137171D01*
X108280908Y-115591299D02*
X108280908Y-115137171D01*
%TO.C,R34*%
X132393929Y-114813896D02*
X132393929Y-114359768D01*
X133863929Y-114813896D02*
X133863929Y-114359768D01*
%TO.C,R35*%
X132093929Y-138213896D02*
X132093929Y-137759768D01*
X133563929Y-138213896D02*
X133563929Y-137759768D01*
%TO.C,C52*%
X68214277Y-57038767D02*
X68214277Y-56746233D01*
X69234277Y-57038767D02*
X69234277Y-56746233D01*
%TO.C,C51*%
X69704277Y-57028767D02*
X69704277Y-56736233D01*
X70724277Y-57028767D02*
X70724277Y-56736233D01*
%TD*%
M02*
