M48
; DRILL file {KiCad 9.0.7} date 2026-02-26T16:01:42+0300
; FORMAT={-:-/ absolute / metric / decimal}
; #@! TF.CreationDate,2026-02-26T16:01:42+03:00
; #@! TF.GenerationSoftware,Kicad,Pcbnew,9.0.7
; #@! TF.FileFunction,Plated,1,4,PTH
FMAT,2
METRIC
; #@! TA.AperFunction,Plated,PTH,ComponentDrill
T1C0.200
; #@! TA.AperFunction,Plated,PTH,ViaDrill
T2C0.300
; #@! TA.AperFunction,Plated,PTH,ComponentDrill
T3C0.500
; #@! TA.AperFunction,Plated,PTH,ComponentDrill
T4C0.600
; #@! TA.AperFunction,Plated,PTH,ComponentDrill
T5C0.650
; #@! TA.AperFunction,Plated,PTH,ComponentDrill
T6C0.700
; #@! TA.AperFunction,Plated,PTH,ComponentDrill
T7C0.800
; #@! TA.AperFunction,Plated,PTH,ComponentDrill
T8C0.900
; #@! TA.AperFunction,Plated,PTH,ComponentDrill
T9C1.000
; #@! TA.AperFunction,Plated,PTH,ComponentDrill
T10C1.100
; #@! TA.AperFunction,Plated,PTH,ComponentDrill
T11C1.475
; #@! TA.AperFunction,Plated,PTH,ComponentDrill
T12C3.700
%
G90
G05
T1
X163.23Y-77.248
X163.23Y-78.547
X164.53Y-77.248
X164.53Y-78.547
X165.83Y-77.248
X165.83Y-78.547
X167.13Y-77.248
X167.13Y-78.547
T2
X47.957Y-126.313
X49.25Y-56.25
X50.277Y-51.3
X50.457Y-123.613
X53.214Y-53.61
X55.2Y-51.883
X55.434Y-59.195
X55.434Y-64.245
X55.6Y-67.2
X55.715Y-86.1
X55.715Y-87.0
X55.715Y-87.9
X55.715Y-88.8
X55.715Y-89.7
X56.615Y-86.1
X56.615Y-87.0
X56.615Y-87.9
X56.615Y-88.8
X56.615Y-89.7
X57.2Y-72.0
X57.515Y-86.1
X57.515Y-87.0
X57.515Y-87.9
X57.515Y-88.8
X57.515Y-89.7
X57.584Y-46.87
X58.415Y-86.1
X58.415Y-87.0
X58.415Y-87.9
X58.415Y-88.8
X58.415Y-89.7
X58.615Y-58.934
X58.665Y-65.165
X58.977Y-92.363
X59.257Y-137.413
X59.315Y-86.1
X59.315Y-87.0
X59.315Y-87.9
X59.315Y-88.8
X59.315Y-89.7
X59.584Y-41.295
X59.584Y-55.75
X59.857Y-113.413
X59.984Y-66.38
X59.994Y-68.09
X60.215Y-86.1
X60.215Y-87.0
X60.215Y-87.9
X60.215Y-88.8
X60.215Y-89.7
X60.465Y-136.375
X61.115Y-86.1
X61.115Y-87.0
X61.115Y-87.9
X61.115Y-88.8
X61.115Y-89.7
X61.457Y-92.426
X61.5Y-64.5
X61.665Y-136.375
X61.75Y-58.25
X62.015Y-86.1
X62.015Y-87.0
X62.015Y-87.9
X62.015Y-88.8
X62.015Y-89.7
X62.865Y-136.375
X62.915Y-86.1
X62.915Y-87.0
X62.915Y-87.9
X62.915Y-88.8
X62.915Y-89.7
X63.2Y-66.38
X63.815Y-86.1
X63.815Y-87.0
X63.815Y-87.9
X63.815Y-88.8
X63.815Y-89.7
X63.874Y-72.83
X63.934Y-64.81
X63.935Y-56.05
X63.957Y-92.426
X64.065Y-136.375
X64.1Y-62.5
X64.434Y-65.41
X64.672Y-72.885
X64.715Y-86.1
X64.715Y-87.0
X64.715Y-87.9
X64.715Y-88.8
X64.715Y-89.7
X65.114Y-68.14
X65.265Y-136.375
X65.46Y-73.026
X65.615Y-86.1
X65.615Y-87.0
X65.615Y-87.9
X65.615Y-88.8
X65.615Y-89.7
X66.124Y-56.02
X66.349Y-73.056
X66.457Y-92.426
X66.465Y-136.375
X66.515Y-86.1
X66.515Y-87.0
X66.515Y-87.9
X66.515Y-88.8
X66.515Y-89.7
X67.032Y-46.47
X67.154Y-73.09
X67.415Y-86.1
X67.415Y-87.0
X67.415Y-87.9
X67.415Y-88.8
X67.415Y-89.7
X67.425Y-52.44
X67.665Y-136.375
X67.934Y-73.64
X68.115Y-52.86
X68.315Y-86.1
X68.315Y-87.0
X68.315Y-87.9
X68.315Y-88.8
X68.315Y-89.7
X68.6Y-66.37
X68.957Y-92.426
X69.215Y-86.1
X69.215Y-87.0
X69.215Y-87.9
X69.215Y-88.8
X69.215Y-89.7
X69.324Y-73.8
X70.0Y-67.8
X70.115Y-86.1
X70.115Y-87.0
X70.115Y-87.9
X70.115Y-88.8
X70.115Y-89.7
X70.157Y-137.413
X70.165Y-60.8
X70.657Y-113.613
X70.75Y-59.0
X71.015Y-60.31
X71.015Y-86.1
X71.015Y-87.0
X71.015Y-87.9
X71.015Y-88.8
X71.015Y-89.7
X71.064Y-57.71
X71.164Y-55.97
X71.315Y-136.375
X71.8Y-69.9
X71.915Y-86.1
X71.915Y-87.0
X71.915Y-87.9
X71.915Y-88.8
X71.915Y-89.7
X72.207Y-91.426
X72.404Y-74.59
X72.515Y-136.375
X72.815Y-86.1
X72.815Y-87.0
X72.815Y-87.9
X72.815Y-88.8
X72.815Y-89.7
X73.715Y-86.1
X73.715Y-87.0
X73.715Y-87.9
X73.715Y-88.8
X73.715Y-89.7
X73.765Y-136.375
X74.615Y-86.1
X74.615Y-87.0
X74.615Y-87.9
X74.615Y-88.8
X74.615Y-89.7
X74.965Y-136.375
X75.1Y-58.97
X75.145Y-72.76
X75.397Y-165.2
X75.515Y-86.1
X75.515Y-87.0
X75.515Y-87.9
X75.515Y-88.8
X75.515Y-89.7
X75.915Y-91.45
X76.165Y-136.375
X76.358Y-67.268
X76.415Y-86.1
X76.415Y-87.0
X76.415Y-87.9
X76.415Y-88.8
X76.415Y-89.7
X77.005Y-39.975
X77.175Y-72.71
X77.315Y-86.1
X77.315Y-87.0
X77.315Y-87.9
X77.315Y-88.8
X77.315Y-89.7
X77.325Y-47.95
X77.365Y-136.375
X77.4Y-62.59
X77.631Y-69.093
X77.865Y-65.76
X78.215Y-86.1
X78.215Y-87.0
X78.215Y-87.9
X78.215Y-88.8
X78.215Y-89.7
X78.565Y-136.375
X78.674Y-60.855
X78.9Y-58.05
X79.0Y-73.6
X79.115Y-86.1
X79.115Y-87.0
X79.115Y-87.9
X79.115Y-88.8
X79.115Y-89.7
X79.295Y-64.24
X79.9Y-62.6
X80.015Y-86.1
X80.015Y-87.0
X80.015Y-87.9
X80.015Y-88.8
X80.015Y-89.7
X81.315Y-139.5
X81.315Y-140.635
X81.525Y-61.5
X81.9Y-40.8
X81.93Y-70.46
X82.265Y-129.75
X82.265Y-130.65
X82.575Y-65.87
X82.815Y-68.99
X83.0Y-59.6
X83.1Y-62.125
X83.165Y-129.75
X83.165Y-130.65
X84.065Y-129.75
X84.115Y-136.6
X84.365Y-140.95
X84.495Y-139.44
X84.625Y-41.91
X84.755Y-67.06
X84.965Y-129.75
X84.965Y-130.65
X85.026Y-126.764
X85.2Y-82.4
X85.815Y-49.69
X85.865Y-129.75
X85.865Y-130.65
X85.875Y-69.5
X86.205Y-48.28
X86.515Y-142.15
X86.888Y-42.312
X86.9Y-44.1
X87.379Y-138.25
X87.446Y-123.364
X87.681Y-68.015
X87.715Y-47.63
X88.185Y-46.6
X88.9Y-82.6
X89.325Y-41.31
X89.964Y-59.5
X93.808Y-48.024
X94.8Y-43.5
X95.315Y-86.1
X95.315Y-87.0
X95.315Y-87.9
X95.315Y-88.8
X95.315Y-89.7
X96.146Y-136.764
X96.215Y-86.1
X96.215Y-87.0
X96.215Y-87.9
X96.215Y-88.8
X96.215Y-89.7
X96.746Y-113.364
X97.115Y-86.1
X97.115Y-87.0
X97.115Y-87.9
X97.115Y-88.8
X97.115Y-89.7
X97.296Y-136.164
X97.416Y-92.339
X98.015Y-86.1
X98.015Y-87.0
X98.015Y-87.9
X98.015Y-88.8
X98.015Y-89.7
X98.496Y-136.164
X98.915Y-86.1
X98.915Y-87.0
X98.915Y-87.9
X98.915Y-88.8
X98.915Y-89.7
X99.696Y-136.164
X99.815Y-86.1
X99.815Y-87.0
X99.815Y-87.9
X99.815Y-88.8
X99.815Y-89.7
X99.946Y-92.339
X100.715Y-86.1
X100.715Y-87.0
X100.715Y-87.9
X100.715Y-88.8
X100.715Y-89.7
X100.896Y-136.164
X101.615Y-86.1
X101.615Y-87.0
X101.615Y-87.9
X101.615Y-88.8
X101.615Y-89.7
X102.096Y-136.164
X102.446Y-92.339
X102.515Y-86.1
X102.515Y-87.0
X102.515Y-87.9
X102.515Y-88.8
X102.515Y-89.7
X103.296Y-136.164
X103.415Y-86.1
X103.415Y-87.0
X103.415Y-87.9
X103.415Y-88.8
X103.415Y-89.7
X104.315Y-86.1
X104.315Y-87.0
X104.315Y-87.9
X104.315Y-88.8
X104.315Y-89.7
X104.496Y-136.164
X104.946Y-92.339
X105.215Y-86.1
X105.215Y-87.0
X105.215Y-87.9
X105.215Y-88.8
X105.215Y-89.7
X106.115Y-86.1
X106.115Y-87.0
X106.115Y-87.9
X106.115Y-88.8
X106.115Y-89.7
X106.946Y-136.864
X107.015Y-86.1
X107.015Y-87.0
X107.015Y-87.9
X107.015Y-88.8
X107.015Y-89.7
X107.446Y-92.339
X107.544Y-113.42
X107.915Y-86.1
X107.915Y-87.0
X107.915Y-87.9
X107.915Y-88.8
X107.915Y-89.7
X108.146Y-136.114
X108.815Y-86.1
X108.815Y-87.0
X108.815Y-87.9
X108.815Y-88.8
X108.815Y-89.7
X109.346Y-136.114
X109.715Y-86.1
X109.715Y-87.0
X109.715Y-87.9
X109.715Y-88.8
X109.715Y-89.7
X110.446Y-91.289
X110.546Y-136.114
X110.615Y-86.1
X110.615Y-87.0
X110.615Y-87.9
X110.615Y-88.8
X110.615Y-89.7
X111.515Y-86.1
X111.515Y-87.0
X111.515Y-87.9
X111.515Y-88.8
X111.515Y-89.7
X111.746Y-136.114
X112.415Y-86.1
X112.415Y-87.0
X112.415Y-87.9
X112.415Y-88.8
X112.415Y-89.7
X112.946Y-136.114
X113.315Y-86.1
X113.315Y-87.0
X113.315Y-87.9
X113.315Y-88.8
X113.315Y-89.7
X114.146Y-136.114
X114.215Y-86.1
X114.215Y-87.0
X114.215Y-87.9
X114.215Y-88.8
X114.215Y-89.7
X114.446Y-91.289
X115.0Y-140.4
X115.115Y-86.1
X115.115Y-87.0
X115.115Y-87.9
X115.115Y-88.8
X115.115Y-89.7
X115.346Y-136.114
X116.015Y-86.1
X116.015Y-87.0
X116.015Y-87.9
X116.015Y-88.8
X116.015Y-89.7
X116.575Y-70.175
X116.915Y-86.1
X116.915Y-87.0
X116.915Y-87.9
X116.915Y-88.8
X116.915Y-89.7
X117.615Y-139.8
X117.65Y-71.95
X117.665Y-140.935
X117.815Y-86.1
X117.815Y-87.0
X117.815Y-87.9
X117.815Y-88.8
X117.815Y-89.7
X118.715Y-86.1
X118.715Y-87.0
X118.715Y-87.9
X118.715Y-88.8
X118.715Y-89.7
X118.865Y-129.8
X118.865Y-130.7
X119.615Y-86.1
X119.615Y-87.0
X119.615Y-87.9
X119.615Y-88.8
X119.615Y-89.7
X119.765Y-129.8
X119.765Y-130.7
X120.2Y-142.8
X120.314Y-141.349
X120.515Y-86.1
X120.515Y-87.0
X120.515Y-87.9
X120.515Y-88.8
X120.515Y-89.7
X120.665Y-129.8
X120.665Y-130.7
X120.665Y-136.75
X121.015Y-139.73
X121.459Y-126.067
X121.565Y-129.8
X121.565Y-130.7
X121.7Y-153.6
X122.465Y-129.8
X122.465Y-130.7
X122.665Y-142.344
X123.319Y-68.927
X123.775Y-138.088
X123.969Y-123.177
X126.8Y-77.9
X126.8Y-78.9
X126.8Y-79.9
X127.8Y-77.9
X127.8Y-78.9
X127.8Y-79.9
X128.8Y-77.9
X128.8Y-78.9
X128.8Y-79.9
X131.315Y-86.1
X131.315Y-87.0
X131.315Y-87.9
X131.315Y-88.8
X131.315Y-89.7
X132.215Y-86.1
X132.215Y-87.0
X132.215Y-87.9
X132.215Y-88.8
X132.215Y-89.7
X132.829Y-136.187
X133.115Y-86.1
X133.115Y-87.0
X133.115Y-87.9
X133.115Y-88.8
X133.115Y-89.7
X133.162Y-112.831
X134.015Y-86.1
X134.015Y-87.0
X134.015Y-87.9
X134.015Y-88.8
X134.015Y-89.7
X134.026Y-135.969
X134.029Y-92.049
X134.915Y-86.1
X134.915Y-87.0
X134.915Y-87.9
X134.915Y-88.8
X134.915Y-89.7
X135.179Y-135.787
X135.815Y-86.1
X135.815Y-87.0
X135.815Y-87.9
X135.815Y-88.8
X135.815Y-89.7
X136.379Y-135.787
X136.529Y-92.049
X136.715Y-86.1
X136.715Y-87.0
X136.715Y-87.9
X136.715Y-88.8
X136.715Y-89.7
X137.579Y-135.787
X137.615Y-86.1
X137.615Y-87.0
X137.615Y-87.9
X137.615Y-88.8
X137.615Y-89.7
X138.515Y-86.1
X138.515Y-87.0
X138.515Y-87.9
X138.515Y-88.8
X138.515Y-89.7
X138.779Y-135.787
X139.029Y-92.124
X139.415Y-86.1
X139.415Y-87.0
X139.415Y-87.9
X139.415Y-88.8
X139.415Y-89.7
X139.979Y-135.787
X140.315Y-86.1
X140.315Y-87.0
X140.315Y-87.9
X140.315Y-88.8
X140.315Y-89.7
X141.179Y-135.787
X141.215Y-86.1
X141.215Y-87.0
X141.215Y-87.9
X141.215Y-88.8
X141.215Y-89.7
X141.529Y-92.124
X142.115Y-86.1
X142.115Y-87.0
X142.115Y-87.9
X142.115Y-88.8
X142.115Y-89.7
X143.015Y-86.1
X143.015Y-87.0
X143.015Y-87.9
X143.015Y-88.8
X143.015Y-89.7
X143.729Y-135.987
X143.915Y-86.1
X143.915Y-87.0
X143.915Y-87.9
X143.915Y-88.8
X143.915Y-89.7
X143.974Y-112.93
X144.029Y-92.124
X144.815Y-86.1
X144.815Y-87.0
X144.815Y-87.9
X144.815Y-88.8
X144.815Y-89.7
X144.879Y-135.837
X145.715Y-86.1
X145.715Y-87.0
X145.715Y-87.9
X145.715Y-88.8
X145.715Y-89.7
X146.079Y-135.837
X146.615Y-86.1
X146.615Y-87.0
X146.615Y-87.9
X146.615Y-88.8
X146.615Y-89.7
X147.029Y-91.062
X147.279Y-135.837
X147.515Y-86.1
X147.515Y-87.0
X147.515Y-87.9
X147.515Y-88.8
X147.515Y-89.7
X148.415Y-86.1
X148.415Y-87.0
X148.415Y-87.9
X148.415Y-88.8
X148.415Y-89.7
X148.479Y-135.837
X149.315Y-86.1
X149.315Y-87.0
X149.315Y-87.9
X149.315Y-88.8
X149.315Y-89.7
X149.679Y-135.837
X150.215Y-86.1
X150.215Y-87.0
X150.215Y-87.9
X150.215Y-88.8
X150.215Y-89.7
X150.879Y-135.837
X151.029Y-91.062
X151.115Y-86.1
X151.115Y-87.0
X151.115Y-87.9
X151.115Y-88.8
X151.115Y-89.7
X152.015Y-86.1
X152.015Y-87.0
X152.015Y-87.9
X152.015Y-88.8
X152.015Y-89.7
X152.079Y-135.837
X152.915Y-86.1
X152.915Y-87.0
X152.915Y-87.9
X152.915Y-88.8
X152.915Y-89.7
X153.815Y-86.1
X153.815Y-87.0
X153.815Y-87.9
X153.815Y-88.8
X153.815Y-89.7
X154.015Y-140.7
X154.115Y-139.482
X154.715Y-86.1
X154.715Y-87.0
X154.715Y-87.9
X154.715Y-88.8
X154.715Y-89.7
X155.415Y-129.0
X155.415Y-129.9
X155.615Y-86.1
X155.615Y-87.0
X155.615Y-87.9
X155.615Y-88.8
X155.615Y-89.7
X156.315Y-129.0
X156.315Y-129.9
X156.515Y-86.1
X156.515Y-87.0
X156.515Y-87.9
X156.515Y-88.8
X156.515Y-89.7
X157.2Y-136.0
X157.215Y-129.0
X157.215Y-129.9
X157.215Y-138.8
X157.215Y-141.15
X157.415Y-86.1
X157.415Y-87.0
X157.415Y-87.9
X157.415Y-88.8
X157.415Y-89.7
X158.115Y-129.0
X158.115Y-129.9
X158.315Y-86.1
X158.315Y-87.0
X158.315Y-87.9
X158.315Y-88.8
X158.315Y-89.7
X159.015Y-129.0
X159.015Y-129.9
X159.215Y-86.1
X159.215Y-87.0
X159.215Y-87.9
X159.215Y-88.8
X159.215Y-89.7
X159.665Y-142.15
X160.115Y-86.1
X160.115Y-87.0
X160.115Y-87.9
X160.115Y-88.8
X160.115Y-89.7
X160.515Y-137.812
X161.015Y-86.1
X161.015Y-87.0
X161.015Y-87.9
X161.015Y-88.8
X161.015Y-89.7
X161.915Y-86.1
X161.915Y-87.0
X161.915Y-87.9
X161.915Y-88.8
X161.915Y-89.7
X162.775Y-73.25
X162.815Y-86.1
X162.815Y-87.0
X162.815Y-87.9
X162.815Y-88.8
X162.815Y-89.7
X165.815Y-73.185
X165.815Y-74.25
X165.815Y-75.335
X169.762Y-76.756
X169.8Y-71.6
T3
X187.905Y-78.219
X188.718Y-76.257
X188.718Y-80.182
X189.263Y-134.638
X190.076Y-132.676
X190.076Y-136.6
X190.68Y-75.444
X190.68Y-80.994
X192.038Y-131.863
X192.038Y-137.413
X192.642Y-76.257
X192.642Y-80.182
X193.455Y-78.219
X194.0Y-132.676
X194.0Y-136.6
X194.813Y-134.638
T5
X94.424Y-49.74
X95.694Y-49.74
X96.964Y-49.74
T6
X68.204Y-50.55
X69.474Y-50.55
X70.744Y-50.55
X72.014Y-50.55
T7
X43.1Y-66.2
X43.1Y-68.2
X46.0Y-39.0
X46.0Y-41.0
X46.0Y-43.0
X46.0Y-47.05
X46.0Y-49.05
X46.0Y-51.05
X46.0Y-59.5
X46.0Y-61.5
X46.075Y-54.25
X46.075Y-56.25
X46.4Y-68.1
X46.4Y-75.72
X46.857Y-112.013
X51.834Y-59.27
X51.834Y-64.17
X51.857Y-112.013
X75.185Y-77.57
X77.185Y-77.57
X79.185Y-77.57
X81.185Y-77.57
X82.274Y-48.61
X82.274Y-56.23
X83.78Y-72.73
X83.846Y-112.664
X85.754Y-55.13
X85.754Y-62.75
X85.78Y-72.73
X86.635Y-35.44
X87.78Y-72.73
X88.635Y-35.44
X88.846Y-112.664
X89.78Y-72.73
X89.964Y-50.59
X89.964Y-58.21
X91.78Y-72.73
X91.815Y-41.28
X93.815Y-41.28
X120.219Y-111.847
X125.219Y-111.847
X168.845Y-91.93
X168.845Y-99.78
X168.845Y-107.63
X171.345Y-91.93
X171.345Y-99.78
X171.345Y-107.63
X186.59Y-120.46
X201.83Y-120.46
T8
X99.404Y-49.72
X101.944Y-49.72
X186.66Y-123.61
X196.82Y-123.61
T9
X93.514Y-55.09
X93.514Y-62.69
X178.435Y-107.74
X178.775Y-91.23
X185.935Y-107.74
X186.275Y-91.23
X196.765Y-96.26
X196.765Y-103.76
T10
X56.234Y-39.87
X56.234Y-44.37
X62.734Y-39.87
X62.734Y-44.37
X65.834Y-39.87
X65.834Y-44.37
X72.334Y-39.87
X72.334Y-44.37
T11
X51.547Y-147.453
X51.547Y-149.993
X51.547Y-152.533
X51.547Y-155.073
X59.167Y-147.453
X59.167Y-149.993
X59.167Y-152.533
X59.167Y-155.073
X88.446Y-147.404
X88.446Y-149.944
X88.446Y-152.484
X88.446Y-155.024
X96.066Y-147.404
X96.066Y-149.944
X96.066Y-152.484
X96.066Y-155.024
X125.069Y-147.277
X125.069Y-149.817
X125.069Y-152.357
X125.069Y-154.897
X132.689Y-147.277
X132.689Y-149.817
X132.689Y-152.357
X132.689Y-154.897
T12
X190.68Y-78.219
X192.038Y-134.638
T4
G00X75.085Y-35.62
M15
G01X75.085Y-34.82
M16
G05
G00X75.085Y-39.95
M15
G01X75.085Y-38.85
M16
G05
G00X83.725Y-35.62
M15
G01X83.725Y-34.82
M16
G05
G00X83.725Y-39.95
M15
G01X83.725Y-38.85
M16
G05
M30
