%TF.GenerationSoftware,KiCad,Pcbnew,9.0.7*%
%TF.CreationDate,2026-02-26T16:01:44+03:00*%
%TF.ProjectId,Motor_Driver_Shell_Eco,4d6f746f-725f-4447-9269-7665725f5368,rev?*%
%TF.SameCoordinates,Original*%
%TF.FileFunction,Copper,L3,Inr*%
%TF.FilePolarity,Positive*%
%FSLAX46Y46*%
G04 Gerber Fmt 4.6, Leading zero omitted, Abs format (unit mm)*
G04 Created by KiCad (PCBNEW 9.0.7) date 2026-02-26 16:01:44*
%MOMM*%
%LPD*%
G01*
G04 APERTURE LIST*
G04 Aperture macros list*
%AMRoundRect*
0 Rectangle with rounded corners*
0 $1 Rounding radius*
0 $2 $3 $4 $5 $6 $7 $8 $9 X,Y pos of 4 corners*
0 Add a 4 corners polygon primitive as box body*
4,1,4,$2,$3,$4,$5,$6,$7,$8,$9,$2,$3,0*
0 Add four circle primitives for the rounded corners*
1,1,$1+$1,$2,$3*
1,1,$1+$1,$4,$5*
1,1,$1+$1,$6,$7*
1,1,$1+$1,$8,$9*
0 Add four rect primitives between the rounded corners*
20,1,$1+$1,$2,$3,$4,$5,0*
20,1,$1+$1,$4,$5,$6,$7,0*
20,1,$1+$1,$6,$7,$8,$9,0*
20,1,$1+$1,$8,$9,$2,$3,0*%
G04 Aperture macros list end*
%TA.AperFunction,ComponentPad*%
%ADD10R,2.000000X2.000000*%
%TD*%
%TA.AperFunction,ComponentPad*%
%ADD11C,2.000000*%
%TD*%
%TA.AperFunction,ComponentPad*%
%ADD12R,1.800000X1.800000*%
%TD*%
%TA.AperFunction,ComponentPad*%
%ADD13C,1.800000*%
%TD*%
%TA.AperFunction,ComponentPad*%
%ADD14R,1.350000X1.350000*%
%TD*%
%TA.AperFunction,ComponentPad*%
%ADD15C,1.350000*%
%TD*%
%TA.AperFunction,ComponentPad*%
%ADD16C,1.600000*%
%TD*%
%TA.AperFunction,ComponentPad*%
%ADD17R,1.000000X1.000000*%
%TD*%
%TA.AperFunction,ComponentPad*%
%ADD18C,1.000000*%
%TD*%
%TA.AperFunction,ComponentPad*%
%ADD19RoundRect,0.250000X-0.650000X-0.650000X0.650000X-0.650000X0.650000X0.650000X-0.650000X0.650000X0*%
%TD*%
%TA.AperFunction,ComponentPad*%
%ADD20RoundRect,0.250000X0.550000X-0.550000X0.550000X0.550000X-0.550000X0.550000X-0.550000X-0.550000X0*%
%TD*%
%TA.AperFunction,ComponentPad*%
%ADD21C,1.500000*%
%TD*%
%TA.AperFunction,HeatsinkPad*%
%ADD22O,1.000000X2.100000*%
%TD*%
%TA.AperFunction,HeatsinkPad*%
%ADD23O,1.000000X1.800000*%
%TD*%
%TA.AperFunction,ComponentPad*%
%ADD24C,0.800000*%
%TD*%
%TA.AperFunction,ComponentPad*%
%ADD25C,7.400000*%
%TD*%
%TA.AperFunction,HeatsinkPad*%
%ADD26C,0.500000*%
%TD*%
%TA.AperFunction,ViaPad*%
%ADD27C,0.600000*%
%TD*%
%TA.AperFunction,Conductor*%
%ADD28C,1.000000*%
%TD*%
%TA.AperFunction,Conductor*%
%ADD29C,0.500000*%
%TD*%
G04 APERTURE END LIST*
D10*
%TO.N,+5V*%
%TO.C,BZ1*%
X93514277Y-62690000D03*
D11*
%TO.N,Net-(BZ1--)*%
X93514277Y-55090000D03*
%TD*%
%TO.N,+3V3*%
%TO.C,SW2*%
X65834277Y-39870000D03*
X72334277Y-39870000D03*
%TO.N,/MCU/BOOT0*%
X65834277Y-44370000D03*
X72334277Y-44370000D03*
%TD*%
D12*
%TO.N,GND*%
%TO.C,D3*%
X101944277Y-49720000D03*
D13*
%TO.N,Net-(D3-A)*%
X99404277Y-49720000D03*
%TD*%
D11*
%TO.N,+VDC*%
%TO.C,C3*%
X178435000Y-107740000D03*
%TO.N,-VDC*%
X185935000Y-107740000D03*
%TD*%
%TO.N,+VDC*%
%TO.C,C2*%
X178775000Y-91230000D03*
%TO.N,-VDC*%
X186275000Y-91230000D03*
%TD*%
D14*
%TO.N,GND*%
%TO.C,J12*%
X46000000Y-59500000D03*
D15*
%TO.N,PANIC STOP*%
X46000000Y-61500000D03*
%TD*%
D14*
%TO.N,+3V3*%
%TO.C,J9*%
X46000000Y-47050000D03*
D15*
%TO.N,REGEN*%
X46000000Y-49050000D03*
%TO.N,GND*%
X46000000Y-51050000D03*
%TD*%
D14*
%TO.N,GND*%
%TO.C,J7*%
X46075000Y-54250000D03*
D15*
%TO.N,BRAKE*%
X46075000Y-56250000D03*
%TD*%
D16*
%TO.N,Net-(Q1-B)*%
%TO.C,R11*%
X82274277Y-56230000D03*
%TO.N,BUZZER*%
X82274277Y-48610000D03*
%TD*%
%TO.N,+VDC*%
%TO.C,C6*%
X171345000Y-91930000D03*
%TO.N,-VDC*%
X168845000Y-91930000D03*
%TD*%
D17*
%TO.N,Net-(JP1-A)*%
%TO.C,JP1*%
X96964277Y-49740000D03*
D18*
%TO.N,Net-(JP1-C)*%
X95694277Y-49740000D03*
%TO.N,Net-(JP1-B)*%
X94424277Y-49740000D03*
%TD*%
D14*
%TO.N,/MCU/I2C_SCL*%
%TO.C,J1*%
X75185000Y-77570000D03*
D15*
%TO.N,/MCU/I2C_SDA*%
X77185000Y-77570000D03*
%TO.N,+5V*%
X79185000Y-77570000D03*
%TO.N,GND*%
X81185000Y-77570000D03*
%TD*%
D14*
%TO.N,Net-(J2-Pin_1)*%
%TO.C,J2*%
X83780000Y-72730000D03*
D15*
%TO.N,Net-(J2-Pin_2)*%
X85780000Y-72730000D03*
%TO.N,Net-(J2-Pin_3)*%
X87780000Y-72730000D03*
%TO.N,+5V*%
X89780000Y-72730000D03*
%TO.N,GND*%
X91780000Y-72730000D03*
%TD*%
D13*
%TO.N,/FET/Phase_B_FET/PHASE_B*%
%TO.C,MP2*%
X88445908Y-155024235D03*
X88445908Y-152484235D03*
X88445908Y-149944235D03*
X88445908Y-147404235D03*
X96065908Y-147404235D03*
X96065908Y-149944235D03*
X96065908Y-152484235D03*
X96065908Y-155024235D03*
%TD*%
D17*
%TO.N,+3V3*%
%TO.C,J5*%
X68204277Y-50550000D03*
D18*
%TO.N,SWCLK*%
X69474277Y-50550000D03*
%TO.N,GND*%
X70744277Y-50550000D03*
%TO.N,SWDIO*%
X72014277Y-50550000D03*
%TD*%
D14*
%TO.N,GND*%
%TO.C,J13*%
X93815000Y-41280000D03*
D15*
%TO.N,Net-(J13-Pin_2)*%
X91815000Y-41280000D03*
%TD*%
D13*
%TO.N,/FET/Phase_C_FET/PHASE_C*%
%TO.C,MP3*%
X132688929Y-147276832D03*
X132688929Y-149816832D03*
X132688929Y-152356832D03*
X132688929Y-154896832D03*
X125068929Y-154896832D03*
X125068929Y-152356832D03*
X125068929Y-149816832D03*
X125068929Y-147276832D03*
%TD*%
%TO.N,/FET/Phase_A_FET/PHASE_A*%
%TO.C,MP1*%
X59167017Y-147453168D03*
X59167017Y-149993168D03*
X59167017Y-152533168D03*
X59167017Y-155073168D03*
X51547017Y-155073168D03*
X51547017Y-152533168D03*
X51547017Y-149993168D03*
X51547017Y-147453168D03*
%TD*%
D16*
%TO.N,+12V*%
%TO.C,C89*%
X46857017Y-112013168D03*
%TO.N,-VDC*%
X51857017Y-112013168D03*
%TD*%
D19*
%TO.N,+VDC*%
%TO.C,D1*%
X186660000Y-123610000D03*
D13*
%TO.N,-VDC*%
X196820000Y-123610000D03*
%TD*%
D16*
%TO.N,+3V3*%
%TO.C,R50*%
X46400000Y-75720000D03*
%TO.N,TEMP_SENSOR*%
X46400000Y-68100000D03*
%TD*%
D20*
%TO.N,+5V*%
%TO.C,D2*%
X85754277Y-62750000D03*
D16*
%TO.N,Net-(BZ1--)*%
X85754277Y-55130000D03*
%TD*%
%TO.N,+VDC*%
%TO.C,C4*%
X171345000Y-107630000D03*
%TO.N,-VDC*%
X168845000Y-107630000D03*
%TD*%
D14*
%TO.N,+3V3*%
%TO.C,J8*%
X46000000Y-39000000D03*
D15*
%TO.N,ACCEL*%
X46000000Y-41000000D03*
%TO.N,GND*%
X46000000Y-43000000D03*
%TD*%
D14*
%TO.N,GND*%
%TO.C,J4*%
X43100000Y-66200000D03*
D15*
%TO.N,TEMP_SENSOR*%
X43100000Y-68200000D03*
%TD*%
D21*
%TO.N,Net-(U1-PF0)*%
%TO.C,Y1*%
X51834277Y-59270000D03*
%TO.N,Net-(U1-PF1)*%
X51834277Y-64170000D03*
%TD*%
D11*
%TO.N,GND*%
%TO.C,SW1*%
X56234277Y-39870000D03*
X62734277Y-39870000D03*
%TO.N,/MCU/NRST*%
X56234277Y-44370000D03*
X62734277Y-44370000D03*
%TD*%
D22*
%TO.N,GND*%
%TO.C,J11*%
X83725000Y-39400000D03*
D23*
X83725000Y-35220000D03*
D22*
X75085000Y-39400000D03*
D23*
X75085000Y-35220000D03*
%TD*%
D11*
%TO.N,+VDC*%
%TO.C,C1*%
X196765000Y-96260000D03*
%TO.N,-VDC*%
X196765000Y-103760000D03*
%TD*%
D24*
%TO.N,-VDC*%
%TO.C,H2*%
X187905000Y-78219442D03*
X188717779Y-76257221D03*
X188717779Y-80181663D03*
X190680000Y-75444442D03*
D25*
X190680000Y-78219442D03*
D24*
X190680000Y-80994442D03*
X192642221Y-76257221D03*
X192642221Y-80181663D03*
X193455000Y-78219442D03*
%TD*%
D26*
%TO.N,-VDC*%
%TO.C,U2*%
X163230000Y-78547500D03*
X164530000Y-78547500D03*
X165830000Y-78547500D03*
X167130000Y-78547500D03*
X163230000Y-77247500D03*
X164530000Y-77247500D03*
X165830000Y-77247500D03*
X167130000Y-77247500D03*
%TD*%
D24*
%TO.N,+VDC*%
%TO.C,H1*%
X189262779Y-134637779D03*
X190075558Y-132675558D03*
X190075558Y-136600000D03*
X192037779Y-131862779D03*
D25*
X192037779Y-134637779D03*
D24*
X192037779Y-137412779D03*
X194000000Y-132675558D03*
X194000000Y-136600000D03*
X194812779Y-134637779D03*
%TD*%
D16*
%TO.N,+VDC*%
%TO.C,R1*%
X201830000Y-120460000D03*
%TO.N,-VDC*%
X186590000Y-120460000D03*
%TD*%
%TO.N,+VDC*%
%TO.C,C5*%
X171345000Y-99780000D03*
%TO.N,-VDC*%
X168845000Y-99780000D03*
%TD*%
D14*
%TO.N,Net-(J3-Pin_1)*%
%TO.C,J3*%
X88635000Y-35440000D03*
D15*
%TO.N,Net-(J3-Pin_2)*%
X86635000Y-35440000D03*
%TD*%
D16*
%TO.N,Net-(Q1-B)*%
%TO.C,R20*%
X89964277Y-50590000D03*
%TO.N,GND*%
X89964277Y-58210001D03*
%TD*%
%TO.N,+12V*%
%TO.C,C90*%
X120218929Y-111846832D03*
%TO.N,-VDC*%
X125218929Y-111846832D03*
%TD*%
%TO.N,+12V*%
%TO.C,C88*%
X83845908Y-112664235D03*
%TO.N,-VDC*%
X88845908Y-112664235D03*
%TD*%
D27*
%TO.N,*%
X75397500Y-165200000D03*
%TO.N,Net-(U2-VCC)*%
X165815000Y-74250000D03*
X165815000Y-75335000D03*
X165815000Y-73185000D03*
%TO.N,Net-(U2-SW)*%
X169800000Y-71600000D03*
X162775000Y-73250000D03*
%TO.N,+12V*%
X115000000Y-140400000D03*
X128800000Y-77900000D03*
X127800000Y-77900000D03*
X128800000Y-79900000D03*
X127800000Y-78900000D03*
X127800000Y-79900000D03*
X126800000Y-78900000D03*
X128800000Y-78900000D03*
X126800000Y-77900000D03*
X126800000Y-79900000D03*
%TO.N,+5V*%
X83000000Y-59600000D03*
X81900000Y-40800000D03*
X94800000Y-43500000D03*
X116575000Y-70175000D03*
X77005000Y-39975000D03*
X88185000Y-46600000D03*
%TO.N,VREF+*%
X64434277Y-65410000D03*
X63934277Y-64810000D03*
%TO.N,/MCU/NRST*%
X59584277Y-55750000D03*
%TO.N,HALL_A*%
X79295000Y-64240000D03*
%TO.N,HALL_B*%
X77865000Y-65760000D03*
%TO.N,HALL_C*%
X76358109Y-67268004D03*
%TO.N,Net-(U9-VS)*%
X50457017Y-123613168D03*
%TO.N,/MCU/I2C_SDA*%
X71015000Y-60310000D03*
X77175000Y-72710000D03*
%TO.N,/MCU/I2C_SCL*%
X75145000Y-72760000D03*
X70165000Y-60800000D03*
%TO.N,Net-(J2-Pin_2)*%
X84755000Y-67060000D03*
X82575000Y-65870000D03*
%TO.N,Net-(J2-Pin_3)*%
X85875000Y-69500000D03*
X82815000Y-68990000D03*
%TO.N,BRAKE*%
X61500000Y-64500000D03*
%TO.N,ACCEL*%
X61750000Y-58250000D03*
%TO.N,REGEN*%
X70750000Y-59000000D03*
%TO.N,Net-(Q14-Pad1)*%
X59857017Y-113413168D03*
%TO.N,Net-(Q15-Pad1)*%
X70657017Y-113613168D03*
%TO.N,Net-(Q16-Pad1)*%
X59257017Y-137413168D03*
%TO.N,Net-(Q17-Pad1)*%
X70157017Y-137413168D03*
%TO.N,BUZZER*%
X77325000Y-47950000D03*
%TO.N,STATUS_LED*%
X63935000Y-56050000D03*
%TO.N,+3V3F*%
X81315000Y-139500000D03*
X121700000Y-153600000D03*
X123774533Y-138087500D03*
X154115000Y-139482500D03*
X87378910Y-138250000D03*
X117615000Y-139800000D03*
X160515000Y-137812500D03*
X121015000Y-139730000D03*
X84495004Y-139439996D03*
X157215000Y-138800000D03*
%TO.N,HS_MOS_C*%
X67154277Y-73090000D03*
%TO.N,/FET/HS_MOS_A*%
X63874277Y-72830000D03*
%TO.N,LS_MOS_C*%
X67934277Y-73640000D03*
%TO.N,+3V3*%
X79000000Y-73600000D03*
X65114277Y-68140000D03*
X68600000Y-66370000D03*
X79900000Y-62600000D03*
X59584277Y-41295000D03*
X53214277Y-53610000D03*
X87680723Y-68014931D03*
X72404277Y-74590000D03*
X78674277Y-60855000D03*
X66124277Y-56020000D03*
X81930000Y-70460000D03*
%TO.N,VDD_1*%
X59994277Y-68090000D03*
%TO.N,Current_Sense_C*%
X57200000Y-72000000D03*
X71800000Y-69900000D03*
%TO.N,CAN_RX*%
X87715000Y-47630000D03*
X67425000Y-52440000D03*
%TO.N,TEMP_SENSOR*%
X55600000Y-67200000D03*
X75100000Y-58970000D03*
%TO.N,CAN_TX*%
X68115000Y-52860000D03*
X86205000Y-48280000D03*
%TO.N,VDD_4*%
X71164277Y-55970000D03*
%TO.N,GND*%
X57584277Y-46870000D03*
X71064277Y-57710000D03*
X55434277Y-64245000D03*
X50276777Y-51300000D03*
X64100000Y-62500000D03*
X81525000Y-61500000D03*
X70000000Y-67800000D03*
X59984277Y-66380000D03*
X86900000Y-44100000D03*
X69324277Y-73800000D03*
X77400000Y-62590000D03*
X55200000Y-51882500D03*
X78900000Y-58050000D03*
X84625000Y-41910000D03*
X67031777Y-46470000D03*
X63200000Y-66380000D03*
X55434277Y-59195000D03*
X85815000Y-49690000D03*
X83100000Y-62125000D03*
X89964277Y-59500000D03*
X88900000Y-82600000D03*
X77631480Y-69092646D03*
X85200000Y-82400000D03*
X86887500Y-42312500D03*
%TO.N,/FET/LS_MOS_B*%
X66348517Y-73056396D03*
%TO.N,/FET/LS_MOS_A*%
X64672409Y-72884667D03*
%TO.N,/FET/HS_MOS_B*%
X65459862Y-73025811D03*
%TO.N,-VDC*%
X56615000Y-87900000D03*
X73715000Y-89700000D03*
X134915000Y-88800000D03*
X84965000Y-130650000D03*
X62915000Y-87900000D03*
X78215000Y-86100000D03*
X101615000Y-87900000D03*
X67415000Y-86100000D03*
X98015000Y-86100000D03*
X57515000Y-86100000D03*
X138515000Y-86100000D03*
X56615000Y-88800000D03*
X103415000Y-88800000D03*
X145715000Y-87000000D03*
X107015000Y-86100000D03*
X61115000Y-89700000D03*
X152915000Y-87000000D03*
X140315000Y-88800000D03*
X62915000Y-86100000D03*
X149315000Y-86100000D03*
X98015000Y-87000000D03*
X138515000Y-87000000D03*
X146615000Y-87000000D03*
X58415000Y-87900000D03*
X107915000Y-89700000D03*
X111515000Y-86100000D03*
X107015000Y-87900000D03*
X114445908Y-91289235D03*
X104315000Y-88800000D03*
X97415908Y-92339235D03*
X57515000Y-88800000D03*
X75515000Y-86100000D03*
X70115000Y-86100000D03*
X106115000Y-87000000D03*
X62015000Y-87900000D03*
X135815000Y-88800000D03*
X99815000Y-88800000D03*
X136715000Y-88800000D03*
X110615000Y-87000000D03*
X58415000Y-87000000D03*
X65615000Y-87900000D03*
X120515000Y-88800000D03*
X72815000Y-87000000D03*
X117815000Y-86100000D03*
X122665000Y-142344140D03*
X159015000Y-129900000D03*
X153815000Y-89700000D03*
X98915000Y-86100000D03*
X105215000Y-87000000D03*
X96215000Y-88800000D03*
X66515000Y-87900000D03*
X143015000Y-88800000D03*
X74615000Y-86100000D03*
X133115000Y-87000000D03*
X120665000Y-130700000D03*
X122465000Y-129800000D03*
X100715000Y-87000000D03*
X153815000Y-87000000D03*
X67415000Y-89700000D03*
X61115000Y-88800000D03*
X118715000Y-87000000D03*
X78215000Y-87900000D03*
X76415000Y-88800000D03*
X121565000Y-130700000D03*
X105215000Y-87900000D03*
X107915000Y-87900000D03*
X57515000Y-87900000D03*
X99815000Y-87900000D03*
X131315000Y-89700000D03*
X73715000Y-87000000D03*
X147515000Y-88800000D03*
X80015000Y-88800000D03*
X154015000Y-140700000D03*
X154715000Y-88800000D03*
X86515000Y-142150000D03*
X97115000Y-87000000D03*
X108815000Y-87000000D03*
X62015000Y-89700000D03*
X71915000Y-89700000D03*
X99815000Y-89700000D03*
X159215000Y-89700000D03*
X104315000Y-87900000D03*
X156315000Y-129000000D03*
X96215000Y-87900000D03*
X119615000Y-88800000D03*
X79115000Y-87900000D03*
X114215000Y-86100000D03*
X66515000Y-88800000D03*
X159215000Y-87900000D03*
X71915000Y-87000000D03*
X62015000Y-88800000D03*
X134015000Y-86100000D03*
X62015000Y-87000000D03*
X155615000Y-87900000D03*
X98015000Y-89700000D03*
X146615000Y-87900000D03*
X141528929Y-92124332D03*
X78215000Y-89700000D03*
X101615000Y-87000000D03*
X71015000Y-86100000D03*
X77315000Y-89700000D03*
X136715000Y-87900000D03*
X120665000Y-129800000D03*
X161915000Y-87900000D03*
X152015000Y-87900000D03*
X66515000Y-86100000D03*
X98015000Y-87900000D03*
X119765000Y-129800000D03*
X102515000Y-86100000D03*
X96215000Y-89700000D03*
X160115000Y-89700000D03*
X77315000Y-87900000D03*
X152015000Y-89700000D03*
X72207017Y-91425668D03*
X157415000Y-88800000D03*
X140315000Y-89700000D03*
X139415000Y-87900000D03*
X108815000Y-89700000D03*
X159215000Y-86100000D03*
X140315000Y-87900000D03*
X74615000Y-87900000D03*
X154715000Y-86100000D03*
X141215000Y-87900000D03*
X58415000Y-88800000D03*
X60215000Y-87900000D03*
X157215000Y-129000000D03*
X120515000Y-87900000D03*
X118715000Y-87900000D03*
X71015000Y-87900000D03*
X151115000Y-88800000D03*
X161915000Y-88800000D03*
X136715000Y-89700000D03*
X152915000Y-87900000D03*
X131315000Y-87000000D03*
X158315000Y-86100000D03*
X157415000Y-87900000D03*
X55715000Y-87000000D03*
X71015000Y-89700000D03*
X114215000Y-88800000D03*
X69215000Y-86100000D03*
X155615000Y-88800000D03*
X150215000Y-88800000D03*
X97115000Y-86100000D03*
X103415000Y-89700000D03*
X62915000Y-87000000D03*
X162815000Y-87900000D03*
X97115000Y-89700000D03*
X107915000Y-87000000D03*
X55715000Y-89700000D03*
X104315000Y-86100000D03*
X152015000Y-88800000D03*
X151115000Y-89700000D03*
X150215000Y-87000000D03*
X106115000Y-89700000D03*
X57515000Y-89700000D03*
X110615000Y-89700000D03*
X115115000Y-88800000D03*
X152915000Y-86100000D03*
X112415000Y-86100000D03*
X66457017Y-92425668D03*
X83165000Y-129750000D03*
X100715000Y-88800000D03*
X61115000Y-87900000D03*
X111515000Y-87900000D03*
X102515000Y-87000000D03*
X63815000Y-87900000D03*
X68315000Y-89700000D03*
X134915000Y-89700000D03*
X98015000Y-88800000D03*
X81315000Y-140635000D03*
X98915000Y-87900000D03*
X66515000Y-89700000D03*
X80015000Y-86100000D03*
X119615000Y-89700000D03*
X154715000Y-87900000D03*
X148415000Y-87900000D03*
X75515000Y-87900000D03*
X70115000Y-87000000D03*
X154715000Y-89700000D03*
X83165000Y-130650000D03*
X158115000Y-129000000D03*
X73715000Y-87900000D03*
X161015000Y-87000000D03*
X143015000Y-89700000D03*
X120515000Y-89700000D03*
X98915000Y-88800000D03*
X99815000Y-86100000D03*
X68315000Y-87900000D03*
X138515000Y-87900000D03*
X122465000Y-130700000D03*
X147515000Y-89700000D03*
X67415000Y-88800000D03*
X145715000Y-89700000D03*
X145715000Y-88800000D03*
X79115000Y-88800000D03*
X142115000Y-87900000D03*
X156515000Y-86100000D03*
X75915000Y-91450000D03*
X111515000Y-89700000D03*
X64715000Y-87900000D03*
X63815000Y-87000000D03*
X157415000Y-86100000D03*
X80015000Y-87900000D03*
X63957017Y-92425668D03*
X149315000Y-89700000D03*
X139415000Y-87000000D03*
X135815000Y-86100000D03*
X141215000Y-87000000D03*
X108815000Y-87900000D03*
X156515000Y-87900000D03*
X116915000Y-86100000D03*
X140315000Y-86100000D03*
X107915000Y-86100000D03*
X56615000Y-89700000D03*
X141215000Y-89700000D03*
X132215000Y-87900000D03*
X76415000Y-89700000D03*
X112415000Y-87900000D03*
X131315000Y-87900000D03*
X59315000Y-86100000D03*
X79115000Y-89700000D03*
X60215000Y-89700000D03*
X57515000Y-87000000D03*
X66515000Y-87000000D03*
X73715000Y-86100000D03*
X55715000Y-87900000D03*
X100715000Y-89700000D03*
X137615000Y-87000000D03*
X64715000Y-86100000D03*
X120314000Y-141349000D03*
X99945908Y-92339235D03*
X62915000Y-89700000D03*
X136715000Y-86100000D03*
X133115000Y-89700000D03*
X63815000Y-89700000D03*
X160115000Y-87000000D03*
X77315000Y-87000000D03*
X148415000Y-89700000D03*
X140315000Y-87000000D03*
X114215000Y-89700000D03*
X56615000Y-87000000D03*
X65615000Y-86100000D03*
X144028929Y-92124332D03*
X161915000Y-87000000D03*
X96215000Y-86100000D03*
X111515000Y-87000000D03*
X60215000Y-86100000D03*
X162815000Y-88800000D03*
X98915000Y-89700000D03*
X95315000Y-89700000D03*
X153815000Y-87900000D03*
X155615000Y-86100000D03*
X78215000Y-88800000D03*
X80015000Y-87000000D03*
X72815000Y-89700000D03*
X73715000Y-88800000D03*
X149315000Y-88800000D03*
X159215000Y-88800000D03*
X55715000Y-86100000D03*
X158315000Y-87000000D03*
X132215000Y-89700000D03*
X148415000Y-88800000D03*
X95315000Y-86100000D03*
X71015000Y-87000000D03*
X138515000Y-89700000D03*
X156315000Y-129900000D03*
X109715000Y-89700000D03*
X85865000Y-130650000D03*
X158315000Y-87900000D03*
X142115000Y-87000000D03*
X152915000Y-89700000D03*
X159665000Y-142150000D03*
X149315000Y-87900000D03*
X153815000Y-86100000D03*
X117650000Y-71950000D03*
X109715000Y-87000000D03*
X137615000Y-87900000D03*
X150215000Y-87900000D03*
X159015000Y-129000000D03*
X119765000Y-130700000D03*
X74615000Y-88800000D03*
X120515000Y-87000000D03*
X152015000Y-86100000D03*
X143015000Y-87000000D03*
X116915000Y-89700000D03*
X162815000Y-86100000D03*
X99815000Y-87000000D03*
X134015000Y-88800000D03*
X75515000Y-87000000D03*
X101615000Y-88800000D03*
X136528929Y-92049332D03*
X106115000Y-88800000D03*
X69215000Y-87900000D03*
X158315000Y-88800000D03*
X69215000Y-87000000D03*
X144815000Y-86100000D03*
X115115000Y-87900000D03*
X151115000Y-87000000D03*
X61457017Y-92425668D03*
X143915000Y-89700000D03*
X98915000Y-87000000D03*
X160115000Y-86100000D03*
X156515000Y-87000000D03*
X134015000Y-87900000D03*
X134915000Y-87900000D03*
X76415000Y-87900000D03*
X105215000Y-86100000D03*
X106115000Y-87900000D03*
X65615000Y-89700000D03*
X154715000Y-87000000D03*
X161915000Y-86100000D03*
X119615000Y-87900000D03*
X75515000Y-88800000D03*
X109715000Y-87900000D03*
X153815000Y-88800000D03*
X139415000Y-86100000D03*
X68315000Y-86100000D03*
X161015000Y-86100000D03*
X146615000Y-88800000D03*
X118865000Y-129800000D03*
X104945908Y-92339235D03*
X96215000Y-87000000D03*
X117815000Y-87900000D03*
X59315000Y-88800000D03*
X157415000Y-89700000D03*
X69215000Y-89700000D03*
X144815000Y-87000000D03*
X79115000Y-87000000D03*
X113315000Y-86100000D03*
X102515000Y-88800000D03*
X117815000Y-87000000D03*
X139415000Y-89700000D03*
X118715000Y-86100000D03*
X107015000Y-87000000D03*
X115115000Y-89700000D03*
X55715000Y-88800000D03*
X71015000Y-88800000D03*
X100715000Y-87900000D03*
X145715000Y-87900000D03*
X161015000Y-87900000D03*
X161015000Y-89700000D03*
X117665000Y-140935000D03*
X155415000Y-129900000D03*
X74615000Y-87000000D03*
X103415000Y-86100000D03*
X132215000Y-88800000D03*
X59315000Y-87000000D03*
X79115000Y-86100000D03*
X108815000Y-88800000D03*
X63815000Y-88800000D03*
X70115000Y-87900000D03*
X104315000Y-87000000D03*
X80015000Y-89700000D03*
X158315000Y-89700000D03*
X135815000Y-87000000D03*
X95315000Y-87000000D03*
X147515000Y-87000000D03*
X133115000Y-86100000D03*
X107915000Y-88800000D03*
X162815000Y-89700000D03*
X138515000Y-88800000D03*
X62915000Y-88800000D03*
X160115000Y-88800000D03*
X65615000Y-87000000D03*
X107445908Y-92339235D03*
X117815000Y-89700000D03*
X134015000Y-89700000D03*
X97115000Y-88800000D03*
X116015000Y-87000000D03*
X135815000Y-87900000D03*
X156515000Y-89700000D03*
X102445908Y-92339235D03*
X67415000Y-87900000D03*
X113315000Y-88800000D03*
X67415000Y-87000000D03*
X134015000Y-87000000D03*
X105215000Y-88800000D03*
X148415000Y-86100000D03*
X169762277Y-76756105D03*
X102515000Y-87900000D03*
X121565000Y-129800000D03*
X77315000Y-88800000D03*
X113315000Y-87000000D03*
X142115000Y-86100000D03*
X149315000Y-87000000D03*
X158115000Y-129900000D03*
X58977017Y-92363168D03*
X151115000Y-86100000D03*
X112415000Y-89700000D03*
X58415000Y-89700000D03*
X160115000Y-87900000D03*
X162815000Y-87000000D03*
X95315000Y-88800000D03*
X108815000Y-86100000D03*
X70115000Y-89700000D03*
X71915000Y-87900000D03*
X82265000Y-129750000D03*
X118715000Y-88800000D03*
X84365000Y-140950000D03*
X133115000Y-88800000D03*
X100715000Y-86100000D03*
X157215000Y-129900000D03*
X118865000Y-130700000D03*
X155615000Y-89700000D03*
X143915000Y-87000000D03*
X64715000Y-87000000D03*
X161015000Y-88800000D03*
X133115000Y-87900000D03*
X69215000Y-88800000D03*
X150215000Y-89700000D03*
X137615000Y-86100000D03*
X134028929Y-92049332D03*
X110615000Y-86100000D03*
X105215000Y-89700000D03*
X143915000Y-87900000D03*
X141215000Y-86100000D03*
X155615000Y-87000000D03*
X107015000Y-88800000D03*
X61115000Y-86100000D03*
X134915000Y-86100000D03*
X137615000Y-88800000D03*
X141215000Y-88800000D03*
X112415000Y-87000000D03*
X64715000Y-88800000D03*
X155415000Y-129000000D03*
X72815000Y-86100000D03*
X85865000Y-129750000D03*
X116015000Y-87900000D03*
X132215000Y-87000000D03*
X97115000Y-87900000D03*
X131315000Y-88800000D03*
X102515000Y-89700000D03*
X152915000Y-88800000D03*
X74615000Y-89700000D03*
X116015000Y-89700000D03*
X107015000Y-89700000D03*
X142115000Y-89700000D03*
X101615000Y-89700000D03*
X136715000Y-87000000D03*
X144815000Y-89700000D03*
X116915000Y-87900000D03*
X106115000Y-86100000D03*
X103415000Y-87000000D03*
X116015000Y-86100000D03*
X75515000Y-89700000D03*
X134915000Y-87000000D03*
X131315000Y-86100000D03*
X59315000Y-89700000D03*
X144815000Y-87900000D03*
X143915000Y-86100000D03*
X135815000Y-89700000D03*
X116015000Y-88800000D03*
X60215000Y-87000000D03*
X116915000Y-87000000D03*
X70115000Y-88800000D03*
X113315000Y-89700000D03*
X145715000Y-86100000D03*
X104315000Y-89700000D03*
X103415000Y-87900000D03*
X114215000Y-87900000D03*
X82265000Y-130650000D03*
X143015000Y-86100000D03*
X151028929Y-91061832D03*
X120515000Y-86100000D03*
X159215000Y-87000000D03*
X78215000Y-87000000D03*
X142115000Y-88800000D03*
X110615000Y-87900000D03*
X146615000Y-86100000D03*
X76415000Y-87000000D03*
X101615000Y-86100000D03*
X118715000Y-89700000D03*
X84065000Y-129750000D03*
X110615000Y-88800000D03*
X60215000Y-88800000D03*
X61115000Y-87000000D03*
X157415000Y-87000000D03*
X137615000Y-89700000D03*
X112415000Y-88800000D03*
X150215000Y-86100000D03*
X157215000Y-141150000D03*
X144815000Y-88800000D03*
X119615000Y-87000000D03*
X119615000Y-86100000D03*
X147028929Y-91061832D03*
X72815000Y-88800000D03*
X59315000Y-87900000D03*
X58415000Y-86100000D03*
X64715000Y-89700000D03*
X161915000Y-89700000D03*
X115115000Y-86100000D03*
X152015000Y-87000000D03*
X77315000Y-86100000D03*
X62015000Y-86100000D03*
X113315000Y-87900000D03*
X68315000Y-87000000D03*
X68957017Y-92425668D03*
X147515000Y-86100000D03*
X139028929Y-92124332D03*
X147515000Y-87900000D03*
X117815000Y-88800000D03*
X109715000Y-88800000D03*
X151115000Y-87900000D03*
X63815000Y-86100000D03*
X132215000Y-86100000D03*
X146615000Y-89700000D03*
X114215000Y-87000000D03*
X71915000Y-86100000D03*
X68315000Y-88800000D03*
X56615000Y-86100000D03*
X95315000Y-87900000D03*
X65615000Y-88800000D03*
X143915000Y-88800000D03*
X72815000Y-87900000D03*
X109715000Y-86100000D03*
X139415000Y-88800000D03*
X71915000Y-88800000D03*
X123319002Y-68927038D03*
X76415000Y-86100000D03*
X115115000Y-87000000D03*
X148415000Y-87000000D03*
X84965000Y-129750000D03*
X110445908Y-91289235D03*
X116915000Y-88800000D03*
X111515000Y-88800000D03*
X143015000Y-87900000D03*
X156515000Y-88800000D03*
%TO.N,Net-(D7-K)*%
X47957017Y-126313168D03*
%TO.N,Net-(U8-VIQ)*%
X89325000Y-41310000D03*
%TO.N,Net-(D4-K)*%
X85025908Y-126764235D03*
%TO.N,Net-(D5-K)*%
X121458929Y-126066832D03*
%TO.N,PANIC STOP*%
X58615378Y-58934069D03*
X49250000Y-56250000D03*
%TO.N,Net-(Q6-Pad1)*%
X96745908Y-113364235D03*
%TO.N,Net-(Q7-Pad1)*%
X96145908Y-136764235D03*
%TO.N,Net-(Q8-Pad1)*%
X107543810Y-113420246D03*
%TO.N,Net-(Q9-Pad1)*%
X106945908Y-136864235D03*
%TO.N,Net-(Q18-Pad1)*%
X133162322Y-112831484D03*
%TO.N,Net-(Q19-Pad1)*%
X132828929Y-136186832D03*
%TO.N,Net-(Q20-Pad1)*%
X143974277Y-112930238D03*
%TO.N,Net-(Q21-Pad1)*%
X143728929Y-135986832D03*
%TO.N,Net-(U6-VS)*%
X87445908Y-123364235D03*
%TO.N,Net-(U10-VS)*%
X123968929Y-123176832D03*
%TO.N,Current Sense_B*%
X58665380Y-65165380D03*
X120200000Y-142800000D03*
%TO.N,Net-(Q2-B)*%
X93807825Y-48023663D03*
%TO.N,Net-(Q7-Pad2)*%
X108145908Y-136114235D03*
X100895908Y-136164235D03*
X111745908Y-136114235D03*
X109345908Y-136114235D03*
X114145908Y-136114235D03*
X103295908Y-136164235D03*
X112945908Y-136114235D03*
X110545908Y-136114235D03*
X115345908Y-136114235D03*
X120665000Y-136750000D03*
X104495908Y-136164235D03*
X102095908Y-136164235D03*
X98495908Y-136164235D03*
X97295908Y-136164235D03*
X99695908Y-136164235D03*
%TO.N,Net-(Q16-Pad2)*%
X84115000Y-136600000D03*
X78565000Y-136375000D03*
X66465000Y-136375000D03*
X73765000Y-136375000D03*
X64065000Y-136375000D03*
X77365000Y-136375000D03*
X71315000Y-136375000D03*
X60465000Y-136375000D03*
X65265000Y-136375000D03*
X62865000Y-136375000D03*
X76165000Y-136375000D03*
X61665000Y-136375000D03*
X67665000Y-136375000D03*
X72515000Y-136375000D03*
X74965000Y-136375000D03*
%TO.N,Net-(Q19-Pad2)*%
X135178929Y-135786832D03*
X152078929Y-135836832D03*
X136378929Y-135786832D03*
X150878929Y-135836832D03*
X141178929Y-135786832D03*
X144878929Y-135836832D03*
X138778929Y-135786832D03*
X137578929Y-135786832D03*
X139978929Y-135786832D03*
X146078929Y-135836832D03*
X149678929Y-135836832D03*
X134026424Y-135968890D03*
X157200000Y-136000000D03*
X148478929Y-135836832D03*
X147278929Y-135836832D03*
%TD*%
D28*
%TO.N,+12V*%
X120218929Y-111846832D02*
X117100000Y-114965761D01*
X117100000Y-114965761D02*
X117100000Y-138300000D01*
X117100000Y-138300000D02*
X115000000Y-140400000D01*
D29*
%TO.N,+5V*%
X81775000Y-39975000D02*
X77005000Y-39975000D01*
X93514277Y-62690000D02*
X95090000Y-62690000D01*
X95090000Y-62690000D02*
X95400000Y-63000000D01*
X81900000Y-40800000D02*
X81900000Y-40100000D01*
X81900000Y-40100000D02*
X81775000Y-39975000D01*
%TO.N,GND*%
X89964277Y-59500000D02*
X89964277Y-58210001D01*
D28*
%TO.N,-VDC*%
X85000000Y-140635000D02*
X86515000Y-142150000D01*
X117900000Y-72200000D02*
X117650000Y-71950000D01*
X125365000Y-139644140D02*
X125365000Y-129550000D01*
X123319002Y-70080998D02*
X121200000Y-72200000D01*
X117650000Y-71950000D02*
X117600000Y-71900000D01*
X121200000Y-72200000D02*
X120300000Y-72200000D01*
X120300000Y-85885000D02*
X120515000Y-86100000D01*
X122665000Y-142344140D02*
X125365000Y-139644140D01*
X120314000Y-141349000D02*
X121669860Y-141349000D01*
X117665000Y-140935000D02*
X119900000Y-140935000D01*
X81315000Y-140635000D02*
X85000000Y-140635000D01*
X120300000Y-72200000D02*
X120300000Y-85885000D01*
X88765000Y-139900000D02*
X88765000Y-130700000D01*
X120300000Y-72200000D02*
X117900000Y-72200000D01*
X121669860Y-141349000D02*
X122665000Y-142344140D01*
X86515000Y-142150000D02*
X88765000Y-139900000D01*
X123319002Y-68927038D02*
X123319002Y-70080998D01*
%TD*%
%TA.AperFunction,Conductor*%
%TO.N,-VDC*%
G36*
X163140638Y-85099711D02*
G01*
X163207630Y-85119551D01*
X163253262Y-85172461D01*
X163264347Y-85224362D01*
X163015660Y-132624054D01*
X162995624Y-132690989D01*
X162942581Y-132736466D01*
X162889079Y-132747376D01*
X160615005Y-132700000D01*
X160615000Y-132700000D01*
X118224500Y-132700000D01*
X118157461Y-132680315D01*
X118111706Y-132627511D01*
X118100500Y-132576000D01*
X118100500Y-125987985D01*
X120658429Y-125987985D01*
X120658429Y-126145678D01*
X120689190Y-126300321D01*
X120689193Y-126300333D01*
X120749531Y-126446004D01*
X120749538Y-126446017D01*
X120837139Y-126577120D01*
X120837142Y-126577124D01*
X120948636Y-126688618D01*
X120948640Y-126688621D01*
X121079743Y-126776222D01*
X121079756Y-126776229D01*
X121225427Y-126836567D01*
X121225432Y-126836569D01*
X121380082Y-126867331D01*
X121380085Y-126867332D01*
X121380087Y-126867332D01*
X121537773Y-126867332D01*
X121537774Y-126867331D01*
X121692426Y-126836569D01*
X121838108Y-126776226D01*
X121969218Y-126688621D01*
X122080718Y-126577121D01*
X122168323Y-126446011D01*
X122228666Y-126300329D01*
X122259429Y-126145674D01*
X122259429Y-125987990D01*
X122259429Y-125987987D01*
X122259428Y-125987985D01*
X122228667Y-125833342D01*
X122228666Y-125833335D01*
X122228664Y-125833330D01*
X122168326Y-125687659D01*
X122168319Y-125687646D01*
X122080718Y-125556543D01*
X122080715Y-125556539D01*
X121969221Y-125445045D01*
X121969217Y-125445042D01*
X121838114Y-125357441D01*
X121838101Y-125357434D01*
X121692430Y-125297096D01*
X121692418Y-125297093D01*
X121537774Y-125266332D01*
X121537771Y-125266332D01*
X121380087Y-125266332D01*
X121380084Y-125266332D01*
X121225439Y-125297093D01*
X121225427Y-125297096D01*
X121079756Y-125357434D01*
X121079743Y-125357441D01*
X120948640Y-125445042D01*
X120948636Y-125445045D01*
X120837142Y-125556539D01*
X120837139Y-125556543D01*
X120749538Y-125687646D01*
X120749531Y-125687659D01*
X120689193Y-125833330D01*
X120689190Y-125833342D01*
X120658429Y-125987985D01*
X118100500Y-125987985D01*
X118100500Y-123097985D01*
X123168429Y-123097985D01*
X123168429Y-123255678D01*
X123199190Y-123410321D01*
X123199193Y-123410333D01*
X123259531Y-123556004D01*
X123259538Y-123556017D01*
X123347139Y-123687120D01*
X123347142Y-123687124D01*
X123458636Y-123798618D01*
X123458640Y-123798621D01*
X123589743Y-123886222D01*
X123589756Y-123886229D01*
X123735427Y-123946567D01*
X123735432Y-123946569D01*
X123890082Y-123977331D01*
X123890085Y-123977332D01*
X123890087Y-123977332D01*
X124047773Y-123977332D01*
X124047774Y-123977331D01*
X124202426Y-123946569D01*
X124348108Y-123886226D01*
X124479218Y-123798621D01*
X124590718Y-123687121D01*
X124678323Y-123556011D01*
X124738666Y-123410329D01*
X124769429Y-123255674D01*
X124769429Y-123097990D01*
X124769429Y-123097987D01*
X124769428Y-123097985D01*
X124752612Y-123013446D01*
X124738666Y-122943335D01*
X124738664Y-122943330D01*
X124678326Y-122797659D01*
X124678319Y-122797646D01*
X124590718Y-122666543D01*
X124590715Y-122666539D01*
X124479221Y-122555045D01*
X124479217Y-122555042D01*
X124348114Y-122467441D01*
X124348101Y-122467434D01*
X124202430Y-122407096D01*
X124202418Y-122407093D01*
X124047774Y-122376332D01*
X124047771Y-122376332D01*
X123890087Y-122376332D01*
X123890084Y-122376332D01*
X123735439Y-122407093D01*
X123735427Y-122407096D01*
X123589756Y-122467434D01*
X123589743Y-122467441D01*
X123458640Y-122555042D01*
X123458636Y-122555045D01*
X123347142Y-122666539D01*
X123347139Y-122666543D01*
X123259538Y-122797646D01*
X123259531Y-122797659D01*
X123199193Y-122943330D01*
X123199190Y-122943342D01*
X123168429Y-123097985D01*
X118100500Y-123097985D01*
X118100500Y-115431543D01*
X118120185Y-115364504D01*
X118136819Y-115343862D01*
X119158123Y-114322558D01*
X120307133Y-113173547D01*
X120368454Y-113140064D01*
X120375404Y-113138758D01*
X120523463Y-113115309D01*
X120718148Y-113052052D01*
X120900539Y-112959119D01*
X120993519Y-112891564D01*
X121066142Y-112838803D01*
X121066144Y-112838800D01*
X121066148Y-112838798D01*
X121152309Y-112752637D01*
X132361822Y-112752637D01*
X132361822Y-112910330D01*
X132392583Y-113064973D01*
X132392586Y-113064985D01*
X132452924Y-113210656D01*
X132452931Y-113210669D01*
X132540532Y-113341772D01*
X132540535Y-113341776D01*
X132652029Y-113453270D01*
X132652033Y-113453273D01*
X132783136Y-113540874D01*
X132783149Y-113540881D01*
X132920382Y-113597724D01*
X132928825Y-113601221D01*
X133083475Y-113631983D01*
X133083478Y-113631984D01*
X133083480Y-113631984D01*
X133241166Y-113631984D01*
X133241167Y-113631983D01*
X133395819Y-113601221D01*
X133541501Y-113540878D01*
X133672611Y-113453273D01*
X133784111Y-113341773D01*
X133871716Y-113210663D01*
X133881624Y-113186744D01*
X133904824Y-113130733D01*
X133932059Y-113064981D01*
X133962822Y-112910326D01*
X133962822Y-112851391D01*
X143173777Y-112851391D01*
X143173777Y-113009084D01*
X143204538Y-113163727D01*
X143204541Y-113163739D01*
X143264879Y-113309410D01*
X143264886Y-113309423D01*
X143352487Y-113440526D01*
X143352490Y-113440530D01*
X143463984Y-113552024D01*
X143463988Y-113552027D01*
X143595091Y-113639628D01*
X143595104Y-113639635D01*
X143721555Y-113692012D01*
X143740780Y-113699975D01*
X143895430Y-113730737D01*
X143895433Y-113730738D01*
X143895435Y-113730738D01*
X144053121Y-113730738D01*
X144053122Y-113730737D01*
X144207774Y-113699975D01*
X144353456Y-113639632D01*
X144484566Y-113552027D01*
X144596066Y-113440527D01*
X144683671Y-113309417D01*
X144744014Y-113163735D01*
X144774777Y-113009080D01*
X144774777Y-112851396D01*
X144774777Y-112851393D01*
X144774776Y-112851391D01*
X144764247Y-112798457D01*
X144744014Y-112696741D01*
X144724864Y-112650509D01*
X144683674Y-112551065D01*
X144683667Y-112551052D01*
X144596066Y-112419949D01*
X144596063Y-112419945D01*
X144484569Y-112308451D01*
X144484565Y-112308448D01*
X144353462Y-112220847D01*
X144353449Y-112220840D01*
X144207778Y-112160502D01*
X144207766Y-112160499D01*
X144053122Y-112129738D01*
X144053119Y-112129738D01*
X143895435Y-112129738D01*
X143895432Y-112129738D01*
X143740787Y-112160499D01*
X143740775Y-112160502D01*
X143595104Y-112220840D01*
X143595091Y-112220847D01*
X143463988Y-112308448D01*
X143463984Y-112308451D01*
X143352490Y-112419945D01*
X143352487Y-112419949D01*
X143264886Y-112551052D01*
X143264879Y-112551065D01*
X143204541Y-112696736D01*
X143204538Y-112696748D01*
X143173777Y-112851391D01*
X133962822Y-112851391D01*
X133962822Y-112752642D01*
X133962822Y-112752639D01*
X133962821Y-112752637D01*
X133954509Y-112710852D01*
X133932059Y-112597987D01*
X133930613Y-112594496D01*
X133871719Y-112452311D01*
X133871712Y-112452298D01*
X133784111Y-112321195D01*
X133784108Y-112321191D01*
X133672614Y-112209697D01*
X133672610Y-112209694D01*
X133541507Y-112122093D01*
X133541494Y-112122086D01*
X133395823Y-112061748D01*
X133395811Y-112061745D01*
X133241167Y-112030984D01*
X133241164Y-112030984D01*
X133083480Y-112030984D01*
X133083477Y-112030984D01*
X132928832Y-112061745D01*
X132928820Y-112061748D01*
X132783149Y-112122086D01*
X132783136Y-112122093D01*
X132652033Y-112209694D01*
X132652029Y-112209697D01*
X132540535Y-112321191D01*
X132540532Y-112321195D01*
X132452931Y-112452298D01*
X132452924Y-112452311D01*
X132392586Y-112597982D01*
X132392583Y-112597994D01*
X132361822Y-112752637D01*
X121152309Y-112752637D01*
X121210895Y-112694051D01*
X121210898Y-112694047D01*
X121225706Y-112673666D01*
X121225706Y-112673665D01*
X121239380Y-112654844D01*
X121331216Y-112528442D01*
X121424149Y-112346051D01*
X121487406Y-112151366D01*
X121519429Y-111949184D01*
X121519429Y-111744480D01*
X121488935Y-111551950D01*
X121487406Y-111542297D01*
X121424147Y-111347608D01*
X121390432Y-111281439D01*
X121331216Y-111165222D01*
X121323485Y-111154581D01*
X121210900Y-110999618D01*
X121066142Y-110854860D01*
X120900542Y-110734547D01*
X120900541Y-110734546D01*
X120900539Y-110734545D01*
X120843582Y-110705523D01*
X120718152Y-110641613D01*
X120523463Y-110578354D01*
X120348924Y-110550710D01*
X120321281Y-110546332D01*
X120116577Y-110546332D01*
X120092258Y-110550183D01*
X119914394Y-110578354D01*
X119719705Y-110641613D01*
X119537315Y-110734547D01*
X119371715Y-110854860D01*
X119226957Y-110999618D01*
X119106644Y-111165218D01*
X119013710Y-111347610D01*
X118950451Y-111542300D01*
X118927002Y-111690346D01*
X118897072Y-111753481D01*
X118892210Y-111758628D01*
X117053116Y-113597724D01*
X116462220Y-114188620D01*
X116462218Y-114188622D01*
X116415886Y-114234954D01*
X116322859Y-114327980D01*
X116213371Y-114491840D01*
X116213364Y-114491853D01*
X116137950Y-114673921D01*
X116137947Y-114673931D01*
X116099500Y-114867217D01*
X116099500Y-132576000D01*
X116079815Y-132643039D01*
X116027011Y-132688794D01*
X115975500Y-132700000D01*
X51188686Y-132700000D01*
X51121647Y-132680315D01*
X51075892Y-132627511D01*
X51064686Y-132576315D01*
X51051888Y-127533970D01*
X51049734Y-126685388D01*
X84225408Y-126685388D01*
X84225408Y-126843081D01*
X84256169Y-126997724D01*
X84256172Y-126997736D01*
X84316510Y-127143407D01*
X84316517Y-127143420D01*
X84404118Y-127274523D01*
X84404121Y-127274527D01*
X84515615Y-127386021D01*
X84515619Y-127386024D01*
X84646722Y-127473625D01*
X84646735Y-127473632D01*
X84792406Y-127533970D01*
X84792411Y-127533972D01*
X84947061Y-127564734D01*
X84947064Y-127564735D01*
X84947066Y-127564735D01*
X85104752Y-127564735D01*
X85104753Y-127564734D01*
X85259405Y-127533972D01*
X85405087Y-127473629D01*
X85536197Y-127386024D01*
X85647697Y-127274524D01*
X85735302Y-127143414D01*
X85795645Y-126997732D01*
X85826408Y-126843077D01*
X85826408Y-126685393D01*
X85826408Y-126685390D01*
X85826407Y-126685388D01*
X85795646Y-126530745D01*
X85795645Y-126530738D01*
X85760553Y-126446017D01*
X85735305Y-126385062D01*
X85735298Y-126385049D01*
X85647697Y-126253946D01*
X85647694Y-126253942D01*
X85536200Y-126142448D01*
X85536196Y-126142445D01*
X85405093Y-126054844D01*
X85405080Y-126054837D01*
X85259409Y-125994499D01*
X85259397Y-125994496D01*
X85104753Y-125963735D01*
X85104750Y-125963735D01*
X84947066Y-125963735D01*
X84947063Y-125963735D01*
X84792418Y-125994496D01*
X84792406Y-125994499D01*
X84646735Y-126054837D01*
X84646722Y-126054844D01*
X84515619Y-126142445D01*
X84515615Y-126142448D01*
X84404121Y-126253942D01*
X84404118Y-126253946D01*
X84316517Y-126385049D01*
X84316510Y-126385062D01*
X84256172Y-126530733D01*
X84256169Y-126530745D01*
X84225408Y-126685388D01*
X51049734Y-126685388D01*
X51043453Y-124210483D01*
X51062967Y-124143398D01*
X51075104Y-124128301D01*
X51074941Y-124128167D01*
X51078806Y-124123457D01*
X51166407Y-123992353D01*
X51166407Y-123992352D01*
X51166411Y-123992347D01*
X51226754Y-123846665D01*
X51257517Y-123692010D01*
X51257517Y-123534326D01*
X51257517Y-123534323D01*
X51257516Y-123534321D01*
X51239367Y-123443081D01*
X51226754Y-123379671D01*
X51187701Y-123285388D01*
X86645408Y-123285388D01*
X86645408Y-123443081D01*
X86676169Y-123597724D01*
X86676172Y-123597736D01*
X86736510Y-123743407D01*
X86736517Y-123743420D01*
X86824118Y-123874523D01*
X86824121Y-123874527D01*
X86935615Y-123986021D01*
X86935619Y-123986024D01*
X87066722Y-124073625D01*
X87066735Y-124073632D01*
X87187025Y-124123457D01*
X87212411Y-124133972D01*
X87367061Y-124164734D01*
X87367064Y-124164735D01*
X87367066Y-124164735D01*
X87524752Y-124164735D01*
X87524753Y-124164734D01*
X87679405Y-124133972D01*
X87825087Y-124073629D01*
X87956197Y-123986024D01*
X88067697Y-123874524D01*
X88155302Y-123743414D01*
X88215645Y-123597732D01*
X88246408Y-123443077D01*
X88246408Y-123285393D01*
X88246408Y-123285390D01*
X88246407Y-123285388D01*
X88215646Y-123130745D01*
X88215645Y-123130738D01*
X88204104Y-123102875D01*
X88155305Y-122985062D01*
X88155298Y-122985049D01*
X88067697Y-122853946D01*
X88067694Y-122853942D01*
X87956200Y-122742448D01*
X87956196Y-122742445D01*
X87825093Y-122654844D01*
X87825080Y-122654837D01*
X87679409Y-122594499D01*
X87679397Y-122594496D01*
X87524753Y-122563735D01*
X87524750Y-122563735D01*
X87367066Y-122563735D01*
X87367063Y-122563735D01*
X87212418Y-122594496D01*
X87212406Y-122594499D01*
X87066735Y-122654837D01*
X87066722Y-122654844D01*
X86935619Y-122742445D01*
X86935615Y-122742448D01*
X86824121Y-122853942D01*
X86824118Y-122853946D01*
X86736517Y-122985049D01*
X86736510Y-122985062D01*
X86676172Y-123130733D01*
X86676169Y-123130745D01*
X86645408Y-123285388D01*
X51187701Y-123285388D01*
X51175393Y-123255674D01*
X51166414Y-123233995D01*
X51166407Y-123233982D01*
X51078806Y-123102879D01*
X51078803Y-123102875D01*
X51076733Y-123100805D01*
X51075994Y-123099453D01*
X51074941Y-123098169D01*
X51075184Y-123097969D01*
X51043248Y-123039482D01*
X51040414Y-123013446D01*
X51015848Y-113334321D01*
X59056517Y-113334321D01*
X59056517Y-113492014D01*
X59087278Y-113646657D01*
X59087281Y-113646669D01*
X59147619Y-113792340D01*
X59147626Y-113792353D01*
X59235227Y-113923456D01*
X59235230Y-113923460D01*
X59346724Y-114034954D01*
X59346728Y-114034957D01*
X59477831Y-114122558D01*
X59477844Y-114122565D01*
X59579653Y-114164735D01*
X59623520Y-114182905D01*
X59778170Y-114213667D01*
X59778173Y-114213668D01*
X59778175Y-114213668D01*
X59935861Y-114213668D01*
X59935862Y-114213667D01*
X60090514Y-114182905D01*
X60236196Y-114122562D01*
X60367306Y-114034957D01*
X60478806Y-113923457D01*
X60566411Y-113792347D01*
X60626754Y-113646665D01*
X60645579Y-113552027D01*
X60649101Y-113534321D01*
X69856517Y-113534321D01*
X69856517Y-113692014D01*
X69887278Y-113846657D01*
X69887281Y-113846669D01*
X69947619Y-113992340D01*
X69947626Y-113992353D01*
X70035227Y-114123456D01*
X70035230Y-114123460D01*
X70146724Y-114234954D01*
X70146728Y-114234957D01*
X70277831Y-114322558D01*
X70277844Y-114322565D01*
X70423515Y-114382903D01*
X70423520Y-114382905D01*
X70578170Y-114413667D01*
X70578173Y-114413668D01*
X70578175Y-114413668D01*
X70735861Y-114413668D01*
X70735862Y-114413667D01*
X70890514Y-114382905D01*
X71036196Y-114322562D01*
X71167306Y-114234957D01*
X71278806Y-114123457D01*
X71366411Y-113992347D01*
X71426754Y-113846665D01*
X71457517Y-113692010D01*
X71457517Y-113534326D01*
X71457517Y-113534323D01*
X71457516Y-113534321D01*
X71450508Y-113499088D01*
X71426754Y-113379671D01*
X71412743Y-113345845D01*
X71366414Y-113233995D01*
X71366407Y-113233982D01*
X71278806Y-113102879D01*
X71278803Y-113102875D01*
X71167309Y-112991381D01*
X71167305Y-112991378D01*
X71036202Y-112903777D01*
X71036189Y-112903770D01*
X70890518Y-112843432D01*
X70890506Y-112843429D01*
X70735862Y-112812668D01*
X70735859Y-112812668D01*
X70578175Y-112812668D01*
X70578172Y-112812668D01*
X70423527Y-112843429D01*
X70423515Y-112843432D01*
X70277844Y-112903770D01*
X70277831Y-112903777D01*
X70146728Y-112991378D01*
X70146724Y-112991381D01*
X70035230Y-113102875D01*
X70035227Y-113102879D01*
X69947626Y-113233982D01*
X69947619Y-113233995D01*
X69887281Y-113379666D01*
X69887278Y-113379678D01*
X69856517Y-113534321D01*
X60649101Y-113534321D01*
X60655124Y-113504043D01*
X60655124Y-113504042D01*
X60657517Y-113492012D01*
X60657517Y-113334323D01*
X60657516Y-113334321D01*
X60652561Y-113309410D01*
X60626754Y-113179671D01*
X60620150Y-113163727D01*
X60566414Y-113033995D01*
X60566407Y-113033982D01*
X60478806Y-112902879D01*
X60478803Y-112902875D01*
X60367309Y-112791381D01*
X60367305Y-112791378D01*
X60236202Y-112703777D01*
X60236189Y-112703770D01*
X60158454Y-112671572D01*
X60090518Y-112643432D01*
X60090506Y-112643429D01*
X59935862Y-112612668D01*
X59935859Y-112612668D01*
X59778175Y-112612668D01*
X59778172Y-112612668D01*
X59623527Y-112643429D01*
X59623515Y-112643432D01*
X59477844Y-112703770D01*
X59477831Y-112703777D01*
X59346728Y-112791378D01*
X59346724Y-112791381D01*
X59235230Y-112902875D01*
X59235227Y-112902879D01*
X59147626Y-113033982D01*
X59147619Y-113033995D01*
X59087281Y-113179666D01*
X59087278Y-113179678D01*
X59056517Y-113334321D01*
X51015848Y-113334321D01*
X51013888Y-112561883D01*
X82545408Y-112561883D01*
X82545408Y-112766586D01*
X82577430Y-112968769D01*
X82640689Y-113163458D01*
X82676627Y-113233989D01*
X82731546Y-113341773D01*
X82733623Y-113345848D01*
X82853936Y-113511448D01*
X82998694Y-113656206D01*
X83153657Y-113768791D01*
X83164298Y-113776522D01*
X83280515Y-113835738D01*
X83346684Y-113869453D01*
X83346686Y-113869453D01*
X83346689Y-113869455D01*
X83451045Y-113903362D01*
X83541373Y-113932712D01*
X83642465Y-113948723D01*
X83743556Y-113964735D01*
X83743557Y-113964735D01*
X83948259Y-113964735D01*
X83948260Y-113964735D01*
X84150442Y-113932712D01*
X84345127Y-113869455D01*
X84527518Y-113776522D01*
X84620498Y-113708967D01*
X84693121Y-113656206D01*
X84693123Y-113656203D01*
X84693127Y-113656201D01*
X84837874Y-113511454D01*
X84837876Y-113511450D01*
X84837879Y-113511448D01*
X84933619Y-113379671D01*
X84958195Y-113345845D01*
X84988999Y-113285388D01*
X95945408Y-113285388D01*
X95945408Y-113443081D01*
X95976169Y-113597724D01*
X95976172Y-113597736D01*
X96036510Y-113743407D01*
X96036517Y-113743420D01*
X96124118Y-113874523D01*
X96124121Y-113874527D01*
X96235615Y-113986021D01*
X96235619Y-113986024D01*
X96366722Y-114073625D01*
X96366735Y-114073632D01*
X96501960Y-114129643D01*
X96512411Y-114133972D01*
X96667061Y-114164734D01*
X96667064Y-114164735D01*
X96667066Y-114164735D01*
X96824752Y-114164735D01*
X96824753Y-114164734D01*
X96979405Y-114133972D01*
X97125087Y-114073629D01*
X97256197Y-113986024D01*
X97367697Y-113874524D01*
X97455302Y-113743414D01*
X97515645Y-113597732D01*
X97546408Y-113443077D01*
X97546408Y-113341399D01*
X106743310Y-113341399D01*
X106743310Y-113499092D01*
X106774071Y-113653735D01*
X106774074Y-113653747D01*
X106834412Y-113799418D01*
X106834419Y-113799431D01*
X106922020Y-113930534D01*
X106922023Y-113930538D01*
X107033517Y-114042032D01*
X107033521Y-114042035D01*
X107164624Y-114129636D01*
X107164637Y-114129643D01*
X107310308Y-114189981D01*
X107310313Y-114189983D01*
X107429380Y-114213667D01*
X107464963Y-114220745D01*
X107464966Y-114220746D01*
X107464968Y-114220746D01*
X107622654Y-114220746D01*
X107622655Y-114220745D01*
X107777307Y-114189983D01*
X107912531Y-114133972D01*
X107922982Y-114129643D01*
X107922982Y-114129642D01*
X107922989Y-114129640D01*
X108054099Y-114042035D01*
X108165599Y-113930535D01*
X108253204Y-113799425D01*
X108313547Y-113653743D01*
X108344310Y-113499088D01*
X108344310Y-113341404D01*
X108344310Y-113341401D01*
X108344309Y-113341399D01*
X108342901Y-113334321D01*
X108313547Y-113186749D01*
X108310613Y-113179666D01*
X108253207Y-113041073D01*
X108253200Y-113041060D01*
X108165599Y-112909957D01*
X108165596Y-112909953D01*
X108054102Y-112798459D01*
X108054098Y-112798456D01*
X107922995Y-112710855D01*
X107922982Y-112710848D01*
X107777311Y-112650510D01*
X107777299Y-112650507D01*
X107622655Y-112619746D01*
X107622652Y-112619746D01*
X107464968Y-112619746D01*
X107464965Y-112619746D01*
X107310320Y-112650507D01*
X107310308Y-112650510D01*
X107164637Y-112710848D01*
X107164624Y-112710855D01*
X107033521Y-112798456D01*
X107033517Y-112798459D01*
X106922023Y-112909953D01*
X106922020Y-112909957D01*
X106834419Y-113041060D01*
X106834412Y-113041073D01*
X106774074Y-113186744D01*
X106774071Y-113186756D01*
X106743310Y-113341399D01*
X97546408Y-113341399D01*
X97546408Y-113285393D01*
X97546408Y-113285390D01*
X97546407Y-113285388D01*
X97531542Y-113210656D01*
X97515645Y-113130738D01*
X97504104Y-113102875D01*
X97455305Y-112985062D01*
X97455298Y-112985049D01*
X97367697Y-112853946D01*
X97367694Y-112853942D01*
X97256200Y-112742448D01*
X97256196Y-112742445D01*
X97125093Y-112654844D01*
X97125080Y-112654837D01*
X96979409Y-112594499D01*
X96979397Y-112594496D01*
X96824753Y-112563735D01*
X96824750Y-112563735D01*
X96667066Y-112563735D01*
X96667063Y-112563735D01*
X96512418Y-112594496D01*
X96512406Y-112594499D01*
X96366735Y-112654837D01*
X96366722Y-112654844D01*
X96235619Y-112742445D01*
X96235615Y-112742448D01*
X96124121Y-112853942D01*
X96124118Y-112853946D01*
X96036517Y-112985049D01*
X96036510Y-112985062D01*
X95976172Y-113130733D01*
X95976169Y-113130745D01*
X95945408Y-113285388D01*
X84988999Y-113285388D01*
X85051128Y-113163454D01*
X85114385Y-112968769D01*
X85146408Y-112766587D01*
X85146408Y-112561883D01*
X85129051Y-112452298D01*
X85114385Y-112359700D01*
X85085035Y-112269372D01*
X85051128Y-112165016D01*
X85051126Y-112165013D01*
X85051126Y-112165011D01*
X84998510Y-112061748D01*
X84958195Y-111982625D01*
X84933898Y-111949183D01*
X84837879Y-111817021D01*
X84693121Y-111672263D01*
X84527521Y-111551950D01*
X84527520Y-111551949D01*
X84527518Y-111551948D01*
X84470561Y-111522926D01*
X84345131Y-111459016D01*
X84150442Y-111395757D01*
X83975903Y-111368113D01*
X83948260Y-111363735D01*
X83743556Y-111363735D01*
X83719237Y-111367586D01*
X83541373Y-111395757D01*
X83346684Y-111459016D01*
X83164294Y-111551950D01*
X82998694Y-111672263D01*
X82853936Y-111817021D01*
X82733623Y-111982621D01*
X82640689Y-112165011D01*
X82577430Y-112359700D01*
X82545408Y-112561883D01*
X51013888Y-112561883D01*
X50965319Y-93425751D01*
X50984834Y-93358663D01*
X51037521Y-93312774D01*
X51090742Y-93301445D01*
X55315000Y-93350000D01*
X55364273Y-84973556D01*
X55384352Y-84906634D01*
X55437424Y-84861191D01*
X55488556Y-84850286D01*
X163140638Y-85099711D01*
G37*
%TD.AperFunction*%
%TD*%
%TA.AperFunction,Conductor*%
%TO.N,+5V*%
G36*
X112647684Y-35627929D02*
G01*
X112671784Y-35647885D01*
X112796722Y-35781280D01*
X112957483Y-35952923D01*
X112962833Y-35959023D01*
X113099784Y-36125897D01*
X113293100Y-36361454D01*
X113310532Y-36382694D01*
X113315468Y-36389126D01*
X113352967Y-36441457D01*
X113634712Y-36834633D01*
X113639220Y-36841380D01*
X113928639Y-37306803D01*
X113932696Y-37313830D01*
X114000126Y-37439983D01*
X114014764Y-37497471D01*
X114199999Y-61299999D01*
X114200000Y-61300001D01*
X119978280Y-69568918D01*
X120000545Y-69635145D01*
X120000621Y-69637912D01*
X120024155Y-71073467D01*
X120005572Y-71140821D01*
X119953525Y-71187435D01*
X119900172Y-71199500D01*
X118365782Y-71199500D01*
X118298743Y-71179815D01*
X118278100Y-71163180D01*
X118237784Y-71122863D01*
X118237780Y-71122860D01*
X118073920Y-71013372D01*
X118073910Y-71013367D01*
X117891836Y-70937949D01*
X117891828Y-70937947D01*
X117698543Y-70899500D01*
X117698540Y-70899500D01*
X117501460Y-70899500D01*
X117501457Y-70899500D01*
X117308171Y-70937947D01*
X117308163Y-70937949D01*
X117126089Y-71013367D01*
X117126079Y-71013372D01*
X116962219Y-71122860D01*
X116962215Y-71122863D01*
X116822863Y-71262215D01*
X116822860Y-71262219D01*
X116713372Y-71426079D01*
X116713367Y-71426089D01*
X116637949Y-71608163D01*
X116637947Y-71608171D01*
X116599500Y-71801455D01*
X116599500Y-71998544D01*
X116637947Y-72191828D01*
X116637949Y-72191836D01*
X116713367Y-72373910D01*
X116713372Y-72373920D01*
X116822860Y-72537780D01*
X116822863Y-72537784D01*
X117122860Y-72837781D01*
X117122861Y-72837781D01*
X117122861Y-72837782D01*
X117201130Y-72916051D01*
X117262219Y-72977140D01*
X117426079Y-73086628D01*
X117426086Y-73086632D01*
X117517916Y-73124669D01*
X117608164Y-73162051D01*
X117758707Y-73191996D01*
X117801454Y-73200499D01*
X117801457Y-73200500D01*
X117801459Y-73200500D01*
X119175500Y-73200500D01*
X119242539Y-73220185D01*
X119288294Y-73272989D01*
X119299500Y-73324500D01*
X119299500Y-81676000D01*
X119279815Y-81743039D01*
X119227011Y-81788794D01*
X119175500Y-81800000D01*
X113800000Y-81800000D01*
X85661874Y-81720960D01*
X85594890Y-81701087D01*
X85593332Y-81700062D01*
X85579189Y-81690612D01*
X85579182Y-81690608D01*
X85579179Y-81690606D01*
X85579175Y-81690604D01*
X85579171Y-81690602D01*
X85433501Y-81630264D01*
X85433489Y-81630261D01*
X85278845Y-81599500D01*
X85278842Y-81599500D01*
X85121158Y-81599500D01*
X85121155Y-81599500D01*
X84966510Y-81630261D01*
X84966498Y-81630264D01*
X84820823Y-81690604D01*
X84820820Y-81690606D01*
X84810530Y-81697481D01*
X84743851Y-81718353D01*
X84741300Y-81718373D01*
X78323652Y-81700347D01*
X78256668Y-81680474D01*
X78211061Y-81627541D01*
X78200000Y-81576347D01*
X78200000Y-78196981D01*
X78213514Y-78140688D01*
X78274379Y-78021235D01*
X78331555Y-77845264D01*
X78360500Y-77662514D01*
X78360500Y-77477486D01*
X80009500Y-77477486D01*
X80009500Y-77662513D01*
X80038445Y-77845265D01*
X80095619Y-78021232D01*
X80095620Y-78021235D01*
X80156484Y-78140686D01*
X80179622Y-78186096D01*
X80288379Y-78335787D01*
X80419213Y-78466621D01*
X80568904Y-78575378D01*
X80649763Y-78616577D01*
X80733764Y-78659379D01*
X80733767Y-78659380D01*
X80821750Y-78687967D01*
X80909736Y-78716555D01*
X81092486Y-78745500D01*
X81092487Y-78745500D01*
X81277513Y-78745500D01*
X81277514Y-78745500D01*
X81460264Y-78716555D01*
X81636235Y-78659379D01*
X81801096Y-78575378D01*
X81950787Y-78466621D01*
X82081621Y-78335787D01*
X82190378Y-78186096D01*
X82274379Y-78021235D01*
X82331555Y-77845264D01*
X82360500Y-77662514D01*
X82360500Y-77477486D01*
X82331555Y-77294736D01*
X82274379Y-77118765D01*
X82274379Y-77118764D01*
X82214987Y-77002202D01*
X82190378Y-76953904D01*
X82081621Y-76804213D01*
X81950787Y-76673379D01*
X81801096Y-76564622D01*
X81636235Y-76480620D01*
X81636232Y-76480619D01*
X81460265Y-76423445D01*
X81368889Y-76408972D01*
X81277514Y-76394500D01*
X81092486Y-76394500D01*
X81031569Y-76404148D01*
X80909734Y-76423445D01*
X80733767Y-76480619D01*
X80733764Y-76480620D01*
X80568900Y-76564624D01*
X80447243Y-76653012D01*
X80447233Y-76653021D01*
X80419213Y-76673379D01*
X80338682Y-76753909D01*
X80338654Y-76753936D01*
X80288382Y-76804209D01*
X80288381Y-76804211D01*
X80288379Y-76804213D01*
X80250277Y-76856656D01*
X80179622Y-76953903D01*
X80095620Y-77118764D01*
X80095619Y-77118767D01*
X80038445Y-77294734D01*
X80009500Y-77477486D01*
X78360500Y-77477486D01*
X78355726Y-77447345D01*
X78364681Y-77378051D01*
X78409677Y-77324599D01*
X78417212Y-77319982D01*
X78538636Y-77251422D01*
X78593969Y-77208760D01*
X78594025Y-77208716D01*
X78603251Y-77199220D01*
X78606133Y-77196352D01*
X78644021Y-77159850D01*
X78645823Y-77161652D01*
X78742448Y-77065025D01*
X78743267Y-77064237D01*
X78743899Y-77063906D01*
X78756414Y-77053219D01*
X78825946Y-77002701D01*
X78842529Y-76992537D01*
X78919126Y-76953509D01*
X78937090Y-76946069D01*
X79018827Y-76919512D01*
X79037747Y-76914970D01*
X79122626Y-76901527D01*
X79142023Y-76900000D01*
X79227973Y-76900000D01*
X79247369Y-76901526D01*
X79296239Y-76909266D01*
X79388131Y-76923821D01*
X79392299Y-76924553D01*
X79450683Y-76935856D01*
X79510909Y-76939973D01*
X79634706Y-76933196D01*
X79771262Y-76887877D01*
X79833769Y-76856656D01*
X79952026Y-76774701D01*
X81155234Y-75656426D01*
X81196775Y-75612933D01*
X81215817Y-75590459D01*
X81251902Y-75542333D01*
X81313324Y-75412222D01*
X81333855Y-75345438D01*
X81356132Y-75203294D01*
X81397497Y-71935369D01*
X81418028Y-71868587D01*
X81471407Y-71823504D01*
X81522958Y-71812950D01*
X82487573Y-71824434D01*
X82554374Y-71844915D01*
X82599497Y-71898260D01*
X82609386Y-71961677D01*
X82604500Y-72007127D01*
X82604500Y-72007134D01*
X82604500Y-72007135D01*
X82604500Y-73452870D01*
X82604501Y-73452876D01*
X82610908Y-73512483D01*
X82661202Y-73647328D01*
X82661206Y-73647335D01*
X82747452Y-73762544D01*
X82747455Y-73762547D01*
X82862664Y-73848793D01*
X82862671Y-73848797D01*
X82997517Y-73899091D01*
X82997516Y-73899091D01*
X83004444Y-73899835D01*
X83057127Y-73905500D01*
X84502872Y-73905499D01*
X84562483Y-73899091D01*
X84697331Y-73848796D01*
X84812546Y-73762546D01*
X84876241Y-73677459D01*
X84932174Y-73635590D01*
X85001866Y-73630606D01*
X85048392Y-73651453D01*
X85163904Y-73735378D01*
X85217224Y-73762546D01*
X85328764Y-73819379D01*
X85328767Y-73819380D01*
X85398795Y-73842133D01*
X85504736Y-73876555D01*
X85687486Y-73905500D01*
X85687487Y-73905500D01*
X85872513Y-73905500D01*
X85872514Y-73905500D01*
X86055264Y-73876555D01*
X86231235Y-73819379D01*
X86396096Y-73735378D01*
X86545787Y-73626621D01*
X86676621Y-73495787D01*
X86679680Y-73491576D01*
X86735006Y-73448909D01*
X86804619Y-73442926D01*
X86866415Y-73475529D01*
X86880315Y-73491570D01*
X86883379Y-73495787D01*
X87014213Y-73626621D01*
X87163904Y-73735378D01*
X87217224Y-73762546D01*
X87328764Y-73819379D01*
X87328767Y-73819380D01*
X87398795Y-73842133D01*
X87504736Y-73876555D01*
X87687486Y-73905500D01*
X87687487Y-73905500D01*
X87872513Y-73905500D01*
X87872514Y-73905500D01*
X88055264Y-73876555D01*
X88231235Y-73819379D01*
X88396096Y-73735378D01*
X88545787Y-73626621D01*
X88676621Y-73495787D01*
X88785378Y-73346096D01*
X88869379Y-73181235D01*
X88926555Y-73005264D01*
X88955500Y-72822514D01*
X88955500Y-72637486D01*
X90604500Y-72637486D01*
X90604500Y-72822514D01*
X90608228Y-72846051D01*
X90633445Y-73005265D01*
X90690619Y-73181232D01*
X90690620Y-73181235D01*
X90771545Y-73340058D01*
X90774622Y-73346096D01*
X90883379Y-73495787D01*
X91014213Y-73626621D01*
X91163904Y-73735378D01*
X91217224Y-73762546D01*
X91328764Y-73819379D01*
X91328767Y-73819380D01*
X91398795Y-73842133D01*
X91504736Y-73876555D01*
X91687486Y-73905500D01*
X91687487Y-73905500D01*
X91872513Y-73905500D01*
X91872514Y-73905500D01*
X92055264Y-73876555D01*
X92231235Y-73819379D01*
X92396096Y-73735378D01*
X92545787Y-73626621D01*
X92676621Y-73495787D01*
X92785378Y-73346096D01*
X92869379Y-73181235D01*
X92926555Y-73005264D01*
X92955500Y-72822514D01*
X92955500Y-72637486D01*
X92926555Y-72454736D01*
X92874654Y-72295000D01*
X92869380Y-72278767D01*
X92869379Y-72278764D01*
X92823158Y-72188051D01*
X92785378Y-72113904D01*
X92676621Y-71964213D01*
X92545787Y-71833379D01*
X92396096Y-71724622D01*
X92357586Y-71705000D01*
X92231235Y-71640620D01*
X92231232Y-71640619D01*
X92055265Y-71583445D01*
X91963889Y-71568972D01*
X91872514Y-71554500D01*
X91687486Y-71554500D01*
X91626569Y-71564148D01*
X91504734Y-71583445D01*
X91328767Y-71640619D01*
X91328764Y-71640620D01*
X91163903Y-71724622D01*
X91100267Y-71770857D01*
X91014213Y-71833379D01*
X91014211Y-71833381D01*
X91014210Y-71833381D01*
X90883381Y-71964210D01*
X90883381Y-71964211D01*
X90883379Y-71964213D01*
X90878491Y-71970941D01*
X90774622Y-72113903D01*
X90690620Y-72278764D01*
X90690619Y-72278767D01*
X90633445Y-72454734D01*
X90610279Y-72601000D01*
X90604500Y-72637486D01*
X88955500Y-72637486D01*
X88926555Y-72454736D01*
X88874654Y-72295000D01*
X88869380Y-72278767D01*
X88869379Y-72278764D01*
X88823158Y-72188051D01*
X88785378Y-72113904D01*
X88784031Y-72112050D01*
X88773353Y-72097352D01*
X88749873Y-72031546D01*
X88765699Y-71963492D01*
X88815804Y-71914797D01*
X88875143Y-71900476D01*
X89176953Y-71904070D01*
X89270193Y-71896524D01*
X89315205Y-71888639D01*
X89405461Y-71864041D01*
X89531621Y-71794866D01*
X89587482Y-71752897D01*
X89587487Y-71752893D01*
X89689048Y-71650976D01*
X89757780Y-71524575D01*
X89782082Y-71459068D01*
X89812419Y-71318427D01*
X90095233Y-67264758D01*
X90089365Y-67145184D01*
X90079628Y-67087679D01*
X90045800Y-66972828D01*
X89970848Y-66850012D01*
X89926333Y-66796158D01*
X89926327Y-66796151D01*
X89819808Y-66699428D01*
X89759168Y-66670013D01*
X89690357Y-66636634D01*
X89690349Y-66636631D01*
X89623790Y-66615396D01*
X89481889Y-66591615D01*
X85694138Y-66503528D01*
X85654884Y-66507057D01*
X85580668Y-66513730D01*
X85580666Y-66513730D01*
X85580659Y-66513731D01*
X85526298Y-66524897D01*
X85526285Y-66524900D01*
X85526282Y-66524901D01*
X85526279Y-66524902D01*
X85467212Y-66544180D01*
X85397374Y-66546266D01*
X85341059Y-66513980D01*
X85265292Y-66438213D01*
X85265288Y-66438210D01*
X85134185Y-66350609D01*
X85134172Y-66350602D01*
X84988501Y-66290264D01*
X84988489Y-66290261D01*
X84833845Y-66259500D01*
X84833842Y-66259500D01*
X84676158Y-66259500D01*
X84676155Y-66259500D01*
X84521510Y-66290261D01*
X84521498Y-66290264D01*
X84375827Y-66350602D01*
X84375814Y-66350609D01*
X84244714Y-66438208D01*
X84244708Y-66438212D01*
X84199343Y-66483577D01*
X84138020Y-66517061D01*
X84068328Y-66512075D01*
X84057553Y-66507465D01*
X84053597Y-66505546D01*
X84053595Y-66505545D01*
X83987037Y-66484310D01*
X83845139Y-66460529D01*
X83845122Y-66460527D01*
X83379492Y-66449699D01*
X83312928Y-66428462D01*
X83268413Y-66374608D01*
X83260081Y-66305237D01*
X83279276Y-66256838D01*
X83284394Y-66249179D01*
X83344737Y-66103497D01*
X83375500Y-65948842D01*
X83375500Y-65791158D01*
X83375500Y-65791155D01*
X83375499Y-65791153D01*
X83356107Y-65693663D01*
X83344737Y-65636503D01*
X83344735Y-65636498D01*
X83284397Y-65490827D01*
X83284390Y-65490814D01*
X83196789Y-65359711D01*
X83196786Y-65359707D01*
X83085292Y-65248213D01*
X83085288Y-65248210D01*
X82954185Y-65160609D01*
X82954172Y-65160602D01*
X82808501Y-65100264D01*
X82808489Y-65100261D01*
X82653845Y-65069500D01*
X82653842Y-65069500D01*
X82496158Y-65069500D01*
X82496155Y-65069500D01*
X82341510Y-65100261D01*
X82341498Y-65100264D01*
X82195827Y-65160602D01*
X82195814Y-65160609D01*
X82064711Y-65248210D01*
X82064707Y-65248213D01*
X81953213Y-65359707D01*
X81953210Y-65359711D01*
X81865609Y-65490814D01*
X81865602Y-65490827D01*
X81805264Y-65636498D01*
X81805261Y-65636510D01*
X81774500Y-65791153D01*
X81774500Y-65948846D01*
X81805261Y-66103489D01*
X81805264Y-66103501D01*
X81861910Y-66240257D01*
X81869379Y-66309726D01*
X81838104Y-66372205D01*
X81778015Y-66407857D01*
X81744467Y-66411676D01*
X81624580Y-66408888D01*
X81558019Y-66387651D01*
X81513504Y-66333798D01*
X81503466Y-66285333D01*
X81490681Y-62424441D01*
X81510143Y-62357338D01*
X81562795Y-62311409D01*
X81597906Y-62301884D01*
X81597868Y-62301689D01*
X81600716Y-62301122D01*
X81602539Y-62300628D01*
X81603830Y-62300500D01*
X81603842Y-62300500D01*
X81758497Y-62269737D01*
X81904179Y-62209394D01*
X82035289Y-62121789D01*
X82036165Y-62120913D01*
X82087819Y-62069260D01*
X82149142Y-62035775D01*
X82218834Y-62040759D01*
X82274767Y-62082631D01*
X82299184Y-62148095D01*
X82299500Y-62156941D01*
X82299500Y-62203846D01*
X82330261Y-62358489D01*
X82330264Y-62358501D01*
X82390602Y-62504172D01*
X82390609Y-62504185D01*
X82478210Y-62635288D01*
X82478213Y-62635292D01*
X82589707Y-62746786D01*
X82589711Y-62746789D01*
X82720814Y-62834390D01*
X82720827Y-62834397D01*
X82866498Y-62894735D01*
X82866503Y-62894737D01*
X83021153Y-62925499D01*
X83021156Y-62925500D01*
X83021158Y-62925500D01*
X83178844Y-62925500D01*
X83178845Y-62925499D01*
X83333497Y-62894737D01*
X83479179Y-62834394D01*
X83610289Y-62746789D01*
X83721789Y-62635289D01*
X83809394Y-62504179D01*
X83869737Y-62358497D01*
X83900500Y-62203842D01*
X83900500Y-62046158D01*
X83900500Y-62046155D01*
X83900499Y-62046153D01*
X83885323Y-61969860D01*
X83869737Y-61891503D01*
X83864632Y-61879179D01*
X83809397Y-61745827D01*
X83809390Y-61745814D01*
X83721789Y-61614711D01*
X83721786Y-61614707D01*
X83610292Y-61503213D01*
X83610288Y-61503210D01*
X83479185Y-61415609D01*
X83479172Y-61415602D01*
X83333501Y-61355264D01*
X83333489Y-61355261D01*
X83178845Y-61324500D01*
X83178842Y-61324500D01*
X83021158Y-61324500D01*
X83021155Y-61324500D01*
X82866510Y-61355261D01*
X82866498Y-61355264D01*
X82720827Y-61415602D01*
X82720814Y-61415609D01*
X82589711Y-61503210D01*
X82589707Y-61503213D01*
X82537181Y-61555740D01*
X82475858Y-61589225D01*
X82406166Y-61584241D01*
X82350233Y-61542369D01*
X82325816Y-61476905D01*
X82325500Y-61468059D01*
X82325500Y-61421155D01*
X82325499Y-61421153D01*
X82312393Y-61355264D01*
X82294737Y-61266503D01*
X82284922Y-61242807D01*
X82234397Y-61120827D01*
X82234390Y-61120814D01*
X82146789Y-60989711D01*
X82146786Y-60989707D01*
X82035292Y-60878213D01*
X82035288Y-60878210D01*
X81904185Y-60790609D01*
X81904172Y-60790602D01*
X81758501Y-60730264D01*
X81758489Y-60730261D01*
X81603846Y-60699500D01*
X81597782Y-60698903D01*
X81598027Y-60696407D01*
X81541521Y-60679815D01*
X81495766Y-60627011D01*
X81484561Y-60575911D01*
X81476388Y-58107649D01*
X88663777Y-58107649D01*
X88663777Y-58312352D01*
X88695799Y-58514535D01*
X88759058Y-58709224D01*
X88812367Y-58813846D01*
X88845837Y-58879536D01*
X88851992Y-58891614D01*
X88972305Y-59057214D01*
X89117061Y-59201970D01*
X89131753Y-59212644D01*
X89174420Y-59267974D01*
X89180486Y-59337155D01*
X89163777Y-59421155D01*
X89163777Y-59578846D01*
X89194538Y-59733489D01*
X89194541Y-59733501D01*
X89254879Y-59879172D01*
X89254886Y-59879185D01*
X89342487Y-60010288D01*
X89342490Y-60010292D01*
X89453984Y-60121786D01*
X89453988Y-60121789D01*
X89585091Y-60209390D01*
X89585104Y-60209397D01*
X89730775Y-60269735D01*
X89730780Y-60269737D01*
X89885430Y-60300499D01*
X89885433Y-60300500D01*
X89885435Y-60300500D01*
X90043121Y-60300500D01*
X90043122Y-60300499D01*
X90197774Y-60269737D01*
X90315968Y-60220780D01*
X90343449Y-60209397D01*
X90343449Y-60209396D01*
X90343456Y-60209394D01*
X90474566Y-60121789D01*
X90586066Y-60010289D01*
X90673671Y-59879179D01*
X90734014Y-59733497D01*
X90764777Y-59578842D01*
X90764777Y-59421158D01*
X90764776Y-59421155D01*
X90757197Y-59383051D01*
X90748067Y-59337152D01*
X90754294Y-59267563D01*
X90796801Y-59212643D01*
X90811496Y-59201967D01*
X90956243Y-59057220D01*
X90956245Y-59057216D01*
X90956248Y-59057214D01*
X91018928Y-58970941D01*
X91076564Y-58891611D01*
X91169497Y-58709220D01*
X91232754Y-58514535D01*
X91264777Y-58312353D01*
X91264777Y-58107649D01*
X91242395Y-57966337D01*
X91232754Y-57905466D01*
X91169495Y-57710777D01*
X91097899Y-57570264D01*
X91076564Y-57528391D01*
X91068833Y-57517750D01*
X90956248Y-57362787D01*
X90811490Y-57218029D01*
X90645890Y-57097716D01*
X90645889Y-57097715D01*
X90645887Y-57097714D01*
X90562926Y-57055443D01*
X90463500Y-57004782D01*
X90268811Y-56941523D01*
X90079944Y-56911610D01*
X90066629Y-56909501D01*
X89861925Y-56909501D01*
X89848610Y-56911610D01*
X89659742Y-56941523D01*
X89465053Y-57004782D01*
X89282663Y-57097716D01*
X89117063Y-57218029D01*
X88972305Y-57362787D01*
X88851992Y-57528387D01*
X88759058Y-57710777D01*
X88695799Y-57905466D01*
X88663777Y-58107649D01*
X81476388Y-58107649D01*
X81476373Y-58103188D01*
X81476096Y-58019530D01*
X81474325Y-57484748D01*
X81493787Y-57417644D01*
X81546439Y-57371715D01*
X81615564Y-57361542D01*
X81654618Y-57373852D01*
X81672243Y-57382833D01*
X81775053Y-57435218D01*
X81775055Y-57435218D01*
X81775058Y-57435220D01*
X81879414Y-57469127D01*
X81969742Y-57498477D01*
X82070834Y-57514488D01*
X82171925Y-57530500D01*
X82171926Y-57530500D01*
X82376628Y-57530500D01*
X82376629Y-57530500D01*
X82578811Y-57498477D01*
X82773496Y-57435220D01*
X82955887Y-57342287D01*
X83074988Y-57255756D01*
X83121490Y-57221971D01*
X83121492Y-57221968D01*
X83121496Y-57221966D01*
X83266243Y-57077219D01*
X83266245Y-57077215D01*
X83266248Y-57077213D01*
X83380468Y-56920000D01*
X83386564Y-56911610D01*
X83479497Y-56729219D01*
X83542754Y-56534534D01*
X83574777Y-56332352D01*
X83574777Y-56127648D01*
X83563437Y-56056051D01*
X83542754Y-55925465D01*
X83495183Y-55779057D01*
X83479497Y-55730781D01*
X83479495Y-55730778D01*
X83479495Y-55730776D01*
X83445443Y-55663947D01*
X83386564Y-55548390D01*
X83343105Y-55488573D01*
X83266248Y-55382786D01*
X83121496Y-55238034D01*
X82981006Y-55135963D01*
X82963293Y-55123094D01*
X82963293Y-55123093D01*
X82955888Y-55117713D01*
X82779127Y-55027648D01*
X84453777Y-55027648D01*
X84453777Y-55232351D01*
X84485799Y-55434534D01*
X84549058Y-55629223D01*
X84605939Y-55740857D01*
X84626876Y-55781948D01*
X84641992Y-55811613D01*
X84762305Y-55977213D01*
X84907063Y-56121971D01*
X85043293Y-56220946D01*
X85072667Y-56242287D01*
X85180369Y-56297164D01*
X85255053Y-56335218D01*
X85255055Y-56335218D01*
X85255058Y-56335220D01*
X85359414Y-56369127D01*
X85449742Y-56398477D01*
X85502872Y-56406892D01*
X85651925Y-56430500D01*
X85651926Y-56430500D01*
X85856628Y-56430500D01*
X85856629Y-56430500D01*
X86058811Y-56398477D01*
X86253496Y-56335220D01*
X86435887Y-56242287D01*
X86543714Y-56163947D01*
X86601490Y-56121971D01*
X86601492Y-56121968D01*
X86601496Y-56121966D01*
X86746243Y-55977219D01*
X86746245Y-55977215D01*
X86746248Y-55977213D01*
X86814005Y-55883952D01*
X86866564Y-55811610D01*
X86959497Y-55629219D01*
X87022754Y-55434534D01*
X87054777Y-55232352D01*
X87054777Y-55027648D01*
X87045948Y-54971902D01*
X92013777Y-54971902D01*
X92013777Y-55208097D01*
X92050723Y-55441368D01*
X92123710Y-55665996D01*
X92230934Y-55876433D01*
X92369760Y-56067510D01*
X92536767Y-56234517D01*
X92727844Y-56373343D01*
X92793688Y-56406892D01*
X92938280Y-56480566D01*
X92938282Y-56480566D01*
X92938285Y-56480568D01*
X93020210Y-56507187D01*
X93162908Y-56553553D01*
X93396180Y-56590500D01*
X93396185Y-56590500D01*
X93632374Y-56590500D01*
X93865645Y-56553553D01*
X93924179Y-56534534D01*
X94090269Y-56480568D01*
X94300710Y-56373343D01*
X94491787Y-56234517D01*
X94658794Y-56067510D01*
X94797620Y-55876433D01*
X94904845Y-55665992D01*
X94977830Y-55441368D01*
X94978912Y-55434534D01*
X95014777Y-55208097D01*
X95014777Y-54971902D01*
X94977830Y-54738631D01*
X94904843Y-54514003D01*
X94797619Y-54303566D01*
X94658794Y-54112490D01*
X94491787Y-53945483D01*
X94300710Y-53806657D01*
X94090273Y-53699433D01*
X93865645Y-53626446D01*
X93632374Y-53589500D01*
X93632369Y-53589500D01*
X93396185Y-53589500D01*
X93396180Y-53589500D01*
X93162908Y-53626446D01*
X92938280Y-53699433D01*
X92727843Y-53806657D01*
X92618827Y-53885862D01*
X92536767Y-53945483D01*
X92536765Y-53945485D01*
X92536764Y-53945485D01*
X92369762Y-54112487D01*
X92369762Y-54112488D01*
X92369760Y-54112490D01*
X92310139Y-54194550D01*
X92230934Y-54303566D01*
X92123710Y-54514003D01*
X92050723Y-54738631D01*
X92013777Y-54971902D01*
X87045948Y-54971902D01*
X87022754Y-54825466D01*
X86959497Y-54630781D01*
X86959495Y-54630778D01*
X86959495Y-54630776D01*
X86899998Y-54514008D01*
X86866564Y-54448390D01*
X86858833Y-54437749D01*
X86746248Y-54282786D01*
X86601490Y-54138028D01*
X86435890Y-54017715D01*
X86435889Y-54017714D01*
X86435887Y-54017713D01*
X86378930Y-53988691D01*
X86253500Y-53924781D01*
X86058811Y-53861522D01*
X85884272Y-53833878D01*
X85856629Y-53829500D01*
X85651925Y-53829500D01*
X85627606Y-53833351D01*
X85449742Y-53861522D01*
X85255053Y-53924781D01*
X85072663Y-54017715D01*
X84907063Y-54138028D01*
X84762305Y-54282786D01*
X84641992Y-54448386D01*
X84549058Y-54630776D01*
X84485799Y-54825465D01*
X84453777Y-55027648D01*
X82779127Y-55027648D01*
X82773500Y-55024781D01*
X82578811Y-54961522D01*
X82404272Y-54933878D01*
X82376629Y-54929500D01*
X82171925Y-54929500D01*
X82147606Y-54933351D01*
X81969742Y-54961522D01*
X81775053Y-55024781D01*
X81646326Y-55090372D01*
X81577657Y-55103268D01*
X81512916Y-55076992D01*
X81472659Y-55019885D01*
X81466032Y-54980298D01*
X81463243Y-54138028D01*
X81449050Y-49851869D01*
X81468512Y-49784766D01*
X81521164Y-49738837D01*
X81590290Y-49728664D01*
X81629344Y-49740975D01*
X81775053Y-49815218D01*
X81775055Y-49815218D01*
X81775058Y-49815220D01*
X81846833Y-49838541D01*
X81969742Y-49878477D01*
X82070834Y-49894488D01*
X82171925Y-49910500D01*
X82171926Y-49910500D01*
X82376628Y-49910500D01*
X82376629Y-49910500D01*
X82578811Y-49878477D01*
X82773496Y-49815220D01*
X82955887Y-49722287D01*
X83067142Y-49641456D01*
X83108852Y-49611153D01*
X85014500Y-49611153D01*
X85014500Y-49768846D01*
X85045261Y-49923489D01*
X85045264Y-49923501D01*
X85105602Y-50069172D01*
X85105609Y-50069185D01*
X85193210Y-50200288D01*
X85193213Y-50200292D01*
X85304707Y-50311786D01*
X85304711Y-50311789D01*
X85435814Y-50399390D01*
X85435827Y-50399397D01*
X85581498Y-50459735D01*
X85581503Y-50459737D01*
X85721820Y-50487648D01*
X85736153Y-50490499D01*
X85736156Y-50490500D01*
X85736158Y-50490500D01*
X85893844Y-50490500D01*
X85893845Y-50490499D01*
X85908178Y-50487648D01*
X88663777Y-50487648D01*
X88663777Y-50692352D01*
X88665313Y-50702049D01*
X88695799Y-50894534D01*
X88759058Y-51089223D01*
X88822609Y-51213947D01*
X88851649Y-51270941D01*
X88851992Y-51271613D01*
X88972305Y-51437213D01*
X89117063Y-51581971D01*
X89239484Y-51670913D01*
X89282667Y-51702287D01*
X89380503Y-51752137D01*
X89465053Y-51795218D01*
X89465055Y-51795218D01*
X89465058Y-51795220D01*
X89569414Y-51829127D01*
X89659742Y-51858477D01*
X89760834Y-51874488D01*
X89861925Y-51890500D01*
X89861926Y-51890500D01*
X90066628Y-51890500D01*
X90066629Y-51890500D01*
X90268811Y-51858477D01*
X90463496Y-51795220D01*
X90645887Y-51702287D01*
X90754970Y-51623034D01*
X90811490Y-51581971D01*
X90811492Y-51581968D01*
X90811496Y-51581966D01*
X90956243Y-51437219D01*
X90956245Y-51437215D01*
X90956248Y-51437213D01*
X91009009Y-51364590D01*
X91076564Y-51271610D01*
X91169497Y-51089219D01*
X91232754Y-50894534D01*
X91264777Y-50692352D01*
X91264777Y-50487648D01*
X91247376Y-50377782D01*
X91232754Y-50285465D01*
X91203404Y-50195137D01*
X91169497Y-50090781D01*
X91169495Y-50090778D01*
X91169495Y-50090776D01*
X91135780Y-50024607D01*
X91076564Y-49908390D01*
X91025818Y-49838543D01*
X90956248Y-49742786D01*
X90811490Y-49598028D01*
X90645890Y-49477715D01*
X90645889Y-49477714D01*
X90645887Y-49477713D01*
X90587886Y-49448160D01*
X90463500Y-49384781D01*
X90268811Y-49321522D01*
X90094272Y-49293878D01*
X90066629Y-49289500D01*
X89861925Y-49289500D01*
X89837606Y-49293351D01*
X89659742Y-49321522D01*
X89465053Y-49384781D01*
X89282663Y-49477715D01*
X89117063Y-49598028D01*
X88972305Y-49742786D01*
X88851992Y-49908386D01*
X88759058Y-50090776D01*
X88695799Y-50285465D01*
X88663777Y-50487648D01*
X85908178Y-50487648D01*
X86048497Y-50459737D01*
X86194179Y-50399394D01*
X86204947Y-50392199D01*
X86223693Y-50379674D01*
X86273655Y-50346289D01*
X86325289Y-50311789D01*
X86436789Y-50200289D01*
X86524394Y-50069179D01*
X86584737Y-49923497D01*
X86615500Y-49768842D01*
X86615500Y-49611158D01*
X86615500Y-49611155D01*
X86615499Y-49611153D01*
X86612888Y-49598028D01*
X86584737Y-49456503D01*
X86581281Y-49448160D01*
X86524397Y-49310827D01*
X86524390Y-49310814D01*
X86453083Y-49204096D01*
X86432205Y-49137419D01*
X86450689Y-49070038D01*
X86502668Y-49023348D01*
X86508699Y-49020658D01*
X86584179Y-48989394D01*
X86715289Y-48901789D01*
X86826789Y-48790289D01*
X86914394Y-48659179D01*
X86974737Y-48513497D01*
X87005500Y-48358842D01*
X87005500Y-48350477D01*
X87025185Y-48283438D01*
X87077989Y-48237683D01*
X87147147Y-48227739D01*
X87198372Y-48250310D01*
X87199646Y-48248405D01*
X87335814Y-48339390D01*
X87335827Y-48339397D01*
X87433853Y-48380000D01*
X87481503Y-48399737D01*
X87593944Y-48422103D01*
X87636153Y-48430499D01*
X87636156Y-48430500D01*
X87636158Y-48430500D01*
X87793844Y-48430500D01*
X87793845Y-48430499D01*
X87948497Y-48399737D01*
X88094179Y-48339394D01*
X88225289Y-48251789D01*
X88336789Y-48140289D01*
X88424394Y-48009179D01*
X88451054Y-47944816D01*
X93007325Y-47944816D01*
X93007325Y-48102509D01*
X93038086Y-48257152D01*
X93038089Y-48257164D01*
X93098427Y-48402835D01*
X93098434Y-48402848D01*
X93186035Y-48533951D01*
X93186038Y-48533955D01*
X93297532Y-48645449D01*
X93297536Y-48645452D01*
X93428639Y-48733053D01*
X93428652Y-48733060D01*
X93572896Y-48792807D01*
X93574328Y-48793400D01*
X93609752Y-48800446D01*
X93665108Y-48811458D01*
X93727019Y-48843843D01*
X93761594Y-48904559D01*
X93757854Y-48974328D01*
X93728599Y-49020756D01*
X93647137Y-49102218D01*
X93537648Y-49266079D01*
X93537641Y-49266092D01*
X93462227Y-49448160D01*
X93462224Y-49448170D01*
X93423777Y-49641456D01*
X93423777Y-49641459D01*
X93423777Y-49838541D01*
X93423777Y-49838543D01*
X93423776Y-49838543D01*
X93462224Y-50031829D01*
X93462227Y-50031839D01*
X93537641Y-50213907D01*
X93537648Y-50213920D01*
X93647137Y-50377781D01*
X93647140Y-50377785D01*
X93786491Y-50517136D01*
X93786495Y-50517139D01*
X93950356Y-50626628D01*
X93950369Y-50626635D01*
X94109024Y-50692351D01*
X94132442Y-50702051D01*
X94132446Y-50702051D01*
X94132447Y-50702052D01*
X94325733Y-50740500D01*
X94325736Y-50740500D01*
X94522820Y-50740500D01*
X94652859Y-50714632D01*
X94716112Y-50702051D01*
X94898191Y-50626632D01*
X94990386Y-50565029D01*
X95057063Y-50544151D01*
X95124443Y-50562635D01*
X95128168Y-50565029D01*
X95178638Y-50598752D01*
X95220363Y-50626632D01*
X95220365Y-50626633D01*
X95220369Y-50626635D01*
X95379024Y-50692351D01*
X95402442Y-50702051D01*
X95402446Y-50702051D01*
X95402447Y-50702052D01*
X95595733Y-50740500D01*
X95595736Y-50740500D01*
X95792820Y-50740500D01*
X95922859Y-50714632D01*
X95986112Y-50702051D01*
X96088403Y-50659680D01*
X96157867Y-50652212D01*
X96210164Y-50674976D01*
X96221945Y-50683795D01*
X96221948Y-50683797D01*
X96356794Y-50734091D01*
X96356793Y-50734091D01*
X96363721Y-50734835D01*
X96416404Y-50740500D01*
X97512149Y-50740499D01*
X97571760Y-50734091D01*
X97706608Y-50683796D01*
X97821823Y-50597546D01*
X97908073Y-50482331D01*
X97941690Y-50392198D01*
X97983561Y-50336266D01*
X98049025Y-50311848D01*
X98117298Y-50326699D01*
X98166704Y-50376104D01*
X98168349Y-50379222D01*
X98178627Y-50399394D01*
X98206464Y-50454025D01*
X98336029Y-50632358D01*
X98336033Y-50632363D01*
X98491913Y-50788243D01*
X98491918Y-50788247D01*
X98593883Y-50862328D01*
X98670255Y-50917815D01*
X98798652Y-50983237D01*
X98866670Y-51017895D01*
X98866673Y-51017896D01*
X98930312Y-51038573D01*
X99076326Y-51086015D01*
X99294055Y-51120500D01*
X99294056Y-51120500D01*
X99514498Y-51120500D01*
X99514499Y-51120500D01*
X99732228Y-51086015D01*
X99941883Y-51017895D01*
X100138299Y-50917815D01*
X100316642Y-50788242D01*
X100366813Y-50738070D01*
X100428134Y-50704586D01*
X100497825Y-50709570D01*
X100553759Y-50751441D01*
X100570675Y-50782419D01*
X100600479Y-50862328D01*
X100600483Y-50862335D01*
X100686729Y-50977544D01*
X100686732Y-50977547D01*
X100801941Y-51063793D01*
X100801948Y-51063797D01*
X100936794Y-51114091D01*
X100936793Y-51114091D01*
X100943721Y-51114835D01*
X100996404Y-51120500D01*
X102892149Y-51120499D01*
X102951760Y-51114091D01*
X103086608Y-51063796D01*
X103201823Y-50977546D01*
X103288073Y-50862331D01*
X103338368Y-50727483D01*
X103344777Y-50667873D01*
X103344776Y-48772128D01*
X103338368Y-48712517D01*
X103338306Y-48712352D01*
X103288074Y-48577671D01*
X103288070Y-48577664D01*
X103201824Y-48462455D01*
X103201821Y-48462452D01*
X103086612Y-48376206D01*
X103086605Y-48376202D01*
X102951759Y-48325908D01*
X102951760Y-48325908D01*
X102892160Y-48319501D01*
X102892158Y-48319500D01*
X102892150Y-48319500D01*
X102892141Y-48319500D01*
X100996406Y-48319500D01*
X100996400Y-48319501D01*
X100936793Y-48325908D01*
X100801948Y-48376202D01*
X100801941Y-48376206D01*
X100686732Y-48462452D01*
X100686729Y-48462455D01*
X100600483Y-48577664D01*
X100600480Y-48577669D01*
X100570675Y-48657581D01*
X100528803Y-48713514D01*
X100463339Y-48737931D01*
X100395066Y-48723079D01*
X100366812Y-48701928D01*
X100316640Y-48651756D01*
X100316635Y-48651752D01*
X100138302Y-48522187D01*
X100138301Y-48522186D01*
X100138299Y-48522185D01*
X100049543Y-48476961D01*
X99941883Y-48422104D01*
X99941880Y-48422103D01*
X99732229Y-48353985D01*
X99623363Y-48336742D01*
X99514499Y-48319500D01*
X99294055Y-48319500D01*
X99221478Y-48330995D01*
X99076324Y-48353985D01*
X98866673Y-48422103D01*
X98866670Y-48422104D01*
X98670251Y-48522187D01*
X98491918Y-48651752D01*
X98491913Y-48651756D01*
X98336033Y-48807636D01*
X98336029Y-48807641D01*
X98206462Y-48985976D01*
X98159742Y-49077668D01*
X98111767Y-49128463D01*
X98043946Y-49145258D01*
X97977811Y-49122720D01*
X97934361Y-49068004D01*
X97933076Y-49064705D01*
X97908074Y-48997671D01*
X97908070Y-48997664D01*
X97821824Y-48882455D01*
X97821821Y-48882452D01*
X97706612Y-48796206D01*
X97706605Y-48796202D01*
X97571759Y-48745908D01*
X97571760Y-48745908D01*
X97512160Y-48739501D01*
X97512158Y-48739500D01*
X97512150Y-48739500D01*
X97512141Y-48739500D01*
X96416406Y-48739500D01*
X96416400Y-48739501D01*
X96356793Y-48745908D01*
X96221948Y-48796202D01*
X96221947Y-48796203D01*
X96210161Y-48805026D01*
X96144696Y-48829441D01*
X96088401Y-48820318D01*
X96057781Y-48807635D01*
X96030189Y-48796206D01*
X95986113Y-48777949D01*
X95986105Y-48777947D01*
X95792820Y-48739500D01*
X95792818Y-48739500D01*
X95595736Y-48739500D01*
X95595734Y-48739500D01*
X95402447Y-48777947D01*
X95402437Y-48777950D01*
X95220366Y-48853366D01*
X95128167Y-48914971D01*
X95061490Y-48935848D01*
X94994110Y-48917363D01*
X94990387Y-48914971D01*
X94941718Y-48882452D01*
X94898191Y-48853368D01*
X94898188Y-48853366D01*
X94898187Y-48853366D01*
X94716116Y-48777950D01*
X94716106Y-48777947D01*
X94522820Y-48739499D01*
X94516758Y-48738903D01*
X94516879Y-48737672D01*
X94456063Y-48719815D01*
X94410308Y-48667011D01*
X94400364Y-48597853D01*
X94426273Y-48539045D01*
X94426230Y-48539017D01*
X94426393Y-48538771D01*
X94427245Y-48536840D01*
X94429611Y-48533955D01*
X94429614Y-48533952D01*
X94517219Y-48402842D01*
X94577562Y-48257160D01*
X94608325Y-48102505D01*
X94608325Y-47944821D01*
X94608325Y-47944818D01*
X94608324Y-47944816D01*
X94597674Y-47891276D01*
X94577562Y-47790166D01*
X94566219Y-47762781D01*
X94517222Y-47644490D01*
X94517215Y-47644477D01*
X94429614Y-47513374D01*
X94429611Y-47513370D01*
X94318117Y-47401876D01*
X94318113Y-47401873D01*
X94187010Y-47314272D01*
X94186997Y-47314265D01*
X94041326Y-47253927D01*
X94041314Y-47253924D01*
X93886670Y-47223163D01*
X93886667Y-47223163D01*
X93728983Y-47223163D01*
X93728980Y-47223163D01*
X93574335Y-47253924D01*
X93574323Y-47253927D01*
X93428652Y-47314265D01*
X93428639Y-47314272D01*
X93297536Y-47401873D01*
X93297532Y-47401876D01*
X93186038Y-47513370D01*
X93186035Y-47513374D01*
X93098434Y-47644477D01*
X93098427Y-47644490D01*
X93038089Y-47790161D01*
X93038086Y-47790173D01*
X93007325Y-47944816D01*
X88451054Y-47944816D01*
X88484737Y-47863497D01*
X88515500Y-47708842D01*
X88515500Y-47551158D01*
X88515500Y-47551155D01*
X88515499Y-47551153D01*
X88504869Y-47497713D01*
X88484737Y-47396503D01*
X88484735Y-47396498D01*
X88424397Y-47250827D01*
X88424390Y-47250814D01*
X88336789Y-47119711D01*
X88336786Y-47119707D01*
X88225292Y-47008213D01*
X88225288Y-47008210D01*
X88094185Y-46920609D01*
X88094172Y-46920602D01*
X87948501Y-46860264D01*
X87948489Y-46860261D01*
X87793845Y-46829500D01*
X87793842Y-46829500D01*
X87636158Y-46829500D01*
X87636155Y-46829500D01*
X87481510Y-46860261D01*
X87481498Y-46860264D01*
X87335827Y-46920602D01*
X87335814Y-46920609D01*
X87204711Y-47008210D01*
X87204707Y-47008213D01*
X87093213Y-47119707D01*
X87093210Y-47119711D01*
X87005609Y-47250814D01*
X87005602Y-47250827D01*
X86945264Y-47396498D01*
X86945261Y-47396510D01*
X86914500Y-47551153D01*
X86914500Y-47559522D01*
X86894815Y-47626561D01*
X86842011Y-47672316D01*
X86772853Y-47682260D01*
X86721620Y-47659700D01*
X86720354Y-47661595D01*
X86584185Y-47570609D01*
X86584172Y-47570602D01*
X86438501Y-47510264D01*
X86438489Y-47510261D01*
X86283845Y-47479500D01*
X86283842Y-47479500D01*
X86126158Y-47479500D01*
X86126155Y-47479500D01*
X85971510Y-47510261D01*
X85971498Y-47510264D01*
X85825827Y-47570602D01*
X85825814Y-47570609D01*
X85694711Y-47658210D01*
X85694707Y-47658213D01*
X85583213Y-47769707D01*
X85583210Y-47769711D01*
X85495609Y-47900814D01*
X85495602Y-47900827D01*
X85435264Y-48046498D01*
X85435261Y-48046510D01*
X85404500Y-48201153D01*
X85404500Y-48358846D01*
X85435261Y-48513489D01*
X85435264Y-48513501D01*
X85495602Y-48659172D01*
X85495609Y-48659185D01*
X85566916Y-48765903D01*
X85587794Y-48832581D01*
X85569309Y-48899961D01*
X85517331Y-48946651D01*
X85511267Y-48949355D01*
X85435824Y-48980604D01*
X85435814Y-48980609D01*
X85304711Y-49068210D01*
X85304707Y-49068213D01*
X85193213Y-49179707D01*
X85193210Y-49179711D01*
X85105609Y-49310814D01*
X85105602Y-49310827D01*
X85045264Y-49456498D01*
X85045261Y-49456510D01*
X85014500Y-49611153D01*
X83108852Y-49611153D01*
X83121490Y-49601971D01*
X83121492Y-49601968D01*
X83121496Y-49601966D01*
X83266243Y-49457219D01*
X83266245Y-49457215D01*
X83266248Y-49457213D01*
X83364831Y-49321523D01*
X83386564Y-49291610D01*
X83479497Y-49109219D01*
X83542754Y-48914534D01*
X83574777Y-48712352D01*
X83574777Y-48507648D01*
X83562334Y-48429085D01*
X83542754Y-48305465D01*
X83508861Y-48201153D01*
X83479497Y-48110781D01*
X83479495Y-48110778D01*
X83479495Y-48110776D01*
X83427728Y-48009179D01*
X83386564Y-47928390D01*
X83378833Y-47917749D01*
X83266248Y-47762786D01*
X83121490Y-47618028D01*
X82955890Y-47497715D01*
X82955889Y-47497714D01*
X82955887Y-47497713D01*
X82898930Y-47468691D01*
X82773500Y-47404781D01*
X82578811Y-47341522D01*
X82404272Y-47313878D01*
X82376629Y-47309500D01*
X82171925Y-47309500D01*
X82147606Y-47313351D01*
X81969742Y-47341522D01*
X81818036Y-47390815D01*
X81775058Y-47404780D01*
X81775055Y-47404781D01*
X81775053Y-47404782D01*
X81621137Y-47483206D01*
X81552467Y-47496102D01*
X81487727Y-47469825D01*
X81447470Y-47412719D01*
X81440843Y-47373132D01*
X81440438Y-47250814D01*
X81422492Y-41831153D01*
X83824500Y-41831153D01*
X83824500Y-41988846D01*
X83855261Y-42143489D01*
X83855264Y-42143501D01*
X83915602Y-42289172D01*
X83915609Y-42289185D01*
X84003210Y-42420288D01*
X84003213Y-42420292D01*
X84114707Y-42531786D01*
X84114711Y-42531789D01*
X84245814Y-42619390D01*
X84245827Y-42619397D01*
X84391498Y-42679735D01*
X84391503Y-42679737D01*
X84546153Y-42710499D01*
X84546156Y-42710500D01*
X84546158Y-42710500D01*
X84703844Y-42710500D01*
X84703845Y-42710499D01*
X84858497Y-42679737D01*
X85004179Y-42619394D01*
X85135289Y-42531789D01*
X85246789Y-42420289D01*
X85334394Y-42289179D01*
X85334397Y-42289172D01*
X85357394Y-42233653D01*
X86087000Y-42233653D01*
X86087000Y-42391346D01*
X86117761Y-42545989D01*
X86117764Y-42546001D01*
X86178102Y-42691672D01*
X86178109Y-42691685D01*
X86265710Y-42822788D01*
X86265713Y-42822792D01*
X86377207Y-42934286D01*
X86377211Y-42934289D01*
X86508314Y-43021890D01*
X86508327Y-43021897D01*
X86653998Y-43082235D01*
X86654003Y-43082237D01*
X86662325Y-43083892D01*
X86672295Y-43085876D01*
X86734206Y-43118261D01*
X86768780Y-43178976D01*
X86765041Y-43248746D01*
X86724174Y-43305418D01*
X86672299Y-43329110D01*
X86666504Y-43330262D01*
X86666498Y-43330264D01*
X86520827Y-43390602D01*
X86520814Y-43390609D01*
X86389711Y-43478210D01*
X86389707Y-43478213D01*
X86278213Y-43589707D01*
X86278210Y-43589711D01*
X86190609Y-43720814D01*
X86190602Y-43720827D01*
X86130264Y-43866498D01*
X86130261Y-43866510D01*
X86099500Y-44021153D01*
X86099500Y-44178846D01*
X86130261Y-44333489D01*
X86130264Y-44333501D01*
X86190602Y-44479172D01*
X86190609Y-44479185D01*
X86278210Y-44610288D01*
X86278213Y-44610292D01*
X86389707Y-44721786D01*
X86389711Y-44721789D01*
X86520814Y-44809390D01*
X86520827Y-44809397D01*
X86666498Y-44869735D01*
X86666503Y-44869737D01*
X86821153Y-44900499D01*
X86821156Y-44900500D01*
X86821158Y-44900500D01*
X86978844Y-44900500D01*
X86978845Y-44900499D01*
X87133497Y-44869737D01*
X87279179Y-44809394D01*
X87410289Y-44721789D01*
X87521789Y-44610289D01*
X87609394Y-44479179D01*
X87669737Y-44333497D01*
X87700500Y-44178842D01*
X87700500Y-44021158D01*
X87700500Y-44021155D01*
X87700499Y-44021153D01*
X87676411Y-43900057D01*
X87669737Y-43866503D01*
X87609798Y-43721796D01*
X87609397Y-43720827D01*
X87609390Y-43720814D01*
X87521789Y-43589711D01*
X87521786Y-43589707D01*
X87410292Y-43478213D01*
X87410288Y-43478210D01*
X87279185Y-43390609D01*
X87279172Y-43390602D01*
X87133501Y-43330264D01*
X87133495Y-43330262D01*
X87115200Y-43326623D01*
X87053290Y-43294236D01*
X87018718Y-43233519D01*
X87022460Y-43163749D01*
X87063328Y-43107079D01*
X87115209Y-43083388D01*
X87120997Y-43082237D01*
X87266679Y-43021894D01*
X87397789Y-42934289D01*
X87509289Y-42822789D01*
X87596894Y-42691679D01*
X87657237Y-42545997D01*
X87688000Y-42391342D01*
X87688000Y-42233658D01*
X87688000Y-42233655D01*
X87687999Y-42233653D01*
X87676924Y-42177974D01*
X87657237Y-42079003D01*
X87647315Y-42055048D01*
X87596897Y-41933327D01*
X87596890Y-41933314D01*
X87509289Y-41802211D01*
X87509286Y-41802207D01*
X87397792Y-41690713D01*
X87397788Y-41690710D01*
X87266685Y-41603109D01*
X87266672Y-41603102D01*
X87121001Y-41542764D01*
X87120989Y-41542761D01*
X86966345Y-41512000D01*
X86966342Y-41512000D01*
X86808658Y-41512000D01*
X86808655Y-41512000D01*
X86654010Y-41542761D01*
X86653998Y-41542764D01*
X86508327Y-41603102D01*
X86508314Y-41603109D01*
X86377211Y-41690710D01*
X86377207Y-41690713D01*
X86265713Y-41802207D01*
X86265710Y-41802211D01*
X86178109Y-41933314D01*
X86178102Y-41933327D01*
X86117764Y-42078998D01*
X86117761Y-42079010D01*
X86087000Y-42233653D01*
X85357394Y-42233653D01*
X85379570Y-42180114D01*
X85379570Y-42180113D01*
X85380456Y-42177974D01*
X85394737Y-42143497D01*
X85425500Y-41988842D01*
X85425500Y-41831158D01*
X85425500Y-41831155D01*
X85425499Y-41831153D01*
X85419741Y-41802207D01*
X85394737Y-41676503D01*
X85373852Y-41626082D01*
X85334397Y-41530827D01*
X85334390Y-41530814D01*
X85246789Y-41399711D01*
X85246786Y-41399707D01*
X85135292Y-41288213D01*
X85135288Y-41288210D01*
X85049897Y-41231153D01*
X88524500Y-41231153D01*
X88524500Y-41388846D01*
X88555261Y-41543489D01*
X88555264Y-41543501D01*
X88615602Y-41689172D01*
X88615609Y-41689185D01*
X88703210Y-41820288D01*
X88703213Y-41820292D01*
X88814707Y-41931786D01*
X88814711Y-41931789D01*
X88945814Y-42019390D01*
X88945827Y-42019397D01*
X89089719Y-42078998D01*
X89091503Y-42079737D01*
X89184237Y-42098183D01*
X89246153Y-42110499D01*
X89246156Y-42110500D01*
X89246158Y-42110500D01*
X89403844Y-42110500D01*
X89403845Y-42110499D01*
X89558497Y-42079737D01*
X89704179Y-42019394D01*
X89835289Y-41931789D01*
X89946789Y-41820289D01*
X90034394Y-41689179D01*
X90094737Y-41543497D01*
X90125500Y-41388842D01*
X90125500Y-41231158D01*
X90122533Y-41216243D01*
X90120656Y-41206804D01*
X90120656Y-41206801D01*
X90116814Y-41187486D01*
X90639500Y-41187486D01*
X90639500Y-41372514D01*
X90642087Y-41388846D01*
X90668445Y-41555265D01*
X90725619Y-41731232D01*
X90725620Y-41731235D01*
X90776534Y-41831158D01*
X90809622Y-41896096D01*
X90918379Y-42045787D01*
X91049213Y-42176621D01*
X91198904Y-42285378D01*
X91252224Y-42312546D01*
X91363764Y-42369379D01*
X91363767Y-42369380D01*
X91431367Y-42391344D01*
X91539736Y-42426555D01*
X91722486Y-42455500D01*
X91722487Y-42455500D01*
X91907513Y-42455500D01*
X91907514Y-42455500D01*
X92090264Y-42426555D01*
X92266235Y-42369379D01*
X92431096Y-42285378D01*
X92546608Y-42201453D01*
X92612412Y-42177974D01*
X92680466Y-42193799D01*
X92718758Y-42227460D01*
X92782455Y-42312547D01*
X92897664Y-42398793D01*
X92897671Y-42398797D01*
X93032517Y-42449091D01*
X93032516Y-42449091D01*
X93039444Y-42449835D01*
X93092127Y-42455500D01*
X94537872Y-42455499D01*
X94597483Y-42449091D01*
X94732331Y-42398796D01*
X94847546Y-42312546D01*
X94933796Y-42197331D01*
X94984091Y-42062483D01*
X94990500Y-42002873D01*
X94990499Y-40793713D01*
X102949500Y-40793713D01*
X102949500Y-41006286D01*
X102981258Y-41206801D01*
X102982754Y-41216243D01*
X103042365Y-41399707D01*
X103048444Y-41418414D01*
X103144951Y-41607820D01*
X103269890Y-41779786D01*
X103420213Y-41930109D01*
X103592179Y-42055048D01*
X103592181Y-42055049D01*
X103592184Y-42055051D01*
X103781588Y-42151557D01*
X103983757Y-42217246D01*
X104193713Y-42250500D01*
X104193714Y-42250500D01*
X104406286Y-42250500D01*
X104406287Y-42250500D01*
X104616243Y-42217246D01*
X104818412Y-42151557D01*
X105007816Y-42055051D01*
X105079620Y-42002883D01*
X105179786Y-41930109D01*
X105179788Y-41930106D01*
X105179792Y-41930104D01*
X105330104Y-41779792D01*
X105330106Y-41779788D01*
X105330109Y-41779786D01*
X105455048Y-41607820D01*
X105455047Y-41607820D01*
X105455051Y-41607816D01*
X105551557Y-41418412D01*
X105617246Y-41216243D01*
X105650500Y-41006287D01*
X105650500Y-40793713D01*
X105617246Y-40583757D01*
X105551557Y-40381588D01*
X105455051Y-40192184D01*
X105455049Y-40192181D01*
X105455048Y-40192179D01*
X105330109Y-40020213D01*
X105179786Y-39869890D01*
X105007820Y-39744951D01*
X104818414Y-39648444D01*
X104818413Y-39648443D01*
X104818412Y-39648443D01*
X104616243Y-39582754D01*
X104616241Y-39582753D01*
X104616240Y-39582753D01*
X104454957Y-39557208D01*
X104406287Y-39549500D01*
X104193713Y-39549500D01*
X104145042Y-39557208D01*
X103983760Y-39582753D01*
X103983757Y-39582754D01*
X103816794Y-39637004D01*
X103781585Y-39648444D01*
X103592179Y-39744951D01*
X103420213Y-39869890D01*
X103269890Y-40020213D01*
X103144951Y-40192179D01*
X103048444Y-40381585D01*
X102982753Y-40583760D01*
X102949500Y-40793713D01*
X94990499Y-40793713D01*
X94990499Y-40557128D01*
X94984091Y-40497517D01*
X94970775Y-40461816D01*
X94933797Y-40362671D01*
X94933793Y-40362664D01*
X94847547Y-40247455D01*
X94847544Y-40247452D01*
X94732335Y-40161206D01*
X94732328Y-40161202D01*
X94597482Y-40110908D01*
X94597483Y-40110908D01*
X94537883Y-40104501D01*
X94537881Y-40104500D01*
X94537873Y-40104500D01*
X94537864Y-40104500D01*
X93092129Y-40104500D01*
X93092123Y-40104501D01*
X93032516Y-40110908D01*
X92897671Y-40161202D01*
X92897664Y-40161206D01*
X92782455Y-40247452D01*
X92718758Y-40332539D01*
X92662823Y-40374410D01*
X92593132Y-40379393D01*
X92546607Y-40358545D01*
X92431099Y-40274624D01*
X92431098Y-40274623D01*
X92431096Y-40274622D01*
X92364081Y-40240476D01*
X92266235Y-40190620D01*
X92266232Y-40190619D01*
X92090265Y-40133445D01*
X91947972Y-40110908D01*
X91907514Y-40104500D01*
X91722486Y-40104500D01*
X91682028Y-40110908D01*
X91539734Y-40133445D01*
X91363767Y-40190619D01*
X91363764Y-40190620D01*
X91198903Y-40274622D01*
X91122683Y-40330000D01*
X91049213Y-40383379D01*
X91049211Y-40383381D01*
X91049210Y-40383381D01*
X90918381Y-40514210D01*
X90918381Y-40514211D01*
X90918379Y-40514213D01*
X90887199Y-40557129D01*
X90809622Y-40663903D01*
X90725620Y-40828764D01*
X90725619Y-40828767D01*
X90668445Y-41004734D01*
X90668199Y-41006287D01*
X90639500Y-41187486D01*
X90116814Y-41187486D01*
X90094738Y-41076508D01*
X90094737Y-41076507D01*
X90094737Y-41076503D01*
X90065653Y-41006287D01*
X90034397Y-40930827D01*
X90034390Y-40930814D01*
X89946789Y-40799711D01*
X89946786Y-40799707D01*
X89835292Y-40688213D01*
X89835288Y-40688210D01*
X89704185Y-40600609D01*
X89704172Y-40600602D01*
X89558501Y-40540264D01*
X89558489Y-40540261D01*
X89403845Y-40509500D01*
X89403842Y-40509500D01*
X89246158Y-40509500D01*
X89246155Y-40509500D01*
X89091510Y-40540261D01*
X89091498Y-40540264D01*
X88945827Y-40600602D01*
X88945814Y-40600609D01*
X88814711Y-40688210D01*
X88814707Y-40688213D01*
X88703213Y-40799707D01*
X88703210Y-40799711D01*
X88615609Y-40930814D01*
X88615602Y-40930827D01*
X88555264Y-41076498D01*
X88555261Y-41076510D01*
X88524500Y-41231153D01*
X85049897Y-41231153D01*
X85004185Y-41200609D01*
X85004172Y-41200602D01*
X84858501Y-41140264D01*
X84858489Y-41140261D01*
X84703845Y-41109500D01*
X84703842Y-41109500D01*
X84546158Y-41109500D01*
X84546155Y-41109500D01*
X84391510Y-41140261D01*
X84391498Y-41140264D01*
X84245827Y-41200602D01*
X84245814Y-41200609D01*
X84114711Y-41288210D01*
X84114707Y-41288213D01*
X84003213Y-41399707D01*
X84003210Y-41399711D01*
X83915609Y-41530814D01*
X83915602Y-41530827D01*
X83855264Y-41676498D01*
X83855261Y-41676510D01*
X83824500Y-41831153D01*
X81422492Y-41831153D01*
X81419235Y-40847415D01*
X81407507Y-40740817D01*
X81396302Y-40689717D01*
X81362352Y-40587996D01*
X81362216Y-40587785D01*
X81284567Y-40466962D01*
X81284564Y-40466957D01*
X81284430Y-40466802D01*
X81238815Y-40414159D01*
X81238811Y-40414156D01*
X81238809Y-40414153D01*
X81204005Y-40383995D01*
X81166233Y-40325218D01*
X81161216Y-40289222D01*
X81166733Y-39650581D01*
X81176646Y-39617870D01*
X81186192Y-39584961D01*
X81186850Y-39584195D01*
X81186995Y-39583720D01*
X81209215Y-39558215D01*
X81218799Y-39549854D01*
X81220223Y-39548665D01*
X81220779Y-39548128D01*
X81220784Y-39548124D01*
X81314644Y-39439074D01*
X81373979Y-39307998D01*
X81393441Y-39240893D01*
X81413444Y-39098415D01*
X81413341Y-39067197D01*
X81412537Y-38824234D01*
X81719500Y-38824234D01*
X81719500Y-38975765D01*
X81758719Y-39122136D01*
X81764626Y-39132367D01*
X81834485Y-39253365D01*
X81941635Y-39360515D01*
X82026112Y-39409288D01*
X82072861Y-39436279D01*
X82072865Y-39436281D01*
X82219234Y-39475500D01*
X82219236Y-39475500D01*
X82370764Y-39475500D01*
X82370766Y-39475500D01*
X82517135Y-39436281D01*
X82527451Y-39430325D01*
X82538499Y-39423947D01*
X82606398Y-39407473D01*
X82672426Y-39430325D01*
X82715617Y-39485245D01*
X82724500Y-39531333D01*
X82724500Y-40048541D01*
X82724500Y-40048543D01*
X82724499Y-40048543D01*
X82762947Y-40241829D01*
X82762950Y-40241839D01*
X82838364Y-40423907D01*
X82838371Y-40423920D01*
X82947860Y-40587781D01*
X82947863Y-40587785D01*
X83087214Y-40727136D01*
X83087218Y-40727139D01*
X83251079Y-40836628D01*
X83251092Y-40836635D01*
X83433160Y-40912049D01*
X83433165Y-40912051D01*
X83433169Y-40912051D01*
X83433170Y-40912052D01*
X83626456Y-40950500D01*
X83626459Y-40950500D01*
X83823543Y-40950500D01*
X83953582Y-40924632D01*
X84016835Y-40912051D01*
X84183275Y-40843110D01*
X84198907Y-40836635D01*
X84198907Y-40836634D01*
X84198914Y-40836632D01*
X84362782Y-40727139D01*
X84502139Y-40587782D01*
X84611632Y-40423914D01*
X84687051Y-40241835D01*
X84725500Y-40048541D01*
X84725500Y-38751459D01*
X84725500Y-38751456D01*
X84687052Y-38558170D01*
X84687051Y-38558169D01*
X84687051Y-38558165D01*
X84648671Y-38465507D01*
X84611635Y-38376092D01*
X84611628Y-38376079D01*
X84502139Y-38212218D01*
X84502136Y-38212214D01*
X84362785Y-38072863D01*
X84362781Y-38072860D01*
X84198920Y-37963371D01*
X84198907Y-37963364D01*
X84016839Y-37887950D01*
X84016829Y-37887947D01*
X83823543Y-37849500D01*
X83823541Y-37849500D01*
X83626459Y-37849500D01*
X83626457Y-37849500D01*
X83433170Y-37887947D01*
X83433160Y-37887950D01*
X83251092Y-37963364D01*
X83251079Y-37963371D01*
X83087218Y-38072860D01*
X83087214Y-38072863D01*
X82947863Y-38212214D01*
X82947860Y-38212218D01*
X82838371Y-38376079D01*
X82838363Y-38376094D01*
X82834456Y-38385528D01*
X82790615Y-38439931D01*
X82724320Y-38461995D01*
X82656621Y-38444715D01*
X82651968Y-38441566D01*
X82648366Y-38439486D01*
X82648365Y-38439485D01*
X82554909Y-38385528D01*
X82517136Y-38363719D01*
X82429479Y-38340232D01*
X82370766Y-38324500D01*
X82219234Y-38324500D01*
X82072863Y-38363719D01*
X81941635Y-38439485D01*
X81941632Y-38439487D01*
X81834487Y-38546632D01*
X81834485Y-38546635D01*
X81758719Y-38677863D01*
X81719500Y-38824234D01*
X81412537Y-38824234D01*
X81412511Y-38816518D01*
X81410048Y-38072860D01*
X81405906Y-36821915D01*
X81398197Y-36751849D01*
X81394179Y-36715325D01*
X81394178Y-36715323D01*
X81394178Y-36715317D01*
X81382973Y-36664217D01*
X81349023Y-36562496D01*
X81327740Y-36529380D01*
X81298360Y-36483664D01*
X81271235Y-36441457D01*
X81225902Y-36389140D01*
X81196877Y-36325584D01*
X81195620Y-36306879D01*
X81198944Y-35922179D01*
X81219207Y-35855314D01*
X81272404Y-35810017D01*
X81322178Y-35799255D01*
X82636444Y-35791241D01*
X82703598Y-35810516D01*
X82749674Y-35863040D01*
X82758813Y-35891045D01*
X82762947Y-35911831D01*
X82762949Y-35911837D01*
X82838364Y-36093907D01*
X82838371Y-36093920D01*
X82947860Y-36257781D01*
X82947863Y-36257785D01*
X83087214Y-36397136D01*
X83087218Y-36397139D01*
X83251079Y-36506628D01*
X83251092Y-36506635D01*
X83433160Y-36582049D01*
X83433165Y-36582051D01*
X83433169Y-36582051D01*
X83433170Y-36582052D01*
X83626456Y-36620500D01*
X83626459Y-36620500D01*
X83823543Y-36620500D01*
X83953582Y-36594632D01*
X84016835Y-36582051D01*
X84198914Y-36506632D01*
X84362782Y-36397139D01*
X84502139Y-36257782D01*
X84611632Y-36093914D01*
X84687051Y-35911835D01*
X84693828Y-35877763D01*
X84726212Y-35815855D01*
X84786927Y-35781280D01*
X84814679Y-35777959D01*
X85416780Y-35774287D01*
X85483932Y-35793562D01*
X85530008Y-35846086D01*
X85535461Y-35859967D01*
X85545618Y-35891229D01*
X85545620Y-35891235D01*
X85629622Y-36056096D01*
X85738379Y-36205787D01*
X85869213Y-36336621D01*
X86018904Y-36445378D01*
X86072224Y-36472546D01*
X86183764Y-36529379D01*
X86183767Y-36529380D01*
X86271750Y-36557967D01*
X86359736Y-36586555D01*
X86542486Y-36615500D01*
X86542487Y-36615500D01*
X86727513Y-36615500D01*
X86727514Y-36615500D01*
X86910264Y-36586555D01*
X87086235Y-36529379D01*
X87251096Y-36445378D01*
X87366608Y-36361453D01*
X87432412Y-36337974D01*
X87500466Y-36353799D01*
X87538758Y-36387460D01*
X87602455Y-36472547D01*
X87717664Y-36558793D01*
X87717671Y-36558797D01*
X87852517Y-36609091D01*
X87852516Y-36609091D01*
X87859444Y-36609835D01*
X87912127Y-36615500D01*
X89357872Y-36615499D01*
X89417483Y-36609091D01*
X89552331Y-36558796D01*
X89667546Y-36472546D01*
X89753796Y-36357331D01*
X89804091Y-36222483D01*
X89810500Y-36162873D01*
X89810499Y-35870739D01*
X89830183Y-35803703D01*
X89882987Y-35757948D01*
X89933737Y-35746745D01*
X112580530Y-35608654D01*
X112647684Y-35627929D01*
G37*
%TD.AperFunction*%
%TD*%
%TA.AperFunction,Conductor*%
%TO.N,+3V3*%
G36*
X80843449Y-36719685D02*
G01*
X80889204Y-36772489D01*
X80900409Y-36823589D01*
X80907947Y-39100089D01*
X80888485Y-39167194D01*
X80835833Y-39213123D01*
X80783948Y-39224500D01*
X77309604Y-39224500D01*
X77277976Y-39220399D01*
X77269888Y-39218265D01*
X77238497Y-39205263D01*
X77165710Y-39190784D01*
X77162019Y-39189811D01*
X77135251Y-39173637D01*
X77107544Y-39159144D01*
X77105592Y-39155716D01*
X77102218Y-39153678D01*
X77088448Y-39125609D01*
X77072970Y-39098428D01*
X77073033Y-39094187D01*
X77071445Y-39090950D01*
X77073323Y-39074707D01*
X77073871Y-39037823D01*
X77090500Y-38975766D01*
X77090500Y-38824234D01*
X77051281Y-38677865D01*
X76975515Y-38546635D01*
X76868365Y-38439485D01*
X76797838Y-38398766D01*
X76737136Y-38363719D01*
X76663950Y-38344109D01*
X76590766Y-38324500D01*
X76439234Y-38324500D01*
X76292863Y-38363719D01*
X76218860Y-38406446D01*
X76161635Y-38439485D01*
X76161633Y-38439486D01*
X76154597Y-38443549D01*
X76153254Y-38441224D01*
X76100391Y-38461647D01*
X76031949Y-38447592D01*
X75981971Y-38398766D01*
X75975540Y-38385522D01*
X75971632Y-38376087D01*
X75971628Y-38376079D01*
X75862139Y-38212218D01*
X75862136Y-38212214D01*
X75722785Y-38072863D01*
X75722781Y-38072860D01*
X75558920Y-37963371D01*
X75558907Y-37963364D01*
X75376839Y-37887950D01*
X75376829Y-37887947D01*
X75183543Y-37849500D01*
X75183541Y-37849500D01*
X74986459Y-37849500D01*
X74986457Y-37849500D01*
X74793170Y-37887947D01*
X74793160Y-37887950D01*
X74611092Y-37963364D01*
X74611079Y-37963371D01*
X74447218Y-38072860D01*
X74447214Y-38072863D01*
X74307863Y-38212214D01*
X74307860Y-38212218D01*
X74198371Y-38376079D01*
X74198364Y-38376092D01*
X74122950Y-38558160D01*
X74122947Y-38558170D01*
X74084500Y-38751456D01*
X74084500Y-38751459D01*
X74084500Y-40048541D01*
X74084500Y-40048543D01*
X74084499Y-40048543D01*
X74122947Y-40241829D01*
X74122950Y-40241839D01*
X74198364Y-40423907D01*
X74198371Y-40423920D01*
X74307860Y-40587781D01*
X74307863Y-40587785D01*
X74447214Y-40727136D01*
X74447218Y-40727139D01*
X74611079Y-40836628D01*
X74611092Y-40836635D01*
X74782144Y-40907486D01*
X74793165Y-40912051D01*
X74793169Y-40912051D01*
X74793170Y-40912052D01*
X74986456Y-40950500D01*
X74986459Y-40950500D01*
X75183543Y-40950500D01*
X75313582Y-40924632D01*
X75376835Y-40912051D01*
X75558914Y-40836632D01*
X75722782Y-40727139D01*
X75862139Y-40587782D01*
X75971632Y-40423914D01*
X75971633Y-40423911D01*
X75971635Y-40423908D01*
X76002299Y-40349876D01*
X76033501Y-40274547D01*
X76077340Y-40220145D01*
X76143634Y-40198080D01*
X76211334Y-40215359D01*
X76258944Y-40266495D01*
X76262622Y-40274549D01*
X76295602Y-40354172D01*
X76295609Y-40354185D01*
X76383210Y-40485288D01*
X76383213Y-40485292D01*
X76494707Y-40596786D01*
X76494711Y-40596789D01*
X76625814Y-40684390D01*
X76625827Y-40684397D01*
X76725060Y-40725500D01*
X76771503Y-40744737D01*
X76926153Y-40775499D01*
X76926156Y-40775500D01*
X76926158Y-40775500D01*
X77083844Y-40775500D01*
X77083845Y-40775499D01*
X77160152Y-40760320D01*
X77238488Y-40744739D01*
X77238489Y-40744738D01*
X77238497Y-40744737D01*
X77262155Y-40734937D01*
X77309604Y-40725500D01*
X80789739Y-40725500D01*
X80856778Y-40745185D01*
X80902533Y-40797989D01*
X80913738Y-40849089D01*
X80980003Y-60861143D01*
X80960541Y-60928248D01*
X80943687Y-60949233D01*
X80903212Y-60989708D01*
X80903208Y-60989714D01*
X80815609Y-61120814D01*
X80815602Y-61120827D01*
X80755264Y-61266498D01*
X80755261Y-61266510D01*
X80724500Y-61421153D01*
X80724500Y-61578846D01*
X80755261Y-61733489D01*
X80755264Y-61733501D01*
X80815602Y-61879172D01*
X80815609Y-61879185D01*
X80903210Y-62010288D01*
X80903213Y-62010292D01*
X80947926Y-62055004D01*
X80981412Y-62116327D01*
X80984245Y-62142275D01*
X80998870Y-66558613D01*
X81000000Y-66900000D01*
X83833385Y-66965892D01*
X83899947Y-66987129D01*
X83944461Y-67040983D01*
X83954500Y-67089858D01*
X83954500Y-67138846D01*
X83985261Y-67293489D01*
X83985264Y-67293501D01*
X84045602Y-67439172D01*
X84045609Y-67439185D01*
X84133210Y-67570288D01*
X84133213Y-67570292D01*
X84244707Y-67681786D01*
X84244711Y-67681789D01*
X84375814Y-67769390D01*
X84375827Y-67769397D01*
X84521498Y-67829735D01*
X84521503Y-67829737D01*
X84656039Y-67856498D01*
X84676153Y-67860499D01*
X84676156Y-67860500D01*
X84676158Y-67860500D01*
X84833844Y-67860500D01*
X84833845Y-67860499D01*
X84988497Y-67829737D01*
X85134179Y-67769394D01*
X85265289Y-67681789D01*
X85376789Y-67570289D01*
X85464394Y-67439179D01*
X85524737Y-67293497D01*
X85555500Y-67138842D01*
X85555500Y-67132857D01*
X85575185Y-67065818D01*
X85627989Y-67020063D01*
X85682375Y-67008892D01*
X89470143Y-67096980D01*
X89536707Y-67118217D01*
X89581222Y-67172071D01*
X89590959Y-67229576D01*
X89308145Y-71283245D01*
X89283843Y-71348752D01*
X89227982Y-71390721D01*
X89182970Y-71398606D01*
X80900000Y-71300000D01*
X80850672Y-75196896D01*
X80830141Y-75263680D01*
X80811099Y-75286154D01*
X79607891Y-76404429D01*
X79545384Y-76435650D01*
X79485158Y-76431533D01*
X79460263Y-76423444D01*
X79306458Y-76399084D01*
X79277514Y-76394500D01*
X79092486Y-76394500D01*
X79052028Y-76400908D01*
X78909734Y-76423445D01*
X78733767Y-76480619D01*
X78733764Y-76480620D01*
X78568903Y-76564622D01*
X78489188Y-76622539D01*
X78419213Y-76673379D01*
X78419211Y-76673381D01*
X78419210Y-76673381D01*
X78288381Y-76804210D01*
X78285314Y-76808432D01*
X78229981Y-76851094D01*
X78160367Y-76857069D01*
X78098574Y-76824459D01*
X78084686Y-76808432D01*
X78081621Y-76804213D01*
X77950787Y-76673379D01*
X77801096Y-76564622D01*
X77747778Y-76537455D01*
X77636235Y-76480620D01*
X77636232Y-76480619D01*
X77460265Y-76423445D01*
X77368889Y-76408972D01*
X77277514Y-76394500D01*
X77092486Y-76394500D01*
X77052028Y-76400908D01*
X76909734Y-76423445D01*
X76733767Y-76480619D01*
X76733764Y-76480620D01*
X76568900Y-76564624D01*
X76453392Y-76648545D01*
X76387586Y-76672025D01*
X76319532Y-76656199D01*
X76281241Y-76622539D01*
X76237884Y-76564622D01*
X76217546Y-76537454D01*
X76217544Y-76537453D01*
X76217544Y-76537452D01*
X76102335Y-76451206D01*
X76102328Y-76451202D01*
X75967482Y-76400908D01*
X75967483Y-76400908D01*
X75907883Y-76394501D01*
X75907881Y-76394500D01*
X75907873Y-76394500D01*
X75907864Y-76394500D01*
X74462129Y-76394500D01*
X74462123Y-76394501D01*
X74402516Y-76400908D01*
X74267671Y-76451202D01*
X74267664Y-76451206D01*
X74152455Y-76537452D01*
X74152452Y-76537455D01*
X74066206Y-76652664D01*
X74066202Y-76652671D01*
X74015908Y-76787517D01*
X74009501Y-76847116D01*
X74009500Y-76847135D01*
X74009500Y-78292870D01*
X74009501Y-78292876D01*
X74015908Y-78352483D01*
X74066202Y-78487328D01*
X74066206Y-78487335D01*
X74152452Y-78602544D01*
X74152455Y-78602547D01*
X74267664Y-78688793D01*
X74267671Y-78688797D01*
X74402517Y-78739091D01*
X74402516Y-78739091D01*
X74409444Y-78739835D01*
X74462127Y-78745500D01*
X75907872Y-78745499D01*
X75967483Y-78739091D01*
X76102331Y-78688796D01*
X76217546Y-78602546D01*
X76281241Y-78517459D01*
X76337174Y-78475590D01*
X76406866Y-78470606D01*
X76453392Y-78491453D01*
X76568904Y-78575378D01*
X76622224Y-78602546D01*
X76733764Y-78659379D01*
X76733770Y-78659381D01*
X76865063Y-78702040D01*
X76922739Y-78741477D01*
X76949938Y-78805835D01*
X76938024Y-78874682D01*
X76911163Y-78910799D01*
X76635691Y-79166828D01*
X76573185Y-79198049D01*
X76551274Y-79200000D01*
X45224000Y-79200000D01*
X45156961Y-79180315D01*
X45111206Y-79127511D01*
X45100000Y-79076000D01*
X45100000Y-71921153D01*
X56399500Y-71921153D01*
X56399500Y-72078846D01*
X56430261Y-72233489D01*
X56430264Y-72233501D01*
X56490602Y-72379172D01*
X56490609Y-72379185D01*
X56578210Y-72510288D01*
X56578213Y-72510292D01*
X56689707Y-72621786D01*
X56689711Y-72621789D01*
X56820814Y-72709390D01*
X56820827Y-72709397D01*
X56966498Y-72769735D01*
X56966503Y-72769737D01*
X57084992Y-72793306D01*
X57121153Y-72800499D01*
X57121156Y-72800500D01*
X57121158Y-72800500D01*
X57278844Y-72800500D01*
X57278845Y-72800499D01*
X57433497Y-72769737D01*
X57478363Y-72751153D01*
X63073777Y-72751153D01*
X63073777Y-72908846D01*
X63104538Y-73063489D01*
X63104541Y-73063501D01*
X63164879Y-73209172D01*
X63164886Y-73209185D01*
X63252487Y-73340288D01*
X63252490Y-73340292D01*
X63363984Y-73451786D01*
X63363988Y-73451789D01*
X63495091Y-73539390D01*
X63495104Y-73539397D01*
X63640775Y-73599735D01*
X63640780Y-73599737D01*
X63775934Y-73626621D01*
X63795430Y-73630499D01*
X63795433Y-73630500D01*
X63795435Y-73630500D01*
X63953121Y-73630500D01*
X63953122Y-73630499D01*
X64107774Y-73599737D01*
X64166270Y-73575506D01*
X64235736Y-73568038D01*
X64282611Y-73586965D01*
X64293230Y-73594061D01*
X64293231Y-73594061D01*
X64293232Y-73594062D01*
X64293234Y-73594063D01*
X64438907Y-73654402D01*
X64438912Y-73654404D01*
X64540871Y-73674685D01*
X64593562Y-73685166D01*
X64593565Y-73685167D01*
X64593567Y-73685167D01*
X64751253Y-73685167D01*
X64812265Y-73673030D01*
X64897026Y-73656170D01*
X64966616Y-73662397D01*
X64990108Y-73674685D01*
X65080676Y-73735201D01*
X65080689Y-73735208D01*
X65199386Y-73784373D01*
X65226365Y-73795548D01*
X65346171Y-73819379D01*
X65381015Y-73826310D01*
X65381018Y-73826311D01*
X65381020Y-73826311D01*
X65538706Y-73826311D01*
X65538707Y-73826310D01*
X65693359Y-73795548D01*
X65829985Y-73738955D01*
X65899454Y-73731487D01*
X65946328Y-73750415D01*
X65969338Y-73765790D01*
X65969340Y-73765790D01*
X65969344Y-73765793D01*
X66050468Y-73799395D01*
X66115020Y-73826133D01*
X66228954Y-73848796D01*
X66269670Y-73856895D01*
X66269673Y-73856896D01*
X66269675Y-73856896D01*
X66427361Y-73856896D01*
X66427362Y-73856895D01*
X66582014Y-73826133D01*
X66664800Y-73791841D01*
X66734265Y-73784373D01*
X66770707Y-73797047D01*
X66775100Y-73799395D01*
X66840079Y-73826310D01*
X66920780Y-73859737D01*
X67075430Y-73890499D01*
X67075433Y-73890500D01*
X67075435Y-73890500D01*
X67088729Y-73890500D01*
X67155768Y-73910185D01*
X67201523Y-73962989D01*
X67203290Y-73967048D01*
X67224883Y-74019179D01*
X67224884Y-74019182D01*
X67312487Y-74150288D01*
X67312490Y-74150292D01*
X67423984Y-74261786D01*
X67423988Y-74261789D01*
X67555091Y-74349390D01*
X67555104Y-74349397D01*
X67700775Y-74409735D01*
X67700780Y-74409737D01*
X67855430Y-74440499D01*
X67855433Y-74440500D01*
X67855435Y-74440500D01*
X68013121Y-74440500D01*
X68013122Y-74440499D01*
X68167774Y-74409737D01*
X68313456Y-74349394D01*
X68444566Y-74261789D01*
X68472912Y-74233442D01*
X68534233Y-74199958D01*
X68603925Y-74204942D01*
X68659859Y-74246812D01*
X68663695Y-74252232D01*
X68702490Y-74310292D01*
X68813984Y-74421786D01*
X68813988Y-74421789D01*
X68945091Y-74509390D01*
X68945104Y-74509397D01*
X69090775Y-74569735D01*
X69090780Y-74569737D01*
X69245430Y-74600499D01*
X69245433Y-74600500D01*
X69245435Y-74600500D01*
X69403121Y-74600500D01*
X69403122Y-74600499D01*
X69557774Y-74569737D01*
X69703456Y-74509394D01*
X69834566Y-74421789D01*
X69946066Y-74310289D01*
X70033671Y-74179179D01*
X70094014Y-74033497D01*
X70124777Y-73878842D01*
X70124777Y-73721158D01*
X70124777Y-73721155D01*
X70124776Y-73721153D01*
X70115533Y-73674685D01*
X70094014Y-73566503D01*
X70094012Y-73566498D01*
X70033674Y-73420827D01*
X70033667Y-73420814D01*
X69946066Y-73289711D01*
X69946063Y-73289707D01*
X69834569Y-73178213D01*
X69834565Y-73178210D01*
X69703462Y-73090609D01*
X69703449Y-73090602D01*
X69557778Y-73030264D01*
X69557766Y-73030261D01*
X69403122Y-72999500D01*
X69403119Y-72999500D01*
X69245435Y-72999500D01*
X69245432Y-72999500D01*
X69090787Y-73030261D01*
X69090775Y-73030264D01*
X68945104Y-73090602D01*
X68945091Y-73090609D01*
X68813988Y-73178210D01*
X68785640Y-73206558D01*
X68724316Y-73240042D01*
X68654625Y-73235056D01*
X68598692Y-73193184D01*
X68594858Y-73187766D01*
X68556066Y-73129711D01*
X68556063Y-73129707D01*
X68444569Y-73018213D01*
X68444565Y-73018210D01*
X68313462Y-72930609D01*
X68313449Y-72930602D01*
X68167778Y-72870264D01*
X68167766Y-72870261D01*
X68013122Y-72839500D01*
X68013119Y-72839500D01*
X67999825Y-72839500D01*
X67980643Y-72833867D01*
X67960665Y-72833154D01*
X67947804Y-72824225D01*
X67932786Y-72819815D01*
X67919696Y-72804709D01*
X67903273Y-72793306D01*
X67889064Y-72769357D01*
X67887031Y-72767011D01*
X67885264Y-72762952D01*
X67880377Y-72751153D01*
X67863671Y-72710821D01*
X67843847Y-72681153D01*
X74344500Y-72681153D01*
X74344500Y-72838846D01*
X74375261Y-72993489D01*
X74375264Y-72993501D01*
X74435602Y-73139172D01*
X74435609Y-73139185D01*
X74523210Y-73270288D01*
X74523213Y-73270292D01*
X74634707Y-73381786D01*
X74634711Y-73381789D01*
X74765814Y-73469390D01*
X74765827Y-73469397D01*
X74911498Y-73529735D01*
X74911503Y-73529737D01*
X75066153Y-73560499D01*
X75066156Y-73560500D01*
X75066158Y-73560500D01*
X75223844Y-73560500D01*
X75223845Y-73560499D01*
X75378497Y-73529737D01*
X75524179Y-73469394D01*
X75655289Y-73381789D01*
X75766789Y-73270289D01*
X75854394Y-73139179D01*
X75914737Y-72993497D01*
X75945500Y-72838842D01*
X75945500Y-72681158D01*
X75945500Y-72681155D01*
X75939155Y-72649258D01*
X75939155Y-72649257D01*
X75935554Y-72631153D01*
X76374500Y-72631153D01*
X76374500Y-72788846D01*
X76405261Y-72943489D01*
X76405264Y-72943501D01*
X76465602Y-73089172D01*
X76465609Y-73089185D01*
X76553210Y-73220288D01*
X76553213Y-73220292D01*
X76664707Y-73331786D01*
X76664711Y-73331789D01*
X76795814Y-73419390D01*
X76795827Y-73419397D01*
X76941498Y-73479735D01*
X76941503Y-73479737D01*
X77096153Y-73510499D01*
X77096156Y-73510500D01*
X77096158Y-73510500D01*
X77253844Y-73510500D01*
X77253845Y-73510499D01*
X77408497Y-73479737D01*
X77521166Y-73433067D01*
X77554172Y-73419397D01*
X77554172Y-73419396D01*
X77554179Y-73419394D01*
X77685289Y-73331789D01*
X77796789Y-73220289D01*
X77884394Y-73089179D01*
X77944737Y-72943497D01*
X77975500Y-72788842D01*
X77975500Y-72631158D01*
X77975500Y-72631155D01*
X77975499Y-72631153D01*
X77954684Y-72526510D01*
X77944737Y-72476503D01*
X77905017Y-72380609D01*
X77884397Y-72330827D01*
X77884390Y-72330814D01*
X77796789Y-72199711D01*
X77796786Y-72199707D01*
X77685292Y-72088213D01*
X77685288Y-72088210D01*
X77554185Y-72000609D01*
X77554172Y-72000602D01*
X77408501Y-71940264D01*
X77408489Y-71940261D01*
X77253845Y-71909500D01*
X77253842Y-71909500D01*
X77096158Y-71909500D01*
X77096155Y-71909500D01*
X76941510Y-71940261D01*
X76941498Y-71940264D01*
X76795827Y-72000602D01*
X76795814Y-72000609D01*
X76664711Y-72088210D01*
X76664707Y-72088213D01*
X76553213Y-72199707D01*
X76553210Y-72199711D01*
X76465609Y-72330814D01*
X76465602Y-72330827D01*
X76405264Y-72476498D01*
X76405261Y-72476510D01*
X76374500Y-72631153D01*
X75935554Y-72631153D01*
X75914738Y-72526510D01*
X75914737Y-72526503D01*
X75908021Y-72510288D01*
X75854397Y-72380827D01*
X75854390Y-72380814D01*
X75766789Y-72249711D01*
X75766786Y-72249707D01*
X75655292Y-72138213D01*
X75655288Y-72138210D01*
X75524185Y-72050609D01*
X75524172Y-72050602D01*
X75378501Y-71990264D01*
X75378489Y-71990261D01*
X75223845Y-71959500D01*
X75223842Y-71959500D01*
X75066158Y-71959500D01*
X75066155Y-71959500D01*
X74911510Y-71990261D01*
X74911498Y-71990264D01*
X74765827Y-72050602D01*
X74765814Y-72050609D01*
X74634711Y-72138210D01*
X74634707Y-72138213D01*
X74523213Y-72249707D01*
X74523210Y-72249711D01*
X74435609Y-72380814D01*
X74435602Y-72380827D01*
X74375264Y-72526498D01*
X74375261Y-72526510D01*
X74344500Y-72681153D01*
X67843847Y-72681153D01*
X67776066Y-72579711D01*
X67776063Y-72579707D01*
X67664569Y-72468213D01*
X67664565Y-72468210D01*
X67533462Y-72380609D01*
X67533449Y-72380602D01*
X67387778Y-72320264D01*
X67387766Y-72320261D01*
X67233122Y-72289500D01*
X67233119Y-72289500D01*
X67075435Y-72289500D01*
X67075432Y-72289500D01*
X66920788Y-72320260D01*
X66920783Y-72320262D01*
X66920781Y-72320262D01*
X66920780Y-72320263D01*
X66850562Y-72349348D01*
X66837993Y-72354554D01*
X66768524Y-72362022D01*
X66732084Y-72349348D01*
X66727698Y-72347003D01*
X66727696Y-72347002D01*
X66727693Y-72347001D01*
X66727688Y-72346998D01*
X66582018Y-72286660D01*
X66582006Y-72286657D01*
X66427362Y-72255896D01*
X66427359Y-72255896D01*
X66269675Y-72255896D01*
X66269672Y-72255896D01*
X66115027Y-72286657D01*
X66115015Y-72286660D01*
X65978393Y-72343250D01*
X65908923Y-72350719D01*
X65862051Y-72331791D01*
X65839042Y-72316417D01*
X65839039Y-72316415D01*
X65693363Y-72256075D01*
X65693351Y-72256072D01*
X65538707Y-72225311D01*
X65538704Y-72225311D01*
X65381020Y-72225311D01*
X65381017Y-72225311D01*
X65235244Y-72254307D01*
X65165653Y-72248080D01*
X65142162Y-72235792D01*
X65051594Y-72175276D01*
X65051581Y-72175269D01*
X64905910Y-72114931D01*
X64905898Y-72114928D01*
X64751254Y-72084167D01*
X64751251Y-72084167D01*
X64593567Y-72084167D01*
X64593564Y-72084167D01*
X64438920Y-72114927D01*
X64438915Y-72114929D01*
X64438913Y-72114929D01*
X64438912Y-72114930D01*
X64382706Y-72138211D01*
X64380415Y-72139160D01*
X64310946Y-72146627D01*
X64264070Y-72127698D01*
X64253460Y-72120608D01*
X64253449Y-72120602D01*
X64107778Y-72060264D01*
X64107766Y-72060261D01*
X63953122Y-72029500D01*
X63953119Y-72029500D01*
X63795435Y-72029500D01*
X63795432Y-72029500D01*
X63640787Y-72060261D01*
X63640775Y-72060264D01*
X63495104Y-72120602D01*
X63495091Y-72120609D01*
X63363988Y-72208210D01*
X63363984Y-72208213D01*
X63252490Y-72319707D01*
X63252487Y-72319711D01*
X63164886Y-72450814D01*
X63164879Y-72450827D01*
X63104541Y-72596498D01*
X63104538Y-72596510D01*
X63073777Y-72751153D01*
X57478363Y-72751153D01*
X57579179Y-72709394D01*
X57579185Y-72709390D01*
X57680096Y-72641964D01*
X57696275Y-72631153D01*
X57710289Y-72621789D01*
X57821789Y-72510289D01*
X57909394Y-72379179D01*
X57969737Y-72233497D01*
X58000500Y-72078842D01*
X58000500Y-71921158D01*
X58000500Y-71921155D01*
X58000499Y-71921153D01*
X57998181Y-71909500D01*
X57969737Y-71766503D01*
X57969735Y-71766498D01*
X57909397Y-71620827D01*
X57909390Y-71620814D01*
X57821789Y-71489711D01*
X57821786Y-71489707D01*
X57710292Y-71378213D01*
X57710288Y-71378210D01*
X57579185Y-71290609D01*
X57579172Y-71290602D01*
X57433501Y-71230264D01*
X57433489Y-71230261D01*
X57278845Y-71199500D01*
X57278842Y-71199500D01*
X57121158Y-71199500D01*
X57121155Y-71199500D01*
X56966510Y-71230261D01*
X56966498Y-71230264D01*
X56820827Y-71290602D01*
X56820814Y-71290609D01*
X56689711Y-71378210D01*
X56689707Y-71378213D01*
X56578213Y-71489707D01*
X56578210Y-71489711D01*
X56490609Y-71620814D01*
X56490602Y-71620827D01*
X56430264Y-71766498D01*
X56430261Y-71766510D01*
X56399500Y-71921153D01*
X45100000Y-71921153D01*
X45100000Y-69821153D01*
X70999500Y-69821153D01*
X70999500Y-69978846D01*
X71030261Y-70133489D01*
X71030264Y-70133501D01*
X71090602Y-70279172D01*
X71090609Y-70279185D01*
X71178210Y-70410288D01*
X71178213Y-70410292D01*
X71289707Y-70521786D01*
X71289711Y-70521789D01*
X71420814Y-70609390D01*
X71420827Y-70609397D01*
X71566498Y-70669735D01*
X71566503Y-70669737D01*
X71721153Y-70700499D01*
X71721156Y-70700500D01*
X71721158Y-70700500D01*
X71878844Y-70700500D01*
X71878845Y-70700499D01*
X72033497Y-70669737D01*
X72179179Y-70609394D01*
X72310289Y-70521789D01*
X72421789Y-70410289D01*
X72509394Y-70279179D01*
X72569737Y-70133497D01*
X72600500Y-69978842D01*
X72600500Y-69821158D01*
X72600500Y-69821155D01*
X72600499Y-69821153D01*
X72594402Y-69790500D01*
X72569737Y-69666503D01*
X72543408Y-69602938D01*
X72509397Y-69520827D01*
X72509390Y-69520814D01*
X72421789Y-69389711D01*
X72421786Y-69389707D01*
X72310292Y-69278213D01*
X72310288Y-69278210D01*
X72179185Y-69190609D01*
X72179172Y-69190602D01*
X72033501Y-69130264D01*
X72033489Y-69130261D01*
X72028804Y-69129329D01*
X72028803Y-69129329D01*
X71878844Y-69099500D01*
X71878842Y-69099500D01*
X71721158Y-69099500D01*
X71721155Y-69099500D01*
X71566510Y-69130261D01*
X71566498Y-69130264D01*
X71420827Y-69190602D01*
X71420814Y-69190609D01*
X71289711Y-69278210D01*
X71289707Y-69278213D01*
X71178213Y-69389707D01*
X71178210Y-69389711D01*
X71090609Y-69520814D01*
X71090602Y-69520827D01*
X71030264Y-69666498D01*
X71030261Y-69666510D01*
X70999500Y-69821153D01*
X45100000Y-69821153D01*
X45100000Y-68904878D01*
X45119685Y-68837839D01*
X45172489Y-68792084D01*
X45241647Y-68782140D01*
X45305203Y-68811165D01*
X45324318Y-68831993D01*
X45336140Y-68848265D01*
X45408030Y-68947215D01*
X45552786Y-69091971D01*
X45707749Y-69204556D01*
X45718390Y-69212287D01*
X45834607Y-69271503D01*
X45900776Y-69305218D01*
X45900778Y-69305218D01*
X45900781Y-69305220D01*
X45965188Y-69326147D01*
X46095465Y-69368477D01*
X46196557Y-69384488D01*
X46297648Y-69400500D01*
X46297649Y-69400500D01*
X46502351Y-69400500D01*
X46502352Y-69400500D01*
X46704534Y-69368477D01*
X46899219Y-69305220D01*
X47081610Y-69212287D01*
X47194506Y-69130264D01*
X47247213Y-69091971D01*
X47247215Y-69091968D01*
X47247219Y-69091966D01*
X47325386Y-69013799D01*
X76830980Y-69013799D01*
X76830980Y-69171492D01*
X76861741Y-69326135D01*
X76861744Y-69326147D01*
X76922082Y-69471818D01*
X76922089Y-69471831D01*
X77009690Y-69602934D01*
X77009693Y-69602938D01*
X77121187Y-69714432D01*
X77121191Y-69714435D01*
X77252294Y-69802036D01*
X77252307Y-69802043D01*
X77397978Y-69862381D01*
X77397983Y-69862383D01*
X77552633Y-69893145D01*
X77552636Y-69893146D01*
X77552638Y-69893146D01*
X77710324Y-69893146D01*
X77710325Y-69893145D01*
X77864977Y-69862383D01*
X78010659Y-69802040D01*
X78141769Y-69714435D01*
X78253269Y-69602935D01*
X78340874Y-69471825D01*
X78401217Y-69326143D01*
X78431980Y-69171488D01*
X78431980Y-69013804D01*
X78431980Y-69013801D01*
X78415163Y-68929258D01*
X78415163Y-68929257D01*
X78411562Y-68911153D01*
X82014500Y-68911153D01*
X82014500Y-69068846D01*
X82045261Y-69223489D01*
X82045264Y-69223501D01*
X82105602Y-69369172D01*
X82105609Y-69369185D01*
X82193210Y-69500288D01*
X82193213Y-69500292D01*
X82304707Y-69611786D01*
X82304711Y-69611789D01*
X82435814Y-69699390D01*
X82435827Y-69699397D01*
X82518163Y-69733501D01*
X82581503Y-69759737D01*
X82736153Y-69790499D01*
X82736156Y-69790500D01*
X82736158Y-69790500D01*
X82893844Y-69790500D01*
X82893845Y-69790499D01*
X83048497Y-69759737D01*
X83194179Y-69699394D01*
X83325289Y-69611789D01*
X83436789Y-69500289D01*
X83489666Y-69421153D01*
X85074500Y-69421153D01*
X85074500Y-69578846D01*
X85105261Y-69733489D01*
X85105264Y-69733501D01*
X85165602Y-69879172D01*
X85165609Y-69879185D01*
X85253210Y-70010288D01*
X85253213Y-70010292D01*
X85364707Y-70121786D01*
X85364711Y-70121789D01*
X85495814Y-70209390D01*
X85495827Y-70209397D01*
X85641498Y-70269735D01*
X85641503Y-70269737D01*
X85796153Y-70300499D01*
X85796156Y-70300500D01*
X85796158Y-70300500D01*
X85953844Y-70300500D01*
X85953845Y-70300499D01*
X86108497Y-70269737D01*
X86254179Y-70209394D01*
X86385289Y-70121789D01*
X86496789Y-70010289D01*
X86584394Y-69879179D01*
X86644737Y-69733497D01*
X86675500Y-69578842D01*
X86675500Y-69421158D01*
X86675500Y-69421155D01*
X86675499Y-69421153D01*
X86664849Y-69367611D01*
X86644737Y-69266503D01*
X86626925Y-69223501D01*
X86584397Y-69120827D01*
X86584390Y-69120814D01*
X86496789Y-68989711D01*
X86496786Y-68989707D01*
X86385292Y-68878213D01*
X86385288Y-68878210D01*
X86254185Y-68790609D01*
X86254172Y-68790602D01*
X86108501Y-68730264D01*
X86108489Y-68730261D01*
X85953845Y-68699500D01*
X85953842Y-68699500D01*
X85796158Y-68699500D01*
X85796155Y-68699500D01*
X85641510Y-68730261D01*
X85641498Y-68730264D01*
X85495827Y-68790602D01*
X85495814Y-68790609D01*
X85364711Y-68878210D01*
X85364707Y-68878213D01*
X85253213Y-68989707D01*
X85253210Y-68989711D01*
X85165609Y-69120814D01*
X85165602Y-69120827D01*
X85105264Y-69266498D01*
X85105261Y-69266510D01*
X85074500Y-69421153D01*
X83489666Y-69421153D01*
X83524394Y-69369179D01*
X83524709Y-69368417D01*
X83525044Y-69367611D01*
X83525044Y-69367610D01*
X83562074Y-69278210D01*
X83584737Y-69223497D01*
X83615500Y-69068842D01*
X83615500Y-68911158D01*
X83615500Y-68911155D01*
X83615499Y-68911153D01*
X83593269Y-68799397D01*
X83584737Y-68756503D01*
X83561126Y-68699500D01*
X83524397Y-68610827D01*
X83524390Y-68610814D01*
X83436789Y-68479711D01*
X83436786Y-68479707D01*
X83325292Y-68368213D01*
X83325288Y-68368210D01*
X83194185Y-68280609D01*
X83194172Y-68280602D01*
X83048501Y-68220264D01*
X83048489Y-68220261D01*
X82893845Y-68189500D01*
X82893842Y-68189500D01*
X82736158Y-68189500D01*
X82736155Y-68189500D01*
X82581510Y-68220261D01*
X82581498Y-68220264D01*
X82435827Y-68280602D01*
X82435814Y-68280609D01*
X82304711Y-68368210D01*
X82304707Y-68368213D01*
X82193213Y-68479707D01*
X82193210Y-68479711D01*
X82105609Y-68610814D01*
X82105602Y-68610827D01*
X82045264Y-68756498D01*
X82045261Y-68756510D01*
X82014500Y-68911153D01*
X78411562Y-68911153D01*
X78401334Y-68859737D01*
X78401217Y-68859149D01*
X78358698Y-68756498D01*
X78340877Y-68713473D01*
X78340870Y-68713460D01*
X78253269Y-68582357D01*
X78253266Y-68582353D01*
X78141772Y-68470859D01*
X78141768Y-68470856D01*
X78010665Y-68383255D01*
X78010652Y-68383248D01*
X77864981Y-68322910D01*
X77864969Y-68322907D01*
X77710325Y-68292146D01*
X77710322Y-68292146D01*
X77552638Y-68292146D01*
X77552635Y-68292146D01*
X77397990Y-68322907D01*
X77397978Y-68322910D01*
X77252307Y-68383248D01*
X77252294Y-68383255D01*
X77121191Y-68470856D01*
X77121187Y-68470859D01*
X77009693Y-68582353D01*
X77009690Y-68582357D01*
X76922089Y-68713460D01*
X76922082Y-68713473D01*
X76861744Y-68859144D01*
X76861741Y-68859156D01*
X76830980Y-69013799D01*
X47325386Y-69013799D01*
X47391966Y-68947219D01*
X47391968Y-68947215D01*
X47391971Y-68947213D01*
X47455956Y-68859144D01*
X47512287Y-68781610D01*
X47605220Y-68599219D01*
X47668477Y-68404534D01*
X47700500Y-68202352D01*
X47700500Y-67997648D01*
X47678146Y-67856510D01*
X47668477Y-67795465D01*
X47620297Y-67647183D01*
X47605220Y-67600781D01*
X47605218Y-67600778D01*
X47605218Y-67600776D01*
X47537672Y-67468211D01*
X47512287Y-67418390D01*
X47484834Y-67380604D01*
X47391971Y-67252786D01*
X47260338Y-67121153D01*
X54799500Y-67121153D01*
X54799500Y-67278846D01*
X54830261Y-67433489D01*
X54830264Y-67433501D01*
X54890602Y-67579172D01*
X54890609Y-67579185D01*
X54978210Y-67710288D01*
X54978213Y-67710292D01*
X55089707Y-67821786D01*
X55089711Y-67821789D01*
X55220814Y-67909390D01*
X55220827Y-67909397D01*
X55366498Y-67969735D01*
X55366503Y-67969737D01*
X55506820Y-67997648D01*
X55521153Y-68000499D01*
X55521156Y-68000500D01*
X55521158Y-68000500D01*
X55678844Y-68000500D01*
X55678845Y-68000499D01*
X55833497Y-67969737D01*
X55979179Y-67909394D01*
X56110289Y-67821789D01*
X56221789Y-67710289D01*
X56309394Y-67579179D01*
X56369737Y-67433497D01*
X56400500Y-67278842D01*
X56400500Y-67121158D01*
X56400500Y-67121155D01*
X56400499Y-67121153D01*
X56380391Y-67020063D01*
X56369737Y-66966503D01*
X56338170Y-66890292D01*
X56309397Y-66820827D01*
X56309390Y-66820814D01*
X56221789Y-66689711D01*
X56221786Y-66689707D01*
X56110292Y-66578213D01*
X56110288Y-66578210D01*
X55979185Y-66490609D01*
X55979172Y-66490602D01*
X55833501Y-66430264D01*
X55833489Y-66430261D01*
X55678845Y-66399500D01*
X55678842Y-66399500D01*
X55521158Y-66399500D01*
X55521155Y-66399500D01*
X55366510Y-66430261D01*
X55366498Y-66430264D01*
X55220827Y-66490602D01*
X55220814Y-66490609D01*
X55089711Y-66578210D01*
X55089707Y-66578213D01*
X54978213Y-66689707D01*
X54978210Y-66689711D01*
X54890609Y-66820814D01*
X54890602Y-66820827D01*
X54830264Y-66966498D01*
X54830261Y-66966510D01*
X54799500Y-67121153D01*
X47260338Y-67121153D01*
X47247213Y-67108028D01*
X47081613Y-66987715D01*
X47081612Y-66987714D01*
X47081610Y-66987713D01*
X47024653Y-66958691D01*
X46899223Y-66894781D01*
X46704534Y-66831522D01*
X46529995Y-66803878D01*
X46502352Y-66799500D01*
X46297648Y-66799500D01*
X46273329Y-66803351D01*
X46095465Y-66831522D01*
X45900776Y-66894781D01*
X45718386Y-66987715D01*
X45552786Y-67108028D01*
X45408028Y-67252786D01*
X45324318Y-67368006D01*
X45268989Y-67410672D01*
X45199375Y-67416651D01*
X45137580Y-67384046D01*
X45103223Y-67323207D01*
X45100000Y-67295121D01*
X45100000Y-64071577D01*
X50583777Y-64071577D01*
X50583777Y-64268422D01*
X50614567Y-64462826D01*
X50675394Y-64650029D01*
X50744781Y-64786207D01*
X50764753Y-64825405D01*
X50880449Y-64984646D01*
X51019631Y-65123828D01*
X51178872Y-65239524D01*
X51238165Y-65269735D01*
X51354247Y-65328882D01*
X51354249Y-65328882D01*
X51354252Y-65328884D01*
X51449127Y-65359711D01*
X51541450Y-65389709D01*
X51735855Y-65420500D01*
X51735860Y-65420500D01*
X51932699Y-65420500D01*
X52127103Y-65389709D01*
X52154479Y-65380814D01*
X52314302Y-65328884D01*
X52489682Y-65239524D01*
X52648923Y-65123828D01*
X52686218Y-65086533D01*
X57864880Y-65086533D01*
X57864880Y-65244226D01*
X57895641Y-65398869D01*
X57895644Y-65398881D01*
X57955982Y-65544552D01*
X57955989Y-65544565D01*
X58043590Y-65675668D01*
X58043593Y-65675672D01*
X58155087Y-65787166D01*
X58155091Y-65787169D01*
X58286194Y-65874770D01*
X58286207Y-65874777D01*
X58396092Y-65920292D01*
X58431883Y-65935117D01*
X58586533Y-65965879D01*
X58586536Y-65965880D01*
X58586538Y-65965880D01*
X58744224Y-65965880D01*
X58744225Y-65965879D01*
X58898877Y-65935117D01*
X59044559Y-65874774D01*
X59096040Y-65840375D01*
X59162715Y-65819498D01*
X59230096Y-65837982D01*
X59276786Y-65889960D01*
X59287963Y-65958930D01*
X59276526Y-65994907D01*
X59277214Y-65995192D01*
X59214541Y-66146498D01*
X59214538Y-66146510D01*
X59183777Y-66301153D01*
X59183777Y-66458846D01*
X59214538Y-66613489D01*
X59214541Y-66613501D01*
X59274879Y-66759172D01*
X59274886Y-66759185D01*
X59362487Y-66890288D01*
X59362490Y-66890292D01*
X59473984Y-67001786D01*
X59473988Y-67001789D01*
X59605091Y-67089390D01*
X59605100Y-67089395D01*
X59685047Y-67122510D01*
X59739450Y-67166351D01*
X59761515Y-67232645D01*
X59744236Y-67300344D01*
X59693099Y-67347955D01*
X59685047Y-67351632D01*
X59615100Y-67380604D01*
X59615091Y-67380609D01*
X59483988Y-67468210D01*
X59483984Y-67468213D01*
X59372490Y-67579707D01*
X59372487Y-67579711D01*
X59284886Y-67710814D01*
X59284879Y-67710827D01*
X59224541Y-67856498D01*
X59224538Y-67856510D01*
X59193777Y-68011153D01*
X59193777Y-68168846D01*
X59224538Y-68323489D01*
X59224541Y-68323501D01*
X59284879Y-68469172D01*
X59284886Y-68469185D01*
X59372487Y-68600288D01*
X59372490Y-68600292D01*
X59483984Y-68711786D01*
X59483988Y-68711789D01*
X59615091Y-68799390D01*
X59615104Y-68799397D01*
X59707913Y-68837839D01*
X59760780Y-68859737D01*
X59915430Y-68890499D01*
X59915433Y-68890500D01*
X59915435Y-68890500D01*
X60073121Y-68890500D01*
X60073122Y-68890499D01*
X60227774Y-68859737D01*
X60373456Y-68799394D01*
X60504566Y-68711789D01*
X60616066Y-68600289D01*
X60703671Y-68469179D01*
X60764014Y-68323497D01*
X60794777Y-68168842D01*
X60794777Y-68011158D01*
X60794777Y-68011155D01*
X60794776Y-68011153D01*
X60774535Y-67909397D01*
X60764014Y-67856503D01*
X60752927Y-67829737D01*
X60725085Y-67762518D01*
X60707951Y-67721153D01*
X69199500Y-67721153D01*
X69199500Y-67878846D01*
X69230261Y-68033489D01*
X69230264Y-68033501D01*
X69290602Y-68179172D01*
X69290609Y-68179185D01*
X69378210Y-68310288D01*
X69378213Y-68310292D01*
X69489707Y-68421786D01*
X69489711Y-68421789D01*
X69620814Y-68509390D01*
X69620827Y-68509397D01*
X69766498Y-68569735D01*
X69766503Y-68569737D01*
X69914718Y-68599219D01*
X69921153Y-68600499D01*
X69921156Y-68600500D01*
X69921158Y-68600500D01*
X70078844Y-68600500D01*
X70078845Y-68600499D01*
X70233497Y-68569737D01*
X70379179Y-68509394D01*
X70510289Y-68421789D01*
X70621789Y-68310289D01*
X70709394Y-68179179D01*
X70769737Y-68033497D01*
X70800500Y-67878842D01*
X70800500Y-67721158D01*
X70800500Y-67721155D01*
X70800499Y-67721153D01*
X70792668Y-67681786D01*
X70769737Y-67566503D01*
X70742814Y-67501505D01*
X70709397Y-67420827D01*
X70709390Y-67420814D01*
X70621789Y-67289711D01*
X70621786Y-67289707D01*
X70521236Y-67189157D01*
X75557609Y-67189157D01*
X75557609Y-67346850D01*
X75588370Y-67501493D01*
X75588373Y-67501505D01*
X75648711Y-67647176D01*
X75648718Y-67647189D01*
X75736319Y-67778292D01*
X75736322Y-67778296D01*
X75847816Y-67889790D01*
X75847820Y-67889793D01*
X75978923Y-67977394D01*
X75978936Y-67977401D01*
X76124607Y-68037739D01*
X76124612Y-68037741D01*
X76279262Y-68068503D01*
X76279265Y-68068504D01*
X76279267Y-68068504D01*
X76436953Y-68068504D01*
X76436954Y-68068503D01*
X76591606Y-68037741D01*
X76737288Y-67977398D01*
X76868398Y-67889793D01*
X76979898Y-67778293D01*
X77067503Y-67647183D01*
X77127846Y-67501501D01*
X77158609Y-67346846D01*
X77158609Y-67189162D01*
X77158609Y-67189159D01*
X77158608Y-67189157D01*
X77144497Y-67118217D01*
X77127846Y-67034507D01*
X77108464Y-66987715D01*
X77067506Y-66888831D01*
X77067499Y-66888818D01*
X76979898Y-66757715D01*
X76979895Y-66757711D01*
X76868401Y-66646217D01*
X76868397Y-66646214D01*
X76737294Y-66558613D01*
X76737281Y-66558606D01*
X76591610Y-66498268D01*
X76591598Y-66498265D01*
X76436954Y-66467504D01*
X76436951Y-66467504D01*
X76279267Y-66467504D01*
X76279264Y-66467504D01*
X76124619Y-66498265D01*
X76124607Y-66498268D01*
X75978936Y-66558606D01*
X75978923Y-66558613D01*
X75847820Y-66646214D01*
X75847816Y-66646217D01*
X75736322Y-66757711D01*
X75736319Y-66757715D01*
X75648718Y-66888818D01*
X75648711Y-66888831D01*
X75588373Y-67034502D01*
X75588370Y-67034514D01*
X75557609Y-67189157D01*
X70521236Y-67189157D01*
X70510292Y-67178213D01*
X70510288Y-67178210D01*
X70379185Y-67090609D01*
X70379172Y-67090602D01*
X70233501Y-67030264D01*
X70233489Y-67030261D01*
X70078845Y-66999500D01*
X70078842Y-66999500D01*
X69921158Y-66999500D01*
X69921155Y-66999500D01*
X69766510Y-67030261D01*
X69766498Y-67030264D01*
X69620827Y-67090602D01*
X69620814Y-67090609D01*
X69489711Y-67178210D01*
X69489707Y-67178213D01*
X69378213Y-67289707D01*
X69378210Y-67289711D01*
X69290609Y-67420814D01*
X69290602Y-67420827D01*
X69230264Y-67566498D01*
X69230261Y-67566510D01*
X69199500Y-67721153D01*
X60707951Y-67721153D01*
X60703674Y-67710827D01*
X60703667Y-67710814D01*
X60616066Y-67579711D01*
X60616063Y-67579707D01*
X60504569Y-67468213D01*
X60504565Y-67468210D01*
X60373462Y-67380609D01*
X60373452Y-67380604D01*
X60293506Y-67347489D01*
X60239103Y-67303648D01*
X60217038Y-67237353D01*
X60234318Y-67169654D01*
X60285455Y-67122044D01*
X60293480Y-67118378D01*
X60363456Y-67089394D01*
X60494566Y-67001789D01*
X60606066Y-66890289D01*
X60693671Y-66759179D01*
X60694278Y-66757715D01*
X60754012Y-66613501D01*
X60754014Y-66613497D01*
X60784777Y-66458842D01*
X60784777Y-66301158D01*
X60784777Y-66301155D01*
X60784776Y-66301153D01*
X62399500Y-66301153D01*
X62399500Y-66458846D01*
X62430261Y-66613489D01*
X62430264Y-66613501D01*
X62490602Y-66759172D01*
X62490609Y-66759185D01*
X62578210Y-66890288D01*
X62578213Y-66890292D01*
X62689707Y-67001786D01*
X62689711Y-67001789D01*
X62820814Y-67089390D01*
X62820827Y-67089397D01*
X62966498Y-67149735D01*
X62966503Y-67149737D01*
X63109661Y-67178213D01*
X63121153Y-67180499D01*
X63121156Y-67180500D01*
X63121158Y-67180500D01*
X63278844Y-67180500D01*
X63278845Y-67180499D01*
X63433497Y-67149737D01*
X63579179Y-67089394D01*
X63710289Y-67001789D01*
X63821789Y-66890289D01*
X63909394Y-66759179D01*
X63910001Y-66757715D01*
X63969735Y-66613501D01*
X63969737Y-66613497D01*
X64000500Y-66458842D01*
X64000500Y-66301158D01*
X64000500Y-66301155D01*
X63999903Y-66295093D01*
X64002454Y-66294841D01*
X64007672Y-66236392D01*
X64050522Y-66181205D01*
X64116407Y-66157945D01*
X64170524Y-66167205D01*
X64200775Y-66179735D01*
X64200780Y-66179737D01*
X64355430Y-66210499D01*
X64355433Y-66210500D01*
X64355435Y-66210500D01*
X64513121Y-66210500D01*
X64513122Y-66210499D01*
X64667774Y-66179737D01*
X64813456Y-66119394D01*
X64944566Y-66031789D01*
X65056066Y-65920289D01*
X65143671Y-65789179D01*
X65188416Y-65681153D01*
X77064500Y-65681153D01*
X77064500Y-65838846D01*
X77095261Y-65993489D01*
X77095264Y-65993501D01*
X77155602Y-66139172D01*
X77155609Y-66139185D01*
X77243210Y-66270288D01*
X77243213Y-66270292D01*
X77354707Y-66381786D01*
X77354711Y-66381789D01*
X77485814Y-66469390D01*
X77485827Y-66469397D01*
X77631498Y-66529735D01*
X77631503Y-66529737D01*
X77786153Y-66560499D01*
X77786156Y-66560500D01*
X77786158Y-66560500D01*
X77943844Y-66560500D01*
X77943845Y-66560499D01*
X78098497Y-66529737D01*
X78244179Y-66469394D01*
X78375289Y-66381789D01*
X78486789Y-66270289D01*
X78574394Y-66139179D01*
X78634737Y-65993497D01*
X78665500Y-65838842D01*
X78665500Y-65681158D01*
X78665500Y-65681155D01*
X78665499Y-65681153D01*
X78663400Y-65670602D01*
X78634737Y-65526503D01*
X78619138Y-65488844D01*
X78574397Y-65380827D01*
X78574390Y-65380814D01*
X78486789Y-65249711D01*
X78486786Y-65249707D01*
X78375292Y-65138213D01*
X78375288Y-65138210D01*
X78244185Y-65050609D01*
X78244172Y-65050602D01*
X78098501Y-64990264D01*
X78098489Y-64990261D01*
X77943845Y-64959500D01*
X77943842Y-64959500D01*
X77786158Y-64959500D01*
X77786155Y-64959500D01*
X77631510Y-64990261D01*
X77631498Y-64990264D01*
X77485827Y-65050602D01*
X77485814Y-65050609D01*
X77354711Y-65138210D01*
X77354707Y-65138213D01*
X77243213Y-65249707D01*
X77243210Y-65249711D01*
X77155609Y-65380814D01*
X77155602Y-65380827D01*
X77095264Y-65526498D01*
X77095261Y-65526510D01*
X77064500Y-65681153D01*
X65188416Y-65681153D01*
X65204014Y-65643497D01*
X65234777Y-65488842D01*
X65234777Y-65331158D01*
X65234777Y-65331155D01*
X65234776Y-65331153D01*
X65228679Y-65300500D01*
X65204014Y-65176503D01*
X65188153Y-65138210D01*
X65143674Y-65030827D01*
X65143667Y-65030814D01*
X65056066Y-64899711D01*
X65056063Y-64899707D01*
X64944569Y-64788213D01*
X64944565Y-64788210D01*
X64813462Y-64700609D01*
X64813452Y-64700604D01*
X64782323Y-64687710D01*
X64727920Y-64643869D01*
X64708158Y-64597339D01*
X64704014Y-64576503D01*
X64654093Y-64455982D01*
X64643674Y-64430827D01*
X64643667Y-64430814D01*
X64556066Y-64299711D01*
X64556063Y-64299707D01*
X64444569Y-64188213D01*
X64444565Y-64188210D01*
X64404072Y-64161153D01*
X78494500Y-64161153D01*
X78494500Y-64318846D01*
X78525261Y-64473489D01*
X78525264Y-64473501D01*
X78585602Y-64619172D01*
X78585609Y-64619185D01*
X78673210Y-64750288D01*
X78673213Y-64750292D01*
X78784707Y-64861786D01*
X78784711Y-64861789D01*
X78915814Y-64949390D01*
X78915827Y-64949397D01*
X79061498Y-65009735D01*
X79061503Y-65009737D01*
X79216153Y-65040499D01*
X79216156Y-65040500D01*
X79216158Y-65040500D01*
X79373844Y-65040500D01*
X79373845Y-65040499D01*
X79528497Y-65009737D01*
X79662108Y-64954394D01*
X79674172Y-64949397D01*
X79674172Y-64949396D01*
X79674179Y-64949394D01*
X79805289Y-64861789D01*
X79916789Y-64750289D01*
X80004394Y-64619179D01*
X80064737Y-64473497D01*
X80095500Y-64318842D01*
X80095500Y-64161158D01*
X80095500Y-64161155D01*
X80095499Y-64161153D01*
X80083455Y-64100606D01*
X80064737Y-64006503D01*
X80011598Y-63878213D01*
X80004397Y-63860827D01*
X80004390Y-63860814D01*
X79916789Y-63729711D01*
X79916786Y-63729707D01*
X79805292Y-63618213D01*
X79805288Y-63618210D01*
X79674185Y-63530609D01*
X79674172Y-63530602D01*
X79528501Y-63470264D01*
X79528489Y-63470261D01*
X79373845Y-63439500D01*
X79373842Y-63439500D01*
X79216158Y-63439500D01*
X79216155Y-63439500D01*
X79061510Y-63470261D01*
X79061498Y-63470264D01*
X78915827Y-63530602D01*
X78915814Y-63530609D01*
X78784711Y-63618210D01*
X78784707Y-63618213D01*
X78673213Y-63729707D01*
X78673210Y-63729711D01*
X78585609Y-63860814D01*
X78585602Y-63860827D01*
X78525264Y-64006498D01*
X78525261Y-64006510D01*
X78494500Y-64161153D01*
X64404072Y-64161153D01*
X64313462Y-64100609D01*
X64313449Y-64100602D01*
X64167778Y-64040264D01*
X64167766Y-64040261D01*
X64013122Y-64009500D01*
X64013119Y-64009500D01*
X63855435Y-64009500D01*
X63855432Y-64009500D01*
X63700787Y-64040261D01*
X63700775Y-64040264D01*
X63555104Y-64100602D01*
X63555091Y-64100609D01*
X63423988Y-64188210D01*
X63423984Y-64188213D01*
X63312490Y-64299707D01*
X63312487Y-64299711D01*
X63224886Y-64430814D01*
X63224879Y-64430827D01*
X63164541Y-64576498D01*
X63164538Y-64576510D01*
X63133777Y-64731153D01*
X63133777Y-64888846D01*
X63164538Y-65043489D01*
X63164541Y-65043501D01*
X63224879Y-65189172D01*
X63224886Y-65189185D01*
X63312487Y-65320288D01*
X63312490Y-65320292D01*
X63360017Y-65367819D01*
X63393502Y-65429142D01*
X63388518Y-65498834D01*
X63346646Y-65554767D01*
X63281182Y-65579184D01*
X63272336Y-65579500D01*
X63121155Y-65579500D01*
X62966510Y-65610261D01*
X62966498Y-65610264D01*
X62820827Y-65670602D01*
X62820814Y-65670609D01*
X62689711Y-65758210D01*
X62689707Y-65758213D01*
X62578213Y-65869707D01*
X62578210Y-65869711D01*
X62490609Y-66000814D01*
X62490602Y-66000827D01*
X62430264Y-66146498D01*
X62430261Y-66146510D01*
X62399500Y-66301153D01*
X60784776Y-66301153D01*
X60778637Y-66270289D01*
X60754014Y-66146503D01*
X60750980Y-66139179D01*
X60693674Y-66000827D01*
X60693667Y-66000814D01*
X60606066Y-65869711D01*
X60606063Y-65869707D01*
X60494569Y-65758213D01*
X60494565Y-65758210D01*
X60363462Y-65670609D01*
X60363449Y-65670602D01*
X60217778Y-65610264D01*
X60217766Y-65610261D01*
X60063122Y-65579500D01*
X60063119Y-65579500D01*
X59905435Y-65579500D01*
X59905432Y-65579500D01*
X59750787Y-65610261D01*
X59750775Y-65610264D01*
X59605104Y-65670602D01*
X59605093Y-65670608D01*
X59553616Y-65705004D01*
X59486938Y-65725881D01*
X59419558Y-65707396D01*
X59372868Y-65655416D01*
X59361693Y-65586446D01*
X59373135Y-65550474D01*
X59372443Y-65550188D01*
X59412077Y-65454500D01*
X59435117Y-65398877D01*
X59465880Y-65244222D01*
X59465880Y-65086538D01*
X59465880Y-65086535D01*
X59465879Y-65086533D01*
X59457319Y-65043501D01*
X59435117Y-64931883D01*
X59421791Y-64899711D01*
X59374777Y-64786207D01*
X59374770Y-64786194D01*
X59287169Y-64655091D01*
X59287166Y-64655087D01*
X59175672Y-64543593D01*
X59175664Y-64543587D01*
X59137671Y-64518201D01*
X59137621Y-64518168D01*
X59044565Y-64455989D01*
X59044552Y-64455982D01*
X58960466Y-64421153D01*
X60699500Y-64421153D01*
X60699500Y-64578846D01*
X60730261Y-64733489D01*
X60730264Y-64733501D01*
X60790602Y-64879172D01*
X60790609Y-64879185D01*
X60878210Y-65010288D01*
X60878213Y-65010292D01*
X60989707Y-65121786D01*
X60989711Y-65121789D01*
X61120814Y-65209390D01*
X61120827Y-65209397D01*
X61266498Y-65269735D01*
X61266503Y-65269737D01*
X61421153Y-65300499D01*
X61421156Y-65300500D01*
X61421158Y-65300500D01*
X61578844Y-65300500D01*
X61578845Y-65300499D01*
X61733497Y-65269737D01*
X61879179Y-65209394D01*
X62010289Y-65121789D01*
X62121789Y-65010289D01*
X62209394Y-64879179D01*
X62269737Y-64733497D01*
X62300500Y-64578842D01*
X62300500Y-64421158D01*
X62300500Y-64421155D01*
X62300499Y-64421153D01*
X62295424Y-64395641D01*
X62269737Y-64266503D01*
X62269735Y-64266498D01*
X62209397Y-64120827D01*
X62209390Y-64120814D01*
X62121789Y-63989711D01*
X62121786Y-63989707D01*
X62010292Y-63878213D01*
X62010288Y-63878210D01*
X61879185Y-63790609D01*
X61879172Y-63790602D01*
X61733501Y-63730264D01*
X61733489Y-63730261D01*
X61578845Y-63699500D01*
X61578842Y-63699500D01*
X61421158Y-63699500D01*
X61421155Y-63699500D01*
X61266510Y-63730261D01*
X61266498Y-63730264D01*
X61120827Y-63790602D01*
X61120814Y-63790609D01*
X60989711Y-63878210D01*
X60989707Y-63878213D01*
X60878213Y-63989707D01*
X60878210Y-63989711D01*
X60790609Y-64120814D01*
X60790602Y-64120827D01*
X60730264Y-64266498D01*
X60730261Y-64266510D01*
X60699500Y-64421153D01*
X58960466Y-64421153D01*
X58898881Y-64395644D01*
X58898869Y-64395641D01*
X58744225Y-64364880D01*
X58744222Y-64364880D01*
X58586538Y-64364880D01*
X58586535Y-64364880D01*
X58431890Y-64395641D01*
X58431878Y-64395644D01*
X58286207Y-64455982D01*
X58286194Y-64455989D01*
X58155091Y-64543590D01*
X58155087Y-64543593D01*
X58043593Y-64655087D01*
X58043590Y-64655091D01*
X57955989Y-64786194D01*
X57955982Y-64786207D01*
X57895644Y-64931878D01*
X57895641Y-64931890D01*
X57864880Y-65086533D01*
X52686218Y-65086533D01*
X52788105Y-64984646D01*
X52903801Y-64825405D01*
X52993161Y-64650025D01*
X53053986Y-64462826D01*
X53059056Y-64430814D01*
X53084777Y-64268422D01*
X53084777Y-64166153D01*
X54633777Y-64166153D01*
X54633777Y-64323846D01*
X54664538Y-64478489D01*
X54664541Y-64478501D01*
X54724879Y-64624172D01*
X54724886Y-64624185D01*
X54812487Y-64755288D01*
X54812490Y-64755292D01*
X54923984Y-64866786D01*
X54923988Y-64866789D01*
X55055091Y-64954390D01*
X55055104Y-64954397D01*
X55200775Y-65014735D01*
X55200780Y-65014737D01*
X55355430Y-65045499D01*
X55355433Y-65045500D01*
X55355435Y-65045500D01*
X55513121Y-65045500D01*
X55513122Y-65045499D01*
X55667774Y-65014737D01*
X55723039Y-64991845D01*
X55785715Y-64965885D01*
X55813450Y-64954397D01*
X55813453Y-64954395D01*
X55813456Y-64954394D01*
X55944566Y-64866789D01*
X56056066Y-64755289D01*
X56143671Y-64624179D01*
X56204014Y-64478497D01*
X56234777Y-64323842D01*
X56234777Y-64166158D01*
X56234777Y-64166155D01*
X56234776Y-64166153D01*
X56221737Y-64100602D01*
X56204014Y-64011503D01*
X56148804Y-63878213D01*
X56143674Y-63865827D01*
X56143667Y-63865814D01*
X56056066Y-63734711D01*
X56056063Y-63734707D01*
X55944569Y-63623213D01*
X55944565Y-63623210D01*
X55813462Y-63535609D01*
X55813449Y-63535602D01*
X55667778Y-63475264D01*
X55667766Y-63475261D01*
X55513122Y-63444500D01*
X55513119Y-63444500D01*
X55355435Y-63444500D01*
X55355432Y-63444500D01*
X55200787Y-63475261D01*
X55200775Y-63475264D01*
X55055104Y-63535602D01*
X55055091Y-63535609D01*
X54923988Y-63623210D01*
X54923984Y-63623213D01*
X54812490Y-63734707D01*
X54812487Y-63734711D01*
X54724886Y-63865814D01*
X54724879Y-63865827D01*
X54664541Y-64011498D01*
X54664538Y-64011510D01*
X54633777Y-64166153D01*
X53084777Y-64166153D01*
X53084777Y-64071577D01*
X53053986Y-63877173D01*
X53018726Y-63768656D01*
X52993161Y-63689975D01*
X52993159Y-63689972D01*
X52993159Y-63689970D01*
X52914508Y-63535609D01*
X52903801Y-63514595D01*
X52788105Y-63355354D01*
X52648923Y-63216172D01*
X52489682Y-63100476D01*
X52489313Y-63100288D01*
X52314306Y-63011117D01*
X52127103Y-62950290D01*
X51932699Y-62919500D01*
X51932694Y-62919500D01*
X51735860Y-62919500D01*
X51735855Y-62919500D01*
X51541450Y-62950290D01*
X51354247Y-63011117D01*
X51178871Y-63100476D01*
X51149541Y-63121786D01*
X51019631Y-63216172D01*
X51019629Y-63216174D01*
X51019628Y-63216174D01*
X50880451Y-63355351D01*
X50880451Y-63355352D01*
X50880449Y-63355354D01*
X50877265Y-63359737D01*
X50764753Y-63514594D01*
X50675394Y-63689970D01*
X50614567Y-63877173D01*
X50583777Y-64071577D01*
X45100000Y-64071577D01*
X45100000Y-62542473D01*
X45119685Y-62475434D01*
X45172489Y-62429679D01*
X45241647Y-62419735D01*
X45296883Y-62442154D01*
X45383904Y-62505378D01*
X45456707Y-62542473D01*
X45548764Y-62589379D01*
X45548767Y-62589380D01*
X45636750Y-62617967D01*
X45724736Y-62646555D01*
X45907486Y-62675500D01*
X45907487Y-62675500D01*
X46092513Y-62675500D01*
X46092514Y-62675500D01*
X46275264Y-62646555D01*
X46451235Y-62589379D01*
X46616096Y-62505378D01*
X46732022Y-62421153D01*
X63299500Y-62421153D01*
X63299500Y-62578846D01*
X63330261Y-62733489D01*
X63330264Y-62733501D01*
X63390602Y-62879172D01*
X63390609Y-62879185D01*
X63478210Y-63010288D01*
X63478213Y-63010292D01*
X63589707Y-63121786D01*
X63589711Y-63121789D01*
X63720814Y-63209390D01*
X63720827Y-63209397D01*
X63866498Y-63269735D01*
X63866503Y-63269737D01*
X64015578Y-63299390D01*
X64021153Y-63300499D01*
X64021156Y-63300500D01*
X64021158Y-63300500D01*
X64178844Y-63300500D01*
X64178845Y-63300499D01*
X64333497Y-63269737D01*
X64479179Y-63209394D01*
X64610289Y-63121789D01*
X64721789Y-63010289D01*
X64809394Y-62879179D01*
X64869737Y-62733497D01*
X64900500Y-62578842D01*
X64900500Y-62511153D01*
X76599500Y-62511153D01*
X76599500Y-62668846D01*
X76630261Y-62823489D01*
X76630264Y-62823501D01*
X76690602Y-62969172D01*
X76690609Y-62969185D01*
X76778210Y-63100288D01*
X76778213Y-63100292D01*
X76889707Y-63211786D01*
X76889711Y-63211789D01*
X77020814Y-63299390D01*
X77020827Y-63299397D01*
X77155921Y-63355354D01*
X77166503Y-63359737D01*
X77321153Y-63390499D01*
X77321156Y-63390500D01*
X77321158Y-63390500D01*
X77478844Y-63390500D01*
X77478845Y-63390499D01*
X77633497Y-63359737D01*
X77779179Y-63299394D01*
X77910289Y-63211789D01*
X78021789Y-63100289D01*
X78109394Y-62969179D01*
X78169737Y-62823497D01*
X78200500Y-62668842D01*
X78200500Y-62511158D01*
X78200500Y-62511155D01*
X78200499Y-62511153D01*
X78182597Y-62421153D01*
X78169737Y-62356503D01*
X78132456Y-62266498D01*
X78109397Y-62210827D01*
X78109390Y-62210814D01*
X78021789Y-62079711D01*
X78021786Y-62079707D01*
X77910292Y-61968213D01*
X77910288Y-61968210D01*
X77779185Y-61880609D01*
X77779172Y-61880602D01*
X77633501Y-61820264D01*
X77633489Y-61820261D01*
X77478845Y-61789500D01*
X77478842Y-61789500D01*
X77321158Y-61789500D01*
X77321155Y-61789500D01*
X77166510Y-61820261D01*
X77166498Y-61820264D01*
X77020827Y-61880602D01*
X77020814Y-61880609D01*
X76889711Y-61968210D01*
X76889707Y-61968213D01*
X76778213Y-62079707D01*
X76778210Y-62079711D01*
X76690609Y-62210814D01*
X76690602Y-62210827D01*
X76630264Y-62356498D01*
X76630261Y-62356510D01*
X76599500Y-62511153D01*
X64900500Y-62511153D01*
X64900500Y-62421158D01*
X64900500Y-62421155D01*
X64900499Y-62421153D01*
X64888036Y-62358497D01*
X64869737Y-62266503D01*
X64869440Y-62265787D01*
X64809397Y-62120827D01*
X64809390Y-62120814D01*
X64721789Y-61989711D01*
X64721786Y-61989707D01*
X64610292Y-61878213D01*
X64610288Y-61878210D01*
X64479185Y-61790609D01*
X64479172Y-61790602D01*
X64333501Y-61730264D01*
X64333489Y-61730261D01*
X64178845Y-61699500D01*
X64178842Y-61699500D01*
X64021158Y-61699500D01*
X64021155Y-61699500D01*
X63866510Y-61730261D01*
X63866498Y-61730264D01*
X63720827Y-61790602D01*
X63720814Y-61790609D01*
X63589711Y-61878210D01*
X63589707Y-61878213D01*
X63478213Y-61989707D01*
X63478210Y-61989711D01*
X63390609Y-62120814D01*
X63390602Y-62120827D01*
X63330264Y-62266498D01*
X63330261Y-62266510D01*
X63299500Y-62421153D01*
X46732022Y-62421153D01*
X46765787Y-62396621D01*
X46896621Y-62265787D01*
X47005378Y-62116096D01*
X47089379Y-61951235D01*
X47146555Y-61775264D01*
X47175500Y-61592514D01*
X47175500Y-61407486D01*
X47146555Y-61224736D01*
X47109438Y-61110500D01*
X47089380Y-61048767D01*
X47089379Y-61048764D01*
X47038665Y-60949233D01*
X47005378Y-60883904D01*
X46921453Y-60768391D01*
X46904599Y-60721153D01*
X69364500Y-60721153D01*
X69364500Y-60878846D01*
X69395261Y-61033489D01*
X69395264Y-61033501D01*
X69455602Y-61179172D01*
X69455609Y-61179185D01*
X69543210Y-61310288D01*
X69543213Y-61310292D01*
X69654707Y-61421786D01*
X69654711Y-61421789D01*
X69785814Y-61509390D01*
X69785827Y-61509397D01*
X69931498Y-61569735D01*
X69931503Y-61569737D01*
X70046005Y-61592513D01*
X70086153Y-61600499D01*
X70086156Y-61600500D01*
X70086158Y-61600500D01*
X70243844Y-61600500D01*
X70243845Y-61600499D01*
X70398497Y-61569737D01*
X70544179Y-61509394D01*
X70675289Y-61421789D01*
X70786789Y-61310289D01*
X70874394Y-61179179D01*
X70874399Y-61179166D01*
X70876065Y-61176052D01*
X70877373Y-61174719D01*
X70877779Y-61174113D01*
X70877894Y-61174189D01*
X70925025Y-61126205D01*
X70985426Y-61110500D01*
X71093844Y-61110500D01*
X71093845Y-61110499D01*
X71248497Y-61079737D01*
X71394179Y-61019394D01*
X71525289Y-60931789D01*
X71636789Y-60820289D01*
X71724394Y-60689179D01*
X71784737Y-60543497D01*
X71815500Y-60388842D01*
X71815500Y-60231158D01*
X71815500Y-60231155D01*
X71815499Y-60231153D01*
X71811171Y-60209394D01*
X71784737Y-60076503D01*
X71784735Y-60076498D01*
X71724397Y-59930827D01*
X71724390Y-59930814D01*
X71636789Y-59799711D01*
X71636786Y-59799707D01*
X71525292Y-59688213D01*
X71525288Y-59688210D01*
X71440081Y-59631276D01*
X71395276Y-59577664D01*
X71386569Y-59508339D01*
X71405870Y-59459283D01*
X71459394Y-59379179D01*
X71519737Y-59233497D01*
X71550500Y-59078842D01*
X71550500Y-58921158D01*
X71545612Y-58896587D01*
X71544531Y-58891153D01*
X74299500Y-58891153D01*
X74299500Y-59048846D01*
X74330261Y-59203489D01*
X74330264Y-59203501D01*
X74390602Y-59349172D01*
X74390609Y-59349185D01*
X74478210Y-59480288D01*
X74478213Y-59480292D01*
X74589707Y-59591786D01*
X74589711Y-59591789D01*
X74720814Y-59679390D01*
X74720827Y-59679397D01*
X74848633Y-59732335D01*
X74866503Y-59739737D01*
X75021153Y-59770499D01*
X75021156Y-59770500D01*
X75021158Y-59770500D01*
X75178844Y-59770500D01*
X75178845Y-59770499D01*
X75333497Y-59739737D01*
X75479179Y-59679394D01*
X75610289Y-59591789D01*
X75721789Y-59480289D01*
X75809394Y-59349179D01*
X75869737Y-59203497D01*
X75900500Y-59048842D01*
X75900500Y-58891158D01*
X75900500Y-58891155D01*
X75900499Y-58891153D01*
X75893352Y-58855222D01*
X75869737Y-58736503D01*
X75861873Y-58717517D01*
X75809397Y-58590827D01*
X75809390Y-58590814D01*
X75721789Y-58459711D01*
X75721786Y-58459707D01*
X75610292Y-58348213D01*
X75610288Y-58348210D01*
X75479185Y-58260609D01*
X75479172Y-58260602D01*
X75333501Y-58200264D01*
X75333489Y-58200261D01*
X75178845Y-58169500D01*
X75178842Y-58169500D01*
X75021158Y-58169500D01*
X75021155Y-58169500D01*
X74866510Y-58200261D01*
X74866498Y-58200264D01*
X74720827Y-58260602D01*
X74720814Y-58260609D01*
X74589711Y-58348210D01*
X74589707Y-58348213D01*
X74478213Y-58459707D01*
X74478210Y-58459711D01*
X74390609Y-58590814D01*
X74390602Y-58590827D01*
X74330264Y-58736498D01*
X74330261Y-58736510D01*
X74299500Y-58891153D01*
X71544531Y-58891153D01*
X71530326Y-58819737D01*
X71519737Y-58766503D01*
X71507309Y-58736498D01*
X71459397Y-58620827D01*
X71459389Y-58620812D01*
X71430319Y-58577307D01*
X71409440Y-58510630D01*
X71427924Y-58443249D01*
X71464527Y-58405314D01*
X71574566Y-58331789D01*
X71622866Y-58283489D01*
X71686065Y-58220291D01*
X71686066Y-58220289D01*
X71773671Y-58089179D01*
X71822559Y-57971153D01*
X78099500Y-57971153D01*
X78099500Y-58128846D01*
X78130261Y-58283489D01*
X78130264Y-58283501D01*
X78190602Y-58429172D01*
X78190609Y-58429185D01*
X78278210Y-58560288D01*
X78278213Y-58560292D01*
X78389707Y-58671786D01*
X78389711Y-58671789D01*
X78520814Y-58759390D01*
X78520827Y-58759397D01*
X78657063Y-58815827D01*
X78666503Y-58819737D01*
X78821153Y-58850499D01*
X78821156Y-58850500D01*
X78821158Y-58850500D01*
X78978844Y-58850500D01*
X78978845Y-58850499D01*
X79133497Y-58819737D01*
X79279179Y-58759394D01*
X79410289Y-58671789D01*
X79521789Y-58560289D01*
X79609394Y-58429179D01*
X79669737Y-58283497D01*
X79700500Y-58128842D01*
X79700500Y-57971158D01*
X79700500Y-57971155D01*
X79700499Y-57971153D01*
X79680543Y-57870827D01*
X79669737Y-57816503D01*
X79658281Y-57788846D01*
X79609397Y-57670827D01*
X79609390Y-57670814D01*
X79521789Y-57539711D01*
X79521786Y-57539707D01*
X79410292Y-57428213D01*
X79410288Y-57428210D01*
X79279185Y-57340609D01*
X79279172Y-57340602D01*
X79133501Y-57280264D01*
X79133489Y-57280261D01*
X78978845Y-57249500D01*
X78978842Y-57249500D01*
X78821158Y-57249500D01*
X78821155Y-57249500D01*
X78666510Y-57280261D01*
X78666498Y-57280264D01*
X78520827Y-57340602D01*
X78520814Y-57340609D01*
X78389711Y-57428210D01*
X78389707Y-57428213D01*
X78278213Y-57539707D01*
X78278210Y-57539711D01*
X78190609Y-57670814D01*
X78190602Y-57670827D01*
X78130264Y-57816498D01*
X78130261Y-57816510D01*
X78099500Y-57971153D01*
X71822559Y-57971153D01*
X71834014Y-57943497D01*
X71848472Y-57870814D01*
X71864777Y-57788844D01*
X71864777Y-57631155D01*
X71864776Y-57631153D01*
X71864191Y-57628210D01*
X71834014Y-57476503D01*
X71800899Y-57396555D01*
X71773674Y-57330827D01*
X71773667Y-57330814D01*
X71686066Y-57199711D01*
X71686063Y-57199707D01*
X71574569Y-57088213D01*
X71574565Y-57088210D01*
X71443462Y-57000609D01*
X71443452Y-57000604D01*
X71380770Y-56974640D01*
X71326366Y-56930798D01*
X71304302Y-56864504D01*
X71321582Y-56796805D01*
X71372719Y-56749195D01*
X71392236Y-56741416D01*
X71397762Y-56739739D01*
X71397774Y-56739737D01*
X71543456Y-56679394D01*
X71674566Y-56591789D01*
X71786066Y-56480289D01*
X71873671Y-56349179D01*
X71934014Y-56203497D01*
X71964777Y-56048842D01*
X71964777Y-55891158D01*
X71964777Y-55891155D01*
X71964776Y-55891153D01*
X71946399Y-55798765D01*
X71934014Y-55736503D01*
X71931644Y-55730781D01*
X71873674Y-55590827D01*
X71873667Y-55590814D01*
X71786066Y-55459711D01*
X71786063Y-55459707D01*
X71674569Y-55348213D01*
X71674565Y-55348210D01*
X71543462Y-55260609D01*
X71543449Y-55260602D01*
X71397778Y-55200264D01*
X71397766Y-55200261D01*
X71243122Y-55169500D01*
X71243119Y-55169500D01*
X71085435Y-55169500D01*
X71085432Y-55169500D01*
X70930787Y-55200261D01*
X70930775Y-55200264D01*
X70785104Y-55260602D01*
X70785091Y-55260609D01*
X70653988Y-55348210D01*
X70653984Y-55348213D01*
X70542490Y-55459707D01*
X70542487Y-55459711D01*
X70454886Y-55590814D01*
X70454879Y-55590827D01*
X70394541Y-55736498D01*
X70394538Y-55736510D01*
X70363777Y-55891153D01*
X70363777Y-56048846D01*
X70394538Y-56203489D01*
X70394541Y-56203501D01*
X70454879Y-56349172D01*
X70454886Y-56349185D01*
X70542487Y-56480288D01*
X70542490Y-56480292D01*
X70653984Y-56591786D01*
X70653988Y-56591789D01*
X70785091Y-56679390D01*
X70785100Y-56679395D01*
X70847783Y-56705359D01*
X70902186Y-56749200D01*
X70924251Y-56815494D01*
X70906972Y-56883193D01*
X70855835Y-56930804D01*
X70836329Y-56938579D01*
X70830782Y-56940261D01*
X70685104Y-57000602D01*
X70685091Y-57000609D01*
X70553988Y-57088210D01*
X70553984Y-57088213D01*
X70442490Y-57199707D01*
X70442487Y-57199711D01*
X70354886Y-57330814D01*
X70354879Y-57330827D01*
X70294541Y-57476498D01*
X70294538Y-57476510D01*
X70263777Y-57631153D01*
X70263777Y-57788846D01*
X70294538Y-57943489D01*
X70294541Y-57943501D01*
X70354879Y-58089172D01*
X70354883Y-58089179D01*
X70383958Y-58132693D01*
X70404836Y-58199370D01*
X70386352Y-58266750D01*
X70349747Y-58304686D01*
X70239711Y-58378210D01*
X70239707Y-58378213D01*
X70128213Y-58489707D01*
X70128210Y-58489711D01*
X70040609Y-58620814D01*
X70040602Y-58620827D01*
X69980264Y-58766498D01*
X69980261Y-58766510D01*
X69949500Y-58921153D01*
X69949500Y-59078846D01*
X69980261Y-59233489D01*
X69980264Y-59233501D01*
X70040602Y-59379172D01*
X70040609Y-59379185D01*
X70128210Y-59510288D01*
X70128213Y-59510292D01*
X70239707Y-59621786D01*
X70239711Y-59621789D01*
X70324918Y-59678723D01*
X70330385Y-59685265D01*
X70338108Y-59688880D01*
X70352453Y-59711670D01*
X70369723Y-59732335D01*
X70370785Y-59740796D01*
X70375327Y-59748011D01*
X70375073Y-59774937D01*
X70378430Y-59801660D01*
X70374733Y-59811174D01*
X70374670Y-59817877D01*
X70360461Y-59847901D01*
X70359707Y-59849843D01*
X70359338Y-59850405D01*
X70305606Y-59930821D01*
X70303933Y-59934859D01*
X70298253Y-59943518D01*
X70275704Y-59962687D01*
X70254969Y-59983797D01*
X70249071Y-59985330D01*
X70245021Y-59988774D01*
X70226021Y-59991323D01*
X70194573Y-59999500D01*
X70086155Y-59999500D01*
X69931510Y-60030261D01*
X69931498Y-60030264D01*
X69785827Y-60090602D01*
X69785814Y-60090609D01*
X69654711Y-60178210D01*
X69654707Y-60178213D01*
X69543213Y-60289707D01*
X69543210Y-60289711D01*
X69455609Y-60420814D01*
X69455602Y-60420827D01*
X69395264Y-60566498D01*
X69395261Y-60566510D01*
X69364500Y-60721153D01*
X46904599Y-60721153D01*
X46897974Y-60702584D01*
X46913800Y-60634531D01*
X46947459Y-60596241D01*
X47032546Y-60532546D01*
X47118796Y-60417331D01*
X47169091Y-60282483D01*
X47175500Y-60222873D01*
X47175499Y-59171577D01*
X50583777Y-59171577D01*
X50583777Y-59368422D01*
X50614567Y-59562826D01*
X50675394Y-59750029D01*
X50725263Y-59847901D01*
X50764753Y-59925405D01*
X50880449Y-60084646D01*
X51019631Y-60223828D01*
X51178872Y-60339524D01*
X51238169Y-60369737D01*
X51354247Y-60428882D01*
X51354249Y-60428882D01*
X51354252Y-60428884D01*
X51454594Y-60461487D01*
X51541450Y-60489709D01*
X51735855Y-60520500D01*
X51735860Y-60520500D01*
X51932699Y-60520500D01*
X52127103Y-60489709D01*
X52314302Y-60428884D01*
X52489682Y-60339524D01*
X52648923Y-60223828D01*
X52788105Y-60084646D01*
X52903801Y-59925405D01*
X52993161Y-59750025D01*
X53053986Y-59562826D01*
X53055090Y-59555855D01*
X53084777Y-59368422D01*
X53084777Y-59171577D01*
X53078107Y-59129464D01*
X53075999Y-59116153D01*
X54633777Y-59116153D01*
X54633777Y-59273846D01*
X54664538Y-59428489D01*
X54664541Y-59428501D01*
X54724879Y-59574172D01*
X54724886Y-59574185D01*
X54812487Y-59705288D01*
X54812490Y-59705292D01*
X54923984Y-59816786D01*
X54923988Y-59816789D01*
X55055091Y-59904390D01*
X55055104Y-59904397D01*
X55118913Y-59930827D01*
X55200780Y-59964737D01*
X55334436Y-59991323D01*
X55355430Y-59995499D01*
X55355433Y-59995500D01*
X55355435Y-59995500D01*
X55513121Y-59995500D01*
X55513122Y-59995499D01*
X55667774Y-59964737D01*
X55813456Y-59904394D01*
X55944566Y-59816789D01*
X56056066Y-59705289D01*
X56143671Y-59574179D01*
X56204014Y-59428497D01*
X56234777Y-59273842D01*
X56234777Y-59116158D01*
X56234777Y-59116155D01*
X56234776Y-59116153D01*
X56221717Y-59050500D01*
X56204014Y-58961503D01*
X56159991Y-58855222D01*
X57814878Y-58855222D01*
X57814878Y-59012915D01*
X57845639Y-59167558D01*
X57845642Y-59167570D01*
X57905980Y-59313241D01*
X57905987Y-59313254D01*
X57993588Y-59444357D01*
X57993591Y-59444361D01*
X58105085Y-59555855D01*
X58105089Y-59555858D01*
X58236192Y-59643459D01*
X58236205Y-59643466D01*
X58345846Y-59688880D01*
X58381881Y-59703806D01*
X58525305Y-59732335D01*
X58536531Y-59734568D01*
X58536534Y-59734569D01*
X58536536Y-59734569D01*
X58694222Y-59734569D01*
X58694223Y-59734568D01*
X58848875Y-59703806D01*
X58994557Y-59643463D01*
X59125667Y-59555858D01*
X59237167Y-59444358D01*
X59324772Y-59313248D01*
X59385115Y-59167566D01*
X59415878Y-59012911D01*
X59415878Y-58855227D01*
X59415878Y-58855224D01*
X59415877Y-58855222D01*
X59408819Y-58819738D01*
X59385115Y-58700572D01*
X59355546Y-58629185D01*
X59324775Y-58554896D01*
X59324768Y-58554883D01*
X59237166Y-58423778D01*
X59125670Y-58312282D01*
X59125666Y-58312279D01*
X59059650Y-58268168D01*
X58994563Y-58224678D01*
X58994550Y-58224671D01*
X58865344Y-58171153D01*
X60949500Y-58171153D01*
X60949500Y-58328846D01*
X60980261Y-58483489D01*
X60980264Y-58483501D01*
X61040602Y-58629172D01*
X61040609Y-58629185D01*
X61128210Y-58760288D01*
X61128213Y-58760292D01*
X61239707Y-58871786D01*
X61239711Y-58871789D01*
X61370814Y-58959390D01*
X61370827Y-58959397D01*
X61500023Y-59012911D01*
X61516503Y-59019737D01*
X61662823Y-59048842D01*
X61671153Y-59050499D01*
X61671156Y-59050500D01*
X61671158Y-59050500D01*
X61828844Y-59050500D01*
X61828845Y-59050499D01*
X61983497Y-59019737D01*
X62096166Y-58973067D01*
X62129172Y-58959397D01*
X62129172Y-58959396D01*
X62129179Y-58959394D01*
X62260289Y-58871789D01*
X62371789Y-58760289D01*
X62459394Y-58629179D01*
X62462854Y-58620827D01*
X62482576Y-58573213D01*
X62519737Y-58483497D01*
X62550500Y-58328842D01*
X62550500Y-58171158D01*
X62550500Y-58171155D01*
X62550499Y-58171153D01*
X62543023Y-58133569D01*
X62519737Y-58016503D01*
X62500955Y-57971158D01*
X62459397Y-57870827D01*
X62459390Y-57870814D01*
X62371789Y-57739711D01*
X62371786Y-57739707D01*
X62260292Y-57628213D01*
X62260288Y-57628210D01*
X62129185Y-57540609D01*
X62129172Y-57540602D01*
X61983501Y-57480264D01*
X61983489Y-57480261D01*
X61828845Y-57449500D01*
X61828842Y-57449500D01*
X61671158Y-57449500D01*
X61671155Y-57449500D01*
X61516510Y-57480261D01*
X61516498Y-57480264D01*
X61370827Y-57540602D01*
X61370814Y-57540609D01*
X61239711Y-57628210D01*
X61239707Y-57628213D01*
X61128213Y-57739707D01*
X61128210Y-57739711D01*
X61040609Y-57870814D01*
X61040602Y-57870827D01*
X60980264Y-58016498D01*
X60980261Y-58016510D01*
X60949500Y-58171153D01*
X58865344Y-58171153D01*
X58848879Y-58164333D01*
X58848867Y-58164330D01*
X58694223Y-58133569D01*
X58694220Y-58133569D01*
X58536536Y-58133569D01*
X58536533Y-58133569D01*
X58381888Y-58164330D01*
X58381876Y-58164333D01*
X58236205Y-58224671D01*
X58236192Y-58224678D01*
X58105089Y-58312279D01*
X58105085Y-58312282D01*
X57993591Y-58423776D01*
X57993590Y-58423778D01*
X57905987Y-58554883D01*
X57905980Y-58554896D01*
X57845642Y-58700567D01*
X57845639Y-58700579D01*
X57814878Y-58855222D01*
X56159991Y-58855222D01*
X56149653Y-58830263D01*
X56143672Y-58815823D01*
X56143667Y-58815814D01*
X56056066Y-58684711D01*
X56056063Y-58684707D01*
X55944569Y-58573213D01*
X55944565Y-58573210D01*
X55813462Y-58485609D01*
X55813449Y-58485602D01*
X55667778Y-58425264D01*
X55667766Y-58425261D01*
X55513122Y-58394500D01*
X55513119Y-58394500D01*
X55355435Y-58394500D01*
X55355432Y-58394500D01*
X55200787Y-58425261D01*
X55200775Y-58425264D01*
X55055104Y-58485602D01*
X55055091Y-58485609D01*
X54923988Y-58573210D01*
X54923984Y-58573213D01*
X54812490Y-58684707D01*
X54812487Y-58684711D01*
X54724886Y-58815814D01*
X54724879Y-58815827D01*
X54664541Y-58961498D01*
X54664538Y-58961510D01*
X54633777Y-59116153D01*
X53075999Y-59116153D01*
X53053986Y-58977173D01*
X53012827Y-58850500D01*
X52993161Y-58789975D01*
X52993159Y-58789972D01*
X52993159Y-58789970D01*
X52939525Y-58684707D01*
X52903801Y-58614595D01*
X52788105Y-58455354D01*
X52648923Y-58316172D01*
X52489682Y-58200476D01*
X52432142Y-58171158D01*
X52314306Y-58111117D01*
X52127103Y-58050290D01*
X51932699Y-58019500D01*
X51932694Y-58019500D01*
X51735860Y-58019500D01*
X51735855Y-58019500D01*
X51541450Y-58050290D01*
X51354247Y-58111117D01*
X51178871Y-58200476D01*
X51112057Y-58249020D01*
X51019631Y-58316172D01*
X51019629Y-58316174D01*
X51019628Y-58316174D01*
X50880451Y-58455351D01*
X50880451Y-58455352D01*
X50880449Y-58455354D01*
X50837451Y-58514535D01*
X50764753Y-58614594D01*
X50675394Y-58789970D01*
X50614567Y-58977173D01*
X50583777Y-59171577D01*
X47175499Y-59171577D01*
X47175499Y-58777128D01*
X47169091Y-58717517D01*
X47165996Y-58709220D01*
X47118797Y-58582671D01*
X47118793Y-58582664D01*
X47032547Y-58467455D01*
X47032544Y-58467452D01*
X46917335Y-58381206D01*
X46917328Y-58381202D01*
X46782482Y-58330908D01*
X46782483Y-58330908D01*
X46722883Y-58324501D01*
X46722881Y-58324500D01*
X46722873Y-58324500D01*
X46722864Y-58324500D01*
X45277129Y-58324500D01*
X45277120Y-58324501D01*
X45237252Y-58328787D01*
X45168493Y-58316380D01*
X45117357Y-58268768D01*
X45100000Y-58205497D01*
X45100000Y-57236770D01*
X45119685Y-57169731D01*
X45172489Y-57123976D01*
X45241647Y-57114032D01*
X45305203Y-57143057D01*
X45307002Y-57144732D01*
X45309204Y-57146612D01*
X45309213Y-57146621D01*
X45458904Y-57255378D01*
X45539763Y-57296577D01*
X45623764Y-57339379D01*
X45623767Y-57339380D01*
X45711750Y-57367967D01*
X45799736Y-57396555D01*
X45982486Y-57425500D01*
X45982487Y-57425500D01*
X46167513Y-57425500D01*
X46167514Y-57425500D01*
X46350264Y-57396555D01*
X46526235Y-57339379D01*
X46691096Y-57255378D01*
X46840787Y-57146621D01*
X46971621Y-57015787D01*
X47080378Y-56866096D01*
X47164379Y-56701235D01*
X47221555Y-56525264D01*
X47250500Y-56342514D01*
X47250500Y-56171153D01*
X48449500Y-56171153D01*
X48449500Y-56328846D01*
X48480261Y-56483489D01*
X48480264Y-56483501D01*
X48540602Y-56629172D01*
X48540609Y-56629185D01*
X48628210Y-56760288D01*
X48628213Y-56760292D01*
X48739707Y-56871786D01*
X48739711Y-56871789D01*
X48870814Y-56959390D01*
X48870827Y-56959397D01*
X49016498Y-57019735D01*
X49016503Y-57019737D01*
X49171153Y-57050499D01*
X49171156Y-57050500D01*
X49171158Y-57050500D01*
X49328844Y-57050500D01*
X49328845Y-57050499D01*
X49483497Y-57019737D01*
X49629179Y-56959394D01*
X49760289Y-56871789D01*
X49871789Y-56760289D01*
X49959394Y-56629179D01*
X50019737Y-56483497D01*
X50050500Y-56328842D01*
X50050500Y-56171158D01*
X50050500Y-56171155D01*
X50050499Y-56171153D01*
X50042148Y-56129172D01*
X50019737Y-56016503D01*
X50000955Y-55971158D01*
X49959397Y-55870827D01*
X49959390Y-55870814D01*
X49871790Y-55739712D01*
X49871784Y-55739705D01*
X49803232Y-55671153D01*
X58783777Y-55671153D01*
X58783777Y-55828846D01*
X58814538Y-55983489D01*
X58814541Y-55983501D01*
X58874879Y-56129172D01*
X58874886Y-56129185D01*
X58962487Y-56260288D01*
X58962490Y-56260292D01*
X59073984Y-56371786D01*
X59073988Y-56371789D01*
X59205091Y-56459390D01*
X59205104Y-56459397D01*
X59350775Y-56519735D01*
X59350780Y-56519737D01*
X59505430Y-56550499D01*
X59505433Y-56550500D01*
X59505435Y-56550500D01*
X59663121Y-56550500D01*
X59663122Y-56550499D01*
X59817774Y-56519737D01*
X59963456Y-56459394D01*
X60094566Y-56371789D01*
X60206066Y-56260289D01*
X60293671Y-56129179D01*
X60354014Y-55983497D01*
X60356469Y-55971153D01*
X63134500Y-55971153D01*
X63134500Y-56128846D01*
X63165261Y-56283489D01*
X63165264Y-56283501D01*
X63225602Y-56429172D01*
X63225609Y-56429185D01*
X63313210Y-56560288D01*
X63313213Y-56560292D01*
X63424707Y-56671786D01*
X63424711Y-56671789D01*
X63555814Y-56759390D01*
X63555827Y-56759397D01*
X63691259Y-56815494D01*
X63701503Y-56819737D01*
X63856153Y-56850499D01*
X63856156Y-56850500D01*
X63856158Y-56850500D01*
X64013844Y-56850500D01*
X64013845Y-56850499D01*
X64168497Y-56819737D01*
X64314179Y-56759394D01*
X64445289Y-56671789D01*
X64556789Y-56560289D01*
X64644394Y-56429179D01*
X64704737Y-56283497D01*
X64735500Y-56128842D01*
X64735500Y-55971158D01*
X64735500Y-55971155D01*
X64735499Y-55971153D01*
X64715543Y-55870827D01*
X64704737Y-55816503D01*
X64697389Y-55798764D01*
X64644397Y-55670827D01*
X64644390Y-55670814D01*
X64556789Y-55539711D01*
X64556786Y-55539707D01*
X64445292Y-55428213D01*
X64445288Y-55428210D01*
X64314185Y-55340609D01*
X64314172Y-55340602D01*
X64168501Y-55280264D01*
X64168489Y-55280261D01*
X64013845Y-55249500D01*
X64013842Y-55249500D01*
X63856158Y-55249500D01*
X63856155Y-55249500D01*
X63701510Y-55280261D01*
X63701498Y-55280264D01*
X63555827Y-55340602D01*
X63555814Y-55340609D01*
X63424711Y-55428210D01*
X63424707Y-55428213D01*
X63313213Y-55539707D01*
X63313210Y-55539711D01*
X63225609Y-55670814D01*
X63225602Y-55670827D01*
X63165264Y-55816498D01*
X63165261Y-55816510D01*
X63134500Y-55971153D01*
X60356469Y-55971153D01*
X60362493Y-55940874D01*
X60362493Y-55940873D01*
X60384776Y-55828846D01*
X60384777Y-55828844D01*
X60384777Y-55671155D01*
X60384776Y-55671153D01*
X60368795Y-55590814D01*
X60354014Y-55516503D01*
X60340639Y-55484213D01*
X60293674Y-55370827D01*
X60293667Y-55370814D01*
X60206066Y-55239711D01*
X60206063Y-55239707D01*
X60094569Y-55128213D01*
X60094565Y-55128210D01*
X59963462Y-55040609D01*
X59963449Y-55040602D01*
X59817778Y-54980264D01*
X59817766Y-54980261D01*
X59663122Y-54949500D01*
X59663119Y-54949500D01*
X59505435Y-54949500D01*
X59505432Y-54949500D01*
X59350787Y-54980261D01*
X59350775Y-54980264D01*
X59205104Y-55040602D01*
X59205091Y-55040609D01*
X59073988Y-55128210D01*
X59073984Y-55128213D01*
X58962490Y-55239707D01*
X58962487Y-55239711D01*
X58874886Y-55370814D01*
X58874879Y-55370827D01*
X58814541Y-55516498D01*
X58814538Y-55516510D01*
X58783777Y-55671153D01*
X49803232Y-55671153D01*
X49760292Y-55628213D01*
X49760288Y-55628210D01*
X49629185Y-55540609D01*
X49629172Y-55540602D01*
X49483501Y-55480264D01*
X49483489Y-55480261D01*
X49328845Y-55449500D01*
X49328842Y-55449500D01*
X49171158Y-55449500D01*
X49171155Y-55449500D01*
X49016510Y-55480261D01*
X49016498Y-55480264D01*
X48870827Y-55540602D01*
X48870814Y-55540609D01*
X48739711Y-55628210D01*
X48739707Y-55628213D01*
X48628213Y-55739707D01*
X48628210Y-55739711D01*
X48540609Y-55870814D01*
X48540602Y-55870827D01*
X48480264Y-56016498D01*
X48480261Y-56016510D01*
X48449500Y-56171153D01*
X47250500Y-56171153D01*
X47250500Y-56157486D01*
X47221555Y-55974736D01*
X47170145Y-55816510D01*
X47164380Y-55798767D01*
X47164379Y-55798764D01*
X47099188Y-55670821D01*
X47080378Y-55633904D01*
X46996453Y-55518392D01*
X46972974Y-55452586D01*
X46988799Y-55384532D01*
X47022459Y-55346241D01*
X47107546Y-55282546D01*
X47193796Y-55167331D01*
X47244091Y-55032483D01*
X47250500Y-54972873D01*
X47250499Y-53527128D01*
X47244091Y-53467517D01*
X47207828Y-53370292D01*
X47193797Y-53332671D01*
X47193793Y-53332664D01*
X47107547Y-53217455D01*
X47107544Y-53217452D01*
X46992335Y-53131206D01*
X46992328Y-53131202D01*
X46857482Y-53080908D01*
X46857483Y-53080908D01*
X46797883Y-53074501D01*
X46797881Y-53074500D01*
X46797873Y-53074500D01*
X46797864Y-53074500D01*
X45352129Y-53074500D01*
X45352123Y-53074501D01*
X45292516Y-53080908D01*
X45267331Y-53090302D01*
X45197639Y-53095285D01*
X45136316Y-53061798D01*
X45102833Y-53000474D01*
X45100000Y-52974119D01*
X45100000Y-52092473D01*
X45119685Y-52025434D01*
X45172489Y-51979679D01*
X45241647Y-51969735D01*
X45296883Y-51992154D01*
X45383904Y-52055378D01*
X45452366Y-52090261D01*
X45548764Y-52139379D01*
X45548767Y-52139380D01*
X45636750Y-52167967D01*
X45724736Y-52196555D01*
X45907486Y-52225500D01*
X45907487Y-52225500D01*
X46092513Y-52225500D01*
X46092514Y-52225500D01*
X46275264Y-52196555D01*
X46451235Y-52139379D01*
X46616096Y-52055378D01*
X46765787Y-51946621D01*
X46896621Y-51815787D01*
X47005378Y-51666096D01*
X47089379Y-51501235D01*
X47146555Y-51325264D01*
X47163045Y-51221153D01*
X49476277Y-51221153D01*
X49476277Y-51378846D01*
X49507038Y-51533489D01*
X49507041Y-51533501D01*
X49567379Y-51679172D01*
X49567386Y-51679185D01*
X49654987Y-51810288D01*
X49654990Y-51810292D01*
X49766484Y-51921786D01*
X49766488Y-51921789D01*
X49897591Y-52009390D01*
X49897604Y-52009397D01*
X50021769Y-52060827D01*
X50043280Y-52069737D01*
X50146476Y-52090264D01*
X50197930Y-52100499D01*
X50197933Y-52100500D01*
X50197935Y-52100500D01*
X50355621Y-52100500D01*
X50355622Y-52100499D01*
X50510274Y-52069737D01*
X50655956Y-52009394D01*
X50787066Y-51921789D01*
X50898566Y-51810289D01*
X50903000Y-51803653D01*
X54399500Y-51803653D01*
X54399500Y-51961346D01*
X54430261Y-52115989D01*
X54430264Y-52116001D01*
X54490602Y-52261672D01*
X54490609Y-52261685D01*
X54578210Y-52392788D01*
X54578213Y-52392792D01*
X54689707Y-52504286D01*
X54689711Y-52504289D01*
X54820814Y-52591890D01*
X54820827Y-52591897D01*
X54966498Y-52652235D01*
X54966503Y-52652237D01*
X55073384Y-52673497D01*
X55121153Y-52682999D01*
X55121156Y-52683000D01*
X55121158Y-52683000D01*
X55278844Y-52683000D01*
X55278845Y-52682999D01*
X55433497Y-52652237D01*
X55579179Y-52591894D01*
X55710289Y-52504289D01*
X55821789Y-52392789D01*
X55842927Y-52361153D01*
X66624500Y-52361153D01*
X66624500Y-52518846D01*
X66655261Y-52673489D01*
X66655264Y-52673501D01*
X66715602Y-52819172D01*
X66715609Y-52819185D01*
X66803210Y-52950288D01*
X66803213Y-52950292D01*
X66914707Y-53061786D01*
X66914711Y-53061789D01*
X67045814Y-53149390D01*
X67045827Y-53149397D01*
X67191498Y-53209735D01*
X67191503Y-53209737D01*
X67346158Y-53240500D01*
X67346163Y-53240500D01*
X67352218Y-53241097D01*
X67351937Y-53243943D01*
X67407248Y-53260185D01*
X67443311Y-53295609D01*
X67493210Y-53370288D01*
X67493213Y-53370292D01*
X67604707Y-53481786D01*
X67604711Y-53481789D01*
X67735814Y-53569390D01*
X67735827Y-53569397D01*
X67881498Y-53629735D01*
X67881503Y-53629737D01*
X68036153Y-53660499D01*
X68036156Y-53660500D01*
X68036158Y-53660500D01*
X68193844Y-53660500D01*
X68193845Y-53660499D01*
X68348497Y-53629737D01*
X68494179Y-53569394D01*
X68625289Y-53481789D01*
X68736789Y-53370289D01*
X68824394Y-53239179D01*
X68884737Y-53093497D01*
X68915500Y-52938842D01*
X68915500Y-52781158D01*
X68915500Y-52781155D01*
X68915499Y-52781153D01*
X68895975Y-52682999D01*
X68884737Y-52626503D01*
X68870400Y-52591890D01*
X68824397Y-52480827D01*
X68824390Y-52480814D01*
X68736789Y-52349711D01*
X68736786Y-52349707D01*
X68625292Y-52238213D01*
X68625288Y-52238210D01*
X68494185Y-52150609D01*
X68494172Y-52150602D01*
X68348501Y-52090264D01*
X68348489Y-52090261D01*
X68193846Y-52059500D01*
X68187782Y-52058903D01*
X68188062Y-52056056D01*
X68132752Y-52039815D01*
X68096689Y-52004391D01*
X68046789Y-51929711D01*
X68046786Y-51929707D01*
X67935292Y-51818213D01*
X67935288Y-51818210D01*
X67804185Y-51730609D01*
X67804172Y-51730602D01*
X67658501Y-51670264D01*
X67658489Y-51670261D01*
X67503845Y-51639500D01*
X67503842Y-51639500D01*
X67346158Y-51639500D01*
X67346155Y-51639500D01*
X67191510Y-51670261D01*
X67191498Y-51670264D01*
X67045827Y-51730602D01*
X67045814Y-51730609D01*
X66914711Y-51818210D01*
X66914707Y-51818213D01*
X66803213Y-51929707D01*
X66803210Y-51929711D01*
X66715609Y-52060814D01*
X66715602Y-52060827D01*
X66655264Y-52206498D01*
X66655261Y-52206510D01*
X66624500Y-52361153D01*
X55842927Y-52361153D01*
X55856019Y-52341558D01*
X55893027Y-52286175D01*
X55909390Y-52261685D01*
X55909390Y-52261684D01*
X55909394Y-52261679D01*
X55969737Y-52115997D01*
X56000500Y-51961342D01*
X56000500Y-51803658D01*
X56000500Y-51803655D01*
X56000499Y-51803653D01*
X55998822Y-51795220D01*
X55969737Y-51649003D01*
X55921895Y-51533501D01*
X55909397Y-51503327D01*
X55909390Y-51503314D01*
X55821789Y-51372211D01*
X55821786Y-51372207D01*
X55710292Y-51260713D01*
X55710288Y-51260710D01*
X55579185Y-51173109D01*
X55579172Y-51173102D01*
X55433501Y-51112764D01*
X55433489Y-51112761D01*
X55278845Y-51082000D01*
X55278842Y-51082000D01*
X55121158Y-51082000D01*
X55121155Y-51082000D01*
X54966510Y-51112761D01*
X54966498Y-51112764D01*
X54820827Y-51173102D01*
X54820814Y-51173109D01*
X54689711Y-51260710D01*
X54689707Y-51260713D01*
X54578213Y-51372207D01*
X54578210Y-51372211D01*
X54490609Y-51503314D01*
X54490602Y-51503327D01*
X54430264Y-51648998D01*
X54430261Y-51649010D01*
X54399500Y-51803653D01*
X50903000Y-51803653D01*
X50986171Y-51679179D01*
X51046514Y-51533497D01*
X51077277Y-51378842D01*
X51077277Y-51221158D01*
X51077277Y-51221155D01*
X51077276Y-51221153D01*
X51067718Y-51173102D01*
X51046514Y-51066503D01*
X51001358Y-50957486D01*
X50986174Y-50920827D01*
X50986167Y-50920814D01*
X50898566Y-50789711D01*
X50898563Y-50789707D01*
X50787069Y-50678213D01*
X50787065Y-50678210D01*
X50742666Y-50648543D01*
X68473776Y-50648543D01*
X68512224Y-50841829D01*
X68512227Y-50841839D01*
X68587641Y-51023907D01*
X68587648Y-51023920D01*
X68697137Y-51187781D01*
X68697140Y-51187785D01*
X68836491Y-51327136D01*
X68836495Y-51327139D01*
X69000356Y-51436628D01*
X69000369Y-51436635D01*
X69161380Y-51503327D01*
X69182442Y-51512051D01*
X69182446Y-51512051D01*
X69182447Y-51512052D01*
X69375733Y-51550500D01*
X69375736Y-51550500D01*
X69572820Y-51550500D01*
X69702859Y-51524632D01*
X69766112Y-51512051D01*
X69948191Y-51436632D01*
X70040386Y-51375029D01*
X70107063Y-51354151D01*
X70174443Y-51372635D01*
X70178168Y-51375029D01*
X70270363Y-51436632D01*
X70270365Y-51436633D01*
X70270369Y-51436635D01*
X70431380Y-51503327D01*
X70452442Y-51512051D01*
X70452446Y-51512051D01*
X70452447Y-51512052D01*
X70645733Y-51550500D01*
X70645736Y-51550500D01*
X70842820Y-51550500D01*
X70972859Y-51524632D01*
X71036112Y-51512051D01*
X71218191Y-51436632D01*
X71310386Y-51375029D01*
X71377063Y-51354151D01*
X71444443Y-51372635D01*
X71448168Y-51375029D01*
X71540363Y-51436632D01*
X71540365Y-51436633D01*
X71540369Y-51436635D01*
X71701380Y-51503327D01*
X71722442Y-51512051D01*
X71722446Y-51512051D01*
X71722447Y-51512052D01*
X71915733Y-51550500D01*
X71915736Y-51550500D01*
X72112820Y-51550500D01*
X72242859Y-51524632D01*
X72306112Y-51512051D01*
X72488191Y-51436632D01*
X72652059Y-51327139D01*
X72791416Y-51187782D01*
X72900909Y-51023914D01*
X72976328Y-50841835D01*
X72989675Y-50774734D01*
X73014777Y-50648543D01*
X73014777Y-50451456D01*
X72976329Y-50258170D01*
X72976328Y-50258169D01*
X72976328Y-50258165D01*
X72952355Y-50200289D01*
X72900912Y-50076092D01*
X72900905Y-50076079D01*
X72791416Y-49912218D01*
X72791413Y-49912214D01*
X72652062Y-49772863D01*
X72652058Y-49772860D01*
X72488197Y-49663371D01*
X72488184Y-49663364D01*
X72306116Y-49587950D01*
X72306106Y-49587947D01*
X72112820Y-49549500D01*
X72112818Y-49549500D01*
X71915736Y-49549500D01*
X71915734Y-49549500D01*
X71722447Y-49587947D01*
X71722437Y-49587950D01*
X71540366Y-49663366D01*
X71448167Y-49724971D01*
X71381490Y-49745848D01*
X71314110Y-49727363D01*
X71310387Y-49724971D01*
X71284017Y-49707352D01*
X71218191Y-49663368D01*
X71218188Y-49663366D01*
X71218187Y-49663366D01*
X71036116Y-49587950D01*
X71036106Y-49587947D01*
X70842820Y-49549500D01*
X70842818Y-49549500D01*
X70645736Y-49549500D01*
X70645734Y-49549500D01*
X70452447Y-49587947D01*
X70452437Y-49587950D01*
X70270366Y-49663366D01*
X70178167Y-49724971D01*
X70111490Y-49745848D01*
X70044110Y-49727363D01*
X70040387Y-49724971D01*
X70014017Y-49707352D01*
X69948191Y-49663368D01*
X69948188Y-49663366D01*
X69948187Y-49663366D01*
X69766116Y-49587950D01*
X69766106Y-49587947D01*
X69572820Y-49549500D01*
X69572818Y-49549500D01*
X69375736Y-49549500D01*
X69375734Y-49549500D01*
X69182447Y-49587947D01*
X69182437Y-49587950D01*
X69000369Y-49663364D01*
X69000356Y-49663371D01*
X68836495Y-49772860D01*
X68836491Y-49772863D01*
X68697140Y-49912214D01*
X68697137Y-49912218D01*
X68587648Y-50076079D01*
X68587641Y-50076092D01*
X68512227Y-50258160D01*
X68512224Y-50258170D01*
X68473777Y-50451456D01*
X68473777Y-50451459D01*
X68473777Y-50648541D01*
X68473777Y-50648543D01*
X68473776Y-50648543D01*
X50742666Y-50648543D01*
X50655962Y-50590609D01*
X50655949Y-50590602D01*
X50581893Y-50559928D01*
X50510278Y-50530264D01*
X50510266Y-50530261D01*
X50355622Y-50499500D01*
X50355619Y-50499500D01*
X50197935Y-50499500D01*
X50197932Y-50499500D01*
X50043287Y-50530261D01*
X50043275Y-50530264D01*
X49897604Y-50590602D01*
X49897591Y-50590609D01*
X49766488Y-50678210D01*
X49766484Y-50678213D01*
X49654990Y-50789707D01*
X49654987Y-50789711D01*
X49567386Y-50920814D01*
X49567379Y-50920827D01*
X49507041Y-51066498D01*
X49507038Y-51066510D01*
X49476277Y-51221153D01*
X47163045Y-51221153D01*
X47175500Y-51142514D01*
X47175500Y-50957486D01*
X47146555Y-50774736D01*
X47089379Y-50598765D01*
X47089379Y-50598764D01*
X47032762Y-50487648D01*
X47005378Y-50433904D01*
X46896621Y-50284213D01*
X46765787Y-50153379D01*
X46761576Y-50150319D01*
X46718909Y-50094994D01*
X46712926Y-50025381D01*
X46745529Y-49963585D01*
X46761570Y-49949684D01*
X46765787Y-49946621D01*
X46896621Y-49815787D01*
X47005378Y-49666096D01*
X47089379Y-49501235D01*
X47146555Y-49325264D01*
X47175500Y-49142514D01*
X47175500Y-48957486D01*
X47146555Y-48774736D01*
X47109079Y-48659397D01*
X47089380Y-48598767D01*
X47089379Y-48598764D01*
X47045933Y-48513497D01*
X47005378Y-48433904D01*
X46896621Y-48284213D01*
X46765787Y-48153379D01*
X46616096Y-48044622D01*
X46480537Y-47975551D01*
X46451235Y-47960620D01*
X46451232Y-47960619D01*
X46275265Y-47903445D01*
X46183889Y-47888972D01*
X46092514Y-47874500D01*
X45907486Y-47874500D01*
X45846569Y-47884148D01*
X45724734Y-47903445D01*
X45548767Y-47960619D01*
X45548764Y-47960620D01*
X45383900Y-48044624D01*
X45296885Y-48107844D01*
X45231079Y-48131324D01*
X45163025Y-48115498D01*
X45114330Y-48065393D01*
X45100000Y-48007526D01*
X45100000Y-47871153D01*
X76524500Y-47871153D01*
X76524500Y-48028846D01*
X76555261Y-48183489D01*
X76555264Y-48183501D01*
X76615602Y-48329172D01*
X76615609Y-48329185D01*
X76703210Y-48460288D01*
X76703213Y-48460292D01*
X76814707Y-48571786D01*
X76814711Y-48571789D01*
X76945814Y-48659390D01*
X76945827Y-48659397D01*
X77073674Y-48712352D01*
X77091503Y-48719737D01*
X77246153Y-48750499D01*
X77246156Y-48750500D01*
X77246158Y-48750500D01*
X77403844Y-48750500D01*
X77403845Y-48750499D01*
X77558497Y-48719737D01*
X77704179Y-48659394D01*
X77835289Y-48571789D01*
X77946789Y-48460289D01*
X78034394Y-48329179D01*
X78094737Y-48183497D01*
X78125500Y-48028842D01*
X78125500Y-47871158D01*
X78125500Y-47871155D01*
X78125499Y-47871153D01*
X78094738Y-47716510D01*
X78094737Y-47716503D01*
X78053950Y-47618034D01*
X78034397Y-47570827D01*
X78034390Y-47570814D01*
X77946789Y-47439711D01*
X77946786Y-47439707D01*
X77835292Y-47328213D01*
X77835288Y-47328210D01*
X77704185Y-47240609D01*
X77704172Y-47240602D01*
X77558501Y-47180264D01*
X77558489Y-47180261D01*
X77403845Y-47149500D01*
X77403842Y-47149500D01*
X77246158Y-47149500D01*
X77246155Y-47149500D01*
X77091510Y-47180261D01*
X77091498Y-47180264D01*
X76945827Y-47240602D01*
X76945814Y-47240609D01*
X76814711Y-47328210D01*
X76814707Y-47328213D01*
X76703213Y-47439707D01*
X76703210Y-47439711D01*
X76615609Y-47570814D01*
X76615602Y-47570827D01*
X76555264Y-47716498D01*
X76555261Y-47716510D01*
X76524500Y-47871153D01*
X45100000Y-47871153D01*
X45100000Y-46791153D01*
X56783777Y-46791153D01*
X56783777Y-46948846D01*
X56814538Y-47103489D01*
X56814541Y-47103501D01*
X56874879Y-47249172D01*
X56874886Y-47249185D01*
X56962487Y-47380288D01*
X56962490Y-47380292D01*
X57073984Y-47491786D01*
X57073988Y-47491789D01*
X57205091Y-47579390D01*
X57205104Y-47579397D01*
X57350775Y-47639735D01*
X57350780Y-47639737D01*
X57505430Y-47670499D01*
X57505433Y-47670500D01*
X57505435Y-47670500D01*
X57663121Y-47670500D01*
X57663122Y-47670499D01*
X57817774Y-47639737D01*
X57963456Y-47579394D01*
X58094566Y-47491789D01*
X58206066Y-47380289D01*
X58293671Y-47249179D01*
X58354014Y-47103497D01*
X58384777Y-46948842D01*
X58384777Y-46791158D01*
X58384777Y-46791155D01*
X58384776Y-46791153D01*
X58354015Y-46636510D01*
X58354014Y-46636503D01*
X58306237Y-46521158D01*
X58293674Y-46490827D01*
X58293667Y-46490814D01*
X58206066Y-46359711D01*
X58206063Y-46359707D01*
X58094569Y-46248213D01*
X58094565Y-46248210D01*
X57963462Y-46160609D01*
X57963449Y-46160602D01*
X57817778Y-46100264D01*
X57817766Y-46100261D01*
X57663122Y-46069500D01*
X57663119Y-46069500D01*
X57505435Y-46069500D01*
X57505432Y-46069500D01*
X57350787Y-46100261D01*
X57350775Y-46100264D01*
X57205104Y-46160602D01*
X57205091Y-46160609D01*
X57073988Y-46248210D01*
X57073984Y-46248213D01*
X56962490Y-46359707D01*
X56962487Y-46359711D01*
X56874886Y-46490814D01*
X56874879Y-46490827D01*
X56814541Y-46636498D01*
X56814538Y-46636510D01*
X56783777Y-46791153D01*
X45100000Y-46791153D01*
X45100000Y-44251902D01*
X54733777Y-44251902D01*
X54733777Y-44488097D01*
X54770723Y-44721368D01*
X54843710Y-44945996D01*
X54950934Y-45156433D01*
X55089760Y-45347510D01*
X55256767Y-45514517D01*
X55447844Y-45653343D01*
X55539926Y-45700261D01*
X55658280Y-45760566D01*
X55658282Y-45760566D01*
X55658285Y-45760568D01*
X55778105Y-45799500D01*
X55882908Y-45833553D01*
X56116180Y-45870500D01*
X56116185Y-45870500D01*
X56352374Y-45870500D01*
X56585645Y-45833553D01*
X56810269Y-45760568D01*
X57020710Y-45653343D01*
X57211787Y-45514517D01*
X57378794Y-45347510D01*
X57517620Y-45156433D01*
X57624845Y-44945992D01*
X57697830Y-44721368D01*
X57715423Y-44610289D01*
X57734777Y-44488097D01*
X57734777Y-44251902D01*
X61233777Y-44251902D01*
X61233777Y-44488097D01*
X61270723Y-44721368D01*
X61343710Y-44945996D01*
X61450934Y-45156433D01*
X61589760Y-45347510D01*
X61756767Y-45514517D01*
X61947844Y-45653343D01*
X62039926Y-45700261D01*
X62158280Y-45760566D01*
X62158282Y-45760566D01*
X62158285Y-45760568D01*
X62278105Y-45799500D01*
X62382908Y-45833553D01*
X62616180Y-45870500D01*
X62616185Y-45870500D01*
X62852374Y-45870500D01*
X63085645Y-45833553D01*
X63310269Y-45760568D01*
X63520710Y-45653343D01*
X63711787Y-45514517D01*
X63878794Y-45347510D01*
X64017620Y-45156433D01*
X64124845Y-44945992D01*
X64166346Y-44818264D01*
X64205784Y-44760590D01*
X64270143Y-44733392D01*
X64338989Y-44745307D01*
X64390465Y-44792551D01*
X64402208Y-44818265D01*
X64443710Y-44945996D01*
X64550934Y-45156433D01*
X64689760Y-45347510D01*
X64856767Y-45514517D01*
X65047844Y-45653343D01*
X65139926Y-45700261D01*
X65258280Y-45760566D01*
X65258282Y-45760566D01*
X65258285Y-45760568D01*
X65378105Y-45799500D01*
X65482908Y-45833553D01*
X65716180Y-45870500D01*
X65716185Y-45870500D01*
X65952374Y-45870500D01*
X66118994Y-45844109D01*
X66185645Y-45833553D01*
X66239787Y-45815960D01*
X66309627Y-45813965D01*
X66369460Y-45850045D01*
X66400289Y-45912746D01*
X66392325Y-45982160D01*
X66381207Y-46002782D01*
X66322389Y-46090809D01*
X66322379Y-46090827D01*
X66262041Y-46236498D01*
X66262038Y-46236510D01*
X66231277Y-46391153D01*
X66231277Y-46548846D01*
X66262038Y-46703489D01*
X66262041Y-46703501D01*
X66322379Y-46849172D01*
X66322386Y-46849185D01*
X66409987Y-46980288D01*
X66409990Y-46980292D01*
X66521484Y-47091786D01*
X66521488Y-47091789D01*
X66652591Y-47179390D01*
X66652604Y-47179397D01*
X66754949Y-47221789D01*
X66798280Y-47239737D01*
X66952930Y-47270499D01*
X66952933Y-47270500D01*
X66952935Y-47270500D01*
X67110621Y-47270500D01*
X67110622Y-47270499D01*
X67265274Y-47239737D01*
X67410956Y-47179394D01*
X67542066Y-47091789D01*
X67653566Y-46980289D01*
X67741171Y-46849179D01*
X67801514Y-46703497D01*
X67832277Y-46548842D01*
X67832277Y-46391158D01*
X67832277Y-46391155D01*
X67832276Y-46391153D01*
X67803843Y-46248211D01*
X67801514Y-46236503D01*
X67770075Y-46160602D01*
X67741174Y-46090827D01*
X67741167Y-46090814D01*
X67653566Y-45959711D01*
X67653563Y-45959707D01*
X67542069Y-45848213D01*
X67542065Y-45848210D01*
X67410962Y-45760609D01*
X67410949Y-45760602D01*
X67265278Y-45700264D01*
X67265266Y-45700261D01*
X67110622Y-45669500D01*
X67110619Y-45669500D01*
X66956166Y-45669500D01*
X66889127Y-45649815D01*
X66843372Y-45597011D01*
X66833428Y-45527853D01*
X66862453Y-45464297D01*
X66868485Y-45457819D01*
X66978794Y-45347510D01*
X67117620Y-45156433D01*
X67224845Y-44945992D01*
X67297830Y-44721368D01*
X67315423Y-44610289D01*
X67334777Y-44488097D01*
X67334777Y-44251902D01*
X70833777Y-44251902D01*
X70833777Y-44488097D01*
X70870723Y-44721368D01*
X70943710Y-44945996D01*
X71050934Y-45156433D01*
X71189760Y-45347510D01*
X71356767Y-45514517D01*
X71547844Y-45653343D01*
X71639926Y-45700261D01*
X71758280Y-45760566D01*
X71758282Y-45760566D01*
X71758285Y-45760568D01*
X71878105Y-45799500D01*
X71982908Y-45833553D01*
X72216180Y-45870500D01*
X72216185Y-45870500D01*
X72452374Y-45870500D01*
X72685645Y-45833553D01*
X72910269Y-45760568D01*
X73120710Y-45653343D01*
X73311787Y-45514517D01*
X73478794Y-45347510D01*
X73617620Y-45156433D01*
X73724845Y-44945992D01*
X73797830Y-44721368D01*
X73815423Y-44610289D01*
X73834777Y-44488097D01*
X73834777Y-44251902D01*
X73797830Y-44018631D01*
X73724843Y-43794003D01*
X73634194Y-43616096D01*
X73617620Y-43583567D01*
X73478794Y-43392490D01*
X73311787Y-43225483D01*
X73120710Y-43086657D01*
X73112035Y-43082237D01*
X72910273Y-42979433D01*
X72685645Y-42906446D01*
X72452374Y-42869500D01*
X72452369Y-42869500D01*
X72216185Y-42869500D01*
X72216180Y-42869500D01*
X71982908Y-42906446D01*
X71758280Y-42979433D01*
X71547843Y-43086657D01*
X71438827Y-43165862D01*
X71356767Y-43225483D01*
X71356765Y-43225485D01*
X71356764Y-43225485D01*
X71189762Y-43392487D01*
X71189762Y-43392488D01*
X71189760Y-43392490D01*
X71147081Y-43451232D01*
X71050934Y-43583566D01*
X70943710Y-43794003D01*
X70870723Y-44018631D01*
X70833777Y-44251902D01*
X67334777Y-44251902D01*
X67297830Y-44018631D01*
X67224843Y-43794003D01*
X67134194Y-43616096D01*
X67117620Y-43583567D01*
X66978794Y-43392490D01*
X66811787Y-43225483D01*
X66620710Y-43086657D01*
X66612035Y-43082237D01*
X66410273Y-42979433D01*
X66185645Y-42906446D01*
X65952374Y-42869500D01*
X65952369Y-42869500D01*
X65716185Y-42869500D01*
X65716180Y-42869500D01*
X65482908Y-42906446D01*
X65258280Y-42979433D01*
X65047843Y-43086657D01*
X64938827Y-43165862D01*
X64856767Y-43225483D01*
X64856765Y-43225485D01*
X64856764Y-43225485D01*
X64689762Y-43392487D01*
X64689762Y-43392488D01*
X64689760Y-43392490D01*
X64647081Y-43451232D01*
X64550934Y-43583566D01*
X64443710Y-43794003D01*
X64402208Y-43921734D01*
X64362770Y-43979409D01*
X64298411Y-44006607D01*
X64229565Y-43994692D01*
X64178089Y-43947448D01*
X64166346Y-43921734D01*
X64124843Y-43794003D01*
X64034194Y-43616096D01*
X64017620Y-43583567D01*
X63878794Y-43392490D01*
X63711787Y-43225483D01*
X63520710Y-43086657D01*
X63512035Y-43082237D01*
X63310273Y-42979433D01*
X63085645Y-42906446D01*
X62852374Y-42869500D01*
X62852369Y-42869500D01*
X62616185Y-42869500D01*
X62616180Y-42869500D01*
X62382908Y-42906446D01*
X62158280Y-42979433D01*
X61947843Y-43086657D01*
X61838827Y-43165862D01*
X61756767Y-43225483D01*
X61756765Y-43225485D01*
X61756764Y-43225485D01*
X61589762Y-43392487D01*
X61589762Y-43392488D01*
X61589760Y-43392490D01*
X61547081Y-43451232D01*
X61450934Y-43583566D01*
X61343710Y-43794003D01*
X61270723Y-44018631D01*
X61233777Y-44251902D01*
X57734777Y-44251902D01*
X57697830Y-44018631D01*
X57624843Y-43794003D01*
X57534194Y-43616096D01*
X57517620Y-43583567D01*
X57378794Y-43392490D01*
X57211787Y-43225483D01*
X57020710Y-43086657D01*
X57012035Y-43082237D01*
X56810273Y-42979433D01*
X56585645Y-42906446D01*
X56352374Y-42869500D01*
X56352369Y-42869500D01*
X56116185Y-42869500D01*
X56116180Y-42869500D01*
X55882908Y-42906446D01*
X55658280Y-42979433D01*
X55447843Y-43086657D01*
X55338827Y-43165862D01*
X55256767Y-43225483D01*
X55256765Y-43225485D01*
X55256764Y-43225485D01*
X55089762Y-43392487D01*
X55089762Y-43392488D01*
X55089760Y-43392490D01*
X55047081Y-43451232D01*
X54950934Y-43583566D01*
X54843710Y-43794003D01*
X54770723Y-44018631D01*
X54733777Y-44251902D01*
X45100000Y-44251902D01*
X45100000Y-44042473D01*
X45119685Y-43975434D01*
X45172489Y-43929679D01*
X45241647Y-43919735D01*
X45296883Y-43942154D01*
X45383904Y-44005378D01*
X45456707Y-44042473D01*
X45548764Y-44089379D01*
X45548767Y-44089380D01*
X45636750Y-44117967D01*
X45724736Y-44146555D01*
X45907486Y-44175500D01*
X45907487Y-44175500D01*
X46092513Y-44175500D01*
X46092514Y-44175500D01*
X46275264Y-44146555D01*
X46311458Y-44134794D01*
X46328971Y-44129105D01*
X46451232Y-44089380D01*
X46451235Y-44089379D01*
X46616096Y-44005378D01*
X46765787Y-43896621D01*
X46896621Y-43765787D01*
X47005378Y-43616096D01*
X47089379Y-43451235D01*
X47146555Y-43275264D01*
X47175500Y-43092514D01*
X47175500Y-42907486D01*
X47146555Y-42724736D01*
X47089379Y-42548765D01*
X47089379Y-42548764D01*
X47023917Y-42420289D01*
X47005378Y-42383904D01*
X46896621Y-42234213D01*
X46765787Y-42103379D01*
X46761576Y-42100319D01*
X46718909Y-42044994D01*
X46712926Y-41975381D01*
X46745529Y-41913585D01*
X46761570Y-41899684D01*
X46765787Y-41896621D01*
X46896621Y-41765787D01*
X47005378Y-41616096D01*
X47089379Y-41451235D01*
X47146555Y-41275264D01*
X47175500Y-41092514D01*
X47175500Y-40907486D01*
X47146555Y-40724736D01*
X47102056Y-40587781D01*
X47089380Y-40548767D01*
X47089379Y-40548764D01*
X47046577Y-40464763D01*
X47005378Y-40383904D01*
X46896621Y-40234213D01*
X46765787Y-40103379D01*
X46616096Y-39994622D01*
X46603280Y-39988092D01*
X46451235Y-39910620D01*
X46451232Y-39910619D01*
X46310726Y-39864967D01*
X46275265Y-39853445D01*
X46183889Y-39838972D01*
X46092514Y-39824500D01*
X45907486Y-39824500D01*
X45846569Y-39834148D01*
X45724734Y-39853445D01*
X45548767Y-39910619D01*
X45548764Y-39910620D01*
X45383900Y-39994624D01*
X45296885Y-40057844D01*
X45231079Y-40081324D01*
X45163025Y-40065498D01*
X45114330Y-40015393D01*
X45100000Y-39957526D01*
X45100000Y-39751902D01*
X54733777Y-39751902D01*
X54733777Y-39988097D01*
X54770723Y-40221368D01*
X54843710Y-40445996D01*
X54950934Y-40656433D01*
X55089760Y-40847510D01*
X55256767Y-41014517D01*
X55447844Y-41153343D01*
X55498550Y-41179179D01*
X55658280Y-41260566D01*
X55658282Y-41260566D01*
X55658285Y-41260568D01*
X55703518Y-41275265D01*
X55882908Y-41333553D01*
X56116180Y-41370500D01*
X56116185Y-41370500D01*
X56352374Y-41370500D01*
X56585645Y-41333553D01*
X56810269Y-41260568D01*
X57020710Y-41153343D01*
X57211787Y-41014517D01*
X57378794Y-40847510D01*
X57517620Y-40656433D01*
X57624845Y-40445992D01*
X57697830Y-40221368D01*
X57699869Y-40208497D01*
X57734777Y-39988097D01*
X57734777Y-39751902D01*
X61233777Y-39751902D01*
X61233777Y-39988097D01*
X61270723Y-40221368D01*
X61343710Y-40445996D01*
X61450934Y-40656433D01*
X61589760Y-40847510D01*
X61756767Y-41014517D01*
X61947844Y-41153343D01*
X61998550Y-41179179D01*
X62158280Y-41260566D01*
X62158282Y-41260566D01*
X62158285Y-41260568D01*
X62203518Y-41275265D01*
X62382908Y-41333553D01*
X62616180Y-41370500D01*
X62616185Y-41370500D01*
X62852374Y-41370500D01*
X63085645Y-41333553D01*
X63310269Y-41260568D01*
X63520710Y-41153343D01*
X63711787Y-41014517D01*
X63878794Y-40847510D01*
X64017620Y-40656433D01*
X64124845Y-40445992D01*
X64197830Y-40221368D01*
X64199869Y-40208497D01*
X64234777Y-39988097D01*
X64234777Y-39751902D01*
X64197830Y-39518631D01*
X64163966Y-39414412D01*
X64124845Y-39294008D01*
X64124843Y-39294005D01*
X64124843Y-39294003D01*
X64023031Y-39094187D01*
X64017620Y-39083567D01*
X63878794Y-38892490D01*
X63711787Y-38725483D01*
X63520710Y-38586657D01*
X63466756Y-38559166D01*
X63310273Y-38479433D01*
X63085645Y-38406446D01*
X62852374Y-38369500D01*
X62852369Y-38369500D01*
X62616185Y-38369500D01*
X62616180Y-38369500D01*
X62382908Y-38406446D01*
X62158280Y-38479433D01*
X61947843Y-38586657D01*
X61838827Y-38665862D01*
X61756767Y-38725483D01*
X61756765Y-38725485D01*
X61756764Y-38725485D01*
X61589762Y-38892487D01*
X61589762Y-38892488D01*
X61589760Y-38892490D01*
X61578546Y-38907925D01*
X61450934Y-39083566D01*
X61343710Y-39294003D01*
X61270723Y-39518631D01*
X61233777Y-39751902D01*
X57734777Y-39751902D01*
X57697830Y-39518631D01*
X57663966Y-39414412D01*
X57624845Y-39294008D01*
X57624843Y-39294005D01*
X57624843Y-39294003D01*
X57523031Y-39094187D01*
X57517620Y-39083567D01*
X57378794Y-38892490D01*
X57211787Y-38725483D01*
X57020710Y-38586657D01*
X56966756Y-38559166D01*
X56810273Y-38479433D01*
X56585645Y-38406446D01*
X56352374Y-38369500D01*
X56352369Y-38369500D01*
X56116185Y-38369500D01*
X56116180Y-38369500D01*
X55882908Y-38406446D01*
X55658280Y-38479433D01*
X55447843Y-38586657D01*
X55338827Y-38665862D01*
X55256767Y-38725483D01*
X55256765Y-38725485D01*
X55256764Y-38725485D01*
X55089762Y-38892487D01*
X55089762Y-38892488D01*
X55089760Y-38892490D01*
X55078546Y-38907925D01*
X54950934Y-39083566D01*
X54843710Y-39294003D01*
X54770723Y-39518631D01*
X54733777Y-39751902D01*
X45100000Y-39751902D01*
X45100000Y-36824000D01*
X45119685Y-36756961D01*
X45172489Y-36711206D01*
X45224000Y-36700000D01*
X80776410Y-36700000D01*
X80843449Y-36719685D01*
G37*
%TD.AperFunction*%
%TD*%
M02*
