%TF.GenerationSoftware,KiCad,Pcbnew,9.0.7*%
%TF.CreationDate,2026-01-12T17:17:52+03:00*%
%TF.ProjectId,Motor_Driver_Shell_Eco,4d6f746f-725f-4447-9269-7665725f5368,rev?*%
%TF.SameCoordinates,Original*%
%TF.FileFunction,Paste,Bot*%
%TF.FilePolarity,Positive*%
%FSLAX46Y46*%
G04 Gerber Fmt 4.6, Leading zero omitted, Abs format (unit mm)*
G04 Created by KiCad (PCBNEW 9.0.7) date 2026-01-12 17:17:52*
%MOMM*%
%LPD*%
G01*
G04 APERTURE LIST*
G04 Aperture macros list*
%AMRoundRect*
0 Rectangle with rounded corners*
0 $1 Rounding radius*
0 $2 $3 $4 $5 $6 $7 $8 $9 X,Y pos of 4 corners*
0 Add a 4 corners polygon primitive as box body*
4,1,4,$2,$3,$4,$5,$6,$7,$8,$9,$2,$3,0*
0 Add four circle primitives for the rounded corners*
1,1,$1+$1,$2,$3*
1,1,$1+$1,$4,$5*
1,1,$1+$1,$6,$7*
1,1,$1+$1,$8,$9*
0 Add four rect primitives between the rounded corners*
20,1,$1+$1,$2,$3,$4,$5,0*
20,1,$1+$1,$4,$5,$6,$7,0*
20,1,$1+$1,$6,$7,$8,$9,0*
20,1,$1+$1,$8,$9,$2,$3,0*%
G04 Aperture macros list end*
%ADD10RoundRect,0.250000X0.475000X-0.337500X0.475000X0.337500X-0.475000X0.337500X-0.475000X-0.337500X0*%
%ADD11RoundRect,0.237500X-0.237500X0.300000X-0.237500X-0.300000X0.237500X-0.300000X0.237500X0.300000X0*%
%ADD12RoundRect,0.250000X1.100000X-0.412500X1.100000X0.412500X-1.100000X0.412500X-1.100000X-0.412500X0*%
%ADD13RoundRect,0.250000X1.000000X0.650000X-1.000000X0.650000X-1.000000X-0.650000X1.000000X-0.650000X0*%
%ADD14RoundRect,0.249999X-1.425001X0.450001X-1.425001X-0.450001X1.425001X-0.450001X1.425001X0.450001X0*%
%ADD15RoundRect,0.237500X-0.300000X-0.237500X0.300000X-0.237500X0.300000X0.237500X-0.300000X0.237500X0*%
%ADD16RoundRect,0.237500X0.237500X-0.300000X0.237500X0.300000X-0.237500X0.300000X-0.237500X-0.300000X0*%
%ADD17RoundRect,0.249999X1.425001X-0.450001X1.425001X0.450001X-1.425001X0.450001X-1.425001X-0.450001X0*%
G04 APERTURE END LIST*
D10*
%TO.C,C65*%
X168510000Y-135475000D03*
X168510000Y-133400000D03*
%TD*%
%TO.C,C66*%
X165500000Y-135475000D03*
X165500000Y-133400000D03*
%TD*%
%TO.C,C78*%
X170270000Y-33850000D03*
X170270000Y-31775000D03*
%TD*%
D11*
%TO.C,C47*%
X124355000Y-155070000D03*
X124355000Y-156795000D03*
%TD*%
D12*
%TO.C,C62*%
X177280000Y-135437500D03*
X177280000Y-132312500D03*
%TD*%
D13*
%TO.C,D4*%
X166500000Y-118825000D03*
X162500000Y-118825000D03*
%TD*%
D14*
%TO.C,R70*%
X197075000Y-75150000D03*
X197075000Y-81250000D03*
%TD*%
D10*
%TO.C,C81*%
X161240000Y-33850000D03*
X161240000Y-31775000D03*
%TD*%
D12*
%TO.C,C76*%
X176030000Y-33812500D03*
X176030000Y-30687500D03*
%TD*%
D10*
%TO.C,C58*%
X170625000Y-118400000D03*
X170625000Y-116325000D03*
%TD*%
%TO.C,C80*%
X164250000Y-33850000D03*
X164250000Y-31775000D03*
%TD*%
%TO.C,C79*%
X167260000Y-33850000D03*
X167260000Y-31775000D03*
%TD*%
D11*
%TO.C,C24*%
X125875000Y-155075000D03*
X125875000Y-156800000D03*
%TD*%
D14*
%TO.C,R61*%
X192250000Y-24300000D03*
X192250000Y-30400000D03*
%TD*%
D12*
%TO.C,C61*%
X181530000Y-135437500D03*
X181530000Y-132312500D03*
%TD*%
D10*
%TO.C,C70*%
X174055000Y-84725000D03*
X174055000Y-82650000D03*
%TD*%
%TO.C,C59*%
X169850000Y-67575000D03*
X169850000Y-65500000D03*
%TD*%
%TO.C,C63*%
X174530000Y-135475000D03*
X174530000Y-133400000D03*
%TD*%
D15*
%TO.C,C19*%
X128217500Y-164360000D03*
X129942500Y-164360000D03*
%TD*%
D10*
%TO.C,C60*%
X171100000Y-169150000D03*
X171100000Y-167075000D03*
%TD*%
%TO.C,C73*%
X165025000Y-84725000D03*
X165025000Y-82650000D03*
%TD*%
D12*
%TO.C,C69*%
X176805000Y-84687500D03*
X176805000Y-81562500D03*
%TD*%
D10*
%TO.C,C74*%
X162015000Y-84725000D03*
X162015000Y-82650000D03*
%TD*%
%TO.C,C72*%
X168035000Y-84725000D03*
X168035000Y-82650000D03*
%TD*%
D14*
%TO.C,R66*%
X193500000Y-125925000D03*
X193500000Y-132025000D03*
%TD*%
D16*
%TO.C,C22*%
X125425000Y-161325000D03*
X125425000Y-159600000D03*
%TD*%
D15*
%TO.C,C18*%
X128217500Y-165860000D03*
X129942500Y-165860000D03*
%TD*%
D16*
%TO.C,C21*%
X126925000Y-161325000D03*
X126925000Y-159600000D03*
%TD*%
D13*
%TO.C,D7*%
X166975000Y-169575000D03*
X162975000Y-169575000D03*
%TD*%
D10*
%TO.C,C64*%
X171520000Y-135475000D03*
X171520000Y-133400000D03*
%TD*%
D11*
%TO.C,C46*%
X122885000Y-155070000D03*
X122885000Y-156795000D03*
%TD*%
D12*
%TO.C,C68*%
X181055000Y-84687500D03*
X181055000Y-81562500D03*
%TD*%
%TO.C,C75*%
X180280000Y-33812500D03*
X180280000Y-30687500D03*
%TD*%
D17*
%TO.C,R71*%
X197500000Y-132025000D03*
X197500000Y-125925000D03*
%TD*%
D14*
%TO.C,R38*%
X193025000Y-75175000D03*
X193025000Y-81275000D03*
%TD*%
D10*
%TO.C,C67*%
X162490000Y-135475000D03*
X162490000Y-133400000D03*
%TD*%
%TO.C,C71*%
X171045000Y-84725000D03*
X171045000Y-82650000D03*
%TD*%
%TO.C,C77*%
X173280000Y-33850000D03*
X173280000Y-31775000D03*
%TD*%
D14*
%TO.C,R72*%
X196400000Y-24300000D03*
X196400000Y-30400000D03*
%TD*%
D15*
%TO.C,C20*%
X128217500Y-162860000D03*
X129942500Y-162860000D03*
%TD*%
D13*
%TO.C,D5*%
X165725000Y-67950000D03*
X161725000Y-67950000D03*
%TD*%
D16*
%TO.C,C23*%
X123925000Y-161325000D03*
X123925000Y-159600000D03*
%TD*%
M02*
