%TF.GenerationSoftware,KiCad,Pcbnew,9.0.7*%
%TF.CreationDate,2026-01-12T17:17:52+03:00*%
%TF.ProjectId,Motor_Driver_Shell_Eco,4d6f746f-725f-4447-9269-7665725f5368,rev?*%
%TF.SameCoordinates,Original*%
%TF.FileFunction,Paste,Top*%
%TF.FilePolarity,Positive*%
%FSLAX46Y46*%
G04 Gerber Fmt 4.6, Leading zero omitted, Abs format (unit mm)*
G04 Created by KiCad (PCBNEW 9.0.7) date 2026-01-12 17:17:52*
%MOMM*%
%LPD*%
G01*
G04 APERTURE LIST*
G04 Aperture macros list*
%AMRoundRect*
0 Rectangle with rounded corners*
0 $1 Rounding radius*
0 $2 $3 $4 $5 $6 $7 $8 $9 X,Y pos of 4 corners*
0 Add a 4 corners polygon primitive as box body*
4,1,4,$2,$3,$4,$5,$6,$7,$8,$9,$2,$3,0*
0 Add four circle primitives for the rounded corners*
1,1,$1+$1,$2,$3*
1,1,$1+$1,$4,$5*
1,1,$1+$1,$6,$7*
1,1,$1+$1,$8,$9*
0 Add four rect primitives between the rounded corners*
20,1,$1+$1,$2,$3,$4,$5,0*
20,1,$1+$1,$4,$5,$6,$7,0*
20,1,$1+$1,$6,$7,$8,$9,0*
20,1,$1+$1,$8,$9,$2,$3,0*%
G04 Aperture macros list end*
%ADD10C,0.010000*%
%ADD11RoundRect,0.250000X1.100000X-0.412500X1.100000X0.412500X-1.100000X0.412500X-1.100000X-0.412500X0*%
%ADD12RoundRect,0.237500X-0.250000X-0.237500X0.250000X-0.237500X0.250000X0.237500X-0.250000X0.237500X0*%
%ADD13RoundRect,0.237500X0.300000X0.237500X-0.300000X0.237500X-0.300000X-0.237500X0.300000X-0.237500X0*%
%ADD14RoundRect,0.237500X-0.237500X0.300000X-0.237500X-0.300000X0.237500X-0.300000X0.237500X0.300000X0*%
%ADD15RoundRect,0.237500X-0.300000X-0.237500X0.300000X-0.237500X0.300000X0.237500X-0.300000X0.237500X0*%
%ADD16RoundRect,0.237500X0.237500X-0.250000X0.237500X0.250000X-0.237500X0.250000X-0.237500X-0.250000X0*%
%ADD17RoundRect,0.237500X0.237500X-0.300000X0.237500X0.300000X-0.237500X0.300000X-0.237500X-0.300000X0*%
%ADD18RoundRect,0.237500X0.250000X0.237500X-0.250000X0.237500X-0.250000X-0.237500X0.250000X-0.237500X0*%
%ADD19RoundRect,0.250000X-0.350000X-0.450000X0.350000X-0.450000X0.350000X0.450000X-0.350000X0.450000X0*%
%ADD20RoundRect,0.155000X0.155000X-0.212500X0.155000X0.212500X-0.155000X0.212500X-0.155000X-0.212500X0*%
%ADD21RoundRect,0.237500X-0.237500X0.250000X-0.237500X-0.250000X0.237500X-0.250000X0.237500X0.250000X0*%
%ADD22RoundRect,0.250000X-0.337500X-0.475000X0.337500X-0.475000X0.337500X0.475000X-0.337500X0.475000X0*%
%ADD23RoundRect,0.075000X0.725000X0.075000X-0.725000X0.075000X-0.725000X-0.075000X0.725000X-0.075000X0*%
%ADD24RoundRect,0.075000X0.075000X0.725000X-0.075000X0.725000X-0.075000X-0.725000X0.075000X-0.725000X0*%
%ADD25RoundRect,0.160000X-0.160000X0.197500X-0.160000X-0.197500X0.160000X-0.197500X0.160000X0.197500X0*%
%ADD26RoundRect,0.150000X0.825000X0.150000X-0.825000X0.150000X-0.825000X-0.150000X0.825000X-0.150000X0*%
%ADD27RoundRect,0.100000X-0.100000X0.680000X-0.100000X-0.680000X0.100000X-0.680000X0.100000X0.680000X0*%
%ADD28RoundRect,0.250000X0.450000X-0.350000X0.450000X0.350000X-0.450000X0.350000X-0.450000X-0.350000X0*%
%ADD29RoundRect,0.150000X-0.512500X-0.150000X0.512500X-0.150000X0.512500X0.150000X-0.512500X0.150000X0*%
%ADD30RoundRect,0.150000X0.150000X-0.587500X0.150000X0.587500X-0.150000X0.587500X-0.150000X-0.587500X0*%
%ADD31RoundRect,0.150000X-0.825000X-0.150000X0.825000X-0.150000X0.825000X0.150000X-0.825000X0.150000X0*%
%ADD32RoundRect,0.160000X0.160000X-0.197500X0.160000X0.197500X-0.160000X0.197500X-0.160000X-0.197500X0*%
%ADD33RoundRect,0.150000X0.150000X-0.512500X0.150000X0.512500X-0.150000X0.512500X-0.150000X-0.512500X0*%
%ADD34RoundRect,0.250001X-0.462499X-1.074999X0.462499X-1.074999X0.462499X1.074999X-0.462499X1.074999X0*%
%ADD35RoundRect,0.250000X-0.460000X0.315000X-0.460000X-0.315000X0.460000X-0.315000X0.460000X0.315000X0*%
%ADD36RoundRect,0.150000X-0.150000X0.737500X-0.150000X-0.737500X0.150000X-0.737500X0.150000X0.737500X0*%
%ADD37RoundRect,0.150000X0.512500X0.150000X-0.512500X0.150000X-0.512500X-0.150000X0.512500X-0.150000X0*%
%ADD38RoundRect,0.150000X-0.425000X0.150000X-0.425000X-0.150000X0.425000X-0.150000X0.425000X0.150000X0*%
%ADD39RoundRect,0.075000X-0.500000X0.075000X-0.500000X-0.075000X0.500000X-0.075000X0.500000X0.075000X0*%
%ADD40O,2.100000X1.000000*%
%ADD41O,1.800000X1.000000*%
G04 APERTURE END LIST*
D10*
%TO.C,Q16*%
X180200000Y-154975000D02*
X179350000Y-154975000D01*
X179350000Y-150475000D01*
X180200000Y-150475000D01*
X180200000Y-154975000D01*
G36*
X180200000Y-154975000D02*
G01*
X179350000Y-154975000D01*
X179350000Y-150475000D01*
X180200000Y-150475000D01*
X180200000Y-154975000D01*
G37*
X180200000Y-159975000D02*
X179350000Y-159975000D01*
X179350000Y-155475000D01*
X180200000Y-155475000D01*
X180200000Y-159975000D01*
G36*
X180200000Y-159975000D02*
G01*
X179350000Y-159975000D01*
X179350000Y-155475000D01*
X180200000Y-155475000D01*
X180200000Y-159975000D01*
G37*
X182000000Y-154975000D02*
X180900000Y-154975000D01*
X180900000Y-150975000D01*
X182000000Y-150975000D01*
X182000000Y-154975000D01*
G36*
X182000000Y-154975000D02*
G01*
X180900000Y-154975000D01*
X180900000Y-150975000D01*
X182000000Y-150975000D01*
X182000000Y-154975000D01*
G37*
X182000000Y-159475000D02*
X180900000Y-159475000D01*
X180900000Y-155475000D01*
X182000000Y-155475000D01*
X182000000Y-159475000D01*
G36*
X182000000Y-159475000D02*
G01*
X180900000Y-159475000D01*
X180900000Y-155475000D01*
X182000000Y-155475000D01*
X182000000Y-159475000D01*
G37*
X183800000Y-154975000D02*
X182700000Y-154975000D01*
X182700000Y-150975000D01*
X183800000Y-150975000D01*
X183800000Y-154975000D01*
G36*
X183800000Y-154975000D02*
G01*
X182700000Y-154975000D01*
X182700000Y-150975000D01*
X183800000Y-150975000D01*
X183800000Y-154975000D01*
G37*
X183800000Y-159475000D02*
X182700000Y-159475000D01*
X182700000Y-155475000D01*
X183800000Y-155475000D01*
X183800000Y-159475000D01*
G36*
X183800000Y-159475000D02*
G01*
X182700000Y-159475000D01*
X182700000Y-155475000D01*
X183800000Y-155475000D01*
X183800000Y-159475000D01*
G37*
X185600000Y-154975000D02*
X184500000Y-154975000D01*
X184500000Y-150475000D01*
X185600000Y-150475000D01*
X185600000Y-154975000D01*
G36*
X185600000Y-154975000D02*
G01*
X184500000Y-154975000D01*
X184500000Y-150475000D01*
X185600000Y-150475000D01*
X185600000Y-154975000D01*
G37*
X185600000Y-159975000D02*
X184500000Y-159975000D01*
X184500000Y-155475000D01*
X185600000Y-155475000D01*
X185600000Y-159975000D01*
G36*
X185600000Y-159975000D02*
G01*
X184500000Y-159975000D01*
X184500000Y-155475000D01*
X185600000Y-155475000D01*
X185600000Y-159975000D01*
G37*
X187150000Y-154975000D02*
X186300000Y-154975000D01*
X186300000Y-150475000D01*
X187150000Y-150475000D01*
X187150000Y-154975000D01*
G36*
X187150000Y-154975000D02*
G01*
X186300000Y-154975000D01*
X186300000Y-150475000D01*
X187150000Y-150475000D01*
X187150000Y-154975000D01*
G37*
X187150000Y-159975000D02*
X186300000Y-159975000D01*
X186300000Y-155475000D01*
X187150000Y-155475000D01*
X187150000Y-159975000D01*
G36*
X187150000Y-159975000D02*
G01*
X186300000Y-159975000D01*
X186300000Y-155475000D01*
X187150000Y-155475000D01*
X187150000Y-159975000D01*
G37*
X192225000Y-151425000D02*
X189525000Y-151425000D01*
X189525000Y-150625000D01*
X192225000Y-150625000D01*
X192225000Y-151425000D01*
G36*
X192225000Y-151425000D02*
G01*
X189525000Y-151425000D01*
X189525000Y-150625000D01*
X192225000Y-150625000D01*
X192225000Y-151425000D01*
G37*
X192225000Y-152625000D02*
X189525000Y-152625000D01*
X189525000Y-151825000D01*
X192225000Y-151825000D01*
X192225000Y-152625000D01*
G36*
X192225000Y-152625000D02*
G01*
X189525000Y-152625000D01*
X189525000Y-151825000D01*
X192225000Y-151825000D01*
X192225000Y-152625000D01*
G37*
X192225000Y-153825000D02*
X189525000Y-153825000D01*
X189525000Y-153025000D01*
X192225000Y-153025000D01*
X192225000Y-153825000D01*
G36*
X192225000Y-153825000D02*
G01*
X189525000Y-153825000D01*
X189525000Y-153025000D01*
X192225000Y-153025000D01*
X192225000Y-153825000D01*
G37*
X192225000Y-155025000D02*
X189525000Y-155025000D01*
X189525000Y-154225000D01*
X192225000Y-154225000D01*
X192225000Y-155025000D01*
G36*
X192225000Y-155025000D02*
G01*
X189525000Y-155025000D01*
X189525000Y-154225000D01*
X192225000Y-154225000D01*
X192225000Y-155025000D01*
G37*
X192225000Y-156225000D02*
X189525000Y-156225000D01*
X189525000Y-155425000D01*
X192225000Y-155425000D01*
X192225000Y-156225000D01*
G36*
X192225000Y-156225000D02*
G01*
X189525000Y-156225000D01*
X189525000Y-155425000D01*
X192225000Y-155425000D01*
X192225000Y-156225000D01*
G37*
X192225000Y-157425000D02*
X189525000Y-157425000D01*
X189525000Y-156625000D01*
X192225000Y-156625000D01*
X192225000Y-157425000D01*
G36*
X192225000Y-157425000D02*
G01*
X189525000Y-157425000D01*
X189525000Y-156625000D01*
X192225000Y-156625000D01*
X192225000Y-157425000D01*
G37*
X192225000Y-158625000D02*
X189525000Y-158625000D01*
X189525000Y-157825000D01*
X192225000Y-157825000D01*
X192225000Y-158625000D01*
G36*
X192225000Y-158625000D02*
G01*
X189525000Y-158625000D01*
X189525000Y-157825000D01*
X192225000Y-157825000D01*
X192225000Y-158625000D01*
G37*
X192225000Y-159825000D02*
X189525000Y-159825000D01*
X189525000Y-159025000D01*
X192225000Y-159025000D01*
X192225000Y-159825000D01*
G36*
X192225000Y-159825000D02*
G01*
X189525000Y-159825000D01*
X189525000Y-159025000D01*
X192225000Y-159025000D01*
X192225000Y-159825000D01*
G37*
%TO.C,Q19*%
X178950000Y-53350000D02*
X178100000Y-53350000D01*
X178100000Y-48850000D01*
X178950000Y-48850000D01*
X178950000Y-53350000D01*
G36*
X178950000Y-53350000D02*
G01*
X178100000Y-53350000D01*
X178100000Y-48850000D01*
X178950000Y-48850000D01*
X178950000Y-53350000D01*
G37*
X178950000Y-58350000D02*
X178100000Y-58350000D01*
X178100000Y-53850000D01*
X178950000Y-53850000D01*
X178950000Y-58350000D01*
G36*
X178950000Y-58350000D02*
G01*
X178100000Y-58350000D01*
X178100000Y-53850000D01*
X178950000Y-53850000D01*
X178950000Y-58350000D01*
G37*
X180750000Y-53350000D02*
X179650000Y-53350000D01*
X179650000Y-49350000D01*
X180750000Y-49350000D01*
X180750000Y-53350000D01*
G36*
X180750000Y-53350000D02*
G01*
X179650000Y-53350000D01*
X179650000Y-49350000D01*
X180750000Y-49350000D01*
X180750000Y-53350000D01*
G37*
X180750000Y-57850000D02*
X179650000Y-57850000D01*
X179650000Y-53850000D01*
X180750000Y-53850000D01*
X180750000Y-57850000D01*
G36*
X180750000Y-57850000D02*
G01*
X179650000Y-57850000D01*
X179650000Y-53850000D01*
X180750000Y-53850000D01*
X180750000Y-57850000D01*
G37*
X182550000Y-53350000D02*
X181450000Y-53350000D01*
X181450000Y-49350000D01*
X182550000Y-49350000D01*
X182550000Y-53350000D01*
G36*
X182550000Y-53350000D02*
G01*
X181450000Y-53350000D01*
X181450000Y-49350000D01*
X182550000Y-49350000D01*
X182550000Y-53350000D01*
G37*
X182550000Y-57850000D02*
X181450000Y-57850000D01*
X181450000Y-53850000D01*
X182550000Y-53850000D01*
X182550000Y-57850000D01*
G36*
X182550000Y-57850000D02*
G01*
X181450000Y-57850000D01*
X181450000Y-53850000D01*
X182550000Y-53850000D01*
X182550000Y-57850000D01*
G37*
X184350000Y-53350000D02*
X183250000Y-53350000D01*
X183250000Y-48850000D01*
X184350000Y-48850000D01*
X184350000Y-53350000D01*
G36*
X184350000Y-53350000D02*
G01*
X183250000Y-53350000D01*
X183250000Y-48850000D01*
X184350000Y-48850000D01*
X184350000Y-53350000D01*
G37*
X184350000Y-58350000D02*
X183250000Y-58350000D01*
X183250000Y-53850000D01*
X184350000Y-53850000D01*
X184350000Y-58350000D01*
G36*
X184350000Y-58350000D02*
G01*
X183250000Y-58350000D01*
X183250000Y-53850000D01*
X184350000Y-53850000D01*
X184350000Y-58350000D01*
G37*
X185900000Y-53350000D02*
X185050000Y-53350000D01*
X185050000Y-48850000D01*
X185900000Y-48850000D01*
X185900000Y-53350000D01*
G36*
X185900000Y-53350000D02*
G01*
X185050000Y-53350000D01*
X185050000Y-48850000D01*
X185900000Y-48850000D01*
X185900000Y-53350000D01*
G37*
X185900000Y-58350000D02*
X185050000Y-58350000D01*
X185050000Y-53850000D01*
X185900000Y-53850000D01*
X185900000Y-58350000D01*
G36*
X185900000Y-58350000D02*
G01*
X185050000Y-58350000D01*
X185050000Y-53850000D01*
X185900000Y-53850000D01*
X185900000Y-58350000D01*
G37*
X190975000Y-49800000D02*
X188275000Y-49800000D01*
X188275000Y-49000000D01*
X190975000Y-49000000D01*
X190975000Y-49800000D01*
G36*
X190975000Y-49800000D02*
G01*
X188275000Y-49800000D01*
X188275000Y-49000000D01*
X190975000Y-49000000D01*
X190975000Y-49800000D01*
G37*
X190975000Y-51000000D02*
X188275000Y-51000000D01*
X188275000Y-50200000D01*
X190975000Y-50200000D01*
X190975000Y-51000000D01*
G36*
X190975000Y-51000000D02*
G01*
X188275000Y-51000000D01*
X188275000Y-50200000D01*
X190975000Y-50200000D01*
X190975000Y-51000000D01*
G37*
X190975000Y-52200000D02*
X188275000Y-52200000D01*
X188275000Y-51400000D01*
X190975000Y-51400000D01*
X190975000Y-52200000D01*
G36*
X190975000Y-52200000D02*
G01*
X188275000Y-52200000D01*
X188275000Y-51400000D01*
X190975000Y-51400000D01*
X190975000Y-52200000D01*
G37*
X190975000Y-53400000D02*
X188275000Y-53400000D01*
X188275000Y-52600000D01*
X190975000Y-52600000D01*
X190975000Y-53400000D01*
G36*
X190975000Y-53400000D02*
G01*
X188275000Y-53400000D01*
X188275000Y-52600000D01*
X190975000Y-52600000D01*
X190975000Y-53400000D01*
G37*
X190975000Y-54600000D02*
X188275000Y-54600000D01*
X188275000Y-53800000D01*
X190975000Y-53800000D01*
X190975000Y-54600000D01*
G36*
X190975000Y-54600000D02*
G01*
X188275000Y-54600000D01*
X188275000Y-53800000D01*
X190975000Y-53800000D01*
X190975000Y-54600000D01*
G37*
X190975000Y-55800000D02*
X188275000Y-55800000D01*
X188275000Y-55000000D01*
X190975000Y-55000000D01*
X190975000Y-55800000D01*
G36*
X190975000Y-55800000D02*
G01*
X188275000Y-55800000D01*
X188275000Y-55000000D01*
X190975000Y-55000000D01*
X190975000Y-55800000D01*
G37*
X190975000Y-57000000D02*
X188275000Y-57000000D01*
X188275000Y-56200000D01*
X190975000Y-56200000D01*
X190975000Y-57000000D01*
G36*
X190975000Y-57000000D02*
G01*
X188275000Y-57000000D01*
X188275000Y-56200000D01*
X190975000Y-56200000D01*
X190975000Y-57000000D01*
G37*
X190975000Y-58200000D02*
X188275000Y-58200000D01*
X188275000Y-57400000D01*
X190975000Y-57400000D01*
X190975000Y-58200000D01*
G36*
X190975000Y-58200000D02*
G01*
X188275000Y-58200000D01*
X188275000Y-57400000D01*
X190975000Y-57400000D01*
X190975000Y-58200000D01*
G37*
%TO.C,Q18*%
X159575000Y-40600000D02*
X158725000Y-40600000D01*
X158725000Y-36100000D01*
X159575000Y-36100000D01*
X159575000Y-40600000D01*
G36*
X159575000Y-40600000D02*
G01*
X158725000Y-40600000D01*
X158725000Y-36100000D01*
X159575000Y-36100000D01*
X159575000Y-40600000D01*
G37*
X159575000Y-45600000D02*
X158725000Y-45600000D01*
X158725000Y-41100000D01*
X159575000Y-41100000D01*
X159575000Y-45600000D01*
G36*
X159575000Y-45600000D02*
G01*
X158725000Y-45600000D01*
X158725000Y-41100000D01*
X159575000Y-41100000D01*
X159575000Y-45600000D01*
G37*
X161375000Y-40600000D02*
X160275000Y-40600000D01*
X160275000Y-36600000D01*
X161375000Y-36600000D01*
X161375000Y-40600000D01*
G36*
X161375000Y-40600000D02*
G01*
X160275000Y-40600000D01*
X160275000Y-36600000D01*
X161375000Y-36600000D01*
X161375000Y-40600000D01*
G37*
X161375000Y-45100000D02*
X160275000Y-45100000D01*
X160275000Y-41100000D01*
X161375000Y-41100000D01*
X161375000Y-45100000D01*
G36*
X161375000Y-45100000D02*
G01*
X160275000Y-45100000D01*
X160275000Y-41100000D01*
X161375000Y-41100000D01*
X161375000Y-45100000D01*
G37*
X163175000Y-40600000D02*
X162075000Y-40600000D01*
X162075000Y-36600000D01*
X163175000Y-36600000D01*
X163175000Y-40600000D01*
G36*
X163175000Y-40600000D02*
G01*
X162075000Y-40600000D01*
X162075000Y-36600000D01*
X163175000Y-36600000D01*
X163175000Y-40600000D01*
G37*
X163175000Y-45100000D02*
X162075000Y-45100000D01*
X162075000Y-41100000D01*
X163175000Y-41100000D01*
X163175000Y-45100000D01*
G36*
X163175000Y-45100000D02*
G01*
X162075000Y-45100000D01*
X162075000Y-41100000D01*
X163175000Y-41100000D01*
X163175000Y-45100000D01*
G37*
X164975000Y-40600000D02*
X163875000Y-40600000D01*
X163875000Y-36100000D01*
X164975000Y-36100000D01*
X164975000Y-40600000D01*
G36*
X164975000Y-40600000D02*
G01*
X163875000Y-40600000D01*
X163875000Y-36100000D01*
X164975000Y-36100000D01*
X164975000Y-40600000D01*
G37*
X164975000Y-45600000D02*
X163875000Y-45600000D01*
X163875000Y-41100000D01*
X164975000Y-41100000D01*
X164975000Y-45600000D01*
G36*
X164975000Y-45600000D02*
G01*
X163875000Y-45600000D01*
X163875000Y-41100000D01*
X164975000Y-41100000D01*
X164975000Y-45600000D01*
G37*
X166525000Y-40600000D02*
X165675000Y-40600000D01*
X165675000Y-36100000D01*
X166525000Y-36100000D01*
X166525000Y-40600000D01*
G36*
X166525000Y-40600000D02*
G01*
X165675000Y-40600000D01*
X165675000Y-36100000D01*
X166525000Y-36100000D01*
X166525000Y-40600000D01*
G37*
X166525000Y-45600000D02*
X165675000Y-45600000D01*
X165675000Y-41100000D01*
X166525000Y-41100000D01*
X166525000Y-45600000D01*
G36*
X166525000Y-45600000D02*
G01*
X165675000Y-45600000D01*
X165675000Y-41100000D01*
X166525000Y-41100000D01*
X166525000Y-45600000D01*
G37*
X171600000Y-37050000D02*
X168900000Y-37050000D01*
X168900000Y-36250000D01*
X171600000Y-36250000D01*
X171600000Y-37050000D01*
G36*
X171600000Y-37050000D02*
G01*
X168900000Y-37050000D01*
X168900000Y-36250000D01*
X171600000Y-36250000D01*
X171600000Y-37050000D01*
G37*
X171600000Y-38250000D02*
X168900000Y-38250000D01*
X168900000Y-37450000D01*
X171600000Y-37450000D01*
X171600000Y-38250000D01*
G36*
X171600000Y-38250000D02*
G01*
X168900000Y-38250000D01*
X168900000Y-37450000D01*
X171600000Y-37450000D01*
X171600000Y-38250000D01*
G37*
X171600000Y-39450000D02*
X168900000Y-39450000D01*
X168900000Y-38650000D01*
X171600000Y-38650000D01*
X171600000Y-39450000D01*
G36*
X171600000Y-39450000D02*
G01*
X168900000Y-39450000D01*
X168900000Y-38650000D01*
X171600000Y-38650000D01*
X171600000Y-39450000D01*
G37*
X171600000Y-40650000D02*
X168900000Y-40650000D01*
X168900000Y-39850000D01*
X171600000Y-39850000D01*
X171600000Y-40650000D01*
G36*
X171600000Y-40650000D02*
G01*
X168900000Y-40650000D01*
X168900000Y-39850000D01*
X171600000Y-39850000D01*
X171600000Y-40650000D01*
G37*
X171600000Y-41850000D02*
X168900000Y-41850000D01*
X168900000Y-41050000D01*
X171600000Y-41050000D01*
X171600000Y-41850000D01*
G36*
X171600000Y-41850000D02*
G01*
X168900000Y-41850000D01*
X168900000Y-41050000D01*
X171600000Y-41050000D01*
X171600000Y-41850000D01*
G37*
X171600000Y-43050000D02*
X168900000Y-43050000D01*
X168900000Y-42250000D01*
X171600000Y-42250000D01*
X171600000Y-43050000D01*
G36*
X171600000Y-43050000D02*
G01*
X168900000Y-43050000D01*
X168900000Y-42250000D01*
X171600000Y-42250000D01*
X171600000Y-43050000D01*
G37*
X171600000Y-44250000D02*
X168900000Y-44250000D01*
X168900000Y-43450000D01*
X171600000Y-43450000D01*
X171600000Y-44250000D01*
G36*
X171600000Y-44250000D02*
G01*
X168900000Y-44250000D01*
X168900000Y-43450000D01*
X171600000Y-43450000D01*
X171600000Y-44250000D01*
G37*
X171600000Y-45450000D02*
X168900000Y-45450000D01*
X168900000Y-44650000D01*
X171600000Y-44650000D01*
X171600000Y-45450000D01*
G36*
X171600000Y-45450000D02*
G01*
X168900000Y-45450000D01*
X168900000Y-44650000D01*
X171600000Y-44650000D01*
X171600000Y-45450000D01*
G37*
%TO.C,Q7*%
X179725000Y-91475000D02*
X178875000Y-91475000D01*
X178875000Y-86975000D01*
X179725000Y-86975000D01*
X179725000Y-91475000D01*
G36*
X179725000Y-91475000D02*
G01*
X178875000Y-91475000D01*
X178875000Y-86975000D01*
X179725000Y-86975000D01*
X179725000Y-91475000D01*
G37*
X179725000Y-96475000D02*
X178875000Y-96475000D01*
X178875000Y-91975000D01*
X179725000Y-91975000D01*
X179725000Y-96475000D01*
G36*
X179725000Y-96475000D02*
G01*
X178875000Y-96475000D01*
X178875000Y-91975000D01*
X179725000Y-91975000D01*
X179725000Y-96475000D01*
G37*
X181525000Y-91475000D02*
X180425000Y-91475000D01*
X180425000Y-87475000D01*
X181525000Y-87475000D01*
X181525000Y-91475000D01*
G36*
X181525000Y-91475000D02*
G01*
X180425000Y-91475000D01*
X180425000Y-87475000D01*
X181525000Y-87475000D01*
X181525000Y-91475000D01*
G37*
X181525000Y-95975000D02*
X180425000Y-95975000D01*
X180425000Y-91975000D01*
X181525000Y-91975000D01*
X181525000Y-95975000D01*
G36*
X181525000Y-95975000D02*
G01*
X180425000Y-95975000D01*
X180425000Y-91975000D01*
X181525000Y-91975000D01*
X181525000Y-95975000D01*
G37*
X183325000Y-91475000D02*
X182225000Y-91475000D01*
X182225000Y-87475000D01*
X183325000Y-87475000D01*
X183325000Y-91475000D01*
G36*
X183325000Y-91475000D02*
G01*
X182225000Y-91475000D01*
X182225000Y-87475000D01*
X183325000Y-87475000D01*
X183325000Y-91475000D01*
G37*
X183325000Y-95975000D02*
X182225000Y-95975000D01*
X182225000Y-91975000D01*
X183325000Y-91975000D01*
X183325000Y-95975000D01*
G36*
X183325000Y-95975000D02*
G01*
X182225000Y-95975000D01*
X182225000Y-91975000D01*
X183325000Y-91975000D01*
X183325000Y-95975000D01*
G37*
X185125000Y-91475000D02*
X184025000Y-91475000D01*
X184025000Y-86975000D01*
X185125000Y-86975000D01*
X185125000Y-91475000D01*
G36*
X185125000Y-91475000D02*
G01*
X184025000Y-91475000D01*
X184025000Y-86975000D01*
X185125000Y-86975000D01*
X185125000Y-91475000D01*
G37*
X185125000Y-96475000D02*
X184025000Y-96475000D01*
X184025000Y-91975000D01*
X185125000Y-91975000D01*
X185125000Y-96475000D01*
G36*
X185125000Y-96475000D02*
G01*
X184025000Y-96475000D01*
X184025000Y-91975000D01*
X185125000Y-91975000D01*
X185125000Y-96475000D01*
G37*
X186675000Y-91475000D02*
X185825000Y-91475000D01*
X185825000Y-86975000D01*
X186675000Y-86975000D01*
X186675000Y-91475000D01*
G36*
X186675000Y-91475000D02*
G01*
X185825000Y-91475000D01*
X185825000Y-86975000D01*
X186675000Y-86975000D01*
X186675000Y-91475000D01*
G37*
X186675000Y-96475000D02*
X185825000Y-96475000D01*
X185825000Y-91975000D01*
X186675000Y-91975000D01*
X186675000Y-96475000D01*
G36*
X186675000Y-96475000D02*
G01*
X185825000Y-96475000D01*
X185825000Y-91975000D01*
X186675000Y-91975000D01*
X186675000Y-96475000D01*
G37*
X191750000Y-87925000D02*
X189050000Y-87925000D01*
X189050000Y-87125000D01*
X191750000Y-87125000D01*
X191750000Y-87925000D01*
G36*
X191750000Y-87925000D02*
G01*
X189050000Y-87925000D01*
X189050000Y-87125000D01*
X191750000Y-87125000D01*
X191750000Y-87925000D01*
G37*
X191750000Y-89125000D02*
X189050000Y-89125000D01*
X189050000Y-88325000D01*
X191750000Y-88325000D01*
X191750000Y-89125000D01*
G36*
X191750000Y-89125000D02*
G01*
X189050000Y-89125000D01*
X189050000Y-88325000D01*
X191750000Y-88325000D01*
X191750000Y-89125000D01*
G37*
X191750000Y-90325000D02*
X189050000Y-90325000D01*
X189050000Y-89525000D01*
X191750000Y-89525000D01*
X191750000Y-90325000D01*
G36*
X191750000Y-90325000D02*
G01*
X189050000Y-90325000D01*
X189050000Y-89525000D01*
X191750000Y-89525000D01*
X191750000Y-90325000D01*
G37*
X191750000Y-91525000D02*
X189050000Y-91525000D01*
X189050000Y-90725000D01*
X191750000Y-90725000D01*
X191750000Y-91525000D01*
G36*
X191750000Y-91525000D02*
G01*
X189050000Y-91525000D01*
X189050000Y-90725000D01*
X191750000Y-90725000D01*
X191750000Y-91525000D01*
G37*
X191750000Y-92725000D02*
X189050000Y-92725000D01*
X189050000Y-91925000D01*
X191750000Y-91925000D01*
X191750000Y-92725000D01*
G36*
X191750000Y-92725000D02*
G01*
X189050000Y-92725000D01*
X189050000Y-91925000D01*
X191750000Y-91925000D01*
X191750000Y-92725000D01*
G37*
X191750000Y-93925000D02*
X189050000Y-93925000D01*
X189050000Y-93125000D01*
X191750000Y-93125000D01*
X191750000Y-93925000D01*
G36*
X191750000Y-93925000D02*
G01*
X189050000Y-93925000D01*
X189050000Y-93125000D01*
X191750000Y-93125000D01*
X191750000Y-93925000D01*
G37*
X191750000Y-95125000D02*
X189050000Y-95125000D01*
X189050000Y-94325000D01*
X191750000Y-94325000D01*
X191750000Y-95125000D01*
G36*
X191750000Y-95125000D02*
G01*
X189050000Y-95125000D01*
X189050000Y-94325000D01*
X191750000Y-94325000D01*
X191750000Y-95125000D01*
G37*
X191750000Y-96325000D02*
X189050000Y-96325000D01*
X189050000Y-95525000D01*
X191750000Y-95525000D01*
X191750000Y-96325000D01*
G36*
X191750000Y-96325000D02*
G01*
X189050000Y-96325000D01*
X189050000Y-95525000D01*
X191750000Y-95525000D01*
X191750000Y-96325000D01*
G37*
%TO.C,Q20*%
X159575000Y-53350000D02*
X158725000Y-53350000D01*
X158725000Y-48850000D01*
X159575000Y-48850000D01*
X159575000Y-53350000D01*
G36*
X159575000Y-53350000D02*
G01*
X158725000Y-53350000D01*
X158725000Y-48850000D01*
X159575000Y-48850000D01*
X159575000Y-53350000D01*
G37*
X159575000Y-58350000D02*
X158725000Y-58350000D01*
X158725000Y-53850000D01*
X159575000Y-53850000D01*
X159575000Y-58350000D01*
G36*
X159575000Y-58350000D02*
G01*
X158725000Y-58350000D01*
X158725000Y-53850000D01*
X159575000Y-53850000D01*
X159575000Y-58350000D01*
G37*
X161375000Y-53350000D02*
X160275000Y-53350000D01*
X160275000Y-49350000D01*
X161375000Y-49350000D01*
X161375000Y-53350000D01*
G36*
X161375000Y-53350000D02*
G01*
X160275000Y-53350000D01*
X160275000Y-49350000D01*
X161375000Y-49350000D01*
X161375000Y-53350000D01*
G37*
X161375000Y-57850000D02*
X160275000Y-57850000D01*
X160275000Y-53850000D01*
X161375000Y-53850000D01*
X161375000Y-57850000D01*
G36*
X161375000Y-57850000D02*
G01*
X160275000Y-57850000D01*
X160275000Y-53850000D01*
X161375000Y-53850000D01*
X161375000Y-57850000D01*
G37*
X163175000Y-53350000D02*
X162075000Y-53350000D01*
X162075000Y-49350000D01*
X163175000Y-49350000D01*
X163175000Y-53350000D01*
G36*
X163175000Y-53350000D02*
G01*
X162075000Y-53350000D01*
X162075000Y-49350000D01*
X163175000Y-49350000D01*
X163175000Y-53350000D01*
G37*
X163175000Y-57850000D02*
X162075000Y-57850000D01*
X162075000Y-53850000D01*
X163175000Y-53850000D01*
X163175000Y-57850000D01*
G36*
X163175000Y-57850000D02*
G01*
X162075000Y-57850000D01*
X162075000Y-53850000D01*
X163175000Y-53850000D01*
X163175000Y-57850000D01*
G37*
X164975000Y-53350000D02*
X163875000Y-53350000D01*
X163875000Y-48850000D01*
X164975000Y-48850000D01*
X164975000Y-53350000D01*
G36*
X164975000Y-53350000D02*
G01*
X163875000Y-53350000D01*
X163875000Y-48850000D01*
X164975000Y-48850000D01*
X164975000Y-53350000D01*
G37*
X164975000Y-58350000D02*
X163875000Y-58350000D01*
X163875000Y-53850000D01*
X164975000Y-53850000D01*
X164975000Y-58350000D01*
G36*
X164975000Y-58350000D02*
G01*
X163875000Y-58350000D01*
X163875000Y-53850000D01*
X164975000Y-53850000D01*
X164975000Y-58350000D01*
G37*
X166525000Y-53350000D02*
X165675000Y-53350000D01*
X165675000Y-48850000D01*
X166525000Y-48850000D01*
X166525000Y-53350000D01*
G36*
X166525000Y-53350000D02*
G01*
X165675000Y-53350000D01*
X165675000Y-48850000D01*
X166525000Y-48850000D01*
X166525000Y-53350000D01*
G37*
X166525000Y-58350000D02*
X165675000Y-58350000D01*
X165675000Y-53850000D01*
X166525000Y-53850000D01*
X166525000Y-58350000D01*
G36*
X166525000Y-58350000D02*
G01*
X165675000Y-58350000D01*
X165675000Y-53850000D01*
X166525000Y-53850000D01*
X166525000Y-58350000D01*
G37*
X171600000Y-49800000D02*
X168900000Y-49800000D01*
X168900000Y-49000000D01*
X171600000Y-49000000D01*
X171600000Y-49800000D01*
G36*
X171600000Y-49800000D02*
G01*
X168900000Y-49800000D01*
X168900000Y-49000000D01*
X171600000Y-49000000D01*
X171600000Y-49800000D01*
G37*
X171600000Y-51000000D02*
X168900000Y-51000000D01*
X168900000Y-50200000D01*
X171600000Y-50200000D01*
X171600000Y-51000000D01*
G36*
X171600000Y-51000000D02*
G01*
X168900000Y-51000000D01*
X168900000Y-50200000D01*
X171600000Y-50200000D01*
X171600000Y-51000000D01*
G37*
X171600000Y-52200000D02*
X168900000Y-52200000D01*
X168900000Y-51400000D01*
X171600000Y-51400000D01*
X171600000Y-52200000D01*
G36*
X171600000Y-52200000D02*
G01*
X168900000Y-52200000D01*
X168900000Y-51400000D01*
X171600000Y-51400000D01*
X171600000Y-52200000D01*
G37*
X171600000Y-53400000D02*
X168900000Y-53400000D01*
X168900000Y-52600000D01*
X171600000Y-52600000D01*
X171600000Y-53400000D01*
G36*
X171600000Y-53400000D02*
G01*
X168900000Y-53400000D01*
X168900000Y-52600000D01*
X171600000Y-52600000D01*
X171600000Y-53400000D01*
G37*
X171600000Y-54600000D02*
X168900000Y-54600000D01*
X168900000Y-53800000D01*
X171600000Y-53800000D01*
X171600000Y-54600000D01*
G36*
X171600000Y-54600000D02*
G01*
X168900000Y-54600000D01*
X168900000Y-53800000D01*
X171600000Y-53800000D01*
X171600000Y-54600000D01*
G37*
X171600000Y-55800000D02*
X168900000Y-55800000D01*
X168900000Y-55000000D01*
X171600000Y-55000000D01*
X171600000Y-55800000D01*
G36*
X171600000Y-55800000D02*
G01*
X168900000Y-55800000D01*
X168900000Y-55000000D01*
X171600000Y-55000000D01*
X171600000Y-55800000D01*
G37*
X171600000Y-57000000D02*
X168900000Y-57000000D01*
X168900000Y-56200000D01*
X171600000Y-56200000D01*
X171600000Y-57000000D01*
G36*
X171600000Y-57000000D02*
G01*
X168900000Y-57000000D01*
X168900000Y-56200000D01*
X171600000Y-56200000D01*
X171600000Y-57000000D01*
G37*
X171600000Y-58200000D02*
X168900000Y-58200000D01*
X168900000Y-57400000D01*
X171600000Y-57400000D01*
X171600000Y-58200000D01*
G36*
X171600000Y-58200000D02*
G01*
X168900000Y-58200000D01*
X168900000Y-57400000D01*
X171600000Y-57400000D01*
X171600000Y-58200000D01*
G37*
%TO.C,Q6*%
X160350000Y-104225000D02*
X159500000Y-104225000D01*
X159500000Y-99725000D01*
X160350000Y-99725000D01*
X160350000Y-104225000D01*
G36*
X160350000Y-104225000D02*
G01*
X159500000Y-104225000D01*
X159500000Y-99725000D01*
X160350000Y-99725000D01*
X160350000Y-104225000D01*
G37*
X160350000Y-109225000D02*
X159500000Y-109225000D01*
X159500000Y-104725000D01*
X160350000Y-104725000D01*
X160350000Y-109225000D01*
G36*
X160350000Y-109225000D02*
G01*
X159500000Y-109225000D01*
X159500000Y-104725000D01*
X160350000Y-104725000D01*
X160350000Y-109225000D01*
G37*
X162150000Y-104225000D02*
X161050000Y-104225000D01*
X161050000Y-100225000D01*
X162150000Y-100225000D01*
X162150000Y-104225000D01*
G36*
X162150000Y-104225000D02*
G01*
X161050000Y-104225000D01*
X161050000Y-100225000D01*
X162150000Y-100225000D01*
X162150000Y-104225000D01*
G37*
X162150000Y-108725000D02*
X161050000Y-108725000D01*
X161050000Y-104725000D01*
X162150000Y-104725000D01*
X162150000Y-108725000D01*
G36*
X162150000Y-108725000D02*
G01*
X161050000Y-108725000D01*
X161050000Y-104725000D01*
X162150000Y-104725000D01*
X162150000Y-108725000D01*
G37*
X163950000Y-104225000D02*
X162850000Y-104225000D01*
X162850000Y-100225000D01*
X163950000Y-100225000D01*
X163950000Y-104225000D01*
G36*
X163950000Y-104225000D02*
G01*
X162850000Y-104225000D01*
X162850000Y-100225000D01*
X163950000Y-100225000D01*
X163950000Y-104225000D01*
G37*
X163950000Y-108725000D02*
X162850000Y-108725000D01*
X162850000Y-104725000D01*
X163950000Y-104725000D01*
X163950000Y-108725000D01*
G36*
X163950000Y-108725000D02*
G01*
X162850000Y-108725000D01*
X162850000Y-104725000D01*
X163950000Y-104725000D01*
X163950000Y-108725000D01*
G37*
X165750000Y-104225000D02*
X164650000Y-104225000D01*
X164650000Y-99725000D01*
X165750000Y-99725000D01*
X165750000Y-104225000D01*
G36*
X165750000Y-104225000D02*
G01*
X164650000Y-104225000D01*
X164650000Y-99725000D01*
X165750000Y-99725000D01*
X165750000Y-104225000D01*
G37*
X165750000Y-109225000D02*
X164650000Y-109225000D01*
X164650000Y-104725000D01*
X165750000Y-104725000D01*
X165750000Y-109225000D01*
G36*
X165750000Y-109225000D02*
G01*
X164650000Y-109225000D01*
X164650000Y-104725000D01*
X165750000Y-104725000D01*
X165750000Y-109225000D01*
G37*
X167300000Y-104225000D02*
X166450000Y-104225000D01*
X166450000Y-99725000D01*
X167300000Y-99725000D01*
X167300000Y-104225000D01*
G36*
X167300000Y-104225000D02*
G01*
X166450000Y-104225000D01*
X166450000Y-99725000D01*
X167300000Y-99725000D01*
X167300000Y-104225000D01*
G37*
X167300000Y-109225000D02*
X166450000Y-109225000D01*
X166450000Y-104725000D01*
X167300000Y-104725000D01*
X167300000Y-109225000D01*
G36*
X167300000Y-109225000D02*
G01*
X166450000Y-109225000D01*
X166450000Y-104725000D01*
X167300000Y-104725000D01*
X167300000Y-109225000D01*
G37*
X172375000Y-100675000D02*
X169675000Y-100675000D01*
X169675000Y-99875000D01*
X172375000Y-99875000D01*
X172375000Y-100675000D01*
G36*
X172375000Y-100675000D02*
G01*
X169675000Y-100675000D01*
X169675000Y-99875000D01*
X172375000Y-99875000D01*
X172375000Y-100675000D01*
G37*
X172375000Y-101875000D02*
X169675000Y-101875000D01*
X169675000Y-101075000D01*
X172375000Y-101075000D01*
X172375000Y-101875000D01*
G36*
X172375000Y-101875000D02*
G01*
X169675000Y-101875000D01*
X169675000Y-101075000D01*
X172375000Y-101075000D01*
X172375000Y-101875000D01*
G37*
X172375000Y-103075000D02*
X169675000Y-103075000D01*
X169675000Y-102275000D01*
X172375000Y-102275000D01*
X172375000Y-103075000D01*
G36*
X172375000Y-103075000D02*
G01*
X169675000Y-103075000D01*
X169675000Y-102275000D01*
X172375000Y-102275000D01*
X172375000Y-103075000D01*
G37*
X172375000Y-104275000D02*
X169675000Y-104275000D01*
X169675000Y-103475000D01*
X172375000Y-103475000D01*
X172375000Y-104275000D01*
G36*
X172375000Y-104275000D02*
G01*
X169675000Y-104275000D01*
X169675000Y-103475000D01*
X172375000Y-103475000D01*
X172375000Y-104275000D01*
G37*
X172375000Y-105475000D02*
X169675000Y-105475000D01*
X169675000Y-104675000D01*
X172375000Y-104675000D01*
X172375000Y-105475000D01*
G36*
X172375000Y-105475000D02*
G01*
X169675000Y-105475000D01*
X169675000Y-104675000D01*
X172375000Y-104675000D01*
X172375000Y-105475000D01*
G37*
X172375000Y-106675000D02*
X169675000Y-106675000D01*
X169675000Y-105875000D01*
X172375000Y-105875000D01*
X172375000Y-106675000D01*
G36*
X172375000Y-106675000D02*
G01*
X169675000Y-106675000D01*
X169675000Y-105875000D01*
X172375000Y-105875000D01*
X172375000Y-106675000D01*
G37*
X172375000Y-107875000D02*
X169675000Y-107875000D01*
X169675000Y-107075000D01*
X172375000Y-107075000D01*
X172375000Y-107875000D01*
G36*
X172375000Y-107875000D02*
G01*
X169675000Y-107875000D01*
X169675000Y-107075000D01*
X172375000Y-107075000D01*
X172375000Y-107875000D01*
G37*
X172375000Y-109075000D02*
X169675000Y-109075000D01*
X169675000Y-108275000D01*
X172375000Y-108275000D01*
X172375000Y-109075000D01*
G36*
X172375000Y-109075000D02*
G01*
X169675000Y-109075000D01*
X169675000Y-108275000D01*
X172375000Y-108275000D01*
X172375000Y-109075000D01*
G37*
%TO.C,Q21*%
X178950000Y-40600000D02*
X178100000Y-40600000D01*
X178100000Y-36100000D01*
X178950000Y-36100000D01*
X178950000Y-40600000D01*
G36*
X178950000Y-40600000D02*
G01*
X178100000Y-40600000D01*
X178100000Y-36100000D01*
X178950000Y-36100000D01*
X178950000Y-40600000D01*
G37*
X178950000Y-45600000D02*
X178100000Y-45600000D01*
X178100000Y-41100000D01*
X178950000Y-41100000D01*
X178950000Y-45600000D01*
G36*
X178950000Y-45600000D02*
G01*
X178100000Y-45600000D01*
X178100000Y-41100000D01*
X178950000Y-41100000D01*
X178950000Y-45600000D01*
G37*
X180750000Y-40600000D02*
X179650000Y-40600000D01*
X179650000Y-36600000D01*
X180750000Y-36600000D01*
X180750000Y-40600000D01*
G36*
X180750000Y-40600000D02*
G01*
X179650000Y-40600000D01*
X179650000Y-36600000D01*
X180750000Y-36600000D01*
X180750000Y-40600000D01*
G37*
X180750000Y-45100000D02*
X179650000Y-45100000D01*
X179650000Y-41100000D01*
X180750000Y-41100000D01*
X180750000Y-45100000D01*
G36*
X180750000Y-45100000D02*
G01*
X179650000Y-45100000D01*
X179650000Y-41100000D01*
X180750000Y-41100000D01*
X180750000Y-45100000D01*
G37*
X182550000Y-40600000D02*
X181450000Y-40600000D01*
X181450000Y-36600000D01*
X182550000Y-36600000D01*
X182550000Y-40600000D01*
G36*
X182550000Y-40600000D02*
G01*
X181450000Y-40600000D01*
X181450000Y-36600000D01*
X182550000Y-36600000D01*
X182550000Y-40600000D01*
G37*
X182550000Y-45100000D02*
X181450000Y-45100000D01*
X181450000Y-41100000D01*
X182550000Y-41100000D01*
X182550000Y-45100000D01*
G36*
X182550000Y-45100000D02*
G01*
X181450000Y-45100000D01*
X181450000Y-41100000D01*
X182550000Y-41100000D01*
X182550000Y-45100000D01*
G37*
X184350000Y-40600000D02*
X183250000Y-40600000D01*
X183250000Y-36100000D01*
X184350000Y-36100000D01*
X184350000Y-40600000D01*
G36*
X184350000Y-40600000D02*
G01*
X183250000Y-40600000D01*
X183250000Y-36100000D01*
X184350000Y-36100000D01*
X184350000Y-40600000D01*
G37*
X184350000Y-45600000D02*
X183250000Y-45600000D01*
X183250000Y-41100000D01*
X184350000Y-41100000D01*
X184350000Y-45600000D01*
G36*
X184350000Y-45600000D02*
G01*
X183250000Y-45600000D01*
X183250000Y-41100000D01*
X184350000Y-41100000D01*
X184350000Y-45600000D01*
G37*
X185900000Y-40600000D02*
X185050000Y-40600000D01*
X185050000Y-36100000D01*
X185900000Y-36100000D01*
X185900000Y-40600000D01*
G36*
X185900000Y-40600000D02*
G01*
X185050000Y-40600000D01*
X185050000Y-36100000D01*
X185900000Y-36100000D01*
X185900000Y-40600000D01*
G37*
X185900000Y-45600000D02*
X185050000Y-45600000D01*
X185050000Y-41100000D01*
X185900000Y-41100000D01*
X185900000Y-45600000D01*
G36*
X185900000Y-45600000D02*
G01*
X185050000Y-45600000D01*
X185050000Y-41100000D01*
X185900000Y-41100000D01*
X185900000Y-45600000D01*
G37*
X190975000Y-37050000D02*
X188275000Y-37050000D01*
X188275000Y-36250000D01*
X190975000Y-36250000D01*
X190975000Y-37050000D01*
G36*
X190975000Y-37050000D02*
G01*
X188275000Y-37050000D01*
X188275000Y-36250000D01*
X190975000Y-36250000D01*
X190975000Y-37050000D01*
G37*
X190975000Y-38250000D02*
X188275000Y-38250000D01*
X188275000Y-37450000D01*
X190975000Y-37450000D01*
X190975000Y-38250000D01*
G36*
X190975000Y-38250000D02*
G01*
X188275000Y-38250000D01*
X188275000Y-37450000D01*
X190975000Y-37450000D01*
X190975000Y-38250000D01*
G37*
X190975000Y-39450000D02*
X188275000Y-39450000D01*
X188275000Y-38650000D01*
X190975000Y-38650000D01*
X190975000Y-39450000D01*
G36*
X190975000Y-39450000D02*
G01*
X188275000Y-39450000D01*
X188275000Y-38650000D01*
X190975000Y-38650000D01*
X190975000Y-39450000D01*
G37*
X190975000Y-40650000D02*
X188275000Y-40650000D01*
X188275000Y-39850000D01*
X190975000Y-39850000D01*
X190975000Y-40650000D01*
G36*
X190975000Y-40650000D02*
G01*
X188275000Y-40650000D01*
X188275000Y-39850000D01*
X190975000Y-39850000D01*
X190975000Y-40650000D01*
G37*
X190975000Y-41850000D02*
X188275000Y-41850000D01*
X188275000Y-41050000D01*
X190975000Y-41050000D01*
X190975000Y-41850000D01*
G36*
X190975000Y-41850000D02*
G01*
X188275000Y-41850000D01*
X188275000Y-41050000D01*
X190975000Y-41050000D01*
X190975000Y-41850000D01*
G37*
X190975000Y-43050000D02*
X188275000Y-43050000D01*
X188275000Y-42250000D01*
X190975000Y-42250000D01*
X190975000Y-43050000D01*
G36*
X190975000Y-43050000D02*
G01*
X188275000Y-43050000D01*
X188275000Y-42250000D01*
X190975000Y-42250000D01*
X190975000Y-43050000D01*
G37*
X190975000Y-44250000D02*
X188275000Y-44250000D01*
X188275000Y-43450000D01*
X190975000Y-43450000D01*
X190975000Y-44250000D01*
G36*
X190975000Y-44250000D02*
G01*
X188275000Y-44250000D01*
X188275000Y-43450000D01*
X190975000Y-43450000D01*
X190975000Y-44250000D01*
G37*
X190975000Y-45450000D02*
X188275000Y-45450000D01*
X188275000Y-44650000D01*
X190975000Y-44650000D01*
X190975000Y-45450000D01*
G36*
X190975000Y-45450000D02*
G01*
X188275000Y-45450000D01*
X188275000Y-44650000D01*
X190975000Y-44650000D01*
X190975000Y-45450000D01*
G37*
%TO.C,Q9*%
X179725000Y-104225000D02*
X178875000Y-104225000D01*
X178875000Y-99725000D01*
X179725000Y-99725000D01*
X179725000Y-104225000D01*
G36*
X179725000Y-104225000D02*
G01*
X178875000Y-104225000D01*
X178875000Y-99725000D01*
X179725000Y-99725000D01*
X179725000Y-104225000D01*
G37*
X179725000Y-109225000D02*
X178875000Y-109225000D01*
X178875000Y-104725000D01*
X179725000Y-104725000D01*
X179725000Y-109225000D01*
G36*
X179725000Y-109225000D02*
G01*
X178875000Y-109225000D01*
X178875000Y-104725000D01*
X179725000Y-104725000D01*
X179725000Y-109225000D01*
G37*
X181525000Y-104225000D02*
X180425000Y-104225000D01*
X180425000Y-100225000D01*
X181525000Y-100225000D01*
X181525000Y-104225000D01*
G36*
X181525000Y-104225000D02*
G01*
X180425000Y-104225000D01*
X180425000Y-100225000D01*
X181525000Y-100225000D01*
X181525000Y-104225000D01*
G37*
X181525000Y-108725000D02*
X180425000Y-108725000D01*
X180425000Y-104725000D01*
X181525000Y-104725000D01*
X181525000Y-108725000D01*
G36*
X181525000Y-108725000D02*
G01*
X180425000Y-108725000D01*
X180425000Y-104725000D01*
X181525000Y-104725000D01*
X181525000Y-108725000D01*
G37*
X183325000Y-104225000D02*
X182225000Y-104225000D01*
X182225000Y-100225000D01*
X183325000Y-100225000D01*
X183325000Y-104225000D01*
G36*
X183325000Y-104225000D02*
G01*
X182225000Y-104225000D01*
X182225000Y-100225000D01*
X183325000Y-100225000D01*
X183325000Y-104225000D01*
G37*
X183325000Y-108725000D02*
X182225000Y-108725000D01*
X182225000Y-104725000D01*
X183325000Y-104725000D01*
X183325000Y-108725000D01*
G36*
X183325000Y-108725000D02*
G01*
X182225000Y-108725000D01*
X182225000Y-104725000D01*
X183325000Y-104725000D01*
X183325000Y-108725000D01*
G37*
X185125000Y-104225000D02*
X184025000Y-104225000D01*
X184025000Y-99725000D01*
X185125000Y-99725000D01*
X185125000Y-104225000D01*
G36*
X185125000Y-104225000D02*
G01*
X184025000Y-104225000D01*
X184025000Y-99725000D01*
X185125000Y-99725000D01*
X185125000Y-104225000D01*
G37*
X185125000Y-109225000D02*
X184025000Y-109225000D01*
X184025000Y-104725000D01*
X185125000Y-104725000D01*
X185125000Y-109225000D01*
G36*
X185125000Y-109225000D02*
G01*
X184025000Y-109225000D01*
X184025000Y-104725000D01*
X185125000Y-104725000D01*
X185125000Y-109225000D01*
G37*
X186675000Y-104225000D02*
X185825000Y-104225000D01*
X185825000Y-99725000D01*
X186675000Y-99725000D01*
X186675000Y-104225000D01*
G36*
X186675000Y-104225000D02*
G01*
X185825000Y-104225000D01*
X185825000Y-99725000D01*
X186675000Y-99725000D01*
X186675000Y-104225000D01*
G37*
X186675000Y-109225000D02*
X185825000Y-109225000D01*
X185825000Y-104725000D01*
X186675000Y-104725000D01*
X186675000Y-109225000D01*
G36*
X186675000Y-109225000D02*
G01*
X185825000Y-109225000D01*
X185825000Y-104725000D01*
X186675000Y-104725000D01*
X186675000Y-109225000D01*
G37*
X191750000Y-100675000D02*
X189050000Y-100675000D01*
X189050000Y-99875000D01*
X191750000Y-99875000D01*
X191750000Y-100675000D01*
G36*
X191750000Y-100675000D02*
G01*
X189050000Y-100675000D01*
X189050000Y-99875000D01*
X191750000Y-99875000D01*
X191750000Y-100675000D01*
G37*
X191750000Y-101875000D02*
X189050000Y-101875000D01*
X189050000Y-101075000D01*
X191750000Y-101075000D01*
X191750000Y-101875000D01*
G36*
X191750000Y-101875000D02*
G01*
X189050000Y-101875000D01*
X189050000Y-101075000D01*
X191750000Y-101075000D01*
X191750000Y-101875000D01*
G37*
X191750000Y-103075000D02*
X189050000Y-103075000D01*
X189050000Y-102275000D01*
X191750000Y-102275000D01*
X191750000Y-103075000D01*
G36*
X191750000Y-103075000D02*
G01*
X189050000Y-103075000D01*
X189050000Y-102275000D01*
X191750000Y-102275000D01*
X191750000Y-103075000D01*
G37*
X191750000Y-104275000D02*
X189050000Y-104275000D01*
X189050000Y-103475000D01*
X191750000Y-103475000D01*
X191750000Y-104275000D01*
G36*
X191750000Y-104275000D02*
G01*
X189050000Y-104275000D01*
X189050000Y-103475000D01*
X191750000Y-103475000D01*
X191750000Y-104275000D01*
G37*
X191750000Y-105475000D02*
X189050000Y-105475000D01*
X189050000Y-104675000D01*
X191750000Y-104675000D01*
X191750000Y-105475000D01*
G36*
X191750000Y-105475000D02*
G01*
X189050000Y-105475000D01*
X189050000Y-104675000D01*
X191750000Y-104675000D01*
X191750000Y-105475000D01*
G37*
X191750000Y-106675000D02*
X189050000Y-106675000D01*
X189050000Y-105875000D01*
X191750000Y-105875000D01*
X191750000Y-106675000D01*
G36*
X191750000Y-106675000D02*
G01*
X189050000Y-106675000D01*
X189050000Y-105875000D01*
X191750000Y-105875000D01*
X191750000Y-106675000D01*
G37*
X191750000Y-107875000D02*
X189050000Y-107875000D01*
X189050000Y-107075000D01*
X191750000Y-107075000D01*
X191750000Y-107875000D01*
G36*
X191750000Y-107875000D02*
G01*
X189050000Y-107875000D01*
X189050000Y-107075000D01*
X191750000Y-107075000D01*
X191750000Y-107875000D01*
G37*
X191750000Y-109075000D02*
X189050000Y-109075000D01*
X189050000Y-108275000D01*
X191750000Y-108275000D01*
X191750000Y-109075000D01*
G36*
X191750000Y-109075000D02*
G01*
X189050000Y-109075000D01*
X189050000Y-108275000D01*
X191750000Y-108275000D01*
X191750000Y-109075000D01*
G37*
%TO.C,Q15*%
X160825000Y-142225000D02*
X159975000Y-142225000D01*
X159975000Y-137725000D01*
X160825000Y-137725000D01*
X160825000Y-142225000D01*
G36*
X160825000Y-142225000D02*
G01*
X159975000Y-142225000D01*
X159975000Y-137725000D01*
X160825000Y-137725000D01*
X160825000Y-142225000D01*
G37*
X160825000Y-147225000D02*
X159975000Y-147225000D01*
X159975000Y-142725000D01*
X160825000Y-142725000D01*
X160825000Y-147225000D01*
G36*
X160825000Y-147225000D02*
G01*
X159975000Y-147225000D01*
X159975000Y-142725000D01*
X160825000Y-142725000D01*
X160825000Y-147225000D01*
G37*
X162625000Y-142225000D02*
X161525000Y-142225000D01*
X161525000Y-138225000D01*
X162625000Y-138225000D01*
X162625000Y-142225000D01*
G36*
X162625000Y-142225000D02*
G01*
X161525000Y-142225000D01*
X161525000Y-138225000D01*
X162625000Y-138225000D01*
X162625000Y-142225000D01*
G37*
X162625000Y-146725000D02*
X161525000Y-146725000D01*
X161525000Y-142725000D01*
X162625000Y-142725000D01*
X162625000Y-146725000D01*
G36*
X162625000Y-146725000D02*
G01*
X161525000Y-146725000D01*
X161525000Y-142725000D01*
X162625000Y-142725000D01*
X162625000Y-146725000D01*
G37*
X164425000Y-142225000D02*
X163325000Y-142225000D01*
X163325000Y-138225000D01*
X164425000Y-138225000D01*
X164425000Y-142225000D01*
G36*
X164425000Y-142225000D02*
G01*
X163325000Y-142225000D01*
X163325000Y-138225000D01*
X164425000Y-138225000D01*
X164425000Y-142225000D01*
G37*
X164425000Y-146725000D02*
X163325000Y-146725000D01*
X163325000Y-142725000D01*
X164425000Y-142725000D01*
X164425000Y-146725000D01*
G36*
X164425000Y-146725000D02*
G01*
X163325000Y-146725000D01*
X163325000Y-142725000D01*
X164425000Y-142725000D01*
X164425000Y-146725000D01*
G37*
X166225000Y-142225000D02*
X165125000Y-142225000D01*
X165125000Y-137725000D01*
X166225000Y-137725000D01*
X166225000Y-142225000D01*
G36*
X166225000Y-142225000D02*
G01*
X165125000Y-142225000D01*
X165125000Y-137725000D01*
X166225000Y-137725000D01*
X166225000Y-142225000D01*
G37*
X166225000Y-147225000D02*
X165125000Y-147225000D01*
X165125000Y-142725000D01*
X166225000Y-142725000D01*
X166225000Y-147225000D01*
G36*
X166225000Y-147225000D02*
G01*
X165125000Y-147225000D01*
X165125000Y-142725000D01*
X166225000Y-142725000D01*
X166225000Y-147225000D01*
G37*
X167775000Y-142225000D02*
X166925000Y-142225000D01*
X166925000Y-137725000D01*
X167775000Y-137725000D01*
X167775000Y-142225000D01*
G36*
X167775000Y-142225000D02*
G01*
X166925000Y-142225000D01*
X166925000Y-137725000D01*
X167775000Y-137725000D01*
X167775000Y-142225000D01*
G37*
X167775000Y-147225000D02*
X166925000Y-147225000D01*
X166925000Y-142725000D01*
X167775000Y-142725000D01*
X167775000Y-147225000D01*
G36*
X167775000Y-147225000D02*
G01*
X166925000Y-147225000D01*
X166925000Y-142725000D01*
X167775000Y-142725000D01*
X167775000Y-147225000D01*
G37*
X172850000Y-138675000D02*
X170150000Y-138675000D01*
X170150000Y-137875000D01*
X172850000Y-137875000D01*
X172850000Y-138675000D01*
G36*
X172850000Y-138675000D02*
G01*
X170150000Y-138675000D01*
X170150000Y-137875000D01*
X172850000Y-137875000D01*
X172850000Y-138675000D01*
G37*
X172850000Y-139875000D02*
X170150000Y-139875000D01*
X170150000Y-139075000D01*
X172850000Y-139075000D01*
X172850000Y-139875000D01*
G36*
X172850000Y-139875000D02*
G01*
X170150000Y-139875000D01*
X170150000Y-139075000D01*
X172850000Y-139075000D01*
X172850000Y-139875000D01*
G37*
X172850000Y-141075000D02*
X170150000Y-141075000D01*
X170150000Y-140275000D01*
X172850000Y-140275000D01*
X172850000Y-141075000D01*
G36*
X172850000Y-141075000D02*
G01*
X170150000Y-141075000D01*
X170150000Y-140275000D01*
X172850000Y-140275000D01*
X172850000Y-141075000D01*
G37*
X172850000Y-142275000D02*
X170150000Y-142275000D01*
X170150000Y-141475000D01*
X172850000Y-141475000D01*
X172850000Y-142275000D01*
G36*
X172850000Y-142275000D02*
G01*
X170150000Y-142275000D01*
X170150000Y-141475000D01*
X172850000Y-141475000D01*
X172850000Y-142275000D01*
G37*
X172850000Y-143475000D02*
X170150000Y-143475000D01*
X170150000Y-142675000D01*
X172850000Y-142675000D01*
X172850000Y-143475000D01*
G36*
X172850000Y-143475000D02*
G01*
X170150000Y-143475000D01*
X170150000Y-142675000D01*
X172850000Y-142675000D01*
X172850000Y-143475000D01*
G37*
X172850000Y-144675000D02*
X170150000Y-144675000D01*
X170150000Y-143875000D01*
X172850000Y-143875000D01*
X172850000Y-144675000D01*
G36*
X172850000Y-144675000D02*
G01*
X170150000Y-144675000D01*
X170150000Y-143875000D01*
X172850000Y-143875000D01*
X172850000Y-144675000D01*
G37*
X172850000Y-145875000D02*
X170150000Y-145875000D01*
X170150000Y-145075000D01*
X172850000Y-145075000D01*
X172850000Y-145875000D01*
G36*
X172850000Y-145875000D02*
G01*
X170150000Y-145875000D01*
X170150000Y-145075000D01*
X172850000Y-145075000D01*
X172850000Y-145875000D01*
G37*
X172850000Y-147075000D02*
X170150000Y-147075000D01*
X170150000Y-146275000D01*
X172850000Y-146275000D01*
X172850000Y-147075000D01*
G36*
X172850000Y-147075000D02*
G01*
X170150000Y-147075000D01*
X170150000Y-146275000D01*
X172850000Y-146275000D01*
X172850000Y-147075000D01*
G37*
%TO.C,Q8*%
X160350000Y-91475000D02*
X159500000Y-91475000D01*
X159500000Y-86975000D01*
X160350000Y-86975000D01*
X160350000Y-91475000D01*
G36*
X160350000Y-91475000D02*
G01*
X159500000Y-91475000D01*
X159500000Y-86975000D01*
X160350000Y-86975000D01*
X160350000Y-91475000D01*
G37*
X160350000Y-96475000D02*
X159500000Y-96475000D01*
X159500000Y-91975000D01*
X160350000Y-91975000D01*
X160350000Y-96475000D01*
G36*
X160350000Y-96475000D02*
G01*
X159500000Y-96475000D01*
X159500000Y-91975000D01*
X160350000Y-91975000D01*
X160350000Y-96475000D01*
G37*
X162150000Y-91475000D02*
X161050000Y-91475000D01*
X161050000Y-87475000D01*
X162150000Y-87475000D01*
X162150000Y-91475000D01*
G36*
X162150000Y-91475000D02*
G01*
X161050000Y-91475000D01*
X161050000Y-87475000D01*
X162150000Y-87475000D01*
X162150000Y-91475000D01*
G37*
X162150000Y-95975000D02*
X161050000Y-95975000D01*
X161050000Y-91975000D01*
X162150000Y-91975000D01*
X162150000Y-95975000D01*
G36*
X162150000Y-95975000D02*
G01*
X161050000Y-95975000D01*
X161050000Y-91975000D01*
X162150000Y-91975000D01*
X162150000Y-95975000D01*
G37*
X163950000Y-91475000D02*
X162850000Y-91475000D01*
X162850000Y-87475000D01*
X163950000Y-87475000D01*
X163950000Y-91475000D01*
G36*
X163950000Y-91475000D02*
G01*
X162850000Y-91475000D01*
X162850000Y-87475000D01*
X163950000Y-87475000D01*
X163950000Y-91475000D01*
G37*
X163950000Y-95975000D02*
X162850000Y-95975000D01*
X162850000Y-91975000D01*
X163950000Y-91975000D01*
X163950000Y-95975000D01*
G36*
X163950000Y-95975000D02*
G01*
X162850000Y-95975000D01*
X162850000Y-91975000D01*
X163950000Y-91975000D01*
X163950000Y-95975000D01*
G37*
X165750000Y-91475000D02*
X164650000Y-91475000D01*
X164650000Y-86975000D01*
X165750000Y-86975000D01*
X165750000Y-91475000D01*
G36*
X165750000Y-91475000D02*
G01*
X164650000Y-91475000D01*
X164650000Y-86975000D01*
X165750000Y-86975000D01*
X165750000Y-91475000D01*
G37*
X165750000Y-96475000D02*
X164650000Y-96475000D01*
X164650000Y-91975000D01*
X165750000Y-91975000D01*
X165750000Y-96475000D01*
G36*
X165750000Y-96475000D02*
G01*
X164650000Y-96475000D01*
X164650000Y-91975000D01*
X165750000Y-91975000D01*
X165750000Y-96475000D01*
G37*
X167300000Y-91475000D02*
X166450000Y-91475000D01*
X166450000Y-86975000D01*
X167300000Y-86975000D01*
X167300000Y-91475000D01*
G36*
X167300000Y-91475000D02*
G01*
X166450000Y-91475000D01*
X166450000Y-86975000D01*
X167300000Y-86975000D01*
X167300000Y-91475000D01*
G37*
X167300000Y-96475000D02*
X166450000Y-96475000D01*
X166450000Y-91975000D01*
X167300000Y-91975000D01*
X167300000Y-96475000D01*
G36*
X167300000Y-96475000D02*
G01*
X166450000Y-96475000D01*
X166450000Y-91975000D01*
X167300000Y-91975000D01*
X167300000Y-96475000D01*
G37*
X172375000Y-87925000D02*
X169675000Y-87925000D01*
X169675000Y-87125000D01*
X172375000Y-87125000D01*
X172375000Y-87925000D01*
G36*
X172375000Y-87925000D02*
G01*
X169675000Y-87925000D01*
X169675000Y-87125000D01*
X172375000Y-87125000D01*
X172375000Y-87925000D01*
G37*
X172375000Y-89125000D02*
X169675000Y-89125000D01*
X169675000Y-88325000D01*
X172375000Y-88325000D01*
X172375000Y-89125000D01*
G36*
X172375000Y-89125000D02*
G01*
X169675000Y-89125000D01*
X169675000Y-88325000D01*
X172375000Y-88325000D01*
X172375000Y-89125000D01*
G37*
X172375000Y-90325000D02*
X169675000Y-90325000D01*
X169675000Y-89525000D01*
X172375000Y-89525000D01*
X172375000Y-90325000D01*
G36*
X172375000Y-90325000D02*
G01*
X169675000Y-90325000D01*
X169675000Y-89525000D01*
X172375000Y-89525000D01*
X172375000Y-90325000D01*
G37*
X172375000Y-91525000D02*
X169675000Y-91525000D01*
X169675000Y-90725000D01*
X172375000Y-90725000D01*
X172375000Y-91525000D01*
G36*
X172375000Y-91525000D02*
G01*
X169675000Y-91525000D01*
X169675000Y-90725000D01*
X172375000Y-90725000D01*
X172375000Y-91525000D01*
G37*
X172375000Y-92725000D02*
X169675000Y-92725000D01*
X169675000Y-91925000D01*
X172375000Y-91925000D01*
X172375000Y-92725000D01*
G36*
X172375000Y-92725000D02*
G01*
X169675000Y-92725000D01*
X169675000Y-91925000D01*
X172375000Y-91925000D01*
X172375000Y-92725000D01*
G37*
X172375000Y-93925000D02*
X169675000Y-93925000D01*
X169675000Y-93125000D01*
X172375000Y-93125000D01*
X172375000Y-93925000D01*
G36*
X172375000Y-93925000D02*
G01*
X169675000Y-93925000D01*
X169675000Y-93125000D01*
X172375000Y-93125000D01*
X172375000Y-93925000D01*
G37*
X172375000Y-95125000D02*
X169675000Y-95125000D01*
X169675000Y-94325000D01*
X172375000Y-94325000D01*
X172375000Y-95125000D01*
G36*
X172375000Y-95125000D02*
G01*
X169675000Y-95125000D01*
X169675000Y-94325000D01*
X172375000Y-94325000D01*
X172375000Y-95125000D01*
G37*
X172375000Y-96325000D02*
X169675000Y-96325000D01*
X169675000Y-95525000D01*
X172375000Y-95525000D01*
X172375000Y-96325000D01*
G36*
X172375000Y-96325000D02*
G01*
X169675000Y-96325000D01*
X169675000Y-95525000D01*
X172375000Y-95525000D01*
X172375000Y-96325000D01*
G37*
%TO.C,Q14*%
X160825000Y-154975000D02*
X159975000Y-154975000D01*
X159975000Y-150475000D01*
X160825000Y-150475000D01*
X160825000Y-154975000D01*
G36*
X160825000Y-154975000D02*
G01*
X159975000Y-154975000D01*
X159975000Y-150475000D01*
X160825000Y-150475000D01*
X160825000Y-154975000D01*
G37*
X160825000Y-159975000D02*
X159975000Y-159975000D01*
X159975000Y-155475000D01*
X160825000Y-155475000D01*
X160825000Y-159975000D01*
G36*
X160825000Y-159975000D02*
G01*
X159975000Y-159975000D01*
X159975000Y-155475000D01*
X160825000Y-155475000D01*
X160825000Y-159975000D01*
G37*
X162625000Y-154975000D02*
X161525000Y-154975000D01*
X161525000Y-150975000D01*
X162625000Y-150975000D01*
X162625000Y-154975000D01*
G36*
X162625000Y-154975000D02*
G01*
X161525000Y-154975000D01*
X161525000Y-150975000D01*
X162625000Y-150975000D01*
X162625000Y-154975000D01*
G37*
X162625000Y-159475000D02*
X161525000Y-159475000D01*
X161525000Y-155475000D01*
X162625000Y-155475000D01*
X162625000Y-159475000D01*
G36*
X162625000Y-159475000D02*
G01*
X161525000Y-159475000D01*
X161525000Y-155475000D01*
X162625000Y-155475000D01*
X162625000Y-159475000D01*
G37*
X164425000Y-154975000D02*
X163325000Y-154975000D01*
X163325000Y-150975000D01*
X164425000Y-150975000D01*
X164425000Y-154975000D01*
G36*
X164425000Y-154975000D02*
G01*
X163325000Y-154975000D01*
X163325000Y-150975000D01*
X164425000Y-150975000D01*
X164425000Y-154975000D01*
G37*
X164425000Y-159475000D02*
X163325000Y-159475000D01*
X163325000Y-155475000D01*
X164425000Y-155475000D01*
X164425000Y-159475000D01*
G36*
X164425000Y-159475000D02*
G01*
X163325000Y-159475000D01*
X163325000Y-155475000D01*
X164425000Y-155475000D01*
X164425000Y-159475000D01*
G37*
X166225000Y-154975000D02*
X165125000Y-154975000D01*
X165125000Y-150475000D01*
X166225000Y-150475000D01*
X166225000Y-154975000D01*
G36*
X166225000Y-154975000D02*
G01*
X165125000Y-154975000D01*
X165125000Y-150475000D01*
X166225000Y-150475000D01*
X166225000Y-154975000D01*
G37*
X166225000Y-159975000D02*
X165125000Y-159975000D01*
X165125000Y-155475000D01*
X166225000Y-155475000D01*
X166225000Y-159975000D01*
G36*
X166225000Y-159975000D02*
G01*
X165125000Y-159975000D01*
X165125000Y-155475000D01*
X166225000Y-155475000D01*
X166225000Y-159975000D01*
G37*
X167775000Y-154975000D02*
X166925000Y-154975000D01*
X166925000Y-150475000D01*
X167775000Y-150475000D01*
X167775000Y-154975000D01*
G36*
X167775000Y-154975000D02*
G01*
X166925000Y-154975000D01*
X166925000Y-150475000D01*
X167775000Y-150475000D01*
X167775000Y-154975000D01*
G37*
X167775000Y-159975000D02*
X166925000Y-159975000D01*
X166925000Y-155475000D01*
X167775000Y-155475000D01*
X167775000Y-159975000D01*
G36*
X167775000Y-159975000D02*
G01*
X166925000Y-159975000D01*
X166925000Y-155475000D01*
X167775000Y-155475000D01*
X167775000Y-159975000D01*
G37*
X172850000Y-151425000D02*
X170150000Y-151425000D01*
X170150000Y-150625000D01*
X172850000Y-150625000D01*
X172850000Y-151425000D01*
G36*
X172850000Y-151425000D02*
G01*
X170150000Y-151425000D01*
X170150000Y-150625000D01*
X172850000Y-150625000D01*
X172850000Y-151425000D01*
G37*
X172850000Y-152625000D02*
X170150000Y-152625000D01*
X170150000Y-151825000D01*
X172850000Y-151825000D01*
X172850000Y-152625000D01*
G36*
X172850000Y-152625000D02*
G01*
X170150000Y-152625000D01*
X170150000Y-151825000D01*
X172850000Y-151825000D01*
X172850000Y-152625000D01*
G37*
X172850000Y-153825000D02*
X170150000Y-153825000D01*
X170150000Y-153025000D01*
X172850000Y-153025000D01*
X172850000Y-153825000D01*
G36*
X172850000Y-153825000D02*
G01*
X170150000Y-153825000D01*
X170150000Y-153025000D01*
X172850000Y-153025000D01*
X172850000Y-153825000D01*
G37*
X172850000Y-155025000D02*
X170150000Y-155025000D01*
X170150000Y-154225000D01*
X172850000Y-154225000D01*
X172850000Y-155025000D01*
G36*
X172850000Y-155025000D02*
G01*
X170150000Y-155025000D01*
X170150000Y-154225000D01*
X172850000Y-154225000D01*
X172850000Y-155025000D01*
G37*
X172850000Y-156225000D02*
X170150000Y-156225000D01*
X170150000Y-155425000D01*
X172850000Y-155425000D01*
X172850000Y-156225000D01*
G36*
X172850000Y-156225000D02*
G01*
X170150000Y-156225000D01*
X170150000Y-155425000D01*
X172850000Y-155425000D01*
X172850000Y-156225000D01*
G37*
X172850000Y-157425000D02*
X170150000Y-157425000D01*
X170150000Y-156625000D01*
X172850000Y-156625000D01*
X172850000Y-157425000D01*
G36*
X172850000Y-157425000D02*
G01*
X170150000Y-157425000D01*
X170150000Y-156625000D01*
X172850000Y-156625000D01*
X172850000Y-157425000D01*
G37*
X172850000Y-158625000D02*
X170150000Y-158625000D01*
X170150000Y-157825000D01*
X172850000Y-157825000D01*
X172850000Y-158625000D01*
G36*
X172850000Y-158625000D02*
G01*
X170150000Y-158625000D01*
X170150000Y-157825000D01*
X172850000Y-157825000D01*
X172850000Y-158625000D01*
G37*
X172850000Y-159825000D02*
X170150000Y-159825000D01*
X170150000Y-159025000D01*
X172850000Y-159025000D01*
X172850000Y-159825000D01*
G36*
X172850000Y-159825000D02*
G01*
X170150000Y-159825000D01*
X170150000Y-159025000D01*
X172850000Y-159025000D01*
X172850000Y-159825000D01*
G37*
%TO.C,Q17*%
X180200000Y-142225000D02*
X179350000Y-142225000D01*
X179350000Y-137725000D01*
X180200000Y-137725000D01*
X180200000Y-142225000D01*
G36*
X180200000Y-142225000D02*
G01*
X179350000Y-142225000D01*
X179350000Y-137725000D01*
X180200000Y-137725000D01*
X180200000Y-142225000D01*
G37*
X180200000Y-147225000D02*
X179350000Y-147225000D01*
X179350000Y-142725000D01*
X180200000Y-142725000D01*
X180200000Y-147225000D01*
G36*
X180200000Y-147225000D02*
G01*
X179350000Y-147225000D01*
X179350000Y-142725000D01*
X180200000Y-142725000D01*
X180200000Y-147225000D01*
G37*
X182000000Y-142225000D02*
X180900000Y-142225000D01*
X180900000Y-138225000D01*
X182000000Y-138225000D01*
X182000000Y-142225000D01*
G36*
X182000000Y-142225000D02*
G01*
X180900000Y-142225000D01*
X180900000Y-138225000D01*
X182000000Y-138225000D01*
X182000000Y-142225000D01*
G37*
X182000000Y-146725000D02*
X180900000Y-146725000D01*
X180900000Y-142725000D01*
X182000000Y-142725000D01*
X182000000Y-146725000D01*
G36*
X182000000Y-146725000D02*
G01*
X180900000Y-146725000D01*
X180900000Y-142725000D01*
X182000000Y-142725000D01*
X182000000Y-146725000D01*
G37*
X183800000Y-142225000D02*
X182700000Y-142225000D01*
X182700000Y-138225000D01*
X183800000Y-138225000D01*
X183800000Y-142225000D01*
G36*
X183800000Y-142225000D02*
G01*
X182700000Y-142225000D01*
X182700000Y-138225000D01*
X183800000Y-138225000D01*
X183800000Y-142225000D01*
G37*
X183800000Y-146725000D02*
X182700000Y-146725000D01*
X182700000Y-142725000D01*
X183800000Y-142725000D01*
X183800000Y-146725000D01*
G36*
X183800000Y-146725000D02*
G01*
X182700000Y-146725000D01*
X182700000Y-142725000D01*
X183800000Y-142725000D01*
X183800000Y-146725000D01*
G37*
X185600000Y-142225000D02*
X184500000Y-142225000D01*
X184500000Y-137725000D01*
X185600000Y-137725000D01*
X185600000Y-142225000D01*
G36*
X185600000Y-142225000D02*
G01*
X184500000Y-142225000D01*
X184500000Y-137725000D01*
X185600000Y-137725000D01*
X185600000Y-142225000D01*
G37*
X185600000Y-147225000D02*
X184500000Y-147225000D01*
X184500000Y-142725000D01*
X185600000Y-142725000D01*
X185600000Y-147225000D01*
G36*
X185600000Y-147225000D02*
G01*
X184500000Y-147225000D01*
X184500000Y-142725000D01*
X185600000Y-142725000D01*
X185600000Y-147225000D01*
G37*
X187150000Y-142225000D02*
X186300000Y-142225000D01*
X186300000Y-137725000D01*
X187150000Y-137725000D01*
X187150000Y-142225000D01*
G36*
X187150000Y-142225000D02*
G01*
X186300000Y-142225000D01*
X186300000Y-137725000D01*
X187150000Y-137725000D01*
X187150000Y-142225000D01*
G37*
X187150000Y-147225000D02*
X186300000Y-147225000D01*
X186300000Y-142725000D01*
X187150000Y-142725000D01*
X187150000Y-147225000D01*
G36*
X187150000Y-147225000D02*
G01*
X186300000Y-147225000D01*
X186300000Y-142725000D01*
X187150000Y-142725000D01*
X187150000Y-147225000D01*
G37*
X192225000Y-138675000D02*
X189525000Y-138675000D01*
X189525000Y-137875000D01*
X192225000Y-137875000D01*
X192225000Y-138675000D01*
G36*
X192225000Y-138675000D02*
G01*
X189525000Y-138675000D01*
X189525000Y-137875000D01*
X192225000Y-137875000D01*
X192225000Y-138675000D01*
G37*
X192225000Y-139875000D02*
X189525000Y-139875000D01*
X189525000Y-139075000D01*
X192225000Y-139075000D01*
X192225000Y-139875000D01*
G36*
X192225000Y-139875000D02*
G01*
X189525000Y-139875000D01*
X189525000Y-139075000D01*
X192225000Y-139075000D01*
X192225000Y-139875000D01*
G37*
X192225000Y-141075000D02*
X189525000Y-141075000D01*
X189525000Y-140275000D01*
X192225000Y-140275000D01*
X192225000Y-141075000D01*
G36*
X192225000Y-141075000D02*
G01*
X189525000Y-141075000D01*
X189525000Y-140275000D01*
X192225000Y-140275000D01*
X192225000Y-141075000D01*
G37*
X192225000Y-142275000D02*
X189525000Y-142275000D01*
X189525000Y-141475000D01*
X192225000Y-141475000D01*
X192225000Y-142275000D01*
G36*
X192225000Y-142275000D02*
G01*
X189525000Y-142275000D01*
X189525000Y-141475000D01*
X192225000Y-141475000D01*
X192225000Y-142275000D01*
G37*
X192225000Y-143475000D02*
X189525000Y-143475000D01*
X189525000Y-142675000D01*
X192225000Y-142675000D01*
X192225000Y-143475000D01*
G36*
X192225000Y-143475000D02*
G01*
X189525000Y-143475000D01*
X189525000Y-142675000D01*
X192225000Y-142675000D01*
X192225000Y-143475000D01*
G37*
X192225000Y-144675000D02*
X189525000Y-144675000D01*
X189525000Y-143875000D01*
X192225000Y-143875000D01*
X192225000Y-144675000D01*
G36*
X192225000Y-144675000D02*
G01*
X189525000Y-144675000D01*
X189525000Y-143875000D01*
X192225000Y-143875000D01*
X192225000Y-144675000D01*
G37*
X192225000Y-145875000D02*
X189525000Y-145875000D01*
X189525000Y-145075000D01*
X192225000Y-145075000D01*
X192225000Y-145875000D01*
G36*
X192225000Y-145875000D02*
G01*
X189525000Y-145875000D01*
X189525000Y-145075000D01*
X192225000Y-145075000D01*
X192225000Y-145875000D01*
G37*
X192225000Y-147075000D02*
X189525000Y-147075000D01*
X189525000Y-146275000D01*
X192225000Y-146275000D01*
X192225000Y-147075000D01*
G36*
X192225000Y-147075000D02*
G01*
X189525000Y-147075000D01*
X189525000Y-146275000D01*
X192225000Y-146275000D01*
X192225000Y-147075000D01*
G37*
%TD*%
D11*
%TO.C,C9*%
X120740000Y-105232500D03*
X120740000Y-102107500D03*
%TD*%
D12*
%TO.C,R4*%
X123290000Y-108407500D03*
X125115000Y-108407500D03*
%TD*%
D13*
%TO.C,C29*%
X135450000Y-155550000D03*
X133725000Y-155550000D03*
%TD*%
D14*
%TO.C,C54*%
X107967500Y-164385000D03*
X107967500Y-166110000D03*
%TD*%
D15*
%TO.C,C16*%
X123365000Y-109957500D03*
X125090000Y-109957500D03*
%TD*%
D16*
%TO.C,R22*%
X100950000Y-183612500D03*
X100950000Y-181787500D03*
%TD*%
%TO.C,R15*%
X99725000Y-152575000D03*
X99725000Y-150750000D03*
%TD*%
D15*
%TO.C,C33*%
X105150000Y-151750000D03*
X106875000Y-151750000D03*
%TD*%
D13*
%TO.C,C12*%
X127675000Y-136200000D03*
X125950000Y-136200000D03*
%TD*%
D17*
%TO.C,C37*%
X127005000Y-170435000D03*
X127005000Y-168710000D03*
%TD*%
D18*
%TO.C,R53*%
X101875000Y-159550000D03*
X100050000Y-159550000D03*
%TD*%
D19*
%TO.C,R31*%
X188825000Y-98163779D03*
X190825000Y-98163779D03*
%TD*%
D17*
%TO.C,C26*%
X127525000Y-151400000D03*
X127525000Y-149675000D03*
%TD*%
D16*
%TO.C,R64*%
X182750000Y-24487500D03*
X182750000Y-22662500D03*
%TD*%
D13*
%TO.C,C30*%
X135500000Y-160650000D03*
X133775000Y-160650000D03*
%TD*%
D15*
%TO.C,C10*%
X127000000Y-106657500D03*
X128725000Y-106657500D03*
%TD*%
D19*
%TO.C,R35*%
X188450000Y-59850000D03*
X190450000Y-59850000D03*
%TD*%
%TO.C,R30*%
X169825000Y-110725000D03*
X171825000Y-110725000D03*
%TD*%
%TO.C,R36*%
X169050000Y-59850000D03*
X171050000Y-59850000D03*
%TD*%
%TO.C,R55*%
X170300000Y-148775000D03*
X172300000Y-148775000D03*
%TD*%
D16*
%TO.C,R63*%
X182750000Y-28175000D03*
X182750000Y-26350000D03*
%TD*%
D20*
%TO.C,C82*%
X184525000Y-74360000D03*
X184525000Y-73225000D03*
%TD*%
D17*
%TO.C,C14*%
X120025000Y-139650000D03*
X120025000Y-137925000D03*
%TD*%
D16*
%TO.C,R69*%
X184000000Y-126112500D03*
X184000000Y-124287500D03*
%TD*%
%TO.C,R14*%
X101475000Y-152525000D03*
X101475000Y-150700000D03*
%TD*%
D21*
%TO.C,R3*%
X123365000Y-95632500D03*
X123365000Y-97457500D03*
%TD*%
D20*
%TO.C,C84*%
X184050000Y-23485000D03*
X184050000Y-22350000D03*
%TD*%
D22*
%TO.C,C27*%
X130700000Y-147600000D03*
X132775000Y-147600000D03*
%TD*%
D23*
%TO.C,U1*%
X125575000Y-165150000D03*
X125575000Y-164650000D03*
X125575000Y-164150000D03*
X125575000Y-163650000D03*
X125575000Y-163150000D03*
X125575000Y-162650000D03*
X125575000Y-162150000D03*
X125575000Y-161650000D03*
X125575000Y-161150000D03*
X125575000Y-160650000D03*
X125575000Y-160150000D03*
X125575000Y-159650000D03*
X125575000Y-159150000D03*
X125575000Y-158650000D03*
X125575000Y-158150000D03*
X125575000Y-157650000D03*
X125575000Y-157150000D03*
X125575000Y-156650000D03*
X125575000Y-156150000D03*
X125575000Y-155650000D03*
X125575000Y-155150000D03*
X125575000Y-154650000D03*
X125575000Y-154150000D03*
X125575000Y-153650000D03*
X125575000Y-153150000D03*
D24*
X123900000Y-151475000D03*
X123400000Y-151475000D03*
X122900000Y-151475000D03*
X122400000Y-151475000D03*
X121900000Y-151475000D03*
X121400000Y-151475000D03*
X120900000Y-151475000D03*
X120400000Y-151475000D03*
X119900000Y-151475000D03*
X119400000Y-151475000D03*
X118900000Y-151475000D03*
X118400000Y-151475000D03*
X117900000Y-151475000D03*
X117400000Y-151475000D03*
X116900000Y-151475000D03*
X116400000Y-151475000D03*
X115900000Y-151475000D03*
X115400000Y-151475000D03*
X114900000Y-151475000D03*
X114400000Y-151475000D03*
X113900000Y-151475000D03*
X113400000Y-151475000D03*
X112900000Y-151475000D03*
X112400000Y-151475000D03*
X111900000Y-151475000D03*
D23*
X110225000Y-153150000D03*
X110225000Y-153650000D03*
X110225000Y-154150000D03*
X110225000Y-154650000D03*
X110225000Y-155150000D03*
X110225000Y-155650000D03*
X110225000Y-156150000D03*
X110225000Y-156650000D03*
X110225000Y-157150000D03*
X110225000Y-157650000D03*
X110225000Y-158150000D03*
X110225000Y-158650000D03*
X110225000Y-159150000D03*
X110225000Y-159650000D03*
X110225000Y-160150000D03*
X110225000Y-160650000D03*
X110225000Y-161150000D03*
X110225000Y-161650000D03*
X110225000Y-162150000D03*
X110225000Y-162650000D03*
X110225000Y-163150000D03*
X110225000Y-163650000D03*
X110225000Y-164150000D03*
X110225000Y-164650000D03*
X110225000Y-165150000D03*
D24*
X111900000Y-166825000D03*
X112400000Y-166825000D03*
X112900000Y-166825000D03*
X113400000Y-166825000D03*
X113900000Y-166825000D03*
X114400000Y-166825000D03*
X114900000Y-166825000D03*
X115400000Y-166825000D03*
X115900000Y-166825000D03*
X116400000Y-166825000D03*
X116900000Y-166825000D03*
X117400000Y-166825000D03*
X117900000Y-166825000D03*
X118400000Y-166825000D03*
X118900000Y-166825000D03*
X119400000Y-166825000D03*
X119900000Y-166825000D03*
X120400000Y-166825000D03*
X120900000Y-166825000D03*
X121400000Y-166825000D03*
X121900000Y-166825000D03*
X122400000Y-166825000D03*
X122900000Y-166825000D03*
X123400000Y-166825000D03*
X123900000Y-166825000D03*
%TD*%
D16*
%TO.C,R58*%
X183525000Y-79050000D03*
X183525000Y-77225000D03*
%TD*%
D25*
%TO.C,R67*%
X191000000Y-124780000D03*
X191000000Y-125975000D03*
%TD*%
D15*
%TO.C,C11*%
X131750000Y-137900000D03*
X133475000Y-137900000D03*
%TD*%
D18*
%TO.C,R51*%
X101900000Y-158050000D03*
X100075000Y-158050000D03*
%TD*%
D14*
%TO.C,C56*%
X104967500Y-164385000D03*
X104967500Y-166110000D03*
%TD*%
D26*
%TO.C,U8*%
X110300000Y-183965000D03*
X110300000Y-182695000D03*
X110300000Y-181425000D03*
X110300000Y-180155000D03*
X105350000Y-180155000D03*
X105350000Y-181425000D03*
X105350000Y-182695000D03*
X105350000Y-183965000D03*
%TD*%
D27*
%TO.C,U5*%
X189025000Y-75375000D03*
X188375000Y-75375000D03*
X187715000Y-75375000D03*
X187065000Y-75375000D03*
X187065000Y-78075000D03*
X187715000Y-78075000D03*
X188375000Y-78075000D03*
X189025000Y-78075000D03*
%TD*%
D28*
%TO.C,R27*%
X173925000Y-121125000D03*
X173925000Y-119125000D03*
%TD*%
D29*
%TO.C,U12*%
X111517500Y-170760000D03*
X111517500Y-171710000D03*
X111517500Y-172660000D03*
X113792500Y-172660000D03*
X113792500Y-171710000D03*
X113792500Y-170760000D03*
%TD*%
D30*
%TO.C,Q1*%
X134750000Y-126550000D03*
X136650000Y-126550000D03*
X135700000Y-124675000D03*
%TD*%
D11*
%TO.C,C45*%
X114125000Y-180910000D03*
X114125000Y-177785000D03*
%TD*%
D25*
%TO.C,R39*%
X190525000Y-74030000D03*
X190525000Y-75225000D03*
%TD*%
D19*
%TO.C,R56*%
X189700000Y-161475000D03*
X191700000Y-161475000D03*
%TD*%
D31*
%TO.C,U9*%
X162500000Y-173265000D03*
X162500000Y-174535000D03*
X162500000Y-175805000D03*
X162500000Y-177075000D03*
X167450000Y-177075000D03*
X167450000Y-175805000D03*
X167450000Y-174535000D03*
X167450000Y-173265000D03*
%TD*%
D21*
%TO.C,R6*%
X126625000Y-109925000D03*
X126625000Y-111750000D03*
%TD*%
D25*
%TO.C,R62*%
X189725000Y-23205000D03*
X189725000Y-24400000D03*
%TD*%
D17*
%TO.C,C38*%
X124005000Y-170472500D03*
X124005000Y-168747500D03*
%TD*%
D20*
%TO.C,C86*%
X185000000Y-125110000D03*
X185000000Y-123975000D03*
%TD*%
D32*
%TO.C,R29*%
X190525000Y-79822500D03*
X190525000Y-78627500D03*
%TD*%
D19*
%TO.C,R34*%
X169050000Y-47150000D03*
X171050000Y-47150000D03*
%TD*%
D33*
%TO.C,U4*%
X116550000Y-139300000D03*
X118450000Y-139300000D03*
X117500000Y-137025000D03*
%TD*%
D13*
%TO.C,C48*%
X123942500Y-149110000D03*
X122217500Y-149110000D03*
%TD*%
D31*
%TO.C,U10*%
X161250000Y-71640000D03*
X161250000Y-72910000D03*
X161250000Y-74180000D03*
X161250000Y-75450000D03*
X166200000Y-75450000D03*
X166200000Y-74180000D03*
X166200000Y-72910000D03*
X166200000Y-71640000D03*
%TD*%
D27*
%TO.C,U13*%
X189500000Y-126125000D03*
X188850000Y-126125000D03*
X188190000Y-126125000D03*
X187540000Y-126125000D03*
X187540000Y-128825000D03*
X188190000Y-128825000D03*
X188850000Y-128825000D03*
X189500000Y-128825000D03*
%TD*%
D17*
%TO.C,C25*%
X129025000Y-151375000D03*
X129025000Y-149650000D03*
%TD*%
D32*
%TO.C,R65*%
X191000000Y-130572500D03*
X191000000Y-129377500D03*
%TD*%
D17*
%TO.C,C36*%
X104700000Y-178210000D03*
X104700000Y-176485000D03*
%TD*%
D19*
%TO.C,R33*%
X189225000Y-110725000D03*
X191225000Y-110725000D03*
%TD*%
D28*
%TO.C,R26*%
X174400000Y-171875000D03*
X174400000Y-169875000D03*
%TD*%
D15*
%TO.C,C35*%
X105175000Y-157750000D03*
X106900000Y-157750000D03*
%TD*%
D25*
%TO.C,R8*%
X118475000Y-176005000D03*
X118475000Y-177200000D03*
%TD*%
D13*
%TO.C,C50*%
X123942500Y-146110000D03*
X122217500Y-146110000D03*
%TD*%
D18*
%TO.C,R52*%
X101850000Y-162600000D03*
X100025000Y-162600000D03*
%TD*%
D14*
%TO.C,C51*%
X110667500Y-147885000D03*
X110667500Y-149610000D03*
%TD*%
D18*
%TO.C,R21*%
X104400000Y-123600000D03*
X102575000Y-123600000D03*
%TD*%
%TO.C,R10*%
X122442500Y-170060000D03*
X120617500Y-170060000D03*
%TD*%
%TO.C,R18*%
X106950000Y-156250000D03*
X105125000Y-156250000D03*
%TD*%
D19*
%TO.C,R32*%
X169825000Y-98025000D03*
X171825000Y-98025000D03*
%TD*%
D16*
%TO.C,R25*%
X116617500Y-172735000D03*
X116617500Y-170910000D03*
%TD*%
D19*
%TO.C,R57*%
X189300000Y-148913779D03*
X191300000Y-148913779D03*
%TD*%
D16*
%TO.C,R59*%
X183525000Y-75362500D03*
X183525000Y-73537500D03*
%TD*%
D13*
%TO.C,C32*%
X106767500Y-162860000D03*
X105042500Y-162860000D03*
%TD*%
D32*
%TO.C,R60*%
X189750000Y-28947500D03*
X189750000Y-27752500D03*
%TD*%
D17*
%TO.C,C31*%
X112417500Y-149035000D03*
X112417500Y-147310000D03*
%TD*%
D34*
%TO.C,L1*%
X128390000Y-109157500D03*
X131365000Y-109157500D03*
%TD*%
D14*
%TO.C,C53*%
X107567500Y-147885000D03*
X107567500Y-149610000D03*
%TD*%
D20*
%TO.C,C87*%
X191000000Y-128260000D03*
X191000000Y-127125000D03*
%TD*%
D15*
%TO.C,C34*%
X105175000Y-154750000D03*
X106900000Y-154750000D03*
%TD*%
D12*
%TO.C,R5*%
X119890000Y-109957500D03*
X121715000Y-109957500D03*
%TD*%
D18*
%TO.C,R9*%
X119542500Y-169060000D03*
X117717500Y-169060000D03*
%TD*%
D28*
%TO.C,FB1*%
X130775000Y-151300000D03*
X130775000Y-149300000D03*
%TD*%
D16*
%TO.C,R24*%
X109567500Y-172735000D03*
X109567500Y-170910000D03*
%TD*%
D14*
%TO.C,C55*%
X106467500Y-164385000D03*
X106467500Y-166110000D03*
%TD*%
D18*
%TO.C,R54*%
X101900000Y-161100000D03*
X100075000Y-161100000D03*
%TD*%
D20*
%TO.C,C83*%
X190525000Y-77510000D03*
X190525000Y-76375000D03*
%TD*%
D28*
%TO.C,R28*%
X173150000Y-70250000D03*
X173150000Y-68250000D03*
%TD*%
D19*
%TO.C,R13*%
X170300000Y-161475000D03*
X172300000Y-161475000D03*
%TD*%
D27*
%TO.C,U11*%
X188250000Y-24500000D03*
X187600000Y-24500000D03*
X186940000Y-24500000D03*
X186290000Y-24500000D03*
X186290000Y-27200000D03*
X186940000Y-27200000D03*
X187600000Y-27200000D03*
X188250000Y-27200000D03*
%TD*%
D20*
%TO.C,C85*%
X189750000Y-26635000D03*
X189750000Y-25500000D03*
%TD*%
D16*
%TO.C,R23*%
X112175000Y-177175000D03*
X112175000Y-175350000D03*
%TD*%
D35*
%TO.C,U2*%
X125965000Y-101257500D03*
X124265000Y-101257500D03*
X125965000Y-102617500D03*
X124265000Y-102617500D03*
D36*
X127020000Y-99375000D03*
X125750000Y-99375000D03*
X124480000Y-99375000D03*
X123210000Y-99375000D03*
X123210000Y-104500000D03*
X124480000Y-104500000D03*
X125750000Y-104500000D03*
X127020000Y-104500000D03*
%TD*%
D17*
%TO.C,C13*%
X118900000Y-136200000D03*
X118900000Y-134475000D03*
%TD*%
D37*
%TO.C,U3*%
X131712500Y-136340000D03*
X131712500Y-135390000D03*
X131712500Y-134440000D03*
X129437500Y-134440000D03*
X129437500Y-136340000D03*
%TD*%
D38*
%TO.C,J11*%
X98215000Y-157150000D03*
X98215000Y-157950000D03*
D39*
X98215000Y-159100000D03*
X98215000Y-160100000D03*
X98215000Y-160600000D03*
X98215000Y-161600000D03*
D38*
X98215000Y-162750000D03*
X98215000Y-163550000D03*
X98215000Y-163550000D03*
X98215000Y-162750000D03*
D39*
X98215000Y-162100000D03*
X98215000Y-161100000D03*
X98215000Y-159600000D03*
X98215000Y-158600000D03*
D38*
X98215000Y-157950000D03*
X98215000Y-157150000D03*
D40*
X97640000Y-156030000D03*
D41*
X93460000Y-156030000D03*
D40*
X97640000Y-164670000D03*
D41*
X93460000Y-164670000D03*
%TD*%
D14*
%TO.C,C52*%
X109117500Y-147885000D03*
X109117500Y-149610000D03*
%TD*%
D17*
%TO.C,C41*%
X125505000Y-170472500D03*
X125505000Y-168747500D03*
%TD*%
D18*
%TO.C,R17*%
X106950000Y-159250000D03*
X105125000Y-159250000D03*
%TD*%
D15*
%TO.C,C15*%
X125650000Y-113325000D03*
X127375000Y-113325000D03*
%TD*%
D13*
%TO.C,C49*%
X123942500Y-147620000D03*
X122217500Y-147620000D03*
%TD*%
D11*
%TO.C,C17*%
X130015000Y-114857500D03*
X130015000Y-111732500D03*
%TD*%
D16*
%TO.C,R68*%
X184000000Y-129800000D03*
X184000000Y-127975000D03*
%TD*%
D31*
%TO.C,U6*%
X162025000Y-122515000D03*
X162025000Y-123785000D03*
X162025000Y-125055000D03*
X162025000Y-126325000D03*
X166975000Y-126325000D03*
X166975000Y-125055000D03*
X166975000Y-123785000D03*
X166975000Y-122515000D03*
%TD*%
D16*
%TO.C,R16*%
X97875000Y-152575000D03*
X97875000Y-150750000D03*
%TD*%
D19*
%TO.C,R37*%
X188050000Y-47288779D03*
X190050000Y-47288779D03*
%TD*%
D18*
%TO.C,R19*%
X106925000Y-153250000D03*
X105100000Y-153250000D03*
%TD*%
M02*
