M48
; DRILL file {KiCad 9.0.7} date 2026-01-12T17:17:54+0300
; FORMAT={-:-/ absolute / metric / decimal}
; #@! TF.CreationDate,2026-01-12T17:17:54+03:00
; #@! TF.GenerationSoftware,Kicad,Pcbnew,9.0.7
; #@! TF.FileFunction,Plated,1,6,PTH
FMAT,2
METRIC
; #@! TA.AperFunction,Plated,PTH,ComponentDrill
T1C0.200
; #@! TA.AperFunction,Plated,PTH,ViaDrill
T2C0.250
; #@! TA.AperFunction,Plated,PTH,ViaDrill
T3C0.300
; #@! TA.AperFunction,Plated,PTH,ViaDrill
T4C0.400
; #@! TA.AperFunction,Plated,PTH,ComponentDrill
T5C0.500
; #@! TA.AperFunction,Plated,PTH,ViaDrill
T6C0.600
; #@! TA.AperFunction,Plated,PTH,ComponentDrill
T7C0.600
; #@! TA.AperFunction,Plated,PTH,ComponentDrill
T8C0.650
; #@! TA.AperFunction,Plated,PTH,ComponentDrill
T9C0.700
; #@! TA.AperFunction,Plated,PTH,ComponentDrill
T10C0.800
; #@! TA.AperFunction,Plated,PTH,ComponentDrill
T11C0.900
; #@! TA.AperFunction,Plated,PTH,ComponentDrill
T12C1.000
; #@! TA.AperFunction,Plated,PTH,ComponentDrill
T13C1.100
; #@! TA.AperFunction,Plated,PTH,ComponentDrill
T14C3.700
%
G90
G05
T1
X123.165Y-101.287
X123.165Y-102.587
X124.465Y-101.287
X124.465Y-102.587
X125.765Y-101.287
X125.765Y-102.587
X127.065Y-101.287
X127.065Y-102.587
T2
X103.575Y-158.8
X103.825Y-153.25
X103.95Y-156.175
X107.525Y-155.45
X107.575Y-158.2
X107.625Y-152.4
X109.617Y-173.86
X115.4Y-169.01
X126.825Y-160.95
X126.925Y-156.15
X127.125Y-155.65
X129.925Y-162.85
T3
X102.175Y-177.45
X102.525Y-180.4
X108.05Y-180.125
X108.125Y-183.95
X108.575Y-153.325
X108.65Y-152.375
X109.487Y-151.963
X111.8Y-176.435
X112.0Y-160.375
X113.25Y-153.8
X113.375Y-164.95
X113.468Y-173.86
X114.45Y-153.525
X114.8Y-175.75
X115.75Y-164.3
X116.3Y-165.05
X117.586Y-159.608
X118.7Y-146.025
X118.725Y-143.3
X118.725Y-144.1
X118.725Y-145.1
X118.75Y-146.975
X118.75Y-147.85
X120.3Y-164.075
X120.45Y-148.85
X120.525Y-155.8
X120.747Y-150.027
X120.95Y-168.593
X121.103Y-158.614
X121.125Y-153.825
X121.237Y-143.162
X121.625Y-156.75
X122.175Y-163.95
X122.499Y-168.947
X123.4Y-163.925
X126.875Y-160.2
X127.725Y-137.475
X131.025Y-165.9
X132.468Y-159.36
X134.625Y-135.525
X139.175Y-144.975
X140.85Y-127.675
X144.825Y-125.65
X147.375Y-125.625
X155.425Y-32.6
X157.25Y-129.575
X158.35Y-35.55
X158.35Y-36.55
X158.35Y-37.55
X158.35Y-38.55
X158.35Y-39.55
X158.35Y-40.55
X158.35Y-41.55
X158.35Y-42.55
X158.35Y-43.55
X158.35Y-44.55
X158.35Y-45.55
X158.35Y-46.55
X158.35Y-47.55
X158.35Y-48.55
X158.35Y-49.55
X158.35Y-50.55
X158.35Y-51.55
X158.35Y-52.55
X158.35Y-53.55
X158.35Y-54.55
X158.35Y-55.55
X158.35Y-56.55
X158.35Y-57.55
X158.35Y-58.55
X158.6Y-72.9
X158.6Y-74.175
X159.125Y-86.425
X159.125Y-87.425
X159.125Y-88.425
X159.125Y-89.425
X159.125Y-90.425
X159.125Y-91.425
X159.125Y-92.425
X159.125Y-93.425
X159.125Y-94.425
X159.125Y-95.425
X159.125Y-96.425
X159.125Y-97.425
X159.125Y-98.425
X159.125Y-99.425
X159.125Y-100.425
X159.125Y-101.425
X159.125Y-102.425
X159.125Y-103.425
X159.125Y-104.425
X159.125Y-105.425
X159.125Y-106.425
X159.125Y-107.425
X159.125Y-108.425
X159.125Y-109.425
X159.35Y-34.55
X159.35Y-35.55
X159.35Y-36.55
X159.35Y-37.55
X159.35Y-38.55
X159.35Y-39.55
X159.35Y-40.55
X159.35Y-41.55
X159.35Y-42.55
X159.35Y-43.55
X159.35Y-44.55
X159.35Y-45.55
X159.35Y-46.55
X159.35Y-47.55
X159.35Y-48.55
X159.35Y-49.55
X159.35Y-50.55
X159.35Y-51.55
X159.35Y-52.55
X159.35Y-53.55
X159.35Y-54.55
X159.35Y-55.55
X159.35Y-56.55
X159.35Y-57.55
X159.35Y-58.55
X159.6Y-137.175
X159.6Y-138.175
X159.6Y-139.175
X159.6Y-140.175
X159.6Y-141.175
X159.6Y-142.175
X159.6Y-143.175
X159.6Y-144.175
X159.6Y-145.175
X159.6Y-146.175
X159.6Y-147.175
X159.6Y-148.175
X159.6Y-149.175
X159.6Y-150.175
X159.6Y-151.175
X159.6Y-152.175
X159.6Y-153.175
X159.6Y-154.175
X159.6Y-155.175
X159.6Y-156.175
X159.6Y-157.175
X159.6Y-158.175
X159.6Y-159.175
X159.6Y-160.175
X159.615Y-123.785
X159.75Y-125.05
X160.025Y-174.535
X160.125Y-85.425
X160.125Y-86.425
X160.125Y-87.425
X160.125Y-88.425
X160.125Y-89.425
X160.125Y-90.425
X160.125Y-91.425
X160.125Y-92.425
X160.125Y-93.425
X160.125Y-94.425
X160.125Y-95.425
X160.125Y-96.425
X160.125Y-97.425
X160.125Y-98.425
X160.125Y-99.425
X160.125Y-100.425
X160.125Y-101.425
X160.125Y-102.425
X160.125Y-103.425
X160.125Y-104.425
X160.125Y-105.425
X160.125Y-106.425
X160.125Y-107.425
X160.125Y-108.425
X160.125Y-109.425
X160.125Y-175.825
X160.35Y-33.55
X160.35Y-34.55
X160.35Y-35.55
X160.35Y-36.55
X160.35Y-37.55
X160.35Y-38.55
X160.35Y-39.55
X160.35Y-40.55
X160.35Y-41.55
X160.35Y-42.55
X160.35Y-43.55
X160.35Y-44.55
X160.35Y-45.55
X160.35Y-46.55
X160.35Y-47.55
X160.35Y-48.55
X160.35Y-49.55
X160.35Y-50.55
X160.35Y-51.55
X160.35Y-52.55
X160.35Y-53.55
X160.35Y-54.55
X160.35Y-55.55
X160.35Y-56.55
X160.35Y-57.55
X160.35Y-58.55
X160.55Y-31.25
X160.55Y-32.25
X160.6Y-136.175
X160.6Y-137.175
X160.6Y-138.175
X160.6Y-139.175
X160.6Y-140.175
X160.6Y-141.175
X160.6Y-142.175
X160.6Y-143.175
X160.6Y-144.175
X160.6Y-145.175
X160.6Y-146.175
X160.6Y-147.175
X160.6Y-148.175
X160.6Y-149.175
X160.6Y-150.175
X160.6Y-151.175
X160.6Y-152.175
X160.6Y-153.175
X160.6Y-154.175
X160.6Y-155.175
X160.6Y-156.175
X160.6Y-157.175
X160.6Y-158.175
X160.6Y-159.175
X160.6Y-160.175
X161.125Y-84.425
X161.125Y-85.425
X161.125Y-86.425
X161.125Y-87.425
X161.125Y-88.425
X161.125Y-89.425
X161.125Y-90.425
X161.125Y-91.425
X161.125Y-92.425
X161.125Y-93.425
X161.125Y-94.425
X161.125Y-95.425
X161.125Y-96.425
X161.125Y-97.425
X161.125Y-98.425
X161.125Y-99.425
X161.125Y-100.425
X161.125Y-101.425
X161.125Y-102.425
X161.125Y-103.425
X161.125Y-104.425
X161.125Y-105.425
X161.125Y-106.425
X161.125Y-107.425
X161.125Y-108.425
X161.125Y-109.425
X161.25Y-70.45
X161.325Y-82.125
X161.325Y-83.125
X161.35Y-33.55
X161.35Y-34.55
X161.35Y-35.55
X161.35Y-36.55
X161.35Y-37.55
X161.35Y-38.55
X161.35Y-39.55
X161.35Y-40.55
X161.35Y-41.55
X161.35Y-42.55
X161.35Y-43.55
X161.35Y-44.55
X161.35Y-45.55
X161.35Y-46.55
X161.35Y-47.55
X161.35Y-48.55
X161.35Y-49.55
X161.35Y-50.55
X161.35Y-51.55
X161.35Y-52.55
X161.35Y-53.55
X161.35Y-54.55
X161.35Y-55.55
X161.35Y-56.55
X161.35Y-57.55
X161.35Y-58.55
X161.55Y-30.25
X161.55Y-31.25
X161.55Y-32.25
X161.6Y-135.175
X161.6Y-136.175
X161.6Y-137.175
X161.6Y-138.175
X161.6Y-139.175
X161.6Y-140.175
X161.6Y-141.175
X161.6Y-142.175
X161.6Y-143.175
X161.6Y-144.175
X161.6Y-145.175
X161.6Y-146.175
X161.6Y-147.175
X161.6Y-148.175
X161.6Y-149.175
X161.6Y-150.175
X161.6Y-151.175
X161.6Y-152.175
X161.6Y-153.175
X161.6Y-154.175
X161.6Y-155.175
X161.6Y-156.175
X161.6Y-157.175
X161.6Y-158.175
X161.6Y-159.175
X161.6Y-160.175
X161.8Y-132.875
X161.8Y-133.875
X162.025Y-121.325
X162.125Y-84.425
X162.125Y-85.425
X162.125Y-86.425
X162.125Y-87.425
X162.125Y-88.425
X162.125Y-89.425
X162.125Y-90.425
X162.125Y-91.425
X162.125Y-92.425
X162.125Y-93.425
X162.125Y-94.425
X162.125Y-95.425
X162.125Y-96.425
X162.125Y-97.425
X162.125Y-98.425
X162.125Y-99.425
X162.125Y-100.425
X162.125Y-101.425
X162.125Y-102.425
X162.125Y-103.425
X162.125Y-104.425
X162.125Y-105.425
X162.125Y-106.425
X162.125Y-107.425
X162.125Y-108.425
X162.125Y-109.425
X162.25Y-33.55
X162.25Y-34.55
X162.25Y-35.55
X162.25Y-36.55
X162.25Y-37.55
X162.25Y-38.55
X162.25Y-39.55
X162.25Y-40.55
X162.25Y-41.55
X162.25Y-42.55
X162.25Y-43.55
X162.25Y-44.55
X162.25Y-45.55
X162.25Y-46.55
X162.25Y-47.55
X162.25Y-48.55
X162.25Y-49.55
X162.25Y-50.55
X162.25Y-51.55
X162.25Y-52.55
X162.25Y-53.55
X162.25Y-54.55
X162.25Y-55.55
X162.25Y-56.55
X162.25Y-57.55
X162.25Y-58.55
X162.325Y-81.125
X162.325Y-82.125
X162.325Y-83.125
X162.5Y-172.075
X162.55Y-30.25
X162.55Y-31.25
X162.55Y-32.25
X162.6Y-135.175
X162.6Y-136.175
X162.6Y-137.175
X162.6Y-138.175
X162.6Y-139.175
X162.6Y-140.175
X162.6Y-141.175
X162.6Y-142.175
X162.6Y-143.175
X162.6Y-144.175
X162.6Y-145.175
X162.6Y-146.175
X162.6Y-147.175
X162.6Y-148.175
X162.6Y-149.175
X162.6Y-150.175
X162.6Y-151.175
X162.6Y-152.175
X162.6Y-153.175
X162.6Y-154.175
X162.6Y-155.175
X162.6Y-156.175
X162.6Y-157.175
X162.6Y-158.175
X162.6Y-159.175
X162.6Y-160.175
X162.8Y-131.875
X162.8Y-132.875
X162.8Y-133.875
X163.025Y-84.425
X163.025Y-85.425
X163.025Y-86.425
X163.025Y-87.425
X163.025Y-88.425
X163.025Y-89.425
X163.025Y-90.425
X163.025Y-91.425
X163.025Y-92.425
X163.025Y-93.425
X163.025Y-94.425
X163.025Y-95.425
X163.025Y-96.425
X163.025Y-97.425
X163.025Y-98.425
X163.025Y-99.425
X163.025Y-100.425
X163.025Y-101.425
X163.025Y-102.425
X163.025Y-103.425
X163.025Y-104.425
X163.025Y-105.425
X163.025Y-106.425
X163.025Y-107.425
X163.025Y-108.425
X163.025Y-109.425
X163.25Y-33.55
X163.25Y-34.55
X163.25Y-35.55
X163.25Y-36.55
X163.25Y-37.55
X163.25Y-38.55
X163.25Y-39.55
X163.25Y-40.55
X163.25Y-41.55
X163.25Y-42.55
X163.25Y-43.55
X163.25Y-44.55
X163.25Y-45.55
X163.25Y-46.55
X163.25Y-47.55
X163.25Y-48.55
X163.25Y-49.55
X163.25Y-50.55
X163.25Y-51.55
X163.25Y-52.55
X163.25Y-53.55
X163.25Y-54.55
X163.25Y-55.55
X163.25Y-56.55
X163.25Y-57.55
X163.25Y-58.55
X163.325Y-81.125
X163.325Y-82.125
X163.325Y-83.125
X163.5Y-78.275
X163.5Y-135.175
X163.5Y-136.175
X163.5Y-137.175
X163.5Y-138.175
X163.5Y-139.175
X163.5Y-140.175
X163.5Y-141.175
X163.5Y-142.175
X163.5Y-143.175
X163.5Y-144.175
X163.5Y-145.175
X163.5Y-146.175
X163.5Y-147.175
X163.5Y-148.175
X163.5Y-149.175
X163.5Y-150.175
X163.5Y-151.175
X163.5Y-152.175
X163.5Y-153.175
X163.5Y-154.175
X163.5Y-155.175
X163.5Y-156.175
X163.5Y-157.175
X163.5Y-158.175
X163.5Y-159.175
X163.5Y-160.175
X163.55Y-30.25
X163.55Y-31.25
X163.55Y-32.25
X163.8Y-131.875
X163.8Y-132.875
X163.8Y-133.875
X164.025Y-84.425
X164.025Y-85.425
X164.025Y-86.425
X164.025Y-87.425
X164.025Y-88.425
X164.025Y-89.425
X164.025Y-90.425
X164.025Y-91.425
X164.025Y-92.425
X164.025Y-93.425
X164.025Y-94.425
X164.025Y-95.425
X164.025Y-96.425
X164.025Y-97.425
X164.025Y-98.425
X164.025Y-99.425
X164.025Y-100.425
X164.025Y-101.425
X164.025Y-102.425
X164.025Y-103.425
X164.025Y-104.425
X164.025Y-105.425
X164.025Y-106.425
X164.025Y-107.425
X164.025Y-108.425
X164.025Y-109.425
X164.25Y-33.55
X164.25Y-34.55
X164.25Y-35.55
X164.25Y-36.55
X164.25Y-37.55
X164.25Y-38.55
X164.25Y-39.55
X164.25Y-40.55
X164.25Y-41.55
X164.25Y-42.55
X164.25Y-43.55
X164.25Y-44.55
X164.25Y-45.55
X164.25Y-46.55
X164.25Y-47.55
X164.25Y-48.55
X164.25Y-49.55
X164.25Y-50.55
X164.25Y-51.55
X164.25Y-52.55
X164.25Y-53.55
X164.25Y-54.55
X164.25Y-55.55
X164.25Y-56.55
X164.25Y-57.55
X164.25Y-58.55
X164.325Y-81.125
X164.325Y-82.125
X164.325Y-83.125
X164.5Y-135.175
X164.5Y-136.175
X164.5Y-137.175
X164.5Y-138.175
X164.5Y-139.175
X164.5Y-140.175
X164.5Y-141.175
X164.5Y-142.175
X164.5Y-143.175
X164.5Y-144.175
X164.5Y-145.175
X164.5Y-146.175
X164.5Y-147.175
X164.5Y-148.175
X164.5Y-149.175
X164.5Y-150.175
X164.5Y-151.175
X164.5Y-152.175
X164.5Y-153.175
X164.5Y-154.175
X164.5Y-155.175
X164.5Y-156.175
X164.5Y-157.175
X164.5Y-158.175
X164.5Y-159.175
X164.5Y-160.175
X164.55Y-30.25
X164.55Y-31.25
X164.55Y-32.25
X164.8Y-131.875
X164.8Y-132.875
X164.8Y-133.875
X165.025Y-84.425
X165.025Y-85.425
X165.025Y-86.425
X165.025Y-87.425
X165.025Y-88.425
X165.025Y-89.425
X165.025Y-90.425
X165.025Y-91.425
X165.025Y-92.425
X165.025Y-93.425
X165.025Y-94.425
X165.025Y-95.425
X165.025Y-96.425
X165.025Y-97.425
X165.025Y-98.425
X165.025Y-99.425
X165.025Y-100.425
X165.025Y-101.425
X165.025Y-102.425
X165.025Y-103.425
X165.025Y-104.425
X165.025Y-105.425
X165.025Y-106.425
X165.025Y-107.425
X165.025Y-108.425
X165.025Y-109.425
X165.25Y-33.55
X165.25Y-34.55
X165.25Y-35.55
X165.25Y-36.55
X165.25Y-37.55
X165.25Y-38.55
X165.25Y-39.55
X165.25Y-40.55
X165.25Y-41.55
X165.25Y-42.55
X165.25Y-43.55
X165.25Y-44.55
X165.25Y-45.55
X165.25Y-46.55
X165.25Y-47.55
X165.25Y-48.55
X165.25Y-49.55
X165.25Y-50.55
X165.25Y-51.55
X165.25Y-52.55
X165.25Y-53.55
X165.25Y-54.55
X165.25Y-55.55
X165.25Y-56.55
X165.25Y-57.55
X165.25Y-58.55
X165.325Y-81.125
X165.325Y-82.125
X165.325Y-83.125
X165.5Y-135.175
X165.5Y-136.175
X165.5Y-137.175
X165.5Y-138.175
X165.5Y-139.175
X165.5Y-140.175
X165.5Y-141.175
X165.5Y-142.175
X165.5Y-143.175
X165.5Y-144.175
X165.5Y-145.175
X165.5Y-146.175
X165.5Y-147.175
X165.5Y-148.175
X165.5Y-149.175
X165.5Y-150.175
X165.5Y-151.175
X165.5Y-152.175
X165.5Y-153.175
X165.5Y-154.175
X165.5Y-155.175
X165.5Y-156.175
X165.5Y-157.175
X165.5Y-158.175
X165.5Y-159.175
X165.5Y-160.175
X165.55Y-30.25
X165.55Y-31.25
X165.55Y-32.25
X165.725Y-69.975
X165.8Y-131.875
X165.8Y-132.875
X165.8Y-133.875
X166.025Y-84.425
X166.025Y-85.425
X166.025Y-86.425
X166.025Y-87.425
X166.025Y-88.425
X166.025Y-89.425
X166.025Y-90.425
X166.025Y-91.425
X166.025Y-92.425
X166.025Y-93.425
X166.025Y-94.425
X166.025Y-95.425
X166.025Y-96.425
X166.025Y-97.425
X166.025Y-98.425
X166.025Y-99.425
X166.025Y-100.425
X166.025Y-101.425
X166.025Y-102.425
X166.025Y-103.425
X166.025Y-104.425
X166.025Y-105.425
X166.025Y-106.425
X166.025Y-107.425
X166.025Y-108.425
X166.025Y-109.425
X166.15Y-33.55
X166.25Y-34.55
X166.25Y-35.55
X166.25Y-36.55
X166.25Y-37.55
X166.25Y-38.55
X166.25Y-39.55
X166.25Y-40.55
X166.25Y-41.55
X166.25Y-42.55
X166.25Y-43.55
X166.25Y-44.55
X166.25Y-45.55
X166.25Y-46.55
X166.25Y-47.55
X166.25Y-48.55
X166.25Y-49.55
X166.25Y-50.55
X166.25Y-51.55
X166.25Y-52.55
X166.25Y-53.55
X166.25Y-54.55
X166.25Y-55.55
X166.25Y-56.55
X166.25Y-57.55
X166.25Y-58.55
X166.325Y-81.125
X166.325Y-82.125
X166.325Y-83.125
X166.5Y-120.85
X166.5Y-135.175
X166.5Y-136.175
X166.5Y-137.175
X166.5Y-138.175
X166.5Y-139.175
X166.5Y-140.175
X166.5Y-141.175
X166.5Y-142.175
X166.5Y-143.175
X166.5Y-144.175
X166.5Y-145.175
X166.5Y-146.175
X166.5Y-147.175
X166.5Y-148.175
X166.5Y-149.175
X166.5Y-150.175
X166.5Y-151.175
X166.5Y-152.175
X166.5Y-153.175
X166.5Y-154.175
X166.5Y-155.175
X166.5Y-156.175
X166.5Y-157.175
X166.5Y-158.175
X166.5Y-159.175
X166.5Y-160.175
X166.55Y-30.25
X166.55Y-31.25
X166.55Y-32.25
X166.8Y-131.875
X166.8Y-132.875
X166.8Y-133.875
X166.925Y-84.425
X166.975Y-171.6
X167.025Y-85.425
X167.025Y-86.425
X167.025Y-87.425
X167.025Y-88.425
X167.025Y-89.425
X167.025Y-90.425
X167.025Y-91.425
X167.025Y-92.425
X167.025Y-93.425
X167.025Y-94.425
X167.025Y-95.425
X167.025Y-96.425
X167.025Y-97.425
X167.025Y-98.425
X167.025Y-99.425
X167.025Y-100.425
X167.025Y-101.425
X167.025Y-102.425
X167.025Y-103.425
X167.025Y-104.425
X167.025Y-105.425
X167.025Y-106.425
X167.025Y-107.425
X167.025Y-108.425
X167.025Y-109.425
X167.325Y-81.125
X167.325Y-82.125
X167.325Y-83.125
X167.4Y-135.175
X167.5Y-136.175
X167.5Y-137.175
X167.5Y-138.175
X167.5Y-139.175
X167.5Y-140.175
X167.5Y-141.175
X167.5Y-142.175
X167.5Y-143.175
X167.5Y-144.175
X167.5Y-145.175
X167.5Y-146.175
X167.5Y-147.175
X167.5Y-148.175
X167.5Y-149.175
X167.5Y-150.175
X167.5Y-151.175
X167.5Y-152.175
X167.5Y-153.175
X167.5Y-154.175
X167.5Y-155.175
X167.5Y-156.175
X167.5Y-157.175
X167.5Y-158.175
X167.5Y-159.175
X167.5Y-160.175
X167.55Y-30.25
X167.55Y-31.25
X167.55Y-32.25
X167.55Y-33.25
X167.55Y-34.25
X167.55Y-35.25
X167.8Y-131.875
X167.8Y-132.875
X167.8Y-133.875
X168.325Y-81.125
X168.325Y-82.125
X168.325Y-83.125
X168.325Y-84.125
X168.325Y-85.125
X168.325Y-86.125
X168.55Y-30.25
X168.55Y-31.25
X168.55Y-32.25
X168.55Y-33.25
X168.55Y-34.25
X168.55Y-35.25
X168.8Y-131.875
X168.8Y-132.875
X168.8Y-133.875
X168.8Y-134.875
X168.8Y-135.875
X168.8Y-136.875
X169.325Y-81.125
X169.325Y-82.125
X169.325Y-83.125
X169.325Y-84.125
X169.325Y-85.125
X169.325Y-86.125
X169.45Y-33.25
X169.45Y-34.25
X169.45Y-35.25
X169.55Y-30.25
X169.55Y-31.25
X169.55Y-32.25
X169.8Y-131.875
X169.8Y-132.875
X169.8Y-133.875
X169.8Y-134.875
X169.8Y-135.875
X169.8Y-136.875
X170.225Y-84.125
X170.225Y-85.125
X170.225Y-86.125
X170.325Y-81.125
X170.325Y-82.125
X170.325Y-83.125
X170.45Y-33.25
X170.45Y-34.25
X170.45Y-35.25
X170.55Y-30.25
X170.55Y-31.25
X170.55Y-32.25
X170.7Y-134.875
X170.7Y-135.875
X170.7Y-136.875
X170.8Y-131.875
X170.8Y-132.875
X170.8Y-133.875
X171.225Y-84.125
X171.225Y-85.125
X171.225Y-86.125
X171.325Y-81.125
X171.325Y-82.125
X171.325Y-83.125
X171.45Y-33.25
X171.45Y-34.25
X171.45Y-35.25
X171.55Y-30.25
X171.55Y-31.25
X171.55Y-32.25
X171.55Y-36.55
X171.55Y-37.55
X171.55Y-38.55
X171.55Y-39.55
X171.55Y-40.55
X171.55Y-41.55
X171.55Y-42.55
X171.55Y-43.55
X171.55Y-49.55
X171.55Y-50.55
X171.55Y-51.55
X171.55Y-52.55
X171.55Y-53.55
X171.55Y-54.55
X171.55Y-55.55
X171.55Y-56.55
X171.55Y-61.55
X171.55Y-62.55
X171.55Y-63.45
X171.55Y-64.45
X171.55Y-65.45
X171.7Y-134.875
X171.7Y-135.875
X171.7Y-136.875
X171.8Y-131.875
X171.8Y-132.875
X171.8Y-133.875
X172.225Y-84.125
X172.225Y-85.125
X172.225Y-86.125
X172.325Y-81.125
X172.325Y-82.125
X172.325Y-83.125
X172.325Y-87.425
X172.325Y-88.425
X172.325Y-89.425
X172.325Y-90.425
X172.325Y-91.425
X172.325Y-92.425
X172.325Y-93.425
X172.325Y-94.425
X172.325Y-100.425
X172.325Y-101.425
X172.325Y-102.425
X172.325Y-103.425
X172.325Y-104.425
X172.325Y-105.425
X172.325Y-106.425
X172.325Y-107.425
X172.325Y-112.425
X172.325Y-113.425
X172.325Y-114.325
X172.325Y-115.325
X172.325Y-116.325
X172.55Y-30.25
X172.55Y-31.25
X172.55Y-32.25
X172.55Y-36.55
X172.55Y-37.55
X172.55Y-38.55
X172.55Y-39.55
X172.55Y-40.55
X172.55Y-41.55
X172.55Y-42.55
X172.55Y-43.55
X172.55Y-44.55
X172.55Y-45.55
X172.55Y-46.55
X172.55Y-47.55
X172.55Y-48.55
X172.55Y-49.55
X172.55Y-50.55
X172.55Y-51.55
X172.55Y-52.55
X172.55Y-53.55
X172.55Y-54.55
X172.55Y-55.55
X172.55Y-56.55
X172.55Y-57.55
X172.55Y-58.55
X172.55Y-59.55
X172.55Y-60.55
X172.55Y-61.55
X172.55Y-62.55
X172.55Y-63.45
X172.55Y-64.45
X172.55Y-65.45
X172.65Y-33.25
X172.65Y-34.25
X172.65Y-35.25
X172.7Y-134.875
X172.7Y-135.875
X172.7Y-136.875
X172.8Y-131.875
X172.8Y-132.875
X172.8Y-133.875
X172.8Y-138.175
X172.8Y-139.175
X172.8Y-140.175
X172.8Y-141.175
X172.8Y-142.175
X172.8Y-143.175
X172.8Y-144.175
X172.8Y-145.175
X172.8Y-151.175
X172.8Y-152.175
X172.8Y-153.175
X172.8Y-154.175
X172.8Y-155.175
X172.8Y-156.175
X172.8Y-157.175
X172.8Y-158.175
X172.8Y-163.175
X172.8Y-164.175
X172.8Y-165.075
X172.8Y-166.075
X172.8Y-167.075
X173.325Y-81.125
X173.325Y-82.125
X173.325Y-83.125
X173.325Y-87.425
X173.325Y-88.425
X173.325Y-89.425
X173.325Y-90.425
X173.325Y-91.425
X173.325Y-92.425
X173.325Y-93.425
X173.325Y-94.425
X173.325Y-95.425
X173.325Y-96.425
X173.325Y-97.425
X173.325Y-98.425
X173.325Y-99.425
X173.325Y-100.425
X173.325Y-101.425
X173.325Y-102.425
X173.325Y-103.425
X173.325Y-104.425
X173.325Y-105.425
X173.325Y-106.425
X173.325Y-107.425
X173.325Y-108.425
X173.325Y-109.425
X173.325Y-110.425
X173.325Y-111.425
X173.325Y-112.425
X173.325Y-113.425
X173.325Y-114.325
X173.325Y-115.325
X173.325Y-116.325
X173.425Y-84.125
X173.425Y-85.125
X173.425Y-86.125
X173.55Y-30.25
X173.55Y-31.25
X173.55Y-32.25
X173.55Y-36.55
X173.55Y-37.55
X173.55Y-38.55
X173.55Y-39.55
X173.55Y-40.55
X173.55Y-41.55
X173.55Y-42.55
X173.55Y-43.55
X173.55Y-44.55
X173.55Y-45.55
X173.55Y-46.55
X173.55Y-47.55
X173.55Y-48.55
X173.55Y-49.55
X173.55Y-50.55
X173.55Y-51.55
X173.55Y-52.55
X173.55Y-53.55
X173.55Y-54.55
X173.55Y-55.55
X173.55Y-56.55
X173.55Y-57.55
X173.55Y-58.55
X173.55Y-59.55
X173.55Y-60.55
X173.55Y-61.55
X173.55Y-62.55
X173.55Y-63.45
X173.55Y-64.45
X173.55Y-65.45
X173.65Y-33.25
X173.65Y-34.25
X173.65Y-35.25
X173.8Y-131.875
X173.8Y-132.875
X173.8Y-133.875
X173.8Y-138.175
X173.8Y-139.175
X173.8Y-140.175
X173.8Y-141.175
X173.8Y-142.175
X173.8Y-143.175
X173.8Y-144.175
X173.8Y-145.175
X173.8Y-146.175
X173.8Y-147.175
X173.8Y-148.175
X173.8Y-149.175
X173.8Y-150.175
X173.8Y-151.175
X173.8Y-152.175
X173.8Y-153.175
X173.8Y-154.175
X173.8Y-155.175
X173.8Y-156.175
X173.8Y-157.175
X173.8Y-158.175
X173.8Y-159.175
X173.8Y-160.175
X173.8Y-161.175
X173.8Y-162.175
X173.8Y-163.175
X173.8Y-164.175
X173.8Y-165.075
X173.8Y-166.075
X173.8Y-167.075
X173.9Y-134.875
X173.9Y-135.875
X173.9Y-136.875
X174.325Y-81.125
X174.325Y-82.125
X174.325Y-83.125
X174.325Y-87.425
X174.325Y-88.425
X174.325Y-89.425
X174.325Y-90.425
X174.325Y-91.425
X174.325Y-92.425
X174.325Y-93.425
X174.325Y-94.425
X174.325Y-95.425
X174.325Y-96.425
X174.325Y-97.425
X174.325Y-98.425
X174.325Y-99.425
X174.325Y-100.425
X174.325Y-101.425
X174.325Y-102.425
X174.325Y-103.425
X174.325Y-104.425
X174.325Y-105.425
X174.325Y-106.425
X174.325Y-107.425
X174.325Y-108.425
X174.325Y-109.425
X174.325Y-110.425
X174.325Y-111.425
X174.325Y-112.425
X174.325Y-113.425
X174.325Y-114.325
X174.325Y-115.325
X174.325Y-116.325
X174.35Y-30.25
X174.425Y-84.125
X174.425Y-85.125
X174.425Y-86.125
X174.55Y-31.25
X174.55Y-36.55
X174.55Y-37.55
X174.55Y-38.55
X174.55Y-39.55
X174.55Y-40.55
X174.55Y-41.55
X174.55Y-42.55
X174.55Y-43.55
X174.55Y-44.55
X174.55Y-45.55
X174.55Y-46.55
X174.55Y-47.55
X174.55Y-48.55
X174.55Y-49.55
X174.55Y-50.55
X174.55Y-51.55
X174.55Y-52.55
X174.55Y-53.55
X174.55Y-54.55
X174.55Y-55.55
X174.55Y-56.55
X174.55Y-57.55
X174.55Y-58.55
X174.55Y-59.55
X174.55Y-60.55
X174.55Y-61.55
X174.55Y-62.55
X174.55Y-63.45
X174.55Y-64.45
X174.55Y-65.45
X174.65Y-33.25
X174.65Y-34.25
X174.65Y-35.25
X174.8Y-131.875
X174.8Y-132.875
X174.8Y-133.875
X174.8Y-138.175
X174.8Y-139.175
X174.8Y-140.175
X174.8Y-141.175
X174.8Y-142.175
X174.8Y-143.175
X174.8Y-144.175
X174.8Y-145.175
X174.8Y-146.175
X174.8Y-147.175
X174.8Y-148.175
X174.8Y-149.175
X174.8Y-150.175
X174.8Y-151.175
X174.8Y-152.175
X174.8Y-153.175
X174.8Y-154.175
X174.8Y-155.175
X174.8Y-156.175
X174.8Y-157.175
X174.8Y-158.175
X174.8Y-159.175
X174.8Y-160.175
X174.8Y-161.175
X174.8Y-162.175
X174.8Y-163.175
X174.8Y-164.175
X174.8Y-165.075
X174.8Y-166.075
X174.8Y-167.075
X174.9Y-134.875
X174.9Y-135.875
X174.9Y-136.875
X175.125Y-81.125
X175.325Y-82.125
X175.325Y-87.425
X175.325Y-88.425
X175.325Y-89.425
X175.325Y-90.425
X175.325Y-91.425
X175.325Y-92.425
X175.325Y-93.425
X175.325Y-94.425
X175.325Y-95.425
X175.325Y-96.425
X175.325Y-97.425
X175.325Y-98.425
X175.325Y-99.425
X175.325Y-100.425
X175.325Y-101.425
X175.325Y-102.425
X175.325Y-103.425
X175.325Y-104.425
X175.325Y-105.425
X175.325Y-106.425
X175.325Y-107.425
X175.325Y-108.425
X175.325Y-109.425
X175.325Y-110.425
X175.325Y-111.425
X175.325Y-112.425
X175.325Y-113.425
X175.325Y-114.325
X175.325Y-115.325
X175.325Y-116.325
X175.35Y-30.05
X175.35Y-31.05
X175.425Y-84.125
X175.425Y-85.125
X175.425Y-86.125
X175.55Y-36.55
X175.55Y-37.55
X175.55Y-38.55
X175.55Y-39.55
X175.55Y-40.55
X175.55Y-41.55
X175.55Y-42.55
X175.55Y-43.55
X175.55Y-44.55
X175.55Y-45.55
X175.55Y-46.55
X175.55Y-47.55
X175.55Y-48.55
X175.55Y-49.55
X175.55Y-50.55
X175.55Y-51.55
X175.55Y-52.55
X175.55Y-53.55
X175.55Y-54.55
X175.55Y-55.55
X175.55Y-56.55
X175.55Y-57.55
X175.55Y-58.55
X175.55Y-59.55
X175.55Y-60.55
X175.55Y-61.55
X175.55Y-62.55
X175.55Y-63.45
X175.55Y-64.45
X175.55Y-65.45
X175.6Y-131.875
X175.65Y-32.85
X175.65Y-33.85
X175.65Y-34.85
X175.8Y-132.875
X175.8Y-138.175
X175.8Y-139.175
X175.8Y-140.175
X175.8Y-141.175
X175.8Y-142.175
X175.8Y-143.175
X175.8Y-144.175
X175.8Y-145.175
X175.8Y-146.175
X175.8Y-147.175
X175.8Y-148.175
X175.8Y-149.175
X175.8Y-150.175
X175.8Y-151.175
X175.8Y-152.175
X175.8Y-153.175
X175.8Y-154.175
X175.8Y-155.175
X175.8Y-156.175
X175.8Y-157.175
X175.8Y-158.175
X175.8Y-159.175
X175.8Y-160.175
X175.8Y-161.175
X175.8Y-162.175
X175.8Y-163.175
X175.8Y-164.175
X175.8Y-165.075
X175.8Y-166.075
X175.8Y-167.075
X175.9Y-134.875
X175.9Y-135.875
X175.9Y-136.875
X176.125Y-80.925
X176.125Y-81.925
X176.325Y-87.425
X176.325Y-88.425
X176.325Y-89.425
X176.325Y-90.425
X176.325Y-91.425
X176.325Y-92.425
X176.325Y-93.425
X176.325Y-94.425
X176.325Y-95.425
X176.325Y-96.425
X176.325Y-97.425
X176.325Y-98.425
X176.325Y-99.425
X176.325Y-100.425
X176.325Y-101.425
X176.325Y-102.425
X176.325Y-103.425
X176.325Y-104.425
X176.325Y-105.425
X176.325Y-106.425
X176.325Y-107.425
X176.325Y-108.425
X176.325Y-109.425
X176.325Y-110.425
X176.325Y-111.425
X176.325Y-112.425
X176.325Y-113.425
X176.325Y-114.325
X176.325Y-115.325
X176.325Y-116.325
X176.35Y-30.05
X176.35Y-31.05
X176.35Y-36.55
X176.35Y-37.55
X176.35Y-38.55
X176.35Y-39.55
X176.35Y-40.55
X176.35Y-41.55
X176.35Y-42.55
X176.35Y-43.55
X176.35Y-44.55
X176.35Y-45.55
X176.35Y-46.55
X176.35Y-47.55
X176.35Y-48.55
X176.35Y-49.55
X176.35Y-50.55
X176.35Y-51.55
X176.35Y-52.55
X176.35Y-53.55
X176.35Y-54.55
X176.35Y-55.55
X176.35Y-56.45
X176.35Y-57.45
X176.35Y-58.45
X176.35Y-59.45
X176.35Y-60.45
X176.425Y-83.725
X176.425Y-84.725
X176.425Y-85.725
X176.55Y-61.55
X176.55Y-62.55
X176.55Y-63.45
X176.55Y-64.45
X176.55Y-65.45
X176.6Y-131.675
X176.6Y-132.675
X176.65Y-32.85
X176.65Y-33.85
X176.65Y-34.85
X176.8Y-138.175
X176.8Y-139.175
X176.8Y-140.175
X176.8Y-141.175
X176.8Y-142.175
X176.8Y-143.175
X176.8Y-144.175
X176.8Y-145.175
X176.8Y-146.175
X176.8Y-147.175
X176.8Y-148.175
X176.8Y-149.175
X176.8Y-150.175
X176.8Y-151.175
X176.8Y-152.175
X176.8Y-153.175
X176.8Y-154.175
X176.8Y-155.175
X176.8Y-156.175
X176.8Y-157.175
X176.8Y-158.175
X176.8Y-159.175
X176.8Y-160.175
X176.8Y-161.175
X176.8Y-162.175
X176.8Y-163.175
X176.8Y-164.175
X176.8Y-165.075
X176.8Y-166.075
X176.8Y-167.075
X176.9Y-134.475
X176.9Y-135.475
X176.9Y-136.475
X177.125Y-80.925
X177.125Y-81.925
X177.125Y-87.425
X177.125Y-88.425
X177.125Y-89.425
X177.125Y-90.425
X177.125Y-91.425
X177.125Y-92.425
X177.125Y-93.425
X177.125Y-94.425
X177.125Y-95.425
X177.125Y-96.425
X177.125Y-97.425
X177.125Y-98.425
X177.125Y-99.425
X177.125Y-100.425
X177.125Y-101.425
X177.125Y-102.425
X177.125Y-103.425
X177.125Y-104.425
X177.125Y-105.425
X177.125Y-106.425
X177.125Y-107.325
X177.125Y-108.325
X177.125Y-109.325
X177.125Y-110.325
X177.125Y-111.325
X177.325Y-112.425
X177.325Y-113.425
X177.325Y-114.325
X177.325Y-115.325
X177.325Y-116.325
X177.35Y-30.05
X177.35Y-31.05
X177.35Y-36.55
X177.35Y-37.55
X177.35Y-38.55
X177.35Y-39.55
X177.35Y-40.55
X177.35Y-41.55
X177.35Y-42.55
X177.35Y-43.55
X177.35Y-44.55
X177.35Y-45.55
X177.35Y-46.55
X177.35Y-47.55
X177.35Y-48.55
X177.35Y-49.55
X177.35Y-50.55
X177.35Y-51.55
X177.35Y-52.55
X177.35Y-53.55
X177.35Y-54.55
X177.35Y-55.55
X177.35Y-56.45
X177.35Y-57.45
X177.35Y-58.45
X177.35Y-59.45
X177.35Y-60.45
X177.425Y-83.725
X177.425Y-84.725
X177.425Y-85.725
X177.55Y-61.55
X177.55Y-62.55
X177.6Y-131.675
X177.6Y-132.675
X177.6Y-138.175
X177.6Y-139.175
X177.6Y-140.175
X177.6Y-141.175
X177.6Y-142.175
X177.6Y-143.175
X177.6Y-144.175
X177.6Y-145.175
X177.6Y-146.175
X177.6Y-147.175
X177.6Y-148.175
X177.6Y-149.175
X177.6Y-150.175
X177.6Y-151.175
X177.6Y-152.175
X177.6Y-153.175
X177.6Y-154.175
X177.6Y-155.175
X177.6Y-156.175
X177.6Y-157.175
X177.6Y-158.075
X177.6Y-159.075
X177.6Y-160.075
X177.6Y-161.075
X177.6Y-162.075
X177.65Y-32.85
X177.65Y-33.85
X177.65Y-34.85
X177.8Y-163.175
X177.8Y-164.175
X177.8Y-165.075
X177.8Y-166.075
X177.8Y-167.075
X177.9Y-134.475
X177.9Y-135.475
X177.9Y-136.475
X178.125Y-80.925
X178.125Y-81.925
X178.125Y-87.425
X178.125Y-88.425
X178.125Y-89.425
X178.125Y-90.425
X178.125Y-91.425
X178.125Y-92.425
X178.125Y-93.425
X178.125Y-94.425
X178.125Y-95.425
X178.125Y-96.425
X178.125Y-97.425
X178.125Y-98.425
X178.125Y-99.425
X178.125Y-100.425
X178.125Y-101.425
X178.125Y-102.425
X178.125Y-103.425
X178.125Y-104.425
X178.125Y-105.425
X178.125Y-106.425
X178.125Y-107.325
X178.125Y-108.325
X178.125Y-109.325
X178.125Y-110.325
X178.125Y-111.325
X178.325Y-112.425
X178.325Y-113.425
X178.35Y-30.05
X178.35Y-31.05
X178.35Y-36.55
X178.35Y-37.55
X178.35Y-38.55
X178.35Y-39.55
X178.35Y-40.55
X178.35Y-41.55
X178.35Y-42.55
X178.35Y-43.55
X178.35Y-44.55
X178.35Y-45.55
X178.35Y-46.55
X178.35Y-47.55
X178.35Y-48.55
X178.35Y-49.55
X178.35Y-50.55
X178.35Y-51.55
X178.35Y-52.55
X178.35Y-53.55
X178.35Y-54.55
X178.35Y-55.55
X178.35Y-56.45
X178.35Y-57.45
X178.35Y-58.45
X178.35Y-59.45
X178.35Y-60.45
X178.425Y-83.725
X178.425Y-84.725
X178.425Y-85.725
X178.55Y-61.55
X178.6Y-131.675
X178.6Y-132.675
X178.6Y-138.175
X178.6Y-139.175
X178.6Y-140.175
X178.6Y-141.175
X178.6Y-142.175
X178.6Y-143.175
X178.6Y-144.175
X178.6Y-145.175
X178.6Y-146.175
X178.6Y-147.175
X178.6Y-148.175
X178.6Y-149.175
X178.6Y-150.175
X178.6Y-151.175
X178.6Y-152.175
X178.6Y-153.175
X178.6Y-154.175
X178.6Y-155.175
X178.6Y-156.175
X178.6Y-157.175
X178.6Y-158.075
X178.6Y-159.075
X178.6Y-160.075
X178.6Y-161.075
X178.6Y-162.075
X178.65Y-32.85
X178.65Y-33.85
X178.65Y-34.85
X178.8Y-163.175
X178.8Y-164.175
X178.9Y-134.475
X178.9Y-135.475
X178.9Y-136.475
X178.975Y-78.0
X179.125Y-80.925
X179.125Y-81.925
X179.125Y-87.425
X179.125Y-88.425
X179.125Y-89.425
X179.125Y-90.425
X179.125Y-91.425
X179.125Y-92.425
X179.125Y-93.425
X179.125Y-94.425
X179.125Y-95.425
X179.125Y-96.425
X179.125Y-97.425
X179.125Y-98.425
X179.125Y-99.425
X179.125Y-100.425
X179.125Y-101.425
X179.125Y-102.425
X179.125Y-103.425
X179.125Y-104.425
X179.125Y-105.425
X179.125Y-106.425
X179.125Y-107.325
X179.125Y-108.325
X179.125Y-109.325
X179.125Y-110.325
X179.125Y-111.325
X179.325Y-112.425
X179.35Y-30.05
X179.35Y-31.05
X179.35Y-36.55
X179.35Y-37.55
X179.35Y-38.55
X179.35Y-39.55
X179.35Y-40.55
X179.35Y-41.55
X179.35Y-42.55
X179.35Y-43.55
X179.35Y-44.55
X179.35Y-45.55
X179.35Y-46.55
X179.35Y-47.55
X179.35Y-48.55
X179.35Y-49.55
X179.35Y-50.55
X179.35Y-51.55
X179.35Y-52.55
X179.35Y-53.55
X179.35Y-54.55
X179.35Y-55.55
X179.35Y-56.45
X179.35Y-57.45
X179.35Y-58.45
X179.35Y-59.45
X179.35Y-60.45
X179.425Y-83.725
X179.425Y-84.725
X179.425Y-85.725
X179.6Y-131.675
X179.6Y-132.675
X179.6Y-138.175
X179.6Y-139.175
X179.6Y-140.175
X179.6Y-141.175
X179.6Y-142.175
X179.6Y-143.175
X179.6Y-144.175
X179.6Y-145.175
X179.6Y-146.175
X179.6Y-147.175
X179.6Y-148.175
X179.6Y-149.175
X179.6Y-150.175
X179.6Y-151.175
X179.6Y-152.175
X179.6Y-153.175
X179.6Y-154.175
X179.6Y-155.175
X179.6Y-156.175
X179.6Y-157.175
X179.6Y-158.075
X179.6Y-159.075
X179.6Y-160.075
X179.6Y-161.075
X179.6Y-162.075
X179.65Y-32.85
X179.65Y-33.85
X179.65Y-34.85
X179.8Y-163.175
X179.9Y-134.475
X179.9Y-135.475
X179.9Y-136.475
X180.125Y-80.925
X180.125Y-81.925
X180.125Y-87.425
X180.125Y-88.425
X180.125Y-89.425
X180.125Y-90.425
X180.125Y-91.425
X180.125Y-92.425
X180.125Y-93.425
X180.125Y-94.425
X180.125Y-95.425
X180.125Y-96.425
X180.125Y-97.425
X180.125Y-98.425
X180.125Y-99.425
X180.125Y-100.425
X180.125Y-101.425
X180.125Y-102.425
X180.125Y-103.425
X180.125Y-104.425
X180.125Y-105.425
X180.125Y-106.425
X180.125Y-107.325
X180.125Y-108.325
X180.125Y-109.325
X180.125Y-110.325
X180.125Y-111.325
X180.275Y-27.45
X180.35Y-30.05
X180.35Y-31.05
X180.35Y-36.55
X180.35Y-37.55
X180.35Y-38.55
X180.35Y-39.55
X180.35Y-40.55
X180.35Y-41.55
X180.35Y-42.55
X180.35Y-43.55
X180.35Y-44.55
X180.35Y-45.55
X180.35Y-46.55
X180.35Y-47.55
X180.35Y-48.55
X180.35Y-49.55
X180.35Y-50.55
X180.35Y-51.55
X180.35Y-52.55
X180.35Y-53.55
X180.35Y-54.55
X180.35Y-55.55
X180.35Y-56.45
X180.35Y-57.45
X180.35Y-58.45
X180.35Y-59.45
X180.35Y-60.45
X180.425Y-83.725
X180.425Y-84.725
X180.425Y-85.725
X180.6Y-131.675
X180.6Y-132.675
X180.6Y-138.175
X180.6Y-139.175
X180.6Y-140.175
X180.6Y-141.175
X180.6Y-142.175
X180.6Y-143.175
X180.6Y-144.175
X180.6Y-145.175
X180.6Y-146.175
X180.6Y-147.175
X180.6Y-148.175
X180.6Y-149.175
X180.6Y-150.175
X180.6Y-151.175
X180.6Y-152.175
X180.6Y-153.175
X180.6Y-154.175
X180.6Y-155.175
X180.6Y-156.175
X180.6Y-157.175
X180.6Y-158.075
X180.6Y-159.075
X180.6Y-160.075
X180.6Y-161.075
X180.6Y-162.075
X180.65Y-32.85
X180.65Y-33.85
X180.65Y-34.85
X180.9Y-134.475
X180.9Y-135.475
X180.9Y-136.475
X181.125Y-80.925
X181.125Y-81.925
X181.125Y-87.425
X181.125Y-88.425
X181.125Y-89.425
X181.125Y-90.425
X181.125Y-91.425
X181.125Y-92.425
X181.125Y-93.425
X181.125Y-94.425
X181.125Y-95.425
X181.125Y-96.425
X181.125Y-97.425
X181.125Y-98.425
X181.125Y-99.425
X181.125Y-100.425
X181.125Y-101.425
X181.125Y-102.425
X181.125Y-103.425
X181.125Y-104.425
X181.125Y-105.425
X181.125Y-106.425
X181.125Y-107.325
X181.125Y-108.325
X181.125Y-109.325
X181.125Y-110.325
X181.125Y-111.325
X181.25Y-28.1
X181.35Y-30.05
X181.35Y-31.05
X181.35Y-36.55
X181.35Y-37.55
X181.35Y-38.55
X181.35Y-39.55
X181.35Y-40.55
X181.35Y-41.55
X181.35Y-42.55
X181.35Y-43.55
X181.35Y-44.55
X181.35Y-45.55
X181.35Y-46.55
X181.35Y-47.55
X181.35Y-48.55
X181.35Y-49.55
X181.35Y-50.55
X181.35Y-51.55
X181.35Y-52.55
X181.35Y-53.55
X181.35Y-54.55
X181.35Y-55.55
X181.35Y-56.45
X181.35Y-57.45
X181.35Y-58.45
X181.35Y-59.45
X181.35Y-60.45
X181.425Y-83.725
X181.425Y-84.725
X181.425Y-85.725
X181.6Y-131.675
X181.6Y-132.675
X181.6Y-138.175
X181.6Y-139.175
X181.6Y-140.175
X181.6Y-141.175
X181.6Y-142.175
X181.6Y-143.175
X181.6Y-144.175
X181.6Y-145.175
X181.6Y-146.175
X181.6Y-147.175
X181.6Y-148.175
X181.6Y-149.175
X181.6Y-150.175
X181.6Y-151.175
X181.6Y-152.175
X181.6Y-153.175
X181.6Y-154.175
X181.6Y-155.175
X181.6Y-156.175
X181.6Y-157.175
X181.6Y-158.075
X181.6Y-159.075
X181.6Y-160.075
X181.6Y-161.075
X181.6Y-162.075
X181.625Y-79.1
X181.65Y-32.85
X181.65Y-33.85
X181.65Y-34.85
X181.9Y-134.475
X181.9Y-135.475
X181.9Y-136.475
X182.125Y-80.925
X182.125Y-81.925
X182.125Y-87.425
X182.125Y-88.425
X182.125Y-89.425
X182.125Y-90.425
X182.125Y-91.425
X182.125Y-92.425
X182.125Y-93.425
X182.125Y-94.425
X182.125Y-95.425
X182.125Y-96.425
X182.125Y-97.425
X182.125Y-98.425
X182.125Y-99.425
X182.125Y-100.425
X182.125Y-101.425
X182.125Y-102.425
X182.125Y-103.425
X182.125Y-104.425
X182.125Y-105.425
X182.125Y-106.425
X182.125Y-107.325
X182.125Y-108.325
X182.125Y-109.325
X182.125Y-110.325
X182.125Y-111.325
X182.2Y-124.55
X182.35Y-30.05
X182.35Y-31.05
X182.35Y-36.55
X182.35Y-37.55
X182.35Y-38.55
X182.35Y-39.55
X182.35Y-40.55
X182.35Y-41.55
X182.35Y-42.55
X182.35Y-43.55
X182.35Y-44.55
X182.35Y-45.55
X182.35Y-46.55
X182.35Y-47.55
X182.35Y-48.55
X182.35Y-49.55
X182.35Y-50.55
X182.35Y-51.55
X182.35Y-52.55
X182.35Y-53.55
X182.35Y-54.55
X182.35Y-55.55
X182.35Y-56.45
X182.35Y-57.45
X182.35Y-58.45
X182.35Y-59.45
X182.35Y-60.45
X182.425Y-83.725
X182.425Y-84.725
X182.425Y-85.725
X182.475Y-129.625
X182.6Y-131.675
X182.6Y-132.675
X182.6Y-138.175
X182.6Y-139.175
X182.6Y-140.175
X182.6Y-141.175
X182.6Y-142.175
X182.6Y-143.175
X182.6Y-144.175
X182.6Y-145.175
X182.6Y-146.175
X182.6Y-147.175
X182.6Y-148.175
X182.6Y-149.175
X182.6Y-150.175
X182.6Y-151.175
X182.6Y-152.175
X182.6Y-153.175
X182.6Y-154.175
X182.6Y-155.175
X182.6Y-156.175
X182.6Y-157.175
X182.6Y-158.075
X182.6Y-159.075
X182.6Y-160.075
X182.6Y-161.075
X182.6Y-162.075
X182.9Y-134.475
X182.9Y-135.475
X182.9Y-136.475
X183.125Y-80.925
X183.125Y-81.925
X183.125Y-87.425
X183.125Y-88.425
X183.125Y-89.425
X183.125Y-90.425
X183.125Y-91.425
X183.125Y-92.425
X183.125Y-93.425
X183.125Y-94.425
X183.125Y-95.425
X183.125Y-96.425
X183.125Y-97.425
X183.125Y-98.425
X183.125Y-99.425
X183.125Y-100.425
X183.125Y-101.425
X183.125Y-102.425
X183.125Y-103.425
X183.125Y-104.425
X183.125Y-105.425
X183.125Y-106.425
X183.125Y-107.325
X183.125Y-108.325
X183.125Y-109.325
X183.125Y-110.325
X183.125Y-111.325
X183.35Y-30.05
X183.35Y-31.05
X183.35Y-36.55
X183.35Y-37.55
X183.35Y-38.55
X183.35Y-39.55
X183.35Y-40.55
X183.35Y-41.55
X183.35Y-42.55
X183.35Y-43.55
X183.35Y-44.55
X183.35Y-45.55
X183.35Y-46.55
X183.35Y-47.55
X183.35Y-48.55
X183.35Y-49.55
X183.35Y-50.55
X183.35Y-51.55
X183.35Y-52.55
X183.35Y-53.55
X183.35Y-54.55
X183.35Y-55.55
X183.35Y-56.45
X183.35Y-57.45
X183.35Y-58.45
X183.35Y-59.45
X183.35Y-60.45
X183.6Y-131.675
X183.6Y-132.675
X183.6Y-138.175
X183.6Y-139.175
X183.6Y-140.175
X183.6Y-141.175
X183.6Y-142.175
X183.6Y-143.175
X183.6Y-144.175
X183.6Y-145.175
X183.6Y-146.175
X183.6Y-147.175
X183.6Y-148.175
X183.6Y-149.175
X183.6Y-150.175
X183.6Y-151.175
X183.6Y-152.175
X183.6Y-153.175
X183.6Y-154.175
X183.6Y-155.175
X183.6Y-156.175
X183.6Y-157.175
X183.6Y-158.075
X183.6Y-159.075
X183.6Y-160.075
X183.6Y-161.075
X183.6Y-162.075
X184.125Y-80.925
X184.125Y-81.925
X184.125Y-87.425
X184.125Y-88.425
X184.125Y-89.425
X184.125Y-90.425
X184.125Y-91.425
X184.125Y-92.425
X184.125Y-93.425
X184.125Y-94.425
X184.125Y-95.425
X184.125Y-96.425
X184.125Y-97.425
X184.125Y-98.425
X184.125Y-99.425
X184.125Y-100.425
X184.125Y-101.425
X184.125Y-102.425
X184.125Y-103.425
X184.125Y-104.425
X184.125Y-105.425
X184.125Y-106.425
X184.125Y-107.325
X184.125Y-108.325
X184.125Y-109.325
X184.125Y-110.325
X184.125Y-111.325
X184.35Y-30.05
X184.35Y-31.05
X184.35Y-32.15
X184.35Y-36.55
X184.35Y-37.55
X184.35Y-38.55
X184.35Y-39.55
X184.35Y-40.55
X184.35Y-41.55
X184.35Y-42.55
X184.35Y-43.55
X184.35Y-44.55
X184.35Y-45.55
X184.35Y-46.55
X184.35Y-47.55
X184.35Y-48.55
X184.35Y-49.55
X184.35Y-50.55
X184.35Y-51.55
X184.35Y-52.55
X184.35Y-53.55
X184.35Y-54.55
X184.35Y-55.55
X184.35Y-56.45
X184.35Y-57.45
X184.35Y-58.45
X184.35Y-59.45
X184.35Y-60.45
X184.6Y-131.675
X184.6Y-132.675
X184.6Y-138.175
X184.6Y-139.175
X184.6Y-140.175
X184.6Y-141.175
X184.6Y-142.175
X184.6Y-143.175
X184.6Y-144.175
X184.6Y-145.175
X184.6Y-146.175
X184.6Y-147.175
X184.6Y-148.175
X184.6Y-149.175
X184.6Y-150.175
X184.6Y-151.175
X184.6Y-152.175
X184.6Y-153.175
X184.6Y-154.175
X184.6Y-155.175
X184.6Y-156.175
X184.6Y-157.175
X184.6Y-158.075
X184.6Y-159.075
X184.6Y-160.075
X184.6Y-161.075
X184.6Y-162.075
X185.125Y-80.925
X185.125Y-81.925
X185.125Y-83.025
X185.125Y-87.425
X185.125Y-88.425
X185.125Y-89.425
X185.125Y-90.425
X185.125Y-91.425
X185.125Y-92.425
X185.125Y-93.425
X185.125Y-94.425
X185.125Y-95.425
X185.125Y-96.425
X185.125Y-97.425
X185.125Y-98.425
X185.125Y-99.425
X185.125Y-100.425
X185.125Y-101.425
X185.125Y-102.425
X185.125Y-103.425
X185.125Y-104.425
X185.125Y-105.425
X185.125Y-106.425
X185.125Y-107.325
X185.125Y-108.325
X185.125Y-109.325
X185.125Y-110.325
X185.125Y-111.325
X185.25Y-26.85
X185.315Y-24.925
X185.35Y-30.05
X185.35Y-31.05
X185.35Y-32.05
X185.35Y-33.05
X185.35Y-36.55
X185.35Y-37.55
X185.35Y-38.55
X185.35Y-39.55
X185.35Y-40.55
X185.35Y-41.55
X185.35Y-42.55
X185.35Y-43.55
X185.35Y-44.55
X185.35Y-45.55
X185.35Y-46.55
X185.35Y-47.55
X185.35Y-48.55
X185.35Y-49.55
X185.35Y-50.55
X185.35Y-51.55
X185.35Y-52.55
X185.35Y-53.55
X185.35Y-54.55
X185.35Y-55.55
X185.35Y-56.45
X185.35Y-57.45
X185.35Y-58.45
X185.35Y-59.45
X185.35Y-60.45
X185.6Y-131.675
X185.6Y-132.675
X185.6Y-133.775
X185.6Y-138.175
X185.6Y-139.175
X185.6Y-140.175
X185.6Y-141.175
X185.6Y-142.175
X185.6Y-143.175
X185.6Y-144.175
X185.6Y-145.175
X185.6Y-146.175
X185.6Y-147.175
X185.6Y-148.175
X185.6Y-149.175
X185.6Y-150.175
X185.6Y-151.175
X185.6Y-152.175
X185.6Y-153.175
X185.6Y-154.175
X185.6Y-155.175
X185.6Y-156.175
X185.6Y-157.175
X185.6Y-158.075
X185.6Y-159.075
X185.6Y-160.075
X185.6Y-161.075
X185.6Y-162.075
X186.025Y-77.725
X186.125Y-80.925
X186.125Y-81.925
X186.125Y-82.925
X186.125Y-83.925
X186.125Y-87.425
X186.125Y-88.425
X186.125Y-89.425
X186.125Y-90.425
X186.125Y-91.425
X186.125Y-92.425
X186.125Y-93.425
X186.125Y-94.425
X186.125Y-95.425
X186.125Y-96.425
X186.125Y-97.425
X186.125Y-98.425
X186.125Y-99.425
X186.125Y-100.425
X186.125Y-101.425
X186.125Y-102.425
X186.125Y-103.425
X186.125Y-104.425
X186.125Y-105.425
X186.125Y-106.425
X186.125Y-107.325
X186.125Y-108.325
X186.125Y-109.325
X186.125Y-110.325
X186.125Y-111.325
X186.35Y-30.05
X186.35Y-31.05
X186.35Y-32.05
X186.35Y-33.05
X186.35Y-34.05
X186.5Y-128.475
X186.6Y-131.675
X186.6Y-132.675
X186.6Y-133.675
X186.6Y-134.675
X186.6Y-138.175
X186.6Y-139.175
X186.6Y-140.175
X186.6Y-141.175
X186.6Y-142.175
X186.6Y-143.175
X186.6Y-144.175
X186.6Y-145.175
X186.6Y-146.175
X186.6Y-147.175
X186.6Y-148.175
X186.6Y-149.175
X186.6Y-150.175
X186.6Y-151.175
X186.6Y-152.175
X186.6Y-153.175
X186.6Y-154.175
X186.6Y-155.175
X186.6Y-156.175
X186.6Y-157.175
X186.6Y-158.075
X186.6Y-159.075
X186.6Y-160.075
X186.6Y-161.075
X186.6Y-162.075
X187.025Y-73.225
X187.125Y-80.925
X187.125Y-81.925
X187.125Y-82.925
X187.125Y-83.925
X187.125Y-84.925
X187.3Y-123.975
X187.35Y-30.05
X187.35Y-31.05
X187.35Y-32.05
X187.35Y-33.05
X187.35Y-34.05
X187.35Y-35.05
X187.6Y-131.675
X187.6Y-132.675
X187.6Y-133.675
X187.6Y-134.675
X187.6Y-135.675
X188.125Y-80.925
X188.125Y-81.925
X188.125Y-82.925
X188.125Y-83.925
X188.125Y-84.925
X188.125Y-85.925
X188.35Y-30.05
X188.35Y-31.05
X188.35Y-32.05
X188.35Y-33.05
X188.35Y-34.05
X188.35Y-35.05
X188.35Y-36.05
X188.35Y-48.85
X188.35Y-49.85
X188.35Y-50.65
X188.35Y-51.65
X188.35Y-52.65
X188.35Y-53.65
X188.35Y-54.65
X188.35Y-55.65
X188.35Y-56.65
X188.6Y-131.675
X188.6Y-132.675
X188.6Y-133.675
X188.6Y-134.675
X188.6Y-135.675
X188.6Y-136.675
X189.125Y-80.925
X189.125Y-81.925
X189.125Y-82.925
X189.125Y-83.925
X189.125Y-84.925
X189.125Y-85.925
X189.125Y-86.925
X189.125Y-99.725
X189.125Y-100.725
X189.125Y-101.525
X189.125Y-102.525
X189.125Y-103.525
X189.125Y-104.525
X189.125Y-105.525
X189.125Y-106.525
X189.125Y-107.525
X189.35Y-30.05
X189.35Y-31.05
X189.35Y-32.05
X189.35Y-33.05
X189.35Y-34.05
X189.35Y-35.05
X189.35Y-36.05
X189.35Y-37.05
X189.35Y-38.05
X189.35Y-39.05
X189.35Y-40.05
X189.35Y-41.05
X189.35Y-41.85
X189.35Y-42.85
X189.35Y-43.85
X189.35Y-48.85
X189.35Y-49.85
X189.35Y-50.65
X189.35Y-51.65
X189.35Y-52.65
X189.35Y-53.65
X189.35Y-54.65
X189.35Y-55.65
X189.35Y-56.65
X189.6Y-131.675
X189.6Y-132.675
X189.6Y-133.675
X189.6Y-134.675
X189.6Y-135.675
X189.6Y-136.675
X189.6Y-137.675
X189.6Y-150.475
X189.6Y-151.475
X189.6Y-152.275
X189.6Y-153.275
X189.6Y-154.275
X189.6Y-155.275
X189.6Y-156.275
X189.6Y-157.275
X189.6Y-158.275
X190.125Y-80.925
X190.125Y-81.925
X190.125Y-82.925
X190.125Y-83.925
X190.125Y-84.925
X190.125Y-85.925
X190.125Y-86.925
X190.125Y-87.925
X190.125Y-88.925
X190.125Y-89.925
X190.125Y-90.925
X190.125Y-91.925
X190.125Y-92.725
X190.125Y-93.725
X190.125Y-94.725
X190.125Y-99.725
X190.125Y-100.725
X190.125Y-101.525
X190.125Y-102.525
X190.125Y-103.525
X190.125Y-104.525
X190.125Y-105.525
X190.125Y-106.525
X190.125Y-107.525
X190.35Y-32.05
X190.35Y-33.05
X190.35Y-34.05
X190.35Y-35.05
X190.35Y-36.05
X190.35Y-37.05
X190.35Y-38.05
X190.35Y-39.05
X190.35Y-40.05
X190.35Y-41.05
X190.35Y-41.85
X190.35Y-42.85
X190.35Y-43.85
X190.35Y-48.85
X190.35Y-49.85
X190.35Y-50.65
X190.35Y-51.65
X190.35Y-52.65
X190.35Y-53.65
X190.35Y-54.65
X190.35Y-55.65
X190.35Y-56.65
X190.6Y-131.675
X190.6Y-132.675
X190.6Y-133.675
X190.6Y-134.675
X190.6Y-135.675
X190.6Y-136.675
X190.6Y-137.675
X190.6Y-138.675
X190.6Y-139.675
X190.6Y-140.675
X190.6Y-141.675
X190.6Y-142.675
X190.6Y-143.475
X190.6Y-144.475
X190.6Y-145.475
X190.6Y-150.475
X190.6Y-151.475
X190.6Y-152.275
X190.6Y-153.275
X190.6Y-154.275
X190.6Y-155.275
X190.6Y-156.275
X190.6Y-157.275
X190.6Y-158.275
X191.125Y-82.925
X191.125Y-83.925
X191.125Y-84.925
X191.125Y-85.925
X191.125Y-86.925
X191.125Y-87.925
X191.125Y-88.925
X191.125Y-89.925
X191.125Y-90.925
X191.125Y-91.925
X191.125Y-92.725
X191.125Y-93.725
X191.125Y-94.725
X191.125Y-99.725
X191.125Y-100.725
X191.125Y-101.525
X191.125Y-102.525
X191.125Y-103.525
X191.125Y-104.525
X191.125Y-105.525
X191.125Y-106.525
X191.125Y-107.525
X191.35Y-32.05
X191.35Y-33.05
X191.35Y-34.05
X191.35Y-35.05
X191.35Y-36.05
X191.35Y-37.05
X191.35Y-38.05
X191.35Y-39.05
X191.35Y-40.05
X191.35Y-41.05
X191.35Y-41.85
X191.35Y-42.85
X191.35Y-43.85
X191.35Y-46.85
X191.35Y-47.85
X191.35Y-48.85
X191.35Y-49.85
X191.35Y-50.65
X191.35Y-51.65
X191.35Y-52.65
X191.35Y-53.65
X191.35Y-54.65
X191.35Y-55.65
X191.35Y-56.65
X191.6Y-133.675
X191.6Y-134.675
X191.6Y-135.675
X191.6Y-136.675
X191.6Y-137.675
X191.6Y-138.675
X191.6Y-139.675
X191.6Y-140.675
X191.6Y-141.675
X191.6Y-142.675
X191.6Y-143.475
X191.6Y-144.475
X191.6Y-145.475
X191.6Y-150.475
X191.6Y-151.475
X191.6Y-152.275
X191.6Y-153.275
X191.6Y-154.275
X191.6Y-155.275
X191.6Y-156.275
X191.6Y-157.275
X191.6Y-158.275
X192.125Y-82.925
X192.125Y-83.925
X192.125Y-84.925
X192.125Y-85.925
X192.125Y-86.925
X192.125Y-87.925
X192.125Y-88.925
X192.125Y-89.925
X192.125Y-90.925
X192.125Y-91.925
X192.125Y-92.725
X192.125Y-93.725
X192.125Y-94.725
X192.125Y-97.725
X192.125Y-98.725
X192.125Y-99.725
X192.125Y-100.725
X192.125Y-101.525
X192.125Y-102.525
X192.125Y-103.525
X192.125Y-104.525
X192.125Y-105.525
X192.125Y-106.525
X192.125Y-107.525
X192.35Y-32.05
X192.35Y-33.05
X192.35Y-34.05
X192.35Y-35.05
X192.35Y-36.05
X192.35Y-37.05
X192.35Y-38.05
X192.35Y-39.05
X192.35Y-40.05
X192.35Y-41.05
X192.35Y-41.85
X192.35Y-42.85
X192.35Y-43.85
X192.35Y-44.85
X192.35Y-45.85
X192.35Y-46.85
X192.35Y-47.85
X192.35Y-48.85
X192.35Y-49.65
X192.35Y-50.65
X192.35Y-51.65
X192.35Y-52.65
X192.35Y-53.65
X192.35Y-54.65
X192.35Y-55.65
X192.6Y-133.675
X192.6Y-134.675
X192.6Y-135.675
X192.6Y-136.675
X192.6Y-137.675
X192.6Y-138.675
X192.6Y-139.675
X192.6Y-140.675
X192.6Y-141.675
X192.6Y-142.675
X192.6Y-143.475
X192.6Y-144.475
X192.6Y-145.475
X192.6Y-148.475
X192.6Y-149.475
X192.6Y-150.475
X192.6Y-151.475
X192.6Y-152.275
X192.6Y-153.275
X192.6Y-154.275
X192.6Y-155.275
X192.6Y-156.275
X192.6Y-157.275
X192.6Y-158.275
X193.125Y-82.925
X193.125Y-83.925
X193.125Y-84.925
X193.125Y-85.925
X193.125Y-86.925
X193.125Y-87.925
X193.125Y-88.925
X193.125Y-89.925
X193.125Y-90.925
X193.125Y-91.925
X193.125Y-92.725
X193.125Y-93.725
X193.125Y-94.725
X193.125Y-95.725
X193.125Y-96.725
X193.125Y-97.725
X193.125Y-98.725
X193.125Y-99.725
X193.125Y-100.525
X193.125Y-101.525
X193.125Y-102.525
X193.125Y-103.525
X193.125Y-104.525
X193.125Y-105.525
X193.125Y-106.525
X193.35Y-32.05
X193.35Y-33.05
X193.35Y-34.05
X193.35Y-35.05
X193.35Y-36.05
X193.35Y-37.05
X193.35Y-38.05
X193.35Y-39.05
X193.35Y-40.05
X193.35Y-41.05
X193.35Y-41.85
X193.35Y-42.85
X193.35Y-43.85
X193.35Y-44.85
X193.35Y-45.85
X193.35Y-46.85
X193.35Y-47.85
X193.35Y-48.85
X193.35Y-49.65
X193.35Y-50.65
X193.35Y-51.65
X193.35Y-52.65
X193.35Y-53.65
X193.35Y-54.65
X193.6Y-133.675
X193.6Y-134.675
X193.6Y-135.675
X193.6Y-136.675
X193.6Y-137.675
X193.6Y-138.675
X193.6Y-139.675
X193.6Y-140.675
X193.6Y-141.675
X193.6Y-142.675
X193.6Y-143.475
X193.6Y-144.475
X193.6Y-145.475
X193.6Y-146.475
X193.6Y-147.475
X193.6Y-148.475
X193.6Y-149.475
X193.6Y-150.475
X193.6Y-151.275
X193.6Y-152.275
X193.6Y-153.275
X193.6Y-154.275
X193.6Y-155.275
X193.6Y-156.275
X193.6Y-157.275
X194.125Y-82.925
X194.125Y-83.925
X194.125Y-84.925
X194.125Y-85.925
X194.125Y-86.925
X194.125Y-87.925
X194.125Y-88.925
X194.125Y-89.925
X194.125Y-90.925
X194.125Y-91.925
X194.125Y-92.725
X194.125Y-93.725
X194.125Y-94.725
X194.125Y-95.725
X194.125Y-96.725
X194.125Y-97.725
X194.125Y-98.725
X194.125Y-99.725
X194.125Y-100.525
X194.125Y-101.525
X194.125Y-102.525
X194.125Y-103.525
X194.125Y-104.525
X194.125Y-105.525
X194.325Y-26.0
X194.4Y-28.95
X194.6Y-133.675
X194.6Y-134.675
X194.6Y-135.675
X194.6Y-136.675
X194.6Y-137.675
X194.6Y-138.675
X194.6Y-139.675
X194.6Y-140.675
X194.6Y-141.675
X194.6Y-142.675
X194.6Y-143.475
X194.6Y-144.475
X194.6Y-145.475
X194.6Y-146.475
X194.6Y-147.475
X194.6Y-148.475
X194.6Y-149.475
X194.6Y-150.475
X194.6Y-151.275
X194.6Y-152.275
X194.6Y-153.275
X194.6Y-154.275
X194.6Y-155.275
X194.6Y-156.275
X195.075Y-79.775
X195.2Y-73.6
X195.4Y-124.5
X195.475Y-130.475
T4
X107.525Y-146.4
X111.812Y-146.162
X117.1Y-110.325
X121.375Y-154.75
X121.875Y-106.625
X123.425Y-141.325
X124.5Y-106.0
X125.35Y-147.225
X129.975Y-133.175
X130.125Y-116.625
X134.0Y-147.6
X137.743Y-93.75
X137.8Y-92.875
X138.5Y-93.8
X138.544Y-92.95
X139.175Y-93.675
X139.3Y-92.9
X140.925Y-114.575
X142.3Y-138.525
T5
X92.163Y-32.675
X92.976Y-30.713
X92.976Y-34.637
X94.938Y-29.9
X94.938Y-35.45
X96.9Y-30.713
X96.9Y-34.637
X97.713Y-32.675
X113.075Y-32.375
X113.888Y-30.413
X113.888Y-34.337
X115.85Y-29.6
X115.85Y-35.15
X117.812Y-30.413
X117.812Y-34.337
X118.625Y-32.375
X178.413Y-64.688
X179.188Y-115.563
X179.226Y-62.726
X179.226Y-66.65
X179.663Y-166.313
X180.001Y-113.601
X180.001Y-117.525
X180.476Y-164.351
X180.476Y-168.275
X181.188Y-61.913
X181.188Y-67.463
X181.963Y-112.788
X181.963Y-118.338
X182.438Y-163.538
X182.438Y-169.088
X183.15Y-62.726
X183.15Y-66.65
X183.925Y-113.601
X183.925Y-117.525
X183.963Y-64.688
X184.4Y-164.351
X184.4Y-168.275
X184.738Y-115.563
X185.213Y-166.313
T6
X120.175Y-80.525
T8
X106.36Y-126.825
X107.63Y-126.825
X108.9Y-126.825
T9
X95.55Y-133.51
X95.55Y-134.78
X95.55Y-136.05
X95.55Y-137.32
X95.55Y-138.59
X95.55Y-139.86
X103.885Y-172.95
X105.155Y-172.95
X106.425Y-172.95
X107.695Y-172.95
T10
X95.325Y-142.65
X95.325Y-144.65
X95.325Y-146.65
X95.325Y-148.65
X95.325Y-150.65
X95.925Y-109.425
X95.925Y-111.425
X95.925Y-115.475
X95.925Y-117.475
X95.925Y-121.525
X95.925Y-123.525
X95.925Y-127.575
X95.925Y-129.575
X98.53Y-129.575
X98.575Y-167.3
X98.575Y-169.3
X98.575Y-171.3
X98.675Y-181.8
X98.675Y-183.8
X98.725Y-174.625
X98.725Y-176.625
X98.725Y-178.625
X106.15Y-59.045
X106.15Y-69.205
X106.15Y-129.575
X119.0Y-41.28
X119.0Y-56.52
X120.167Y-173.11
X122.167Y-173.11
X122.225Y-75.15
X124.167Y-173.11
X124.725Y-75.15
X126.167Y-173.11
X127.525Y-139.55
X127.525Y-147.17
X129.125Y-74.85
X130.025Y-155.85
X130.025Y-160.75
X131.517Y-171.36
X131.517Y-178.98
X131.625Y-74.85
X131.9Y-124.252
X131.9Y-131.873
X134.075Y-142.05
X134.79Y-131.873
X136.075Y-142.05
X136.15Y-75.025
X138.65Y-75.025
X139.175Y-134.865
X139.175Y-142.485
X142.41Y-131.873
X157.225Y-64.975
X157.225Y-69.975
X158.9Y-113.975
X158.9Y-118.975
X159.525Y-164.75
X159.525Y-169.75
X169.85Y-63.987
X169.85Y-68.987
X170.625Y-114.862
X170.625Y-119.862
X171.1Y-165.612
X171.1Y-170.612
T11
X100.955Y-126.525
X103.495Y-126.525
X114.35Y-41.095
X114.35Y-51.255
T12
X93.0Y-53.5
X93.0Y-63.5
X97.4Y-44.845
X97.4Y-47.385
X97.4Y-49.925
X98.975Y-66.5
X98.975Y-71.5
X101.623Y-35.701
X104.163Y-35.701
X106.703Y-35.701
X110.862Y-44.896
X110.862Y-47.436
X110.862Y-49.976
X120.175Y-124.175
X127.775Y-124.175
X129.925Y-41.7
X129.925Y-49.2
X130.0Y-58.975
X130.0Y-66.475
X135.067Y-166.91
X140.067Y-166.91
X144.175Y-50.225
X144.175Y-57.725
T13
X121.468Y-176.46
X121.468Y-180.96
X127.968Y-176.46
X127.968Y-180.96
X135.067Y-171.31
X135.067Y-175.81
X141.567Y-171.31
X141.567Y-175.81
T14
X94.938Y-32.675
X115.85Y-32.375
X181.188Y-64.688
X181.963Y-115.563
X182.438Y-166.313
T7
G00X93.86Y-156.03
M15
G01X93.06Y-156.03
M16
G05
G00X93.86Y-164.67
M15
G01X93.06Y-164.67
M16
G05
G00X98.19Y-156.03
M15
G01X97.09Y-156.03
M16
G05
G00X98.19Y-164.67
M15
G01X97.09Y-164.67
M16
G05
M30
