%TF.GenerationSoftware,KiCad,Pcbnew,9.0.7*%
%TF.CreationDate,2026-02-26T16:01:44+03:00*%
%TF.ProjectId,Motor_Driver_Shell_Eco,4d6f746f-725f-4447-9269-7665725f5368,rev?*%
%TF.SameCoordinates,Original*%
%TF.FileFunction,Paste,Top*%
%TF.FilePolarity,Positive*%
%FSLAX46Y46*%
G04 Gerber Fmt 4.6, Leading zero omitted, Abs format (unit mm)*
G04 Created by KiCad (PCBNEW 9.0.7) date 2026-02-26 16:01:44*
%MOMM*%
%LPD*%
G01*
G04 APERTURE LIST*
G04 Aperture macros list*
%AMRoundRect*
0 Rectangle with rounded corners*
0 $1 Rounding radius*
0 $2 $3 $4 $5 $6 $7 $8 $9 X,Y pos of 4 corners*
0 Add a 4 corners polygon primitive as box body*
4,1,4,$2,$3,$4,$5,$6,$7,$8,$9,$2,$3,0*
0 Add four circle primitives for the rounded corners*
1,1,$1+$1,$2,$3*
1,1,$1+$1,$4,$5*
1,1,$1+$1,$6,$7*
1,1,$1+$1,$8,$9*
0 Add four rect primitives between the rounded corners*
20,1,$1+$1,$2,$3,$4,$5,0*
20,1,$1+$1,$4,$5,$6,$7,0*
20,1,$1+$1,$6,$7,$8,$9,0*
20,1,$1+$1,$8,$9,$2,$3,0*%
G04 Aperture macros list end*
%ADD10C,0.010000*%
%ADD11RoundRect,0.200000X0.200000X0.275000X-0.200000X0.275000X-0.200000X-0.275000X0.200000X-0.275000X0*%
%ADD12RoundRect,0.160000X-0.160000X0.197500X-0.160000X-0.197500X0.160000X-0.197500X0.160000X0.197500X0*%
%ADD13RoundRect,0.237500X0.237500X-0.300000X0.237500X0.300000X-0.237500X0.300000X-0.237500X-0.300000X0*%
%ADD14RoundRect,0.250000X1.100000X-0.412500X1.100000X0.412500X-1.100000X0.412500X-1.100000X-0.412500X0*%
%ADD15RoundRect,0.237500X0.237500X-0.250000X0.237500X0.250000X-0.237500X0.250000X-0.237500X-0.250000X0*%
%ADD16RoundRect,0.100000X-0.680000X-0.100000X0.680000X-0.100000X0.680000X0.100000X-0.680000X0.100000X0*%
%ADD17RoundRect,0.237500X-0.300000X-0.237500X0.300000X-0.237500X0.300000X0.237500X-0.300000X0.237500X0*%
%ADD18RoundRect,0.250000X0.475000X-0.337500X0.475000X0.337500X-0.475000X0.337500X-0.475000X-0.337500X0*%
%ADD19RoundRect,0.150000X0.150000X-0.512500X0.150000X0.512500X-0.150000X0.512500X-0.150000X-0.512500X0*%
%ADD20RoundRect,0.237500X0.300000X0.237500X-0.300000X0.237500X-0.300000X-0.237500X0.300000X-0.237500X0*%
%ADD21RoundRect,0.237500X-0.237500X0.300000X-0.237500X-0.300000X0.237500X-0.300000X0.237500X0.300000X0*%
%ADD22RoundRect,0.160000X0.160000X-0.197500X0.160000X0.197500X-0.160000X0.197500X-0.160000X-0.197500X0*%
%ADD23RoundRect,0.237500X-0.250000X-0.237500X0.250000X-0.237500X0.250000X0.237500X-0.250000X0.237500X0*%
%ADD24RoundRect,0.150000X-0.512500X-0.150000X0.512500X-0.150000X0.512500X0.150000X-0.512500X0.150000X0*%
%ADD25RoundRect,0.250000X-0.350000X-0.450000X0.350000X-0.450000X0.350000X0.450000X-0.350000X0.450000X0*%
%ADD26RoundRect,0.250001X0.462499X1.074999X-0.462499X1.074999X-0.462499X-1.074999X0.462499X-1.074999X0*%
%ADD27RoundRect,0.155000X-0.155000X0.212500X-0.155000X-0.212500X0.155000X-0.212500X0.155000X0.212500X0*%
%ADD28RoundRect,0.237500X0.250000X0.237500X-0.250000X0.237500X-0.250000X-0.237500X0.250000X-0.237500X0*%
%ADD29RoundRect,0.150000X-0.150000X0.587500X-0.150000X-0.587500X0.150000X-0.587500X0.150000X0.587500X0*%
%ADD30RoundRect,0.150000X0.150000X-0.587500X0.150000X0.587500X-0.150000X0.587500X-0.150000X-0.587500X0*%
%ADD31RoundRect,0.155000X0.212500X0.155000X-0.212500X0.155000X-0.212500X-0.155000X0.212500X-0.155000X0*%
%ADD32RoundRect,0.250000X-0.412500X-1.100000X0.412500X-1.100000X0.412500X1.100000X-0.412500X1.100000X0*%
%ADD33RoundRect,0.160000X-0.197500X-0.160000X0.197500X-0.160000X0.197500X0.160000X-0.197500X0.160000X0*%
%ADD34RoundRect,0.075000X-0.725000X-0.075000X0.725000X-0.075000X0.725000X0.075000X-0.725000X0.075000X0*%
%ADD35RoundRect,0.075000X-0.075000X-0.725000X0.075000X-0.725000X0.075000X0.725000X-0.075000X0.725000X0*%
%ADD36RoundRect,0.150000X0.150000X0.425000X-0.150000X0.425000X-0.150000X-0.425000X0.150000X-0.425000X0*%
%ADD37RoundRect,0.075000X0.075000X0.500000X-0.075000X0.500000X-0.075000X-0.500000X0.075000X-0.500000X0*%
%ADD38O,1.000000X2.100000*%
%ADD39O,1.000000X1.800000*%
%ADD40RoundRect,0.150000X0.150000X-0.825000X0.150000X0.825000X-0.150000X0.825000X-0.150000X-0.825000X0*%
%ADD41RoundRect,0.250000X0.435000X-0.295000X0.435000X0.295000X-0.435000X0.295000X-0.435000X-0.295000X0*%
%ADD42RoundRect,0.150000X0.150000X-0.737500X0.150000X0.737500X-0.150000X0.737500X-0.150000X-0.737500X0*%
%ADD43RoundRect,0.150000X0.512500X0.150000X-0.512500X0.150000X-0.512500X-0.150000X0.512500X-0.150000X0*%
G04 APERTURE END LIST*
D10*
%TO.C,Q17*%
X74065000Y-125700000D02*
X69565000Y-125700000D01*
X69565000Y-124850000D01*
X74065000Y-124850000D01*
X74065000Y-125700000D01*
G36*
X74065000Y-125700000D02*
G01*
X69565000Y-125700000D01*
X69565000Y-124850000D01*
X74065000Y-124850000D01*
X74065000Y-125700000D01*
G37*
X74065000Y-131100000D02*
X69565000Y-131100000D01*
X69565000Y-130000000D01*
X74065000Y-130000000D01*
X74065000Y-131100000D01*
G36*
X74065000Y-131100000D02*
G01*
X69565000Y-131100000D01*
X69565000Y-130000000D01*
X74065000Y-130000000D01*
X74065000Y-131100000D01*
G37*
X74065000Y-132650000D02*
X69565000Y-132650000D01*
X69565000Y-131800000D01*
X74065000Y-131800000D01*
X74065000Y-132650000D01*
G36*
X74065000Y-132650000D02*
G01*
X69565000Y-132650000D01*
X69565000Y-131800000D01*
X74065000Y-131800000D01*
X74065000Y-132650000D01*
G37*
X70515000Y-137725000D02*
X69715000Y-137725000D01*
X69715000Y-135025000D01*
X70515000Y-135025000D01*
X70515000Y-137725000D01*
G36*
X70515000Y-137725000D02*
G01*
X69715000Y-137725000D01*
X69715000Y-135025000D01*
X70515000Y-135025000D01*
X70515000Y-137725000D01*
G37*
X74065000Y-127500000D02*
X70065000Y-127500000D01*
X70065000Y-126400000D01*
X74065000Y-126400000D01*
X74065000Y-127500000D01*
G36*
X74065000Y-127500000D02*
G01*
X70065000Y-127500000D01*
X70065000Y-126400000D01*
X74065000Y-126400000D01*
X74065000Y-127500000D01*
G37*
X74065000Y-129300000D02*
X70065000Y-129300000D01*
X70065000Y-128200000D01*
X74065000Y-128200000D01*
X74065000Y-129300000D01*
G36*
X74065000Y-129300000D02*
G01*
X70065000Y-129300000D01*
X70065000Y-128200000D01*
X74065000Y-128200000D01*
X74065000Y-129300000D01*
G37*
X71715000Y-137725000D02*
X70915000Y-137725000D01*
X70915000Y-135025000D01*
X71715000Y-135025000D01*
X71715000Y-137725000D01*
G36*
X71715000Y-137725000D02*
G01*
X70915000Y-137725000D01*
X70915000Y-135025000D01*
X71715000Y-135025000D01*
X71715000Y-137725000D01*
G37*
X72915000Y-137725000D02*
X72115000Y-137725000D01*
X72115000Y-135025000D01*
X72915000Y-135025000D01*
X72915000Y-137725000D01*
G36*
X72915000Y-137725000D02*
G01*
X72115000Y-137725000D01*
X72115000Y-135025000D01*
X72915000Y-135025000D01*
X72915000Y-137725000D01*
G37*
X74115000Y-137725000D02*
X73315000Y-137725000D01*
X73315000Y-135025000D01*
X74115000Y-135025000D01*
X74115000Y-137725000D01*
G36*
X74115000Y-137725000D02*
G01*
X73315000Y-137725000D01*
X73315000Y-135025000D01*
X74115000Y-135025000D01*
X74115000Y-137725000D01*
G37*
X75315000Y-137725000D02*
X74515000Y-137725000D01*
X74515000Y-135025000D01*
X75315000Y-135025000D01*
X75315000Y-137725000D01*
G36*
X75315000Y-137725000D02*
G01*
X74515000Y-137725000D01*
X74515000Y-135025000D01*
X75315000Y-135025000D01*
X75315000Y-137725000D01*
G37*
X79065000Y-125700000D02*
X74565000Y-125700000D01*
X74565000Y-124850000D01*
X79065000Y-124850000D01*
X79065000Y-125700000D01*
G36*
X79065000Y-125700000D02*
G01*
X74565000Y-125700000D01*
X74565000Y-124850000D01*
X79065000Y-124850000D01*
X79065000Y-125700000D01*
G37*
X78565000Y-127500000D02*
X74565000Y-127500000D01*
X74565000Y-126400000D01*
X78565000Y-126400000D01*
X78565000Y-127500000D01*
G36*
X78565000Y-127500000D02*
G01*
X74565000Y-127500000D01*
X74565000Y-126400000D01*
X78565000Y-126400000D01*
X78565000Y-127500000D01*
G37*
X78565000Y-129300000D02*
X74565000Y-129300000D01*
X74565000Y-128200000D01*
X78565000Y-128200000D01*
X78565000Y-129300000D01*
G36*
X78565000Y-129300000D02*
G01*
X74565000Y-129300000D01*
X74565000Y-128200000D01*
X78565000Y-128200000D01*
X78565000Y-129300000D01*
G37*
X79065000Y-131100000D02*
X74565000Y-131100000D01*
X74565000Y-130000000D01*
X79065000Y-130000000D01*
X79065000Y-131100000D01*
G36*
X79065000Y-131100000D02*
G01*
X74565000Y-131100000D01*
X74565000Y-130000000D01*
X79065000Y-130000000D01*
X79065000Y-131100000D01*
G37*
X79065000Y-132650000D02*
X74565000Y-132650000D01*
X74565000Y-131800000D01*
X79065000Y-131800000D01*
X79065000Y-132650000D01*
G36*
X79065000Y-132650000D02*
G01*
X74565000Y-132650000D01*
X74565000Y-131800000D01*
X79065000Y-131800000D01*
X79065000Y-132650000D01*
G37*
X76515000Y-137725000D02*
X75715000Y-137725000D01*
X75715000Y-135025000D01*
X76515000Y-135025000D01*
X76515000Y-137725000D01*
G36*
X76515000Y-137725000D02*
G01*
X75715000Y-137725000D01*
X75715000Y-135025000D01*
X76515000Y-135025000D01*
X76515000Y-137725000D01*
G37*
X77715000Y-137725000D02*
X76915000Y-137725000D01*
X76915000Y-135025000D01*
X77715000Y-135025000D01*
X77715000Y-137725000D01*
G36*
X77715000Y-137725000D02*
G01*
X76915000Y-137725000D01*
X76915000Y-135025000D01*
X77715000Y-135025000D01*
X77715000Y-137725000D01*
G37*
X78915000Y-137725000D02*
X78115000Y-137725000D01*
X78115000Y-135025000D01*
X78915000Y-135025000D01*
X78915000Y-137725000D01*
G36*
X78915000Y-137725000D02*
G01*
X78115000Y-137725000D01*
X78115000Y-135025000D01*
X78915000Y-135025000D01*
X78915000Y-137725000D01*
G37*
%TO.C,Q15*%
X74615000Y-102000000D02*
X70115000Y-102000000D01*
X70115000Y-101150000D01*
X74615000Y-101150000D01*
X74615000Y-102000000D01*
G36*
X74615000Y-102000000D02*
G01*
X70115000Y-102000000D01*
X70115000Y-101150000D01*
X74615000Y-101150000D01*
X74615000Y-102000000D01*
G37*
X74615000Y-107400000D02*
X70115000Y-107400000D01*
X70115000Y-106300000D01*
X74615000Y-106300000D01*
X74615000Y-107400000D01*
G36*
X74615000Y-107400000D02*
G01*
X70115000Y-107400000D01*
X70115000Y-106300000D01*
X74615000Y-106300000D01*
X74615000Y-107400000D01*
G37*
X74615000Y-108950000D02*
X70115000Y-108950000D01*
X70115000Y-108100000D01*
X74615000Y-108100000D01*
X74615000Y-108950000D01*
G36*
X74615000Y-108950000D02*
G01*
X70115000Y-108950000D01*
X70115000Y-108100000D01*
X74615000Y-108100000D01*
X74615000Y-108950000D01*
G37*
X71065000Y-114025000D02*
X70265000Y-114025000D01*
X70265000Y-111325000D01*
X71065000Y-111325000D01*
X71065000Y-114025000D01*
G36*
X71065000Y-114025000D02*
G01*
X70265000Y-114025000D01*
X70265000Y-111325000D01*
X71065000Y-111325000D01*
X71065000Y-114025000D01*
G37*
X74615000Y-103800000D02*
X70615000Y-103800000D01*
X70615000Y-102700000D01*
X74615000Y-102700000D01*
X74615000Y-103800000D01*
G36*
X74615000Y-103800000D02*
G01*
X70615000Y-103800000D01*
X70615000Y-102700000D01*
X74615000Y-102700000D01*
X74615000Y-103800000D01*
G37*
X74615000Y-105600000D02*
X70615000Y-105600000D01*
X70615000Y-104500000D01*
X74615000Y-104500000D01*
X74615000Y-105600000D01*
G36*
X74615000Y-105600000D02*
G01*
X70615000Y-105600000D01*
X70615000Y-104500000D01*
X74615000Y-104500000D01*
X74615000Y-105600000D01*
G37*
X72265000Y-114025000D02*
X71465000Y-114025000D01*
X71465000Y-111325000D01*
X72265000Y-111325000D01*
X72265000Y-114025000D01*
G36*
X72265000Y-114025000D02*
G01*
X71465000Y-114025000D01*
X71465000Y-111325000D01*
X72265000Y-111325000D01*
X72265000Y-114025000D01*
G37*
X73465000Y-114025000D02*
X72665000Y-114025000D01*
X72665000Y-111325000D01*
X73465000Y-111325000D01*
X73465000Y-114025000D01*
G36*
X73465000Y-114025000D02*
G01*
X72665000Y-114025000D01*
X72665000Y-111325000D01*
X73465000Y-111325000D01*
X73465000Y-114025000D01*
G37*
X74665000Y-114025000D02*
X73865000Y-114025000D01*
X73865000Y-111325000D01*
X74665000Y-111325000D01*
X74665000Y-114025000D01*
G36*
X74665000Y-114025000D02*
G01*
X73865000Y-114025000D01*
X73865000Y-111325000D01*
X74665000Y-111325000D01*
X74665000Y-114025000D01*
G37*
X75865000Y-114025000D02*
X75065000Y-114025000D01*
X75065000Y-111325000D01*
X75865000Y-111325000D01*
X75865000Y-114025000D01*
G36*
X75865000Y-114025000D02*
G01*
X75065000Y-114025000D01*
X75065000Y-111325000D01*
X75865000Y-111325000D01*
X75865000Y-114025000D01*
G37*
X79615000Y-102000000D02*
X75115000Y-102000000D01*
X75115000Y-101150000D01*
X79615000Y-101150000D01*
X79615000Y-102000000D01*
G36*
X79615000Y-102000000D02*
G01*
X75115000Y-102000000D01*
X75115000Y-101150000D01*
X79615000Y-101150000D01*
X79615000Y-102000000D01*
G37*
X79115000Y-103800000D02*
X75115000Y-103800000D01*
X75115000Y-102700000D01*
X79115000Y-102700000D01*
X79115000Y-103800000D01*
G36*
X79115000Y-103800000D02*
G01*
X75115000Y-103800000D01*
X75115000Y-102700000D01*
X79115000Y-102700000D01*
X79115000Y-103800000D01*
G37*
X79115000Y-105600000D02*
X75115000Y-105600000D01*
X75115000Y-104500000D01*
X79115000Y-104500000D01*
X79115000Y-105600000D01*
G36*
X79115000Y-105600000D02*
G01*
X75115000Y-105600000D01*
X75115000Y-104500000D01*
X79115000Y-104500000D01*
X79115000Y-105600000D01*
G37*
X79615000Y-107400000D02*
X75115000Y-107400000D01*
X75115000Y-106300000D01*
X79615000Y-106300000D01*
X79615000Y-107400000D01*
G36*
X79615000Y-107400000D02*
G01*
X75115000Y-107400000D01*
X75115000Y-106300000D01*
X79615000Y-106300000D01*
X79615000Y-107400000D01*
G37*
X79615000Y-108950000D02*
X75115000Y-108950000D01*
X75115000Y-108100000D01*
X79615000Y-108100000D01*
X79615000Y-108950000D01*
G36*
X79615000Y-108950000D02*
G01*
X75115000Y-108950000D01*
X75115000Y-108100000D01*
X79615000Y-108100000D01*
X79615000Y-108950000D01*
G37*
X77065000Y-114025000D02*
X76265000Y-114025000D01*
X76265000Y-111325000D01*
X77065000Y-111325000D01*
X77065000Y-114025000D01*
G36*
X77065000Y-114025000D02*
G01*
X76265000Y-114025000D01*
X76265000Y-111325000D01*
X77065000Y-111325000D01*
X77065000Y-114025000D01*
G37*
X78265000Y-114025000D02*
X77465000Y-114025000D01*
X77465000Y-111325000D01*
X78265000Y-111325000D01*
X78265000Y-114025000D01*
G36*
X78265000Y-114025000D02*
G01*
X77465000Y-114025000D01*
X77465000Y-111325000D01*
X78265000Y-111325000D01*
X78265000Y-114025000D01*
G37*
X79465000Y-114025000D02*
X78665000Y-114025000D01*
X78665000Y-111325000D01*
X79465000Y-111325000D01*
X79465000Y-114025000D01*
G36*
X79465000Y-114025000D02*
G01*
X78665000Y-114025000D01*
X78665000Y-111325000D01*
X79465000Y-111325000D01*
X79465000Y-114025000D01*
G37*
%TO.C,Q20*%
X147878929Y-101786832D02*
X143378929Y-101786832D01*
X143378929Y-100936832D01*
X147878929Y-100936832D01*
X147878929Y-101786832D01*
G36*
X147878929Y-101786832D02*
G01*
X143378929Y-101786832D01*
X143378929Y-100936832D01*
X147878929Y-100936832D01*
X147878929Y-101786832D01*
G37*
X147878929Y-107186832D02*
X143378929Y-107186832D01*
X143378929Y-106086832D01*
X147878929Y-106086832D01*
X147878929Y-107186832D01*
G36*
X147878929Y-107186832D02*
G01*
X143378929Y-107186832D01*
X143378929Y-106086832D01*
X147878929Y-106086832D01*
X147878929Y-107186832D01*
G37*
X147878929Y-108736832D02*
X143378929Y-108736832D01*
X143378929Y-107886832D01*
X147878929Y-107886832D01*
X147878929Y-108736832D01*
G36*
X147878929Y-108736832D02*
G01*
X143378929Y-108736832D01*
X143378929Y-107886832D01*
X147878929Y-107886832D01*
X147878929Y-108736832D01*
G37*
X144328929Y-113811832D02*
X143528929Y-113811832D01*
X143528929Y-111111832D01*
X144328929Y-111111832D01*
X144328929Y-113811832D01*
G36*
X144328929Y-113811832D02*
G01*
X143528929Y-113811832D01*
X143528929Y-111111832D01*
X144328929Y-111111832D01*
X144328929Y-113811832D01*
G37*
X147878929Y-103586832D02*
X143878929Y-103586832D01*
X143878929Y-102486832D01*
X147878929Y-102486832D01*
X147878929Y-103586832D01*
G36*
X147878929Y-103586832D02*
G01*
X143878929Y-103586832D01*
X143878929Y-102486832D01*
X147878929Y-102486832D01*
X147878929Y-103586832D01*
G37*
X147878929Y-105386832D02*
X143878929Y-105386832D01*
X143878929Y-104286832D01*
X147878929Y-104286832D01*
X147878929Y-105386832D01*
G36*
X147878929Y-105386832D02*
G01*
X143878929Y-105386832D01*
X143878929Y-104286832D01*
X147878929Y-104286832D01*
X147878929Y-105386832D01*
G37*
X145528929Y-113811832D02*
X144728929Y-113811832D01*
X144728929Y-111111832D01*
X145528929Y-111111832D01*
X145528929Y-113811832D01*
G36*
X145528929Y-113811832D02*
G01*
X144728929Y-113811832D01*
X144728929Y-111111832D01*
X145528929Y-111111832D01*
X145528929Y-113811832D01*
G37*
X146728929Y-113811832D02*
X145928929Y-113811832D01*
X145928929Y-111111832D01*
X146728929Y-111111832D01*
X146728929Y-113811832D01*
G36*
X146728929Y-113811832D02*
G01*
X145928929Y-113811832D01*
X145928929Y-111111832D01*
X146728929Y-111111832D01*
X146728929Y-113811832D01*
G37*
X147928929Y-113811832D02*
X147128929Y-113811832D01*
X147128929Y-111111832D01*
X147928929Y-111111832D01*
X147928929Y-113811832D01*
G36*
X147928929Y-113811832D02*
G01*
X147128929Y-113811832D01*
X147128929Y-111111832D01*
X147928929Y-111111832D01*
X147928929Y-113811832D01*
G37*
X149128929Y-113811832D02*
X148328929Y-113811832D01*
X148328929Y-111111832D01*
X149128929Y-111111832D01*
X149128929Y-113811832D01*
G36*
X149128929Y-113811832D02*
G01*
X148328929Y-113811832D01*
X148328929Y-111111832D01*
X149128929Y-111111832D01*
X149128929Y-113811832D01*
G37*
X152878929Y-101786832D02*
X148378929Y-101786832D01*
X148378929Y-100936832D01*
X152878929Y-100936832D01*
X152878929Y-101786832D01*
G36*
X152878929Y-101786832D02*
G01*
X148378929Y-101786832D01*
X148378929Y-100936832D01*
X152878929Y-100936832D01*
X152878929Y-101786832D01*
G37*
X152378929Y-103586832D02*
X148378929Y-103586832D01*
X148378929Y-102486832D01*
X152378929Y-102486832D01*
X152378929Y-103586832D01*
G36*
X152378929Y-103586832D02*
G01*
X148378929Y-103586832D01*
X148378929Y-102486832D01*
X152378929Y-102486832D01*
X152378929Y-103586832D01*
G37*
X152378929Y-105386832D02*
X148378929Y-105386832D01*
X148378929Y-104286832D01*
X152378929Y-104286832D01*
X152378929Y-105386832D01*
G36*
X152378929Y-105386832D02*
G01*
X148378929Y-105386832D01*
X148378929Y-104286832D01*
X152378929Y-104286832D01*
X152378929Y-105386832D01*
G37*
X152878929Y-107186832D02*
X148378929Y-107186832D01*
X148378929Y-106086832D01*
X152878929Y-106086832D01*
X152878929Y-107186832D01*
G36*
X152878929Y-107186832D02*
G01*
X148378929Y-107186832D01*
X148378929Y-106086832D01*
X152878929Y-106086832D01*
X152878929Y-107186832D01*
G37*
X152878929Y-108736832D02*
X148378929Y-108736832D01*
X148378929Y-107886832D01*
X152878929Y-107886832D01*
X152878929Y-108736832D01*
G36*
X152878929Y-108736832D02*
G01*
X148378929Y-108736832D01*
X148378929Y-107886832D01*
X152878929Y-107886832D01*
X152878929Y-108736832D01*
G37*
X150328929Y-113811832D02*
X149528929Y-113811832D01*
X149528929Y-111111832D01*
X150328929Y-111111832D01*
X150328929Y-113811832D01*
G36*
X150328929Y-113811832D02*
G01*
X149528929Y-113811832D01*
X149528929Y-111111832D01*
X150328929Y-111111832D01*
X150328929Y-113811832D01*
G37*
X151528929Y-113811832D02*
X150728929Y-113811832D01*
X150728929Y-111111832D01*
X151528929Y-111111832D01*
X151528929Y-113811832D01*
G36*
X151528929Y-113811832D02*
G01*
X150728929Y-113811832D01*
X150728929Y-111111832D01*
X151528929Y-111111832D01*
X151528929Y-113811832D01*
G37*
X152728929Y-113811832D02*
X151928929Y-113811832D01*
X151928929Y-111111832D01*
X152728929Y-111111832D01*
X152728929Y-113811832D01*
G36*
X152728929Y-113811832D02*
G01*
X151928929Y-113811832D01*
X151928929Y-111111832D01*
X152728929Y-111111832D01*
X152728929Y-113811832D01*
G37*
%TO.C,Q21*%
X147628929Y-125161832D02*
X143128929Y-125161832D01*
X143128929Y-124311832D01*
X147628929Y-124311832D01*
X147628929Y-125161832D01*
G36*
X147628929Y-125161832D02*
G01*
X143128929Y-125161832D01*
X143128929Y-124311832D01*
X147628929Y-124311832D01*
X147628929Y-125161832D01*
G37*
X147628929Y-130561832D02*
X143128929Y-130561832D01*
X143128929Y-129461832D01*
X147628929Y-129461832D01*
X147628929Y-130561832D01*
G36*
X147628929Y-130561832D02*
G01*
X143128929Y-130561832D01*
X143128929Y-129461832D01*
X147628929Y-129461832D01*
X147628929Y-130561832D01*
G37*
X147628929Y-132111832D02*
X143128929Y-132111832D01*
X143128929Y-131261832D01*
X147628929Y-131261832D01*
X147628929Y-132111832D01*
G36*
X147628929Y-132111832D02*
G01*
X143128929Y-132111832D01*
X143128929Y-131261832D01*
X147628929Y-131261832D01*
X147628929Y-132111832D01*
G37*
X144078929Y-137186832D02*
X143278929Y-137186832D01*
X143278929Y-134486832D01*
X144078929Y-134486832D01*
X144078929Y-137186832D01*
G36*
X144078929Y-137186832D02*
G01*
X143278929Y-137186832D01*
X143278929Y-134486832D01*
X144078929Y-134486832D01*
X144078929Y-137186832D01*
G37*
X147628929Y-126961832D02*
X143628929Y-126961832D01*
X143628929Y-125861832D01*
X147628929Y-125861832D01*
X147628929Y-126961832D01*
G36*
X147628929Y-126961832D02*
G01*
X143628929Y-126961832D01*
X143628929Y-125861832D01*
X147628929Y-125861832D01*
X147628929Y-126961832D01*
G37*
X147628929Y-128761832D02*
X143628929Y-128761832D01*
X143628929Y-127661832D01*
X147628929Y-127661832D01*
X147628929Y-128761832D01*
G36*
X147628929Y-128761832D02*
G01*
X143628929Y-128761832D01*
X143628929Y-127661832D01*
X147628929Y-127661832D01*
X147628929Y-128761832D01*
G37*
X145278929Y-137186832D02*
X144478929Y-137186832D01*
X144478929Y-134486832D01*
X145278929Y-134486832D01*
X145278929Y-137186832D01*
G36*
X145278929Y-137186832D02*
G01*
X144478929Y-137186832D01*
X144478929Y-134486832D01*
X145278929Y-134486832D01*
X145278929Y-137186832D01*
G37*
X146478929Y-137186832D02*
X145678929Y-137186832D01*
X145678929Y-134486832D01*
X146478929Y-134486832D01*
X146478929Y-137186832D01*
G36*
X146478929Y-137186832D02*
G01*
X145678929Y-137186832D01*
X145678929Y-134486832D01*
X146478929Y-134486832D01*
X146478929Y-137186832D01*
G37*
X147678929Y-137186832D02*
X146878929Y-137186832D01*
X146878929Y-134486832D01*
X147678929Y-134486832D01*
X147678929Y-137186832D01*
G36*
X147678929Y-137186832D02*
G01*
X146878929Y-137186832D01*
X146878929Y-134486832D01*
X147678929Y-134486832D01*
X147678929Y-137186832D01*
G37*
X148878929Y-137186832D02*
X148078929Y-137186832D01*
X148078929Y-134486832D01*
X148878929Y-134486832D01*
X148878929Y-137186832D01*
G36*
X148878929Y-137186832D02*
G01*
X148078929Y-137186832D01*
X148078929Y-134486832D01*
X148878929Y-134486832D01*
X148878929Y-137186832D01*
G37*
X152628929Y-125161832D02*
X148128929Y-125161832D01*
X148128929Y-124311832D01*
X152628929Y-124311832D01*
X152628929Y-125161832D01*
G36*
X152628929Y-125161832D02*
G01*
X148128929Y-125161832D01*
X148128929Y-124311832D01*
X152628929Y-124311832D01*
X152628929Y-125161832D01*
G37*
X152128929Y-126961832D02*
X148128929Y-126961832D01*
X148128929Y-125861832D01*
X152128929Y-125861832D01*
X152128929Y-126961832D01*
G36*
X152128929Y-126961832D02*
G01*
X148128929Y-126961832D01*
X148128929Y-125861832D01*
X152128929Y-125861832D01*
X152128929Y-126961832D01*
G37*
X152128929Y-128761832D02*
X148128929Y-128761832D01*
X148128929Y-127661832D01*
X152128929Y-127661832D01*
X152128929Y-128761832D01*
G36*
X152128929Y-128761832D02*
G01*
X148128929Y-128761832D01*
X148128929Y-127661832D01*
X152128929Y-127661832D01*
X152128929Y-128761832D01*
G37*
X152628929Y-130561832D02*
X148128929Y-130561832D01*
X148128929Y-129461832D01*
X152628929Y-129461832D01*
X152628929Y-130561832D01*
G36*
X152628929Y-130561832D02*
G01*
X148128929Y-130561832D01*
X148128929Y-129461832D01*
X152628929Y-129461832D01*
X152628929Y-130561832D01*
G37*
X152628929Y-132111832D02*
X148128929Y-132111832D01*
X148128929Y-131261832D01*
X152628929Y-131261832D01*
X152628929Y-132111832D01*
G36*
X152628929Y-132111832D02*
G01*
X148128929Y-132111832D01*
X148128929Y-131261832D01*
X152628929Y-131261832D01*
X152628929Y-132111832D01*
G37*
X150078929Y-137186832D02*
X149278929Y-137186832D01*
X149278929Y-134486832D01*
X150078929Y-134486832D01*
X150078929Y-137186832D01*
G36*
X150078929Y-137186832D02*
G01*
X149278929Y-137186832D01*
X149278929Y-134486832D01*
X150078929Y-134486832D01*
X150078929Y-137186832D01*
G37*
X151278929Y-137186832D02*
X150478929Y-137186832D01*
X150478929Y-134486832D01*
X151278929Y-134486832D01*
X151278929Y-137186832D01*
G36*
X151278929Y-137186832D02*
G01*
X150478929Y-137186832D01*
X150478929Y-134486832D01*
X151278929Y-134486832D01*
X151278929Y-137186832D01*
G37*
X152478929Y-137186832D02*
X151678929Y-137186832D01*
X151678929Y-134486832D01*
X152478929Y-134486832D01*
X152478929Y-137186832D01*
G36*
X152478929Y-137186832D02*
G01*
X151678929Y-137186832D01*
X151678929Y-134486832D01*
X152478929Y-134486832D01*
X152478929Y-137186832D01*
G37*
%TO.C,Q7*%
X100045908Y-125489235D02*
X95545908Y-125489235D01*
X95545908Y-124639235D01*
X100045908Y-124639235D01*
X100045908Y-125489235D01*
G36*
X100045908Y-125489235D02*
G01*
X95545908Y-125489235D01*
X95545908Y-124639235D01*
X100045908Y-124639235D01*
X100045908Y-125489235D01*
G37*
X100045908Y-130889235D02*
X95545908Y-130889235D01*
X95545908Y-129789235D01*
X100045908Y-129789235D01*
X100045908Y-130889235D01*
G36*
X100045908Y-130889235D02*
G01*
X95545908Y-130889235D01*
X95545908Y-129789235D01*
X100045908Y-129789235D01*
X100045908Y-130889235D01*
G37*
X100045908Y-132439235D02*
X95545908Y-132439235D01*
X95545908Y-131589235D01*
X100045908Y-131589235D01*
X100045908Y-132439235D01*
G36*
X100045908Y-132439235D02*
G01*
X95545908Y-132439235D01*
X95545908Y-131589235D01*
X100045908Y-131589235D01*
X100045908Y-132439235D01*
G37*
X96495908Y-137514235D02*
X95695908Y-137514235D01*
X95695908Y-134814235D01*
X96495908Y-134814235D01*
X96495908Y-137514235D01*
G36*
X96495908Y-137514235D02*
G01*
X95695908Y-137514235D01*
X95695908Y-134814235D01*
X96495908Y-134814235D01*
X96495908Y-137514235D01*
G37*
X100045908Y-127289235D02*
X96045908Y-127289235D01*
X96045908Y-126189235D01*
X100045908Y-126189235D01*
X100045908Y-127289235D01*
G36*
X100045908Y-127289235D02*
G01*
X96045908Y-127289235D01*
X96045908Y-126189235D01*
X100045908Y-126189235D01*
X100045908Y-127289235D01*
G37*
X100045908Y-129089235D02*
X96045908Y-129089235D01*
X96045908Y-127989235D01*
X100045908Y-127989235D01*
X100045908Y-129089235D01*
G36*
X100045908Y-129089235D02*
G01*
X96045908Y-129089235D01*
X96045908Y-127989235D01*
X100045908Y-127989235D01*
X100045908Y-129089235D01*
G37*
X97695908Y-137514235D02*
X96895908Y-137514235D01*
X96895908Y-134814235D01*
X97695908Y-134814235D01*
X97695908Y-137514235D01*
G36*
X97695908Y-137514235D02*
G01*
X96895908Y-137514235D01*
X96895908Y-134814235D01*
X97695908Y-134814235D01*
X97695908Y-137514235D01*
G37*
X98895908Y-137514235D02*
X98095908Y-137514235D01*
X98095908Y-134814235D01*
X98895908Y-134814235D01*
X98895908Y-137514235D01*
G36*
X98895908Y-137514235D02*
G01*
X98095908Y-137514235D01*
X98095908Y-134814235D01*
X98895908Y-134814235D01*
X98895908Y-137514235D01*
G37*
X100095908Y-137514235D02*
X99295908Y-137514235D01*
X99295908Y-134814235D01*
X100095908Y-134814235D01*
X100095908Y-137514235D01*
G36*
X100095908Y-137514235D02*
G01*
X99295908Y-137514235D01*
X99295908Y-134814235D01*
X100095908Y-134814235D01*
X100095908Y-137514235D01*
G37*
X101295908Y-137514235D02*
X100495908Y-137514235D01*
X100495908Y-134814235D01*
X101295908Y-134814235D01*
X101295908Y-137514235D01*
G36*
X101295908Y-137514235D02*
G01*
X100495908Y-137514235D01*
X100495908Y-134814235D01*
X101295908Y-134814235D01*
X101295908Y-137514235D01*
G37*
X105045908Y-125489235D02*
X100545908Y-125489235D01*
X100545908Y-124639235D01*
X105045908Y-124639235D01*
X105045908Y-125489235D01*
G36*
X105045908Y-125489235D02*
G01*
X100545908Y-125489235D01*
X100545908Y-124639235D01*
X105045908Y-124639235D01*
X105045908Y-125489235D01*
G37*
X104545908Y-127289235D02*
X100545908Y-127289235D01*
X100545908Y-126189235D01*
X104545908Y-126189235D01*
X104545908Y-127289235D01*
G36*
X104545908Y-127289235D02*
G01*
X100545908Y-127289235D01*
X100545908Y-126189235D01*
X104545908Y-126189235D01*
X104545908Y-127289235D01*
G37*
X104545908Y-129089235D02*
X100545908Y-129089235D01*
X100545908Y-127989235D01*
X104545908Y-127989235D01*
X104545908Y-129089235D01*
G36*
X104545908Y-129089235D02*
G01*
X100545908Y-129089235D01*
X100545908Y-127989235D01*
X104545908Y-127989235D01*
X104545908Y-129089235D01*
G37*
X105045908Y-130889235D02*
X100545908Y-130889235D01*
X100545908Y-129789235D01*
X105045908Y-129789235D01*
X105045908Y-130889235D01*
G36*
X105045908Y-130889235D02*
G01*
X100545908Y-130889235D01*
X100545908Y-129789235D01*
X105045908Y-129789235D01*
X105045908Y-130889235D01*
G37*
X105045908Y-132439235D02*
X100545908Y-132439235D01*
X100545908Y-131589235D01*
X105045908Y-131589235D01*
X105045908Y-132439235D01*
G36*
X105045908Y-132439235D02*
G01*
X100545908Y-132439235D01*
X100545908Y-131589235D01*
X105045908Y-131589235D01*
X105045908Y-132439235D01*
G37*
X102495908Y-137514235D02*
X101695908Y-137514235D01*
X101695908Y-134814235D01*
X102495908Y-134814235D01*
X102495908Y-137514235D01*
G36*
X102495908Y-137514235D02*
G01*
X101695908Y-137514235D01*
X101695908Y-134814235D01*
X102495908Y-134814235D01*
X102495908Y-137514235D01*
G37*
X103695908Y-137514235D02*
X102895908Y-137514235D01*
X102895908Y-134814235D01*
X103695908Y-134814235D01*
X103695908Y-137514235D01*
G36*
X103695908Y-137514235D02*
G01*
X102895908Y-137514235D01*
X102895908Y-134814235D01*
X103695908Y-134814235D01*
X103695908Y-137514235D01*
G37*
X104895908Y-137514235D02*
X104095908Y-137514235D01*
X104095908Y-134814235D01*
X104895908Y-134814235D01*
X104895908Y-137514235D01*
G36*
X104895908Y-137514235D02*
G01*
X104095908Y-137514235D01*
X104095908Y-134814235D01*
X104895908Y-134814235D01*
X104895908Y-137514235D01*
G37*
%TO.C,Q9*%
X110895908Y-125439235D02*
X106395908Y-125439235D01*
X106395908Y-124589235D01*
X110895908Y-124589235D01*
X110895908Y-125439235D01*
G36*
X110895908Y-125439235D02*
G01*
X106395908Y-125439235D01*
X106395908Y-124589235D01*
X110895908Y-124589235D01*
X110895908Y-125439235D01*
G37*
X110895908Y-130839235D02*
X106395908Y-130839235D01*
X106395908Y-129739235D01*
X110895908Y-129739235D01*
X110895908Y-130839235D01*
G36*
X110895908Y-130839235D02*
G01*
X106395908Y-130839235D01*
X106395908Y-129739235D01*
X110895908Y-129739235D01*
X110895908Y-130839235D01*
G37*
X110895908Y-132389235D02*
X106395908Y-132389235D01*
X106395908Y-131539235D01*
X110895908Y-131539235D01*
X110895908Y-132389235D01*
G36*
X110895908Y-132389235D02*
G01*
X106395908Y-132389235D01*
X106395908Y-131539235D01*
X110895908Y-131539235D01*
X110895908Y-132389235D01*
G37*
X107345908Y-137464235D02*
X106545908Y-137464235D01*
X106545908Y-134764235D01*
X107345908Y-134764235D01*
X107345908Y-137464235D01*
G36*
X107345908Y-137464235D02*
G01*
X106545908Y-137464235D01*
X106545908Y-134764235D01*
X107345908Y-134764235D01*
X107345908Y-137464235D01*
G37*
X110895908Y-127239235D02*
X106895908Y-127239235D01*
X106895908Y-126139235D01*
X110895908Y-126139235D01*
X110895908Y-127239235D01*
G36*
X110895908Y-127239235D02*
G01*
X106895908Y-127239235D01*
X106895908Y-126139235D01*
X110895908Y-126139235D01*
X110895908Y-127239235D01*
G37*
X110895908Y-129039235D02*
X106895908Y-129039235D01*
X106895908Y-127939235D01*
X110895908Y-127939235D01*
X110895908Y-129039235D01*
G36*
X110895908Y-129039235D02*
G01*
X106895908Y-129039235D01*
X106895908Y-127939235D01*
X110895908Y-127939235D01*
X110895908Y-129039235D01*
G37*
X108545908Y-137464235D02*
X107745908Y-137464235D01*
X107745908Y-134764235D01*
X108545908Y-134764235D01*
X108545908Y-137464235D01*
G36*
X108545908Y-137464235D02*
G01*
X107745908Y-137464235D01*
X107745908Y-134764235D01*
X108545908Y-134764235D01*
X108545908Y-137464235D01*
G37*
X109745908Y-137464235D02*
X108945908Y-137464235D01*
X108945908Y-134764235D01*
X109745908Y-134764235D01*
X109745908Y-137464235D01*
G36*
X109745908Y-137464235D02*
G01*
X108945908Y-137464235D01*
X108945908Y-134764235D01*
X109745908Y-134764235D01*
X109745908Y-137464235D01*
G37*
X110945908Y-137464235D02*
X110145908Y-137464235D01*
X110145908Y-134764235D01*
X110945908Y-134764235D01*
X110945908Y-137464235D01*
G36*
X110945908Y-137464235D02*
G01*
X110145908Y-137464235D01*
X110145908Y-134764235D01*
X110945908Y-134764235D01*
X110945908Y-137464235D01*
G37*
X112145908Y-137464235D02*
X111345908Y-137464235D01*
X111345908Y-134764235D01*
X112145908Y-134764235D01*
X112145908Y-137464235D01*
G36*
X112145908Y-137464235D02*
G01*
X111345908Y-137464235D01*
X111345908Y-134764235D01*
X112145908Y-134764235D01*
X112145908Y-137464235D01*
G37*
X115895908Y-125439235D02*
X111395908Y-125439235D01*
X111395908Y-124589235D01*
X115895908Y-124589235D01*
X115895908Y-125439235D01*
G36*
X115895908Y-125439235D02*
G01*
X111395908Y-125439235D01*
X111395908Y-124589235D01*
X115895908Y-124589235D01*
X115895908Y-125439235D01*
G37*
X115395908Y-127239235D02*
X111395908Y-127239235D01*
X111395908Y-126139235D01*
X115395908Y-126139235D01*
X115395908Y-127239235D01*
G36*
X115395908Y-127239235D02*
G01*
X111395908Y-127239235D01*
X111395908Y-126139235D01*
X115395908Y-126139235D01*
X115395908Y-127239235D01*
G37*
X115395908Y-129039235D02*
X111395908Y-129039235D01*
X111395908Y-127939235D01*
X115395908Y-127939235D01*
X115395908Y-129039235D01*
G36*
X115395908Y-129039235D02*
G01*
X111395908Y-129039235D01*
X111395908Y-127939235D01*
X115395908Y-127939235D01*
X115395908Y-129039235D01*
G37*
X115895908Y-130839235D02*
X111395908Y-130839235D01*
X111395908Y-129739235D01*
X115895908Y-129739235D01*
X115895908Y-130839235D01*
G36*
X115895908Y-130839235D02*
G01*
X111395908Y-130839235D01*
X111395908Y-129739235D01*
X115895908Y-129739235D01*
X115895908Y-130839235D01*
G37*
X115895908Y-132389235D02*
X111395908Y-132389235D01*
X111395908Y-131539235D01*
X115895908Y-131539235D01*
X115895908Y-132389235D01*
G36*
X115895908Y-132389235D02*
G01*
X111395908Y-132389235D01*
X111395908Y-131539235D01*
X115895908Y-131539235D01*
X115895908Y-132389235D01*
G37*
X113345908Y-137464235D02*
X112545908Y-137464235D01*
X112545908Y-134764235D01*
X113345908Y-134764235D01*
X113345908Y-137464235D01*
G36*
X113345908Y-137464235D02*
G01*
X112545908Y-137464235D01*
X112545908Y-134764235D01*
X113345908Y-134764235D01*
X113345908Y-137464235D01*
G37*
X114545908Y-137464235D02*
X113745908Y-137464235D01*
X113745908Y-134764235D01*
X114545908Y-134764235D01*
X114545908Y-137464235D01*
G36*
X114545908Y-137464235D02*
G01*
X113745908Y-137464235D01*
X113745908Y-134764235D01*
X114545908Y-134764235D01*
X114545908Y-137464235D01*
G37*
X115745908Y-137464235D02*
X114945908Y-137464235D01*
X114945908Y-134764235D01*
X115745908Y-134764235D01*
X115745908Y-137464235D01*
G36*
X115745908Y-137464235D02*
G01*
X114945908Y-137464235D01*
X114945908Y-134764235D01*
X115745908Y-134764235D01*
X115745908Y-137464235D01*
G37*
%TO.C,Q16*%
X63215000Y-125700000D02*
X58715000Y-125700000D01*
X58715000Y-124850000D01*
X63215000Y-124850000D01*
X63215000Y-125700000D01*
G36*
X63215000Y-125700000D02*
G01*
X58715000Y-125700000D01*
X58715000Y-124850000D01*
X63215000Y-124850000D01*
X63215000Y-125700000D01*
G37*
X63215000Y-131100000D02*
X58715000Y-131100000D01*
X58715000Y-130000000D01*
X63215000Y-130000000D01*
X63215000Y-131100000D01*
G36*
X63215000Y-131100000D02*
G01*
X58715000Y-131100000D01*
X58715000Y-130000000D01*
X63215000Y-130000000D01*
X63215000Y-131100000D01*
G37*
X63215000Y-132650000D02*
X58715000Y-132650000D01*
X58715000Y-131800000D01*
X63215000Y-131800000D01*
X63215000Y-132650000D01*
G36*
X63215000Y-132650000D02*
G01*
X58715000Y-132650000D01*
X58715000Y-131800000D01*
X63215000Y-131800000D01*
X63215000Y-132650000D01*
G37*
X59665000Y-137725000D02*
X58865000Y-137725000D01*
X58865000Y-135025000D01*
X59665000Y-135025000D01*
X59665000Y-137725000D01*
G36*
X59665000Y-137725000D02*
G01*
X58865000Y-137725000D01*
X58865000Y-135025000D01*
X59665000Y-135025000D01*
X59665000Y-137725000D01*
G37*
X63215000Y-127500000D02*
X59215000Y-127500000D01*
X59215000Y-126400000D01*
X63215000Y-126400000D01*
X63215000Y-127500000D01*
G36*
X63215000Y-127500000D02*
G01*
X59215000Y-127500000D01*
X59215000Y-126400000D01*
X63215000Y-126400000D01*
X63215000Y-127500000D01*
G37*
X63215000Y-129300000D02*
X59215000Y-129300000D01*
X59215000Y-128200000D01*
X63215000Y-128200000D01*
X63215000Y-129300000D01*
G36*
X63215000Y-129300000D02*
G01*
X59215000Y-129300000D01*
X59215000Y-128200000D01*
X63215000Y-128200000D01*
X63215000Y-129300000D01*
G37*
X60865000Y-137725000D02*
X60065000Y-137725000D01*
X60065000Y-135025000D01*
X60865000Y-135025000D01*
X60865000Y-137725000D01*
G36*
X60865000Y-137725000D02*
G01*
X60065000Y-137725000D01*
X60065000Y-135025000D01*
X60865000Y-135025000D01*
X60865000Y-137725000D01*
G37*
X62065000Y-137725000D02*
X61265000Y-137725000D01*
X61265000Y-135025000D01*
X62065000Y-135025000D01*
X62065000Y-137725000D01*
G36*
X62065000Y-137725000D02*
G01*
X61265000Y-137725000D01*
X61265000Y-135025000D01*
X62065000Y-135025000D01*
X62065000Y-137725000D01*
G37*
X63265000Y-137725000D02*
X62465000Y-137725000D01*
X62465000Y-135025000D01*
X63265000Y-135025000D01*
X63265000Y-137725000D01*
G36*
X63265000Y-137725000D02*
G01*
X62465000Y-137725000D01*
X62465000Y-135025000D01*
X63265000Y-135025000D01*
X63265000Y-137725000D01*
G37*
X64465000Y-137725000D02*
X63665000Y-137725000D01*
X63665000Y-135025000D01*
X64465000Y-135025000D01*
X64465000Y-137725000D01*
G36*
X64465000Y-137725000D02*
G01*
X63665000Y-137725000D01*
X63665000Y-135025000D01*
X64465000Y-135025000D01*
X64465000Y-137725000D01*
G37*
X68215000Y-125700000D02*
X63715000Y-125700000D01*
X63715000Y-124850000D01*
X68215000Y-124850000D01*
X68215000Y-125700000D01*
G36*
X68215000Y-125700000D02*
G01*
X63715000Y-125700000D01*
X63715000Y-124850000D01*
X68215000Y-124850000D01*
X68215000Y-125700000D01*
G37*
X67715000Y-127500000D02*
X63715000Y-127500000D01*
X63715000Y-126400000D01*
X67715000Y-126400000D01*
X67715000Y-127500000D01*
G36*
X67715000Y-127500000D02*
G01*
X63715000Y-127500000D01*
X63715000Y-126400000D01*
X67715000Y-126400000D01*
X67715000Y-127500000D01*
G37*
X67715000Y-129300000D02*
X63715000Y-129300000D01*
X63715000Y-128200000D01*
X67715000Y-128200000D01*
X67715000Y-129300000D01*
G36*
X67715000Y-129300000D02*
G01*
X63715000Y-129300000D01*
X63715000Y-128200000D01*
X67715000Y-128200000D01*
X67715000Y-129300000D01*
G37*
X68215000Y-131100000D02*
X63715000Y-131100000D01*
X63715000Y-130000000D01*
X68215000Y-130000000D01*
X68215000Y-131100000D01*
G36*
X68215000Y-131100000D02*
G01*
X63715000Y-131100000D01*
X63715000Y-130000000D01*
X68215000Y-130000000D01*
X68215000Y-131100000D01*
G37*
X68215000Y-132650000D02*
X63715000Y-132650000D01*
X63715000Y-131800000D01*
X68215000Y-131800000D01*
X68215000Y-132650000D01*
G36*
X68215000Y-132650000D02*
G01*
X63715000Y-132650000D01*
X63715000Y-131800000D01*
X68215000Y-131800000D01*
X68215000Y-132650000D01*
G37*
X65665000Y-137725000D02*
X64865000Y-137725000D01*
X64865000Y-135025000D01*
X65665000Y-135025000D01*
X65665000Y-137725000D01*
G36*
X65665000Y-137725000D02*
G01*
X64865000Y-137725000D01*
X64865000Y-135025000D01*
X65665000Y-135025000D01*
X65665000Y-137725000D01*
G37*
X66865000Y-137725000D02*
X66065000Y-137725000D01*
X66065000Y-135025000D01*
X66865000Y-135025000D01*
X66865000Y-137725000D01*
G36*
X66865000Y-137725000D02*
G01*
X66065000Y-137725000D01*
X66065000Y-135025000D01*
X66865000Y-135025000D01*
X66865000Y-137725000D01*
G37*
X68065000Y-137725000D02*
X67265000Y-137725000D01*
X67265000Y-135025000D01*
X68065000Y-135025000D01*
X68065000Y-137725000D01*
G36*
X68065000Y-137725000D02*
G01*
X67265000Y-137725000D01*
X67265000Y-135025000D01*
X68065000Y-135025000D01*
X68065000Y-137725000D01*
G37*
%TO.C,Q6*%
X100595908Y-102064235D02*
X96095908Y-102064235D01*
X96095908Y-101214235D01*
X100595908Y-101214235D01*
X100595908Y-102064235D01*
G36*
X100595908Y-102064235D02*
G01*
X96095908Y-102064235D01*
X96095908Y-101214235D01*
X100595908Y-101214235D01*
X100595908Y-102064235D01*
G37*
X100595908Y-107464235D02*
X96095908Y-107464235D01*
X96095908Y-106364235D01*
X100595908Y-106364235D01*
X100595908Y-107464235D01*
G36*
X100595908Y-107464235D02*
G01*
X96095908Y-107464235D01*
X96095908Y-106364235D01*
X100595908Y-106364235D01*
X100595908Y-107464235D01*
G37*
X100595908Y-109014235D02*
X96095908Y-109014235D01*
X96095908Y-108164235D01*
X100595908Y-108164235D01*
X100595908Y-109014235D01*
G36*
X100595908Y-109014235D02*
G01*
X96095908Y-109014235D01*
X96095908Y-108164235D01*
X100595908Y-108164235D01*
X100595908Y-109014235D01*
G37*
X97045908Y-114089235D02*
X96245908Y-114089235D01*
X96245908Y-111389235D01*
X97045908Y-111389235D01*
X97045908Y-114089235D01*
G36*
X97045908Y-114089235D02*
G01*
X96245908Y-114089235D01*
X96245908Y-111389235D01*
X97045908Y-111389235D01*
X97045908Y-114089235D01*
G37*
X100595908Y-103864235D02*
X96595908Y-103864235D01*
X96595908Y-102764235D01*
X100595908Y-102764235D01*
X100595908Y-103864235D01*
G36*
X100595908Y-103864235D02*
G01*
X96595908Y-103864235D01*
X96595908Y-102764235D01*
X100595908Y-102764235D01*
X100595908Y-103864235D01*
G37*
X100595908Y-105664235D02*
X96595908Y-105664235D01*
X96595908Y-104564235D01*
X100595908Y-104564235D01*
X100595908Y-105664235D01*
G36*
X100595908Y-105664235D02*
G01*
X96595908Y-105664235D01*
X96595908Y-104564235D01*
X100595908Y-104564235D01*
X100595908Y-105664235D01*
G37*
X98245908Y-114089235D02*
X97445908Y-114089235D01*
X97445908Y-111389235D01*
X98245908Y-111389235D01*
X98245908Y-114089235D01*
G36*
X98245908Y-114089235D02*
G01*
X97445908Y-114089235D01*
X97445908Y-111389235D01*
X98245908Y-111389235D01*
X98245908Y-114089235D01*
G37*
X99445908Y-114089235D02*
X98645908Y-114089235D01*
X98645908Y-111389235D01*
X99445908Y-111389235D01*
X99445908Y-114089235D01*
G36*
X99445908Y-114089235D02*
G01*
X98645908Y-114089235D01*
X98645908Y-111389235D01*
X99445908Y-111389235D01*
X99445908Y-114089235D01*
G37*
X100645908Y-114089235D02*
X99845908Y-114089235D01*
X99845908Y-111389235D01*
X100645908Y-111389235D01*
X100645908Y-114089235D01*
G36*
X100645908Y-114089235D02*
G01*
X99845908Y-114089235D01*
X99845908Y-111389235D01*
X100645908Y-111389235D01*
X100645908Y-114089235D01*
G37*
X101845908Y-114089235D02*
X101045908Y-114089235D01*
X101045908Y-111389235D01*
X101845908Y-111389235D01*
X101845908Y-114089235D01*
G36*
X101845908Y-114089235D02*
G01*
X101045908Y-114089235D01*
X101045908Y-111389235D01*
X101845908Y-111389235D01*
X101845908Y-114089235D01*
G37*
X105595908Y-102064235D02*
X101095908Y-102064235D01*
X101095908Y-101214235D01*
X105595908Y-101214235D01*
X105595908Y-102064235D01*
G36*
X105595908Y-102064235D02*
G01*
X101095908Y-102064235D01*
X101095908Y-101214235D01*
X105595908Y-101214235D01*
X105595908Y-102064235D01*
G37*
X105095908Y-103864235D02*
X101095908Y-103864235D01*
X101095908Y-102764235D01*
X105095908Y-102764235D01*
X105095908Y-103864235D01*
G36*
X105095908Y-103864235D02*
G01*
X101095908Y-103864235D01*
X101095908Y-102764235D01*
X105095908Y-102764235D01*
X105095908Y-103864235D01*
G37*
X105095908Y-105664235D02*
X101095908Y-105664235D01*
X101095908Y-104564235D01*
X105095908Y-104564235D01*
X105095908Y-105664235D01*
G36*
X105095908Y-105664235D02*
G01*
X101095908Y-105664235D01*
X101095908Y-104564235D01*
X105095908Y-104564235D01*
X105095908Y-105664235D01*
G37*
X105595908Y-107464235D02*
X101095908Y-107464235D01*
X101095908Y-106364235D01*
X105595908Y-106364235D01*
X105595908Y-107464235D01*
G36*
X105595908Y-107464235D02*
G01*
X101095908Y-107464235D01*
X101095908Y-106364235D01*
X105595908Y-106364235D01*
X105595908Y-107464235D01*
G37*
X105595908Y-109014235D02*
X101095908Y-109014235D01*
X101095908Y-108164235D01*
X105595908Y-108164235D01*
X105595908Y-109014235D01*
G36*
X105595908Y-109014235D02*
G01*
X101095908Y-109014235D01*
X101095908Y-108164235D01*
X105595908Y-108164235D01*
X105595908Y-109014235D01*
G37*
X103045908Y-114089235D02*
X102245908Y-114089235D01*
X102245908Y-111389235D01*
X103045908Y-111389235D01*
X103045908Y-114089235D01*
G36*
X103045908Y-114089235D02*
G01*
X102245908Y-114089235D01*
X102245908Y-111389235D01*
X103045908Y-111389235D01*
X103045908Y-114089235D01*
G37*
X104245908Y-114089235D02*
X103445908Y-114089235D01*
X103445908Y-111389235D01*
X104245908Y-111389235D01*
X104245908Y-114089235D01*
G36*
X104245908Y-114089235D02*
G01*
X103445908Y-114089235D01*
X103445908Y-111389235D01*
X104245908Y-111389235D01*
X104245908Y-114089235D01*
G37*
X105445908Y-114089235D02*
X104645908Y-114089235D01*
X104645908Y-111389235D01*
X105445908Y-111389235D01*
X105445908Y-114089235D01*
G36*
X105445908Y-114089235D02*
G01*
X104645908Y-114089235D01*
X104645908Y-111389235D01*
X105445908Y-111389235D01*
X105445908Y-114089235D01*
G37*
%TO.C,Q19*%
X136728929Y-125111832D02*
X132228929Y-125111832D01*
X132228929Y-124261832D01*
X136728929Y-124261832D01*
X136728929Y-125111832D01*
G36*
X136728929Y-125111832D02*
G01*
X132228929Y-125111832D01*
X132228929Y-124261832D01*
X136728929Y-124261832D01*
X136728929Y-125111832D01*
G37*
X136728929Y-130511832D02*
X132228929Y-130511832D01*
X132228929Y-129411832D01*
X136728929Y-129411832D01*
X136728929Y-130511832D01*
G36*
X136728929Y-130511832D02*
G01*
X132228929Y-130511832D01*
X132228929Y-129411832D01*
X136728929Y-129411832D01*
X136728929Y-130511832D01*
G37*
X136728929Y-132061832D02*
X132228929Y-132061832D01*
X132228929Y-131211832D01*
X136728929Y-131211832D01*
X136728929Y-132061832D01*
G36*
X136728929Y-132061832D02*
G01*
X132228929Y-132061832D01*
X132228929Y-131211832D01*
X136728929Y-131211832D01*
X136728929Y-132061832D01*
G37*
X133178929Y-137136832D02*
X132378929Y-137136832D01*
X132378929Y-134436832D01*
X133178929Y-134436832D01*
X133178929Y-137136832D01*
G36*
X133178929Y-137136832D02*
G01*
X132378929Y-137136832D01*
X132378929Y-134436832D01*
X133178929Y-134436832D01*
X133178929Y-137136832D01*
G37*
X136728929Y-126911832D02*
X132728929Y-126911832D01*
X132728929Y-125811832D01*
X136728929Y-125811832D01*
X136728929Y-126911832D01*
G36*
X136728929Y-126911832D02*
G01*
X132728929Y-126911832D01*
X132728929Y-125811832D01*
X136728929Y-125811832D01*
X136728929Y-126911832D01*
G37*
X136728929Y-128711832D02*
X132728929Y-128711832D01*
X132728929Y-127611832D01*
X136728929Y-127611832D01*
X136728929Y-128711832D01*
G36*
X136728929Y-128711832D02*
G01*
X132728929Y-128711832D01*
X132728929Y-127611832D01*
X136728929Y-127611832D01*
X136728929Y-128711832D01*
G37*
X134378929Y-137136832D02*
X133578929Y-137136832D01*
X133578929Y-134436832D01*
X134378929Y-134436832D01*
X134378929Y-137136832D01*
G36*
X134378929Y-137136832D02*
G01*
X133578929Y-137136832D01*
X133578929Y-134436832D01*
X134378929Y-134436832D01*
X134378929Y-137136832D01*
G37*
X135578929Y-137136832D02*
X134778929Y-137136832D01*
X134778929Y-134436832D01*
X135578929Y-134436832D01*
X135578929Y-137136832D01*
G36*
X135578929Y-137136832D02*
G01*
X134778929Y-137136832D01*
X134778929Y-134436832D01*
X135578929Y-134436832D01*
X135578929Y-137136832D01*
G37*
X136778929Y-137136832D02*
X135978929Y-137136832D01*
X135978929Y-134436832D01*
X136778929Y-134436832D01*
X136778929Y-137136832D01*
G36*
X136778929Y-137136832D02*
G01*
X135978929Y-137136832D01*
X135978929Y-134436832D01*
X136778929Y-134436832D01*
X136778929Y-137136832D01*
G37*
X137978929Y-137136832D02*
X137178929Y-137136832D01*
X137178929Y-134436832D01*
X137978929Y-134436832D01*
X137978929Y-137136832D01*
G36*
X137978929Y-137136832D02*
G01*
X137178929Y-137136832D01*
X137178929Y-134436832D01*
X137978929Y-134436832D01*
X137978929Y-137136832D01*
G37*
X141728929Y-125111832D02*
X137228929Y-125111832D01*
X137228929Y-124261832D01*
X141728929Y-124261832D01*
X141728929Y-125111832D01*
G36*
X141728929Y-125111832D02*
G01*
X137228929Y-125111832D01*
X137228929Y-124261832D01*
X141728929Y-124261832D01*
X141728929Y-125111832D01*
G37*
X141228929Y-126911832D02*
X137228929Y-126911832D01*
X137228929Y-125811832D01*
X141228929Y-125811832D01*
X141228929Y-126911832D01*
G36*
X141228929Y-126911832D02*
G01*
X137228929Y-126911832D01*
X137228929Y-125811832D01*
X141228929Y-125811832D01*
X141228929Y-126911832D01*
G37*
X141228929Y-128711832D02*
X137228929Y-128711832D01*
X137228929Y-127611832D01*
X141228929Y-127611832D01*
X141228929Y-128711832D01*
G36*
X141228929Y-128711832D02*
G01*
X137228929Y-128711832D01*
X137228929Y-127611832D01*
X141228929Y-127611832D01*
X141228929Y-128711832D01*
G37*
X141728929Y-130511832D02*
X137228929Y-130511832D01*
X137228929Y-129411832D01*
X141728929Y-129411832D01*
X141728929Y-130511832D01*
G36*
X141728929Y-130511832D02*
G01*
X137228929Y-130511832D01*
X137228929Y-129411832D01*
X141728929Y-129411832D01*
X141728929Y-130511832D01*
G37*
X141728929Y-132061832D02*
X137228929Y-132061832D01*
X137228929Y-131211832D01*
X141728929Y-131211832D01*
X141728929Y-132061832D01*
G36*
X141728929Y-132061832D02*
G01*
X137228929Y-132061832D01*
X137228929Y-131211832D01*
X141728929Y-131211832D01*
X141728929Y-132061832D01*
G37*
X139178929Y-137136832D02*
X138378929Y-137136832D01*
X138378929Y-134436832D01*
X139178929Y-134436832D01*
X139178929Y-137136832D01*
G36*
X139178929Y-137136832D02*
G01*
X138378929Y-137136832D01*
X138378929Y-134436832D01*
X139178929Y-134436832D01*
X139178929Y-137136832D01*
G37*
X140378929Y-137136832D02*
X139578929Y-137136832D01*
X139578929Y-134436832D01*
X140378929Y-134436832D01*
X140378929Y-137136832D01*
G36*
X140378929Y-137136832D02*
G01*
X139578929Y-137136832D01*
X139578929Y-134436832D01*
X140378929Y-134436832D01*
X140378929Y-137136832D01*
G37*
X141578929Y-137136832D02*
X140778929Y-137136832D01*
X140778929Y-134436832D01*
X141578929Y-134436832D01*
X141578929Y-137136832D01*
G36*
X141578929Y-137136832D02*
G01*
X140778929Y-137136832D01*
X140778929Y-134436832D01*
X141578929Y-134436832D01*
X141578929Y-137136832D01*
G37*
%TO.C,Q14*%
X63715000Y-102000000D02*
X59215000Y-102000000D01*
X59215000Y-101150000D01*
X63715000Y-101150000D01*
X63715000Y-102000000D01*
G36*
X63715000Y-102000000D02*
G01*
X59215000Y-102000000D01*
X59215000Y-101150000D01*
X63715000Y-101150000D01*
X63715000Y-102000000D01*
G37*
X63715000Y-107400000D02*
X59215000Y-107400000D01*
X59215000Y-106300000D01*
X63715000Y-106300000D01*
X63715000Y-107400000D01*
G36*
X63715000Y-107400000D02*
G01*
X59215000Y-107400000D01*
X59215000Y-106300000D01*
X63715000Y-106300000D01*
X63715000Y-107400000D01*
G37*
X63715000Y-108950000D02*
X59215000Y-108950000D01*
X59215000Y-108100000D01*
X63715000Y-108100000D01*
X63715000Y-108950000D01*
G36*
X63715000Y-108950000D02*
G01*
X59215000Y-108950000D01*
X59215000Y-108100000D01*
X63715000Y-108100000D01*
X63715000Y-108950000D01*
G37*
X60165000Y-114025000D02*
X59365000Y-114025000D01*
X59365000Y-111325000D01*
X60165000Y-111325000D01*
X60165000Y-114025000D01*
G36*
X60165000Y-114025000D02*
G01*
X59365000Y-114025000D01*
X59365000Y-111325000D01*
X60165000Y-111325000D01*
X60165000Y-114025000D01*
G37*
X63715000Y-103800000D02*
X59715000Y-103800000D01*
X59715000Y-102700000D01*
X63715000Y-102700000D01*
X63715000Y-103800000D01*
G36*
X63715000Y-103800000D02*
G01*
X59715000Y-103800000D01*
X59715000Y-102700000D01*
X63715000Y-102700000D01*
X63715000Y-103800000D01*
G37*
X63715000Y-105600000D02*
X59715000Y-105600000D01*
X59715000Y-104500000D01*
X63715000Y-104500000D01*
X63715000Y-105600000D01*
G36*
X63715000Y-105600000D02*
G01*
X59715000Y-105600000D01*
X59715000Y-104500000D01*
X63715000Y-104500000D01*
X63715000Y-105600000D01*
G37*
X61365000Y-114025000D02*
X60565000Y-114025000D01*
X60565000Y-111325000D01*
X61365000Y-111325000D01*
X61365000Y-114025000D01*
G36*
X61365000Y-114025000D02*
G01*
X60565000Y-114025000D01*
X60565000Y-111325000D01*
X61365000Y-111325000D01*
X61365000Y-114025000D01*
G37*
X62565000Y-114025000D02*
X61765000Y-114025000D01*
X61765000Y-111325000D01*
X62565000Y-111325000D01*
X62565000Y-114025000D01*
G36*
X62565000Y-114025000D02*
G01*
X61765000Y-114025000D01*
X61765000Y-111325000D01*
X62565000Y-111325000D01*
X62565000Y-114025000D01*
G37*
X63765000Y-114025000D02*
X62965000Y-114025000D01*
X62965000Y-111325000D01*
X63765000Y-111325000D01*
X63765000Y-114025000D01*
G36*
X63765000Y-114025000D02*
G01*
X62965000Y-114025000D01*
X62965000Y-111325000D01*
X63765000Y-111325000D01*
X63765000Y-114025000D01*
G37*
X64965000Y-114025000D02*
X64165000Y-114025000D01*
X64165000Y-111325000D01*
X64965000Y-111325000D01*
X64965000Y-114025000D01*
G36*
X64965000Y-114025000D02*
G01*
X64165000Y-114025000D01*
X64165000Y-111325000D01*
X64965000Y-111325000D01*
X64965000Y-114025000D01*
G37*
X68715000Y-102000000D02*
X64215000Y-102000000D01*
X64215000Y-101150000D01*
X68715000Y-101150000D01*
X68715000Y-102000000D01*
G36*
X68715000Y-102000000D02*
G01*
X64215000Y-102000000D01*
X64215000Y-101150000D01*
X68715000Y-101150000D01*
X68715000Y-102000000D01*
G37*
X68215000Y-103800000D02*
X64215000Y-103800000D01*
X64215000Y-102700000D01*
X68215000Y-102700000D01*
X68215000Y-103800000D01*
G36*
X68215000Y-103800000D02*
G01*
X64215000Y-103800000D01*
X64215000Y-102700000D01*
X68215000Y-102700000D01*
X68215000Y-103800000D01*
G37*
X68215000Y-105600000D02*
X64215000Y-105600000D01*
X64215000Y-104500000D01*
X68215000Y-104500000D01*
X68215000Y-105600000D01*
G36*
X68215000Y-105600000D02*
G01*
X64215000Y-105600000D01*
X64215000Y-104500000D01*
X68215000Y-104500000D01*
X68215000Y-105600000D01*
G37*
X68715000Y-107400000D02*
X64215000Y-107400000D01*
X64215000Y-106300000D01*
X68715000Y-106300000D01*
X68715000Y-107400000D01*
G36*
X68715000Y-107400000D02*
G01*
X64215000Y-107400000D01*
X64215000Y-106300000D01*
X68715000Y-106300000D01*
X68715000Y-107400000D01*
G37*
X68715000Y-108950000D02*
X64215000Y-108950000D01*
X64215000Y-108100000D01*
X68715000Y-108100000D01*
X68715000Y-108950000D01*
G36*
X68715000Y-108950000D02*
G01*
X64215000Y-108950000D01*
X64215000Y-108100000D01*
X68715000Y-108100000D01*
X68715000Y-108950000D01*
G37*
X66165000Y-114025000D02*
X65365000Y-114025000D01*
X65365000Y-111325000D01*
X66165000Y-111325000D01*
X66165000Y-114025000D01*
G36*
X66165000Y-114025000D02*
G01*
X65365000Y-114025000D01*
X65365000Y-111325000D01*
X66165000Y-111325000D01*
X66165000Y-114025000D01*
G37*
X67365000Y-114025000D02*
X66565000Y-114025000D01*
X66565000Y-111325000D01*
X67365000Y-111325000D01*
X67365000Y-114025000D01*
G36*
X67365000Y-114025000D02*
G01*
X66565000Y-114025000D01*
X66565000Y-111325000D01*
X67365000Y-111325000D01*
X67365000Y-114025000D01*
G37*
X68565000Y-114025000D02*
X67765000Y-114025000D01*
X67765000Y-111325000D01*
X68565000Y-111325000D01*
X68565000Y-114025000D01*
G36*
X68565000Y-114025000D02*
G01*
X67765000Y-114025000D01*
X67765000Y-111325000D01*
X68565000Y-111325000D01*
X68565000Y-114025000D01*
G37*
%TO.C,Q8*%
X111445908Y-102064235D02*
X106945908Y-102064235D01*
X106945908Y-101214235D01*
X111445908Y-101214235D01*
X111445908Y-102064235D01*
G36*
X111445908Y-102064235D02*
G01*
X106945908Y-102064235D01*
X106945908Y-101214235D01*
X111445908Y-101214235D01*
X111445908Y-102064235D01*
G37*
X111445908Y-107464235D02*
X106945908Y-107464235D01*
X106945908Y-106364235D01*
X111445908Y-106364235D01*
X111445908Y-107464235D01*
G36*
X111445908Y-107464235D02*
G01*
X106945908Y-107464235D01*
X106945908Y-106364235D01*
X111445908Y-106364235D01*
X111445908Y-107464235D01*
G37*
X111445908Y-109014235D02*
X106945908Y-109014235D01*
X106945908Y-108164235D01*
X111445908Y-108164235D01*
X111445908Y-109014235D01*
G36*
X111445908Y-109014235D02*
G01*
X106945908Y-109014235D01*
X106945908Y-108164235D01*
X111445908Y-108164235D01*
X111445908Y-109014235D01*
G37*
X107895908Y-114089235D02*
X107095908Y-114089235D01*
X107095908Y-111389235D01*
X107895908Y-111389235D01*
X107895908Y-114089235D01*
G36*
X107895908Y-114089235D02*
G01*
X107095908Y-114089235D01*
X107095908Y-111389235D01*
X107895908Y-111389235D01*
X107895908Y-114089235D01*
G37*
X111445908Y-103864235D02*
X107445908Y-103864235D01*
X107445908Y-102764235D01*
X111445908Y-102764235D01*
X111445908Y-103864235D01*
G36*
X111445908Y-103864235D02*
G01*
X107445908Y-103864235D01*
X107445908Y-102764235D01*
X111445908Y-102764235D01*
X111445908Y-103864235D01*
G37*
X111445908Y-105664235D02*
X107445908Y-105664235D01*
X107445908Y-104564235D01*
X111445908Y-104564235D01*
X111445908Y-105664235D01*
G36*
X111445908Y-105664235D02*
G01*
X107445908Y-105664235D01*
X107445908Y-104564235D01*
X111445908Y-104564235D01*
X111445908Y-105664235D01*
G37*
X109095908Y-114089235D02*
X108295908Y-114089235D01*
X108295908Y-111389235D01*
X109095908Y-111389235D01*
X109095908Y-114089235D01*
G36*
X109095908Y-114089235D02*
G01*
X108295908Y-114089235D01*
X108295908Y-111389235D01*
X109095908Y-111389235D01*
X109095908Y-114089235D01*
G37*
X110295908Y-114089235D02*
X109495908Y-114089235D01*
X109495908Y-111389235D01*
X110295908Y-111389235D01*
X110295908Y-114089235D01*
G36*
X110295908Y-114089235D02*
G01*
X109495908Y-114089235D01*
X109495908Y-111389235D01*
X110295908Y-111389235D01*
X110295908Y-114089235D01*
G37*
X111495908Y-114089235D02*
X110695908Y-114089235D01*
X110695908Y-111389235D01*
X111495908Y-111389235D01*
X111495908Y-114089235D01*
G36*
X111495908Y-114089235D02*
G01*
X110695908Y-114089235D01*
X110695908Y-111389235D01*
X111495908Y-111389235D01*
X111495908Y-114089235D01*
G37*
X112695908Y-114089235D02*
X111895908Y-114089235D01*
X111895908Y-111389235D01*
X112695908Y-111389235D01*
X112695908Y-114089235D01*
G36*
X112695908Y-114089235D02*
G01*
X111895908Y-114089235D01*
X111895908Y-111389235D01*
X112695908Y-111389235D01*
X112695908Y-114089235D01*
G37*
X116445908Y-102064235D02*
X111945908Y-102064235D01*
X111945908Y-101214235D01*
X116445908Y-101214235D01*
X116445908Y-102064235D01*
G36*
X116445908Y-102064235D02*
G01*
X111945908Y-102064235D01*
X111945908Y-101214235D01*
X116445908Y-101214235D01*
X116445908Y-102064235D01*
G37*
X115945908Y-103864235D02*
X111945908Y-103864235D01*
X111945908Y-102764235D01*
X115945908Y-102764235D01*
X115945908Y-103864235D01*
G36*
X115945908Y-103864235D02*
G01*
X111945908Y-103864235D01*
X111945908Y-102764235D01*
X115945908Y-102764235D01*
X115945908Y-103864235D01*
G37*
X115945908Y-105664235D02*
X111945908Y-105664235D01*
X111945908Y-104564235D01*
X115945908Y-104564235D01*
X115945908Y-105664235D01*
G36*
X115945908Y-105664235D02*
G01*
X111945908Y-105664235D01*
X111945908Y-104564235D01*
X115945908Y-104564235D01*
X115945908Y-105664235D01*
G37*
X116445908Y-107464235D02*
X111945908Y-107464235D01*
X111945908Y-106364235D01*
X116445908Y-106364235D01*
X116445908Y-107464235D01*
G36*
X116445908Y-107464235D02*
G01*
X111945908Y-107464235D01*
X111945908Y-106364235D01*
X116445908Y-106364235D01*
X116445908Y-107464235D01*
G37*
X116445908Y-109014235D02*
X111945908Y-109014235D01*
X111945908Y-108164235D01*
X116445908Y-108164235D01*
X116445908Y-109014235D01*
G36*
X116445908Y-109014235D02*
G01*
X111945908Y-109014235D01*
X111945908Y-108164235D01*
X116445908Y-108164235D01*
X116445908Y-109014235D01*
G37*
X113895908Y-114089235D02*
X113095908Y-114089235D01*
X113095908Y-111389235D01*
X113895908Y-111389235D01*
X113895908Y-114089235D01*
G36*
X113895908Y-114089235D02*
G01*
X113095908Y-114089235D01*
X113095908Y-111389235D01*
X113895908Y-111389235D01*
X113895908Y-114089235D01*
G37*
X115095908Y-114089235D02*
X114295908Y-114089235D01*
X114295908Y-111389235D01*
X115095908Y-111389235D01*
X115095908Y-114089235D01*
G36*
X115095908Y-114089235D02*
G01*
X114295908Y-114089235D01*
X114295908Y-111389235D01*
X115095908Y-111389235D01*
X115095908Y-114089235D01*
G37*
X116295908Y-114089235D02*
X115495908Y-114089235D01*
X115495908Y-111389235D01*
X116295908Y-111389235D01*
X116295908Y-114089235D01*
G36*
X116295908Y-114089235D02*
G01*
X115495908Y-114089235D01*
X115495908Y-111389235D01*
X116295908Y-111389235D01*
X116295908Y-114089235D01*
G37*
%TO.C,Q18*%
X137028929Y-101711832D02*
X132528929Y-101711832D01*
X132528929Y-100861832D01*
X137028929Y-100861832D01*
X137028929Y-101711832D01*
G36*
X137028929Y-101711832D02*
G01*
X132528929Y-101711832D01*
X132528929Y-100861832D01*
X137028929Y-100861832D01*
X137028929Y-101711832D01*
G37*
X137028929Y-107111832D02*
X132528929Y-107111832D01*
X132528929Y-106011832D01*
X137028929Y-106011832D01*
X137028929Y-107111832D01*
G36*
X137028929Y-107111832D02*
G01*
X132528929Y-107111832D01*
X132528929Y-106011832D01*
X137028929Y-106011832D01*
X137028929Y-107111832D01*
G37*
X137028929Y-108661832D02*
X132528929Y-108661832D01*
X132528929Y-107811832D01*
X137028929Y-107811832D01*
X137028929Y-108661832D01*
G36*
X137028929Y-108661832D02*
G01*
X132528929Y-108661832D01*
X132528929Y-107811832D01*
X137028929Y-107811832D01*
X137028929Y-108661832D01*
G37*
X133478929Y-113736832D02*
X132678929Y-113736832D01*
X132678929Y-111036832D01*
X133478929Y-111036832D01*
X133478929Y-113736832D01*
G36*
X133478929Y-113736832D02*
G01*
X132678929Y-113736832D01*
X132678929Y-111036832D01*
X133478929Y-111036832D01*
X133478929Y-113736832D01*
G37*
X137028929Y-103511832D02*
X133028929Y-103511832D01*
X133028929Y-102411832D01*
X137028929Y-102411832D01*
X137028929Y-103511832D01*
G36*
X137028929Y-103511832D02*
G01*
X133028929Y-103511832D01*
X133028929Y-102411832D01*
X137028929Y-102411832D01*
X137028929Y-103511832D01*
G37*
X137028929Y-105311832D02*
X133028929Y-105311832D01*
X133028929Y-104211832D01*
X137028929Y-104211832D01*
X137028929Y-105311832D01*
G36*
X137028929Y-105311832D02*
G01*
X133028929Y-105311832D01*
X133028929Y-104211832D01*
X137028929Y-104211832D01*
X137028929Y-105311832D01*
G37*
X134678929Y-113736832D02*
X133878929Y-113736832D01*
X133878929Y-111036832D01*
X134678929Y-111036832D01*
X134678929Y-113736832D01*
G36*
X134678929Y-113736832D02*
G01*
X133878929Y-113736832D01*
X133878929Y-111036832D01*
X134678929Y-111036832D01*
X134678929Y-113736832D01*
G37*
X135878929Y-113736832D02*
X135078929Y-113736832D01*
X135078929Y-111036832D01*
X135878929Y-111036832D01*
X135878929Y-113736832D01*
G36*
X135878929Y-113736832D02*
G01*
X135078929Y-113736832D01*
X135078929Y-111036832D01*
X135878929Y-111036832D01*
X135878929Y-113736832D01*
G37*
X137078929Y-113736832D02*
X136278929Y-113736832D01*
X136278929Y-111036832D01*
X137078929Y-111036832D01*
X137078929Y-113736832D01*
G36*
X137078929Y-113736832D02*
G01*
X136278929Y-113736832D01*
X136278929Y-111036832D01*
X137078929Y-111036832D01*
X137078929Y-113736832D01*
G37*
X138278929Y-113736832D02*
X137478929Y-113736832D01*
X137478929Y-111036832D01*
X138278929Y-111036832D01*
X138278929Y-113736832D01*
G36*
X138278929Y-113736832D02*
G01*
X137478929Y-113736832D01*
X137478929Y-111036832D01*
X138278929Y-111036832D01*
X138278929Y-113736832D01*
G37*
X142028929Y-101711832D02*
X137528929Y-101711832D01*
X137528929Y-100861832D01*
X142028929Y-100861832D01*
X142028929Y-101711832D01*
G36*
X142028929Y-101711832D02*
G01*
X137528929Y-101711832D01*
X137528929Y-100861832D01*
X142028929Y-100861832D01*
X142028929Y-101711832D01*
G37*
X141528929Y-103511832D02*
X137528929Y-103511832D01*
X137528929Y-102411832D01*
X141528929Y-102411832D01*
X141528929Y-103511832D01*
G36*
X141528929Y-103511832D02*
G01*
X137528929Y-103511832D01*
X137528929Y-102411832D01*
X141528929Y-102411832D01*
X141528929Y-103511832D01*
G37*
X141528929Y-105311832D02*
X137528929Y-105311832D01*
X137528929Y-104211832D01*
X141528929Y-104211832D01*
X141528929Y-105311832D01*
G36*
X141528929Y-105311832D02*
G01*
X137528929Y-105311832D01*
X137528929Y-104211832D01*
X141528929Y-104211832D01*
X141528929Y-105311832D01*
G37*
X142028929Y-107111832D02*
X137528929Y-107111832D01*
X137528929Y-106011832D01*
X142028929Y-106011832D01*
X142028929Y-107111832D01*
G36*
X142028929Y-107111832D02*
G01*
X137528929Y-107111832D01*
X137528929Y-106011832D01*
X142028929Y-106011832D01*
X142028929Y-107111832D01*
G37*
X142028929Y-108661832D02*
X137528929Y-108661832D01*
X137528929Y-107811832D01*
X142028929Y-107811832D01*
X142028929Y-108661832D01*
G36*
X142028929Y-108661832D02*
G01*
X137528929Y-108661832D01*
X137528929Y-107811832D01*
X142028929Y-107811832D01*
X142028929Y-108661832D01*
G37*
X139478929Y-113736832D02*
X138678929Y-113736832D01*
X138678929Y-111036832D01*
X139478929Y-111036832D01*
X139478929Y-113736832D01*
G36*
X139478929Y-113736832D02*
G01*
X138678929Y-113736832D01*
X138678929Y-111036832D01*
X139478929Y-111036832D01*
X139478929Y-113736832D01*
G37*
X140678929Y-113736832D02*
X139878929Y-113736832D01*
X139878929Y-111036832D01*
X140678929Y-111036832D01*
X140678929Y-113736832D01*
G36*
X140678929Y-113736832D02*
G01*
X139878929Y-113736832D01*
X139878929Y-111036832D01*
X140678929Y-111036832D01*
X140678929Y-113736832D01*
G37*
X141878929Y-113736832D02*
X141078929Y-113736832D01*
X141078929Y-111036832D01*
X141878929Y-111036832D01*
X141878929Y-113736832D01*
G36*
X141878929Y-113736832D02*
G01*
X141078929Y-113736832D01*
X141078929Y-111036832D01*
X141878929Y-111036832D01*
X141878929Y-113736832D01*
G37*
%TD*%
D11*
%TO.C,R12*%
X93475000Y-43670000D03*
X91825000Y-43670000D03*
%TD*%
D12*
%TO.C,R60*%
X157215000Y-129900000D03*
X157215000Y-131095000D03*
%TD*%
D13*
%TO.C,C50*%
X75954277Y-62590000D03*
X75954277Y-60865000D03*
%TD*%
D14*
%TO.C,C75*%
X147028929Y-94186832D03*
X147028929Y-91061832D03*
%TD*%
D15*
%TO.C,R59*%
X123765000Y-139075000D03*
X123765000Y-137250000D03*
%TD*%
%TO.C,R58*%
X123815000Y-142375000D03*
X123815000Y-140550000D03*
%TD*%
D16*
%TO.C,U11*%
X155915000Y-138140000D03*
X155915000Y-138790000D03*
X155915000Y-139450000D03*
X155915000Y-140100000D03*
X158615000Y-140100000D03*
X158615000Y-139450000D03*
X158615000Y-138790000D03*
X158615000Y-138140000D03*
%TD*%
D14*
%TO.C,C62*%
X75915000Y-94575000D03*
X75915000Y-91450000D03*
%TD*%
D17*
%TO.C,C17*%
X115100000Y-142900000D03*
X116825000Y-142900000D03*
%TD*%
D18*
%TO.C,C65*%
X63957017Y-94500668D03*
X63957017Y-92425668D03*
%TD*%
%TO.C,C77*%
X134028929Y-94124332D03*
X134028929Y-92049332D03*
%TD*%
%TO.C,C81*%
X144028929Y-94199332D03*
X144028929Y-92124332D03*
%TD*%
D13*
%TO.C,C48*%
X77464277Y-62597500D03*
X77464277Y-60872500D03*
%TD*%
D18*
%TO.C,C66*%
X66457017Y-94500668D03*
X66457017Y-92425668D03*
%TD*%
D19*
%TO.C,U12*%
X119950000Y-150237500D03*
X121850000Y-150237500D03*
X120900000Y-147962500D03*
%TD*%
D20*
%TO.C,C11*%
X125106250Y-69000000D03*
X123381250Y-69000000D03*
%TD*%
D18*
%TO.C,C78*%
X136528929Y-94124332D03*
X136528929Y-92049332D03*
%TD*%
D16*
%TO.C,U13*%
X82865000Y-138150000D03*
X82865000Y-138800000D03*
X82865000Y-139460000D03*
X82865000Y-140110000D03*
X85565000Y-140110000D03*
X85565000Y-139460000D03*
X85565000Y-138800000D03*
X85565000Y-138150000D03*
%TD*%
D21*
%TO.C,C55*%
X54449277Y-51872500D03*
X54449277Y-53597500D03*
%TD*%
D22*
%TO.C,R39*%
X120665000Y-136045000D03*
X120665000Y-134850000D03*
%TD*%
D23*
%TO.C,R19*%
X80885000Y-64240000D03*
X82710000Y-64240000D03*
%TD*%
D24*
%TO.C,U14*%
X116762500Y-144550000D03*
X116762500Y-145500000D03*
X116762500Y-146450000D03*
X119037500Y-146450000D03*
X119037500Y-144550000D03*
%TD*%
D25*
%TO.C,R27*%
X87645908Y-123564235D03*
X89645908Y-123564235D03*
%TD*%
D26*
%TO.C,L1*%
X169500000Y-67600000D03*
X166525000Y-67600000D03*
%TD*%
D15*
%TO.C,R53*%
X80145000Y-43715000D03*
X80145000Y-41890000D03*
%TD*%
D27*
%TO.C,C82*%
X117615000Y-139800000D03*
X117615000Y-140935000D03*
%TD*%
D21*
%TO.C,C54*%
X55954277Y-51870000D03*
X55954277Y-53595000D03*
%TD*%
D28*
%TO.C,R51*%
X83485000Y-41890000D03*
X81660000Y-41890000D03*
%TD*%
D12*
%TO.C,R65*%
X84115000Y-130205000D03*
X84115000Y-131400000D03*
%TD*%
D21*
%TO.C,C12*%
X117600000Y-70175000D03*
X117600000Y-71900000D03*
%TD*%
D15*
%TO.C,R69*%
X87365000Y-139237500D03*
X87365000Y-137412500D03*
%TD*%
D28*
%TO.C,R22*%
X88605000Y-37730000D03*
X86780000Y-37730000D03*
%TD*%
D23*
%TO.C,R17*%
X77872500Y-67275000D03*
X79697500Y-67275000D03*
%TD*%
D18*
%TO.C,C73*%
X104945908Y-94414235D03*
X104945908Y-92339235D03*
%TD*%
D17*
%TO.C,C31*%
X120875000Y-144600000D03*
X122600000Y-144600000D03*
%TD*%
D14*
%TO.C,C69*%
X114445908Y-94414235D03*
X114445908Y-91289235D03*
%TD*%
D17*
%TO.C,C14*%
X79800000Y-61500000D03*
X81525000Y-61500000D03*
%TD*%
D29*
%TO.C,Q1*%
X86734277Y-51110000D03*
X84834277Y-51110000D03*
X85784277Y-52985000D03*
%TD*%
D17*
%TO.C,C7*%
X120900000Y-146200000D03*
X122625000Y-146200000D03*
%TD*%
D28*
%TO.C,R15*%
X86590000Y-67970000D03*
X84765000Y-67970000D03*
%TD*%
D13*
%TO.C,C29*%
X55434277Y-64245000D03*
X55434277Y-62520000D03*
%TD*%
D17*
%TO.C,C19*%
X50264277Y-51980000D03*
X51989277Y-51980000D03*
%TD*%
D21*
%TO.C,C13*%
X83100000Y-60400000D03*
X83100000Y-62125000D03*
%TD*%
D25*
%TO.C,R26*%
X50757017Y-123713168D03*
X52757017Y-123713168D03*
%TD*%
D23*
%TO.C,R16*%
X81930000Y-70460000D03*
X83755000Y-70460000D03*
%TD*%
D22*
%TO.C,R62*%
X157165000Y-135295000D03*
X157165000Y-134100000D03*
%TD*%
D15*
%TO.C,R5*%
X169800000Y-76725000D03*
X169800000Y-74900000D03*
%TD*%
D23*
%TO.C,R3*%
X165630000Y-82330000D03*
X167455000Y-82330000D03*
%TD*%
D17*
%TO.C,C46*%
X69324277Y-71520000D03*
X71049277Y-71520000D03*
%TD*%
D14*
%TO.C,C76*%
X151028929Y-94186832D03*
X151028929Y-91061832D03*
%TD*%
D27*
%TO.C,C86*%
X81315000Y-139500000D03*
X81315000Y-140635000D03*
%TD*%
D20*
%TO.C,C10*%
X164500000Y-73250000D03*
X162775000Y-73250000D03*
%TD*%
D17*
%TO.C,C18*%
X50264277Y-50480000D03*
X51989277Y-50480000D03*
%TD*%
D22*
%TO.C,R67*%
X84115000Y-135445000D03*
X84115000Y-134250000D03*
%TD*%
D28*
%TO.C,R10*%
X79040000Y-74650000D03*
X77215000Y-74650000D03*
%TD*%
D18*
%TO.C,C79*%
X139028929Y-94199332D03*
X139028929Y-92124332D03*
%TD*%
D17*
%TO.C,C47*%
X69321777Y-73015000D03*
X71046777Y-73015000D03*
%TD*%
D13*
%TO.C,C49*%
X74444277Y-62590000D03*
X74444277Y-60865000D03*
%TD*%
D30*
%TO.C,Q2*%
X93824277Y-46557500D03*
X95724277Y-46557500D03*
X94774277Y-44682500D03*
%TD*%
D20*
%TO.C,C8*%
X121725000Y-151900000D03*
X120000000Y-151900000D03*
%TD*%
%TO.C,C15*%
X166200000Y-70100000D03*
X164475000Y-70100000D03*
%TD*%
D21*
%TO.C,C30*%
X55434277Y-59195000D03*
X55434277Y-60920000D03*
%TD*%
D23*
%TO.C,R18*%
X79365000Y-65760000D03*
X81190000Y-65760000D03*
%TD*%
D14*
%TO.C,C61*%
X72207017Y-94550668D03*
X72207017Y-91425668D03*
%TD*%
D16*
%TO.C,U5*%
X119265000Y-138420000D03*
X119265000Y-139070000D03*
X119265000Y-139730000D03*
X119265000Y-140380000D03*
X121965000Y-140380000D03*
X121965000Y-139730000D03*
X121965000Y-139070000D03*
X121965000Y-138420000D03*
%TD*%
D14*
%TO.C,C68*%
X110445908Y-94414235D03*
X110445908Y-91289235D03*
%TD*%
D27*
%TO.C,C84*%
X154115000Y-139482500D03*
X154115000Y-140617500D03*
%TD*%
D31*
%TO.C,C87*%
X84565000Y-132800000D03*
X83430000Y-132800000D03*
%TD*%
D24*
%TO.C,U4*%
X80125000Y-58050000D03*
X80125000Y-59950000D03*
X82400000Y-59000000D03*
%TD*%
D31*
%TO.C,C85*%
X157765000Y-132450000D03*
X156630000Y-132450000D03*
%TD*%
D18*
%TO.C,C67*%
X68957017Y-94500668D03*
X68957017Y-92425668D03*
%TD*%
D28*
%TO.C,R6*%
X169725000Y-70100000D03*
X167900000Y-70100000D03*
%TD*%
D18*
%TO.C,C72*%
X102445908Y-94414235D03*
X102445908Y-92339235D03*
%TD*%
D25*
%TO.C,R28*%
X124208929Y-123206832D03*
X126208929Y-123206832D03*
%TD*%
D32*
%TO.C,C40*%
X123568929Y-126036832D03*
X126693929Y-126036832D03*
%TD*%
D23*
%TO.C,R21*%
X97221777Y-47220000D03*
X99046777Y-47220000D03*
%TD*%
D12*
%TO.C,R29*%
X120665000Y-130700000D03*
X120665000Y-131895000D03*
%TD*%
D18*
%TO.C,C71*%
X99945908Y-94414235D03*
X99945908Y-92339235D03*
%TD*%
D32*
%TO.C,C57*%
X49632017Y-126313168D03*
X52757017Y-126313168D03*
%TD*%
D18*
%TO.C,C64*%
X61457017Y-94500668D03*
X61457017Y-92425668D03*
%TD*%
D33*
%TO.C,R8*%
X65836777Y-46470000D03*
X67031777Y-46470000D03*
%TD*%
D28*
%TO.C,R14*%
X88550000Y-70420000D03*
X86725000Y-70420000D03*
%TD*%
D34*
%TO.C,U1*%
X57259277Y-55970000D03*
X57259277Y-56470000D03*
X57259277Y-56970000D03*
X57259277Y-57470000D03*
X57259277Y-57970000D03*
X57259277Y-58470000D03*
X57259277Y-58970000D03*
X57259277Y-59470000D03*
X57259277Y-59970000D03*
X57259277Y-60470000D03*
X57259277Y-60970000D03*
X57259277Y-61470000D03*
X57259277Y-61970000D03*
X57259277Y-62470000D03*
X57259277Y-62970000D03*
X57259277Y-63470000D03*
X57259277Y-63970000D03*
X57259277Y-64470000D03*
X57259277Y-64970000D03*
X57259277Y-65470000D03*
X57259277Y-65970000D03*
X57259277Y-66470000D03*
X57259277Y-66970000D03*
X57259277Y-67470000D03*
X57259277Y-67970000D03*
D35*
X58934277Y-69645000D03*
X59434277Y-69645000D03*
X59934277Y-69645000D03*
X60434277Y-69645000D03*
X60934277Y-69645000D03*
X61434277Y-69645000D03*
X61934277Y-69645000D03*
X62434277Y-69645000D03*
X62934277Y-69645000D03*
X63434277Y-69645000D03*
X63934277Y-69645000D03*
X64434277Y-69645000D03*
X64934277Y-69645000D03*
X65434277Y-69645000D03*
X65934277Y-69645000D03*
X66434277Y-69645000D03*
X66934277Y-69645000D03*
X67434277Y-69645000D03*
X67934277Y-69645000D03*
X68434277Y-69645000D03*
X68934277Y-69645000D03*
X69434277Y-69645000D03*
X69934277Y-69645000D03*
X70434277Y-69645000D03*
X70934277Y-69645000D03*
D34*
X72609277Y-67970000D03*
X72609277Y-67470000D03*
X72609277Y-66970000D03*
X72609277Y-66470000D03*
X72609277Y-65970000D03*
X72609277Y-65470000D03*
X72609277Y-64970000D03*
X72609277Y-64470000D03*
X72609277Y-63970000D03*
X72609277Y-63470000D03*
X72609277Y-62970000D03*
X72609277Y-62470000D03*
X72609277Y-61970000D03*
X72609277Y-61470000D03*
X72609277Y-60970000D03*
X72609277Y-60470000D03*
X72609277Y-59970000D03*
X72609277Y-59470000D03*
X72609277Y-58970000D03*
X72609277Y-58470000D03*
X72609277Y-57970000D03*
X72609277Y-57470000D03*
X72609277Y-56970000D03*
X72609277Y-56470000D03*
X72609277Y-55970000D03*
D35*
X70934277Y-54295000D03*
X70434277Y-54295000D03*
X69934277Y-54295000D03*
X69434277Y-54295000D03*
X68934277Y-54295000D03*
X68434277Y-54295000D03*
X67934277Y-54295000D03*
X67434277Y-54295000D03*
X66934277Y-54295000D03*
X66434277Y-54295000D03*
X65934277Y-54295000D03*
X65434277Y-54295000D03*
X64934277Y-54295000D03*
X64434277Y-54295000D03*
X63934277Y-54295000D03*
X63434277Y-54295000D03*
X62934277Y-54295000D03*
X62434277Y-54295000D03*
X61934277Y-54295000D03*
X61434277Y-54295000D03*
X60934277Y-54295000D03*
X60434277Y-54295000D03*
X59934277Y-54295000D03*
X59434277Y-54295000D03*
X58934277Y-54295000D03*
%TD*%
D28*
%TO.C,R9*%
X75135000Y-74630000D03*
X73310000Y-74630000D03*
%TD*%
D32*
%TO.C,C39*%
X87120908Y-126764235D03*
X90245908Y-126764235D03*
%TD*%
D36*
%TO.C,J11*%
X82605000Y-39975000D03*
X81805000Y-39975000D03*
D37*
X80655000Y-39975000D03*
X79655000Y-39975000D03*
X79155000Y-39975000D03*
X78155000Y-39975000D03*
D36*
X77005000Y-39975000D03*
X76205000Y-39975000D03*
X76205000Y-39975000D03*
X77005000Y-39975000D03*
D37*
X77655000Y-39975000D03*
X78655000Y-39975000D03*
X80155000Y-39975000D03*
X81155000Y-39975000D03*
D36*
X81805000Y-39975000D03*
X82605000Y-39975000D03*
D38*
X83725000Y-39400000D03*
D39*
X83725000Y-35220000D03*
D38*
X75085000Y-39400000D03*
D39*
X75085000Y-35220000D03*
%TD*%
D18*
%TO.C,C70*%
X97415908Y-94414235D03*
X97415908Y-92339235D03*
%TD*%
D23*
%TO.C,R52*%
X74880000Y-41870000D03*
X76705000Y-41870000D03*
%TD*%
D17*
%TO.C,C24*%
X69324277Y-74540000D03*
X71049277Y-74540000D03*
%TD*%
D18*
%TO.C,C80*%
X141528929Y-94199332D03*
X141528929Y-92124332D03*
%TD*%
D15*
%TO.C,R68*%
X87365000Y-142562500D03*
X87365000Y-140737500D03*
%TD*%
D40*
%TO.C,U8*%
X85645000Y-45020000D03*
X86915000Y-45020000D03*
X88185000Y-45020000D03*
X89455000Y-45020000D03*
X89455000Y-40070000D03*
X88185000Y-40070000D03*
X86915000Y-40070000D03*
X85645000Y-40070000D03*
%TD*%
D31*
%TO.C,C83*%
X121115000Y-133400000D03*
X119980000Y-133400000D03*
%TD*%
D41*
%TO.C,U2*%
X164330000Y-78577500D03*
X166030000Y-78577500D03*
X164330000Y-77217500D03*
X166030000Y-77217500D03*
D42*
X163275000Y-80460000D03*
X164545000Y-80460000D03*
X165815000Y-80460000D03*
X167085000Y-80460000D03*
X167085000Y-75335000D03*
X165815000Y-75335000D03*
X164545000Y-75335000D03*
X163275000Y-75335000D03*
%TD*%
D18*
%TO.C,C74*%
X107445908Y-94414235D03*
X107445908Y-92339235D03*
%TD*%
D13*
%TO.C,C16*%
X167100000Y-73400000D03*
X167100000Y-71675000D03*
%TD*%
D15*
%TO.C,R4*%
X169800000Y-73425000D03*
X169800000Y-71600000D03*
%TD*%
%TO.C,R54*%
X78225000Y-43675000D03*
X78225000Y-41850000D03*
%TD*%
D17*
%TO.C,C20*%
X50276777Y-53525000D03*
X52001777Y-53525000D03*
%TD*%
D18*
%TO.C,C63*%
X58977017Y-94438168D03*
X58977017Y-92363168D03*
%TD*%
D15*
%TO.C,R64*%
X160465000Y-138800000D03*
X160465000Y-136975000D03*
%TD*%
D43*
%TO.C,U3*%
X121637500Y-69950000D03*
X121637500Y-69000000D03*
X121637500Y-68050000D03*
X119362500Y-68050000D03*
X119362500Y-69950000D03*
%TD*%
D15*
%TO.C,R63*%
X160465000Y-142150000D03*
X160465000Y-140325000D03*
%TD*%
D21*
%TO.C,C56*%
X57459277Y-51882500D03*
X57459277Y-53607500D03*
%TD*%
M02*
