%TF.GenerationSoftware,KiCad,Pcbnew,9.0.7*%
%TF.CreationDate,2026-01-12T17:17:52+03:00*%
%TF.ProjectId,Motor_Driver_Shell_Eco,4d6f746f-725f-4447-9269-7665725f5368,rev?*%
%TF.SameCoordinates,Original*%
%TF.FileFunction,Soldermask,Bot*%
%TF.FilePolarity,Negative*%
%FSLAX46Y46*%
G04 Gerber Fmt 4.6, Leading zero omitted, Abs format (unit mm)*
G04 Created by KiCad (PCBNEW 9.0.7) date 2026-01-12 17:17:52*
%MOMM*%
%LPD*%
G01*
G04 APERTURE LIST*
G04 Aperture macros list*
%AMRoundRect*
0 Rectangle with rounded corners*
0 $1 Rounding radius*
0 $2 $3 $4 $5 $6 $7 $8 $9 X,Y pos of 4 corners*
0 Add a 4 corners polygon primitive as box body*
4,1,4,$2,$3,$4,$5,$6,$7,$8,$9,$2,$3,0*
0 Add four circle primitives for the rounded corners*
1,1,$1+$1,$2,$3*
1,1,$1+$1,$4,$5*
1,1,$1+$1,$6,$7*
1,1,$1+$1,$8,$9*
0 Add four rect primitives between the rounded corners*
20,1,$1+$1,$2,$3,$4,$5,0*
20,1,$1+$1,$4,$5,$6,$7,0*
20,1,$1+$1,$6,$7,$8,$9,0*
20,1,$1+$1,$8,$9,$2,$3,0*%
G04 Aperture macros list end*
%ADD10C,0.000000*%
%ADD11R,1.800000X1.800000*%
%ADD12C,1.800000*%
%ADD13C,1.600000*%
%ADD14R,1.350000X1.350000*%
%ADD15C,1.350000*%
%ADD16C,2.000000*%
%ADD17R,2.000000X2.000000*%
%ADD18RoundRect,0.250000X0.650000X-0.650000X0.650000X0.650000X-0.650000X0.650000X-0.650000X-0.650000X0*%
%ADD19C,0.800000*%
%ADD20C,7.400000*%
%ADD21RoundRect,0.250000X0.750000X-0.750000X0.750000X0.750000X-0.750000X0.750000X-0.750000X-0.750000X0*%
%ADD22RoundRect,0.250000X0.550000X-0.550000X0.550000X0.550000X-0.550000X0.550000X-0.550000X-0.550000X0*%
%ADD23C,1.500000*%
%ADD24R,1.000000X1.000000*%
%ADD25C,1.000000*%
%ADD26C,0.650000*%
%ADD27O,2.100000X1.000000*%
%ADD28O,1.800000X1.000000*%
%ADD29RoundRect,0.250000X0.475000X-0.337500X0.475000X0.337500X-0.475000X0.337500X-0.475000X-0.337500X0*%
%ADD30RoundRect,0.237500X-0.237500X0.300000X-0.237500X-0.300000X0.237500X-0.300000X0.237500X0.300000X0*%
%ADD31RoundRect,0.250000X1.100000X-0.412500X1.100000X0.412500X-1.100000X0.412500X-1.100000X-0.412500X0*%
%ADD32RoundRect,0.250000X1.000000X0.650000X-1.000000X0.650000X-1.000000X-0.650000X1.000000X-0.650000X0*%
%ADD33RoundRect,0.249999X-1.425001X0.450001X-1.425001X-0.450001X1.425001X-0.450001X1.425001X0.450001X0*%
%ADD34RoundRect,0.237500X-0.300000X-0.237500X0.300000X-0.237500X0.300000X0.237500X-0.300000X0.237500X0*%
%ADD35RoundRect,0.237500X0.237500X-0.300000X0.237500X0.300000X-0.237500X0.300000X-0.237500X-0.300000X0*%
%ADD36RoundRect,0.249999X1.425001X-0.450001X1.425001X0.450001X-1.425001X0.450001X-1.425001X-0.450001X0*%
G04 APERTURE END LIST*
D10*
G36*
X205015000Y-22115000D02*
G01*
X205015000Y-123115000D01*
X201215000Y-126915000D01*
X192065000Y-126915000D01*
X192065000Y-113265000D01*
X199690000Y-105640000D01*
X199690000Y-76890000D01*
X192015000Y-76890000D01*
X191265000Y-76140000D01*
X191265000Y-73840000D01*
X191340000Y-71415000D01*
X191665000Y-65790000D01*
X198840000Y-59653697D01*
X198840000Y-27415000D01*
X197490000Y-26065000D01*
X193415000Y-26065000D01*
X193415000Y-20640000D01*
X203540000Y-20640000D01*
X205015000Y-22115000D01*
G37*
G36*
X186050000Y-66050000D02*
G01*
X182510000Y-69590000D01*
X172790000Y-69590000D01*
X170325036Y-67125036D01*
X168650000Y-64187663D01*
X168650000Y-35950000D01*
X169000000Y-35600000D01*
X186050000Y-35600000D01*
X186050000Y-66050000D01*
G37*
G36*
X186865000Y-116885000D02*
G01*
X183325000Y-120425000D01*
X173605000Y-120425000D01*
X171140036Y-117960036D01*
X169465000Y-115022663D01*
X169465000Y-86785000D01*
X169815000Y-86435000D01*
X186865000Y-86435000D01*
X186865000Y-116885000D01*
G37*
G36*
X187362288Y-167620000D02*
G01*
X183822288Y-171160000D01*
X174102288Y-171160000D01*
X171637324Y-168695036D01*
X169962288Y-165757663D01*
X169962288Y-137520000D01*
X170312288Y-137170000D01*
X187362288Y-137170000D01*
X187362288Y-167620000D01*
G37*
D11*
%TO.C,D3*%
X100955000Y-126525000D03*
D12*
X103495000Y-126525000D03*
%TD*%
D13*
%TO.C,C6*%
X122225000Y-75150000D03*
X124725000Y-75150000D03*
%TD*%
%TO.C,C39*%
X170625000Y-119862500D03*
X170625000Y-114862500D03*
%TD*%
D14*
%TO.C,J7*%
X95925000Y-109425000D03*
D15*
X95925000Y-111425000D03*
%TD*%
D13*
%TO.C,C40*%
X169850000Y-68987500D03*
X169850000Y-63987500D03*
%TD*%
D14*
%TO.C,J4*%
X136075000Y-142050000D03*
D15*
X134075000Y-142050000D03*
%TD*%
D16*
%TO.C,S1*%
X97400000Y-44845000D03*
X97400000Y-47385000D03*
X97400000Y-49925000D03*
X110862000Y-49975800D03*
X110862000Y-47435800D03*
X110862000Y-44895800D03*
X106702800Y-35701000D03*
X104162800Y-35701000D03*
X101622800Y-35701000D03*
%TD*%
D13*
%TO.C,R12*%
X106150000Y-129575000D03*
X98530000Y-129575000D03*
%TD*%
%TO.C,C88*%
X158900000Y-118975000D03*
X158900000Y-113975000D03*
%TD*%
D16*
%TO.C,C8*%
X93000000Y-63500000D03*
X93000000Y-53500000D03*
%TD*%
D13*
%TO.C,C90*%
X157225000Y-69975000D03*
X157225000Y-64975000D03*
%TD*%
D14*
%TO.C,J9*%
X98575000Y-167300000D03*
D15*
X98575000Y-169300000D03*
X98575000Y-171300000D03*
%TD*%
D13*
%TO.C,C4*%
X129125000Y-74850000D03*
X131625000Y-74850000D03*
%TD*%
D17*
%TO.C,BZ1*%
X120175000Y-124175000D03*
D16*
X127775000Y-124175000D03*
%TD*%
D18*
%TO.C,D1*%
X114350000Y-51255000D03*
D12*
X114350000Y-41095000D03*
%TD*%
D16*
%TO.C,C28*%
X140067500Y-166910000D03*
X135067500Y-166910000D03*
%TD*%
%TO.C,C1*%
X144175000Y-57725000D03*
X144175000Y-50225000D03*
%TD*%
D19*
%TO.C,H1*%
X92162779Y-32675000D03*
X92975558Y-30712779D03*
X92975558Y-34637221D03*
X94937779Y-29900000D03*
D20*
X94937779Y-32675000D03*
D19*
X94937779Y-35450000D03*
X96900000Y-30712779D03*
X96900000Y-34637221D03*
X97712779Y-32675000D03*
%TD*%
D14*
%TO.C,J10*%
X95925000Y-115475000D03*
D15*
X95925000Y-117475000D03*
%TD*%
D21*
%TO.C,C7*%
X98975000Y-71500000D03*
D16*
X98975000Y-66500000D03*
%TD*%
D22*
%TO.C,D2*%
X131900000Y-131872500D03*
D13*
X131900000Y-124252500D03*
%TD*%
D16*
%TO.C,SW1*%
X141567500Y-175810000D03*
X135067500Y-175810000D03*
X141567500Y-171310000D03*
X135067500Y-171310000D03*
%TD*%
D14*
%TO.C,J8*%
X98725000Y-174625000D03*
D15*
X98725000Y-176625000D03*
X98725000Y-178625000D03*
%TD*%
D23*
%TO.C,Y1*%
X130025000Y-160750000D03*
X130025000Y-155850000D03*
%TD*%
D13*
%TO.C,C5*%
X136150000Y-75025000D03*
X138650000Y-75025000D03*
%TD*%
D19*
%TO.C,H7*%
X181187779Y-67462779D03*
X179225558Y-66650000D03*
X183150000Y-66650000D03*
X178412779Y-64687779D03*
D20*
X181187779Y-64687779D03*
D19*
X183962779Y-64687779D03*
X179225558Y-62725558D03*
X183150000Y-62725558D03*
X181187779Y-61912779D03*
%TD*%
%TO.C,H2*%
X113075000Y-32375000D03*
X113887779Y-30412779D03*
X113887779Y-34337221D03*
X115850000Y-29600000D03*
D20*
X115850000Y-32375000D03*
D19*
X115850000Y-35150000D03*
X117812221Y-30412779D03*
X117812221Y-34337221D03*
X118625000Y-32375000D03*
%TD*%
D13*
%TO.C,C89*%
X159525000Y-169750000D03*
X159525000Y-164750000D03*
%TD*%
%TO.C,R1*%
X119000000Y-56520000D03*
X119000000Y-41280000D03*
%TD*%
D16*
%TO.C,SW2*%
X127967500Y-180960000D03*
X121467500Y-180960000D03*
X127967500Y-176460000D03*
X121467500Y-176460000D03*
%TD*%
D24*
%TO.C,JP1*%
X106360000Y-126825000D03*
D25*
X107630000Y-126825000D03*
X108900000Y-126825000D03*
%TD*%
D13*
%TO.C,R20*%
X134790000Y-131872500D03*
X142410000Y-131872500D03*
%TD*%
D19*
%TO.C,H4*%
X181962779Y-118337779D03*
X180000558Y-117525000D03*
X183925000Y-117525000D03*
X179187779Y-115562779D03*
D20*
X181962779Y-115562779D03*
D19*
X184737779Y-115562779D03*
X180000558Y-113600558D03*
X183925000Y-113600558D03*
X181962779Y-112787779D03*
%TD*%
D14*
%TO.C,J2*%
X95325000Y-150650000D03*
D15*
X95325000Y-148650000D03*
X95325000Y-146650000D03*
X95325000Y-144650000D03*
X95325000Y-142650000D03*
%TD*%
D16*
%TO.C,C2*%
X129925000Y-49200000D03*
X129925000Y-41700000D03*
%TD*%
D13*
%TO.C,R2*%
X106150000Y-59045000D03*
X106150000Y-69205000D03*
%TD*%
D14*
%TO.C,J12*%
X95925000Y-121525000D03*
D15*
X95925000Y-123525000D03*
%TD*%
D14*
%TO.C,J13*%
X95925000Y-127575000D03*
D15*
X95925000Y-129575000D03*
%TD*%
D14*
%TO.C,J3*%
X98675000Y-181800000D03*
D15*
X98675000Y-183800000D03*
%TD*%
D24*
%TO.C,J6*%
X95550000Y-133510000D03*
D25*
X95550000Y-134780000D03*
X95550000Y-136050000D03*
X95550000Y-137320000D03*
X95550000Y-138590000D03*
X95550000Y-139860000D03*
%TD*%
D16*
%TO.C,C3*%
X130000000Y-66475000D03*
X130000000Y-58975000D03*
%TD*%
D13*
%TO.C,R7*%
X131517500Y-171360000D03*
X131517500Y-178980000D03*
%TD*%
D19*
%TO.C,H6*%
X182437779Y-169087779D03*
X180475558Y-168275000D03*
X184400000Y-168275000D03*
X179662779Y-166312779D03*
D20*
X182437779Y-166312779D03*
D19*
X185212779Y-166312779D03*
X180475558Y-164350558D03*
X184400000Y-164350558D03*
X182437779Y-163537779D03*
%TD*%
D13*
%TO.C,R11*%
X139175000Y-134865000D03*
X139175000Y-142485000D03*
%TD*%
%TO.C,R50*%
X127525000Y-139550000D03*
X127525000Y-147170000D03*
%TD*%
D26*
%TO.C,J11*%
X97140000Y-157460000D03*
X97140000Y-163240000D03*
D27*
X97640000Y-156030000D03*
D28*
X93460000Y-156030000D03*
D27*
X97640000Y-164670000D03*
D28*
X93460000Y-164670000D03*
%TD*%
D24*
%TO.C,J5*%
X107695000Y-172950000D03*
D25*
X106425000Y-172950000D03*
X105155000Y-172950000D03*
X103885000Y-172950000D03*
%TD*%
D13*
%TO.C,C57*%
X171100000Y-170612500D03*
X171100000Y-165612500D03*
%TD*%
D29*
%TO.C,C65*%
X168510000Y-135475000D03*
X168510000Y-133400000D03*
%TD*%
%TO.C,C66*%
X165500000Y-135475000D03*
X165500000Y-133400000D03*
%TD*%
%TO.C,C78*%
X170270000Y-33850000D03*
X170270000Y-31775000D03*
%TD*%
D30*
%TO.C,C47*%
X124355000Y-155070000D03*
X124355000Y-156795000D03*
%TD*%
D31*
%TO.C,C62*%
X177280000Y-135437500D03*
X177280000Y-132312500D03*
%TD*%
D32*
%TO.C,D4*%
X166500000Y-118825000D03*
X162500000Y-118825000D03*
%TD*%
D33*
%TO.C,R70*%
X197075000Y-75150000D03*
X197075000Y-81250000D03*
%TD*%
D29*
%TO.C,C81*%
X161240000Y-33850000D03*
X161240000Y-31775000D03*
%TD*%
D31*
%TO.C,C76*%
X176030000Y-33812500D03*
X176030000Y-30687500D03*
%TD*%
D29*
%TO.C,C58*%
X170625000Y-118400000D03*
X170625000Y-116325000D03*
%TD*%
%TO.C,C80*%
X164250000Y-33850000D03*
X164250000Y-31775000D03*
%TD*%
%TO.C,C79*%
X167260000Y-33850000D03*
X167260000Y-31775000D03*
%TD*%
D30*
%TO.C,C24*%
X125875000Y-155075000D03*
X125875000Y-156800000D03*
%TD*%
D33*
%TO.C,R61*%
X192250000Y-24300000D03*
X192250000Y-30400000D03*
%TD*%
D31*
%TO.C,C61*%
X181530000Y-135437500D03*
X181530000Y-132312500D03*
%TD*%
D29*
%TO.C,C70*%
X174055000Y-84725000D03*
X174055000Y-82650000D03*
%TD*%
%TO.C,C59*%
X169850000Y-67575000D03*
X169850000Y-65500000D03*
%TD*%
%TO.C,C63*%
X174530000Y-135475000D03*
X174530000Y-133400000D03*
%TD*%
D34*
%TO.C,C19*%
X128217500Y-164360000D03*
X129942500Y-164360000D03*
%TD*%
D29*
%TO.C,C60*%
X171100000Y-169150000D03*
X171100000Y-167075000D03*
%TD*%
%TO.C,C73*%
X165025000Y-84725000D03*
X165025000Y-82650000D03*
%TD*%
D31*
%TO.C,C69*%
X176805000Y-84687500D03*
X176805000Y-81562500D03*
%TD*%
D29*
%TO.C,C74*%
X162015000Y-84725000D03*
X162015000Y-82650000D03*
%TD*%
%TO.C,C72*%
X168035000Y-84725000D03*
X168035000Y-82650000D03*
%TD*%
D33*
%TO.C,R66*%
X193500000Y-125925000D03*
X193500000Y-132025000D03*
%TD*%
D35*
%TO.C,C22*%
X125425000Y-161325000D03*
X125425000Y-159600000D03*
%TD*%
D34*
%TO.C,C18*%
X128217500Y-165860000D03*
X129942500Y-165860000D03*
%TD*%
D35*
%TO.C,C21*%
X126925000Y-161325000D03*
X126925000Y-159600000D03*
%TD*%
D32*
%TO.C,D7*%
X166975000Y-169575000D03*
X162975000Y-169575000D03*
%TD*%
D29*
%TO.C,C64*%
X171520000Y-135475000D03*
X171520000Y-133400000D03*
%TD*%
D30*
%TO.C,C46*%
X122885000Y-155070000D03*
X122885000Y-156795000D03*
%TD*%
D31*
%TO.C,C68*%
X181055000Y-84687500D03*
X181055000Y-81562500D03*
%TD*%
%TO.C,C75*%
X180280000Y-33812500D03*
X180280000Y-30687500D03*
%TD*%
D36*
%TO.C,R71*%
X197500000Y-132025000D03*
X197500000Y-125925000D03*
%TD*%
D33*
%TO.C,R38*%
X193025000Y-75175000D03*
X193025000Y-81275000D03*
%TD*%
D29*
%TO.C,C67*%
X162490000Y-135475000D03*
X162490000Y-133400000D03*
%TD*%
%TO.C,C71*%
X171045000Y-84725000D03*
X171045000Y-82650000D03*
%TD*%
%TO.C,C77*%
X173280000Y-33850000D03*
X173280000Y-31775000D03*
%TD*%
D14*
%TO.C,J1*%
X120167500Y-173110000D03*
D15*
X122167500Y-173110000D03*
X124167500Y-173110000D03*
X126167500Y-173110000D03*
%TD*%
D33*
%TO.C,R72*%
X196400000Y-24300000D03*
X196400000Y-30400000D03*
%TD*%
D34*
%TO.C,C20*%
X128217500Y-162860000D03*
X129942500Y-162860000D03*
%TD*%
D32*
%TO.C,D5*%
X165725000Y-67950000D03*
X161725000Y-67950000D03*
%TD*%
D35*
%TO.C,C23*%
X123925000Y-161325000D03*
X123925000Y-159600000D03*
%TD*%
M02*
