%TF.GenerationSoftware,KiCad,Pcbnew,9.0.7*%
%TF.CreationDate,2026-01-12T17:17:52+03:00*%
%TF.ProjectId,Motor_Driver_Shell_Eco,4d6f746f-725f-4447-9269-7665725f5368,rev?*%
%TF.SameCoordinates,Original*%
%TF.FileFunction,Soldermask,Top*%
%TF.FilePolarity,Negative*%
%FSLAX46Y46*%
G04 Gerber Fmt 4.6, Leading zero omitted, Abs format (unit mm)*
G04 Created by KiCad (PCBNEW 9.0.7) date 2026-01-12 17:17:52*
%MOMM*%
%LPD*%
G01*
G04 APERTURE LIST*
G04 Aperture macros list*
%AMRoundRect*
0 Rectangle with rounded corners*
0 $1 Rounding radius*
0 $2 $3 $4 $5 $6 $7 $8 $9 X,Y pos of 4 corners*
0 Add a 4 corners polygon primitive as box body*
4,1,4,$2,$3,$4,$5,$6,$7,$8,$9,$2,$3,0*
0 Add four circle primitives for the rounded corners*
1,1,$1+$1,$2,$3*
1,1,$1+$1,$4,$5*
1,1,$1+$1,$6,$7*
1,1,$1+$1,$8,$9*
0 Add four rect primitives between the rounded corners*
20,1,$1+$1,$2,$3,$4,$5,0*
20,1,$1+$1,$4,$5,$6,$7,0*
20,1,$1+$1,$6,$7,$8,$9,0*
20,1,$1+$1,$8,$9,$2,$3,0*%
G04 Aperture macros list end*
%ADD10C,0.000000*%
%ADD11C,0.010000*%
%ADD12RoundRect,0.250000X1.100000X-0.412500X1.100000X0.412500X-1.100000X0.412500X-1.100000X-0.412500X0*%
%ADD13RoundRect,0.237500X-0.250000X-0.237500X0.250000X-0.237500X0.250000X0.237500X-0.250000X0.237500X0*%
%ADD14RoundRect,0.237500X0.300000X0.237500X-0.300000X0.237500X-0.300000X-0.237500X0.300000X-0.237500X0*%
%ADD15R,1.800000X1.800000*%
%ADD16C,1.800000*%
%ADD17C,1.600000*%
%ADD18RoundRect,0.237500X-0.237500X0.300000X-0.237500X-0.300000X0.237500X-0.300000X0.237500X0.300000X0*%
%ADD19RoundRect,0.237500X-0.300000X-0.237500X0.300000X-0.237500X0.300000X0.237500X-0.300000X0.237500X0*%
%ADD20RoundRect,0.237500X0.237500X-0.250000X0.237500X0.250000X-0.237500X0.250000X-0.237500X-0.250000X0*%
%ADD21R,1.350000X1.350000*%
%ADD22C,1.350000*%
%ADD23RoundRect,0.102000X1.400000X0.450000X-1.400000X0.450000X-1.400000X-0.450000X1.400000X-0.450000X0*%
%ADD24RoundRect,0.237500X0.237500X-0.300000X0.237500X0.300000X-0.237500X0.300000X-0.237500X-0.300000X0*%
%ADD25RoundRect,0.237500X0.250000X0.237500X-0.250000X0.237500X-0.250000X-0.237500X0.250000X-0.237500X0*%
%ADD26RoundRect,0.250000X-0.350000X-0.450000X0.350000X-0.450000X0.350000X0.450000X-0.350000X0.450000X0*%
%ADD27C,2.000000*%
%ADD28RoundRect,0.155000X0.155000X-0.212500X0.155000X0.212500X-0.155000X0.212500X-0.155000X-0.212500X0*%
%ADD29RoundRect,0.237500X-0.237500X0.250000X-0.237500X-0.250000X0.237500X-0.250000X0.237500X0.250000X0*%
%ADD30RoundRect,0.250000X-0.337500X-0.475000X0.337500X-0.475000X0.337500X0.475000X-0.337500X0.475000X0*%
%ADD31RoundRect,0.075000X0.725000X0.075000X-0.725000X0.075000X-0.725000X-0.075000X0.725000X-0.075000X0*%
%ADD32RoundRect,0.075000X0.075000X0.725000X-0.075000X0.725000X-0.075000X-0.725000X0.075000X-0.725000X0*%
%ADD33RoundRect,0.160000X-0.160000X0.197500X-0.160000X-0.197500X0.160000X-0.197500X0.160000X0.197500X0*%
%ADD34R,2.000000X2.000000*%
%ADD35RoundRect,0.250000X0.650000X-0.650000X0.650000X0.650000X-0.650000X0.650000X-0.650000X-0.650000X0*%
%ADD36RoundRect,0.150000X0.825000X0.150000X-0.825000X0.150000X-0.825000X-0.150000X0.825000X-0.150000X0*%
%ADD37RoundRect,0.100000X-0.100000X0.680000X-0.100000X-0.680000X0.100000X-0.680000X0.100000X0.680000X0*%
%ADD38RoundRect,0.250000X0.450000X-0.350000X0.450000X0.350000X-0.450000X0.350000X-0.450000X-0.350000X0*%
%ADD39RoundRect,0.150000X-0.512500X-0.150000X0.512500X-0.150000X0.512500X0.150000X-0.512500X0.150000X0*%
%ADD40RoundRect,0.150000X0.150000X-0.587500X0.150000X0.587500X-0.150000X0.587500X-0.150000X-0.587500X0*%
%ADD41C,0.800000*%
%ADD42C,7.400000*%
%ADD43RoundRect,0.150000X-0.825000X-0.150000X0.825000X-0.150000X0.825000X0.150000X-0.825000X0.150000X0*%
%ADD44RoundRect,0.250000X0.750000X-0.750000X0.750000X0.750000X-0.750000X0.750000X-0.750000X-0.750000X0*%
%ADD45RoundRect,0.250000X0.550000X-0.550000X0.550000X0.550000X-0.550000X0.550000X-0.550000X-0.550000X0*%
%ADD46RoundRect,0.160000X0.160000X-0.197500X0.160000X0.197500X-0.160000X0.197500X-0.160000X-0.197500X0*%
%ADD47RoundRect,0.150000X0.150000X-0.512500X0.150000X0.512500X-0.150000X0.512500X-0.150000X-0.512500X0*%
%ADD48C,1.500000*%
%ADD49R,1.000000X1.000000*%
%ADD50C,1.000000*%
%ADD51RoundRect,0.250001X-0.462499X-1.074999X0.462499X-1.074999X0.462499X1.074999X-0.462499X1.074999X0*%
%ADD52R,3.400000X2.710000*%
%ADD53RoundRect,0.150000X-0.150000X0.737500X-0.150000X-0.737500X0.150000X-0.737500X0.150000X0.737500X0*%
%ADD54RoundRect,0.150000X0.512500X0.150000X-0.512500X0.150000X-0.512500X-0.150000X0.512500X-0.150000X0*%
%ADD55C,0.650000*%
%ADD56RoundRect,0.150000X-0.425000X0.150000X-0.425000X-0.150000X0.425000X-0.150000X0.425000X0.150000X0*%
%ADD57RoundRect,0.075000X-0.500000X0.075000X-0.500000X-0.075000X0.500000X-0.075000X0.500000X0.075000X0*%
%ADD58O,2.100000X1.000000*%
%ADD59O,1.800000X1.000000*%
G04 APERTURE END LIST*
D10*
G36*
X99420000Y-28745000D02*
G01*
X99420000Y-50570000D01*
X97820000Y-52170000D01*
X90645000Y-52170000D01*
X90120000Y-51645000D01*
X90120000Y-28345000D01*
X99020000Y-28345000D01*
X99420000Y-28745000D01*
G37*
D11*
%TO.C,Q16*%
X180800000Y-150875000D02*
X183550000Y-150875000D01*
X183550000Y-150375000D01*
X187250000Y-150375000D01*
X187250000Y-160075000D01*
X183550000Y-160075000D01*
X183550000Y-159575000D01*
X180800000Y-159575000D01*
X180800000Y-160275000D01*
X179250000Y-160275000D01*
X179250000Y-150175000D01*
X180800000Y-150175000D01*
X180800000Y-150875000D01*
G36*
X180800000Y-150875000D02*
G01*
X183550000Y-150875000D01*
X183550000Y-150375000D01*
X187250000Y-150375000D01*
X187250000Y-160075000D01*
X183550000Y-160075000D01*
X183550000Y-159575000D01*
X180800000Y-159575000D01*
X180800000Y-160275000D01*
X179250000Y-160275000D01*
X179250000Y-150175000D01*
X180800000Y-150175000D01*
X180800000Y-150875000D01*
G37*
%TO.C,Q19*%
X179550000Y-49250000D02*
X182300000Y-49250000D01*
X182300000Y-48750000D01*
X186000000Y-48750000D01*
X186000000Y-58450000D01*
X182300000Y-58450000D01*
X182300000Y-57950000D01*
X179550000Y-57950000D01*
X179550000Y-58650000D01*
X178000000Y-58650000D01*
X178000000Y-48550000D01*
X179550000Y-48550000D01*
X179550000Y-49250000D01*
G36*
X179550000Y-49250000D02*
G01*
X182300000Y-49250000D01*
X182300000Y-48750000D01*
X186000000Y-48750000D01*
X186000000Y-58450000D01*
X182300000Y-58450000D01*
X182300000Y-57950000D01*
X179550000Y-57950000D01*
X179550000Y-58650000D01*
X178000000Y-58650000D01*
X178000000Y-48550000D01*
X179550000Y-48550000D01*
X179550000Y-49250000D01*
G37*
%TO.C,Q18*%
X160175000Y-36500000D02*
X162925000Y-36500000D01*
X162925000Y-36000000D01*
X166625000Y-36000000D01*
X166625000Y-45700000D01*
X162925000Y-45700000D01*
X162925000Y-45200000D01*
X160175000Y-45200000D01*
X160175000Y-45900000D01*
X158625000Y-45900000D01*
X158625000Y-35800000D01*
X160175000Y-35800000D01*
X160175000Y-36500000D01*
G36*
X160175000Y-36500000D02*
G01*
X162925000Y-36500000D01*
X162925000Y-36000000D01*
X166625000Y-36000000D01*
X166625000Y-45700000D01*
X162925000Y-45700000D01*
X162925000Y-45200000D01*
X160175000Y-45200000D01*
X160175000Y-45900000D01*
X158625000Y-45900000D01*
X158625000Y-35800000D01*
X160175000Y-35800000D01*
X160175000Y-36500000D01*
G37*
%TO.C,Q7*%
X180325000Y-87375000D02*
X183075000Y-87375000D01*
X183075000Y-86875000D01*
X186775000Y-86875000D01*
X186775000Y-96575000D01*
X183075000Y-96575000D01*
X183075000Y-96075000D01*
X180325000Y-96075000D01*
X180325000Y-96775000D01*
X178775000Y-96775000D01*
X178775000Y-86675000D01*
X180325000Y-86675000D01*
X180325000Y-87375000D01*
G36*
X180325000Y-87375000D02*
G01*
X183075000Y-87375000D01*
X183075000Y-86875000D01*
X186775000Y-86875000D01*
X186775000Y-96575000D01*
X183075000Y-96575000D01*
X183075000Y-96075000D01*
X180325000Y-96075000D01*
X180325000Y-96775000D01*
X178775000Y-96775000D01*
X178775000Y-86675000D01*
X180325000Y-86675000D01*
X180325000Y-87375000D01*
G37*
%TO.C,Q20*%
X160175000Y-49250000D02*
X162925000Y-49250000D01*
X162925000Y-48750000D01*
X166625000Y-48750000D01*
X166625000Y-58450000D01*
X162925000Y-58450000D01*
X162925000Y-57950000D01*
X160175000Y-57950000D01*
X160175000Y-58650000D01*
X158625000Y-58650000D01*
X158625000Y-48550000D01*
X160175000Y-48550000D01*
X160175000Y-49250000D01*
G36*
X160175000Y-49250000D02*
G01*
X162925000Y-49250000D01*
X162925000Y-48750000D01*
X166625000Y-48750000D01*
X166625000Y-58450000D01*
X162925000Y-58450000D01*
X162925000Y-57950000D01*
X160175000Y-57950000D01*
X160175000Y-58650000D01*
X158625000Y-58650000D01*
X158625000Y-48550000D01*
X160175000Y-48550000D01*
X160175000Y-49250000D01*
G37*
%TO.C,Q6*%
X160950000Y-100125000D02*
X163700000Y-100125000D01*
X163700000Y-99625000D01*
X167400000Y-99625000D01*
X167400000Y-109325000D01*
X163700000Y-109325000D01*
X163700000Y-108825000D01*
X160950000Y-108825000D01*
X160950000Y-109525000D01*
X159400000Y-109525000D01*
X159400000Y-99425000D01*
X160950000Y-99425000D01*
X160950000Y-100125000D01*
G36*
X160950000Y-100125000D02*
G01*
X163700000Y-100125000D01*
X163700000Y-99625000D01*
X167400000Y-99625000D01*
X167400000Y-109325000D01*
X163700000Y-109325000D01*
X163700000Y-108825000D01*
X160950000Y-108825000D01*
X160950000Y-109525000D01*
X159400000Y-109525000D01*
X159400000Y-99425000D01*
X160950000Y-99425000D01*
X160950000Y-100125000D01*
G37*
%TO.C,Q21*%
X179550000Y-36500000D02*
X182300000Y-36500000D01*
X182300000Y-36000000D01*
X186000000Y-36000000D01*
X186000000Y-45700000D01*
X182300000Y-45700000D01*
X182300000Y-45200000D01*
X179550000Y-45200000D01*
X179550000Y-45900000D01*
X178000000Y-45900000D01*
X178000000Y-35800000D01*
X179550000Y-35800000D01*
X179550000Y-36500000D01*
G36*
X179550000Y-36500000D02*
G01*
X182300000Y-36500000D01*
X182300000Y-36000000D01*
X186000000Y-36000000D01*
X186000000Y-45700000D01*
X182300000Y-45700000D01*
X182300000Y-45200000D01*
X179550000Y-45200000D01*
X179550000Y-45900000D01*
X178000000Y-45900000D01*
X178000000Y-35800000D01*
X179550000Y-35800000D01*
X179550000Y-36500000D01*
G37*
%TO.C,Q9*%
X180325000Y-100125000D02*
X183075000Y-100125000D01*
X183075000Y-99625000D01*
X186775000Y-99625000D01*
X186775000Y-109325000D01*
X183075000Y-109325000D01*
X183075000Y-108825000D01*
X180325000Y-108825000D01*
X180325000Y-109525000D01*
X178775000Y-109525000D01*
X178775000Y-99425000D01*
X180325000Y-99425000D01*
X180325000Y-100125000D01*
G36*
X180325000Y-100125000D02*
G01*
X183075000Y-100125000D01*
X183075000Y-99625000D01*
X186775000Y-99625000D01*
X186775000Y-109325000D01*
X183075000Y-109325000D01*
X183075000Y-108825000D01*
X180325000Y-108825000D01*
X180325000Y-109525000D01*
X178775000Y-109525000D01*
X178775000Y-99425000D01*
X180325000Y-99425000D01*
X180325000Y-100125000D01*
G37*
%TO.C,Q15*%
X161425000Y-138125000D02*
X164175000Y-138125000D01*
X164175000Y-137625000D01*
X167875000Y-137625000D01*
X167875000Y-147325000D01*
X164175000Y-147325000D01*
X164175000Y-146825000D01*
X161425000Y-146825000D01*
X161425000Y-147525000D01*
X159875000Y-147525000D01*
X159875000Y-137425000D01*
X161425000Y-137425000D01*
X161425000Y-138125000D01*
G36*
X161425000Y-138125000D02*
G01*
X164175000Y-138125000D01*
X164175000Y-137625000D01*
X167875000Y-137625000D01*
X167875000Y-147325000D01*
X164175000Y-147325000D01*
X164175000Y-146825000D01*
X161425000Y-146825000D01*
X161425000Y-147525000D01*
X159875000Y-147525000D01*
X159875000Y-137425000D01*
X161425000Y-137425000D01*
X161425000Y-138125000D01*
G37*
%TO.C,Q8*%
X160950000Y-87375000D02*
X163700000Y-87375000D01*
X163700000Y-86875000D01*
X167400000Y-86875000D01*
X167400000Y-96575000D01*
X163700000Y-96575000D01*
X163700000Y-96075000D01*
X160950000Y-96075000D01*
X160950000Y-96775000D01*
X159400000Y-96775000D01*
X159400000Y-86675000D01*
X160950000Y-86675000D01*
X160950000Y-87375000D01*
G36*
X160950000Y-87375000D02*
G01*
X163700000Y-87375000D01*
X163700000Y-86875000D01*
X167400000Y-86875000D01*
X167400000Y-96575000D01*
X163700000Y-96575000D01*
X163700000Y-96075000D01*
X160950000Y-96075000D01*
X160950000Y-96775000D01*
X159400000Y-96775000D01*
X159400000Y-86675000D01*
X160950000Y-86675000D01*
X160950000Y-87375000D01*
G37*
%TO.C,Q14*%
X161425000Y-150875000D02*
X164175000Y-150875000D01*
X164175000Y-150375000D01*
X167875000Y-150375000D01*
X167875000Y-160075000D01*
X164175000Y-160075000D01*
X164175000Y-159575000D01*
X161425000Y-159575000D01*
X161425000Y-160275000D01*
X159875000Y-160275000D01*
X159875000Y-150175000D01*
X161425000Y-150175000D01*
X161425000Y-150875000D01*
G36*
X161425000Y-150875000D02*
G01*
X164175000Y-150875000D01*
X164175000Y-150375000D01*
X167875000Y-150375000D01*
X167875000Y-160075000D01*
X164175000Y-160075000D01*
X164175000Y-159575000D01*
X161425000Y-159575000D01*
X161425000Y-160275000D01*
X159875000Y-160275000D01*
X159875000Y-150175000D01*
X161425000Y-150175000D01*
X161425000Y-150875000D01*
G37*
%TO.C,Q17*%
X180800000Y-138125000D02*
X183550000Y-138125000D01*
X183550000Y-137625000D01*
X187250000Y-137625000D01*
X187250000Y-147325000D01*
X183550000Y-147325000D01*
X183550000Y-146825000D01*
X180800000Y-146825000D01*
X180800000Y-147525000D01*
X179250000Y-147525000D01*
X179250000Y-137425000D01*
X180800000Y-137425000D01*
X180800000Y-138125000D01*
G36*
X180800000Y-138125000D02*
G01*
X183550000Y-138125000D01*
X183550000Y-137625000D01*
X187250000Y-137625000D01*
X187250000Y-147325000D01*
X183550000Y-147325000D01*
X183550000Y-146825000D01*
X180800000Y-146825000D01*
X180800000Y-147525000D01*
X179250000Y-147525000D01*
X179250000Y-137425000D01*
X180800000Y-137425000D01*
X180800000Y-138125000D01*
G37*
%TD*%
D12*
%TO.C,C9*%
X120740000Y-105232500D03*
X120740000Y-102107500D03*
%TD*%
D13*
%TO.C,R4*%
X123290000Y-108407500D03*
X125115000Y-108407500D03*
%TD*%
D14*
%TO.C,C29*%
X135450000Y-155550000D03*
X133725000Y-155550000D03*
%TD*%
D15*
%TO.C,D3*%
X100955000Y-126525000D03*
D16*
X103495000Y-126525000D03*
%TD*%
D17*
%TO.C,C6*%
X122225000Y-75150000D03*
X124725000Y-75150000D03*
%TD*%
D18*
%TO.C,C54*%
X107967500Y-164385000D03*
X107967500Y-166110000D03*
%TD*%
D19*
%TO.C,C16*%
X123365000Y-109957500D03*
X125090000Y-109957500D03*
%TD*%
D17*
%TO.C,C39*%
X170625000Y-119862500D03*
X170625000Y-114862500D03*
%TD*%
D20*
%TO.C,R22*%
X100950000Y-183612500D03*
X100950000Y-181787500D03*
%TD*%
D21*
%TO.C,J7*%
X95925000Y-109425000D03*
D22*
X95925000Y-111425000D03*
%TD*%
D20*
%TO.C,R15*%
X99725000Y-152575000D03*
X99725000Y-150750000D03*
%TD*%
D23*
%TO.C,Q16*%
X190875000Y-159425000D03*
X190875000Y-158225000D03*
X190875000Y-157025000D03*
X190875000Y-155825000D03*
X190875000Y-154625000D03*
X190875000Y-153425000D03*
X190875000Y-152225000D03*
X190875000Y-151025000D03*
%TD*%
%TO.C,Q19*%
X189625000Y-57800000D03*
X189625000Y-56600000D03*
X189625000Y-55400000D03*
X189625000Y-54200000D03*
X189625000Y-53000000D03*
X189625000Y-51800000D03*
X189625000Y-50600000D03*
X189625000Y-49400000D03*
%TD*%
D17*
%TO.C,C40*%
X169850000Y-68987500D03*
X169850000Y-63987500D03*
%TD*%
D19*
%TO.C,C33*%
X105150000Y-151750000D03*
X106875000Y-151750000D03*
%TD*%
D14*
%TO.C,C12*%
X127675000Y-136200000D03*
X125950000Y-136200000D03*
%TD*%
D24*
%TO.C,C37*%
X127005000Y-170435000D03*
X127005000Y-168710000D03*
%TD*%
D21*
%TO.C,J4*%
X136075000Y-142050000D03*
D22*
X134075000Y-142050000D03*
%TD*%
D25*
%TO.C,R53*%
X101875000Y-159550000D03*
X100050000Y-159550000D03*
%TD*%
D26*
%TO.C,R31*%
X188825000Y-98163779D03*
X190825000Y-98163779D03*
%TD*%
D24*
%TO.C,C26*%
X127525000Y-151400000D03*
X127525000Y-149675000D03*
%TD*%
D20*
%TO.C,R64*%
X182750000Y-24487500D03*
X182750000Y-22662500D03*
%TD*%
D14*
%TO.C,C30*%
X135500000Y-160650000D03*
X133775000Y-160650000D03*
%TD*%
D19*
%TO.C,C10*%
X127000000Y-106657500D03*
X128725000Y-106657500D03*
%TD*%
D27*
%TO.C,S1*%
X97400000Y-44845000D03*
X97400000Y-47385000D03*
X97400000Y-49925000D03*
X110862000Y-49975800D03*
X110862000Y-47435800D03*
X110862000Y-44895800D03*
X106702800Y-35701000D03*
X104162800Y-35701000D03*
X101622800Y-35701000D03*
%TD*%
D26*
%TO.C,R35*%
X188450000Y-59850000D03*
X190450000Y-59850000D03*
%TD*%
D23*
%TO.C,Q18*%
X170250000Y-45050000D03*
X170250000Y-43850000D03*
X170250000Y-42650000D03*
X170250000Y-41450000D03*
X170250000Y-40250000D03*
X170250000Y-39050000D03*
X170250000Y-37850000D03*
X170250000Y-36650000D03*
%TD*%
D26*
%TO.C,R30*%
X169825000Y-110725000D03*
X171825000Y-110725000D03*
%TD*%
%TO.C,R36*%
X169050000Y-59850000D03*
X171050000Y-59850000D03*
%TD*%
D17*
%TO.C,R12*%
X106150000Y-129575000D03*
X98530000Y-129575000D03*
%TD*%
D26*
%TO.C,R55*%
X170300000Y-148775000D03*
X172300000Y-148775000D03*
%TD*%
D17*
%TO.C,C88*%
X158900000Y-118975000D03*
X158900000Y-113975000D03*
%TD*%
D20*
%TO.C,R63*%
X182750000Y-28175000D03*
X182750000Y-26350000D03*
%TD*%
D28*
%TO.C,C82*%
X184525000Y-74360000D03*
X184525000Y-73225000D03*
%TD*%
D24*
%TO.C,C14*%
X120025000Y-139650000D03*
X120025000Y-137925000D03*
%TD*%
D20*
%TO.C,R69*%
X184000000Y-126112500D03*
X184000000Y-124287500D03*
%TD*%
%TO.C,R14*%
X101475000Y-152525000D03*
X101475000Y-150700000D03*
%TD*%
D29*
%TO.C,R3*%
X123365000Y-95632500D03*
X123365000Y-97457500D03*
%TD*%
D27*
%TO.C,C8*%
X93000000Y-63500000D03*
X93000000Y-53500000D03*
%TD*%
D28*
%TO.C,C84*%
X184050000Y-23485000D03*
X184050000Y-22350000D03*
%TD*%
D17*
%TO.C,C90*%
X157225000Y-69975000D03*
X157225000Y-64975000D03*
%TD*%
D30*
%TO.C,C27*%
X130700000Y-147600000D03*
X132775000Y-147600000D03*
%TD*%
D21*
%TO.C,J9*%
X98575000Y-167300000D03*
D22*
X98575000Y-169300000D03*
X98575000Y-171300000D03*
%TD*%
D31*
%TO.C,U1*%
X125575000Y-165150000D03*
X125575000Y-164650000D03*
X125575000Y-164150000D03*
X125575000Y-163650000D03*
X125575000Y-163150000D03*
X125575000Y-162650000D03*
X125575000Y-162150000D03*
X125575000Y-161650000D03*
X125575000Y-161150000D03*
X125575000Y-160650000D03*
X125575000Y-160150000D03*
X125575000Y-159650000D03*
X125575000Y-159150000D03*
X125575000Y-158650000D03*
X125575000Y-158150000D03*
X125575000Y-157650000D03*
X125575000Y-157150000D03*
X125575000Y-156650000D03*
X125575000Y-156150000D03*
X125575000Y-155650000D03*
X125575000Y-155150000D03*
X125575000Y-154650000D03*
X125575000Y-154150000D03*
X125575000Y-153650000D03*
X125575000Y-153150000D03*
D32*
X123900000Y-151475000D03*
X123400000Y-151475000D03*
X122900000Y-151475000D03*
X122400000Y-151475000D03*
X121900000Y-151475000D03*
X121400000Y-151475000D03*
X120900000Y-151475000D03*
X120400000Y-151475000D03*
X119900000Y-151475000D03*
X119400000Y-151475000D03*
X118900000Y-151475000D03*
X118400000Y-151475000D03*
X117900000Y-151475000D03*
X117400000Y-151475000D03*
X116900000Y-151475000D03*
X116400000Y-151475000D03*
X115900000Y-151475000D03*
X115400000Y-151475000D03*
X114900000Y-151475000D03*
X114400000Y-151475000D03*
X113900000Y-151475000D03*
X113400000Y-151475000D03*
X112900000Y-151475000D03*
X112400000Y-151475000D03*
X111900000Y-151475000D03*
D31*
X110225000Y-153150000D03*
X110225000Y-153650000D03*
X110225000Y-154150000D03*
X110225000Y-154650000D03*
X110225000Y-155150000D03*
X110225000Y-155650000D03*
X110225000Y-156150000D03*
X110225000Y-156650000D03*
X110225000Y-157150000D03*
X110225000Y-157650000D03*
X110225000Y-158150000D03*
X110225000Y-158650000D03*
X110225000Y-159150000D03*
X110225000Y-159650000D03*
X110225000Y-160150000D03*
X110225000Y-160650000D03*
X110225000Y-161150000D03*
X110225000Y-161650000D03*
X110225000Y-162150000D03*
X110225000Y-162650000D03*
X110225000Y-163150000D03*
X110225000Y-163650000D03*
X110225000Y-164150000D03*
X110225000Y-164650000D03*
X110225000Y-165150000D03*
D32*
X111900000Y-166825000D03*
X112400000Y-166825000D03*
X112900000Y-166825000D03*
X113400000Y-166825000D03*
X113900000Y-166825000D03*
X114400000Y-166825000D03*
X114900000Y-166825000D03*
X115400000Y-166825000D03*
X115900000Y-166825000D03*
X116400000Y-166825000D03*
X116900000Y-166825000D03*
X117400000Y-166825000D03*
X117900000Y-166825000D03*
X118400000Y-166825000D03*
X118900000Y-166825000D03*
X119400000Y-166825000D03*
X119900000Y-166825000D03*
X120400000Y-166825000D03*
X120900000Y-166825000D03*
X121400000Y-166825000D03*
X121900000Y-166825000D03*
X122400000Y-166825000D03*
X122900000Y-166825000D03*
X123400000Y-166825000D03*
X123900000Y-166825000D03*
%TD*%
D20*
%TO.C,R58*%
X183525000Y-79050000D03*
X183525000Y-77225000D03*
%TD*%
D23*
%TO.C,Q7*%
X190400000Y-95925000D03*
X190400000Y-94725000D03*
X190400000Y-93525000D03*
X190400000Y-92325000D03*
X190400000Y-91125000D03*
X190400000Y-89925000D03*
X190400000Y-88725000D03*
X190400000Y-87525000D03*
%TD*%
D17*
%TO.C,C4*%
X129125000Y-74850000D03*
X131625000Y-74850000D03*
%TD*%
D33*
%TO.C,R67*%
X191000000Y-124780000D03*
X191000000Y-125975000D03*
%TD*%
D34*
%TO.C,BZ1*%
X120175000Y-124175000D03*
D27*
X127775000Y-124175000D03*
%TD*%
D19*
%TO.C,C11*%
X131750000Y-137900000D03*
X133475000Y-137900000D03*
%TD*%
D35*
%TO.C,D1*%
X114350000Y-51255000D03*
D16*
X114350000Y-41095000D03*
%TD*%
D27*
%TO.C,C28*%
X140067500Y-166910000D03*
X135067500Y-166910000D03*
%TD*%
D25*
%TO.C,R51*%
X101900000Y-158050000D03*
X100075000Y-158050000D03*
%TD*%
D18*
%TO.C,C56*%
X104967500Y-164385000D03*
X104967500Y-166110000D03*
%TD*%
D36*
%TO.C,U8*%
X110300000Y-183965000D03*
X110300000Y-182695000D03*
X110300000Y-181425000D03*
X110300000Y-180155000D03*
X105350000Y-180155000D03*
X105350000Y-181425000D03*
X105350000Y-182695000D03*
X105350000Y-183965000D03*
%TD*%
D27*
%TO.C,C1*%
X144175000Y-57725000D03*
X144175000Y-50225000D03*
%TD*%
D37*
%TO.C,U5*%
X189025000Y-75375000D03*
X188375000Y-75375000D03*
X187715000Y-75375000D03*
X187065000Y-75375000D03*
X187065000Y-78075000D03*
X187715000Y-78075000D03*
X188375000Y-78075000D03*
X189025000Y-78075000D03*
%TD*%
D38*
%TO.C,R27*%
X173925000Y-121125000D03*
X173925000Y-119125000D03*
%TD*%
D39*
%TO.C,U12*%
X111517500Y-170760000D03*
X111517500Y-171710000D03*
X111517500Y-172660000D03*
X113792500Y-172660000D03*
X113792500Y-171710000D03*
X113792500Y-170760000D03*
%TD*%
D40*
%TO.C,Q1*%
X134750000Y-126550000D03*
X136650000Y-126550000D03*
X135700000Y-124675000D03*
%TD*%
D12*
%TO.C,C45*%
X114125000Y-180910000D03*
X114125000Y-177785000D03*
%TD*%
D33*
%TO.C,R39*%
X190525000Y-74030000D03*
X190525000Y-75225000D03*
%TD*%
D26*
%TO.C,R56*%
X189700000Y-161475000D03*
X191700000Y-161475000D03*
%TD*%
D41*
%TO.C,H1*%
X92162779Y-32675000D03*
X92975558Y-30712779D03*
X92975558Y-34637221D03*
X94937779Y-29900000D03*
D42*
X94937779Y-32675000D03*
D41*
X94937779Y-35450000D03*
X96900000Y-30712779D03*
X96900000Y-34637221D03*
X97712779Y-32675000D03*
%TD*%
D21*
%TO.C,J10*%
X95925000Y-115475000D03*
D22*
X95925000Y-117475000D03*
%TD*%
D43*
%TO.C,U9*%
X162500000Y-173265000D03*
X162500000Y-174535000D03*
X162500000Y-175805000D03*
X162500000Y-177075000D03*
X167450000Y-177075000D03*
X167450000Y-175805000D03*
X167450000Y-174535000D03*
X167450000Y-173265000D03*
%TD*%
D29*
%TO.C,R6*%
X126625000Y-109925000D03*
X126625000Y-111750000D03*
%TD*%
D33*
%TO.C,R62*%
X189725000Y-23205000D03*
X189725000Y-24400000D03*
%TD*%
D44*
%TO.C,C7*%
X98975000Y-71500000D03*
D27*
X98975000Y-66500000D03*
%TD*%
D24*
%TO.C,C38*%
X124005000Y-170472500D03*
X124005000Y-168747500D03*
%TD*%
D28*
%TO.C,C86*%
X185000000Y-125110000D03*
X185000000Y-123975000D03*
%TD*%
D45*
%TO.C,D2*%
X131900000Y-131872500D03*
D17*
X131900000Y-124252500D03*
%TD*%
D46*
%TO.C,R29*%
X190525000Y-79822500D03*
X190525000Y-78627500D03*
%TD*%
D26*
%TO.C,R34*%
X169050000Y-47150000D03*
X171050000Y-47150000D03*
%TD*%
D47*
%TO.C,U4*%
X116550000Y-139300000D03*
X118450000Y-139300000D03*
X117500000Y-137025000D03*
%TD*%
D14*
%TO.C,C48*%
X123942500Y-149110000D03*
X122217500Y-149110000D03*
%TD*%
D43*
%TO.C,U10*%
X161250000Y-71640000D03*
X161250000Y-72910000D03*
X161250000Y-74180000D03*
X161250000Y-75450000D03*
X166200000Y-75450000D03*
X166200000Y-74180000D03*
X166200000Y-72910000D03*
X166200000Y-71640000D03*
%TD*%
D37*
%TO.C,U13*%
X189500000Y-126125000D03*
X188850000Y-126125000D03*
X188190000Y-126125000D03*
X187540000Y-126125000D03*
X187540000Y-128825000D03*
X188190000Y-128825000D03*
X188850000Y-128825000D03*
X189500000Y-128825000D03*
%TD*%
D24*
%TO.C,C25*%
X129025000Y-151375000D03*
X129025000Y-149650000D03*
%TD*%
D46*
%TO.C,R65*%
X191000000Y-130572500D03*
X191000000Y-129377500D03*
%TD*%
D24*
%TO.C,C36*%
X104700000Y-178210000D03*
X104700000Y-176485000D03*
%TD*%
D27*
%TO.C,SW1*%
X141567500Y-175810000D03*
X135067500Y-175810000D03*
X141567500Y-171310000D03*
X135067500Y-171310000D03*
%TD*%
D26*
%TO.C,R33*%
X189225000Y-110725000D03*
X191225000Y-110725000D03*
%TD*%
D21*
%TO.C,J8*%
X98725000Y-174625000D03*
D22*
X98725000Y-176625000D03*
X98725000Y-178625000D03*
%TD*%
D23*
%TO.C,Q20*%
X170250000Y-57800000D03*
X170250000Y-56600000D03*
X170250000Y-55400000D03*
X170250000Y-54200000D03*
X170250000Y-53000000D03*
X170250000Y-51800000D03*
X170250000Y-50600000D03*
X170250000Y-49400000D03*
%TD*%
D48*
%TO.C,Y1*%
X130025000Y-160750000D03*
X130025000Y-155850000D03*
%TD*%
D38*
%TO.C,R26*%
X174400000Y-171875000D03*
X174400000Y-169875000D03*
%TD*%
D19*
%TO.C,C35*%
X105175000Y-157750000D03*
X106900000Y-157750000D03*
%TD*%
D33*
%TO.C,R8*%
X118475000Y-176005000D03*
X118475000Y-177200000D03*
%TD*%
D17*
%TO.C,C5*%
X136150000Y-75025000D03*
X138650000Y-75025000D03*
%TD*%
D23*
%TO.C,Q6*%
X171025000Y-108675000D03*
X171025000Y-107475000D03*
X171025000Y-106275000D03*
X171025000Y-105075000D03*
X171025000Y-103875000D03*
X171025000Y-102675000D03*
X171025000Y-101475000D03*
X171025000Y-100275000D03*
%TD*%
D41*
%TO.C,H7*%
X181187779Y-67462779D03*
X179225558Y-66650000D03*
X183150000Y-66650000D03*
X178412779Y-64687779D03*
D42*
X181187779Y-64687779D03*
D41*
X183962779Y-64687779D03*
X179225558Y-62725558D03*
X183150000Y-62725558D03*
X181187779Y-61912779D03*
%TD*%
%TO.C,H2*%
X113075000Y-32375000D03*
X113887779Y-30412779D03*
X113887779Y-34337221D03*
X115850000Y-29600000D03*
D42*
X115850000Y-32375000D03*
D41*
X115850000Y-35150000D03*
X117812221Y-30412779D03*
X117812221Y-34337221D03*
X118625000Y-32375000D03*
%TD*%
D17*
%TO.C,C89*%
X159525000Y-169750000D03*
X159525000Y-164750000D03*
%TD*%
%TO.C,R1*%
X119000000Y-56520000D03*
X119000000Y-41280000D03*
%TD*%
D14*
%TO.C,C50*%
X123942500Y-146110000D03*
X122217500Y-146110000D03*
%TD*%
D25*
%TO.C,R52*%
X101850000Y-162600000D03*
X100025000Y-162600000D03*
%TD*%
D23*
%TO.C,Q21*%
X189625000Y-45050000D03*
X189625000Y-43850000D03*
X189625000Y-42650000D03*
X189625000Y-41450000D03*
X189625000Y-40250000D03*
X189625000Y-39050000D03*
X189625000Y-37850000D03*
X189625000Y-36650000D03*
%TD*%
D18*
%TO.C,C51*%
X110667500Y-147885000D03*
X110667500Y-149610000D03*
%TD*%
D27*
%TO.C,SW2*%
X127967500Y-180960000D03*
X121467500Y-180960000D03*
X127967500Y-176460000D03*
X121467500Y-176460000D03*
%TD*%
D25*
%TO.C,R21*%
X104400000Y-123600000D03*
X102575000Y-123600000D03*
%TD*%
D49*
%TO.C,JP1*%
X106360000Y-126825000D03*
D50*
X107630000Y-126825000D03*
X108900000Y-126825000D03*
%TD*%
D25*
%TO.C,R10*%
X122442500Y-170060000D03*
X120617500Y-170060000D03*
%TD*%
D23*
%TO.C,Q9*%
X190400000Y-108675000D03*
X190400000Y-107475000D03*
X190400000Y-106275000D03*
X190400000Y-105075000D03*
X190400000Y-103875000D03*
X190400000Y-102675000D03*
X190400000Y-101475000D03*
X190400000Y-100275000D03*
%TD*%
D17*
%TO.C,R20*%
X134790000Y-131872500D03*
X142410000Y-131872500D03*
%TD*%
D25*
%TO.C,R18*%
X106950000Y-156250000D03*
X105125000Y-156250000D03*
%TD*%
D26*
%TO.C,R32*%
X169825000Y-98025000D03*
X171825000Y-98025000D03*
%TD*%
D20*
%TO.C,R25*%
X116617500Y-172735000D03*
X116617500Y-170910000D03*
%TD*%
D26*
%TO.C,R57*%
X189300000Y-148913779D03*
X191300000Y-148913779D03*
%TD*%
D20*
%TO.C,R59*%
X183525000Y-75362500D03*
X183525000Y-73537500D03*
%TD*%
D14*
%TO.C,C32*%
X106767500Y-162860000D03*
X105042500Y-162860000D03*
%TD*%
D46*
%TO.C,R60*%
X189750000Y-28947500D03*
X189750000Y-27752500D03*
%TD*%
D41*
%TO.C,H4*%
X181962779Y-118337779D03*
X180000558Y-117525000D03*
X183925000Y-117525000D03*
X179187779Y-115562779D03*
D42*
X181962779Y-115562779D03*
D41*
X184737779Y-115562779D03*
X180000558Y-113600558D03*
X183925000Y-113600558D03*
X181962779Y-112787779D03*
%TD*%
D24*
%TO.C,C31*%
X112417500Y-149035000D03*
X112417500Y-147310000D03*
%TD*%
D51*
%TO.C,L1*%
X128390000Y-109157500D03*
X131365000Y-109157500D03*
%TD*%
D21*
%TO.C,J2*%
X95325000Y-150650000D03*
D22*
X95325000Y-148650000D03*
X95325000Y-146650000D03*
X95325000Y-144650000D03*
X95325000Y-142650000D03*
%TD*%
D18*
%TO.C,C53*%
X107567500Y-147885000D03*
X107567500Y-149610000D03*
%TD*%
D27*
%TO.C,C2*%
X129925000Y-49200000D03*
X129925000Y-41700000D03*
%TD*%
D17*
%TO.C,R2*%
X106150000Y-59045000D03*
X106150000Y-69205000D03*
%TD*%
D21*
%TO.C,J12*%
X95925000Y-121525000D03*
D22*
X95925000Y-123525000D03*
%TD*%
D28*
%TO.C,C87*%
X191000000Y-128260000D03*
X191000000Y-127125000D03*
%TD*%
D21*
%TO.C,J13*%
X95925000Y-127575000D03*
D22*
X95925000Y-129575000D03*
%TD*%
D19*
%TO.C,C34*%
X105175000Y-154750000D03*
X106900000Y-154750000D03*
%TD*%
D21*
%TO.C,J3*%
X98675000Y-181800000D03*
D22*
X98675000Y-183800000D03*
%TD*%
D13*
%TO.C,R5*%
X119890000Y-109957500D03*
X121715000Y-109957500D03*
%TD*%
D25*
%TO.C,R9*%
X119542500Y-169060000D03*
X117717500Y-169060000D03*
%TD*%
D38*
%TO.C,FB1*%
X130775000Y-151300000D03*
X130775000Y-149300000D03*
%TD*%
D23*
%TO.C,Q15*%
X171500000Y-146675000D03*
X171500000Y-145475000D03*
X171500000Y-144275000D03*
X171500000Y-143075000D03*
X171500000Y-141875000D03*
X171500000Y-140675000D03*
X171500000Y-139475000D03*
X171500000Y-138275000D03*
%TD*%
D20*
%TO.C,R24*%
X109567500Y-172735000D03*
X109567500Y-170910000D03*
%TD*%
D18*
%TO.C,C55*%
X106467500Y-164385000D03*
X106467500Y-166110000D03*
%TD*%
D25*
%TO.C,R54*%
X101900000Y-161100000D03*
X100075000Y-161100000D03*
%TD*%
D28*
%TO.C,C83*%
X190525000Y-77510000D03*
X190525000Y-76375000D03*
%TD*%
D23*
%TO.C,Q8*%
X171025000Y-95925000D03*
X171025000Y-94725000D03*
X171025000Y-93525000D03*
X171025000Y-92325000D03*
X171025000Y-91125000D03*
X171025000Y-89925000D03*
X171025000Y-88725000D03*
X171025000Y-87525000D03*
%TD*%
D49*
%TO.C,J6*%
X95550000Y-133510000D03*
D50*
X95550000Y-134780000D03*
X95550000Y-136050000D03*
X95550000Y-137320000D03*
X95550000Y-138590000D03*
X95550000Y-139860000D03*
%TD*%
D27*
%TO.C,C3*%
X130000000Y-66475000D03*
X130000000Y-58975000D03*
%TD*%
D17*
%TO.C,R7*%
X131517500Y-171360000D03*
X131517500Y-178980000D03*
%TD*%
D38*
%TO.C,R28*%
X173150000Y-70250000D03*
X173150000Y-68250000D03*
%TD*%
D26*
%TO.C,R13*%
X170300000Y-161475000D03*
X172300000Y-161475000D03*
%TD*%
D41*
%TO.C,H6*%
X182437779Y-169087779D03*
X180475558Y-168275000D03*
X184400000Y-168275000D03*
X179662779Y-166312779D03*
D42*
X182437779Y-166312779D03*
D41*
X185212779Y-166312779D03*
X180475558Y-164350558D03*
X184400000Y-164350558D03*
X182437779Y-163537779D03*
%TD*%
D17*
%TO.C,R11*%
X139175000Y-134865000D03*
X139175000Y-142485000D03*
%TD*%
D37*
%TO.C,U11*%
X188250000Y-24500000D03*
X187600000Y-24500000D03*
X186940000Y-24500000D03*
X186290000Y-24500000D03*
X186290000Y-27200000D03*
X186940000Y-27200000D03*
X187600000Y-27200000D03*
X188250000Y-27200000D03*
%TD*%
D28*
%TO.C,C85*%
X189750000Y-26635000D03*
X189750000Y-25500000D03*
%TD*%
D20*
%TO.C,R23*%
X112175000Y-177175000D03*
X112175000Y-175350000D03*
%TD*%
D17*
%TO.C,R50*%
X127525000Y-139550000D03*
X127525000Y-147170000D03*
%TD*%
D52*
%TO.C,U2*%
X125115000Y-101937500D03*
D53*
X127020000Y-99375000D03*
X125750000Y-99375000D03*
X124480000Y-99375000D03*
X123210000Y-99375000D03*
X123210000Y-104500000D03*
X124480000Y-104500000D03*
X125750000Y-104500000D03*
X127020000Y-104500000D03*
%TD*%
D24*
%TO.C,C13*%
X118900000Y-136200000D03*
X118900000Y-134475000D03*
%TD*%
D54*
%TO.C,U3*%
X131712500Y-136340000D03*
X131712500Y-135390000D03*
X131712500Y-134440000D03*
X129437500Y-134440000D03*
X129437500Y-136340000D03*
%TD*%
D55*
%TO.C,J11*%
X97140000Y-157460000D03*
X97140000Y-163240000D03*
D56*
X98215000Y-157150000D03*
X98215000Y-157950000D03*
D57*
X98215000Y-159100000D03*
X98215000Y-160100000D03*
X98215000Y-160600000D03*
X98215000Y-161600000D03*
D56*
X98215000Y-162750000D03*
X98215000Y-163550000D03*
X98215000Y-163550000D03*
X98215000Y-162750000D03*
D57*
X98215000Y-162100000D03*
X98215000Y-161100000D03*
X98215000Y-159600000D03*
X98215000Y-158600000D03*
D56*
X98215000Y-157950000D03*
X98215000Y-157150000D03*
D58*
X97640000Y-156030000D03*
D59*
X93460000Y-156030000D03*
D58*
X97640000Y-164670000D03*
D59*
X93460000Y-164670000D03*
%TD*%
D18*
%TO.C,C52*%
X109117500Y-147885000D03*
X109117500Y-149610000D03*
%TD*%
D24*
%TO.C,C41*%
X125505000Y-170472500D03*
X125505000Y-168747500D03*
%TD*%
D23*
%TO.C,Q14*%
X171500000Y-159425000D03*
X171500000Y-158225000D03*
X171500000Y-157025000D03*
X171500000Y-155825000D03*
X171500000Y-154625000D03*
X171500000Y-153425000D03*
X171500000Y-152225000D03*
X171500000Y-151025000D03*
%TD*%
D25*
%TO.C,R17*%
X106950000Y-159250000D03*
X105125000Y-159250000D03*
%TD*%
D19*
%TO.C,C15*%
X125650000Y-113325000D03*
X127375000Y-113325000D03*
%TD*%
D49*
%TO.C,J5*%
X107695000Y-172950000D03*
D50*
X106425000Y-172950000D03*
X105155000Y-172950000D03*
X103885000Y-172950000D03*
%TD*%
D14*
%TO.C,C49*%
X123942500Y-147620000D03*
X122217500Y-147620000D03*
%TD*%
D12*
%TO.C,C17*%
X130015000Y-114857500D03*
X130015000Y-111732500D03*
%TD*%
D20*
%TO.C,R68*%
X184000000Y-129800000D03*
X184000000Y-127975000D03*
%TD*%
D43*
%TO.C,U6*%
X162025000Y-122515000D03*
X162025000Y-123785000D03*
X162025000Y-125055000D03*
X162025000Y-126325000D03*
X166975000Y-126325000D03*
X166975000Y-125055000D03*
X166975000Y-123785000D03*
X166975000Y-122515000D03*
%TD*%
D23*
%TO.C,Q17*%
X190875000Y-146675000D03*
X190875000Y-145475000D03*
X190875000Y-144275000D03*
X190875000Y-143075000D03*
X190875000Y-141875000D03*
X190875000Y-140675000D03*
X190875000Y-139475000D03*
X190875000Y-138275000D03*
%TD*%
D17*
%TO.C,C57*%
X171100000Y-170612500D03*
X171100000Y-165612500D03*
%TD*%
D20*
%TO.C,R16*%
X97875000Y-152575000D03*
X97875000Y-150750000D03*
%TD*%
D26*
%TO.C,R37*%
X188050000Y-47288779D03*
X190050000Y-47288779D03*
%TD*%
D25*
%TO.C,R19*%
X106925000Y-153250000D03*
X105100000Y-153250000D03*
%TD*%
D21*
%TO.C,J1*%
X120167500Y-173110000D03*
D22*
X122167500Y-173110000D03*
X124167500Y-173110000D03*
X126167500Y-173110000D03*
%TD*%
M02*
