%TF.GenerationSoftware,KiCad,Pcbnew,9.0.7*%
%TF.CreationDate,2026-01-12T17:17:52+03:00*%
%TF.ProjectId,Motor_Driver_Shell_Eco,4d6f746f-725f-4447-9269-7665725f5368,rev?*%
%TF.SameCoordinates,Original*%
%TF.FileFunction,Copper,L4,Inr*%
%TF.FilePolarity,Positive*%
%FSLAX46Y46*%
G04 Gerber Fmt 4.6, Leading zero omitted, Abs format (unit mm)*
G04 Created by KiCad (PCBNEW 9.0.7) date 2026-01-12 17:17:52*
%MOMM*%
%LPD*%
G01*
G04 APERTURE LIST*
G04 Aperture macros list*
%AMRoundRect*
0 Rectangle with rounded corners*
0 $1 Rounding radius*
0 $2 $3 $4 $5 $6 $7 $8 $9 X,Y pos of 4 corners*
0 Add a 4 corners polygon primitive as box body*
4,1,4,$2,$3,$4,$5,$6,$7,$8,$9,$2,$3,0*
0 Add four circle primitives for the rounded corners*
1,1,$1+$1,$2,$3*
1,1,$1+$1,$4,$5*
1,1,$1+$1,$6,$7*
1,1,$1+$1,$8,$9*
0 Add four rect primitives between the rounded corners*
20,1,$1+$1,$2,$3,$4,$5,0*
20,1,$1+$1,$4,$5,$6,$7,0*
20,1,$1+$1,$6,$7,$8,$9,0*
20,1,$1+$1,$8,$9,$2,$3,0*%
G04 Aperture macros list end*
%TA.AperFunction,ComponentPad*%
%ADD10R,1.800000X1.800000*%
%TD*%
%TA.AperFunction,ComponentPad*%
%ADD11C,1.800000*%
%TD*%
%TA.AperFunction,ComponentPad*%
%ADD12C,1.600000*%
%TD*%
%TA.AperFunction,ComponentPad*%
%ADD13R,1.350000X1.350000*%
%TD*%
%TA.AperFunction,ComponentPad*%
%ADD14C,1.350000*%
%TD*%
%TA.AperFunction,ComponentPad*%
%ADD15C,2.000000*%
%TD*%
%TA.AperFunction,ComponentPad*%
%ADD16R,2.000000X2.000000*%
%TD*%
%TA.AperFunction,ComponentPad*%
%ADD17RoundRect,0.250000X0.650000X-0.650000X0.650000X0.650000X-0.650000X0.650000X-0.650000X-0.650000X0*%
%TD*%
%TA.AperFunction,ComponentPad*%
%ADD18C,0.800000*%
%TD*%
%TA.AperFunction,ComponentPad*%
%ADD19C,7.400000*%
%TD*%
%TA.AperFunction,ComponentPad*%
%ADD20RoundRect,0.250000X0.750000X-0.750000X0.750000X0.750000X-0.750000X0.750000X-0.750000X-0.750000X0*%
%TD*%
%TA.AperFunction,ComponentPad*%
%ADD21RoundRect,0.250000X0.550000X-0.550000X0.550000X0.550000X-0.550000X0.550000X-0.550000X-0.550000X0*%
%TD*%
%TA.AperFunction,ComponentPad*%
%ADD22C,1.500000*%
%TD*%
%TA.AperFunction,ComponentPad*%
%ADD23R,1.000000X1.000000*%
%TD*%
%TA.AperFunction,ComponentPad*%
%ADD24C,1.000000*%
%TD*%
%TA.AperFunction,HeatsinkPad*%
%ADD25C,0.500000*%
%TD*%
%TA.AperFunction,HeatsinkPad*%
%ADD26O,2.100000X1.000000*%
%TD*%
%TA.AperFunction,HeatsinkPad*%
%ADD27O,1.800000X1.000000*%
%TD*%
%TA.AperFunction,ViaPad*%
%ADD28C,0.300000*%
%TD*%
%TA.AperFunction,ViaPad*%
%ADD29C,0.600000*%
%TD*%
%TA.AperFunction,ViaPad*%
%ADD30C,0.650000*%
%TD*%
%TA.AperFunction,ViaPad*%
%ADD31C,0.800000*%
%TD*%
%TA.AperFunction,ViaPad*%
%ADD32C,0.400000*%
%TD*%
%TA.AperFunction,ViaPad*%
%ADD33C,0.500000*%
%TD*%
%TA.AperFunction,Conductor*%
%ADD34C,0.300000*%
%TD*%
%TA.AperFunction,Conductor*%
%ADD35C,2.000000*%
%TD*%
%TA.AperFunction,Conductor*%
%ADD36C,0.800000*%
%TD*%
%TA.AperFunction,Conductor*%
%ADD37C,0.500000*%
%TD*%
%TA.AperFunction,Conductor*%
%ADD38C,0.350000*%
%TD*%
G04 APERTURE END LIST*
D10*
%TO.N,GND*%
%TO.C,D3*%
X100955000Y-126525000D03*
D11*
%TO.N,Net-(D3-A)*%
X103495000Y-126525000D03*
%TD*%
D12*
%TO.N,+VDC*%
%TO.C,C6*%
X122225000Y-75150000D03*
%TO.N,-VDC*%
X124725000Y-75150000D03*
%TD*%
%TO.N,Net-(D4-K)*%
%TO.C,C39*%
X170625000Y-119862500D03*
%TO.N,/FET/Phase_B_FET/PHASE_B*%
X170625000Y-114862500D03*
%TD*%
D13*
%TO.N,GND*%
%TO.C,J7*%
X95925000Y-109425000D03*
D14*
%TO.N,BRAKE*%
X95925000Y-111425000D03*
%TD*%
D12*
%TO.N,Net-(D5-K)*%
%TO.C,C40*%
X169850000Y-68987500D03*
%TO.N,/FET/Phase_C_FET/PHASE_C*%
X169850000Y-63987500D03*
%TD*%
D13*
%TO.N,GND*%
%TO.C,J4*%
X136075000Y-142050000D03*
D14*
%TO.N,TEMP_SENSOR*%
X134075000Y-142050000D03*
%TD*%
D15*
%TO.N,Net-(H1-Pad1)*%
%TO.C,S1*%
X97400000Y-44845000D03*
X97400000Y-47385000D03*
X97400000Y-49925000D03*
%TO.N,+VDC*%
X110862000Y-49975800D03*
X110862000Y-47435800D03*
X110862000Y-44895800D03*
%TO.N,Net-(S1-Vout)*%
X106702800Y-35701000D03*
%TO.N,GND*%
X104162800Y-35701000D03*
%TO.N,+5V*%
X101622800Y-35701000D03*
%TD*%
D12*
%TO.N,Net-(JP1-C)*%
%TO.C,R12*%
X106150000Y-129575000D03*
%TO.N,Net-(J13-Pin_2)*%
X98530000Y-129575000D03*
%TD*%
%TO.N,+12V*%
%TO.C,C88*%
X158900000Y-118975000D03*
%TO.N,GND*%
X158900000Y-113975000D03*
%TD*%
D15*
%TO.N,CSense_OUT_LES*%
%TO.C,C8*%
X93000000Y-63500000D03*
%TO.N,GND*%
X93000000Y-53500000D03*
%TD*%
D12*
%TO.N,+12V*%
%TO.C,C90*%
X157225000Y-69975000D03*
%TO.N,GND*%
X157225000Y-64975000D03*
%TD*%
D13*
%TO.N,+3V3*%
%TO.C,J9*%
X98575000Y-167300000D03*
D14*
%TO.N,REGEN*%
X98575000Y-169300000D03*
%TO.N,GND*%
X98575000Y-171300000D03*
%TD*%
D12*
%TO.N,+VDC*%
%TO.C,C4*%
X129125000Y-74850000D03*
%TO.N,-VDC*%
X131625000Y-74850000D03*
%TD*%
D16*
%TO.N,+5V*%
%TO.C,BZ1*%
X120175000Y-124175000D03*
D15*
%TO.N,Net-(BZ1--)*%
X127775000Y-124175000D03*
%TD*%
D17*
%TO.N,+VDC*%
%TO.C,D1*%
X114350000Y-51255000D03*
D11*
%TO.N,-VDC*%
X114350000Y-41095000D03*
%TD*%
D15*
%TO.N,GND*%
%TO.C,C28*%
X140067500Y-166910000D03*
%TO.N,/MCU/NRST*%
X135067500Y-166910000D03*
%TD*%
%TO.N,+VDC*%
%TO.C,C1*%
X144175000Y-57725000D03*
%TO.N,-VDC*%
X144175000Y-50225000D03*
%TD*%
D18*
%TO.N,Net-(H1-Pad1)*%
%TO.C,H1*%
X92162779Y-32675000D03*
X92975558Y-30712779D03*
X92975558Y-34637221D03*
X94937779Y-29900000D03*
D19*
X94937779Y-32675000D03*
D18*
X94937779Y-35450000D03*
X96900000Y-30712779D03*
X96900000Y-34637221D03*
X97712779Y-32675000D03*
%TD*%
D13*
%TO.N,GND*%
%TO.C,J10*%
X95925000Y-115475000D03*
D14*
%TO.N,CRUISE*%
X95925000Y-117475000D03*
%TD*%
D20*
%TO.N,CSense_OUT_LES*%
%TO.C,C7*%
X98975000Y-71500000D03*
D15*
%TO.N,GND*%
X98975000Y-66500000D03*
%TD*%
D21*
%TO.N,+5V*%
%TO.C,D2*%
X131900000Y-131872500D03*
D12*
%TO.N,Net-(BZ1--)*%
X131900000Y-124252500D03*
%TD*%
D15*
%TO.N,GND*%
%TO.C,SW1*%
X141567500Y-175810000D03*
X135067500Y-175810000D03*
%TO.N,/MCU/NRST*%
X141567500Y-171310000D03*
X135067500Y-171310000D03*
%TD*%
D13*
%TO.N,+3V3*%
%TO.C,J8*%
X98725000Y-174625000D03*
D14*
%TO.N,ACCEL*%
X98725000Y-176625000D03*
%TO.N,GND*%
X98725000Y-178625000D03*
%TD*%
D22*
%TO.N,Net-(U1-PH0)*%
%TO.C,Y1*%
X130025000Y-160750000D03*
%TO.N,Net-(U1-PH1)*%
X130025000Y-155850000D03*
%TD*%
D12*
%TO.N,+VDC*%
%TO.C,C5*%
X136150000Y-75025000D03*
%TO.N,-VDC*%
X138650000Y-75025000D03*
%TD*%
D18*
%TO.N,/FET/Phase_C_FET/PHASE_C*%
%TO.C,H7*%
X181187779Y-67462779D03*
X179225558Y-66650000D03*
X183150000Y-66650000D03*
X178412779Y-64687779D03*
D19*
X181187779Y-64687779D03*
D18*
X183962779Y-64687779D03*
X179225558Y-62725558D03*
X183150000Y-62725558D03*
X181187779Y-61912779D03*
%TD*%
%TO.N,-VDC*%
%TO.C,H2*%
X113075000Y-32375000D03*
X113887779Y-30412779D03*
X113887779Y-34337221D03*
X115850000Y-29600000D03*
D19*
X115850000Y-32375000D03*
D18*
X115850000Y-35150000D03*
X117812221Y-30412779D03*
X117812221Y-34337221D03*
X118625000Y-32375000D03*
%TD*%
D12*
%TO.N,+12V*%
%TO.C,C89*%
X159525000Y-169750000D03*
%TO.N,GND*%
X159525000Y-164750000D03*
%TD*%
%TO.N,+VDC*%
%TO.C,R1*%
X119000000Y-56520000D03*
%TO.N,-VDC*%
X119000000Y-41280000D03*
%TD*%
D15*
%TO.N,+3V3*%
%TO.C,SW2*%
X127967500Y-180960000D03*
X121467500Y-180960000D03*
%TO.N,/MCU/BOOT0*%
X127967500Y-176460000D03*
X121467500Y-176460000D03*
%TD*%
D23*
%TO.N,STATUS_LED*%
%TO.C,JP1*%
X106360000Y-126825000D03*
D24*
%TO.N,Net-(JP1-C)*%
X107630000Y-126825000D03*
%TO.N,Net-(JP1-B)*%
X108900000Y-126825000D03*
%TD*%
D12*
%TO.N,Net-(Q1-B)*%
%TO.C,R20*%
X134790000Y-131872500D03*
%TO.N,GND*%
X142410000Y-131872500D03*
%TD*%
D18*
%TO.N,/FET/Phase_B_FET/PHASE_B*%
%TO.C,H4*%
X181962779Y-118337779D03*
X180000558Y-117525000D03*
X183925000Y-117525000D03*
X179187779Y-115562779D03*
D19*
X181962779Y-115562779D03*
D18*
X184737779Y-115562779D03*
X180000558Y-113600558D03*
X183925000Y-113600558D03*
X181962779Y-112787779D03*
%TD*%
D13*
%TO.N,Net-(J2-Pin_1)*%
%TO.C,J2*%
X95325000Y-150650000D03*
D14*
%TO.N,Net-(J2-Pin_2)*%
X95325000Y-148650000D03*
%TO.N,Net-(J2-Pin_3)*%
X95325000Y-146650000D03*
%TO.N,+5V*%
X95325000Y-144650000D03*
%TO.N,GND*%
X95325000Y-142650000D03*
%TD*%
D15*
%TO.N,+VDC*%
%TO.C,C2*%
X129925000Y-49200000D03*
%TO.N,-VDC*%
X129925000Y-41700000D03*
%TD*%
D12*
%TO.N,Net-(S1-Vout)*%
%TO.C,R2*%
X106150000Y-59045000D03*
%TO.N,CSense_OUT_LES*%
X106150000Y-69205000D03*
%TD*%
D13*
%TO.N,GND*%
%TO.C,J12*%
X95925000Y-121525000D03*
D14*
%TO.N,PANIC STOP*%
X95925000Y-123525000D03*
%TD*%
D13*
%TO.N,GND*%
%TO.C,J13*%
X95925000Y-127575000D03*
D14*
%TO.N,Net-(J13-Pin_2)*%
X95925000Y-129575000D03*
%TD*%
D13*
%TO.N,Net-(J3-Pin_1)*%
%TO.C,J3*%
X98675000Y-181800000D03*
D14*
%TO.N,Net-(J3-Pin_2)*%
X98675000Y-183800000D03*
%TD*%
D23*
%TO.N,BT_STATE*%
%TO.C,J6*%
X95550000Y-133510000D03*
D24*
%TO.N,BT_TX*%
X95550000Y-134780000D03*
%TO.N,BT_RX*%
X95550000Y-136050000D03*
%TO.N,GND*%
X95550000Y-137320000D03*
%TO.N,+5V*%
X95550000Y-138590000D03*
%TO.N,BT_KEY*%
X95550000Y-139860000D03*
%TD*%
D15*
%TO.N,+VDC*%
%TO.C,C3*%
X130000000Y-66475000D03*
%TO.N,-VDC*%
X130000000Y-58975000D03*
%TD*%
D12*
%TO.N,/MCU/NRST*%
%TO.C,R7*%
X131517500Y-171360000D03*
%TO.N,+3V3*%
X131517500Y-178980000D03*
%TD*%
D18*
%TO.N,/FET/Phase_A_FET/PHASE_A*%
%TO.C,H6*%
X182437779Y-169087779D03*
X180475558Y-168275000D03*
X184400000Y-168275000D03*
X179662779Y-166312779D03*
D19*
X182437779Y-166312779D03*
D18*
X185212779Y-166312779D03*
X180475558Y-164350558D03*
X184400000Y-164350558D03*
X182437779Y-163537779D03*
%TD*%
D12*
%TO.N,Net-(Q1-B)*%
%TO.C,R11*%
X139175000Y-134865000D03*
%TO.N,BUZZER*%
X139175000Y-142485000D03*
%TD*%
%TO.N,+3V3*%
%TO.C,R50*%
X127525000Y-139550000D03*
%TO.N,TEMP_SENSOR*%
X127525000Y-147170000D03*
%TD*%
D25*
%TO.N,-VDC*%
%TO.C,U2*%
X127065000Y-101287500D03*
X125765000Y-101287500D03*
X124465000Y-101287500D03*
X123165000Y-101287500D03*
X127065000Y-102587500D03*
X125765000Y-102587500D03*
X124465000Y-102587500D03*
X123165000Y-102587500D03*
%TD*%
D26*
%TO.N,GND*%
%TO.C,J11*%
X97640000Y-156030000D03*
D27*
X93460000Y-156030000D03*
D26*
X97640000Y-164670000D03*
D27*
X93460000Y-164670000D03*
%TD*%
D23*
%TO.N,+3V3*%
%TO.C,J5*%
X107695000Y-172950000D03*
D24*
%TO.N,SWCLK*%
X106425000Y-172950000D03*
%TO.N,GND*%
X105155000Y-172950000D03*
%TO.N,SWDIO*%
X103885000Y-172950000D03*
%TD*%
D12*
%TO.N,Net-(D7-K)*%
%TO.C,C57*%
X171100000Y-170612500D03*
%TO.N,/FET/Phase_A_FET/PHASE_A*%
X171100000Y-165612500D03*
%TD*%
D13*
%TO.N,/MCU/I2C_SCL*%
%TO.C,J1*%
X120167500Y-173110000D03*
D14*
%TO.N,/MCU/I2C_SDA*%
X122167500Y-173110000D03*
%TO.N,+5V*%
X124167500Y-173110000D03*
%TO.N,GND*%
X126167500Y-173110000D03*
%TD*%
D28*
%TO.N,VBAT*%
X129925000Y-162850000D03*
D29*
%TO.N,CSense_OUT_LES*%
X120525000Y-155800000D03*
D30*
%TO.N,Net-(U2-VCC)*%
X124500000Y-106000000D03*
X121875000Y-106625000D03*
D29*
%TO.N,+12V*%
X161250000Y-70450000D03*
X162500000Y-172075000D03*
X162025000Y-121325000D03*
D30*
X129975000Y-133175000D03*
X130125000Y-116625000D03*
D31*
%TO.N,+5V*%
X120175000Y-80525000D03*
D29*
X127725000Y-137475000D03*
D32*
%TO.N,/MCU/NRST*%
X121102586Y-158613898D03*
D28*
%TO.N,Net-(J2-Pin_1)*%
X103825000Y-153250000D03*
D33*
%TO.N,Net-(J2-Pin_2)*%
X103950000Y-156175000D03*
D28*
%TO.N,Net-(J2-Pin_3)*%
X103575000Y-158800000D03*
D29*
%TO.N,BT_RX*%
X108650000Y-152375000D03*
%TO.N,BT_KEY*%
X108575000Y-153325000D03*
%TO.N,BT_STATE*%
X112000000Y-160375000D03*
%TO.N,BT_TX*%
X109487500Y-151962500D03*
%TO.N,BRAKE*%
X122175000Y-163950000D03*
D30*
%TO.N,ACCEL*%
X121375000Y-154750000D03*
D29*
%TO.N,REGEN*%
X121125000Y-153825000D03*
%TO.N,CRUISE*%
X123400000Y-163925000D03*
D32*
%TO.N,/MCU/BOOT0*%
X120950000Y-168592500D03*
D29*
%TO.N,BUZZER*%
X139175000Y-144975000D03*
X122499140Y-168946836D03*
%TO.N,STATUS_LED*%
X120300000Y-164075000D03*
D28*
%TO.N,TMP_ALERT*%
X115400000Y-169010000D03*
D32*
X113467500Y-173860000D03*
D29*
%TO.N,/FET/Phase_A_FET/PHASE_A*%
X184600000Y-158075000D03*
X185600000Y-150175000D03*
X180600000Y-138175000D03*
X184600000Y-145175000D03*
X185600000Y-144175000D03*
X177600000Y-148175000D03*
X175800000Y-141175000D03*
X178600000Y-162075000D03*
X179600000Y-146175000D03*
X183600000Y-141175000D03*
X186600000Y-148175000D03*
X181600000Y-162075000D03*
X172800000Y-138175000D03*
X183600000Y-157175000D03*
X176800000Y-151175000D03*
X176800000Y-164175000D03*
X176800000Y-153175000D03*
X182600000Y-150175000D03*
X184600000Y-149175000D03*
X182600000Y-151175000D03*
X182600000Y-139175000D03*
X174800000Y-156175000D03*
X185600000Y-152175000D03*
X177600000Y-138175000D03*
X184600000Y-152175000D03*
X176800000Y-142175000D03*
X172800000Y-165075000D03*
X185600000Y-149175000D03*
X182600000Y-147175000D03*
X183600000Y-159075000D03*
X181600000Y-154175000D03*
X172800000Y-144175000D03*
X173800000Y-151175000D03*
X174800000Y-144175000D03*
X177600000Y-158075000D03*
X175800000Y-163175000D03*
X184600000Y-142175000D03*
X172800000Y-151175000D03*
X172800000Y-156175000D03*
X186600000Y-147175000D03*
X181600000Y-142175000D03*
X179600000Y-142175000D03*
X174800000Y-148175000D03*
X176800000Y-162175000D03*
X185600000Y-160075000D03*
X172800000Y-153175000D03*
X186600000Y-158075000D03*
X184600000Y-139175000D03*
X180600000Y-159075000D03*
X175800000Y-138175000D03*
X181600000Y-144175000D03*
X176800000Y-145175000D03*
X183600000Y-139175000D03*
X179600000Y-155175000D03*
X175800000Y-147175000D03*
X179600000Y-147175000D03*
X181600000Y-151175000D03*
X180600000Y-141175000D03*
X172800000Y-141175000D03*
X181600000Y-138175000D03*
X176800000Y-146175000D03*
X182600000Y-152175000D03*
X173800000Y-161175000D03*
X175800000Y-160175000D03*
X173800000Y-138175000D03*
X172800000Y-142175000D03*
X172800000Y-145175000D03*
X183600000Y-152175000D03*
X186600000Y-140175000D03*
X185600000Y-157175000D03*
X185600000Y-162075000D03*
X174800000Y-139175000D03*
X186600000Y-155175000D03*
X184600000Y-147175000D03*
X176800000Y-157175000D03*
X175800000Y-148175000D03*
X180600000Y-151175000D03*
X182600000Y-159075000D03*
X180600000Y-162075000D03*
X175800000Y-150175000D03*
X183600000Y-155175000D03*
X175800000Y-162175000D03*
X174800000Y-165075000D03*
X175800000Y-140175000D03*
X185600000Y-153175000D03*
X174800000Y-143175000D03*
X183600000Y-149175000D03*
X182600000Y-145175000D03*
X178600000Y-160075000D03*
X184600000Y-155175000D03*
X177600000Y-160075000D03*
X182600000Y-138175000D03*
X180600000Y-158075000D03*
X186600000Y-138175000D03*
X180600000Y-150175000D03*
X182600000Y-146175000D03*
X174800000Y-142175000D03*
X173800000Y-164175000D03*
X181600000Y-146175000D03*
X182600000Y-155175000D03*
X178600000Y-141175000D03*
X181600000Y-140175000D03*
X172800000Y-166075000D03*
X176800000Y-140175000D03*
X173800000Y-150175000D03*
X185600000Y-145175000D03*
X177600000Y-157175000D03*
X181600000Y-153175000D03*
X174800000Y-141175000D03*
X180600000Y-139175000D03*
X181600000Y-143175000D03*
X183600000Y-151175000D03*
X178600000Y-145175000D03*
X183600000Y-161075000D03*
X178600000Y-138175000D03*
X182600000Y-141175000D03*
X175800000Y-139175000D03*
X186600000Y-152175000D03*
X182600000Y-161075000D03*
X186600000Y-146175000D03*
X180600000Y-140175000D03*
X174800000Y-158175000D03*
X175800000Y-167075000D03*
X184600000Y-148175000D03*
X184600000Y-156175000D03*
X173800000Y-160175000D03*
X173800000Y-145175000D03*
X174800000Y-159175000D03*
X178600000Y-152175000D03*
X179600000Y-162075000D03*
X172800000Y-158175000D03*
X183600000Y-148175000D03*
X177600000Y-161075000D03*
X178600000Y-146175000D03*
X184600000Y-154175000D03*
X180600000Y-156175000D03*
X172800000Y-152175000D03*
X174800000Y-153175000D03*
X177600000Y-159075000D03*
X179600000Y-161075000D03*
X175800000Y-143175000D03*
X185600000Y-142175000D03*
X174800000Y-140175000D03*
X186600000Y-142175000D03*
X181600000Y-149175000D03*
X179800000Y-163175000D03*
X183600000Y-153175000D03*
X180600000Y-144175000D03*
X185600000Y-155175000D03*
X179600000Y-140175000D03*
X175800000Y-165075000D03*
X180600000Y-155175000D03*
X183600000Y-140175000D03*
X185600000Y-159075000D03*
X174800000Y-138175000D03*
X178600000Y-147175000D03*
X179600000Y-159075000D03*
X172800000Y-157175000D03*
X177600000Y-143175000D03*
X174800000Y-161175000D03*
X183600000Y-143175000D03*
X183600000Y-162075000D03*
X182600000Y-157175000D03*
X179600000Y-139175000D03*
X179600000Y-138175000D03*
X172800000Y-139175000D03*
X177600000Y-141175000D03*
X176800000Y-159175000D03*
X177600000Y-140175000D03*
X185600000Y-139175000D03*
X177600000Y-146175000D03*
X176800000Y-156175000D03*
X176800000Y-150175000D03*
X186600000Y-162075000D03*
X181600000Y-159075000D03*
X181600000Y-157175000D03*
X186600000Y-159075000D03*
X177800000Y-163175000D03*
X183600000Y-158075000D03*
X176800000Y-160175000D03*
X184600000Y-140175000D03*
X174800000Y-167075000D03*
X176800000Y-138175000D03*
X181600000Y-160075000D03*
X178600000Y-151175000D03*
X179600000Y-144175000D03*
X173800000Y-167075000D03*
X186600000Y-151175000D03*
X172800000Y-154175000D03*
X184600000Y-141175000D03*
X175800000Y-155175000D03*
X173800000Y-156175000D03*
X176800000Y-148175000D03*
X174800000Y-150175000D03*
X175800000Y-154175000D03*
X184600000Y-138175000D03*
X173800000Y-158175000D03*
X176800000Y-147175000D03*
X177600000Y-142175000D03*
X180600000Y-161075000D03*
X181600000Y-152175000D03*
X178600000Y-142175000D03*
X178600000Y-143175000D03*
X181600000Y-145175000D03*
X177600000Y-155175000D03*
X176800000Y-141175000D03*
X180600000Y-146175000D03*
X177600000Y-139175000D03*
X186600000Y-154175000D03*
X176800000Y-161175000D03*
X172800000Y-155175000D03*
X173800000Y-143175000D03*
X176800000Y-152175000D03*
X181600000Y-147175000D03*
X176800000Y-149175000D03*
X177800000Y-167075000D03*
X177600000Y-149175000D03*
X172800000Y-167075000D03*
X180600000Y-152175000D03*
X174800000Y-146175000D03*
X184600000Y-151175000D03*
X181600000Y-141175000D03*
X182600000Y-158075000D03*
X185600000Y-148175000D03*
X177800000Y-164175000D03*
X182600000Y-156175000D03*
X175800000Y-159175000D03*
X172800000Y-143175000D03*
X182600000Y-162075000D03*
X175800000Y-156175000D03*
X173800000Y-148175000D03*
X175800000Y-146175000D03*
X175800000Y-166075000D03*
X173800000Y-140175000D03*
X174800000Y-162175000D03*
X177600000Y-152175000D03*
X173800000Y-149175000D03*
X178600000Y-139175000D03*
X185600000Y-141175000D03*
X182600000Y-154175000D03*
X185600000Y-156175000D03*
X173800000Y-146175000D03*
X178600000Y-159075000D03*
X176800000Y-165075000D03*
X175800000Y-142175000D03*
X174800000Y-145175000D03*
X179600000Y-148175000D03*
X177800000Y-166075000D03*
X186600000Y-141175000D03*
X180600000Y-148175000D03*
X179600000Y-153175000D03*
X178800000Y-163175000D03*
X175800000Y-145175000D03*
X179600000Y-160075000D03*
X174800000Y-147175000D03*
X178600000Y-156175000D03*
X186600000Y-144175000D03*
X182600000Y-143175000D03*
X184600000Y-146175000D03*
X183600000Y-146175000D03*
X177600000Y-162075000D03*
X184600000Y-160075000D03*
X180600000Y-145175000D03*
X173800000Y-142175000D03*
X178600000Y-161075000D03*
X175800000Y-144175000D03*
X172800000Y-163175000D03*
X186600000Y-157175000D03*
X173800000Y-154175000D03*
X186600000Y-153175000D03*
X184600000Y-150175000D03*
X184600000Y-162075000D03*
X178600000Y-144175000D03*
X182600000Y-140175000D03*
X174800000Y-152175000D03*
X174800000Y-163175000D03*
X178800000Y-164175000D03*
X181600000Y-139175000D03*
X181600000Y-158075000D03*
X174800000Y-164175000D03*
X179600000Y-151175000D03*
X182600000Y-153175000D03*
X178600000Y-158075000D03*
X186600000Y-145175000D03*
X178600000Y-150175000D03*
X176800000Y-139175000D03*
X173800000Y-144175000D03*
X174800000Y-157175000D03*
X180600000Y-147175000D03*
X181600000Y-161075000D03*
X182600000Y-142175000D03*
X177800000Y-165075000D03*
X172800000Y-140175000D03*
X185600000Y-158075000D03*
X183600000Y-154175000D03*
X177600000Y-151175000D03*
X184600000Y-143175000D03*
X183600000Y-147175000D03*
X184600000Y-157175000D03*
X186600000Y-143175000D03*
X183600000Y-156175000D03*
X179600000Y-149175000D03*
X185600000Y-147175000D03*
X186600000Y-156175000D03*
X180600000Y-154175000D03*
X186600000Y-139175000D03*
X182600000Y-149175000D03*
X173800000Y-141175000D03*
X173800000Y-163175000D03*
X174800000Y-160175000D03*
X173800000Y-153175000D03*
X183600000Y-145175000D03*
X174800000Y-166075000D03*
X180600000Y-149175000D03*
X172800000Y-164175000D03*
X174800000Y-149175000D03*
X176800000Y-144175000D03*
X185600000Y-140175000D03*
X177600000Y-154175000D03*
X177600000Y-153175000D03*
X185600000Y-151175000D03*
X186600000Y-160075000D03*
X185600000Y-143175000D03*
X175800000Y-158175000D03*
X175800000Y-151175000D03*
X179600000Y-141175000D03*
X177600000Y-150175000D03*
X176800000Y-155175000D03*
X184600000Y-159075000D03*
X178600000Y-148175000D03*
X174800000Y-155175000D03*
X178600000Y-154175000D03*
X178600000Y-149175000D03*
X183600000Y-150175000D03*
X180600000Y-153175000D03*
X182600000Y-160075000D03*
X173800000Y-147175000D03*
X177600000Y-147175000D03*
X183600000Y-144175000D03*
X179600000Y-158075000D03*
X173800000Y-162175000D03*
X179600000Y-154175000D03*
X176800000Y-154175000D03*
X176800000Y-158175000D03*
X185600000Y-161075000D03*
X175800000Y-152175000D03*
X181600000Y-156175000D03*
X179600000Y-143175000D03*
X173800000Y-139175000D03*
X175800000Y-157175000D03*
X180600000Y-157175000D03*
X177600000Y-156175000D03*
X179600000Y-152175000D03*
X176800000Y-163175000D03*
X185600000Y-146175000D03*
X174800000Y-154175000D03*
X175800000Y-153175000D03*
X182600000Y-148175000D03*
X185600000Y-154175000D03*
X179600000Y-157175000D03*
X181600000Y-150175000D03*
X179600000Y-150175000D03*
X175800000Y-149175000D03*
X186600000Y-161075000D03*
X176800000Y-166075000D03*
X175800000Y-164175000D03*
X184600000Y-161075000D03*
X173800000Y-166075000D03*
X182600000Y-144175000D03*
X178600000Y-155175000D03*
X184600000Y-144175000D03*
X178600000Y-153175000D03*
X173800000Y-165075000D03*
X173800000Y-159175000D03*
X186600000Y-149175000D03*
X177600000Y-144175000D03*
X180600000Y-142175000D03*
X173800000Y-157175000D03*
X178600000Y-140175000D03*
X176800000Y-167075000D03*
X177600000Y-145175000D03*
X186600000Y-150175000D03*
X179600000Y-145175000D03*
X174800000Y-151175000D03*
X184600000Y-153175000D03*
X183600000Y-160075000D03*
X185600000Y-138175000D03*
X176800000Y-143175000D03*
X173800000Y-152175000D03*
X175800000Y-161175000D03*
X180600000Y-143175000D03*
X173800000Y-155175000D03*
X178600000Y-157175000D03*
X181600000Y-155175000D03*
X179600000Y-156175000D03*
X183600000Y-138175000D03*
X183600000Y-142175000D03*
X180600000Y-160075000D03*
X181600000Y-148175000D03*
%TO.N,HS_MOS_C*%
X158600000Y-72900000D03*
X118725000Y-144100000D03*
%TO.N,/FET/HS_MOS_A*%
X160025000Y-174535000D03*
X118750000Y-146975000D03*
%TO.N,LS_MOS_C*%
X158600000Y-74175000D03*
X118725000Y-143299997D03*
%TO.N,CAN_S*%
X113375000Y-164950000D03*
X113250000Y-153800000D03*
X102525000Y-180400000D03*
D32*
%TO.N,+3V3*%
X121625000Y-156750000D03*
D29*
X102175000Y-177450000D03*
D32*
X131025000Y-165900000D03*
D29*
X182200000Y-124550000D03*
D28*
X109617500Y-173860000D03*
D29*
X111800000Y-176435000D03*
D32*
%TO.N,VDD_1*%
X126875000Y-160200000D03*
X132467500Y-159360000D03*
D28*
%TO.N,VDD_2*%
X126925000Y-156150000D03*
D29*
%TO.N,CAN_RX*%
X116300000Y-165050000D03*
X108050000Y-180125000D03*
%TO.N,CAN_TX*%
X108125000Y-183950000D03*
X115750000Y-164300000D03*
D28*
%TO.N,GND*%
X107625000Y-152400000D03*
D30*
X125350000Y-147225000D03*
X134000000Y-147600000D03*
X142300000Y-138525000D03*
D29*
X187025000Y-73225000D03*
X181250000Y-28100000D03*
D30*
X137743290Y-93750000D03*
X140925000Y-114575000D03*
X123425000Y-141325000D03*
D28*
X107575000Y-158200000D03*
D29*
X157250000Y-129575000D03*
D30*
X138500000Y-93800000D03*
D28*
X127125000Y-155650000D03*
D30*
X138544276Y-92950000D03*
X107525000Y-146400000D03*
X117100000Y-110325000D03*
X139175000Y-93675000D03*
D28*
X107525000Y-155450000D03*
D29*
X182475000Y-129625000D03*
D30*
X139300000Y-92900000D03*
X137800000Y-92875000D03*
D28*
X126825000Y-160950000D03*
D29*
X185314975Y-24925025D03*
X134625000Y-135525000D03*
D30*
X111812500Y-146162500D03*
D29*
X181625000Y-79100000D03*
X187300000Y-123975000D03*
X140850000Y-127675000D03*
X114800000Y-175750000D03*
%TO.N,+VDC*%
X163250000Y-57550000D03*
X163250000Y-41550000D03*
X159125000Y-93425000D03*
X165500000Y-144175000D03*
X164025000Y-102425000D03*
X180900000Y-136475000D03*
X173650000Y-35250000D03*
X165250000Y-44550000D03*
X162125000Y-88425000D03*
X159600000Y-137175000D03*
X164250000Y-33550000D03*
X166250000Y-58550000D03*
X160600000Y-150175000D03*
X160350000Y-57550000D03*
X162600000Y-154175000D03*
X176650000Y-32850000D03*
X181650000Y-33850000D03*
X178425000Y-85725000D03*
X172225000Y-86125000D03*
X176900000Y-134475000D03*
X162600000Y-158175000D03*
X175650000Y-32850000D03*
X162250000Y-48550000D03*
X166500000Y-158175000D03*
X158350000Y-37550000D03*
X161600000Y-158175000D03*
X159125000Y-98425000D03*
X164500000Y-153175000D03*
X162125000Y-103425000D03*
X165500000Y-153175000D03*
X158350000Y-44550000D03*
X166500000Y-138175000D03*
X167500000Y-138175000D03*
X159350000Y-36550000D03*
X175650000Y-34850000D03*
X171450000Y-33250000D03*
X159600000Y-144175000D03*
X161350000Y-36550000D03*
X171225000Y-85125000D03*
X181900000Y-136475000D03*
X164250000Y-39550000D03*
X169800000Y-135875000D03*
X163250000Y-39550000D03*
X160350000Y-39550000D03*
X168800000Y-135875000D03*
X160350000Y-34550000D03*
X170225000Y-86125000D03*
X165250000Y-34550000D03*
X165500000Y-148175000D03*
X164250000Y-40550000D03*
X164025000Y-109425000D03*
X160350000Y-36550000D03*
X169800000Y-136875000D03*
X166025000Y-84425000D03*
X176650000Y-34850000D03*
X177900000Y-136475000D03*
X159600000Y-154175000D03*
X165025000Y-108425000D03*
X171450000Y-35250000D03*
X163250000Y-44550000D03*
X163250000Y-56550000D03*
X176425000Y-85725000D03*
X162125000Y-89425000D03*
X166500000Y-156175000D03*
X169325000Y-85125000D03*
X178425000Y-84725000D03*
X160125000Y-91425000D03*
X162125000Y-107425000D03*
X164250000Y-57550000D03*
X166250000Y-53550000D03*
X180425000Y-84725000D03*
X159600000Y-159175000D03*
X164500000Y-155175000D03*
X162250000Y-55550000D03*
X164500000Y-137175000D03*
X161125000Y-98425000D03*
X159125000Y-90425000D03*
X178900000Y-135475000D03*
X166250000Y-40550000D03*
X163250000Y-50550000D03*
X160600000Y-148175000D03*
X161350000Y-49550000D03*
X159350000Y-51550000D03*
X164250000Y-54550000D03*
X165500000Y-139175000D03*
X160125000Y-90425000D03*
X159125000Y-109425000D03*
X158350000Y-54550000D03*
X160600000Y-144175000D03*
X161600000Y-137175000D03*
X162250000Y-42550000D03*
X160350000Y-58550000D03*
X165025000Y-109425000D03*
X165025000Y-96425000D03*
X173425000Y-86125000D03*
X162250000Y-53550000D03*
X165025000Y-94425000D03*
X182900000Y-134475000D03*
X165025000Y-86425000D03*
X162600000Y-151175000D03*
X162125000Y-90425000D03*
X169450000Y-34250000D03*
X160350000Y-51550000D03*
X165500000Y-141175000D03*
X182425000Y-85725000D03*
X164250000Y-35550000D03*
X161125000Y-93425000D03*
X168550000Y-34250000D03*
X167500000Y-157175000D03*
X164500000Y-143175000D03*
X158350000Y-40550000D03*
X159125000Y-96425000D03*
X172650000Y-33250000D03*
X163250000Y-38550000D03*
X166025000Y-94425000D03*
X159600000Y-148175000D03*
X170450000Y-35250000D03*
X159350000Y-40550000D03*
X162125000Y-106425000D03*
X164250000Y-58550000D03*
X159125000Y-102425000D03*
X163500000Y-146175000D03*
X167025000Y-90425000D03*
X169325000Y-84125000D03*
X159350000Y-45550000D03*
X165025000Y-105425000D03*
X166500000Y-141175000D03*
X158350000Y-57550000D03*
X160125000Y-107425000D03*
X167500000Y-144175000D03*
X177650000Y-32850000D03*
X165025000Y-102425000D03*
X164250000Y-34550000D03*
X159350000Y-46550000D03*
X161125000Y-84425000D03*
X159600000Y-149175000D03*
X165025000Y-90425000D03*
X163025000Y-102425000D03*
X164250000Y-55550000D03*
X168325000Y-84125000D03*
X161125000Y-94425000D03*
X164025000Y-105425000D03*
X163025000Y-97425000D03*
X165500000Y-156175000D03*
X172225000Y-85125000D03*
X161600000Y-159175000D03*
X162250000Y-47550000D03*
X162600000Y-152175000D03*
X163250000Y-48550000D03*
X165250000Y-51550000D03*
X160600000Y-154175000D03*
X167500000Y-149175000D03*
X163025000Y-92425000D03*
X166500000Y-160175000D03*
X165500000Y-147175000D03*
X162125000Y-100425000D03*
X181650000Y-34850000D03*
X174650000Y-34250000D03*
X163500000Y-137175000D03*
X161350000Y-39550000D03*
X161600000Y-160175000D03*
X164250000Y-42550000D03*
X163025000Y-86425000D03*
X177425000Y-85725000D03*
X162125000Y-98425000D03*
X164025000Y-93425000D03*
X159125000Y-91425000D03*
X166025000Y-107425000D03*
X163250000Y-34550000D03*
X158350000Y-42550000D03*
X158350000Y-55550000D03*
X161600000Y-145175000D03*
X160600000Y-145175000D03*
X163500000Y-160175000D03*
X163250000Y-58550000D03*
X163025000Y-101425000D03*
X160600000Y-149175000D03*
X165500000Y-157175000D03*
X165025000Y-106425000D03*
X164025000Y-108425000D03*
X162600000Y-138175000D03*
X159600000Y-142175000D03*
X166250000Y-37550000D03*
X167500000Y-148175000D03*
X166500000Y-146175000D03*
X161125000Y-91425000D03*
X160350000Y-50550000D03*
X160600000Y-141175000D03*
X164500000Y-156175000D03*
X175900000Y-135875000D03*
X163025000Y-95425000D03*
X165500000Y-136175000D03*
X172225000Y-84125000D03*
X165500000Y-146175000D03*
X162600000Y-156175000D03*
X158350000Y-53550000D03*
X162600000Y-141175000D03*
X164500000Y-160175000D03*
X174650000Y-35250000D03*
X170225000Y-85125000D03*
X159600000Y-140175000D03*
X179425000Y-84725000D03*
X165500000Y-143175000D03*
X168325000Y-86125000D03*
X181900000Y-134475000D03*
X160350000Y-42550000D03*
X166500000Y-136175000D03*
X162250000Y-43550000D03*
X160600000Y-158175000D03*
X164500000Y-146175000D03*
X165250000Y-33550000D03*
X164250000Y-50550000D03*
X164500000Y-136175000D03*
X163025000Y-105425000D03*
X162600000Y-144175000D03*
X169450000Y-33250000D03*
X177425000Y-83725000D03*
X159350000Y-37550000D03*
X165250000Y-35550000D03*
X165250000Y-50550000D03*
X158350000Y-49550000D03*
X165250000Y-40550000D03*
X162600000Y-157175000D03*
X165025000Y-89425000D03*
X166025000Y-85425000D03*
X180900000Y-135475000D03*
X165500000Y-135175000D03*
X161125000Y-109425000D03*
X163025000Y-104425000D03*
X167500000Y-147175000D03*
X171700000Y-135875000D03*
X159350000Y-48550000D03*
X160125000Y-104425000D03*
X167025000Y-103425000D03*
X166250000Y-51550000D03*
X165250000Y-52550000D03*
X165025000Y-91425000D03*
X165025000Y-107425000D03*
X166500000Y-135175000D03*
X161125000Y-89425000D03*
X166250000Y-45550000D03*
X166925000Y-84425000D03*
X161125000Y-95425000D03*
X166250000Y-49550000D03*
X161125000Y-105425000D03*
X164500000Y-144175000D03*
X162250000Y-58550000D03*
X166250000Y-36550000D03*
X160350000Y-48550000D03*
X158350000Y-52550000D03*
X161600000Y-155175000D03*
X166025000Y-104425000D03*
X160350000Y-37550000D03*
X161600000Y-146175000D03*
X164500000Y-135175000D03*
X160600000Y-147175000D03*
X172700000Y-136875000D03*
X164500000Y-154175000D03*
X163250000Y-51550000D03*
X161125000Y-104425000D03*
X164250000Y-51550000D03*
X165500000Y-142175000D03*
X161125000Y-106425000D03*
X166250000Y-50550000D03*
X164250000Y-41550000D03*
X164250000Y-56550000D03*
X161350000Y-50550000D03*
X159600000Y-157175000D03*
X173650000Y-33250000D03*
X160600000Y-138175000D03*
X166150000Y-33550000D03*
X163025000Y-90425000D03*
X174425000Y-86125000D03*
X166250000Y-39550000D03*
X163250000Y-35550000D03*
X164025000Y-106425000D03*
X167500000Y-159175000D03*
X163250000Y-52550000D03*
X161600000Y-140175000D03*
X159350000Y-49550000D03*
X160600000Y-146175000D03*
X175425000Y-84125000D03*
X162600000Y-155175000D03*
X159125000Y-88425000D03*
X159600000Y-138175000D03*
X167500000Y-140175000D03*
X163500000Y-138175000D03*
X163025000Y-100425000D03*
X166025000Y-102425000D03*
X159600000Y-160175000D03*
X165250000Y-53550000D03*
X159350000Y-50550000D03*
X160125000Y-101425000D03*
X166500000Y-148175000D03*
X161350000Y-55550000D03*
X161125000Y-100425000D03*
X159350000Y-52550000D03*
X161125000Y-85425000D03*
X166025000Y-88425000D03*
X163500000Y-139175000D03*
X175650000Y-33850000D03*
X164250000Y-44550000D03*
X163025000Y-91425000D03*
X164025000Y-107425000D03*
X168550000Y-33250000D03*
X167500000Y-141175000D03*
X161125000Y-108425000D03*
X179900000Y-136475000D03*
X174425000Y-85125000D03*
X158350000Y-35550000D03*
X174650000Y-33250000D03*
X159350000Y-44550000D03*
X167025000Y-89425000D03*
X159600000Y-141175000D03*
X161350000Y-43550000D03*
X176900000Y-136475000D03*
X165025000Y-101425000D03*
X162125000Y-85425000D03*
X162600000Y-147175000D03*
X164025000Y-88425000D03*
X160125000Y-105425000D03*
X161600000Y-139175000D03*
X166500000Y-151175000D03*
X166025000Y-95425000D03*
X162250000Y-38550000D03*
X161125000Y-92425000D03*
X165500000Y-150175000D03*
X164025000Y-96425000D03*
X165250000Y-41550000D03*
X163500000Y-156175000D03*
X165500000Y-145175000D03*
X161350000Y-34550000D03*
X161350000Y-51550000D03*
X167500000Y-152175000D03*
X158350000Y-48550000D03*
X167025000Y-93425000D03*
X163500000Y-142175000D03*
X160125000Y-100425000D03*
X163500000Y-159175000D03*
X166025000Y-96425000D03*
X159125000Y-106425000D03*
X165500000Y-151175000D03*
X161600000Y-149175000D03*
X167025000Y-97425000D03*
X161125000Y-96425000D03*
X171225000Y-86125000D03*
X166250000Y-55550000D03*
X167025000Y-87425000D03*
X163500000Y-158175000D03*
X165025000Y-88425000D03*
X161600000Y-153175000D03*
X179425000Y-83725000D03*
X161600000Y-150175000D03*
X160600000Y-157175000D03*
X160350000Y-46550000D03*
X163250000Y-53550000D03*
X182425000Y-83725000D03*
X166500000Y-147175000D03*
X158350000Y-36550000D03*
X170450000Y-34250000D03*
X164250000Y-46550000D03*
X163025000Y-109425000D03*
X160350000Y-35550000D03*
X162600000Y-146175000D03*
X159125000Y-97425000D03*
X159350000Y-53550000D03*
X160125000Y-106425000D03*
X160350000Y-40550000D03*
X162250000Y-54550000D03*
X167500000Y-153175000D03*
X160350000Y-56550000D03*
X161600000Y-144175000D03*
X166250000Y-57550000D03*
X165250000Y-55550000D03*
X178650000Y-32850000D03*
X160125000Y-103425000D03*
X165250000Y-58550000D03*
X160125000Y-98425000D03*
X163500000Y-135175000D03*
X164025000Y-97425000D03*
X180900000Y-134475000D03*
X166500000Y-149175000D03*
X163500000Y-145175000D03*
X160600000Y-143175000D03*
X163250000Y-55550000D03*
X162250000Y-37550000D03*
X169325000Y-86125000D03*
X164025000Y-103425000D03*
X164025000Y-85425000D03*
X162125000Y-94425000D03*
X158350000Y-51550000D03*
X167025000Y-102425000D03*
X181425000Y-83725000D03*
X164500000Y-158175000D03*
X161350000Y-38550000D03*
X166500000Y-142175000D03*
X170225000Y-84125000D03*
X164250000Y-49550000D03*
X165025000Y-84425000D03*
X171450000Y-34250000D03*
X161125000Y-99425000D03*
X162250000Y-57550000D03*
X166250000Y-46550000D03*
X159125000Y-86425000D03*
X167500000Y-146175000D03*
X165250000Y-57550000D03*
X175900000Y-136875000D03*
X166500000Y-137175000D03*
X167025000Y-94425000D03*
X178650000Y-33850000D03*
X171700000Y-134875000D03*
X164025000Y-101425000D03*
X161350000Y-46550000D03*
X165500000Y-158175000D03*
X175425000Y-86125000D03*
X159125000Y-107425000D03*
X165025000Y-98425000D03*
X158350000Y-41550000D03*
X163500000Y-148175000D03*
X167025000Y-107425000D03*
X166500000Y-143175000D03*
X180425000Y-83725000D03*
X160125000Y-94425000D03*
X164500000Y-140175000D03*
X162250000Y-44550000D03*
X165250000Y-46550000D03*
X159350000Y-39550000D03*
X164500000Y-145175000D03*
X159125000Y-89425000D03*
X163500000Y-147175000D03*
X165250000Y-45550000D03*
X165500000Y-155175000D03*
X163500000Y-152175000D03*
X166025000Y-100425000D03*
X163500000Y-149175000D03*
X162600000Y-160175000D03*
X165500000Y-137175000D03*
X159350000Y-41550000D03*
X160125000Y-93425000D03*
X165500000Y-154175000D03*
X160125000Y-97425000D03*
X159125000Y-101425000D03*
X163250000Y-47550000D03*
X162250000Y-49550000D03*
X164025000Y-100425000D03*
X164025000Y-92425000D03*
X161600000Y-151175000D03*
X166025000Y-108425000D03*
X182425000Y-84725000D03*
X181425000Y-85725000D03*
X172650000Y-35250000D03*
X160125000Y-85425000D03*
X161600000Y-154175000D03*
X159125000Y-99425000D03*
X162600000Y-153175000D03*
X164250000Y-38550000D03*
X166500000Y-157175000D03*
X164025000Y-98425000D03*
X162125000Y-91425000D03*
X161600000Y-152175000D03*
X163500000Y-155175000D03*
X160600000Y-159175000D03*
X164025000Y-89425000D03*
X166025000Y-90425000D03*
X177900000Y-134475000D03*
X180650000Y-32850000D03*
X162250000Y-40550000D03*
X166025000Y-105425000D03*
X174425000Y-84125000D03*
X164500000Y-142175000D03*
X163025000Y-88425000D03*
X164250000Y-48550000D03*
X162250000Y-35550000D03*
X162600000Y-150175000D03*
X166025000Y-101425000D03*
X165025000Y-97425000D03*
X164025000Y-104425000D03*
X164250000Y-52550000D03*
X166025000Y-86425000D03*
X166250000Y-56550000D03*
X160125000Y-96425000D03*
X162125000Y-105425000D03*
X181650000Y-32850000D03*
X159350000Y-34550000D03*
X162250000Y-45550000D03*
X179650000Y-33850000D03*
X161350000Y-40550000D03*
X164500000Y-141175000D03*
X165250000Y-39550000D03*
X163025000Y-106425000D03*
X164025000Y-87425000D03*
X161350000Y-58550000D03*
X173900000Y-135875000D03*
X161125000Y-87425000D03*
X159600000Y-155175000D03*
X159600000Y-153175000D03*
X162600000Y-148175000D03*
X163250000Y-40550000D03*
X160350000Y-41550000D03*
X173425000Y-85125000D03*
X167025000Y-98425000D03*
X167025000Y-101425000D03*
X166250000Y-38550000D03*
X160350000Y-55550000D03*
X167025000Y-109425000D03*
X164025000Y-90425000D03*
X160600000Y-136175000D03*
X164025000Y-99425000D03*
X162250000Y-36550000D03*
X160125000Y-95425000D03*
X161600000Y-135175000D03*
X179425000Y-85725000D03*
X163250000Y-37550000D03*
X167025000Y-100425000D03*
X160600000Y-152175000D03*
X159125000Y-87425000D03*
X159600000Y-156175000D03*
X163025000Y-89425000D03*
X164250000Y-43550000D03*
X159125000Y-104425000D03*
X172700000Y-134875000D03*
X167025000Y-106425000D03*
X182900000Y-135475000D03*
X182900000Y-136475000D03*
X175900000Y-134875000D03*
X163250000Y-49550000D03*
X167500000Y-154175000D03*
X159125000Y-100425000D03*
X165500000Y-160175000D03*
X160125000Y-92425000D03*
X166500000Y-152175000D03*
X166025000Y-92425000D03*
X163500000Y-151175000D03*
X162125000Y-86425000D03*
X163025000Y-93425000D03*
X165250000Y-42550000D03*
X160125000Y-87425000D03*
X163025000Y-94425000D03*
X166025000Y-98425000D03*
X158350000Y-46550000D03*
X160600000Y-156175000D03*
X159600000Y-143175000D03*
X159125000Y-108425000D03*
X162250000Y-50550000D03*
X159125000Y-95425000D03*
X159600000Y-139175000D03*
X162600000Y-137175000D03*
X165500000Y-149175000D03*
X161600000Y-142175000D03*
X164250000Y-53550000D03*
X159600000Y-150175000D03*
X160600000Y-142175000D03*
X165250000Y-54550000D03*
X163500000Y-157175000D03*
X167500000Y-160175000D03*
X167500000Y-139175000D03*
X164500000Y-149175000D03*
X162250000Y-52550000D03*
X163025000Y-84425000D03*
X158350000Y-45550000D03*
X162125000Y-99425000D03*
X165025000Y-99425000D03*
X166250000Y-54550000D03*
X162600000Y-142175000D03*
X164250000Y-37550000D03*
X165025000Y-93425000D03*
X160350000Y-52550000D03*
X163025000Y-85425000D03*
X166500000Y-144175000D03*
X179900000Y-135475000D03*
X171700000Y-136875000D03*
X162250000Y-39550000D03*
X160600000Y-140175000D03*
X158350000Y-39550000D03*
X166250000Y-42550000D03*
X159350000Y-55550000D03*
X163500000Y-136175000D03*
X179650000Y-34850000D03*
X176425000Y-83725000D03*
X163025000Y-108425000D03*
X158350000Y-47550000D03*
X161350000Y-52550000D03*
X161350000Y-57550000D03*
X165250000Y-43550000D03*
X166025000Y-106425000D03*
X165500000Y-140175000D03*
X177900000Y-135475000D03*
X167025000Y-91425000D03*
X165025000Y-103425000D03*
X165250000Y-37550000D03*
X163025000Y-99425000D03*
X159350000Y-57550000D03*
X165025000Y-87425000D03*
X167500000Y-136175000D03*
X166025000Y-93425000D03*
X167025000Y-92425000D03*
X162600000Y-143175000D03*
X163250000Y-42550000D03*
X167550000Y-35250000D03*
X160350000Y-49550000D03*
X165250000Y-56550000D03*
X162250000Y-46550000D03*
X165025000Y-92425000D03*
X161125000Y-88425000D03*
X167500000Y-150175000D03*
X168550000Y-35250000D03*
X166025000Y-89425000D03*
X159600000Y-151175000D03*
X178900000Y-136475000D03*
X161350000Y-33550000D03*
X160350000Y-45550000D03*
X164250000Y-45550000D03*
X161350000Y-53550000D03*
X159350000Y-54550000D03*
X164250000Y-36550000D03*
X166500000Y-154175000D03*
X165500000Y-152175000D03*
X180425000Y-85725000D03*
X161350000Y-42550000D03*
X162250000Y-34550000D03*
X167550000Y-34250000D03*
X181425000Y-84725000D03*
X177425000Y-84725000D03*
X160600000Y-139175000D03*
X161125000Y-86425000D03*
X160125000Y-89425000D03*
X163500000Y-144175000D03*
X167025000Y-85425000D03*
X167025000Y-96425000D03*
X177650000Y-33850000D03*
X162125000Y-102425000D03*
X164250000Y-47550000D03*
X158350000Y-38550000D03*
X160600000Y-153175000D03*
X168325000Y-85125000D03*
X160600000Y-160175000D03*
X167500000Y-158175000D03*
X170700000Y-134875000D03*
X179900000Y-134475000D03*
X162125000Y-87425000D03*
X160125000Y-109425000D03*
X159350000Y-42550000D03*
X163500000Y-154175000D03*
X162125000Y-84425000D03*
X158350000Y-56550000D03*
X159125000Y-103425000D03*
X167025000Y-104425000D03*
X165025000Y-104425000D03*
X166500000Y-140175000D03*
X161600000Y-143175000D03*
X169800000Y-134875000D03*
X169450000Y-35250000D03*
X165250000Y-49550000D03*
X162125000Y-95425000D03*
X167025000Y-108425000D03*
X164025000Y-84425000D03*
X161350000Y-37550000D03*
X163025000Y-87425000D03*
X167025000Y-88425000D03*
X161125000Y-97425000D03*
X164025000Y-95425000D03*
X173650000Y-34250000D03*
X162600000Y-140175000D03*
X163025000Y-96425000D03*
X163250000Y-33550000D03*
X173900000Y-136875000D03*
X160125000Y-108425000D03*
X163500000Y-143175000D03*
X166250000Y-52550000D03*
X159125000Y-92425000D03*
X164500000Y-148175000D03*
X160125000Y-86425000D03*
X167025000Y-105425000D03*
X161350000Y-41550000D03*
X159600000Y-152175000D03*
X164025000Y-86425000D03*
X166250000Y-43550000D03*
X160350000Y-53550000D03*
X166500000Y-139175000D03*
X173900000Y-134875000D03*
X167500000Y-145175000D03*
X161600000Y-138175000D03*
X163500000Y-140175000D03*
X161350000Y-45550000D03*
X161350000Y-54550000D03*
X158350000Y-43550000D03*
X161350000Y-47550000D03*
X166250000Y-35550000D03*
X178900000Y-134475000D03*
X162250000Y-41550000D03*
X166250000Y-48550000D03*
X159350000Y-58550000D03*
X166500000Y-153175000D03*
X167500000Y-137175000D03*
X163025000Y-103425000D03*
X161125000Y-101425000D03*
X168800000Y-136875000D03*
X162125000Y-101425000D03*
X161125000Y-103425000D03*
X163250000Y-36550000D03*
X164500000Y-151175000D03*
X164025000Y-94425000D03*
X160350000Y-33550000D03*
X167550000Y-33250000D03*
X158350000Y-50550000D03*
X176900000Y-135475000D03*
X172650000Y-34250000D03*
X164500000Y-152175000D03*
X162125000Y-96425000D03*
X180650000Y-34850000D03*
X161350000Y-35550000D03*
X167500000Y-143175000D03*
X162600000Y-145175000D03*
X168800000Y-134875000D03*
X167500000Y-156175000D03*
X167500000Y-155175000D03*
X161125000Y-90425000D03*
X159350000Y-56550000D03*
X162600000Y-159175000D03*
X159350000Y-38550000D03*
X164500000Y-157175000D03*
X161125000Y-107425000D03*
X165025000Y-95425000D03*
X178425000Y-83725000D03*
X164025000Y-91425000D03*
X164500000Y-147175000D03*
X174900000Y-136875000D03*
X159600000Y-145175000D03*
X174900000Y-135875000D03*
X170700000Y-135875000D03*
X161600000Y-141175000D03*
X162600000Y-149175000D03*
X158350000Y-58550000D03*
X160125000Y-88425000D03*
X162600000Y-139175000D03*
X166500000Y-150175000D03*
X161350000Y-56550000D03*
X164500000Y-139175000D03*
X160125000Y-102425000D03*
X167025000Y-86425000D03*
X175425000Y-85125000D03*
X160350000Y-38550000D03*
X166025000Y-87425000D03*
X166500000Y-145175000D03*
X159350000Y-47550000D03*
X167400000Y-135175000D03*
X161600000Y-148175000D03*
X160600000Y-155175000D03*
X159600000Y-158175000D03*
X160350000Y-54550000D03*
X163250000Y-45550000D03*
X170700000Y-136875000D03*
X176650000Y-33850000D03*
X160350000Y-47550000D03*
X165250000Y-38550000D03*
X172700000Y-135875000D03*
X163250000Y-46550000D03*
X162125000Y-97425000D03*
X162250000Y-33550000D03*
X160600000Y-151175000D03*
X160350000Y-44550000D03*
X173425000Y-84125000D03*
X177650000Y-34850000D03*
X163250000Y-54550000D03*
X160125000Y-99425000D03*
X161600000Y-147175000D03*
X163500000Y-153175000D03*
X171225000Y-84125000D03*
X160600000Y-137175000D03*
X167025000Y-95425000D03*
X167025000Y-99425000D03*
X162250000Y-51550000D03*
X161350000Y-44550000D03*
X165250000Y-36550000D03*
X163500000Y-141175000D03*
X166025000Y-91425000D03*
X159350000Y-35550000D03*
X176425000Y-84725000D03*
X163250000Y-43550000D03*
X162125000Y-108425000D03*
X163025000Y-107425000D03*
X164500000Y-150175000D03*
X162125000Y-92425000D03*
X165250000Y-48550000D03*
X166025000Y-99425000D03*
X166250000Y-41550000D03*
X165025000Y-100425000D03*
X179650000Y-32850000D03*
X159600000Y-146175000D03*
X161600000Y-157175000D03*
X166025000Y-103425000D03*
X162600000Y-135175000D03*
X166250000Y-44550000D03*
X162125000Y-104425000D03*
X161600000Y-136175000D03*
X178650000Y-34850000D03*
X161350000Y-48550000D03*
X162125000Y-109425000D03*
X159125000Y-105425000D03*
X163025000Y-98425000D03*
X167500000Y-151175000D03*
X159350000Y-43550000D03*
X163500000Y-150175000D03*
X180650000Y-33850000D03*
X166025000Y-97425000D03*
X159125000Y-94425000D03*
X165500000Y-138175000D03*
X170450000Y-33250000D03*
X174900000Y-134875000D03*
X165500000Y-159175000D03*
X166250000Y-34550000D03*
X162125000Y-93425000D03*
X166500000Y-155175000D03*
X166500000Y-159175000D03*
X164500000Y-138175000D03*
X165025000Y-85425000D03*
X164500000Y-159175000D03*
X161125000Y-102425000D03*
X159600000Y-147175000D03*
X165250000Y-47550000D03*
X162600000Y-136175000D03*
X160350000Y-43550000D03*
X161600000Y-156175000D03*
X166025000Y-109425000D03*
X166250000Y-47550000D03*
X181900000Y-135475000D03*
X167500000Y-142175000D03*
X162250000Y-56550000D03*
%TO.N,/FET/LS_MOS_B*%
X147375000Y-125625000D03*
X144825000Y-125650000D03*
X118725000Y-145100000D03*
X159750000Y-125050000D03*
%TO.N,/FET/LS_MOS_A*%
X118750000Y-147850000D03*
X160125000Y-175825000D03*
%TO.N,/FET/HS_MOS_B*%
X118700000Y-146025000D03*
X159615000Y-123785000D03*
%TO.N,Current Sense_A*%
X121237500Y-143162500D03*
X186500000Y-128475000D03*
X120450000Y-148850000D03*
%TO.N,-VDC*%
X175350000Y-30050000D03*
X179125000Y-80925000D03*
X189125000Y-82925000D03*
X163550000Y-32250000D03*
X189350000Y-43850000D03*
X194600000Y-146475000D03*
X193125000Y-83925000D03*
X167550000Y-31250000D03*
X170325000Y-82125000D03*
X171550000Y-31250000D03*
X186125000Y-80925000D03*
X193125000Y-93725000D03*
X193125000Y-102525000D03*
X172325000Y-81125000D03*
X190600000Y-143475000D03*
X189125000Y-105525000D03*
X189125000Y-81925000D03*
X193600000Y-135675000D03*
X189350000Y-41050000D03*
X190600000Y-154275000D03*
X188125000Y-82925000D03*
X193350000Y-54650000D03*
X191350000Y-52650000D03*
X189350000Y-39050000D03*
X191350000Y-36050000D03*
X192350000Y-40050000D03*
X189350000Y-50650000D03*
X192600000Y-142675000D03*
X193600000Y-157275000D03*
X194125000Y-105525000D03*
X192600000Y-151475000D03*
X193600000Y-156275000D03*
X190125000Y-84925000D03*
X194125000Y-101525000D03*
X192125000Y-105525000D03*
X189350000Y-33050000D03*
X192600000Y-144475000D03*
X188350000Y-53650000D03*
X193600000Y-154275000D03*
X192125000Y-94725000D03*
X190125000Y-99725000D03*
X192600000Y-158275000D03*
X187125000Y-81925000D03*
X178125000Y-81925000D03*
X190350000Y-48850000D03*
X164800000Y-133875000D03*
X189125000Y-99725000D03*
X189350000Y-51650000D03*
X161800000Y-133875000D03*
X162800000Y-131875000D03*
X192125000Y-84925000D03*
X189350000Y-41850000D03*
X193125000Y-87925000D03*
X189125000Y-103525000D03*
X194600000Y-156275000D03*
X178600000Y-132675000D03*
X190600000Y-134675000D03*
X185600000Y-132675000D03*
X190350000Y-43850000D03*
X177125000Y-81925000D03*
X188350000Y-33050000D03*
X193125000Y-100525000D03*
X190125000Y-86925000D03*
X192350000Y-36050000D03*
X195475000Y-130475000D03*
X180350000Y-31050000D03*
X180600000Y-132675000D03*
X185125000Y-80925000D03*
X190125000Y-107525000D03*
X175325000Y-82125000D03*
X192125000Y-104525000D03*
X193600000Y-141675000D03*
X166550000Y-30250000D03*
X192600000Y-150475000D03*
X193350000Y-41050000D03*
X160550000Y-32250000D03*
X194125000Y-82925000D03*
X190600000Y-132675000D03*
X180350000Y-30050000D03*
X167325000Y-81125000D03*
X190125000Y-90925000D03*
X191350000Y-48850000D03*
X176350000Y-30050000D03*
X166550000Y-32250000D03*
X193350000Y-44850000D03*
X173550000Y-32250000D03*
X190600000Y-145475000D03*
X192125000Y-98725000D03*
X189125000Y-107525000D03*
X190125000Y-102525000D03*
X191600000Y-153275000D03*
X192600000Y-133675000D03*
X192600000Y-141675000D03*
X191600000Y-154275000D03*
X188350000Y-56650000D03*
X193600000Y-143475000D03*
X193600000Y-136675000D03*
X173325000Y-83125000D03*
X175800000Y-132875000D03*
X191350000Y-54650000D03*
X194125000Y-90925000D03*
X190600000Y-133675000D03*
X192125000Y-85925000D03*
X188125000Y-80925000D03*
X164325000Y-82125000D03*
X165550000Y-30250000D03*
X166800000Y-133875000D03*
X185350000Y-32050000D03*
X187350000Y-30050000D03*
X192350000Y-55650000D03*
X193600000Y-140675000D03*
X190600000Y-140675000D03*
X193600000Y-133675000D03*
X193600000Y-137675000D03*
X191600000Y-155275000D03*
X187125000Y-84925000D03*
X189600000Y-157275000D03*
X192125000Y-97725000D03*
X190600000Y-142675000D03*
X190600000Y-152275000D03*
X194125000Y-103525000D03*
X189125000Y-84925000D03*
X193125000Y-91925000D03*
X190125000Y-91925000D03*
X191350000Y-32050000D03*
X189600000Y-131675000D03*
X189600000Y-136675000D03*
X193600000Y-142675000D03*
X190600000Y-138675000D03*
X189350000Y-48850000D03*
X194125000Y-92725000D03*
X191600000Y-140675000D03*
X190600000Y-157275000D03*
X173800000Y-131875000D03*
X161325000Y-83125000D03*
X171325000Y-81125000D03*
X185350000Y-33050000D03*
X188600000Y-136675000D03*
X193125000Y-89925000D03*
X190125000Y-105525000D03*
X177125000Y-80925000D03*
X192125000Y-93725000D03*
X174800000Y-132875000D03*
X176600000Y-131675000D03*
X189350000Y-52650000D03*
X192125000Y-102525000D03*
X189350000Y-49850000D03*
X164325000Y-83125000D03*
X193125000Y-103525000D03*
X182350000Y-31050000D03*
X171325000Y-82125000D03*
X167550000Y-32250000D03*
X192600000Y-139675000D03*
X167325000Y-83125000D03*
X194325000Y-26000000D03*
X193350000Y-45850000D03*
X169325000Y-83125000D03*
X189350000Y-42850000D03*
X192600000Y-156275000D03*
X162325000Y-81125000D03*
X188350000Y-30050000D03*
X192350000Y-38050000D03*
X164550000Y-30250000D03*
X190600000Y-144475000D03*
X189125000Y-106525000D03*
X165325000Y-83125000D03*
X190600000Y-150475000D03*
X190125000Y-104525000D03*
X192600000Y-134675000D03*
X192350000Y-53650000D03*
X174325000Y-83125000D03*
X194125000Y-96725000D03*
X190600000Y-155275000D03*
X184125000Y-80925000D03*
X172800000Y-131875000D03*
X192125000Y-91925000D03*
X173325000Y-82125000D03*
X187350000Y-32050000D03*
X172550000Y-31250000D03*
X186600000Y-132675000D03*
X193600000Y-149475000D03*
X191600000Y-157275000D03*
X183125000Y-81925000D03*
X189350000Y-30050000D03*
X192600000Y-138675000D03*
X192600000Y-145475000D03*
X186350000Y-32050000D03*
X186600000Y-134675000D03*
X191125000Y-105525000D03*
X183350000Y-30050000D03*
X194125000Y-86925000D03*
X165800000Y-132875000D03*
X187125000Y-80925000D03*
X190350000Y-41050000D03*
X193350000Y-46850000D03*
X194600000Y-147475000D03*
X192600000Y-137675000D03*
X194600000Y-154275000D03*
X185600000Y-133775000D03*
X193125000Y-98725000D03*
X192350000Y-33050000D03*
X161550000Y-31250000D03*
X194125000Y-97725000D03*
X189350000Y-40050000D03*
X190350000Y-34050000D03*
X165325000Y-81125000D03*
X191350000Y-42850000D03*
X186600000Y-131675000D03*
X191125000Y-86925000D03*
X163325000Y-81125000D03*
X193125000Y-94725000D03*
X194125000Y-93725000D03*
X188350000Y-49850000D03*
X171325000Y-83125000D03*
X191350000Y-46850000D03*
X193350000Y-41850000D03*
X171550000Y-30250000D03*
X170550000Y-32250000D03*
X193350000Y-52650000D03*
X187600000Y-134675000D03*
X194600000Y-148475000D03*
X184350000Y-31050000D03*
X170325000Y-83125000D03*
X162550000Y-32250000D03*
X179350000Y-30050000D03*
X189350000Y-36050000D03*
X173325000Y-81125000D03*
X189600000Y-153275000D03*
X189350000Y-37050000D03*
X189600000Y-135675000D03*
X168550000Y-30250000D03*
X190350000Y-54650000D03*
X169550000Y-30250000D03*
X169325000Y-82125000D03*
X193125000Y-86925000D03*
X191125000Y-90925000D03*
X193350000Y-37050000D03*
X189600000Y-158275000D03*
X177350000Y-31050000D03*
X185350000Y-31050000D03*
X191350000Y-34050000D03*
X192350000Y-39050000D03*
X162800000Y-133875000D03*
X193350000Y-33050000D03*
X193125000Y-99725000D03*
X178350000Y-31050000D03*
X189350000Y-54650000D03*
X176125000Y-81925000D03*
X192125000Y-86925000D03*
X191350000Y-49850000D03*
X166325000Y-81125000D03*
X178350000Y-30050000D03*
X192350000Y-51650000D03*
X162325000Y-83125000D03*
X193600000Y-148475000D03*
X192350000Y-42850000D03*
X190125000Y-100725000D03*
X165800000Y-131875000D03*
X172325000Y-82125000D03*
X186125000Y-83925000D03*
X193125000Y-82925000D03*
X189600000Y-134675000D03*
X190350000Y-35050000D03*
X186125000Y-82925000D03*
X184350000Y-32150000D03*
X166550000Y-31250000D03*
X191125000Y-106525000D03*
X189600000Y-151475000D03*
X191125000Y-103525000D03*
X168325000Y-81125000D03*
X168325000Y-83125000D03*
X173800000Y-132875000D03*
X170550000Y-31250000D03*
X193600000Y-150475000D03*
X177600000Y-131675000D03*
X193600000Y-145475000D03*
X192600000Y-149475000D03*
X181600000Y-132675000D03*
X191350000Y-40050000D03*
X192125000Y-82925000D03*
X193350000Y-32050000D03*
X191125000Y-88925000D03*
X191125000Y-84925000D03*
X184125000Y-81925000D03*
X191600000Y-151475000D03*
X182600000Y-131675000D03*
X190350000Y-32050000D03*
X185125000Y-83025000D03*
X192125000Y-89925000D03*
X194600000Y-142675000D03*
X171800000Y-133875000D03*
X194125000Y-91925000D03*
X193350000Y-43850000D03*
X193600000Y-139675000D03*
X190125000Y-94725000D03*
X187350000Y-33050000D03*
X163800000Y-132875000D03*
X190600000Y-151475000D03*
X172550000Y-30250000D03*
X194600000Y-133675000D03*
X188350000Y-35050000D03*
X192350000Y-49650000D03*
X194600000Y-140675000D03*
X190350000Y-42850000D03*
X179600000Y-131675000D03*
X189125000Y-86925000D03*
X189600000Y-155275000D03*
X181125000Y-80925000D03*
X190125000Y-80925000D03*
X190125000Y-82925000D03*
X190125000Y-81925000D03*
X192600000Y-140675000D03*
X176350000Y-31050000D03*
X170550000Y-30250000D03*
X174325000Y-82125000D03*
X193600000Y-153275000D03*
X176125000Y-80925000D03*
X181350000Y-30050000D03*
X188125000Y-83925000D03*
X194600000Y-155275000D03*
X182125000Y-81925000D03*
X191600000Y-150475000D03*
X176600000Y-132675000D03*
X193125000Y-95725000D03*
X193125000Y-90925000D03*
X193350000Y-36050000D03*
X193125000Y-97725000D03*
X182125000Y-80925000D03*
X166800000Y-132875000D03*
X188600000Y-134675000D03*
X189125000Y-80925000D03*
X194125000Y-98725000D03*
X190600000Y-139675000D03*
X184350000Y-30050000D03*
X188600000Y-135675000D03*
X191125000Y-85925000D03*
X191600000Y-139675000D03*
X183600000Y-132675000D03*
X189125000Y-102525000D03*
X191600000Y-156275000D03*
X190350000Y-39050000D03*
X194600000Y-134675000D03*
X191600000Y-158275000D03*
X193350000Y-49650000D03*
X186125000Y-81925000D03*
X179125000Y-81925000D03*
X190350000Y-40050000D03*
X191600000Y-144475000D03*
X191125000Y-89925000D03*
X193125000Y-96725000D03*
X164550000Y-31250000D03*
X175600000Y-131875000D03*
X194600000Y-149475000D03*
X188350000Y-36050000D03*
X194600000Y-145475000D03*
X192350000Y-47850000D03*
X192600000Y-157275000D03*
X190350000Y-49850000D03*
X190350000Y-41850000D03*
X194125000Y-95725000D03*
X191350000Y-47850000D03*
X193125000Y-88925000D03*
X191350000Y-39050000D03*
X193125000Y-85925000D03*
X183350000Y-31050000D03*
X192350000Y-32050000D03*
X188350000Y-34050000D03*
X192600000Y-153275000D03*
X188125000Y-81925000D03*
X167800000Y-131875000D03*
X186350000Y-31050000D03*
X174800000Y-131875000D03*
X191600000Y-134675000D03*
X194125000Y-94725000D03*
X188350000Y-32050000D03*
X190350000Y-56650000D03*
X189125000Y-100725000D03*
X184600000Y-132675000D03*
X165550000Y-31250000D03*
X191125000Y-94725000D03*
X188350000Y-54650000D03*
X190125000Y-93725000D03*
X190600000Y-156275000D03*
X190350000Y-38050000D03*
X194600000Y-137675000D03*
X187350000Y-34050000D03*
X180125000Y-81925000D03*
X191350000Y-37050000D03*
X190350000Y-50650000D03*
X192125000Y-100725000D03*
X194600000Y-152275000D03*
X169800000Y-131875000D03*
X182600000Y-132675000D03*
X192350000Y-48850000D03*
X180600000Y-131675000D03*
X165800000Y-133875000D03*
X192125000Y-107525000D03*
X188125000Y-84925000D03*
X191600000Y-143475000D03*
X190125000Y-83925000D03*
X194125000Y-99725000D03*
X188600000Y-133675000D03*
X181125000Y-81925000D03*
X190125000Y-92725000D03*
X190600000Y-153275000D03*
X187600000Y-131675000D03*
X190125000Y-103525000D03*
X191125000Y-91925000D03*
X191125000Y-99725000D03*
X190350000Y-36050000D03*
X187350000Y-31050000D03*
X188350000Y-55650000D03*
X191350000Y-43850000D03*
X192125000Y-88925000D03*
X193350000Y-38050000D03*
X186350000Y-34050000D03*
X171800000Y-131875000D03*
X162550000Y-31250000D03*
X163800000Y-133875000D03*
X191600000Y-135675000D03*
X163325000Y-83125000D03*
X192125000Y-106525000D03*
X191125000Y-82925000D03*
X189600000Y-152275000D03*
X169800000Y-132875000D03*
X191125000Y-102525000D03*
X194600000Y-151275000D03*
X191600000Y-136675000D03*
X190125000Y-85925000D03*
X168325000Y-82125000D03*
X187125000Y-82925000D03*
X193600000Y-146475000D03*
X191125000Y-101525000D03*
X191350000Y-55650000D03*
X193600000Y-147475000D03*
X186350000Y-30050000D03*
X194125000Y-83925000D03*
X172800000Y-133875000D03*
X183600000Y-131675000D03*
X190600000Y-158275000D03*
X191600000Y-145475000D03*
X190125000Y-101525000D03*
X194600000Y-144475000D03*
X193350000Y-39050000D03*
X194600000Y-139675000D03*
X168800000Y-132875000D03*
X168550000Y-31250000D03*
X191600000Y-141675000D03*
X183125000Y-80925000D03*
X191350000Y-56650000D03*
X192600000Y-148475000D03*
X194125000Y-84925000D03*
X192350000Y-43850000D03*
X161550000Y-30250000D03*
X173550000Y-30250000D03*
X192350000Y-35050000D03*
X167550000Y-30250000D03*
X192350000Y-44850000D03*
X191350000Y-51650000D03*
X192125000Y-92725000D03*
X188350000Y-52650000D03*
X162550000Y-30250000D03*
X193600000Y-151275000D03*
X189600000Y-156275000D03*
X192350000Y-50650000D03*
X191600000Y-137675000D03*
X189350000Y-56650000D03*
X189350000Y-31050000D03*
X191350000Y-53650000D03*
X195075000Y-79775000D03*
X188350000Y-50650000D03*
X194600000Y-138675000D03*
X195400000Y-124500000D03*
X187600000Y-135675000D03*
X164550000Y-32250000D03*
X189125000Y-85925000D03*
X163800000Y-131875000D03*
X178125000Y-80925000D03*
X192350000Y-46850000D03*
X194400000Y-28950000D03*
X191600000Y-142675000D03*
X185350000Y-30050000D03*
X162325000Y-82125000D03*
X193125000Y-84925000D03*
X194600000Y-150475000D03*
X185125000Y-81925000D03*
X162800000Y-132875000D03*
X170800000Y-133875000D03*
X173550000Y-31250000D03*
X190600000Y-141675000D03*
X175125000Y-81125000D03*
X166325000Y-83125000D03*
X190600000Y-136675000D03*
X189350000Y-32050000D03*
X188600000Y-132675000D03*
X192350000Y-41050000D03*
X192600000Y-135675000D03*
X193125000Y-92725000D03*
X169550000Y-31250000D03*
X189600000Y-150475000D03*
X180125000Y-80925000D03*
X184600000Y-131675000D03*
X191350000Y-41050000D03*
X192600000Y-143475000D03*
X191350000Y-33050000D03*
X189350000Y-55650000D03*
X192125000Y-101525000D03*
X169800000Y-133875000D03*
X192350000Y-37050000D03*
X165325000Y-82125000D03*
X189350000Y-35050000D03*
X192600000Y-155275000D03*
X161550000Y-32250000D03*
X194125000Y-89925000D03*
X194600000Y-143475000D03*
X179350000Y-31050000D03*
X193350000Y-51650000D03*
X194600000Y-153275000D03*
X193600000Y-138675000D03*
X194125000Y-87925000D03*
X189350000Y-34050000D03*
X192125000Y-83925000D03*
X190600000Y-137675000D03*
X188350000Y-31050000D03*
X189125000Y-104525000D03*
X177600000Y-132675000D03*
X192600000Y-136675000D03*
X190600000Y-131675000D03*
X171550000Y-32250000D03*
X192125000Y-103525000D03*
X187600000Y-133675000D03*
X161800000Y-132875000D03*
X164800000Y-131875000D03*
X171800000Y-132875000D03*
X163550000Y-30250000D03*
X172550000Y-32250000D03*
X192350000Y-54650000D03*
X189350000Y-53650000D03*
X177350000Y-30050000D03*
X188350000Y-51650000D03*
X168800000Y-133875000D03*
X193350000Y-42850000D03*
X189600000Y-133675000D03*
X193125000Y-106525000D03*
X191125000Y-107525000D03*
X194125000Y-100525000D03*
X193125000Y-105525000D03*
X191125000Y-93725000D03*
X193350000Y-40050000D03*
X168550000Y-32250000D03*
X189350000Y-38050000D03*
X194125000Y-85925000D03*
X194600000Y-136675000D03*
X167800000Y-132875000D03*
X191600000Y-138675000D03*
X192125000Y-87925000D03*
X172325000Y-83125000D03*
X182350000Y-30050000D03*
X170325000Y-81125000D03*
X191350000Y-41850000D03*
X163550000Y-31250000D03*
X190350000Y-52650000D03*
X194125000Y-104525000D03*
X189600000Y-132675000D03*
X192125000Y-90925000D03*
X190125000Y-88925000D03*
X194125000Y-88925000D03*
X191600000Y-152275000D03*
X189125000Y-83925000D03*
X160550000Y-31250000D03*
X193350000Y-53650000D03*
X191125000Y-100725000D03*
X167800000Y-133875000D03*
X189125000Y-101525000D03*
X181350000Y-31050000D03*
X194600000Y-135675000D03*
X193350000Y-34050000D03*
X194125000Y-102525000D03*
X174325000Y-81125000D03*
X191125000Y-92725000D03*
X190350000Y-51650000D03*
X192125000Y-99725000D03*
X186600000Y-133675000D03*
X187350000Y-35050000D03*
X175350000Y-31050000D03*
X172800000Y-132875000D03*
X169550000Y-32250000D03*
X189600000Y-154275000D03*
X190125000Y-87925000D03*
X192350000Y-45850000D03*
X189600000Y-137675000D03*
X181600000Y-131675000D03*
X191125000Y-83925000D03*
X192600000Y-154275000D03*
X192600000Y-152275000D03*
X190350000Y-33050000D03*
X190125000Y-89925000D03*
X169325000Y-81125000D03*
X167325000Y-82125000D03*
X166325000Y-82125000D03*
X188600000Y-131675000D03*
X190125000Y-106525000D03*
X187125000Y-83925000D03*
X193600000Y-152275000D03*
X170800000Y-131875000D03*
X193600000Y-134675000D03*
X170800000Y-132875000D03*
X190350000Y-55650000D03*
X193350000Y-50650000D03*
X164800000Y-132875000D03*
X179600000Y-132675000D03*
X190350000Y-37050000D03*
X193600000Y-155275000D03*
X191125000Y-104525000D03*
X193350000Y-35050000D03*
X173800000Y-133875000D03*
X191350000Y-38050000D03*
X193350000Y-47850000D03*
X165550000Y-32250000D03*
X193125000Y-104525000D03*
X193350000Y-48850000D03*
X193125000Y-101525000D03*
X187600000Y-132675000D03*
X195200000Y-73600000D03*
X191600000Y-133675000D03*
X191125000Y-87925000D03*
X193600000Y-144475000D03*
X191350000Y-50650000D03*
X194600000Y-141675000D03*
X174350000Y-30250000D03*
X168800000Y-131875000D03*
X166800000Y-131875000D03*
X188350000Y-48850000D03*
X174550000Y-31250000D03*
X192350000Y-41850000D03*
X192350000Y-52650000D03*
X186350000Y-33050000D03*
X192350000Y-34050000D03*
X161325000Y-82125000D03*
X164325000Y-81125000D03*
X191350000Y-35050000D03*
X190600000Y-135675000D03*
X163325000Y-82125000D03*
X174800000Y-133875000D03*
X185600000Y-131675000D03*
X178600000Y-131675000D03*
X188125000Y-85925000D03*
X190350000Y-53650000D03*
%TO.N,Net-(D7-K)*%
X166975000Y-171600000D03*
%TO.N,Net-(D4-K)*%
X166500000Y-120850000D03*
%TO.N,/FET/Phase_B_FET/PHASE_B*%
X181125000Y-94425000D03*
X184125000Y-98425000D03*
X178125000Y-94425000D03*
X186125000Y-99425000D03*
X172325000Y-116325000D03*
X180125000Y-109325000D03*
X185125000Y-111325000D03*
X173325000Y-110425000D03*
X184125000Y-97425000D03*
X180125000Y-108325000D03*
X184125000Y-104425000D03*
X176325000Y-97425000D03*
X177125000Y-99425000D03*
X176325000Y-105425000D03*
X186125000Y-90425000D03*
X181125000Y-99425000D03*
X181125000Y-91425000D03*
X183125000Y-104425000D03*
X175325000Y-108425000D03*
X183125000Y-109325000D03*
X185125000Y-92425000D03*
X183125000Y-89425000D03*
X183125000Y-103425000D03*
X177125000Y-107325000D03*
X178125000Y-105425000D03*
X177325000Y-114325000D03*
X176325000Y-89425000D03*
X177125000Y-102425000D03*
X184125000Y-91425000D03*
X178125000Y-101425000D03*
X173325000Y-112425000D03*
X180125000Y-92425000D03*
X173325000Y-87425000D03*
X179125000Y-90425000D03*
X177325000Y-116325000D03*
X183125000Y-108325000D03*
X183125000Y-101425000D03*
X182125000Y-93425000D03*
X186125000Y-111325000D03*
X173325000Y-97425000D03*
X181125000Y-95425000D03*
X172325000Y-93425000D03*
X175325000Y-100425000D03*
X183125000Y-105425000D03*
X173325000Y-111425000D03*
X186125000Y-94425000D03*
X184125000Y-94425000D03*
X178125000Y-93425000D03*
X186125000Y-88425000D03*
X172325000Y-101425000D03*
X185125000Y-108325000D03*
X185125000Y-87425000D03*
X179125000Y-97425000D03*
X174325000Y-104425000D03*
X184125000Y-105425000D03*
X174325000Y-115325000D03*
X182125000Y-88425000D03*
X174325000Y-108425000D03*
X185125000Y-103425000D03*
X172325000Y-89425000D03*
X173325000Y-101425000D03*
X175325000Y-113425000D03*
X185125000Y-100425000D03*
X173325000Y-88425000D03*
X177125000Y-89425000D03*
X184125000Y-110325000D03*
X186125000Y-103425000D03*
X174325000Y-102425000D03*
X179125000Y-98425000D03*
X177125000Y-98425000D03*
X179125000Y-91425000D03*
X177125000Y-87425000D03*
X183125000Y-91425000D03*
X172325000Y-94425000D03*
X175325000Y-91425000D03*
X174325000Y-103425000D03*
X178125000Y-102425000D03*
X173325000Y-102425000D03*
X179125000Y-94425000D03*
X174325000Y-100425000D03*
X179125000Y-108325000D03*
X178125000Y-100425000D03*
X184125000Y-106425000D03*
X184125000Y-102425000D03*
X173325000Y-89425000D03*
X176325000Y-106425000D03*
X184125000Y-100425000D03*
X186125000Y-106425000D03*
X176325000Y-93425000D03*
X173325000Y-94425000D03*
X174325000Y-112425000D03*
X173325000Y-90425000D03*
X173325000Y-106425000D03*
X181125000Y-101425000D03*
X172325000Y-115325000D03*
X178125000Y-87425000D03*
X176325000Y-110425000D03*
X173325000Y-100425000D03*
X179125000Y-110325000D03*
X182125000Y-111325000D03*
X184125000Y-99425000D03*
X181125000Y-104425000D03*
X184125000Y-101425000D03*
X175325000Y-98425000D03*
X186125000Y-100425000D03*
X186125000Y-97425000D03*
X185125000Y-104425000D03*
X182125000Y-106425000D03*
X180125000Y-106425000D03*
X175325000Y-92425000D03*
X186125000Y-95425000D03*
X181125000Y-106425000D03*
X183125000Y-97425000D03*
X173325000Y-104425000D03*
X185125000Y-109325000D03*
X183125000Y-99425000D03*
X184125000Y-89425000D03*
X182125000Y-97425000D03*
X176325000Y-88425000D03*
X180125000Y-111325000D03*
X177125000Y-110325000D03*
X174325000Y-98425000D03*
X177125000Y-106425000D03*
X185125000Y-89425000D03*
X173325000Y-103425000D03*
X186125000Y-89425000D03*
X178125000Y-99425000D03*
X179125000Y-89425000D03*
X185125000Y-94425000D03*
X176325000Y-111425000D03*
X182125000Y-94425000D03*
X179125000Y-105425000D03*
X175325000Y-106425000D03*
X184125000Y-108325000D03*
X176325000Y-104425000D03*
X179125000Y-107325000D03*
X172325000Y-114325000D03*
X178325000Y-113425000D03*
X180125000Y-105425000D03*
X172325000Y-100425000D03*
X179125000Y-99425000D03*
X179125000Y-111325000D03*
X181125000Y-88425000D03*
X180125000Y-110325000D03*
X175325000Y-105425000D03*
X178125000Y-88425000D03*
X172325000Y-91425000D03*
X183125000Y-90425000D03*
X183125000Y-107325000D03*
X178125000Y-92425000D03*
X180125000Y-88425000D03*
X174325000Y-105425000D03*
X182125000Y-87425000D03*
X184125000Y-93425000D03*
X177125000Y-88425000D03*
X183125000Y-95425000D03*
X175325000Y-103425000D03*
X177125000Y-101425000D03*
X179125000Y-102425000D03*
X179325000Y-112425000D03*
X182125000Y-108325000D03*
X181125000Y-96425000D03*
X177125000Y-90425000D03*
X176325000Y-109425000D03*
X177125000Y-93425000D03*
X181125000Y-110325000D03*
X182125000Y-99425000D03*
X180125000Y-87425000D03*
X186125000Y-92425000D03*
X180125000Y-96425000D03*
X180125000Y-104425000D03*
X175325000Y-96425000D03*
X175325000Y-109425000D03*
X181125000Y-109325000D03*
X176325000Y-113425000D03*
X180125000Y-107325000D03*
X183125000Y-87425000D03*
X185125000Y-105425000D03*
X175325000Y-112425000D03*
X174325000Y-96425000D03*
X182125000Y-98425000D03*
X173325000Y-96425000D03*
X176325000Y-112425000D03*
X176325000Y-92425000D03*
X180125000Y-101425000D03*
X177125000Y-100425000D03*
X176325000Y-90425000D03*
X176325000Y-95425000D03*
X174325000Y-109425000D03*
X181125000Y-100425000D03*
X175325000Y-101425000D03*
X181125000Y-93425000D03*
X182125000Y-90425000D03*
X172325000Y-87425000D03*
X175325000Y-95425000D03*
X173325000Y-91425000D03*
X173325000Y-95425000D03*
X177125000Y-96425000D03*
X182125000Y-102425000D03*
X176325000Y-103425000D03*
X173325000Y-99425000D03*
X173325000Y-115325000D03*
X173325000Y-105425000D03*
X172325000Y-107425000D03*
X176325000Y-94425000D03*
X182125000Y-101425000D03*
X180125000Y-102425000D03*
X186125000Y-110325000D03*
X174325000Y-107425000D03*
X178125000Y-89425000D03*
X175325000Y-114325000D03*
X174325000Y-92425000D03*
X181125000Y-107325000D03*
X186125000Y-109325000D03*
X180125000Y-95425000D03*
X174325000Y-99425000D03*
X176325000Y-91425000D03*
X182125000Y-91425000D03*
X176325000Y-101425000D03*
X175325000Y-88425000D03*
X178125000Y-106425000D03*
X183125000Y-106425000D03*
X174325000Y-116325000D03*
X183125000Y-110325000D03*
X184125000Y-90425000D03*
X178125000Y-107325000D03*
X179125000Y-104425000D03*
X176325000Y-96425000D03*
X177125000Y-94425000D03*
X178125000Y-109325000D03*
X179125000Y-100425000D03*
X184125000Y-95425000D03*
X183125000Y-100425000D03*
X186125000Y-105425000D03*
X185125000Y-107325000D03*
X175325000Y-87425000D03*
X186125000Y-93425000D03*
X177325000Y-115325000D03*
X182125000Y-107325000D03*
X177125000Y-111325000D03*
X183125000Y-92425000D03*
X175325000Y-102425000D03*
X181125000Y-105425000D03*
X184125000Y-87425000D03*
X183125000Y-98425000D03*
X175325000Y-104425000D03*
X181125000Y-103425000D03*
X173325000Y-114325000D03*
X174325000Y-95425000D03*
X181125000Y-102425000D03*
X177125000Y-95425000D03*
X185125000Y-98425000D03*
X179125000Y-95425000D03*
X172325000Y-112425000D03*
X182125000Y-95425000D03*
X175325000Y-97425000D03*
X181125000Y-89425000D03*
X183125000Y-96425000D03*
X179125000Y-92425000D03*
X179125000Y-103425000D03*
X186125000Y-107325000D03*
X175325000Y-90425000D03*
X178125000Y-96425000D03*
X186125000Y-102425000D03*
X173325000Y-107425000D03*
X178125000Y-111325000D03*
X174325000Y-91425000D03*
X173325000Y-98425000D03*
X181125000Y-90425000D03*
X175325000Y-115325000D03*
X176325000Y-108425000D03*
X186125000Y-87425000D03*
X175325000Y-111425000D03*
X181125000Y-111325000D03*
X176325000Y-115325000D03*
X174325000Y-94425000D03*
X182125000Y-109325000D03*
X185125000Y-99425000D03*
X176325000Y-116325000D03*
X172325000Y-105425000D03*
X180125000Y-89425000D03*
X183125000Y-93425000D03*
X174325000Y-106425000D03*
X178125000Y-90425000D03*
X182125000Y-96425000D03*
X175325000Y-116325000D03*
X182125000Y-92425000D03*
X179125000Y-93425000D03*
X179125000Y-88425000D03*
X184125000Y-88425000D03*
X185125000Y-102425000D03*
X173325000Y-116325000D03*
X177125000Y-103425000D03*
X175325000Y-107425000D03*
X176325000Y-102425000D03*
X178325000Y-112425000D03*
X176325000Y-99425000D03*
X173325000Y-113425000D03*
X176325000Y-98425000D03*
X185125000Y-90425000D03*
X176325000Y-107425000D03*
X178125000Y-103425000D03*
X176325000Y-100425000D03*
X186125000Y-96425000D03*
X174325000Y-101425000D03*
X182125000Y-103425000D03*
X185125000Y-88425000D03*
X173325000Y-92425000D03*
X184125000Y-111325000D03*
X185125000Y-101425000D03*
X177325000Y-112425000D03*
X183125000Y-88425000D03*
X182125000Y-89425000D03*
X177125000Y-108325000D03*
X177125000Y-91425000D03*
X185125000Y-110325000D03*
X174325000Y-89425000D03*
X175325000Y-89425000D03*
X186125000Y-104425000D03*
X181125000Y-97425000D03*
X180125000Y-98425000D03*
X178125000Y-98425000D03*
X174325000Y-93425000D03*
X177125000Y-92425000D03*
X185125000Y-91425000D03*
X183125000Y-111325000D03*
X178125000Y-95425000D03*
X180125000Y-99425000D03*
X180125000Y-91425000D03*
X175325000Y-99425000D03*
X177125000Y-97425000D03*
X174325000Y-114325000D03*
X176325000Y-87425000D03*
X172325000Y-104425000D03*
X186125000Y-101425000D03*
X182125000Y-100425000D03*
X185125000Y-96425000D03*
X172325000Y-103425000D03*
X174325000Y-87425000D03*
X179125000Y-96425000D03*
X183125000Y-102425000D03*
X172325000Y-88425000D03*
X178125000Y-104425000D03*
X172325000Y-90425000D03*
X173325000Y-93425000D03*
X186125000Y-91425000D03*
X178125000Y-110325000D03*
X186125000Y-108325000D03*
X181125000Y-108325000D03*
X175325000Y-94425000D03*
X175325000Y-110425000D03*
X183125000Y-94425000D03*
X185125000Y-95425000D03*
X182125000Y-110325000D03*
X185125000Y-93425000D03*
X174325000Y-111425000D03*
X172325000Y-106425000D03*
X186125000Y-98425000D03*
X174325000Y-90425000D03*
X177125000Y-105425000D03*
X182125000Y-104425000D03*
X179125000Y-106425000D03*
X180125000Y-94425000D03*
X174325000Y-113425000D03*
X177325000Y-113425000D03*
X178125000Y-97425000D03*
X180125000Y-90425000D03*
X180125000Y-93425000D03*
X179125000Y-87425000D03*
X181125000Y-87425000D03*
X180125000Y-100425000D03*
X174325000Y-97425000D03*
X184125000Y-96425000D03*
X184125000Y-92425000D03*
X175325000Y-93425000D03*
X180125000Y-103425000D03*
X174325000Y-110425000D03*
X172325000Y-113425000D03*
X177125000Y-104425000D03*
X181125000Y-98425000D03*
X172325000Y-102425000D03*
X180125000Y-97425000D03*
X177125000Y-109325000D03*
X173325000Y-108425000D03*
X179125000Y-109325000D03*
X174325000Y-88425000D03*
X173325000Y-109425000D03*
X179125000Y-101425000D03*
X184125000Y-107325000D03*
X176325000Y-114325000D03*
X185125000Y-97425000D03*
X184125000Y-109325000D03*
X178125000Y-91425000D03*
X185125000Y-106425000D03*
X181125000Y-92425000D03*
X178125000Y-108325000D03*
X184125000Y-103425000D03*
X172325000Y-92425000D03*
X182125000Y-105425000D03*
%TO.N,Net-(D5-K)*%
X165725000Y-69975000D03*
%TO.N,/FET/Phase_C_FET/PHASE_C*%
X176550000Y-63450000D03*
X179350000Y-50550000D03*
X177350000Y-57450000D03*
X174550000Y-65450000D03*
X184350000Y-38550000D03*
X176350000Y-36550000D03*
X171550000Y-36550000D03*
X172550000Y-65450000D03*
X179350000Y-40550000D03*
X181350000Y-57450000D03*
X185350000Y-37550000D03*
X178350000Y-47550000D03*
X181350000Y-43550000D03*
X183350000Y-44550000D03*
X178350000Y-39550000D03*
X173550000Y-54550000D03*
X181350000Y-59450000D03*
X175550000Y-46550000D03*
X177350000Y-45550000D03*
X183350000Y-36550000D03*
X181350000Y-58450000D03*
X184350000Y-60450000D03*
X182350000Y-58450000D03*
X185350000Y-45550000D03*
X181350000Y-55550000D03*
X183350000Y-48550000D03*
X180350000Y-44550000D03*
X180350000Y-43550000D03*
X180350000Y-58450000D03*
X181350000Y-36550000D03*
X175550000Y-49550000D03*
X178350000Y-41550000D03*
X180350000Y-42550000D03*
X183350000Y-43550000D03*
X179350000Y-56450000D03*
X180350000Y-53550000D03*
X181350000Y-49550000D03*
X182350000Y-41550000D03*
X173550000Y-65450000D03*
X176350000Y-41550000D03*
X185350000Y-54550000D03*
X175550000Y-52550000D03*
X174550000Y-63450000D03*
X177350000Y-41550000D03*
X179350000Y-38550000D03*
X176350000Y-58450000D03*
X176550000Y-64450000D03*
X184350000Y-42550000D03*
X173550000Y-48550000D03*
X184350000Y-53550000D03*
X173550000Y-37550000D03*
X179350000Y-49550000D03*
X182350000Y-52550000D03*
X182350000Y-46550000D03*
X185350000Y-41550000D03*
X173550000Y-43550000D03*
X172550000Y-44550000D03*
X174550000Y-37550000D03*
X175550000Y-36550000D03*
X174550000Y-45550000D03*
X179350000Y-42550000D03*
X172550000Y-57550000D03*
X180350000Y-59450000D03*
X180350000Y-46550000D03*
X175550000Y-40550000D03*
X176550000Y-65450000D03*
X174550000Y-44550000D03*
X175550000Y-41550000D03*
X179350000Y-36550000D03*
X172550000Y-40550000D03*
X171550000Y-64450000D03*
X175550000Y-62550000D03*
X172550000Y-45550000D03*
X171550000Y-41550000D03*
X179350000Y-53550000D03*
X182350000Y-50550000D03*
X184350000Y-54550000D03*
X175550000Y-42550000D03*
X178350000Y-60450000D03*
X182350000Y-60450000D03*
X177350000Y-52550000D03*
X172550000Y-48550000D03*
X184350000Y-52550000D03*
X176350000Y-47550000D03*
X183350000Y-41550000D03*
X174550000Y-38550000D03*
X171550000Y-43550000D03*
X171550000Y-39550000D03*
X173550000Y-58550000D03*
X183350000Y-58450000D03*
X177350000Y-47550000D03*
X182350000Y-53550000D03*
X184350000Y-40550000D03*
X177350000Y-50550000D03*
X175550000Y-57550000D03*
X178350000Y-51550000D03*
X173550000Y-53550000D03*
X172550000Y-36550000D03*
X183350000Y-52550000D03*
X172550000Y-47550000D03*
X182350000Y-55550000D03*
X183350000Y-54550000D03*
X176350000Y-49550000D03*
X173550000Y-60550000D03*
X176350000Y-55550000D03*
X182350000Y-47550000D03*
X182350000Y-59450000D03*
X174550000Y-36550000D03*
X184350000Y-59450000D03*
X181350000Y-45550000D03*
X178550000Y-61550000D03*
X175550000Y-60550000D03*
X179350000Y-37550000D03*
X175550000Y-56550000D03*
X172550000Y-60550000D03*
X182350000Y-43550000D03*
X183350000Y-40550000D03*
X175550000Y-45550000D03*
X181350000Y-42550000D03*
X182350000Y-42550000D03*
X177350000Y-55550000D03*
X178350000Y-40550000D03*
X173550000Y-51550000D03*
X171550000Y-63450000D03*
X175550000Y-50550000D03*
X174550000Y-64450000D03*
X185350000Y-51550000D03*
X185350000Y-39550000D03*
X184350000Y-43550000D03*
X174550000Y-52550000D03*
X183350000Y-60450000D03*
X181350000Y-52550000D03*
X173550000Y-47550000D03*
X185350000Y-60450000D03*
X185350000Y-43550000D03*
X178350000Y-37550000D03*
X182350000Y-36550000D03*
X177350000Y-44550000D03*
X185350000Y-42550000D03*
X179350000Y-59450000D03*
X173550000Y-39550000D03*
X174550000Y-53550000D03*
X174550000Y-43550000D03*
X172550000Y-61550000D03*
X181350000Y-53550000D03*
X171550000Y-50550000D03*
X178350000Y-56450000D03*
X175550000Y-63450000D03*
X175550000Y-61550000D03*
X180350000Y-49550000D03*
X172550000Y-51550000D03*
X176350000Y-59450000D03*
X185350000Y-58450000D03*
X172550000Y-58550000D03*
X173550000Y-52550000D03*
X172550000Y-41550000D03*
X184350000Y-39550000D03*
X180350000Y-38550000D03*
X174550000Y-57550000D03*
X180350000Y-48550000D03*
X175550000Y-65450000D03*
X172550000Y-50550000D03*
X171550000Y-61550000D03*
X171550000Y-42550000D03*
X183350000Y-50550000D03*
X181350000Y-54550000D03*
X174550000Y-48550000D03*
X176350000Y-44550000D03*
X185350000Y-56450000D03*
X176350000Y-46550000D03*
X175550000Y-64450000D03*
X173550000Y-59550000D03*
X184350000Y-37550000D03*
X174550000Y-56550000D03*
X172550000Y-63450000D03*
X173550000Y-57550000D03*
X183350000Y-57450000D03*
X178350000Y-58450000D03*
X178350000Y-49550000D03*
X179350000Y-46550000D03*
X174550000Y-50550000D03*
X176350000Y-43550000D03*
X183350000Y-56450000D03*
X173550000Y-61550000D03*
X174550000Y-59550000D03*
X178350000Y-52550000D03*
X184350000Y-49550000D03*
X177350000Y-58450000D03*
X176350000Y-48550000D03*
X176350000Y-42550000D03*
X173550000Y-49550000D03*
X180350000Y-56450000D03*
X181350000Y-38550000D03*
X174550000Y-46550000D03*
X179350000Y-55550000D03*
X172550000Y-37550000D03*
X184350000Y-46550000D03*
X179350000Y-47550000D03*
X183350000Y-53550000D03*
X181350000Y-60450000D03*
X178350000Y-36550000D03*
X182350000Y-51550000D03*
X176350000Y-45550000D03*
X171550000Y-54550000D03*
X179350000Y-41550000D03*
X184350000Y-47550000D03*
X181350000Y-41550000D03*
X172550000Y-38550000D03*
X181350000Y-56450000D03*
X177350000Y-40550000D03*
X184350000Y-41550000D03*
X175550000Y-39550000D03*
X176350000Y-52550000D03*
X171550000Y-56550000D03*
X176550000Y-61550000D03*
X185350000Y-48550000D03*
X173550000Y-36550000D03*
X182350000Y-40550000D03*
X175550000Y-59550000D03*
X183350000Y-37550000D03*
X177550000Y-61550000D03*
X174550000Y-55550000D03*
X175550000Y-37550000D03*
X183350000Y-55550000D03*
X177350000Y-39550000D03*
X172550000Y-56550000D03*
X184350000Y-50550000D03*
X177550000Y-62550000D03*
X179350000Y-60450000D03*
X172550000Y-43550000D03*
X181350000Y-47550000D03*
X180350000Y-45550000D03*
X179350000Y-48550000D03*
X177350000Y-60450000D03*
X173550000Y-50550000D03*
X178350000Y-45550000D03*
X182350000Y-49550000D03*
X175550000Y-43550000D03*
X175550000Y-44550000D03*
X180350000Y-60450000D03*
X171550000Y-53550000D03*
X185350000Y-52550000D03*
X184350000Y-56450000D03*
X185350000Y-44550000D03*
X182350000Y-54550000D03*
X176350000Y-40550000D03*
X172550000Y-53550000D03*
X172550000Y-59550000D03*
X180350000Y-41550000D03*
X176350000Y-56450000D03*
X173550000Y-63450000D03*
X174550000Y-60550000D03*
X185350000Y-57450000D03*
X178350000Y-53550000D03*
X171550000Y-38550000D03*
X176350000Y-53550000D03*
X181350000Y-44550000D03*
X184350000Y-51550000D03*
X173550000Y-64450000D03*
X184350000Y-57450000D03*
X175550000Y-53550000D03*
X177350000Y-56450000D03*
X177350000Y-42550000D03*
X175550000Y-47550000D03*
X175550000Y-48550000D03*
X177350000Y-38550000D03*
X179350000Y-44550000D03*
X175550000Y-58550000D03*
X178350000Y-54550000D03*
X182350000Y-45550000D03*
X181350000Y-51550000D03*
X179350000Y-51550000D03*
X171550000Y-40550000D03*
X180350000Y-57450000D03*
X172550000Y-39550000D03*
X174550000Y-41550000D03*
X172550000Y-54550000D03*
X180350000Y-37550000D03*
X184350000Y-58450000D03*
X182350000Y-37550000D03*
X171550000Y-65450000D03*
X183350000Y-47550000D03*
X183350000Y-38550000D03*
X172550000Y-42550000D03*
X178350000Y-46550000D03*
X177350000Y-54550000D03*
X172550000Y-46550000D03*
X181350000Y-48550000D03*
X182350000Y-38550000D03*
X175550000Y-51550000D03*
X176350000Y-39550000D03*
X182350000Y-48550000D03*
X173550000Y-41550000D03*
X176350000Y-37550000D03*
X172550000Y-64450000D03*
X178350000Y-48550000D03*
X177350000Y-43550000D03*
X181350000Y-46550000D03*
X174550000Y-42550000D03*
X177350000Y-53550000D03*
X179350000Y-52550000D03*
X178350000Y-50550000D03*
X180350000Y-54550000D03*
X184350000Y-44550000D03*
X173550000Y-45550000D03*
X180350000Y-50550000D03*
X172550000Y-55550000D03*
X179350000Y-45550000D03*
X173550000Y-62550000D03*
X182350000Y-57450000D03*
X183350000Y-51550000D03*
X181350000Y-50550000D03*
X177350000Y-37550000D03*
X180350000Y-47550000D03*
X180350000Y-52550000D03*
X185350000Y-46550000D03*
X184350000Y-36550000D03*
X171550000Y-51550000D03*
X178350000Y-42550000D03*
X185350000Y-55550000D03*
X180350000Y-51550000D03*
X185350000Y-59450000D03*
X176350000Y-50550000D03*
X174550000Y-61550000D03*
X173550000Y-55550000D03*
X178350000Y-57450000D03*
X172550000Y-49550000D03*
X174550000Y-47550000D03*
X176550000Y-62550000D03*
X182350000Y-56450000D03*
X174550000Y-51550000D03*
X175550000Y-55550000D03*
X182350000Y-44550000D03*
X176350000Y-38550000D03*
X173550000Y-56550000D03*
X173550000Y-42550000D03*
X177350000Y-59450000D03*
X173550000Y-46550000D03*
X171550000Y-37550000D03*
X180350000Y-36550000D03*
X184350000Y-55550000D03*
X178350000Y-55550000D03*
X183350000Y-46550000D03*
X185350000Y-36550000D03*
X175550000Y-38550000D03*
X171550000Y-62550000D03*
X174550000Y-62550000D03*
X173550000Y-38550000D03*
X185350000Y-40550000D03*
X171550000Y-55550000D03*
X185350000Y-38550000D03*
X174550000Y-49550000D03*
X172550000Y-62550000D03*
X176350000Y-54550000D03*
X178350000Y-44550000D03*
X181350000Y-37550000D03*
X182350000Y-39550000D03*
X173550000Y-40550000D03*
X183350000Y-45550000D03*
X185350000Y-47550000D03*
X174550000Y-40550000D03*
X180350000Y-55550000D03*
X183350000Y-59450000D03*
X177350000Y-51550000D03*
X185350000Y-50550000D03*
X178350000Y-38550000D03*
X183350000Y-42550000D03*
X173550000Y-44550000D03*
X184350000Y-48550000D03*
X171550000Y-52550000D03*
X175550000Y-54550000D03*
X181350000Y-40550000D03*
X177350000Y-48550000D03*
X178350000Y-43550000D03*
X176350000Y-51550000D03*
X174550000Y-58550000D03*
X177350000Y-36550000D03*
X185350000Y-49550000D03*
X179350000Y-54550000D03*
X174550000Y-39550000D03*
X180350000Y-40550000D03*
X180350000Y-39550000D03*
X176350000Y-57450000D03*
X177350000Y-49550000D03*
X178350000Y-59450000D03*
X183350000Y-39550000D03*
X183350000Y-49550000D03*
X172550000Y-52550000D03*
X185350000Y-53550000D03*
X179350000Y-39550000D03*
X177350000Y-46550000D03*
X179350000Y-58450000D03*
X171550000Y-49550000D03*
X181350000Y-39550000D03*
X179350000Y-57450000D03*
X184350000Y-45550000D03*
X174550000Y-54550000D03*
X179350000Y-43550000D03*
X176350000Y-60450000D03*
%TO.N,PANIC STOP*%
X114450000Y-153525000D03*
%TO.N,Current Sense_B*%
X163500000Y-78275000D03*
X178975000Y-78000000D03*
X186025000Y-77725000D03*
X120746607Y-150027142D03*
%TO.N,Current Sense_C*%
X185250000Y-26850000D03*
X117586439Y-159607845D03*
X155425000Y-32600000D03*
X180275000Y-27450000D03*
%TD*%
D34*
%TO.N,CSense_OUT_LES*%
X126075000Y-126375000D02*
X106150000Y-106450000D01*
X120525000Y-163220654D02*
X122381346Y-165077000D01*
X122381346Y-165077000D02*
X123877175Y-165077000D01*
X106150000Y-106450000D02*
X106150000Y-69205000D01*
X123877175Y-165077000D02*
X126075000Y-162879175D01*
X120525000Y-155800000D02*
X120525000Y-163220654D01*
X126075000Y-162879175D02*
X126075000Y-126375000D01*
D35*
%TO.N,+12V*%
X133826000Y-137026000D02*
X129975000Y-133175000D01*
D36*
X159525000Y-169750000D02*
X142525000Y-152750000D01*
X156675000Y-116750000D02*
X161250000Y-121325000D01*
X130073500Y-133273500D02*
X129975000Y-133175000D01*
D35*
X130125000Y-116625000D02*
X131922735Y-116625000D01*
D36*
X160175000Y-169750000D02*
X162500000Y-172075000D01*
D35*
X144411000Y-134149844D02*
X139862500Y-138698344D01*
D36*
X129975000Y-116750000D02*
X130100000Y-116625000D01*
D35*
X156550000Y-116625000D02*
X156675000Y-116750000D01*
X142525000Y-141575000D02*
X139862500Y-138912500D01*
X139862500Y-138912500D02*
X137976000Y-137026000D01*
D36*
X159525000Y-169750000D02*
X160175000Y-169750000D01*
D35*
X139862500Y-138698344D02*
X139862500Y-138912500D01*
X158900000Y-118975000D02*
X159675000Y-118975000D01*
D36*
X142525000Y-152750000D02*
X142525000Y-141575000D01*
X161250000Y-121325000D02*
X162025000Y-121325000D01*
D35*
X156675000Y-116750000D02*
X158900000Y-118975000D01*
X159675000Y-118975000D02*
X162025000Y-121325000D01*
X130125000Y-97075000D02*
X130125000Y-116625000D01*
D36*
X129975000Y-116750000D02*
X156675000Y-116750000D01*
D35*
X137976000Y-137026000D02*
X133826000Y-137026000D01*
X131922735Y-116625000D02*
X144411000Y-129113265D01*
X144411000Y-129113265D02*
X144411000Y-134149844D01*
X157225000Y-69975000D02*
X130125000Y-97075000D01*
X130125000Y-116625000D02*
X156550000Y-116625000D01*
D34*
%TO.N,BRAKE*%
X95925000Y-111425000D02*
X104723000Y-111425000D01*
X124101000Y-164144654D02*
X123669654Y-164576000D01*
X124101000Y-130803000D02*
X124101000Y-164144654D01*
X104723000Y-111425000D02*
X124101000Y-130803000D01*
X122801000Y-164576000D02*
X122175000Y-163950000D01*
X123669654Y-164576000D02*
X122801000Y-164576000D01*
%TO.N,CRUISE*%
X122749000Y-163274000D02*
X123400000Y-163925000D01*
X122749000Y-133322000D02*
X122749000Y-163274000D01*
X95925000Y-117475000D02*
X106902000Y-117475000D01*
X106902000Y-117475000D02*
X122749000Y-133322000D01*
D37*
%TO.N,BUZZER*%
X139200000Y-155750000D02*
X125975000Y-168975000D01*
X139175000Y-144975000D02*
X139200000Y-145000000D01*
X125975000Y-168975000D02*
X122475000Y-168975000D01*
X139200000Y-145000000D02*
X139200000Y-155750000D01*
D34*
%TO.N,STATUS_LED*%
X119700000Y-163475000D02*
X105900000Y-163475000D01*
X103025000Y-160600000D02*
X103025000Y-130160000D01*
X103025000Y-130160000D02*
X106360000Y-126825000D01*
X120300000Y-164075000D02*
X119700000Y-163475000D01*
X105900000Y-163475000D02*
X103025000Y-160600000D01*
%TO.N,CAN_S*%
X110681504Y-164950000D02*
X113375000Y-164950000D01*
X101524000Y-179399000D02*
X101524000Y-174107504D01*
X102525000Y-180400000D02*
X101524000Y-179399000D01*
X101524000Y-174107504D02*
X110681504Y-164950000D01*
%TO.N,+3V3*%
X104100000Y-176435000D02*
X111800000Y-176435000D01*
X103085000Y-177450000D02*
X104100000Y-176435000D01*
X102175000Y-177450000D02*
X103085000Y-177450000D01*
D36*
%TO.N,GND*%
X145550000Y-150775000D02*
X145550000Y-141775000D01*
X158900000Y-113975000D02*
X141525000Y-113975000D01*
X145550000Y-141775000D02*
X142300000Y-138525000D01*
X159525000Y-164750000D02*
X145550000Y-150775000D01*
X141525000Y-113975000D02*
X140925000Y-114575000D01*
D38*
%TO.N,/FET/LS_MOS_B*%
X144825000Y-125650000D02*
X147350000Y-125650000D01*
X147350000Y-125650000D02*
X147375000Y-125625000D01*
X147375000Y-125625000D02*
X147400000Y-125600000D01*
D34*
%TO.N,Current Sense_A*%
X121237500Y-143162500D02*
X121300000Y-143100000D01*
X120450000Y-143950000D02*
X121237500Y-143162500D01*
X120450000Y-148850000D02*
X120450000Y-143950000D01*
%TO.N,PANIC STOP*%
X113875000Y-152950000D02*
X113875000Y-130596504D01*
X114450000Y-153525000D02*
X113875000Y-152950000D01*
X113875000Y-130596504D02*
X106803496Y-123525000D01*
X106803496Y-123525000D02*
X95925000Y-123525000D01*
%TD*%
%TA.AperFunction,Conductor*%
%TO.N,/FET/Phase_A_FET/PHASE_A*%
G36*
X177641636Y-137234437D02*
G01*
X177666503Y-137244737D01*
X177666510Y-137244738D01*
X177666511Y-137244739D01*
X177821153Y-137275499D01*
X177821156Y-137275500D01*
X177821158Y-137275500D01*
X177978844Y-137275500D01*
X177978845Y-137275499D01*
X178057248Y-137259904D01*
X178133488Y-137244739D01*
X178133488Y-137244738D01*
X178133497Y-137244737D01*
X178158363Y-137234437D01*
X178205811Y-137225000D01*
X178594189Y-137225000D01*
X178641636Y-137234437D01*
X178666503Y-137244737D01*
X178666510Y-137244738D01*
X178666511Y-137244739D01*
X178821153Y-137275499D01*
X178821156Y-137275500D01*
X178821158Y-137275500D01*
X178978844Y-137275500D01*
X178978845Y-137275499D01*
X179057248Y-137259904D01*
X179133488Y-137244739D01*
X179133488Y-137244738D01*
X179133497Y-137244737D01*
X179158363Y-137234437D01*
X179205811Y-137225000D01*
X179594189Y-137225000D01*
X179641636Y-137234437D01*
X179666503Y-137244737D01*
X179666510Y-137244738D01*
X179666511Y-137244739D01*
X179821153Y-137275499D01*
X179821156Y-137275500D01*
X179821158Y-137275500D01*
X179978844Y-137275500D01*
X179978845Y-137275499D01*
X180057248Y-137259904D01*
X180133488Y-137244739D01*
X180133488Y-137244738D01*
X180133497Y-137244737D01*
X180158363Y-137234437D01*
X180205811Y-137225000D01*
X180594189Y-137225000D01*
X180641636Y-137234437D01*
X180666503Y-137244737D01*
X180666510Y-137244738D01*
X180666511Y-137244739D01*
X180821153Y-137275499D01*
X180821156Y-137275500D01*
X180821158Y-137275500D01*
X180978844Y-137275500D01*
X180978845Y-137275499D01*
X181057248Y-137259904D01*
X181133488Y-137244739D01*
X181133488Y-137244738D01*
X181133497Y-137244737D01*
X181158363Y-137234437D01*
X181205811Y-137225000D01*
X181594189Y-137225000D01*
X181641636Y-137234437D01*
X181666503Y-137244737D01*
X181666510Y-137244738D01*
X181666511Y-137244739D01*
X181821153Y-137275499D01*
X181821156Y-137275500D01*
X181821158Y-137275500D01*
X181978844Y-137275500D01*
X181978845Y-137275499D01*
X182057248Y-137259904D01*
X182133488Y-137244739D01*
X182133488Y-137244738D01*
X182133497Y-137244737D01*
X182158363Y-137234437D01*
X182205811Y-137225000D01*
X182594189Y-137225000D01*
X182641636Y-137234437D01*
X182666503Y-137244737D01*
X182666510Y-137244738D01*
X182666511Y-137244739D01*
X182821153Y-137275499D01*
X182821156Y-137275500D01*
X182821158Y-137275500D01*
X182978844Y-137275500D01*
X182978845Y-137275499D01*
X183057248Y-137259904D01*
X183133488Y-137244739D01*
X183133488Y-137244738D01*
X183133497Y-137244737D01*
X183158363Y-137234437D01*
X183205811Y-137225000D01*
X187176000Y-137225000D01*
X187243039Y-137244685D01*
X187288794Y-137297489D01*
X187300000Y-137349000D01*
X187300000Y-167623638D01*
X187280315Y-167690677D01*
X187263681Y-167711319D01*
X183836319Y-171138681D01*
X183774996Y-171172166D01*
X183748638Y-171175000D01*
X174051362Y-171175000D01*
X173984323Y-171155315D01*
X173963681Y-171138681D01*
X171586818Y-168761818D01*
X171566782Y-168735562D01*
X169916283Y-165841217D01*
X169900000Y-165779792D01*
X169900000Y-137773055D01*
X169919685Y-137706016D01*
X169972489Y-137660261D01*
X169979520Y-137657307D01*
X169989409Y-137653506D01*
X170033497Y-137644737D01*
X170179179Y-137584394D01*
X170192611Y-137575418D01*
X170205520Y-137570458D01*
X170227113Y-137568698D01*
X170247786Y-137562226D01*
X170261245Y-137565918D01*
X170275159Y-137564785D01*
X170294274Y-137574979D01*
X170315166Y-137580710D01*
X170318850Y-137583077D01*
X170320821Y-137584394D01*
X170320824Y-137584395D01*
X170320827Y-137584397D01*
X170466498Y-137644735D01*
X170466503Y-137644737D01*
X170621153Y-137675499D01*
X170621156Y-137675500D01*
X170621158Y-137675500D01*
X170778844Y-137675500D01*
X170778845Y-137675499D01*
X170933497Y-137644737D01*
X171079179Y-137584394D01*
X171131110Y-137549694D01*
X171197785Y-137528816D01*
X171265165Y-137547300D01*
X171268863Y-137549676D01*
X171320821Y-137584394D01*
X171320823Y-137584395D01*
X171320825Y-137584396D01*
X171466498Y-137644735D01*
X171466503Y-137644737D01*
X171621153Y-137675499D01*
X171621156Y-137675500D01*
X171621158Y-137675500D01*
X171778844Y-137675500D01*
X171778845Y-137675499D01*
X171933497Y-137644737D01*
X172079179Y-137584394D01*
X172131110Y-137549694D01*
X172197785Y-137528816D01*
X172265165Y-137547300D01*
X172268863Y-137549676D01*
X172320821Y-137584394D01*
X172320823Y-137584395D01*
X172320825Y-137584396D01*
X172466498Y-137644735D01*
X172466503Y-137644737D01*
X172621153Y-137675499D01*
X172621156Y-137675500D01*
X172621158Y-137675500D01*
X172778844Y-137675500D01*
X172778845Y-137675499D01*
X172933497Y-137644737D01*
X173079179Y-137584394D01*
X173210289Y-137496789D01*
X173212312Y-137494766D01*
X173213634Y-137494043D01*
X173214999Y-137492924D01*
X173215211Y-137493182D01*
X173273632Y-137461276D01*
X173343324Y-137466255D01*
X173384939Y-137492999D01*
X173385001Y-137492924D01*
X173385648Y-137493454D01*
X173387688Y-137494766D01*
X173389711Y-137496789D01*
X173520814Y-137584390D01*
X173520827Y-137584397D01*
X173666498Y-137644735D01*
X173666503Y-137644737D01*
X173821153Y-137675499D01*
X173821156Y-137675500D01*
X173821158Y-137675500D01*
X173978844Y-137675500D01*
X173978845Y-137675499D01*
X174133497Y-137644737D01*
X174279179Y-137584394D01*
X174331110Y-137549694D01*
X174397785Y-137528816D01*
X174465165Y-137547300D01*
X174468863Y-137549676D01*
X174520821Y-137584394D01*
X174520823Y-137584395D01*
X174520825Y-137584396D01*
X174666498Y-137644735D01*
X174666503Y-137644737D01*
X174821153Y-137675499D01*
X174821156Y-137675500D01*
X174821158Y-137675500D01*
X174978844Y-137675500D01*
X174978845Y-137675499D01*
X175133497Y-137644737D01*
X175279179Y-137584394D01*
X175331110Y-137549694D01*
X175397785Y-137528816D01*
X175465165Y-137547300D01*
X175468863Y-137549676D01*
X175520821Y-137584394D01*
X175520823Y-137584395D01*
X175520825Y-137584396D01*
X175666498Y-137644735D01*
X175666503Y-137644737D01*
X175821153Y-137675499D01*
X175821156Y-137675500D01*
X175821158Y-137675500D01*
X175978844Y-137675500D01*
X175978845Y-137675499D01*
X176133497Y-137644737D01*
X176279179Y-137584394D01*
X176410289Y-137496789D01*
X176521789Y-137385289D01*
X176575632Y-137304707D01*
X176629242Y-137259904D01*
X176698567Y-137251196D01*
X176702925Y-137251982D01*
X176821155Y-137275500D01*
X176821158Y-137275500D01*
X176978844Y-137275500D01*
X176978845Y-137275499D01*
X177057248Y-137259904D01*
X177133488Y-137244739D01*
X177133488Y-137244738D01*
X177133497Y-137244737D01*
X177158363Y-137234437D01*
X177205811Y-137225000D01*
X177594189Y-137225000D01*
X177641636Y-137234437D01*
G37*
%TD.AperFunction*%
%TD*%
%TA.AperFunction,Conductor*%
%TO.N,/FET/Phase_B_FET/PHASE_B*%
G36*
X177166636Y-86484437D02*
G01*
X177191503Y-86494737D01*
X177191510Y-86494738D01*
X177191511Y-86494739D01*
X177346153Y-86525499D01*
X177346156Y-86525500D01*
X177346158Y-86525500D01*
X177503844Y-86525500D01*
X177503845Y-86525499D01*
X177582248Y-86509904D01*
X177658488Y-86494739D01*
X177658488Y-86494738D01*
X177658497Y-86494737D01*
X177683363Y-86484437D01*
X177730811Y-86475000D01*
X178119189Y-86475000D01*
X178166636Y-86484437D01*
X178191503Y-86494737D01*
X178191510Y-86494738D01*
X178191511Y-86494739D01*
X178346153Y-86525499D01*
X178346156Y-86525500D01*
X178346158Y-86525500D01*
X178503844Y-86525500D01*
X178503845Y-86525499D01*
X178582248Y-86509904D01*
X178658488Y-86494739D01*
X178658488Y-86494738D01*
X178658497Y-86494737D01*
X178683363Y-86484437D01*
X178730811Y-86475000D01*
X179119189Y-86475000D01*
X179166636Y-86484437D01*
X179191503Y-86494737D01*
X179191510Y-86494738D01*
X179191511Y-86494739D01*
X179346153Y-86525499D01*
X179346156Y-86525500D01*
X179346158Y-86525500D01*
X179503844Y-86525500D01*
X179503845Y-86525499D01*
X179582248Y-86509904D01*
X179658488Y-86494739D01*
X179658488Y-86494738D01*
X179658497Y-86494737D01*
X179683363Y-86484437D01*
X179730811Y-86475000D01*
X180119189Y-86475000D01*
X180166636Y-86484437D01*
X180191503Y-86494737D01*
X180191510Y-86494738D01*
X180191511Y-86494739D01*
X180346153Y-86525499D01*
X180346156Y-86525500D01*
X180346158Y-86525500D01*
X180503844Y-86525500D01*
X180503845Y-86525499D01*
X180582248Y-86509904D01*
X180658488Y-86494739D01*
X180658488Y-86494738D01*
X180658497Y-86494737D01*
X180683363Y-86484437D01*
X180730811Y-86475000D01*
X181119189Y-86475000D01*
X181166636Y-86484437D01*
X181191503Y-86494737D01*
X181191510Y-86494738D01*
X181191511Y-86494739D01*
X181346153Y-86525499D01*
X181346156Y-86525500D01*
X181346158Y-86525500D01*
X181503844Y-86525500D01*
X181503845Y-86525499D01*
X181582248Y-86509904D01*
X181658488Y-86494739D01*
X181658488Y-86494738D01*
X181658497Y-86494737D01*
X181683363Y-86484437D01*
X181730811Y-86475000D01*
X182119189Y-86475000D01*
X182166636Y-86484437D01*
X182191503Y-86494737D01*
X182191510Y-86494738D01*
X182191511Y-86494739D01*
X182346153Y-86525499D01*
X182346156Y-86525500D01*
X182346158Y-86525500D01*
X182503844Y-86525500D01*
X182503845Y-86525499D01*
X182582248Y-86509904D01*
X182658488Y-86494739D01*
X182658488Y-86494738D01*
X182658497Y-86494737D01*
X182683363Y-86484437D01*
X182730811Y-86475000D01*
X186701000Y-86475000D01*
X186768039Y-86494685D01*
X186813794Y-86547489D01*
X186825000Y-86599000D01*
X186825000Y-116873638D01*
X186805315Y-116940677D01*
X186788681Y-116961319D01*
X183361319Y-120388681D01*
X183299996Y-120422166D01*
X183273638Y-120425000D01*
X173576362Y-120425000D01*
X173509323Y-120405315D01*
X173488681Y-120388681D01*
X171111818Y-118011818D01*
X171091782Y-117985562D01*
X169441283Y-115091217D01*
X169425000Y-115029792D01*
X169425000Y-87023055D01*
X169444685Y-86956016D01*
X169497489Y-86910261D01*
X169504520Y-86907307D01*
X169514409Y-86903506D01*
X169558497Y-86894737D01*
X169704179Y-86834394D01*
X169717611Y-86825418D01*
X169730520Y-86820458D01*
X169752113Y-86818698D01*
X169772786Y-86812226D01*
X169786245Y-86815918D01*
X169800159Y-86814785D01*
X169819274Y-86824979D01*
X169840166Y-86830710D01*
X169843850Y-86833077D01*
X169845821Y-86834394D01*
X169845824Y-86834395D01*
X169845827Y-86834397D01*
X169991498Y-86894735D01*
X169991503Y-86894737D01*
X170146153Y-86925499D01*
X170146156Y-86925500D01*
X170146158Y-86925500D01*
X170303844Y-86925500D01*
X170303845Y-86925499D01*
X170458497Y-86894737D01*
X170604179Y-86834394D01*
X170656110Y-86799694D01*
X170722785Y-86778816D01*
X170790165Y-86797300D01*
X170793863Y-86799676D01*
X170845821Y-86834394D01*
X170845823Y-86834395D01*
X170845825Y-86834396D01*
X170991498Y-86894735D01*
X170991503Y-86894737D01*
X171146153Y-86925499D01*
X171146156Y-86925500D01*
X171146158Y-86925500D01*
X171303844Y-86925500D01*
X171303845Y-86925499D01*
X171458497Y-86894737D01*
X171604179Y-86834394D01*
X171656110Y-86799694D01*
X171722785Y-86778816D01*
X171790165Y-86797300D01*
X171793863Y-86799676D01*
X171845821Y-86834394D01*
X171845823Y-86834395D01*
X171845825Y-86834396D01*
X171991498Y-86894735D01*
X171991503Y-86894737D01*
X172146153Y-86925499D01*
X172146156Y-86925500D01*
X172146158Y-86925500D01*
X172303844Y-86925500D01*
X172303845Y-86925499D01*
X172458497Y-86894737D01*
X172604179Y-86834394D01*
X172735289Y-86746789D01*
X172737312Y-86744766D01*
X172738634Y-86744043D01*
X172739999Y-86742924D01*
X172740211Y-86743182D01*
X172798632Y-86711276D01*
X172868324Y-86716255D01*
X172909939Y-86742999D01*
X172910001Y-86742924D01*
X172910648Y-86743454D01*
X172912688Y-86744766D01*
X172914711Y-86746789D01*
X173045814Y-86834390D01*
X173045827Y-86834397D01*
X173191498Y-86894735D01*
X173191503Y-86894737D01*
X173346153Y-86925499D01*
X173346156Y-86925500D01*
X173346158Y-86925500D01*
X173503844Y-86925500D01*
X173503845Y-86925499D01*
X173658497Y-86894737D01*
X173804179Y-86834394D01*
X173856110Y-86799694D01*
X173922785Y-86778816D01*
X173990165Y-86797300D01*
X173993863Y-86799676D01*
X174045821Y-86834394D01*
X174045823Y-86834395D01*
X174045825Y-86834396D01*
X174191498Y-86894735D01*
X174191503Y-86894737D01*
X174346153Y-86925499D01*
X174346156Y-86925500D01*
X174346158Y-86925500D01*
X174503844Y-86925500D01*
X174503845Y-86925499D01*
X174658497Y-86894737D01*
X174804179Y-86834394D01*
X174856110Y-86799694D01*
X174922785Y-86778816D01*
X174990165Y-86797300D01*
X174993863Y-86799676D01*
X175045821Y-86834394D01*
X175045823Y-86834395D01*
X175045825Y-86834396D01*
X175191498Y-86894735D01*
X175191503Y-86894737D01*
X175346153Y-86925499D01*
X175346156Y-86925500D01*
X175346158Y-86925500D01*
X175503844Y-86925500D01*
X175503845Y-86925499D01*
X175658497Y-86894737D01*
X175804179Y-86834394D01*
X175935289Y-86746789D01*
X176046789Y-86635289D01*
X176100632Y-86554707D01*
X176154242Y-86509904D01*
X176223567Y-86501196D01*
X176227925Y-86501982D01*
X176346155Y-86525500D01*
X176346158Y-86525500D01*
X176503844Y-86525500D01*
X176503845Y-86525499D01*
X176582248Y-86509904D01*
X176658488Y-86494739D01*
X176658488Y-86494738D01*
X176658497Y-86494737D01*
X176683363Y-86484437D01*
X176730811Y-86475000D01*
X177119189Y-86475000D01*
X177166636Y-86484437D01*
G37*
%TD.AperFunction*%
%TD*%
%TA.AperFunction,Conductor*%
%TO.N,/FET/Phase_C_FET/PHASE_C*%
G36*
X176391636Y-35609437D02*
G01*
X176416503Y-35619737D01*
X176416510Y-35619738D01*
X176416511Y-35619739D01*
X176571153Y-35650499D01*
X176571156Y-35650500D01*
X176571158Y-35650500D01*
X176728844Y-35650500D01*
X176728845Y-35650499D01*
X176807248Y-35634904D01*
X176883488Y-35619739D01*
X176883488Y-35619738D01*
X176883497Y-35619737D01*
X176908363Y-35609437D01*
X176955811Y-35600000D01*
X177344189Y-35600000D01*
X177391636Y-35609437D01*
X177416503Y-35619737D01*
X177416510Y-35619738D01*
X177416511Y-35619739D01*
X177571153Y-35650499D01*
X177571156Y-35650500D01*
X177571158Y-35650500D01*
X177728844Y-35650500D01*
X177728845Y-35650499D01*
X177807248Y-35634904D01*
X177883488Y-35619739D01*
X177883488Y-35619738D01*
X177883497Y-35619737D01*
X177908363Y-35609437D01*
X177955811Y-35600000D01*
X178344189Y-35600000D01*
X178391636Y-35609437D01*
X178416503Y-35619737D01*
X178416510Y-35619738D01*
X178416511Y-35619739D01*
X178571153Y-35650499D01*
X178571156Y-35650500D01*
X178571158Y-35650500D01*
X178728844Y-35650500D01*
X178728845Y-35650499D01*
X178807248Y-35634904D01*
X178883488Y-35619739D01*
X178883488Y-35619738D01*
X178883497Y-35619737D01*
X178908363Y-35609437D01*
X178955811Y-35600000D01*
X179344189Y-35600000D01*
X179391636Y-35609437D01*
X179416503Y-35619737D01*
X179416510Y-35619738D01*
X179416511Y-35619739D01*
X179571153Y-35650499D01*
X179571156Y-35650500D01*
X179571158Y-35650500D01*
X179728844Y-35650500D01*
X179728845Y-35650499D01*
X179807248Y-35634904D01*
X179883488Y-35619739D01*
X179883488Y-35619738D01*
X179883497Y-35619737D01*
X179908363Y-35609437D01*
X179955811Y-35600000D01*
X180344189Y-35600000D01*
X180391636Y-35609437D01*
X180416503Y-35619737D01*
X180416510Y-35619738D01*
X180416511Y-35619739D01*
X180571153Y-35650499D01*
X180571156Y-35650500D01*
X180571158Y-35650500D01*
X180728844Y-35650500D01*
X180728845Y-35650499D01*
X180807248Y-35634904D01*
X180883488Y-35619739D01*
X180883488Y-35619738D01*
X180883497Y-35619737D01*
X180908363Y-35609437D01*
X180955811Y-35600000D01*
X181344189Y-35600000D01*
X181391636Y-35609437D01*
X181416503Y-35619737D01*
X181416510Y-35619738D01*
X181416511Y-35619739D01*
X181571153Y-35650499D01*
X181571156Y-35650500D01*
X181571158Y-35650500D01*
X181728844Y-35650500D01*
X181728845Y-35650499D01*
X181807248Y-35634904D01*
X181883488Y-35619739D01*
X181883488Y-35619738D01*
X181883497Y-35619737D01*
X181908363Y-35609437D01*
X181955811Y-35600000D01*
X185926000Y-35600000D01*
X185993039Y-35619685D01*
X186038794Y-35672489D01*
X186050000Y-35724000D01*
X186050000Y-65998638D01*
X186030315Y-66065677D01*
X186013681Y-66086319D01*
X182586319Y-69513681D01*
X182524996Y-69547166D01*
X182498638Y-69550000D01*
X172801362Y-69550000D01*
X172734323Y-69530315D01*
X172713681Y-69513681D01*
X170336818Y-67136818D01*
X170316782Y-67110562D01*
X168666283Y-64216217D01*
X168650000Y-64154792D01*
X168650000Y-36148055D01*
X168669685Y-36081016D01*
X168722489Y-36035261D01*
X168729520Y-36032307D01*
X168739409Y-36028506D01*
X168783497Y-36019737D01*
X168929179Y-35959394D01*
X168942611Y-35950418D01*
X168955520Y-35945458D01*
X168977113Y-35943698D01*
X168997786Y-35937226D01*
X169011245Y-35940918D01*
X169025159Y-35939785D01*
X169044274Y-35949979D01*
X169065166Y-35955710D01*
X169068850Y-35958077D01*
X169070821Y-35959394D01*
X169070824Y-35959395D01*
X169070827Y-35959397D01*
X169216498Y-36019735D01*
X169216503Y-36019737D01*
X169371153Y-36050499D01*
X169371156Y-36050500D01*
X169371158Y-36050500D01*
X169528844Y-36050500D01*
X169528845Y-36050499D01*
X169683497Y-36019737D01*
X169829179Y-35959394D01*
X169881110Y-35924694D01*
X169947785Y-35903816D01*
X170015165Y-35922300D01*
X170018863Y-35924676D01*
X170070821Y-35959394D01*
X170070823Y-35959395D01*
X170070825Y-35959396D01*
X170216498Y-36019735D01*
X170216503Y-36019737D01*
X170371153Y-36050499D01*
X170371156Y-36050500D01*
X170371158Y-36050500D01*
X170528844Y-36050500D01*
X170528845Y-36050499D01*
X170683497Y-36019737D01*
X170829179Y-35959394D01*
X170881110Y-35924694D01*
X170947785Y-35903816D01*
X171015165Y-35922300D01*
X171018863Y-35924676D01*
X171070821Y-35959394D01*
X171070823Y-35959395D01*
X171070825Y-35959396D01*
X171216498Y-36019735D01*
X171216503Y-36019737D01*
X171371153Y-36050499D01*
X171371156Y-36050500D01*
X171371158Y-36050500D01*
X171528844Y-36050500D01*
X171528845Y-36050499D01*
X171683497Y-36019737D01*
X171829179Y-35959394D01*
X171960289Y-35871789D01*
X171962312Y-35869766D01*
X171963634Y-35869043D01*
X171964999Y-35867924D01*
X171965211Y-35868182D01*
X172023632Y-35836276D01*
X172093324Y-35841255D01*
X172134939Y-35867999D01*
X172135001Y-35867924D01*
X172135648Y-35868454D01*
X172137688Y-35869766D01*
X172139711Y-35871789D01*
X172270814Y-35959390D01*
X172270827Y-35959397D01*
X172416498Y-36019735D01*
X172416503Y-36019737D01*
X172571153Y-36050499D01*
X172571156Y-36050500D01*
X172571158Y-36050500D01*
X172728844Y-36050500D01*
X172728845Y-36050499D01*
X172883497Y-36019737D01*
X173029179Y-35959394D01*
X173081110Y-35924694D01*
X173147785Y-35903816D01*
X173215165Y-35922300D01*
X173218863Y-35924676D01*
X173270821Y-35959394D01*
X173270823Y-35959395D01*
X173270825Y-35959396D01*
X173416498Y-36019735D01*
X173416503Y-36019737D01*
X173571153Y-36050499D01*
X173571156Y-36050500D01*
X173571158Y-36050500D01*
X173728844Y-36050500D01*
X173728845Y-36050499D01*
X173883497Y-36019737D01*
X174029179Y-35959394D01*
X174081110Y-35924694D01*
X174147785Y-35903816D01*
X174215165Y-35922300D01*
X174218863Y-35924676D01*
X174270821Y-35959394D01*
X174270823Y-35959395D01*
X174270825Y-35959396D01*
X174416498Y-36019735D01*
X174416503Y-36019737D01*
X174571153Y-36050499D01*
X174571156Y-36050500D01*
X174571158Y-36050500D01*
X174728844Y-36050500D01*
X174728845Y-36050499D01*
X174883497Y-36019737D01*
X175029179Y-35959394D01*
X175160289Y-35871789D01*
X175271789Y-35760289D01*
X175325632Y-35679707D01*
X175379242Y-35634904D01*
X175448567Y-35626196D01*
X175452925Y-35626982D01*
X175571155Y-35650500D01*
X175571158Y-35650500D01*
X175728844Y-35650500D01*
X175728845Y-35650499D01*
X175807248Y-35634904D01*
X175883488Y-35619739D01*
X175883488Y-35619738D01*
X175883497Y-35619737D01*
X175908363Y-35609437D01*
X175955811Y-35600000D01*
X176344189Y-35600000D01*
X176391636Y-35609437D01*
G37*
%TD.AperFunction*%
%TD*%
%TA.AperFunction,Conductor*%
%TO.N,-VDC*%
G36*
X127990677Y-28419685D02*
G01*
X128011319Y-28436319D01*
X149388681Y-49813681D01*
X149422166Y-49875004D01*
X149425000Y-49901362D01*
X149425000Y-75601610D01*
X149405315Y-75668649D01*
X149388681Y-75689291D01*
X146764291Y-78313681D01*
X146702968Y-78347166D01*
X146676610Y-78350000D01*
X125426362Y-78350000D01*
X125359323Y-78330315D01*
X125338681Y-78313681D01*
X123207273Y-76182273D01*
X123173788Y-76120950D01*
X123178772Y-76051258D01*
X123207275Y-76006909D01*
X123216966Y-75997219D01*
X123216968Y-75997215D01*
X123216971Y-75997213D01*
X123329759Y-75841971D01*
X123337287Y-75831610D01*
X123430220Y-75649219D01*
X123493477Y-75454534D01*
X123525500Y-75252352D01*
X123525500Y-75047648D01*
X123493477Y-74845466D01*
X123493476Y-74845462D01*
X123493476Y-74845461D01*
X123472562Y-74781094D01*
X123461694Y-74747648D01*
X127824500Y-74747648D01*
X127824500Y-74952351D01*
X127856522Y-75154534D01*
X127919781Y-75349223D01*
X127973441Y-75454534D01*
X128008949Y-75524223D01*
X128012715Y-75531613D01*
X128133028Y-75697213D01*
X128277786Y-75841971D01*
X128432749Y-75954556D01*
X128443390Y-75962287D01*
X128550713Y-76016971D01*
X128625776Y-76055218D01*
X128625778Y-76055218D01*
X128625781Y-76055220D01*
X128730137Y-76089127D01*
X128820465Y-76118477D01*
X128921557Y-76134488D01*
X129022648Y-76150500D01*
X129022649Y-76150500D01*
X129227351Y-76150500D01*
X129227352Y-76150500D01*
X129429534Y-76118477D01*
X129624219Y-76055220D01*
X129806610Y-75962287D01*
X129930579Y-75872219D01*
X129972213Y-75841971D01*
X129972215Y-75841968D01*
X129972219Y-75841966D01*
X130116966Y-75697219D01*
X130116968Y-75697215D01*
X130116971Y-75697213D01*
X130186429Y-75601610D01*
X130237287Y-75531610D01*
X130330220Y-75349219D01*
X130393477Y-75154534D01*
X130425500Y-74952352D01*
X130425500Y-74922648D01*
X134849500Y-74922648D01*
X134849500Y-75127351D01*
X134881522Y-75329534D01*
X134944781Y-75524223D01*
X135037715Y-75706613D01*
X135158028Y-75872213D01*
X135302786Y-76016971D01*
X135442500Y-76118477D01*
X135468390Y-76137287D01*
X135556680Y-76182273D01*
X135650776Y-76230218D01*
X135650778Y-76230218D01*
X135650781Y-76230220D01*
X135749473Y-76262287D01*
X135845465Y-76293477D01*
X135946557Y-76309488D01*
X136047648Y-76325500D01*
X136047649Y-76325500D01*
X136252351Y-76325500D01*
X136252352Y-76325500D01*
X136454534Y-76293477D01*
X136649219Y-76230220D01*
X136831610Y-76137287D01*
X136924590Y-76069732D01*
X136997213Y-76016971D01*
X136997215Y-76016968D01*
X136997219Y-76016966D01*
X137141966Y-75872219D01*
X137141968Y-75872215D01*
X137141971Y-75872213D01*
X137194732Y-75799590D01*
X137262287Y-75706610D01*
X137355220Y-75524219D01*
X137418477Y-75329534D01*
X137450500Y-75127352D01*
X137450500Y-74922648D01*
X137418477Y-74720466D01*
X137355220Y-74525781D01*
X137355218Y-74525778D01*
X137355218Y-74525776D01*
X137321503Y-74459607D01*
X137262287Y-74343390D01*
X137232783Y-74302781D01*
X137141971Y-74177786D01*
X136997213Y-74033028D01*
X136831613Y-73912715D01*
X136831612Y-73912714D01*
X136831610Y-73912713D01*
X136724297Y-73858034D01*
X136649223Y-73819781D01*
X136454534Y-73756522D01*
X136279995Y-73728878D01*
X136252352Y-73724500D01*
X136047648Y-73724500D01*
X136023329Y-73728351D01*
X135845465Y-73756522D01*
X135650776Y-73819781D01*
X135468386Y-73912715D01*
X135302786Y-74033028D01*
X135158028Y-74177786D01*
X135037715Y-74343386D01*
X134944781Y-74525776D01*
X134881522Y-74720465D01*
X134849500Y-74922648D01*
X130425500Y-74922648D01*
X130425500Y-74747648D01*
X130393477Y-74545466D01*
X130387079Y-74525776D01*
X130330218Y-74350776D01*
X130296503Y-74284607D01*
X130237287Y-74168390D01*
X130229556Y-74157749D01*
X130116971Y-74002786D01*
X129972213Y-73858028D01*
X129806613Y-73737715D01*
X129806612Y-73737714D01*
X129806610Y-73737713D01*
X129749653Y-73708691D01*
X129624223Y-73644781D01*
X129429534Y-73581522D01*
X129254995Y-73553878D01*
X129227352Y-73549500D01*
X129022648Y-73549500D01*
X128998329Y-73553351D01*
X128820465Y-73581522D01*
X128625776Y-73644781D01*
X128443386Y-73737715D01*
X128277786Y-73858028D01*
X128133028Y-74002786D01*
X128012715Y-74168386D01*
X127919781Y-74350776D01*
X127856522Y-74545465D01*
X127824500Y-74747648D01*
X123461694Y-74747648D01*
X123430218Y-74650776D01*
X123376559Y-74545466D01*
X123337287Y-74468390D01*
X123329556Y-74457749D01*
X123216971Y-74302786D01*
X123072213Y-74158028D01*
X122906613Y-74037715D01*
X122906612Y-74037714D01*
X122906610Y-74037713D01*
X122838052Y-74002781D01*
X122724223Y-73944781D01*
X122529534Y-73881522D01*
X122354995Y-73853878D01*
X122327352Y-73849500D01*
X122249000Y-73849500D01*
X122181961Y-73829815D01*
X122136206Y-73777011D01*
X122125000Y-73725500D01*
X122125000Y-66356902D01*
X128499500Y-66356902D01*
X128499500Y-66593097D01*
X128536446Y-66826368D01*
X128609433Y-67050996D01*
X128716657Y-67261433D01*
X128855483Y-67452510D01*
X129022490Y-67619517D01*
X129213567Y-67758343D01*
X129312991Y-67809002D01*
X129424003Y-67865566D01*
X129424005Y-67865566D01*
X129424008Y-67865568D01*
X129544412Y-67904689D01*
X129648631Y-67938553D01*
X129881903Y-67975500D01*
X129881908Y-67975500D01*
X130118097Y-67975500D01*
X130351368Y-67938553D01*
X130575992Y-67865568D01*
X130786433Y-67758343D01*
X130977510Y-67619517D01*
X131144517Y-67452510D01*
X131283343Y-67261433D01*
X131390568Y-67050992D01*
X131463553Y-66826368D01*
X131500500Y-66593097D01*
X131500500Y-66356902D01*
X131463553Y-66123631D01*
X131390566Y-65899003D01*
X131283342Y-65688566D01*
X131144517Y-65497490D01*
X130977510Y-65330483D01*
X130786433Y-65191657D01*
X130575996Y-65084433D01*
X130351368Y-65011446D01*
X130118097Y-64974500D01*
X130118092Y-64974500D01*
X129881908Y-64974500D01*
X129881903Y-64974500D01*
X129648631Y-65011446D01*
X129424003Y-65084433D01*
X129213566Y-65191657D01*
X129104550Y-65270862D01*
X129022490Y-65330483D01*
X129022488Y-65330485D01*
X129022487Y-65330485D01*
X128855485Y-65497487D01*
X128855485Y-65497488D01*
X128855483Y-65497490D01*
X128795862Y-65579550D01*
X128716657Y-65688566D01*
X128609433Y-65899003D01*
X128536446Y-66123631D01*
X128499500Y-66356902D01*
X122125000Y-66356902D01*
X122125000Y-57606902D01*
X142674500Y-57606902D01*
X142674500Y-57843097D01*
X142711446Y-58076368D01*
X142784433Y-58300996D01*
X142891657Y-58511433D01*
X143030483Y-58702510D01*
X143197490Y-58869517D01*
X143388567Y-59008343D01*
X143487991Y-59059002D01*
X143599003Y-59115566D01*
X143599005Y-59115566D01*
X143599008Y-59115568D01*
X143719412Y-59154689D01*
X143823631Y-59188553D01*
X144056903Y-59225500D01*
X144056908Y-59225500D01*
X144293097Y-59225500D01*
X144526368Y-59188553D01*
X144750992Y-59115568D01*
X144961433Y-59008343D01*
X145152510Y-58869517D01*
X145319517Y-58702510D01*
X145458343Y-58511433D01*
X145565568Y-58300992D01*
X145638553Y-58076368D01*
X145675500Y-57843097D01*
X145675500Y-57606902D01*
X145638553Y-57373631D01*
X145565566Y-57149003D01*
X145458342Y-56938566D01*
X145319517Y-56747490D01*
X145152510Y-56580483D01*
X144961433Y-56441657D01*
X144914313Y-56417648D01*
X144750996Y-56334433D01*
X144526368Y-56261446D01*
X144293097Y-56224500D01*
X144293092Y-56224500D01*
X144056908Y-56224500D01*
X144056903Y-56224500D01*
X143823631Y-56261446D01*
X143599003Y-56334433D01*
X143388566Y-56441657D01*
X143279550Y-56520862D01*
X143197490Y-56580483D01*
X143197488Y-56580485D01*
X143197487Y-56580485D01*
X143030485Y-56747487D01*
X143030485Y-56747488D01*
X143030483Y-56747490D01*
X142974507Y-56824534D01*
X142891657Y-56938566D01*
X142784433Y-57149003D01*
X142711446Y-57373631D01*
X142674500Y-57606902D01*
X122125000Y-57606902D01*
X122125000Y-51625000D01*
X119581902Y-49081902D01*
X128424500Y-49081902D01*
X128424500Y-49318097D01*
X128461446Y-49551368D01*
X128534433Y-49775996D01*
X128574434Y-49854501D01*
X128641657Y-49986433D01*
X128780483Y-50177510D01*
X128947490Y-50344517D01*
X129138567Y-50483343D01*
X129237991Y-50534002D01*
X129349003Y-50590566D01*
X129349005Y-50590566D01*
X129349008Y-50590568D01*
X129469412Y-50629689D01*
X129573631Y-50663553D01*
X129806903Y-50700500D01*
X129806908Y-50700500D01*
X130043097Y-50700500D01*
X130276368Y-50663553D01*
X130500992Y-50590568D01*
X130711433Y-50483343D01*
X130902510Y-50344517D01*
X131069517Y-50177510D01*
X131208343Y-49986433D01*
X131315568Y-49775992D01*
X131388553Y-49551368D01*
X131412558Y-49399808D01*
X131425500Y-49318097D01*
X131425500Y-49081902D01*
X131388553Y-48848631D01*
X131315566Y-48624003D01*
X131208342Y-48413566D01*
X131208156Y-48413310D01*
X131069517Y-48222490D01*
X130902510Y-48055483D01*
X130711433Y-47916657D01*
X130500996Y-47809433D01*
X130276368Y-47736446D01*
X130043097Y-47699500D01*
X130043092Y-47699500D01*
X129806908Y-47699500D01*
X129806903Y-47699500D01*
X129573631Y-47736446D01*
X129349003Y-47809433D01*
X129138566Y-47916657D01*
X129029550Y-47995862D01*
X128947490Y-48055483D01*
X128947488Y-48055485D01*
X128947487Y-48055485D01*
X128780485Y-48222487D01*
X128780485Y-48222488D01*
X128780483Y-48222490D01*
X128720862Y-48304550D01*
X128641657Y-48413566D01*
X128534433Y-48624003D01*
X128461446Y-48848631D01*
X128424500Y-49081902D01*
X119581902Y-49081902D01*
X111886319Y-41386319D01*
X111852834Y-41324996D01*
X111850000Y-41298638D01*
X111850000Y-28976362D01*
X111869685Y-28909323D01*
X111886319Y-28888681D01*
X112338681Y-28436319D01*
X112400004Y-28402834D01*
X112426362Y-28400000D01*
X127923638Y-28400000D01*
X127990677Y-28419685D01*
G37*
%TD.AperFunction*%
%TD*%
M02*
