%TF.GenerationSoftware,KiCad,Pcbnew,9.0.7*%
%TF.CreationDate,2026-02-26T16:01:44+03:00*%
%TF.ProjectId,Motor_Driver_Shell_Eco,4d6f746f-725f-4447-9269-7665725f5368,rev?*%
%TF.SameCoordinates,Original*%
%TF.FileFunction,Copper,L2,Inr*%
%TF.FilePolarity,Positive*%
%FSLAX46Y46*%
G04 Gerber Fmt 4.6, Leading zero omitted, Abs format (unit mm)*
G04 Created by KiCad (PCBNEW 9.0.7) date 2026-02-26 16:01:44*
%MOMM*%
%LPD*%
G01*
G04 APERTURE LIST*
G04 Aperture macros list*
%AMRoundRect*
0 Rectangle with rounded corners*
0 $1 Rounding radius*
0 $2 $3 $4 $5 $6 $7 $8 $9 X,Y pos of 4 corners*
0 Add a 4 corners polygon primitive as box body*
4,1,4,$2,$3,$4,$5,$6,$7,$8,$9,$2,$3,0*
0 Add four circle primitives for the rounded corners*
1,1,$1+$1,$2,$3*
1,1,$1+$1,$4,$5*
1,1,$1+$1,$6,$7*
1,1,$1+$1,$8,$9*
0 Add four rect primitives between the rounded corners*
20,1,$1+$1,$2,$3,$4,$5,0*
20,1,$1+$1,$4,$5,$6,$7,0*
20,1,$1+$1,$6,$7,$8,$9,0*
20,1,$1+$1,$8,$9,$2,$3,0*%
G04 Aperture macros list end*
%TA.AperFunction,ComponentPad*%
%ADD10R,2.000000X2.000000*%
%TD*%
%TA.AperFunction,ComponentPad*%
%ADD11C,2.000000*%
%TD*%
%TA.AperFunction,ComponentPad*%
%ADD12R,1.800000X1.800000*%
%TD*%
%TA.AperFunction,ComponentPad*%
%ADD13C,1.800000*%
%TD*%
%TA.AperFunction,ComponentPad*%
%ADD14R,1.350000X1.350000*%
%TD*%
%TA.AperFunction,ComponentPad*%
%ADD15C,1.350000*%
%TD*%
%TA.AperFunction,ComponentPad*%
%ADD16C,1.600000*%
%TD*%
%TA.AperFunction,ComponentPad*%
%ADD17R,1.000000X1.000000*%
%TD*%
%TA.AperFunction,ComponentPad*%
%ADD18C,1.000000*%
%TD*%
%TA.AperFunction,ComponentPad*%
%ADD19RoundRect,0.250000X-0.650000X-0.650000X0.650000X-0.650000X0.650000X0.650000X-0.650000X0.650000X0*%
%TD*%
%TA.AperFunction,ComponentPad*%
%ADD20RoundRect,0.250000X0.550000X-0.550000X0.550000X0.550000X-0.550000X0.550000X-0.550000X-0.550000X0*%
%TD*%
%TA.AperFunction,ComponentPad*%
%ADD21C,1.500000*%
%TD*%
%TA.AperFunction,HeatsinkPad*%
%ADD22O,1.000000X2.100000*%
%TD*%
%TA.AperFunction,HeatsinkPad*%
%ADD23O,1.000000X1.800000*%
%TD*%
%TA.AperFunction,ComponentPad*%
%ADD24C,0.800000*%
%TD*%
%TA.AperFunction,ComponentPad*%
%ADD25C,7.400000*%
%TD*%
%TA.AperFunction,HeatsinkPad*%
%ADD26C,0.500000*%
%TD*%
%TA.AperFunction,ViaPad*%
%ADD27C,0.600000*%
%TD*%
%TA.AperFunction,Conductor*%
%ADD28C,5.000000*%
%TD*%
%TA.AperFunction,Conductor*%
%ADD29C,2.000000*%
%TD*%
%TA.AperFunction,Conductor*%
%ADD30C,0.400000*%
%TD*%
%TA.AperFunction,Conductor*%
%ADD31C,1.000000*%
%TD*%
%TA.AperFunction,Conductor*%
%ADD32C,0.300000*%
%TD*%
G04 APERTURE END LIST*
D10*
%TO.N,+5V*%
%TO.C,BZ1*%
X93514277Y-62690000D03*
D11*
%TO.N,Net-(BZ1--)*%
X93514277Y-55090000D03*
%TD*%
%TO.N,+3V3*%
%TO.C,SW2*%
X65834277Y-39870000D03*
X72334277Y-39870000D03*
%TO.N,/MCU/BOOT0*%
X65834277Y-44370000D03*
X72334277Y-44370000D03*
%TD*%
D12*
%TO.N,GND*%
%TO.C,D3*%
X101944277Y-49720000D03*
D13*
%TO.N,Net-(D3-A)*%
X99404277Y-49720000D03*
%TD*%
D11*
%TO.N,+VDC*%
%TO.C,C3*%
X178435000Y-107740000D03*
%TO.N,-VDC*%
X185935000Y-107740000D03*
%TD*%
%TO.N,+VDC*%
%TO.C,C2*%
X178775000Y-91230000D03*
%TO.N,-VDC*%
X186275000Y-91230000D03*
%TD*%
D14*
%TO.N,GND*%
%TO.C,J12*%
X46000000Y-59500000D03*
D15*
%TO.N,PANIC STOP*%
X46000000Y-61500000D03*
%TD*%
D14*
%TO.N,+3V3*%
%TO.C,J9*%
X46000000Y-47050000D03*
D15*
%TO.N,REGEN*%
X46000000Y-49050000D03*
%TO.N,GND*%
X46000000Y-51050000D03*
%TD*%
D14*
%TO.N,GND*%
%TO.C,J7*%
X46075000Y-54250000D03*
D15*
%TO.N,BRAKE*%
X46075000Y-56250000D03*
%TD*%
D16*
%TO.N,Net-(Q1-B)*%
%TO.C,R11*%
X82274277Y-56230000D03*
%TO.N,BUZZER*%
X82274277Y-48610000D03*
%TD*%
%TO.N,+VDC*%
%TO.C,C6*%
X171345000Y-91930000D03*
%TO.N,-VDC*%
X168845000Y-91930000D03*
%TD*%
D17*
%TO.N,Net-(JP1-A)*%
%TO.C,JP1*%
X96964277Y-49740000D03*
D18*
%TO.N,Net-(JP1-C)*%
X95694277Y-49740000D03*
%TO.N,Net-(JP1-B)*%
X94424277Y-49740000D03*
%TD*%
D14*
%TO.N,/MCU/I2C_SCL*%
%TO.C,J1*%
X75185000Y-77570000D03*
D15*
%TO.N,/MCU/I2C_SDA*%
X77185000Y-77570000D03*
%TO.N,+5V*%
X79185000Y-77570000D03*
%TO.N,GND*%
X81185000Y-77570000D03*
%TD*%
D14*
%TO.N,Net-(J2-Pin_1)*%
%TO.C,J2*%
X83780000Y-72730000D03*
D15*
%TO.N,Net-(J2-Pin_2)*%
X85780000Y-72730000D03*
%TO.N,Net-(J2-Pin_3)*%
X87780000Y-72730000D03*
%TO.N,+5V*%
X89780000Y-72730000D03*
%TO.N,GND*%
X91780000Y-72730000D03*
%TD*%
D13*
%TO.N,/FET/Phase_B_FET/PHASE_B*%
%TO.C,MP2*%
X88445908Y-155024235D03*
X88445908Y-152484235D03*
X88445908Y-149944235D03*
X88445908Y-147404235D03*
X96065908Y-147404235D03*
X96065908Y-149944235D03*
X96065908Y-152484235D03*
X96065908Y-155024235D03*
%TD*%
D17*
%TO.N,+3V3*%
%TO.C,J5*%
X68204277Y-50550000D03*
D18*
%TO.N,SWCLK*%
X69474277Y-50550000D03*
%TO.N,GND*%
X70744277Y-50550000D03*
%TO.N,SWDIO*%
X72014277Y-50550000D03*
%TD*%
D14*
%TO.N,GND*%
%TO.C,J13*%
X93815000Y-41280000D03*
D15*
%TO.N,Net-(J13-Pin_2)*%
X91815000Y-41280000D03*
%TD*%
D13*
%TO.N,/FET/Phase_C_FET/PHASE_C*%
%TO.C,MP3*%
X132688929Y-147276832D03*
X132688929Y-149816832D03*
X132688929Y-152356832D03*
X132688929Y-154896832D03*
X125068929Y-154896832D03*
X125068929Y-152356832D03*
X125068929Y-149816832D03*
X125068929Y-147276832D03*
%TD*%
%TO.N,/FET/Phase_A_FET/PHASE_A*%
%TO.C,MP1*%
X59167017Y-147453168D03*
X59167017Y-149993168D03*
X59167017Y-152533168D03*
X59167017Y-155073168D03*
X51547017Y-155073168D03*
X51547017Y-152533168D03*
X51547017Y-149993168D03*
X51547017Y-147453168D03*
%TD*%
D16*
%TO.N,+12V*%
%TO.C,C89*%
X46857017Y-112013168D03*
%TO.N,-VDC*%
X51857017Y-112013168D03*
%TD*%
D19*
%TO.N,+VDC*%
%TO.C,D1*%
X186660000Y-123610000D03*
D13*
%TO.N,-VDC*%
X196820000Y-123610000D03*
%TD*%
D16*
%TO.N,+3V3*%
%TO.C,R50*%
X46400000Y-75720000D03*
%TO.N,TEMP_SENSOR*%
X46400000Y-68100000D03*
%TD*%
D20*
%TO.N,+5V*%
%TO.C,D2*%
X85754277Y-62750000D03*
D16*
%TO.N,Net-(BZ1--)*%
X85754277Y-55130000D03*
%TD*%
%TO.N,+VDC*%
%TO.C,C4*%
X171345000Y-107630000D03*
%TO.N,-VDC*%
X168845000Y-107630000D03*
%TD*%
D14*
%TO.N,+3V3*%
%TO.C,J8*%
X46000000Y-39000000D03*
D15*
%TO.N,ACCEL*%
X46000000Y-41000000D03*
%TO.N,GND*%
X46000000Y-43000000D03*
%TD*%
D14*
%TO.N,GND*%
%TO.C,J4*%
X43100000Y-66200000D03*
D15*
%TO.N,TEMP_SENSOR*%
X43100000Y-68200000D03*
%TD*%
D21*
%TO.N,Net-(U1-PF0)*%
%TO.C,Y1*%
X51834277Y-59270000D03*
%TO.N,Net-(U1-PF1)*%
X51834277Y-64170000D03*
%TD*%
D11*
%TO.N,GND*%
%TO.C,SW1*%
X56234277Y-39870000D03*
X62734277Y-39870000D03*
%TO.N,/MCU/NRST*%
X56234277Y-44370000D03*
X62734277Y-44370000D03*
%TD*%
D22*
%TO.N,GND*%
%TO.C,J11*%
X83725000Y-39400000D03*
D23*
X83725000Y-35220000D03*
D22*
X75085000Y-39400000D03*
D23*
X75085000Y-35220000D03*
%TD*%
D11*
%TO.N,+VDC*%
%TO.C,C1*%
X196765000Y-96260000D03*
%TO.N,-VDC*%
X196765000Y-103760000D03*
%TD*%
D24*
%TO.N,-VDC*%
%TO.C,H2*%
X187905000Y-78219442D03*
X188717779Y-76257221D03*
X188717779Y-80181663D03*
X190680000Y-75444442D03*
D25*
X190680000Y-78219442D03*
D24*
X190680000Y-80994442D03*
X192642221Y-76257221D03*
X192642221Y-80181663D03*
X193455000Y-78219442D03*
%TD*%
D26*
%TO.N,-VDC*%
%TO.C,U2*%
X163230000Y-78547500D03*
X164530000Y-78547500D03*
X165830000Y-78547500D03*
X167130000Y-78547500D03*
X163230000Y-77247500D03*
X164530000Y-77247500D03*
X165830000Y-77247500D03*
X167130000Y-77247500D03*
%TD*%
D24*
%TO.N,+VDC*%
%TO.C,H1*%
X189262779Y-134637779D03*
X190075558Y-132675558D03*
X190075558Y-136600000D03*
X192037779Y-131862779D03*
D25*
X192037779Y-134637779D03*
D24*
X192037779Y-137412779D03*
X194000000Y-132675558D03*
X194000000Y-136600000D03*
X194812779Y-134637779D03*
%TD*%
D16*
%TO.N,+VDC*%
%TO.C,R1*%
X201830000Y-120460000D03*
%TO.N,-VDC*%
X186590000Y-120460000D03*
%TD*%
%TO.N,+VDC*%
%TO.C,C5*%
X171345000Y-99780000D03*
%TO.N,-VDC*%
X168845000Y-99780000D03*
%TD*%
D14*
%TO.N,Net-(J3-Pin_1)*%
%TO.C,J3*%
X88635000Y-35440000D03*
D15*
%TO.N,Net-(J3-Pin_2)*%
X86635000Y-35440000D03*
%TD*%
D16*
%TO.N,Net-(Q1-B)*%
%TO.C,R20*%
X89964277Y-50590000D03*
%TO.N,GND*%
X89964277Y-58210001D03*
%TD*%
%TO.N,+12V*%
%TO.C,C90*%
X120218929Y-111846832D03*
%TO.N,-VDC*%
X125218929Y-111846832D03*
%TD*%
%TO.N,+12V*%
%TO.C,C88*%
X83845908Y-112664235D03*
%TO.N,-VDC*%
X88845908Y-112664235D03*
%TD*%
D27*
%TO.N,*%
X75397500Y-165200000D03*
%TO.N,Net-(U2-VCC)*%
X165815000Y-74250000D03*
X165815000Y-75335000D03*
X165815000Y-73185000D03*
%TO.N,Net-(U2-SW)*%
X169800000Y-71600000D03*
X162775000Y-73250000D03*
%TO.N,+12V*%
X115000000Y-140400000D03*
X128800000Y-77900000D03*
X127800000Y-77900000D03*
X128800000Y-79900000D03*
X127800000Y-78900000D03*
X127800000Y-79900000D03*
X126800000Y-78900000D03*
X128800000Y-78900000D03*
X126800000Y-77900000D03*
X126800000Y-79900000D03*
%TO.N,+5V*%
X83000000Y-59600000D03*
X81900000Y-40800000D03*
X94800000Y-43500000D03*
X116575000Y-70175000D03*
X77005000Y-39975000D03*
X88185000Y-46600000D03*
%TO.N,VREF+*%
X64434277Y-65410000D03*
X63934277Y-64810000D03*
%TO.N,/MCU/NRST*%
X59584277Y-55750000D03*
%TO.N,HALL_A*%
X79295000Y-64240000D03*
%TO.N,HALL_B*%
X77865000Y-65760000D03*
%TO.N,HALL_C*%
X76358109Y-67268004D03*
%TO.N,Net-(U9-VS)*%
X50457017Y-123613168D03*
%TO.N,/MCU/I2C_SDA*%
X71015000Y-60310000D03*
X77175000Y-72710000D03*
%TO.N,/MCU/I2C_SCL*%
X75145000Y-72760000D03*
X70165000Y-60800000D03*
%TO.N,Net-(J2-Pin_2)*%
X84755000Y-67060000D03*
X82575000Y-65870000D03*
%TO.N,Net-(J2-Pin_3)*%
X85875000Y-69500000D03*
X82815000Y-68990000D03*
%TO.N,BRAKE*%
X61500000Y-64500000D03*
%TO.N,ACCEL*%
X61750000Y-58250000D03*
%TO.N,REGEN*%
X70750000Y-59000000D03*
%TO.N,Net-(Q14-Pad1)*%
X59857017Y-113413168D03*
%TO.N,Net-(Q15-Pad1)*%
X70657017Y-113613168D03*
%TO.N,Net-(Q16-Pad1)*%
X59257017Y-137413168D03*
%TO.N,Net-(Q17-Pad1)*%
X70157017Y-137413168D03*
%TO.N,BUZZER*%
X77325000Y-47950000D03*
%TO.N,STATUS_LED*%
X63935000Y-56050000D03*
%TO.N,+3V3F*%
X81315000Y-139500000D03*
X121700000Y-153600000D03*
X123774533Y-138087500D03*
X154115000Y-139482500D03*
X87378910Y-138250000D03*
X117615000Y-139800000D03*
X160515000Y-137812500D03*
X121015000Y-139730000D03*
X84495004Y-139439996D03*
X157215000Y-138800000D03*
%TO.N,HS_MOS_C*%
X67154277Y-73090000D03*
%TO.N,/FET/HS_MOS_A*%
X63874277Y-72830000D03*
%TO.N,LS_MOS_C*%
X67934277Y-73640000D03*
%TO.N,+3V3*%
X79000000Y-73600000D03*
X65114277Y-68140000D03*
X68600000Y-66370000D03*
X79900000Y-62600000D03*
X59584277Y-41295000D03*
X53214277Y-53610000D03*
X87680723Y-68014931D03*
X72404277Y-74590000D03*
X78674277Y-60855000D03*
X66124277Y-56020000D03*
X81930000Y-70460000D03*
%TO.N,VDD_1*%
X59994277Y-68090000D03*
%TO.N,Current_Sense_C*%
X57200000Y-72000000D03*
X71800000Y-69900000D03*
%TO.N,CAN_RX*%
X87715000Y-47630000D03*
X67425000Y-52440000D03*
%TO.N,TEMP_SENSOR*%
X55600000Y-67200000D03*
X75100000Y-58970000D03*
%TO.N,CAN_TX*%
X68115000Y-52860000D03*
X86205000Y-48280000D03*
%TO.N,VDD_4*%
X71164277Y-55970000D03*
%TO.N,GND*%
X57584277Y-46870000D03*
X71064277Y-57710000D03*
X55434277Y-64245000D03*
X50276777Y-51300000D03*
X64100000Y-62500000D03*
X81525000Y-61500000D03*
X70000000Y-67800000D03*
X59984277Y-66380000D03*
X86900000Y-44100000D03*
X69324277Y-73800000D03*
X77400000Y-62590000D03*
X55200000Y-51882500D03*
X78900000Y-58050000D03*
X84625000Y-41910000D03*
X67031777Y-46470000D03*
X63200000Y-66380000D03*
X55434277Y-59195000D03*
X85815000Y-49690000D03*
X83100000Y-62125000D03*
X89964277Y-59500000D03*
X88900000Y-82600000D03*
X77631480Y-69092646D03*
X85200000Y-82400000D03*
X86887500Y-42312500D03*
%TO.N,/FET/LS_MOS_B*%
X66348517Y-73056396D03*
%TO.N,/FET/LS_MOS_A*%
X64672409Y-72884667D03*
%TO.N,/FET/HS_MOS_B*%
X65459862Y-73025811D03*
%TO.N,-VDC*%
X56615000Y-87900000D03*
X73715000Y-89700000D03*
X134915000Y-88800000D03*
X84965000Y-130650000D03*
X62915000Y-87900000D03*
X78215000Y-86100000D03*
X101615000Y-87900000D03*
X67415000Y-86100000D03*
X98015000Y-86100000D03*
X57515000Y-86100000D03*
X138515000Y-86100000D03*
X56615000Y-88800000D03*
X103415000Y-88800000D03*
X145715000Y-87000000D03*
X107015000Y-86100000D03*
X61115000Y-89700000D03*
X152915000Y-87000000D03*
X140315000Y-88800000D03*
X62915000Y-86100000D03*
X149315000Y-86100000D03*
X98015000Y-87000000D03*
X138515000Y-87000000D03*
X146615000Y-87000000D03*
X58415000Y-87900000D03*
X107915000Y-89700000D03*
X111515000Y-86100000D03*
X107015000Y-87900000D03*
X114445908Y-91289235D03*
X104315000Y-88800000D03*
X97415908Y-92339235D03*
X57515000Y-88800000D03*
X75515000Y-86100000D03*
X70115000Y-86100000D03*
X106115000Y-87000000D03*
X62015000Y-87900000D03*
X135815000Y-88800000D03*
X99815000Y-88800000D03*
X136715000Y-88800000D03*
X110615000Y-87000000D03*
X58415000Y-87000000D03*
X65615000Y-87900000D03*
X120515000Y-88800000D03*
X72815000Y-87000000D03*
X117815000Y-86100000D03*
X122665000Y-142344140D03*
X159015000Y-129900000D03*
X153815000Y-89700000D03*
X98915000Y-86100000D03*
X105215000Y-87000000D03*
X96215000Y-88800000D03*
X66515000Y-87900000D03*
X143015000Y-88800000D03*
X74615000Y-86100000D03*
X133115000Y-87000000D03*
X120665000Y-130700000D03*
X122465000Y-129800000D03*
X100715000Y-87000000D03*
X153815000Y-87000000D03*
X67415000Y-89700000D03*
X61115000Y-88800000D03*
X118715000Y-87000000D03*
X78215000Y-87900000D03*
X76415000Y-88800000D03*
X121565000Y-130700000D03*
X105215000Y-87900000D03*
X107915000Y-87900000D03*
X57515000Y-87900000D03*
X99815000Y-87900000D03*
X131315000Y-89700000D03*
X73715000Y-87000000D03*
X147515000Y-88800000D03*
X80015000Y-88800000D03*
X154015000Y-140700000D03*
X154715000Y-88800000D03*
X86515000Y-142150000D03*
X97115000Y-87000000D03*
X108815000Y-87000000D03*
X62015000Y-89700000D03*
X71915000Y-89700000D03*
X99815000Y-89700000D03*
X159215000Y-89700000D03*
X104315000Y-87900000D03*
X156315000Y-129000000D03*
X96215000Y-87900000D03*
X119615000Y-88800000D03*
X79115000Y-87900000D03*
X114215000Y-86100000D03*
X66515000Y-88800000D03*
X159215000Y-87900000D03*
X71915000Y-87000000D03*
X62015000Y-88800000D03*
X134015000Y-86100000D03*
X62015000Y-87000000D03*
X155615000Y-87900000D03*
X98015000Y-89700000D03*
X146615000Y-87900000D03*
X141528929Y-92124332D03*
X78215000Y-89700000D03*
X101615000Y-87000000D03*
X71015000Y-86100000D03*
X77315000Y-89700000D03*
X136715000Y-87900000D03*
X120665000Y-129800000D03*
X161915000Y-87900000D03*
X152015000Y-87900000D03*
X66515000Y-86100000D03*
X98015000Y-87900000D03*
X119765000Y-129800000D03*
X102515000Y-86100000D03*
X96215000Y-89700000D03*
X160115000Y-89700000D03*
X77315000Y-87900000D03*
X152015000Y-89700000D03*
X72207017Y-91425668D03*
X157415000Y-88800000D03*
X140315000Y-89700000D03*
X139415000Y-87900000D03*
X108815000Y-89700000D03*
X159215000Y-86100000D03*
X140315000Y-87900000D03*
X74615000Y-87900000D03*
X154715000Y-86100000D03*
X141215000Y-87900000D03*
X58415000Y-88800000D03*
X60215000Y-87900000D03*
X157215000Y-129000000D03*
X120515000Y-87900000D03*
X118715000Y-87900000D03*
X71015000Y-87900000D03*
X151115000Y-88800000D03*
X161915000Y-88800000D03*
X136715000Y-89700000D03*
X152915000Y-87900000D03*
X131315000Y-87000000D03*
X158315000Y-86100000D03*
X157415000Y-87900000D03*
X55715000Y-87000000D03*
X71015000Y-89700000D03*
X114215000Y-88800000D03*
X69215000Y-86100000D03*
X155615000Y-88800000D03*
X150215000Y-88800000D03*
X97115000Y-86100000D03*
X103415000Y-89700000D03*
X62915000Y-87000000D03*
X162815000Y-87900000D03*
X97115000Y-89700000D03*
X107915000Y-87000000D03*
X55715000Y-89700000D03*
X104315000Y-86100000D03*
X152015000Y-88800000D03*
X151115000Y-89700000D03*
X150215000Y-87000000D03*
X106115000Y-89700000D03*
X57515000Y-89700000D03*
X110615000Y-89700000D03*
X115115000Y-88800000D03*
X152915000Y-86100000D03*
X112415000Y-86100000D03*
X66457017Y-92425668D03*
X83165000Y-129750000D03*
X100715000Y-88800000D03*
X61115000Y-87900000D03*
X111515000Y-87900000D03*
X102515000Y-87000000D03*
X63815000Y-87900000D03*
X68315000Y-89700000D03*
X134915000Y-89700000D03*
X98015000Y-88800000D03*
X81315000Y-140635000D03*
X98915000Y-87900000D03*
X66515000Y-89700000D03*
X80015000Y-86100000D03*
X119615000Y-89700000D03*
X154715000Y-87900000D03*
X148415000Y-87900000D03*
X75515000Y-87900000D03*
X70115000Y-87000000D03*
X154715000Y-89700000D03*
X83165000Y-130650000D03*
X158115000Y-129000000D03*
X73715000Y-87900000D03*
X161015000Y-87000000D03*
X143015000Y-89700000D03*
X120515000Y-89700000D03*
X98915000Y-88800000D03*
X99815000Y-86100000D03*
X68315000Y-87900000D03*
X138515000Y-87900000D03*
X122465000Y-130700000D03*
X147515000Y-89700000D03*
X67415000Y-88800000D03*
X145715000Y-89700000D03*
X145715000Y-88800000D03*
X79115000Y-88800000D03*
X142115000Y-87900000D03*
X156515000Y-86100000D03*
X75915000Y-91450000D03*
X111515000Y-89700000D03*
X64715000Y-87900000D03*
X63815000Y-87000000D03*
X157415000Y-86100000D03*
X80015000Y-87900000D03*
X63957017Y-92425668D03*
X149315000Y-89700000D03*
X139415000Y-87000000D03*
X135815000Y-86100000D03*
X141215000Y-87000000D03*
X108815000Y-87900000D03*
X156515000Y-87900000D03*
X116915000Y-86100000D03*
X140315000Y-86100000D03*
X107915000Y-86100000D03*
X56615000Y-89700000D03*
X141215000Y-89700000D03*
X132215000Y-87900000D03*
X76415000Y-89700000D03*
X112415000Y-87900000D03*
X131315000Y-87900000D03*
X59315000Y-86100000D03*
X79115000Y-89700000D03*
X60215000Y-89700000D03*
X57515000Y-87000000D03*
X66515000Y-87000000D03*
X73715000Y-86100000D03*
X55715000Y-87900000D03*
X100715000Y-89700000D03*
X137615000Y-87000000D03*
X64715000Y-86100000D03*
X120314000Y-141349000D03*
X99945908Y-92339235D03*
X62915000Y-89700000D03*
X136715000Y-86100000D03*
X133115000Y-89700000D03*
X63815000Y-89700000D03*
X160115000Y-87000000D03*
X77315000Y-87000000D03*
X148415000Y-89700000D03*
X140315000Y-87000000D03*
X114215000Y-89700000D03*
X56615000Y-87000000D03*
X65615000Y-86100000D03*
X144028929Y-92124332D03*
X161915000Y-87000000D03*
X96215000Y-86100000D03*
X111515000Y-87000000D03*
X60215000Y-86100000D03*
X162815000Y-88800000D03*
X98915000Y-89700000D03*
X95315000Y-89700000D03*
X153815000Y-87900000D03*
X155615000Y-86100000D03*
X78215000Y-88800000D03*
X80015000Y-87000000D03*
X72815000Y-89700000D03*
X73715000Y-88800000D03*
X149315000Y-88800000D03*
X159215000Y-88800000D03*
X55715000Y-86100000D03*
X158315000Y-87000000D03*
X132215000Y-89700000D03*
X148415000Y-88800000D03*
X95315000Y-86100000D03*
X71015000Y-87000000D03*
X138515000Y-89700000D03*
X156315000Y-129900000D03*
X109715000Y-89700000D03*
X85865000Y-130650000D03*
X158315000Y-87900000D03*
X142115000Y-87000000D03*
X152915000Y-89700000D03*
X159665000Y-142150000D03*
X149315000Y-87900000D03*
X153815000Y-86100000D03*
X117650000Y-71950000D03*
X109715000Y-87000000D03*
X137615000Y-87900000D03*
X150215000Y-87900000D03*
X159015000Y-129000000D03*
X119765000Y-130700000D03*
X74615000Y-88800000D03*
X120515000Y-87000000D03*
X152015000Y-86100000D03*
X143015000Y-87000000D03*
X116915000Y-89700000D03*
X162815000Y-86100000D03*
X99815000Y-87000000D03*
X134015000Y-88800000D03*
X75515000Y-87000000D03*
X101615000Y-88800000D03*
X136528929Y-92049332D03*
X106115000Y-88800000D03*
X69215000Y-87900000D03*
X158315000Y-88800000D03*
X69215000Y-87000000D03*
X144815000Y-86100000D03*
X115115000Y-87900000D03*
X151115000Y-87000000D03*
X61457017Y-92425668D03*
X143915000Y-89700000D03*
X98915000Y-87000000D03*
X160115000Y-86100000D03*
X156515000Y-87000000D03*
X134015000Y-87900000D03*
X134915000Y-87900000D03*
X76415000Y-87900000D03*
X105215000Y-86100000D03*
X106115000Y-87900000D03*
X65615000Y-89700000D03*
X154715000Y-87000000D03*
X161915000Y-86100000D03*
X119615000Y-87900000D03*
X75515000Y-88800000D03*
X109715000Y-87900000D03*
X153815000Y-88800000D03*
X139415000Y-86100000D03*
X68315000Y-86100000D03*
X161015000Y-86100000D03*
X146615000Y-88800000D03*
X118865000Y-129800000D03*
X104945908Y-92339235D03*
X96215000Y-87000000D03*
X117815000Y-87900000D03*
X59315000Y-88800000D03*
X157415000Y-89700000D03*
X69215000Y-89700000D03*
X144815000Y-87000000D03*
X79115000Y-87000000D03*
X113315000Y-86100000D03*
X102515000Y-88800000D03*
X117815000Y-87000000D03*
X139415000Y-89700000D03*
X118715000Y-86100000D03*
X107015000Y-87000000D03*
X115115000Y-89700000D03*
X55715000Y-88800000D03*
X71015000Y-88800000D03*
X100715000Y-87900000D03*
X145715000Y-87900000D03*
X161015000Y-87900000D03*
X161015000Y-89700000D03*
X117665000Y-140935000D03*
X155415000Y-129900000D03*
X74615000Y-87000000D03*
X103415000Y-86100000D03*
X132215000Y-88800000D03*
X59315000Y-87000000D03*
X79115000Y-86100000D03*
X108815000Y-88800000D03*
X63815000Y-88800000D03*
X70115000Y-87900000D03*
X104315000Y-87000000D03*
X80015000Y-89700000D03*
X158315000Y-89700000D03*
X135815000Y-87000000D03*
X95315000Y-87000000D03*
X147515000Y-87000000D03*
X133115000Y-86100000D03*
X107915000Y-88800000D03*
X162815000Y-89700000D03*
X138515000Y-88800000D03*
X62915000Y-88800000D03*
X160115000Y-88800000D03*
X65615000Y-87000000D03*
X107445908Y-92339235D03*
X117815000Y-89700000D03*
X134015000Y-89700000D03*
X97115000Y-88800000D03*
X116015000Y-87000000D03*
X135815000Y-87900000D03*
X156515000Y-89700000D03*
X102445908Y-92339235D03*
X67415000Y-87900000D03*
X113315000Y-88800000D03*
X67415000Y-87000000D03*
X134015000Y-87000000D03*
X105215000Y-88800000D03*
X148415000Y-86100000D03*
X169762277Y-76756105D03*
X102515000Y-87900000D03*
X121565000Y-129800000D03*
X77315000Y-88800000D03*
X113315000Y-87000000D03*
X142115000Y-86100000D03*
X149315000Y-87000000D03*
X158115000Y-129900000D03*
X58977017Y-92363168D03*
X151115000Y-86100000D03*
X112415000Y-89700000D03*
X58415000Y-89700000D03*
X160115000Y-87900000D03*
X162815000Y-87000000D03*
X95315000Y-88800000D03*
X108815000Y-86100000D03*
X70115000Y-89700000D03*
X71915000Y-87900000D03*
X82265000Y-129750000D03*
X118715000Y-88800000D03*
X84365000Y-140950000D03*
X133115000Y-88800000D03*
X100715000Y-86100000D03*
X157215000Y-129900000D03*
X118865000Y-130700000D03*
X155615000Y-89700000D03*
X143915000Y-87000000D03*
X64715000Y-87000000D03*
X161015000Y-88800000D03*
X133115000Y-87900000D03*
X69215000Y-88800000D03*
X150215000Y-89700000D03*
X137615000Y-86100000D03*
X134028929Y-92049332D03*
X110615000Y-86100000D03*
X105215000Y-89700000D03*
X143915000Y-87900000D03*
X141215000Y-86100000D03*
X155615000Y-87000000D03*
X107015000Y-88800000D03*
X61115000Y-86100000D03*
X134915000Y-86100000D03*
X137615000Y-88800000D03*
X141215000Y-88800000D03*
X112415000Y-87000000D03*
X64715000Y-88800000D03*
X155415000Y-129000000D03*
X72815000Y-86100000D03*
X85865000Y-129750000D03*
X116015000Y-87900000D03*
X132215000Y-87000000D03*
X97115000Y-87900000D03*
X131315000Y-88800000D03*
X102515000Y-89700000D03*
X152915000Y-88800000D03*
X74615000Y-89700000D03*
X116015000Y-89700000D03*
X107015000Y-89700000D03*
X142115000Y-89700000D03*
X101615000Y-89700000D03*
X136715000Y-87000000D03*
X144815000Y-89700000D03*
X116915000Y-87900000D03*
X106115000Y-86100000D03*
X103415000Y-87000000D03*
X116015000Y-86100000D03*
X75515000Y-89700000D03*
X134915000Y-87000000D03*
X131315000Y-86100000D03*
X59315000Y-89700000D03*
X144815000Y-87900000D03*
X143915000Y-86100000D03*
X135815000Y-89700000D03*
X116015000Y-88800000D03*
X60215000Y-87000000D03*
X116915000Y-87000000D03*
X70115000Y-88800000D03*
X113315000Y-89700000D03*
X145715000Y-86100000D03*
X104315000Y-89700000D03*
X103415000Y-87900000D03*
X114215000Y-87900000D03*
X82265000Y-130650000D03*
X143015000Y-86100000D03*
X151028929Y-91061832D03*
X120515000Y-86100000D03*
X159215000Y-87000000D03*
X78215000Y-87000000D03*
X142115000Y-88800000D03*
X110615000Y-87900000D03*
X146615000Y-86100000D03*
X76415000Y-87000000D03*
X101615000Y-86100000D03*
X118715000Y-89700000D03*
X84065000Y-129750000D03*
X110615000Y-88800000D03*
X60215000Y-88800000D03*
X61115000Y-87000000D03*
X157415000Y-87000000D03*
X137615000Y-89700000D03*
X112415000Y-88800000D03*
X150215000Y-86100000D03*
X157215000Y-141150000D03*
X144815000Y-88800000D03*
X119615000Y-87000000D03*
X119615000Y-86100000D03*
X147028929Y-91061832D03*
X72815000Y-88800000D03*
X59315000Y-87900000D03*
X58415000Y-86100000D03*
X64715000Y-89700000D03*
X161915000Y-89700000D03*
X115115000Y-86100000D03*
X152015000Y-87000000D03*
X77315000Y-86100000D03*
X62015000Y-86100000D03*
X113315000Y-87900000D03*
X68315000Y-87000000D03*
X68957017Y-92425668D03*
X147515000Y-86100000D03*
X139028929Y-92124332D03*
X147515000Y-87900000D03*
X117815000Y-88800000D03*
X109715000Y-88800000D03*
X151115000Y-87900000D03*
X63815000Y-86100000D03*
X132215000Y-86100000D03*
X146615000Y-89700000D03*
X114215000Y-87000000D03*
X71915000Y-86100000D03*
X68315000Y-88800000D03*
X56615000Y-86100000D03*
X95315000Y-87900000D03*
X65615000Y-88800000D03*
X143915000Y-88800000D03*
X72815000Y-87900000D03*
X109715000Y-86100000D03*
X139415000Y-88800000D03*
X71915000Y-88800000D03*
X123319002Y-68927038D03*
X76415000Y-86100000D03*
X115115000Y-87000000D03*
X148415000Y-87000000D03*
X84965000Y-129750000D03*
X110445908Y-91289235D03*
X116915000Y-88800000D03*
X111515000Y-88800000D03*
X143015000Y-87900000D03*
X156515000Y-88800000D03*
%TO.N,Net-(D7-K)*%
X47957017Y-126313168D03*
%TO.N,Net-(U8-VIQ)*%
X89325000Y-41310000D03*
%TO.N,Net-(D4-K)*%
X85025908Y-126764235D03*
%TO.N,Net-(D5-K)*%
X121458929Y-126066832D03*
%TO.N,PANIC STOP*%
X58615378Y-58934069D03*
X49250000Y-56250000D03*
%TO.N,Net-(Q6-Pad1)*%
X96745908Y-113364235D03*
%TO.N,Net-(Q7-Pad1)*%
X96145908Y-136764235D03*
%TO.N,Net-(Q8-Pad1)*%
X107543810Y-113420246D03*
%TO.N,Net-(Q9-Pad1)*%
X106945908Y-136864235D03*
%TO.N,Net-(Q18-Pad1)*%
X133162322Y-112831484D03*
%TO.N,Net-(Q19-Pad1)*%
X132828929Y-136186832D03*
%TO.N,Net-(Q20-Pad1)*%
X143974277Y-112930238D03*
%TO.N,Net-(Q21-Pad1)*%
X143728929Y-135986832D03*
%TO.N,Net-(U6-VS)*%
X87445908Y-123364235D03*
%TO.N,Net-(U10-VS)*%
X123968929Y-123176832D03*
%TO.N,Current Sense_B*%
X58665380Y-65165380D03*
X120200000Y-142800000D03*
%TO.N,Net-(Q2-B)*%
X93807825Y-48023663D03*
%TO.N,Net-(Q7-Pad2)*%
X108145908Y-136114235D03*
X100895908Y-136164235D03*
X111745908Y-136114235D03*
X109345908Y-136114235D03*
X114145908Y-136114235D03*
X103295908Y-136164235D03*
X112945908Y-136114235D03*
X110545908Y-136114235D03*
X115345908Y-136114235D03*
X120665000Y-136750000D03*
X104495908Y-136164235D03*
X102095908Y-136164235D03*
X98495908Y-136164235D03*
X97295908Y-136164235D03*
X99695908Y-136164235D03*
%TO.N,Net-(Q16-Pad2)*%
X84115000Y-136600000D03*
X78565000Y-136375000D03*
X66465000Y-136375000D03*
X73765000Y-136375000D03*
X64065000Y-136375000D03*
X77365000Y-136375000D03*
X71315000Y-136375000D03*
X60465000Y-136375000D03*
X65265000Y-136375000D03*
X62865000Y-136375000D03*
X76165000Y-136375000D03*
X61665000Y-136375000D03*
X67665000Y-136375000D03*
X72515000Y-136375000D03*
X74965000Y-136375000D03*
%TO.N,Net-(Q19-Pad2)*%
X135178929Y-135786832D03*
X152078929Y-135836832D03*
X136378929Y-135786832D03*
X150878929Y-135836832D03*
X141178929Y-135786832D03*
X144878929Y-135836832D03*
X138778929Y-135786832D03*
X137578929Y-135786832D03*
X139978929Y-135786832D03*
X146078929Y-135836832D03*
X149678929Y-135836832D03*
X134026424Y-135968890D03*
X157200000Y-136000000D03*
X148478929Y-135836832D03*
X147278929Y-135836832D03*
%TD*%
D28*
%TO.N,+12V*%
X127848217Y-100548217D02*
X120898217Y-107498217D01*
X127800000Y-78900000D02*
X127848217Y-78948217D01*
X89110143Y-107400000D02*
X83845908Y-112664235D01*
X89110143Y-107400000D02*
X51470184Y-107400000D01*
X120800000Y-107400000D02*
X120898217Y-107498217D01*
X120218929Y-111846832D02*
X118384265Y-110012168D01*
X115772097Y-107400000D02*
X120800000Y-107400000D01*
X51470184Y-107400000D02*
X46857017Y-112013168D01*
D29*
X46857017Y-112013168D02*
X48858017Y-110012168D01*
D28*
X120898217Y-107498217D02*
X118384265Y-110012168D01*
X115772097Y-107400000D02*
X89110143Y-107400000D01*
X118384265Y-110012168D02*
X115772097Y-107400000D01*
D29*
X129200000Y-99196433D02*
X127848217Y-100548217D01*
D28*
X127848217Y-78948217D02*
X127848217Y-100548217D01*
D30*
%TO.N,+3V3F*%
X156565000Y-139450000D02*
X157215000Y-138800000D01*
X154147500Y-139450000D02*
X156565000Y-139450000D01*
X81365000Y-139450000D02*
X81315000Y-139500000D01*
X117665000Y-139750000D02*
X117615000Y-139800000D01*
X121015000Y-139730000D02*
X120995000Y-139750000D01*
X154115000Y-139482500D02*
X154147500Y-139450000D01*
X120995000Y-139750000D02*
X117665000Y-139750000D01*
X83472230Y-139439996D02*
X83462226Y-139450000D01*
X83462226Y-139450000D02*
X81365000Y-139450000D01*
X84495004Y-139439996D02*
X83472230Y-139439996D01*
D31*
%TO.N,-VDC*%
X119900000Y-140935000D02*
X120314000Y-141349000D01*
D30*
X86015000Y-142150000D02*
X86515000Y-142150000D01*
X84365000Y-140950000D02*
X84815000Y-140950000D01*
D32*
%TO.N,Current Sense_B*%
X57149000Y-72651000D02*
X42900000Y-86900000D01*
X58665380Y-65165380D02*
X58665380Y-71134620D01*
X57851000Y-72269654D02*
X57469654Y-72651000D01*
X115700000Y-158100000D02*
X120200000Y-153600000D01*
X58665380Y-71134620D02*
X57851000Y-71949000D01*
X42900000Y-152200000D02*
X48800000Y-158100000D01*
X48800000Y-158100000D02*
X115700000Y-158100000D01*
X57851000Y-71949000D02*
X57851000Y-72269654D01*
X57469654Y-72651000D02*
X57149000Y-72651000D01*
X42900000Y-86900000D02*
X42900000Y-152200000D01*
X120200000Y-153600000D02*
X120200000Y-142800000D01*
%TD*%
%TA.AperFunction,Conductor*%
%TO.N,/FET/Phase_B_FET/PHASE_B*%
G36*
X115384426Y-111259685D02*
G01*
X115405068Y-111276319D01*
X116143440Y-112014691D01*
X116143441Y-112014692D01*
X116393518Y-112264768D01*
X116427002Y-112326090D01*
X116429835Y-112353023D01*
X116335573Y-132666575D01*
X116315577Y-132733523D01*
X116262562Y-132779032D01*
X116211574Y-132790000D01*
X95235000Y-132790000D01*
X95234999Y-132790000D01*
X95234999Y-132790001D01*
X94945907Y-146164233D01*
X94945908Y-146164234D01*
X94945908Y-146164235D01*
X97171908Y-146164235D01*
X97238947Y-146183920D01*
X97284702Y-146236724D01*
X97295908Y-146288235D01*
X97295908Y-156039604D01*
X97276223Y-156106643D01*
X97223419Y-156152398D01*
X97171279Y-156163602D01*
X87569279Y-156114861D01*
X87502340Y-156094837D01*
X87456854Y-156041801D01*
X87445908Y-155990863D01*
X87445908Y-146335448D01*
X87465593Y-146268409D01*
X87518397Y-146222654D01*
X87567086Y-146211480D01*
X89645908Y-146164235D01*
X89685014Y-132790000D01*
X89695908Y-129064463D01*
X89685094Y-114665758D01*
X89704728Y-114598704D01*
X89757498Y-114552909D01*
X89810744Y-114541676D01*
X97185000Y-114640000D01*
X97185000Y-114639999D01*
X97185000Y-114099875D01*
X97204685Y-114032836D01*
X97240113Y-113996771D01*
X97256194Y-113986026D01*
X97256193Y-113986026D01*
X97256197Y-113986024D01*
X97367697Y-113874524D01*
X97455302Y-113743414D01*
X97515645Y-113597732D01*
X97546408Y-113443077D01*
X97546408Y-113285393D01*
X97546408Y-113285390D01*
X97546407Y-113285388D01*
X97515645Y-113130738D01*
X97478505Y-113041073D01*
X97455305Y-112985062D01*
X97455298Y-112985049D01*
X97367697Y-112853946D01*
X97367694Y-112853942D01*
X97256204Y-112742452D01*
X97256198Y-112742447D01*
X97240106Y-112731694D01*
X97195303Y-112678080D01*
X97185000Y-112628594D01*
X97185000Y-111414000D01*
X97204685Y-111346961D01*
X97257489Y-111301206D01*
X97309000Y-111290000D01*
X105361000Y-111290000D01*
X105428039Y-111309685D01*
X105473794Y-111362489D01*
X105485000Y-111414000D01*
X105485000Y-114640000D01*
X108035000Y-114640000D01*
X108035000Y-114112496D01*
X108054685Y-114045457D01*
X108071314Y-114024819D01*
X108165599Y-113930535D01*
X108253204Y-113799425D01*
X108313547Y-113653743D01*
X108344310Y-113499088D01*
X108344310Y-113341404D01*
X108344310Y-113341401D01*
X108344309Y-113341399D01*
X108336177Y-113300518D01*
X108313547Y-113186749D01*
X108288063Y-113125224D01*
X108253207Y-113041073D01*
X108253200Y-113041060D01*
X108165599Y-112909957D01*
X108165596Y-112909953D01*
X108071319Y-112815676D01*
X108037834Y-112754353D01*
X108035000Y-112727995D01*
X108035000Y-111364000D01*
X108054685Y-111296961D01*
X108107489Y-111251206D01*
X108159000Y-111240000D01*
X115317387Y-111240000D01*
X115384426Y-111259685D01*
G37*
%TD.AperFunction*%
%TD*%
%TA.AperFunction,Conductor*%
%TO.N,/FET/Phase_C_FET/PHASE_C*%
G36*
X152971391Y-110856517D02*
G01*
X153017146Y-110909321D01*
X153028351Y-110961407D01*
X152929502Y-132263407D01*
X152909506Y-132330355D01*
X152856491Y-132375864D01*
X152805503Y-132386832D01*
X131828929Y-132386832D01*
X131539836Y-146261066D01*
X131539837Y-146261067D01*
X133765837Y-146261067D01*
X133832876Y-146280752D01*
X133878631Y-146333556D01*
X133889837Y-146385067D01*
X133889837Y-156136436D01*
X133870152Y-156203475D01*
X133817348Y-156249230D01*
X133765208Y-156260434D01*
X124163208Y-156211693D01*
X124096269Y-156191669D01*
X124050783Y-156138633D01*
X124039837Y-156087695D01*
X124039837Y-146432280D01*
X124059522Y-146365241D01*
X124112326Y-146319486D01*
X124161015Y-146308312D01*
X126239837Y-146261067D01*
X126240060Y-146182495D01*
X126289837Y-128661290D01*
X126279023Y-114262590D01*
X126298657Y-114195536D01*
X126351427Y-114149741D01*
X126404673Y-114138508D01*
X133778929Y-114236832D01*
X133778929Y-114236831D01*
X133778929Y-113387143D01*
X133798614Y-113320104D01*
X133799827Y-113318252D01*
X133871716Y-113210663D01*
X133932059Y-113064981D01*
X133962822Y-112910326D01*
X133962822Y-112752642D01*
X133962822Y-112752639D01*
X133962821Y-112752637D01*
X133951704Y-112696748D01*
X133932059Y-112597987D01*
X133891640Y-112500406D01*
X133871719Y-112452311D01*
X133871712Y-112452298D01*
X133799827Y-112344715D01*
X133778949Y-112278038D01*
X133778929Y-112275824D01*
X133778929Y-111010832D01*
X133798614Y-110943793D01*
X133851418Y-110898038D01*
X133902929Y-110886832D01*
X141954929Y-110886832D01*
X142021968Y-110906517D01*
X142067723Y-110959321D01*
X142078929Y-111010832D01*
X142078929Y-114236832D01*
X144628929Y-114236832D01*
X144628929Y-113428959D01*
X144648614Y-113361920D01*
X144649792Y-113360119D01*
X144683671Y-113309417D01*
X144744014Y-113163735D01*
X144774777Y-113009080D01*
X144774777Y-112851396D01*
X144774777Y-112851393D01*
X144774776Y-112851391D01*
X144744015Y-112696748D01*
X144744014Y-112696741D01*
X144683671Y-112551059D01*
X144649826Y-112500406D01*
X144628949Y-112433728D01*
X144628929Y-112431516D01*
X144628929Y-110960832D01*
X144648614Y-110893793D01*
X144701418Y-110848038D01*
X144752929Y-110836832D01*
X152904352Y-110836832D01*
X152971391Y-110856517D01*
G37*
%TD.AperFunction*%
%TD*%
%TA.AperFunction,Conductor*%
%TO.N,/FET/Phase_A_FET/PHASE_A*%
G36*
X79388571Y-111358618D02*
G01*
X79434326Y-111411422D01*
X79445530Y-111463507D01*
X79432466Y-114279114D01*
X79346682Y-132765508D01*
X79326686Y-132832456D01*
X79273671Y-132877965D01*
X79222683Y-132888933D01*
X58246108Y-132888933D01*
X57907016Y-146313167D01*
X57907016Y-146313168D01*
X57907017Y-146313168D01*
X60133017Y-146313168D01*
X60200056Y-146332853D01*
X60245811Y-146385657D01*
X60257017Y-146437168D01*
X60257017Y-156038537D01*
X60237332Y-156105576D01*
X60184528Y-156151331D01*
X60132388Y-156162535D01*
X50531665Y-156113800D01*
X50464726Y-156093776D01*
X50419240Y-156040740D01*
X50408301Y-155988528D01*
X50505780Y-146533131D01*
X50526154Y-146466299D01*
X50579427Y-146421091D01*
X50626955Y-146410442D01*
X52707017Y-146363168D01*
X52707017Y-129163168D01*
X52696203Y-114764689D01*
X52715837Y-114697637D01*
X52768607Y-114651842D01*
X52821853Y-114640609D01*
X60196109Y-114738933D01*
X60196109Y-114738932D01*
X60196109Y-114215626D01*
X60215794Y-114148587D01*
X60251216Y-114112525D01*
X60367306Y-114034957D01*
X60478806Y-113923457D01*
X60566411Y-113792347D01*
X60626754Y-113646665D01*
X60657517Y-113492010D01*
X60657517Y-113334326D01*
X60657517Y-113334323D01*
X60657516Y-113334321D01*
X60637560Y-113233995D01*
X60626754Y-113179671D01*
X60626752Y-113179666D01*
X60566414Y-113033995D01*
X60566407Y-113033982D01*
X60478806Y-112902879D01*
X60478803Y-112902875D01*
X60367309Y-112791381D01*
X60367305Y-112791378D01*
X60251218Y-112713811D01*
X60206413Y-112660199D01*
X60196109Y-112610709D01*
X60196109Y-111512933D01*
X60215794Y-111445894D01*
X60268598Y-111400139D01*
X60320109Y-111388933D01*
X68372109Y-111388933D01*
X68439148Y-111408618D01*
X68484903Y-111461422D01*
X68496109Y-111512933D01*
X68496109Y-114738933D01*
X71046109Y-114738933D01*
X71046109Y-114382217D01*
X71065794Y-114315178D01*
X71101216Y-114279116D01*
X71167306Y-114234957D01*
X71278806Y-114123457D01*
X71366411Y-113992347D01*
X71426754Y-113846665D01*
X71457517Y-113692010D01*
X71457517Y-113534326D01*
X71457517Y-113534323D01*
X71457516Y-113534321D01*
X71426754Y-113379671D01*
X71407972Y-113334326D01*
X71366414Y-113233995D01*
X71366407Y-113233982D01*
X71278806Y-113102879D01*
X71278803Y-113102875D01*
X71167309Y-112991381D01*
X71101217Y-112947219D01*
X71056413Y-112893606D01*
X71046109Y-112844117D01*
X71046109Y-111462933D01*
X71065794Y-111395894D01*
X71118598Y-111350139D01*
X71170109Y-111338933D01*
X79321532Y-111338933D01*
X79388571Y-111358618D01*
G37*
%TD.AperFunction*%
%TD*%
%TA.AperFunction,Conductor*%
%TO.N,GND*%
G36*
X106572118Y-33060568D02*
G01*
X107121850Y-33078565D01*
X107129928Y-33079095D01*
X107675388Y-33132818D01*
X107683386Y-33133871D01*
X108224187Y-33223158D01*
X108232102Y-33224732D01*
X108765893Y-33349194D01*
X108773697Y-33351285D01*
X109239806Y-33492677D01*
X109298198Y-33510391D01*
X109305882Y-33513000D01*
X109818813Y-33706054D01*
X109826309Y-33709159D01*
X110002874Y-33789159D01*
X110325545Y-33935359D01*
X110332800Y-33938936D01*
X110762644Y-34168693D01*
X110816169Y-34197303D01*
X110823196Y-34201360D01*
X111288619Y-34490779D01*
X111295366Y-34495287D01*
X111471938Y-34621816D01*
X111740877Y-34814535D01*
X111747296Y-34819460D01*
X111953597Y-34988767D01*
X112170976Y-35167166D01*
X112177076Y-35172516D01*
X112577104Y-35547183D01*
X112582816Y-35552895D01*
X112752629Y-35734202D01*
X112957483Y-35952923D01*
X112962833Y-35959023D01*
X113293100Y-36361454D01*
X113310532Y-36382694D01*
X113315468Y-36389126D01*
X113370434Y-36465832D01*
X113634712Y-36834633D01*
X113639220Y-36841380D01*
X113928639Y-37306803D01*
X113932696Y-37313830D01*
X114191054Y-37797182D01*
X114194643Y-37804460D01*
X114420840Y-38303690D01*
X114423945Y-38311186D01*
X114616999Y-38824117D01*
X114619608Y-38831801D01*
X114778709Y-39356285D01*
X114780809Y-39364123D01*
X114905262Y-39897876D01*
X114906845Y-39905834D01*
X114996125Y-40446590D01*
X114997184Y-40454635D01*
X115050903Y-41000061D01*
X115051434Y-41008158D01*
X115069432Y-41557934D01*
X115069498Y-41562086D01*
X115058550Y-55828842D01*
X115058511Y-55879958D01*
X115058461Y-55880149D01*
X115058461Y-55945850D01*
X115058461Y-55945944D01*
X115058461Y-55946131D01*
X115058405Y-56019118D01*
X115058461Y-56019974D01*
X115058461Y-56244616D01*
X115094697Y-56820500D01*
X115095959Y-56840557D01*
X115122482Y-57050500D01*
X115170800Y-57432971D01*
X115170801Y-57432978D01*
X115282695Y-58019535D01*
X115282696Y-58019541D01*
X115431193Y-58597891D01*
X115615719Y-59165797D01*
X115615725Y-59165814D01*
X115835541Y-59721003D01*
X115835542Y-59721006D01*
X116076569Y-60233211D01*
X116089786Y-60261298D01*
X116377457Y-60784567D01*
X116697415Y-61288739D01*
X117048400Y-61771827D01*
X117419834Y-62220813D01*
X117429031Y-62231930D01*
X117837787Y-62667212D01*
X118273069Y-63075968D01*
X118273073Y-63075971D01*
X118273077Y-63075975D01*
X118733173Y-63456600D01*
X119216261Y-63807585D01*
X119720433Y-64127543D01*
X119720444Y-64127549D01*
X119720455Y-64127556D01*
X119897787Y-64225045D01*
X120035738Y-64300884D01*
X120085001Y-64350429D01*
X120100000Y-64409545D01*
X120100000Y-84676000D01*
X120080315Y-84743039D01*
X120027511Y-84788794D01*
X119976000Y-84800000D01*
X46219308Y-84800000D01*
X46152269Y-84780315D01*
X46106514Y-84727511D01*
X46096570Y-84658353D01*
X46125595Y-84594797D01*
X46131627Y-84588319D01*
X53872811Y-76847135D01*
X74009500Y-76847135D01*
X74009500Y-78292870D01*
X74009501Y-78292876D01*
X74015908Y-78352483D01*
X74066202Y-78487328D01*
X74066206Y-78487335D01*
X74152452Y-78602544D01*
X74152455Y-78602547D01*
X74267664Y-78688793D01*
X74267671Y-78688797D01*
X74402517Y-78739091D01*
X74402516Y-78739091D01*
X74409444Y-78739835D01*
X74462127Y-78745500D01*
X75907872Y-78745499D01*
X75967483Y-78739091D01*
X76102331Y-78688796D01*
X76217546Y-78602546D01*
X76281241Y-78517459D01*
X76337174Y-78475590D01*
X76406866Y-78470606D01*
X76453392Y-78491453D01*
X76568904Y-78575378D01*
X76622224Y-78602546D01*
X76733764Y-78659379D01*
X76733767Y-78659380D01*
X76821750Y-78687967D01*
X76909736Y-78716555D01*
X77092486Y-78745500D01*
X77092487Y-78745500D01*
X77277513Y-78745500D01*
X77277514Y-78745500D01*
X77460264Y-78716555D01*
X77636235Y-78659379D01*
X77801096Y-78575378D01*
X77950787Y-78466621D01*
X78081621Y-78335787D01*
X78084680Y-78331576D01*
X78140006Y-78288909D01*
X78209619Y-78282926D01*
X78271415Y-78315529D01*
X78285315Y-78331570D01*
X78288379Y-78335787D01*
X78419213Y-78466621D01*
X78568904Y-78575378D01*
X78622224Y-78602546D01*
X78733764Y-78659379D01*
X78733767Y-78659380D01*
X78821750Y-78687967D01*
X78909736Y-78716555D01*
X79092486Y-78745500D01*
X79092487Y-78745500D01*
X79277513Y-78745500D01*
X79277514Y-78745500D01*
X79460264Y-78716555D01*
X79636235Y-78659379D01*
X79801096Y-78575378D01*
X79950787Y-78466621D01*
X80081621Y-78335787D01*
X80190378Y-78186096D01*
X80274379Y-78021235D01*
X80331555Y-77845264D01*
X80360500Y-77662514D01*
X80360500Y-77477486D01*
X80331555Y-77294736D01*
X80274379Y-77118765D01*
X80274379Y-77118764D01*
X80190377Y-76953903D01*
X80184999Y-76946501D01*
X80081621Y-76804213D01*
X79950787Y-76673379D01*
X79801096Y-76564622D01*
X79747778Y-76537455D01*
X79636235Y-76480620D01*
X79636232Y-76480619D01*
X79460265Y-76423445D01*
X79317972Y-76400908D01*
X79277514Y-76394500D01*
X79092486Y-76394500D01*
X79052028Y-76400908D01*
X78909734Y-76423445D01*
X78733767Y-76480619D01*
X78733764Y-76480620D01*
X78568903Y-76564622D01*
X78489188Y-76622539D01*
X78419213Y-76673379D01*
X78419211Y-76673381D01*
X78419210Y-76673381D01*
X78288381Y-76804210D01*
X78285314Y-76808432D01*
X78229981Y-76851094D01*
X78160367Y-76857069D01*
X78098574Y-76824459D01*
X78084686Y-76808432D01*
X78081621Y-76804213D01*
X77950787Y-76673379D01*
X77801096Y-76564622D01*
X77747778Y-76537455D01*
X77636235Y-76480620D01*
X77636232Y-76480619D01*
X77460265Y-76423445D01*
X77317972Y-76400908D01*
X77277514Y-76394500D01*
X77092486Y-76394500D01*
X77052028Y-76400908D01*
X76909734Y-76423445D01*
X76733767Y-76480619D01*
X76733764Y-76480620D01*
X76568900Y-76564624D01*
X76453392Y-76648545D01*
X76387586Y-76672025D01*
X76319532Y-76656199D01*
X76281241Y-76622539D01*
X76239828Y-76567219D01*
X76217546Y-76537454D01*
X76217544Y-76537453D01*
X76217544Y-76537452D01*
X76102335Y-76451206D01*
X76102328Y-76451202D01*
X75967482Y-76400908D01*
X75967483Y-76400908D01*
X75907883Y-76394501D01*
X75907881Y-76394500D01*
X75907873Y-76394500D01*
X75907864Y-76394500D01*
X74462129Y-76394500D01*
X74462123Y-76394501D01*
X74402516Y-76400908D01*
X74267671Y-76451202D01*
X74267664Y-76451206D01*
X74152455Y-76537452D01*
X74152452Y-76537455D01*
X74066206Y-76652664D01*
X74066202Y-76652671D01*
X74015908Y-76787517D01*
X74009501Y-76847116D01*
X74009500Y-76847135D01*
X53872811Y-76847135D01*
X56208793Y-74511153D01*
X71603777Y-74511153D01*
X71603777Y-74668846D01*
X71634538Y-74823489D01*
X71634541Y-74823501D01*
X71694879Y-74969172D01*
X71694886Y-74969185D01*
X71782487Y-75100288D01*
X71782490Y-75100292D01*
X71893984Y-75211786D01*
X71893988Y-75211789D01*
X72025091Y-75299390D01*
X72025104Y-75299397D01*
X72170775Y-75359735D01*
X72170780Y-75359737D01*
X72325430Y-75390499D01*
X72325433Y-75390500D01*
X72325435Y-75390500D01*
X72483121Y-75390500D01*
X72483122Y-75390499D01*
X72637774Y-75359737D01*
X72783456Y-75299394D01*
X72914566Y-75211789D01*
X73026066Y-75100289D01*
X73113671Y-74969179D01*
X73174014Y-74823497D01*
X73204777Y-74668842D01*
X73204777Y-74511158D01*
X73204777Y-74511155D01*
X73204776Y-74511153D01*
X73192915Y-74451523D01*
X73174014Y-74356503D01*
X73154501Y-74309394D01*
X73113674Y-74210827D01*
X73113667Y-74210814D01*
X73026066Y-74079711D01*
X73026063Y-74079707D01*
X72914569Y-73968213D01*
X72914565Y-73968210D01*
X72783462Y-73880609D01*
X72783449Y-73880602D01*
X72637778Y-73820264D01*
X72637766Y-73820261D01*
X72483122Y-73789500D01*
X72483119Y-73789500D01*
X72325435Y-73789500D01*
X72325432Y-73789500D01*
X72170787Y-73820261D01*
X72170775Y-73820264D01*
X72025104Y-73880602D01*
X72025091Y-73880609D01*
X71893988Y-73968210D01*
X71893984Y-73968213D01*
X71782490Y-74079707D01*
X71782487Y-74079711D01*
X71694886Y-74210814D01*
X71694879Y-74210827D01*
X71634541Y-74356498D01*
X71634538Y-74356510D01*
X71603777Y-74511153D01*
X56208793Y-74511153D01*
X57382127Y-73337819D01*
X57443450Y-73304334D01*
X57469808Y-73301500D01*
X57533725Y-73301500D01*
X57618269Y-73284682D01*
X57659398Y-73276501D01*
X57777781Y-73227465D01*
X57779351Y-73226415D01*
X57780983Y-73225326D01*
X57846970Y-73181235D01*
X57884323Y-73156277D01*
X58289447Y-72751153D01*
X63073777Y-72751153D01*
X63073777Y-72908846D01*
X63104538Y-73063489D01*
X63104541Y-73063501D01*
X63164879Y-73209172D01*
X63164886Y-73209185D01*
X63252487Y-73340288D01*
X63252490Y-73340292D01*
X63363984Y-73451786D01*
X63363988Y-73451789D01*
X63495091Y-73539390D01*
X63495104Y-73539397D01*
X63640775Y-73599735D01*
X63640780Y-73599737D01*
X63775919Y-73626618D01*
X63795430Y-73630499D01*
X63795433Y-73630500D01*
X63795435Y-73630500D01*
X63953121Y-73630500D01*
X63953122Y-73630499D01*
X64107774Y-73599737D01*
X64166270Y-73575506D01*
X64235736Y-73568038D01*
X64282611Y-73586965D01*
X64293230Y-73594061D01*
X64293231Y-73594061D01*
X64293232Y-73594062D01*
X64293234Y-73594063D01*
X64431790Y-73651454D01*
X64438912Y-73654404D01*
X64593562Y-73685166D01*
X64593565Y-73685167D01*
X64593567Y-73685167D01*
X64751253Y-73685167D01*
X64812265Y-73673030D01*
X64897026Y-73656170D01*
X64966616Y-73662397D01*
X64990108Y-73674685D01*
X65080676Y-73735201D01*
X65080689Y-73735208D01*
X65217418Y-73791842D01*
X65226365Y-73795548D01*
X65346171Y-73819379D01*
X65381015Y-73826310D01*
X65381018Y-73826311D01*
X65381020Y-73826311D01*
X65538706Y-73826311D01*
X65538707Y-73826310D01*
X65693359Y-73795548D01*
X65829985Y-73738955D01*
X65899454Y-73731487D01*
X65946328Y-73750415D01*
X65969338Y-73765790D01*
X65969340Y-73765790D01*
X65969344Y-73765793D01*
X66100848Y-73820263D01*
X66115020Y-73826133D01*
X66228939Y-73848793D01*
X66269670Y-73856895D01*
X66269673Y-73856896D01*
X66269675Y-73856896D01*
X66427361Y-73856896D01*
X66427362Y-73856895D01*
X66582014Y-73826133D01*
X66664800Y-73791841D01*
X66734265Y-73784373D01*
X66770707Y-73797047D01*
X66775100Y-73799395D01*
X66894366Y-73848796D01*
X66920780Y-73859737D01*
X67075430Y-73890499D01*
X67075433Y-73890500D01*
X67075435Y-73890500D01*
X67088729Y-73890500D01*
X67155768Y-73910185D01*
X67201523Y-73962989D01*
X67203287Y-73967041D01*
X67208312Y-73979172D01*
X67224883Y-74019179D01*
X67224884Y-74019182D01*
X67312487Y-74150288D01*
X67312490Y-74150292D01*
X67423984Y-74261786D01*
X67423988Y-74261789D01*
X67555091Y-74349390D01*
X67555104Y-74349397D01*
X67700775Y-74409735D01*
X67700780Y-74409737D01*
X67855430Y-74440499D01*
X67855433Y-74440500D01*
X67855435Y-74440500D01*
X68013121Y-74440500D01*
X68013122Y-74440499D01*
X68167774Y-74409737D01*
X68313456Y-74349394D01*
X68444566Y-74261789D01*
X68556066Y-74150289D01*
X68643671Y-74019179D01*
X68704014Y-73873497D01*
X68734777Y-73718842D01*
X68734777Y-73561158D01*
X68734777Y-73561155D01*
X68734776Y-73561153D01*
X68728527Y-73529737D01*
X68704014Y-73406503D01*
X68693776Y-73381786D01*
X68643674Y-73260827D01*
X68643667Y-73260814D01*
X68556066Y-73129711D01*
X68556063Y-73129707D01*
X68444569Y-73018213D01*
X68444565Y-73018210D01*
X68313462Y-72930609D01*
X68313449Y-72930602D01*
X68167778Y-72870264D01*
X68167766Y-72870261D01*
X68013122Y-72839500D01*
X68013119Y-72839500D01*
X67999825Y-72839500D01*
X67980643Y-72833867D01*
X67960665Y-72833154D01*
X67947804Y-72824225D01*
X67932786Y-72819815D01*
X67919696Y-72804709D01*
X67903273Y-72793306D01*
X67889064Y-72769357D01*
X67887031Y-72767011D01*
X67885264Y-72762952D01*
X67880106Y-72750499D01*
X67863671Y-72710821D01*
X67843847Y-72681153D01*
X74344500Y-72681153D01*
X74344500Y-72838846D01*
X74375261Y-72993489D01*
X74375264Y-72993501D01*
X74435602Y-73139172D01*
X74435609Y-73139185D01*
X74523210Y-73270288D01*
X74523213Y-73270292D01*
X74634707Y-73381786D01*
X74634711Y-73381789D01*
X74765814Y-73469390D01*
X74765827Y-73469397D01*
X74890779Y-73521153D01*
X74911503Y-73529737D01*
X75066153Y-73560499D01*
X75066156Y-73560500D01*
X75066158Y-73560500D01*
X75223844Y-73560500D01*
X75223845Y-73560499D01*
X75378497Y-73529737D01*
X75399221Y-73521153D01*
X78199500Y-73521153D01*
X78199500Y-73678846D01*
X78230261Y-73833489D01*
X78230264Y-73833501D01*
X78290602Y-73979172D01*
X78290609Y-73979185D01*
X78378210Y-74110288D01*
X78378213Y-74110292D01*
X78489707Y-74221786D01*
X78489711Y-74221789D01*
X78620814Y-74309390D01*
X78620827Y-74309397D01*
X78734541Y-74356498D01*
X78766503Y-74369737D01*
X78921153Y-74400499D01*
X78921156Y-74400500D01*
X78921158Y-74400500D01*
X79078844Y-74400500D01*
X79078845Y-74400499D01*
X79233497Y-74369737D01*
X79379179Y-74309394D01*
X79510289Y-74221789D01*
X79621789Y-74110289D01*
X79709394Y-73979179D01*
X79713938Y-73968210D01*
X79737972Y-73910185D01*
X79769737Y-73833497D01*
X79800500Y-73678842D01*
X79800500Y-73521158D01*
X79800500Y-73521155D01*
X79800499Y-73521153D01*
X79795454Y-73495789D01*
X79769737Y-73366503D01*
X79758879Y-73340289D01*
X79709397Y-73220827D01*
X79709390Y-73220814D01*
X79621789Y-73089711D01*
X79621786Y-73089707D01*
X79510292Y-72978213D01*
X79510288Y-72978210D01*
X79379185Y-72890609D01*
X79379172Y-72890602D01*
X79233501Y-72830264D01*
X79233489Y-72830261D01*
X79078845Y-72799500D01*
X79078842Y-72799500D01*
X78921158Y-72799500D01*
X78921155Y-72799500D01*
X78766510Y-72830261D01*
X78766498Y-72830264D01*
X78620827Y-72890602D01*
X78620814Y-72890609D01*
X78489711Y-72978210D01*
X78489707Y-72978213D01*
X78378213Y-73089707D01*
X78378210Y-73089711D01*
X78290609Y-73220814D01*
X78290602Y-73220827D01*
X78230264Y-73366498D01*
X78230261Y-73366510D01*
X78199500Y-73521153D01*
X75399221Y-73521153D01*
X75524179Y-73469394D01*
X75655289Y-73381789D01*
X75766789Y-73270289D01*
X75854394Y-73139179D01*
X75914737Y-72993497D01*
X75945500Y-72838842D01*
X75945500Y-72681158D01*
X75945500Y-72681155D01*
X75939155Y-72649258D01*
X75939155Y-72649257D01*
X75935554Y-72631153D01*
X76374500Y-72631153D01*
X76374500Y-72788846D01*
X76405261Y-72943489D01*
X76405264Y-72943501D01*
X76465602Y-73089172D01*
X76465609Y-73089185D01*
X76553210Y-73220288D01*
X76553213Y-73220292D01*
X76664707Y-73331786D01*
X76664711Y-73331789D01*
X76795814Y-73419390D01*
X76795827Y-73419397D01*
X76931344Y-73475529D01*
X76941503Y-73479737D01*
X77096153Y-73510499D01*
X77096156Y-73510500D01*
X77096158Y-73510500D01*
X77253844Y-73510500D01*
X77253845Y-73510499D01*
X77408497Y-73479737D01*
X77554179Y-73419394D01*
X77558628Y-73416420D01*
X77565301Y-73411963D01*
X77565301Y-73411962D01*
X77685289Y-73331789D01*
X77796789Y-73220289D01*
X77884394Y-73089179D01*
X77944737Y-72943497D01*
X77975500Y-72788842D01*
X77975500Y-72631158D01*
X77975500Y-72631155D01*
X77975499Y-72631153D01*
X77965266Y-72579707D01*
X77944737Y-72476503D01*
X77937652Y-72459398D01*
X77884397Y-72330827D01*
X77884390Y-72330814D01*
X77796789Y-72199711D01*
X77796786Y-72199707D01*
X77685292Y-72088213D01*
X77685288Y-72088210D01*
X77563952Y-72007135D01*
X82604500Y-72007135D01*
X82604500Y-73452870D01*
X82604501Y-73452876D01*
X82610908Y-73512483D01*
X82661202Y-73647328D01*
X82661206Y-73647335D01*
X82747452Y-73762544D01*
X82747455Y-73762547D01*
X82862664Y-73848793D01*
X82862671Y-73848797D01*
X82997517Y-73899091D01*
X82997516Y-73899091D01*
X83004444Y-73899835D01*
X83057127Y-73905500D01*
X84502872Y-73905499D01*
X84562483Y-73899091D01*
X84697331Y-73848796D01*
X84812546Y-73762546D01*
X84876241Y-73677459D01*
X84932174Y-73635590D01*
X85001866Y-73630606D01*
X85048392Y-73651453D01*
X85163904Y-73735378D01*
X85217224Y-73762546D01*
X85328764Y-73819379D01*
X85328767Y-73819380D01*
X85372191Y-73833489D01*
X85504736Y-73876555D01*
X85687486Y-73905500D01*
X85687487Y-73905500D01*
X85872513Y-73905500D01*
X85872514Y-73905500D01*
X86055264Y-73876555D01*
X86228514Y-73820263D01*
X86231232Y-73819380D01*
X86231235Y-73819379D01*
X86396096Y-73735378D01*
X86545787Y-73626621D01*
X86676621Y-73495787D01*
X86679680Y-73491576D01*
X86735006Y-73448909D01*
X86804619Y-73442926D01*
X86866415Y-73475529D01*
X86880315Y-73491570D01*
X86883379Y-73495787D01*
X87014213Y-73626621D01*
X87163904Y-73735378D01*
X87217224Y-73762546D01*
X87328764Y-73819379D01*
X87328767Y-73819380D01*
X87372191Y-73833489D01*
X87504736Y-73876555D01*
X87687486Y-73905500D01*
X87687487Y-73905500D01*
X87872513Y-73905500D01*
X87872514Y-73905500D01*
X88055264Y-73876555D01*
X88228514Y-73820263D01*
X88231232Y-73819380D01*
X88231235Y-73819379D01*
X88396096Y-73735378D01*
X88545787Y-73626621D01*
X88676621Y-73495787D01*
X88679680Y-73491576D01*
X88735006Y-73448909D01*
X88804619Y-73442926D01*
X88866415Y-73475529D01*
X88880315Y-73491570D01*
X88883379Y-73495787D01*
X89014213Y-73626621D01*
X89163904Y-73735378D01*
X89217224Y-73762546D01*
X89328764Y-73819379D01*
X89328767Y-73819380D01*
X89372191Y-73833489D01*
X89504736Y-73876555D01*
X89687486Y-73905500D01*
X89687487Y-73905500D01*
X89872513Y-73905500D01*
X89872514Y-73905500D01*
X90055264Y-73876555D01*
X90228514Y-73820263D01*
X90231232Y-73819380D01*
X90231235Y-73819379D01*
X90396096Y-73735378D01*
X90545787Y-73626621D01*
X90676621Y-73495787D01*
X90785378Y-73346096D01*
X90869379Y-73181235D01*
X90926555Y-73005264D01*
X90955500Y-72822514D01*
X90955500Y-72637486D01*
X90926555Y-72454736D01*
X90890331Y-72343250D01*
X90869380Y-72278767D01*
X90869379Y-72278764D01*
X90802051Y-72146627D01*
X90785378Y-72113904D01*
X90676621Y-71964213D01*
X90583561Y-71871153D01*
X116849500Y-71871153D01*
X116849500Y-72028846D01*
X116880261Y-72183489D01*
X116880264Y-72183501D01*
X116940602Y-72329172D01*
X116940609Y-72329185D01*
X117028210Y-72460288D01*
X117028213Y-72460292D01*
X117139707Y-72571786D01*
X117139711Y-72571789D01*
X117270814Y-72659390D01*
X117270827Y-72659397D01*
X117416498Y-72719735D01*
X117416503Y-72719737D01*
X117571153Y-72750499D01*
X117571156Y-72750500D01*
X117571158Y-72750500D01*
X117728844Y-72750500D01*
X117728845Y-72750499D01*
X117883497Y-72719737D01*
X118029179Y-72659394D01*
X118160289Y-72571789D01*
X118271789Y-72460289D01*
X118359394Y-72329179D01*
X118367383Y-72309893D01*
X118383986Y-72269808D01*
X118419737Y-72183497D01*
X118450500Y-72028842D01*
X118450500Y-71871158D01*
X118450500Y-71871155D01*
X118450499Y-71871153D01*
X118429684Y-71766510D01*
X118419737Y-71716503D01*
X118388306Y-71640621D01*
X118359397Y-71570827D01*
X118359390Y-71570814D01*
X118271789Y-71439711D01*
X118271786Y-71439707D01*
X118160292Y-71328213D01*
X118160288Y-71328210D01*
X118029185Y-71240609D01*
X118029172Y-71240602D01*
X117883501Y-71180264D01*
X117883489Y-71180261D01*
X117728845Y-71149500D01*
X117728842Y-71149500D01*
X117571158Y-71149500D01*
X117571155Y-71149500D01*
X117416510Y-71180261D01*
X117416498Y-71180264D01*
X117270827Y-71240602D01*
X117270814Y-71240609D01*
X117139711Y-71328210D01*
X117139707Y-71328213D01*
X117028213Y-71439707D01*
X117028210Y-71439711D01*
X116940609Y-71570814D01*
X116940602Y-71570827D01*
X116880264Y-71716498D01*
X116880261Y-71716510D01*
X116849500Y-71871153D01*
X90583561Y-71871153D01*
X90545787Y-71833379D01*
X90396096Y-71724622D01*
X90231235Y-71640620D01*
X90231232Y-71640619D01*
X90055265Y-71583445D01*
X89912972Y-71560908D01*
X89872514Y-71554500D01*
X89687486Y-71554500D01*
X89647028Y-71560908D01*
X89504734Y-71583445D01*
X89328767Y-71640619D01*
X89328764Y-71640620D01*
X89163903Y-71724622D01*
X89106250Y-71766510D01*
X89014213Y-71833379D01*
X89014211Y-71833381D01*
X89014210Y-71833381D01*
X88883381Y-71964210D01*
X88880314Y-71968432D01*
X88824981Y-72011094D01*
X88755367Y-72017069D01*
X88693574Y-71984459D01*
X88679686Y-71968432D01*
X88676621Y-71964213D01*
X88545787Y-71833379D01*
X88396096Y-71724622D01*
X88231235Y-71640620D01*
X88231232Y-71640619D01*
X88055265Y-71583445D01*
X87912972Y-71560908D01*
X87872514Y-71554500D01*
X87687486Y-71554500D01*
X87647028Y-71560908D01*
X87504734Y-71583445D01*
X87328767Y-71640619D01*
X87328764Y-71640620D01*
X87163903Y-71724622D01*
X87106250Y-71766510D01*
X87014213Y-71833379D01*
X87014211Y-71833381D01*
X87014210Y-71833381D01*
X86883381Y-71964210D01*
X86880314Y-71968432D01*
X86824981Y-72011094D01*
X86755367Y-72017069D01*
X86693574Y-71984459D01*
X86679686Y-71968432D01*
X86676621Y-71964213D01*
X86545787Y-71833379D01*
X86396096Y-71724622D01*
X86231235Y-71640620D01*
X86231232Y-71640619D01*
X86055265Y-71583445D01*
X85912972Y-71560908D01*
X85872514Y-71554500D01*
X85687486Y-71554500D01*
X85647028Y-71560908D01*
X85504734Y-71583445D01*
X85328767Y-71640619D01*
X85328764Y-71640620D01*
X85163900Y-71724624D01*
X85048392Y-71808545D01*
X84982586Y-71832025D01*
X84914532Y-71816199D01*
X84876241Y-71782539D01*
X84826802Y-71716498D01*
X84812546Y-71697454D01*
X84812544Y-71697453D01*
X84812544Y-71697452D01*
X84697335Y-71611206D01*
X84697328Y-71611202D01*
X84562482Y-71560908D01*
X84562483Y-71560908D01*
X84502883Y-71554501D01*
X84502881Y-71554500D01*
X84502873Y-71554500D01*
X84502864Y-71554500D01*
X83057129Y-71554500D01*
X83057123Y-71554501D01*
X82997516Y-71560908D01*
X82862671Y-71611202D01*
X82862664Y-71611206D01*
X82747455Y-71697452D01*
X82747452Y-71697455D01*
X82661206Y-71812664D01*
X82661202Y-71812671D01*
X82610908Y-71947517D01*
X82604501Y-72007116D01*
X82604500Y-72007135D01*
X77563952Y-72007135D01*
X77554185Y-72000609D01*
X77554172Y-72000602D01*
X77408501Y-71940264D01*
X77408489Y-71940261D01*
X77253845Y-71909500D01*
X77253842Y-71909500D01*
X77096158Y-71909500D01*
X77096155Y-71909500D01*
X76941510Y-71940261D01*
X76941498Y-71940264D01*
X76795827Y-72000602D01*
X76795814Y-72000609D01*
X76664711Y-72088210D01*
X76664707Y-72088213D01*
X76553213Y-72199707D01*
X76553210Y-72199711D01*
X76465609Y-72330814D01*
X76465602Y-72330827D01*
X76405264Y-72476498D01*
X76405261Y-72476510D01*
X76374500Y-72631153D01*
X75935554Y-72631153D01*
X75914738Y-72526510D01*
X75914737Y-72526503D01*
X75914735Y-72526498D01*
X75854397Y-72380827D01*
X75854390Y-72380814D01*
X75766789Y-72249711D01*
X75766786Y-72249707D01*
X75655292Y-72138213D01*
X75655288Y-72138210D01*
X75524185Y-72050609D01*
X75524172Y-72050602D01*
X75378501Y-71990264D01*
X75378489Y-71990261D01*
X75223845Y-71959500D01*
X75223842Y-71959500D01*
X75066158Y-71959500D01*
X75066155Y-71959500D01*
X74911510Y-71990261D01*
X74911498Y-71990264D01*
X74765827Y-72050602D01*
X74765814Y-72050609D01*
X74634711Y-72138210D01*
X74634707Y-72138213D01*
X74523213Y-72249707D01*
X74523210Y-72249711D01*
X74435609Y-72380814D01*
X74435602Y-72380827D01*
X74375264Y-72526498D01*
X74375261Y-72526510D01*
X74344500Y-72681153D01*
X67843847Y-72681153D01*
X67776066Y-72579711D01*
X67776063Y-72579707D01*
X67664569Y-72468213D01*
X67664565Y-72468210D01*
X67533462Y-72380609D01*
X67533449Y-72380602D01*
X67387778Y-72320264D01*
X67387766Y-72320261D01*
X67233122Y-72289500D01*
X67233119Y-72289500D01*
X67075435Y-72289500D01*
X67075432Y-72289500D01*
X66920788Y-72320260D01*
X66920783Y-72320262D01*
X66920781Y-72320262D01*
X66920780Y-72320263D01*
X66850562Y-72349348D01*
X66837993Y-72354554D01*
X66768524Y-72362022D01*
X66732084Y-72349348D01*
X66727698Y-72347003D01*
X66727696Y-72347002D01*
X66727693Y-72347001D01*
X66727688Y-72346998D01*
X66582018Y-72286660D01*
X66582006Y-72286657D01*
X66427362Y-72255896D01*
X66427359Y-72255896D01*
X66269675Y-72255896D01*
X66269672Y-72255896D01*
X66115027Y-72286657D01*
X66115015Y-72286660D01*
X65978393Y-72343250D01*
X65908923Y-72350719D01*
X65862051Y-72331791D01*
X65839042Y-72316417D01*
X65839039Y-72316415D01*
X65693363Y-72256075D01*
X65693351Y-72256072D01*
X65538707Y-72225311D01*
X65538704Y-72225311D01*
X65381020Y-72225311D01*
X65381017Y-72225311D01*
X65235244Y-72254307D01*
X65165653Y-72248080D01*
X65142162Y-72235792D01*
X65051594Y-72175276D01*
X65051581Y-72175269D01*
X64905910Y-72114931D01*
X64905898Y-72114928D01*
X64751254Y-72084167D01*
X64751251Y-72084167D01*
X64593567Y-72084167D01*
X64593564Y-72084167D01*
X64438920Y-72114927D01*
X64438915Y-72114929D01*
X64438913Y-72114929D01*
X64438912Y-72114930D01*
X64382706Y-72138211D01*
X64380415Y-72139160D01*
X64310946Y-72146627D01*
X64264070Y-72127698D01*
X64253460Y-72120608D01*
X64253449Y-72120602D01*
X64107778Y-72060264D01*
X64107766Y-72060261D01*
X63953122Y-72029500D01*
X63953119Y-72029500D01*
X63795435Y-72029500D01*
X63795432Y-72029500D01*
X63640787Y-72060261D01*
X63640775Y-72060264D01*
X63495104Y-72120602D01*
X63495091Y-72120609D01*
X63363988Y-72208210D01*
X63363984Y-72208213D01*
X63252490Y-72319707D01*
X63252487Y-72319711D01*
X63164886Y-72450814D01*
X63164879Y-72450827D01*
X63104541Y-72596498D01*
X63104538Y-72596510D01*
X63073777Y-72751153D01*
X58289447Y-72751153D01*
X58356277Y-72684323D01*
X58427465Y-72577781D01*
X58451293Y-72520256D01*
X58476501Y-72459398D01*
X58492130Y-72380827D01*
X58501500Y-72333725D01*
X58501500Y-72269808D01*
X58521185Y-72202769D01*
X58537819Y-72182127D01*
X59170651Y-71549295D01*
X59170656Y-71549290D01*
X59241845Y-71442747D01*
X59290881Y-71324364D01*
X59297596Y-71290606D01*
X59303585Y-71260499D01*
X59315880Y-71198691D01*
X59315880Y-69821153D01*
X70999500Y-69821153D01*
X70999500Y-69978846D01*
X71030261Y-70133489D01*
X71030264Y-70133501D01*
X71090602Y-70279172D01*
X71090609Y-70279185D01*
X71178210Y-70410288D01*
X71178213Y-70410292D01*
X71289707Y-70521786D01*
X71289711Y-70521789D01*
X71420814Y-70609390D01*
X71420827Y-70609397D01*
X71566498Y-70669735D01*
X71566503Y-70669737D01*
X71685912Y-70693489D01*
X71721153Y-70700499D01*
X71721156Y-70700500D01*
X71721158Y-70700500D01*
X71878844Y-70700500D01*
X71878845Y-70700499D01*
X72033497Y-70669737D01*
X72179179Y-70609394D01*
X72310289Y-70521789D01*
X72421789Y-70410289D01*
X72441257Y-70381153D01*
X81129500Y-70381153D01*
X81129500Y-70538846D01*
X81160261Y-70693489D01*
X81160264Y-70693501D01*
X81220602Y-70839172D01*
X81220609Y-70839185D01*
X81308210Y-70970288D01*
X81308213Y-70970292D01*
X81419707Y-71081786D01*
X81419711Y-71081789D01*
X81550814Y-71169390D01*
X81550827Y-71169397D01*
X81696498Y-71229735D01*
X81696503Y-71229737D01*
X81851153Y-71260499D01*
X81851156Y-71260500D01*
X81851158Y-71260500D01*
X82008844Y-71260500D01*
X82008845Y-71260499D01*
X82163497Y-71229737D01*
X82309179Y-71169394D01*
X82440289Y-71081789D01*
X82551789Y-70970289D01*
X82639394Y-70839179D01*
X82699737Y-70693497D01*
X82730500Y-70538842D01*
X82730500Y-70381158D01*
X82730500Y-70381155D01*
X82730499Y-70381153D01*
X82715585Y-70306175D01*
X82699737Y-70226503D01*
X82661210Y-70133489D01*
X82639397Y-70080827D01*
X82639390Y-70080814D01*
X82567158Y-69972712D01*
X82546280Y-69906035D01*
X82564764Y-69838655D01*
X82616743Y-69791964D01*
X82685713Y-69780788D01*
X82694444Y-69782202D01*
X82719651Y-69787216D01*
X82736157Y-69790500D01*
X82736158Y-69790500D01*
X82893844Y-69790500D01*
X82893845Y-69790499D01*
X83048497Y-69759737D01*
X83194179Y-69699394D01*
X83325289Y-69611789D01*
X83436789Y-69500289D01*
X83489666Y-69421153D01*
X85074500Y-69421153D01*
X85074500Y-69578846D01*
X85105261Y-69733489D01*
X85105264Y-69733501D01*
X85165602Y-69879172D01*
X85165609Y-69879185D01*
X85253210Y-70010288D01*
X85253213Y-70010292D01*
X85364707Y-70121786D01*
X85364711Y-70121789D01*
X85495814Y-70209390D01*
X85495827Y-70209397D01*
X85603138Y-70253846D01*
X85641503Y-70269737D01*
X85796153Y-70300499D01*
X85796156Y-70300500D01*
X85796158Y-70300500D01*
X85953844Y-70300500D01*
X85953845Y-70300499D01*
X86108497Y-70269737D01*
X86254179Y-70209394D01*
X86385289Y-70121789D01*
X86410925Y-70096153D01*
X115774500Y-70096153D01*
X115774500Y-70253846D01*
X115805261Y-70408489D01*
X115805264Y-70408501D01*
X115865602Y-70554172D01*
X115865609Y-70554185D01*
X115953210Y-70685288D01*
X115953213Y-70685292D01*
X116064707Y-70796786D01*
X116064711Y-70796789D01*
X116195814Y-70884390D01*
X116195827Y-70884397D01*
X116341498Y-70944735D01*
X116341503Y-70944737D01*
X116469956Y-70970288D01*
X116496153Y-70975499D01*
X116496156Y-70975500D01*
X116496158Y-70975500D01*
X116653844Y-70975500D01*
X116653845Y-70975499D01*
X116808497Y-70944737D01*
X116954179Y-70884394D01*
X117085289Y-70796789D01*
X117196789Y-70685289D01*
X117284394Y-70554179D01*
X117344737Y-70408497D01*
X117375500Y-70253842D01*
X117375500Y-70096158D01*
X117375500Y-70096155D01*
X117375499Y-70096153D01*
X117352165Y-69978846D01*
X117344737Y-69941503D01*
X117318919Y-69879172D01*
X117284397Y-69795827D01*
X117284390Y-69795814D01*
X117196789Y-69664711D01*
X117196786Y-69664707D01*
X117085292Y-69553213D01*
X117085288Y-69553210D01*
X116954185Y-69465609D01*
X116954172Y-69465602D01*
X116808501Y-69405264D01*
X116808489Y-69405261D01*
X116653845Y-69374500D01*
X116653842Y-69374500D01*
X116496158Y-69374500D01*
X116496155Y-69374500D01*
X116341510Y-69405261D01*
X116341498Y-69405264D01*
X116195827Y-69465602D01*
X116195814Y-69465609D01*
X116064711Y-69553210D01*
X116064707Y-69553213D01*
X115953213Y-69664707D01*
X115953210Y-69664711D01*
X115865609Y-69795814D01*
X115865602Y-69795827D01*
X115805264Y-69941498D01*
X115805261Y-69941510D01*
X115774500Y-70096153D01*
X86410925Y-70096153D01*
X86496789Y-70010289D01*
X86584394Y-69879179D01*
X86644737Y-69733497D01*
X86675500Y-69578842D01*
X86675500Y-69421158D01*
X86675500Y-69421155D01*
X86675499Y-69421153D01*
X86664849Y-69367611D01*
X86644737Y-69266503D01*
X86626925Y-69223501D01*
X86584397Y-69120827D01*
X86584390Y-69120814D01*
X86496789Y-68989711D01*
X86496786Y-68989707D01*
X86385292Y-68878213D01*
X86385288Y-68878210D01*
X86254185Y-68790609D01*
X86254172Y-68790602D01*
X86108501Y-68730264D01*
X86108489Y-68730261D01*
X85953845Y-68699500D01*
X85953842Y-68699500D01*
X85796158Y-68699500D01*
X85796155Y-68699500D01*
X85641510Y-68730261D01*
X85641498Y-68730264D01*
X85495827Y-68790602D01*
X85495814Y-68790609D01*
X85364711Y-68878210D01*
X85364707Y-68878213D01*
X85253213Y-68989707D01*
X85253210Y-68989711D01*
X85165609Y-69120814D01*
X85165602Y-69120827D01*
X85105264Y-69266498D01*
X85105261Y-69266510D01*
X85074500Y-69421153D01*
X83489666Y-69421153D01*
X83524394Y-69369179D01*
X83524709Y-69368417D01*
X83525044Y-69367611D01*
X83525044Y-69367610D01*
X83550887Y-69305218D01*
X83584737Y-69223497D01*
X83615500Y-69068842D01*
X83615500Y-68911158D01*
X83615500Y-68911155D01*
X83615499Y-68911153D01*
X83596591Y-68816096D01*
X83584737Y-68756503D01*
X83570444Y-68721997D01*
X83524397Y-68610827D01*
X83524390Y-68610814D01*
X83436789Y-68479711D01*
X83436786Y-68479707D01*
X83325292Y-68368213D01*
X83325288Y-68368210D01*
X83194185Y-68280609D01*
X83194172Y-68280602D01*
X83048501Y-68220264D01*
X83048489Y-68220261D01*
X82893845Y-68189500D01*
X82893842Y-68189500D01*
X82736158Y-68189500D01*
X82736155Y-68189500D01*
X82581510Y-68220261D01*
X82581498Y-68220264D01*
X82435827Y-68280602D01*
X82435814Y-68280609D01*
X82304711Y-68368210D01*
X82304707Y-68368213D01*
X82193213Y-68479707D01*
X82193210Y-68479711D01*
X82105609Y-68610814D01*
X82105602Y-68610827D01*
X82045264Y-68756498D01*
X82045261Y-68756510D01*
X82014500Y-68911153D01*
X82014500Y-69068846D01*
X82045261Y-69223489D01*
X82045264Y-69223501D01*
X82105602Y-69369172D01*
X82105609Y-69369185D01*
X82177841Y-69477287D01*
X82198719Y-69543965D01*
X82180234Y-69611345D01*
X82128256Y-69658035D01*
X82059286Y-69669211D01*
X82050548Y-69667795D01*
X82008846Y-69659500D01*
X82008842Y-69659500D01*
X81851158Y-69659500D01*
X81851155Y-69659500D01*
X81696510Y-69690261D01*
X81696498Y-69690264D01*
X81550827Y-69750602D01*
X81550814Y-69750609D01*
X81419711Y-69838210D01*
X81419707Y-69838213D01*
X81308213Y-69949707D01*
X81308210Y-69949711D01*
X81220609Y-70080814D01*
X81220602Y-70080827D01*
X81160264Y-70226498D01*
X81160261Y-70226510D01*
X81129500Y-70381153D01*
X72441257Y-70381153D01*
X72509394Y-70279179D01*
X72569737Y-70133497D01*
X72600500Y-69978842D01*
X72600500Y-69821158D01*
X72600500Y-69821155D01*
X72600499Y-69821153D01*
X72594402Y-69790500D01*
X72569737Y-69666503D01*
X72566836Y-69659500D01*
X72509397Y-69520827D01*
X72509390Y-69520814D01*
X72421789Y-69389711D01*
X72421786Y-69389707D01*
X72310292Y-69278213D01*
X72310288Y-69278210D01*
X72179185Y-69190609D01*
X72179172Y-69190602D01*
X72033501Y-69130264D01*
X72033489Y-69130261D01*
X71878845Y-69099500D01*
X71878842Y-69099500D01*
X71721158Y-69099500D01*
X71721155Y-69099500D01*
X71566510Y-69130261D01*
X71566498Y-69130264D01*
X71420827Y-69190602D01*
X71420814Y-69190609D01*
X71289711Y-69278210D01*
X71289707Y-69278213D01*
X71178213Y-69389707D01*
X71178210Y-69389711D01*
X71090609Y-69520814D01*
X71090602Y-69520827D01*
X71030264Y-69666498D01*
X71030261Y-69666510D01*
X70999500Y-69821153D01*
X59315880Y-69821153D01*
X59315880Y-68831450D01*
X59335565Y-68764411D01*
X59388369Y-68718656D01*
X59457527Y-68708712D01*
X59508767Y-68728346D01*
X59615098Y-68799394D01*
X59615100Y-68799395D01*
X59615104Y-68799397D01*
X59760775Y-68859735D01*
X59760780Y-68859737D01*
X59915430Y-68890499D01*
X59915433Y-68890500D01*
X59915435Y-68890500D01*
X60073121Y-68890500D01*
X60073122Y-68890499D01*
X60227774Y-68859737D01*
X60373456Y-68799394D01*
X60504566Y-68711789D01*
X60616066Y-68600289D01*
X60703671Y-68469179D01*
X60764014Y-68323497D01*
X60794777Y-68168842D01*
X60794777Y-68061153D01*
X64313777Y-68061153D01*
X64313777Y-68218846D01*
X64344538Y-68373489D01*
X64344541Y-68373501D01*
X64404879Y-68519172D01*
X64404886Y-68519185D01*
X64492487Y-68650288D01*
X64492490Y-68650292D01*
X64603984Y-68761786D01*
X64603988Y-68761789D01*
X64735091Y-68849390D01*
X64735104Y-68849397D01*
X64834337Y-68890500D01*
X64880780Y-68909737D01*
X65035430Y-68940499D01*
X65035433Y-68940500D01*
X65035435Y-68940500D01*
X65193121Y-68940500D01*
X65193122Y-68940499D01*
X65347774Y-68909737D01*
X65493456Y-68849394D01*
X65624566Y-68761789D01*
X65736066Y-68650289D01*
X65823671Y-68519179D01*
X65884014Y-68373497D01*
X65914777Y-68218842D01*
X65914777Y-68061158D01*
X65914777Y-68061155D01*
X65914776Y-68061153D01*
X65902144Y-67997648D01*
X65884014Y-67906503D01*
X65864959Y-67860499D01*
X65823674Y-67760827D01*
X65823667Y-67760814D01*
X65736066Y-67629711D01*
X65736063Y-67629707D01*
X65624569Y-67518213D01*
X65624565Y-67518210D01*
X65493462Y-67430609D01*
X65493449Y-67430602D01*
X65347778Y-67370264D01*
X65347766Y-67370261D01*
X65193122Y-67339500D01*
X65193119Y-67339500D01*
X65035435Y-67339500D01*
X65035432Y-67339500D01*
X64880787Y-67370261D01*
X64880775Y-67370264D01*
X64735104Y-67430602D01*
X64735091Y-67430609D01*
X64603988Y-67518210D01*
X64603984Y-67518213D01*
X64492490Y-67629707D01*
X64492487Y-67629711D01*
X64404886Y-67760814D01*
X64404879Y-67760827D01*
X64344541Y-67906498D01*
X64344538Y-67906510D01*
X64313777Y-68061153D01*
X60794777Y-68061153D01*
X60794777Y-68011158D01*
X60794777Y-68011155D01*
X60794776Y-68011153D01*
X60774535Y-67909397D01*
X60764014Y-67856503D01*
X60752927Y-67829737D01*
X60703674Y-67710827D01*
X60703667Y-67710814D01*
X60616066Y-67579711D01*
X60616063Y-67579707D01*
X60504569Y-67468213D01*
X60504565Y-67468210D01*
X60373462Y-67380609D01*
X60373449Y-67380602D01*
X60227778Y-67320264D01*
X60227766Y-67320261D01*
X60073122Y-67289500D01*
X60073119Y-67289500D01*
X59915435Y-67289500D01*
X59915432Y-67289500D01*
X59760787Y-67320261D01*
X59760775Y-67320264D01*
X59615104Y-67380602D01*
X59615091Y-67380609D01*
X59508771Y-67451651D01*
X59442093Y-67472529D01*
X59374713Y-67454045D01*
X59328023Y-67402066D01*
X59315880Y-67348549D01*
X59315880Y-67189157D01*
X75557609Y-67189157D01*
X75557609Y-67346850D01*
X75588370Y-67501493D01*
X75588373Y-67501505D01*
X75648711Y-67647176D01*
X75648718Y-67647189D01*
X75736319Y-67778292D01*
X75736322Y-67778296D01*
X75847816Y-67889790D01*
X75847820Y-67889793D01*
X75978923Y-67977394D01*
X75978936Y-67977401D01*
X76060422Y-68011153D01*
X76124612Y-68037741D01*
X76279262Y-68068503D01*
X76279265Y-68068504D01*
X76279267Y-68068504D01*
X76436953Y-68068504D01*
X76436954Y-68068503D01*
X76591606Y-68037741D01*
X76737288Y-67977398D01*
X76799119Y-67936084D01*
X86880223Y-67936084D01*
X86880223Y-68093777D01*
X86910984Y-68248420D01*
X86910987Y-68248432D01*
X86971325Y-68394103D01*
X86971332Y-68394116D01*
X87058933Y-68525219D01*
X87058936Y-68525223D01*
X87170430Y-68636717D01*
X87170434Y-68636720D01*
X87301537Y-68724321D01*
X87301550Y-68724328D01*
X87447221Y-68784666D01*
X87447226Y-68784668D01*
X87601876Y-68815430D01*
X87601879Y-68815431D01*
X87601881Y-68815431D01*
X87759567Y-68815431D01*
X87759568Y-68815430D01*
X87914220Y-68784668D01*
X88059902Y-68724325D01*
X88191012Y-68636720D01*
X88302512Y-68525220D01*
X88390117Y-68394110D01*
X88450460Y-68248428D01*
X88481223Y-68093773D01*
X88481223Y-67936089D01*
X88481223Y-67936086D01*
X88481222Y-67936084D01*
X88466187Y-67860499D01*
X88450460Y-67781434D01*
X88445471Y-67769390D01*
X88390120Y-67635758D01*
X88390113Y-67635745D01*
X88302512Y-67504642D01*
X88302509Y-67504638D01*
X88191015Y-67393144D01*
X88191011Y-67393141D01*
X88059908Y-67305540D01*
X88059895Y-67305533D01*
X87914224Y-67245195D01*
X87914212Y-67245192D01*
X87759568Y-67214431D01*
X87759565Y-67214431D01*
X87601881Y-67214431D01*
X87601878Y-67214431D01*
X87447233Y-67245192D01*
X87447221Y-67245195D01*
X87301550Y-67305533D01*
X87301537Y-67305540D01*
X87170434Y-67393141D01*
X87170430Y-67393144D01*
X87058936Y-67504638D01*
X87058933Y-67504642D01*
X86971332Y-67635745D01*
X86971325Y-67635758D01*
X86910987Y-67781429D01*
X86910984Y-67781441D01*
X86880223Y-67936084D01*
X76799119Y-67936084D01*
X76868398Y-67889793D01*
X76979898Y-67778293D01*
X77067503Y-67647183D01*
X77127846Y-67501501D01*
X77158609Y-67346846D01*
X77158609Y-67189162D01*
X77158609Y-67189159D01*
X77158608Y-67189157D01*
X77142986Y-67110619D01*
X77127846Y-67034507D01*
X77105746Y-66981153D01*
X83954500Y-66981153D01*
X83954500Y-67138846D01*
X83985261Y-67293489D01*
X83985264Y-67293501D01*
X84045602Y-67439172D01*
X84045609Y-67439185D01*
X84133210Y-67570288D01*
X84133213Y-67570292D01*
X84244707Y-67681786D01*
X84244711Y-67681789D01*
X84375814Y-67769390D01*
X84375827Y-67769397D01*
X84521498Y-67829735D01*
X84521503Y-67829737D01*
X84656039Y-67856498D01*
X84676153Y-67860499D01*
X84676156Y-67860500D01*
X84676158Y-67860500D01*
X84833844Y-67860500D01*
X84833845Y-67860499D01*
X84988497Y-67829737D01*
X85003577Y-67823490D01*
X85023024Y-67815436D01*
X85134172Y-67769397D01*
X85134172Y-67769396D01*
X85134179Y-67769394D01*
X85265289Y-67681789D01*
X85376789Y-67570289D01*
X85464394Y-67439179D01*
X85524737Y-67293497D01*
X85555500Y-67138842D01*
X85555500Y-66981158D01*
X85555500Y-66981155D01*
X85555499Y-66981153D01*
X85537135Y-66888831D01*
X85524737Y-66826503D01*
X85522386Y-66820827D01*
X85464397Y-66680827D01*
X85464390Y-66680814D01*
X85376789Y-66549711D01*
X85376786Y-66549707D01*
X85265292Y-66438213D01*
X85265288Y-66438210D01*
X85134185Y-66350609D01*
X85134172Y-66350602D01*
X84988501Y-66290264D01*
X84988489Y-66290261D01*
X84833845Y-66259500D01*
X84833842Y-66259500D01*
X84676158Y-66259500D01*
X84676155Y-66259500D01*
X84521510Y-66290261D01*
X84521498Y-66290264D01*
X84375827Y-66350602D01*
X84375814Y-66350609D01*
X84244711Y-66438210D01*
X84244707Y-66438213D01*
X84133213Y-66549707D01*
X84133210Y-66549711D01*
X84045609Y-66680814D01*
X84045602Y-66680827D01*
X83985264Y-66826498D01*
X83985261Y-66826510D01*
X83954500Y-66981153D01*
X77105746Y-66981153D01*
X77092684Y-66949620D01*
X77067506Y-66888831D01*
X77067499Y-66888818D01*
X76979898Y-66757715D01*
X76979895Y-66757711D01*
X76868401Y-66646217D01*
X76868397Y-66646214D01*
X76737294Y-66558613D01*
X76737281Y-66558606D01*
X76591610Y-66498268D01*
X76591598Y-66498265D01*
X76436954Y-66467504D01*
X76436951Y-66467504D01*
X76279267Y-66467504D01*
X76279264Y-66467504D01*
X76124619Y-66498265D01*
X76124607Y-66498268D01*
X75978936Y-66558606D01*
X75978923Y-66558613D01*
X75847820Y-66646214D01*
X75847816Y-66646217D01*
X75736322Y-66757711D01*
X75736319Y-66757715D01*
X75648718Y-66888818D01*
X75648711Y-66888831D01*
X75588373Y-67034502D01*
X75588370Y-67034514D01*
X75557609Y-67189157D01*
X59315880Y-67189157D01*
X59315880Y-66291153D01*
X67799500Y-66291153D01*
X67799500Y-66448846D01*
X67830261Y-66603489D01*
X67830264Y-66603501D01*
X67890602Y-66749172D01*
X67890609Y-66749185D01*
X67978210Y-66880288D01*
X67978213Y-66880292D01*
X68089707Y-66991786D01*
X68089711Y-66991789D01*
X68220814Y-67079390D01*
X68220827Y-67079397D01*
X68364342Y-67138842D01*
X68366503Y-67139737D01*
X68521153Y-67170499D01*
X68521156Y-67170500D01*
X68521158Y-67170500D01*
X68678844Y-67170500D01*
X68678845Y-67170499D01*
X68833497Y-67139737D01*
X68979179Y-67079394D01*
X69110289Y-66991789D01*
X69221789Y-66880289D01*
X69309394Y-66749179D01*
X69369737Y-66603497D01*
X69400500Y-66448842D01*
X69400500Y-66291158D01*
X69400500Y-66291155D01*
X69400499Y-66291153D01*
X69369738Y-66136510D01*
X69369737Y-66136503D01*
X69356062Y-66103489D01*
X69309397Y-65990827D01*
X69309390Y-65990814D01*
X69221789Y-65859711D01*
X69221786Y-65859707D01*
X69110292Y-65748213D01*
X69110288Y-65748210D01*
X69009931Y-65681153D01*
X77064500Y-65681153D01*
X77064500Y-65838846D01*
X77095261Y-65993489D01*
X77095264Y-65993501D01*
X77155602Y-66139172D01*
X77155609Y-66139185D01*
X77243210Y-66270288D01*
X77243213Y-66270292D01*
X77354707Y-66381786D01*
X77354711Y-66381789D01*
X77485814Y-66469390D01*
X77485827Y-66469397D01*
X77631498Y-66529735D01*
X77631503Y-66529737D01*
X77786153Y-66560499D01*
X77786156Y-66560500D01*
X77786158Y-66560500D01*
X77943844Y-66560500D01*
X77943845Y-66560499D01*
X78098497Y-66529737D01*
X78244179Y-66469394D01*
X78375289Y-66381789D01*
X78486789Y-66270289D01*
X78574394Y-66139179D01*
X78575503Y-66136503D01*
X78634735Y-65993501D01*
X78634737Y-65993497D01*
X78665500Y-65838842D01*
X78665500Y-65791153D01*
X81774500Y-65791153D01*
X81774500Y-65948846D01*
X81805261Y-66103489D01*
X81805264Y-66103501D01*
X81865602Y-66249172D01*
X81865609Y-66249185D01*
X81953210Y-66380288D01*
X81953213Y-66380292D01*
X82064707Y-66491786D01*
X82064711Y-66491789D01*
X82195814Y-66579390D01*
X82195827Y-66579397D01*
X82341498Y-66639735D01*
X82341503Y-66639737D01*
X82496153Y-66670499D01*
X82496156Y-66670500D01*
X82496158Y-66670500D01*
X82653844Y-66670500D01*
X82653845Y-66670499D01*
X82808497Y-66639737D01*
X82954179Y-66579394D01*
X83085289Y-66491789D01*
X83196789Y-66380289D01*
X83284394Y-66249179D01*
X83344737Y-66103497D01*
X83375500Y-65948842D01*
X83375500Y-65791158D01*
X83375500Y-65791155D01*
X83375499Y-65791153D01*
X83353618Y-65681153D01*
X83344737Y-65636503D01*
X83343162Y-65632700D01*
X83284397Y-65490827D01*
X83284390Y-65490814D01*
X83196789Y-65359711D01*
X83196786Y-65359707D01*
X83085292Y-65248213D01*
X83085288Y-65248210D01*
X82954185Y-65160609D01*
X82954172Y-65160602D01*
X82808501Y-65100264D01*
X82808489Y-65100261D01*
X82653845Y-65069500D01*
X82653842Y-65069500D01*
X82496158Y-65069500D01*
X82496155Y-65069500D01*
X82341510Y-65100261D01*
X82341498Y-65100264D01*
X82195827Y-65160602D01*
X82195814Y-65160609D01*
X82064711Y-65248210D01*
X82064707Y-65248213D01*
X81953213Y-65359707D01*
X81953210Y-65359711D01*
X81865609Y-65490814D01*
X81865602Y-65490827D01*
X81805264Y-65636498D01*
X81805261Y-65636510D01*
X81774500Y-65791153D01*
X78665500Y-65791153D01*
X78665500Y-65681158D01*
X78665500Y-65681155D01*
X78665499Y-65681153D01*
X78662903Y-65668101D01*
X78634737Y-65526503D01*
X78619138Y-65488844D01*
X78574397Y-65380827D01*
X78574390Y-65380814D01*
X78486789Y-65249711D01*
X78486786Y-65249707D01*
X78375292Y-65138213D01*
X78375288Y-65138210D01*
X78244185Y-65050609D01*
X78244172Y-65050602D01*
X78098501Y-64990264D01*
X78098489Y-64990261D01*
X77943845Y-64959500D01*
X77943842Y-64959500D01*
X77786158Y-64959500D01*
X77786155Y-64959500D01*
X77631510Y-64990261D01*
X77631498Y-64990264D01*
X77485827Y-65050602D01*
X77485814Y-65050609D01*
X77354711Y-65138210D01*
X77354707Y-65138213D01*
X77243213Y-65249707D01*
X77243210Y-65249711D01*
X77155609Y-65380814D01*
X77155602Y-65380827D01*
X77095264Y-65526498D01*
X77095261Y-65526510D01*
X77064500Y-65681153D01*
X69009931Y-65681153D01*
X68979185Y-65660609D01*
X68979172Y-65660602D01*
X68833501Y-65600264D01*
X68833489Y-65600261D01*
X68678845Y-65569500D01*
X68678842Y-65569500D01*
X68521158Y-65569500D01*
X68521155Y-65569500D01*
X68366510Y-65600261D01*
X68366498Y-65600264D01*
X68220827Y-65660602D01*
X68220814Y-65660609D01*
X68089711Y-65748210D01*
X68089707Y-65748213D01*
X67978213Y-65859707D01*
X67978210Y-65859711D01*
X67890609Y-65990814D01*
X67890602Y-65990827D01*
X67830264Y-66136498D01*
X67830261Y-66136510D01*
X67799500Y-66291153D01*
X59315880Y-66291153D01*
X59315880Y-65670315D01*
X59335565Y-65603276D01*
X59336746Y-65601470D01*
X59374774Y-65544559D01*
X59435117Y-65398877D01*
X59465880Y-65244222D01*
X59465880Y-65086538D01*
X59465880Y-65086535D01*
X59465879Y-65086533D01*
X59457319Y-65043501D01*
X59435117Y-64931883D01*
X59421791Y-64899711D01*
X59374777Y-64786207D01*
X59374770Y-64786194D01*
X59287169Y-64655091D01*
X59287166Y-64655087D01*
X59175672Y-64543593D01*
X59175664Y-64543587D01*
X59137671Y-64518201D01*
X59137621Y-64518168D01*
X59044565Y-64455989D01*
X59044552Y-64455982D01*
X58960466Y-64421153D01*
X60699500Y-64421153D01*
X60699500Y-64578846D01*
X60730261Y-64733489D01*
X60730264Y-64733501D01*
X60790602Y-64879172D01*
X60790609Y-64879185D01*
X60878210Y-65010288D01*
X60878213Y-65010292D01*
X60989707Y-65121786D01*
X60989711Y-65121789D01*
X61120814Y-65209390D01*
X61120827Y-65209397D01*
X61226953Y-65253355D01*
X61266503Y-65269737D01*
X61421153Y-65300499D01*
X61421156Y-65300500D01*
X61421158Y-65300500D01*
X61578844Y-65300500D01*
X61578845Y-65300499D01*
X61733497Y-65269737D01*
X61879179Y-65209394D01*
X62010289Y-65121789D01*
X62121789Y-65010289D01*
X62209394Y-64879179D01*
X62269737Y-64733497D01*
X62270203Y-64731153D01*
X63133777Y-64731153D01*
X63133777Y-64888846D01*
X63164538Y-65043489D01*
X63164541Y-65043501D01*
X63224879Y-65189172D01*
X63224886Y-65189185D01*
X63312487Y-65320288D01*
X63312490Y-65320292D01*
X63423984Y-65431786D01*
X63423988Y-65431789D01*
X63555091Y-65519390D01*
X63555098Y-65519394D01*
X63586228Y-65532288D01*
X63640632Y-65576129D01*
X63660394Y-65622656D01*
X63664539Y-65643494D01*
X63664541Y-65643501D01*
X63724879Y-65789172D01*
X63724886Y-65789185D01*
X63812487Y-65920288D01*
X63812490Y-65920292D01*
X63923984Y-66031786D01*
X63923988Y-66031789D01*
X64055091Y-66119390D01*
X64055104Y-66119397D01*
X64200775Y-66179735D01*
X64200780Y-66179737D01*
X64355430Y-66210499D01*
X64355433Y-66210500D01*
X64355435Y-66210500D01*
X64513121Y-66210500D01*
X64513122Y-66210499D01*
X64667774Y-66179737D01*
X64679043Y-66175069D01*
X64690063Y-66170505D01*
X64813449Y-66119397D01*
X64813449Y-66119396D01*
X64813456Y-66119394D01*
X64944566Y-66031789D01*
X65056066Y-65920289D01*
X65143671Y-65789179D01*
X65204014Y-65643497D01*
X65234777Y-65488842D01*
X65234777Y-65331158D01*
X65234777Y-65331155D01*
X65234776Y-65331153D01*
X65228679Y-65300500D01*
X65204014Y-65176503D01*
X65188153Y-65138210D01*
X65143674Y-65030827D01*
X65143667Y-65030814D01*
X65056066Y-64899711D01*
X65056063Y-64899707D01*
X64944569Y-64788213D01*
X64944565Y-64788210D01*
X64813462Y-64700609D01*
X64813452Y-64700604D01*
X64782323Y-64687710D01*
X64727920Y-64643869D01*
X64708158Y-64597339D01*
X64704014Y-64576503D01*
X64654093Y-64455982D01*
X64643674Y-64430827D01*
X64643667Y-64430814D01*
X64556066Y-64299711D01*
X64556063Y-64299707D01*
X64444569Y-64188213D01*
X64444565Y-64188210D01*
X64404072Y-64161153D01*
X78494500Y-64161153D01*
X78494500Y-64318846D01*
X78525261Y-64473489D01*
X78525264Y-64473501D01*
X78585602Y-64619172D01*
X78585609Y-64619185D01*
X78673210Y-64750288D01*
X78673213Y-64750292D01*
X78784707Y-64861786D01*
X78784711Y-64861789D01*
X78915814Y-64949390D01*
X78915827Y-64949397D01*
X79061498Y-65009735D01*
X79061503Y-65009737D01*
X79216153Y-65040499D01*
X79216156Y-65040500D01*
X79216158Y-65040500D01*
X79373844Y-65040500D01*
X79373845Y-65040499D01*
X79528497Y-65009737D01*
X79674179Y-64949394D01*
X79805289Y-64861789D01*
X79916789Y-64750289D01*
X80004394Y-64619179D01*
X80064737Y-64473497D01*
X80095500Y-64318842D01*
X80095500Y-64161158D01*
X80095500Y-64161155D01*
X80095499Y-64161153D01*
X80094458Y-64155918D01*
X80064737Y-64006503D01*
X80011598Y-63878213D01*
X80004397Y-63860827D01*
X80004390Y-63860814D01*
X79916789Y-63729711D01*
X79916786Y-63729707D01*
X79800982Y-63613903D01*
X79802482Y-63612402D01*
X79768563Y-63562600D01*
X79766697Y-63492756D01*
X79802888Y-63432989D01*
X79865646Y-63402277D01*
X79886565Y-63400500D01*
X79978844Y-63400500D01*
X79978845Y-63400499D01*
X80133497Y-63369737D01*
X80279179Y-63309394D01*
X80410289Y-63221789D01*
X80521789Y-63110289D01*
X80609394Y-62979179D01*
X80669737Y-62833497D01*
X80700500Y-62678842D01*
X80700500Y-62521158D01*
X80700500Y-62521155D01*
X80700499Y-62521153D01*
X80669738Y-62366510D01*
X80669737Y-62366503D01*
X80669735Y-62366498D01*
X80609397Y-62220827D01*
X80609389Y-62220813D01*
X80605988Y-62215722D01*
X80562062Y-62149983D01*
X84453777Y-62149983D01*
X84453777Y-63350001D01*
X84453778Y-63350018D01*
X84464277Y-63452796D01*
X84464278Y-63452799D01*
X84490060Y-63530602D01*
X84519463Y-63619334D01*
X84611565Y-63768656D01*
X84735621Y-63892712D01*
X84884943Y-63984814D01*
X85051480Y-64039999D01*
X85154268Y-64050500D01*
X86354285Y-64050499D01*
X86457074Y-64039999D01*
X86623611Y-63984814D01*
X86772933Y-63892712D01*
X86896989Y-63768656D01*
X86989091Y-63619334D01*
X87044276Y-63452797D01*
X87054777Y-63350009D01*
X87054776Y-62149992D01*
X87051313Y-62116096D01*
X87044276Y-62047203D01*
X87044275Y-62047200D01*
X87012474Y-61951232D01*
X86989091Y-61880666D01*
X86896989Y-61731344D01*
X86807780Y-61642135D01*
X92013777Y-61642135D01*
X92013777Y-63737870D01*
X92013778Y-63737876D01*
X92020185Y-63797483D01*
X92070479Y-63932328D01*
X92070483Y-63932335D01*
X92156729Y-64047544D01*
X92156732Y-64047547D01*
X92271941Y-64133793D01*
X92271948Y-64133797D01*
X92406794Y-64184091D01*
X92406793Y-64184091D01*
X92413721Y-64184835D01*
X92466404Y-64190500D01*
X94562149Y-64190499D01*
X94621760Y-64184091D01*
X94756608Y-64133796D01*
X94871823Y-64047546D01*
X94958073Y-63932331D01*
X95008368Y-63797483D01*
X95014777Y-63737873D01*
X95014776Y-61642128D01*
X95008368Y-61582517D01*
X95003601Y-61569737D01*
X94958074Y-61447671D01*
X94958070Y-61447664D01*
X94871824Y-61332455D01*
X94871821Y-61332452D01*
X94756612Y-61246206D01*
X94756605Y-61246202D01*
X94621759Y-61195908D01*
X94621760Y-61195908D01*
X94562160Y-61189501D01*
X94562158Y-61189500D01*
X94562150Y-61189500D01*
X94562141Y-61189500D01*
X92466406Y-61189500D01*
X92466400Y-61189501D01*
X92406793Y-61195908D01*
X92271948Y-61246202D01*
X92271941Y-61246206D01*
X92156732Y-61332452D01*
X92156729Y-61332455D01*
X92070483Y-61447664D01*
X92070479Y-61447671D01*
X92020185Y-61582517D01*
X92013778Y-61642116D01*
X92013778Y-61642123D01*
X92013777Y-61642135D01*
X86807780Y-61642135D01*
X86772933Y-61607288D01*
X86623611Y-61515186D01*
X86457074Y-61460001D01*
X86457072Y-61460000D01*
X86354287Y-61449500D01*
X85154275Y-61449500D01*
X85154258Y-61449501D01*
X85051480Y-61460000D01*
X85051477Y-61460001D01*
X84884945Y-61515185D01*
X84884940Y-61515187D01*
X84735619Y-61607289D01*
X84611566Y-61731342D01*
X84519464Y-61880663D01*
X84519462Y-61880668D01*
X84516169Y-61890606D01*
X84464278Y-62047203D01*
X84464278Y-62047204D01*
X84464277Y-62047204D01*
X84453777Y-62149983D01*
X80562062Y-62149983D01*
X80521789Y-62089711D01*
X80521786Y-62089707D01*
X80410292Y-61978213D01*
X80410288Y-61978210D01*
X80279185Y-61890609D01*
X80279172Y-61890602D01*
X80133501Y-61830264D01*
X80133489Y-61830261D01*
X79978845Y-61799500D01*
X79978842Y-61799500D01*
X79821158Y-61799500D01*
X79821155Y-61799500D01*
X79666510Y-61830261D01*
X79666498Y-61830264D01*
X79520827Y-61890602D01*
X79520814Y-61890609D01*
X79389711Y-61978210D01*
X79389707Y-61978213D01*
X79278213Y-62089707D01*
X79278210Y-62089711D01*
X79190609Y-62220814D01*
X79190602Y-62220827D01*
X79130264Y-62366498D01*
X79130261Y-62366510D01*
X79099500Y-62521153D01*
X79099500Y-62678846D01*
X79130261Y-62833489D01*
X79130264Y-62833501D01*
X79190602Y-62979172D01*
X79190609Y-62979185D01*
X79278210Y-63110288D01*
X79278213Y-63110292D01*
X79394018Y-63226097D01*
X79392517Y-63227597D01*
X79426437Y-63277400D01*
X79428303Y-63347244D01*
X79392112Y-63407011D01*
X79329354Y-63437723D01*
X79308435Y-63439500D01*
X79216155Y-63439500D01*
X79061510Y-63470261D01*
X79061498Y-63470264D01*
X78915827Y-63530602D01*
X78915814Y-63530609D01*
X78784711Y-63618210D01*
X78784707Y-63618213D01*
X78673213Y-63729707D01*
X78673210Y-63729711D01*
X78585609Y-63860814D01*
X78585602Y-63860827D01*
X78525264Y-64006498D01*
X78525261Y-64006510D01*
X78494500Y-64161153D01*
X64404072Y-64161153D01*
X64313462Y-64100609D01*
X64313449Y-64100602D01*
X64167778Y-64040264D01*
X64167766Y-64040261D01*
X64013122Y-64009500D01*
X64013119Y-64009500D01*
X63855435Y-64009500D01*
X63855432Y-64009500D01*
X63700787Y-64040261D01*
X63700775Y-64040264D01*
X63555104Y-64100602D01*
X63555091Y-64100609D01*
X63423988Y-64188210D01*
X63423984Y-64188213D01*
X63312490Y-64299707D01*
X63312487Y-64299711D01*
X63224886Y-64430814D01*
X63224879Y-64430827D01*
X63164541Y-64576498D01*
X63164538Y-64576510D01*
X63133777Y-64731153D01*
X62270203Y-64731153D01*
X62276227Y-64700873D01*
X62276227Y-64700871D01*
X62300499Y-64578846D01*
X62300500Y-64578844D01*
X62300500Y-64421155D01*
X62300499Y-64421153D01*
X62290885Y-64372820D01*
X62269737Y-64266503D01*
X62238256Y-64190500D01*
X62209397Y-64120827D01*
X62209390Y-64120814D01*
X62121789Y-63989711D01*
X62121786Y-63989707D01*
X62010292Y-63878213D01*
X62010288Y-63878210D01*
X61879185Y-63790609D01*
X61879172Y-63790602D01*
X61733501Y-63730264D01*
X61733489Y-63730261D01*
X61578845Y-63699500D01*
X61578842Y-63699500D01*
X61421158Y-63699500D01*
X61421155Y-63699500D01*
X61266510Y-63730261D01*
X61266498Y-63730264D01*
X61120827Y-63790602D01*
X61120814Y-63790609D01*
X60989711Y-63878210D01*
X60989707Y-63878213D01*
X60878213Y-63989707D01*
X60878210Y-63989711D01*
X60790609Y-64120814D01*
X60790602Y-64120827D01*
X60730264Y-64266498D01*
X60730261Y-64266510D01*
X60699500Y-64421153D01*
X58960466Y-64421153D01*
X58898881Y-64395644D01*
X58898869Y-64395641D01*
X58744225Y-64364880D01*
X58744222Y-64364880D01*
X58586538Y-64364880D01*
X58586535Y-64364880D01*
X58431890Y-64395641D01*
X58431878Y-64395644D01*
X58286207Y-64455982D01*
X58286194Y-64455989D01*
X58155091Y-64543590D01*
X58155087Y-64543593D01*
X58043593Y-64655087D01*
X58043590Y-64655091D01*
X57955989Y-64786194D01*
X57955982Y-64786207D01*
X57895644Y-64931878D01*
X57895641Y-64931890D01*
X57864880Y-65086533D01*
X57864880Y-65244226D01*
X57895641Y-65398869D01*
X57895644Y-65398881D01*
X57955982Y-65544552D01*
X57955986Y-65544559D01*
X57993982Y-65601424D01*
X58014860Y-65668101D01*
X58014880Y-65670315D01*
X58014880Y-70813811D01*
X57995195Y-70880850D01*
X57978561Y-70901492D01*
X57645026Y-71235026D01*
X57583703Y-71268511D01*
X57514011Y-71263527D01*
X57509893Y-71261907D01*
X57506494Y-71260499D01*
X57433497Y-71230263D01*
X57433492Y-71230262D01*
X57433489Y-71230261D01*
X57278845Y-71199500D01*
X57278842Y-71199500D01*
X57121158Y-71199500D01*
X57121155Y-71199500D01*
X56966510Y-71230261D01*
X56966498Y-71230264D01*
X56820827Y-71290602D01*
X56820819Y-71290607D01*
X56689711Y-71378210D01*
X56689707Y-71378213D01*
X56578213Y-71489707D01*
X56578210Y-71489711D01*
X56490609Y-71620814D01*
X56490602Y-71620827D01*
X56430264Y-71766498D01*
X56430261Y-71766510D01*
X56399500Y-71921153D01*
X56399500Y-72078846D01*
X56430261Y-72233489D01*
X56430263Y-72233497D01*
X56452284Y-72286660D01*
X56461907Y-72309893D01*
X56469375Y-72379363D01*
X56438099Y-72441842D01*
X56435026Y-72445026D01*
X44116373Y-84763681D01*
X44055050Y-84797166D01*
X44028692Y-84800000D01*
X42174315Y-84800000D01*
X42107276Y-84780315D01*
X42061521Y-84727511D01*
X42050315Y-84676028D01*
X42048249Y-75617648D01*
X45099500Y-75617648D01*
X45099500Y-75822351D01*
X45131522Y-76024534D01*
X45194781Y-76219223D01*
X45258691Y-76344653D01*
X45287355Y-76400908D01*
X45287715Y-76401613D01*
X45408028Y-76567213D01*
X45552786Y-76711971D01*
X45679745Y-76804210D01*
X45718390Y-76832287D01*
X45834607Y-76891503D01*
X45900776Y-76925218D01*
X45900778Y-76925218D01*
X45900781Y-76925220D01*
X45989058Y-76953903D01*
X46095465Y-76988477D01*
X46196557Y-77004488D01*
X46297648Y-77020500D01*
X46297649Y-77020500D01*
X46502351Y-77020500D01*
X46502352Y-77020500D01*
X46704534Y-76988477D01*
X46899219Y-76925220D01*
X47081610Y-76832287D01*
X47192370Y-76751816D01*
X47247213Y-76711971D01*
X47247215Y-76711968D01*
X47247219Y-76711966D01*
X47391966Y-76567219D01*
X47391968Y-76567215D01*
X47391971Y-76567213D01*
X47444732Y-76494590D01*
X47512287Y-76401610D01*
X47605220Y-76219219D01*
X47668477Y-76024534D01*
X47700500Y-75822352D01*
X47700500Y-75617648D01*
X47668477Y-75415466D01*
X47605220Y-75220781D01*
X47605218Y-75220778D01*
X47605218Y-75220776D01*
X47571503Y-75154607D01*
X47512287Y-75038390D01*
X47504556Y-75027749D01*
X47391971Y-74872786D01*
X47247213Y-74728028D01*
X47081613Y-74607715D01*
X47081612Y-74607714D01*
X47081610Y-74607713D01*
X47024653Y-74578691D01*
X46899223Y-74514781D01*
X46704534Y-74451522D01*
X46529995Y-74423878D01*
X46502352Y-74419500D01*
X46297648Y-74419500D01*
X46273329Y-74423351D01*
X46095465Y-74451522D01*
X45900776Y-74514781D01*
X45718386Y-74607715D01*
X45552786Y-74728028D01*
X45408028Y-74872786D01*
X45287715Y-75038386D01*
X45194781Y-75220776D01*
X45131522Y-75415465D01*
X45099500Y-75617648D01*
X42048249Y-75617648D01*
X42048248Y-75612804D01*
X42046931Y-69838655D01*
X42046764Y-69108561D01*
X42066433Y-69041518D01*
X42119227Y-68995751D01*
X42188383Y-68985792D01*
X42251945Y-69014803D01*
X42258445Y-69020853D01*
X42334213Y-69096621D01*
X42483904Y-69205378D01*
X42564763Y-69246577D01*
X42648764Y-69289379D01*
X42648767Y-69289380D01*
X42736750Y-69317967D01*
X42824736Y-69346555D01*
X43007486Y-69375500D01*
X43007487Y-69375500D01*
X43192513Y-69375500D01*
X43192514Y-69375500D01*
X43375264Y-69346555D01*
X43551235Y-69289379D01*
X43716096Y-69205378D01*
X43865787Y-69096621D01*
X43996621Y-68965787D01*
X44105378Y-68816096D01*
X44189379Y-68651235D01*
X44246555Y-68475264D01*
X44275500Y-68292514D01*
X44275500Y-68107486D01*
X44258103Y-67997648D01*
X45099500Y-67997648D01*
X45099500Y-68202351D01*
X45131522Y-68404534D01*
X45194781Y-68599223D01*
X45252136Y-68711786D01*
X45274920Y-68756503D01*
X45287715Y-68781613D01*
X45408028Y-68947213D01*
X45552786Y-69091971D01*
X45707749Y-69204556D01*
X45718390Y-69212287D01*
X45834607Y-69271503D01*
X45900776Y-69305218D01*
X45900778Y-69305218D01*
X45900781Y-69305220D01*
X46005137Y-69339127D01*
X46095465Y-69368477D01*
X46196557Y-69384488D01*
X46297648Y-69400500D01*
X46297649Y-69400500D01*
X46502351Y-69400500D01*
X46502352Y-69400500D01*
X46704534Y-69368477D01*
X46899219Y-69305220D01*
X47081610Y-69212287D01*
X47194506Y-69130264D01*
X47247213Y-69091971D01*
X47247215Y-69091968D01*
X47247219Y-69091966D01*
X47391966Y-68947219D01*
X47391968Y-68947215D01*
X47391971Y-68947213D01*
X47476076Y-68831450D01*
X47512287Y-68781610D01*
X47605220Y-68599219D01*
X47668477Y-68404534D01*
X47700500Y-68202352D01*
X47700500Y-67997648D01*
X47678146Y-67856510D01*
X47668477Y-67795465D01*
X47620297Y-67647183D01*
X47605220Y-67600781D01*
X47605218Y-67600778D01*
X47605218Y-67600776D01*
X47563148Y-67518210D01*
X47512287Y-67418390D01*
X47493945Y-67393144D01*
X47391971Y-67252786D01*
X47260338Y-67121153D01*
X54799500Y-67121153D01*
X54799500Y-67278846D01*
X54830261Y-67433489D01*
X54830264Y-67433501D01*
X54890602Y-67579172D01*
X54890609Y-67579185D01*
X54978210Y-67710288D01*
X54978213Y-67710292D01*
X55089707Y-67821786D01*
X55089711Y-67821789D01*
X55220814Y-67909390D01*
X55220827Y-67909397D01*
X55366498Y-67969735D01*
X55366503Y-67969737D01*
X55506820Y-67997648D01*
X55521153Y-68000499D01*
X55521156Y-68000500D01*
X55521158Y-68000500D01*
X55678844Y-68000500D01*
X55678845Y-68000499D01*
X55833497Y-67969737D01*
X55979179Y-67909394D01*
X56110289Y-67821789D01*
X56221789Y-67710289D01*
X56309394Y-67579179D01*
X56369737Y-67433497D01*
X56400500Y-67278842D01*
X56400500Y-67121158D01*
X56400500Y-67121155D01*
X56400499Y-67121153D01*
X56392193Y-67079397D01*
X56369737Y-66966503D01*
X56340029Y-66894780D01*
X56309397Y-66820827D01*
X56309390Y-66820814D01*
X56221789Y-66689711D01*
X56221786Y-66689707D01*
X56110292Y-66578213D01*
X56110288Y-66578210D01*
X55979185Y-66490609D01*
X55979172Y-66490602D01*
X55833501Y-66430264D01*
X55833489Y-66430261D01*
X55678845Y-66399500D01*
X55678842Y-66399500D01*
X55521158Y-66399500D01*
X55521155Y-66399500D01*
X55366510Y-66430261D01*
X55366498Y-66430264D01*
X55220827Y-66490602D01*
X55220814Y-66490609D01*
X55089711Y-66578210D01*
X55089707Y-66578213D01*
X54978213Y-66689707D01*
X54978210Y-66689711D01*
X54890609Y-66820814D01*
X54890602Y-66820827D01*
X54830264Y-66966498D01*
X54830261Y-66966510D01*
X54799500Y-67121153D01*
X47260338Y-67121153D01*
X47247213Y-67108028D01*
X47081613Y-66987715D01*
X47081612Y-66987714D01*
X47081610Y-66987713D01*
X47024653Y-66958691D01*
X46899223Y-66894781D01*
X46704534Y-66831522D01*
X46529995Y-66803878D01*
X46502352Y-66799500D01*
X46297648Y-66799500D01*
X46273329Y-66803351D01*
X46095465Y-66831522D01*
X45900776Y-66894781D01*
X45718386Y-66987715D01*
X45552786Y-67108028D01*
X45408028Y-67252786D01*
X45287715Y-67418386D01*
X45194781Y-67600776D01*
X45131522Y-67795465D01*
X45099500Y-67997648D01*
X44258103Y-67997648D01*
X44246555Y-67924736D01*
X44196082Y-67769394D01*
X44189380Y-67748767D01*
X44189379Y-67748764D01*
X44113977Y-67600781D01*
X44105378Y-67583904D01*
X43996621Y-67434213D01*
X43865787Y-67303379D01*
X43716096Y-67194622D01*
X43705370Y-67189157D01*
X43551235Y-67110620D01*
X43551232Y-67110619D01*
X43375265Y-67053445D01*
X43255695Y-67034507D01*
X43192514Y-67024500D01*
X43007486Y-67024500D01*
X42946569Y-67034148D01*
X42824734Y-67053445D01*
X42648767Y-67110619D01*
X42648764Y-67110620D01*
X42483903Y-67194622D01*
X42334214Y-67303378D01*
X42258030Y-67379562D01*
X42196706Y-67413046D01*
X42127015Y-67408061D01*
X42071081Y-67366190D01*
X42046665Y-67300725D01*
X42046349Y-67291931D01*
X42045615Y-64071577D01*
X50583777Y-64071577D01*
X50583777Y-64268422D01*
X50614567Y-64462826D01*
X50675394Y-64650029D01*
X50744781Y-64786207D01*
X50764753Y-64825405D01*
X50880449Y-64984646D01*
X51019631Y-65123828D01*
X51178872Y-65239524D01*
X51238165Y-65269735D01*
X51354247Y-65328882D01*
X51354249Y-65328882D01*
X51354252Y-65328884D01*
X51449115Y-65359707D01*
X51541450Y-65389709D01*
X51735855Y-65420500D01*
X51735860Y-65420500D01*
X51932699Y-65420500D01*
X52127103Y-65389709D01*
X52154479Y-65380814D01*
X52314302Y-65328884D01*
X52489682Y-65239524D01*
X52648923Y-65123828D01*
X52788105Y-64984646D01*
X52903801Y-64825405D01*
X52993161Y-64650025D01*
X53053986Y-64462826D01*
X53059607Y-64427339D01*
X53084777Y-64268422D01*
X53084777Y-64071577D01*
X53053986Y-63877173D01*
X52993159Y-63689970D01*
X52946020Y-63597455D01*
X52903801Y-63514595D01*
X52788105Y-63355354D01*
X52648923Y-63216172D01*
X52489682Y-63100476D01*
X52441596Y-63075975D01*
X52314306Y-63011117D01*
X52127103Y-62950290D01*
X51932699Y-62919500D01*
X51932694Y-62919500D01*
X51735860Y-62919500D01*
X51735855Y-62919500D01*
X51541450Y-62950290D01*
X51354247Y-63011117D01*
X51178871Y-63100476D01*
X51088018Y-63166485D01*
X51019631Y-63216172D01*
X51019629Y-63216174D01*
X51019628Y-63216174D01*
X50880451Y-63355351D01*
X50880451Y-63355352D01*
X50880449Y-63355354D01*
X50846357Y-63402277D01*
X50764753Y-63514594D01*
X50675394Y-63689970D01*
X50614567Y-63877173D01*
X50583777Y-64071577D01*
X42045615Y-64071577D01*
X42045007Y-61407486D01*
X44824500Y-61407486D01*
X44824500Y-61592513D01*
X44853445Y-61775265D01*
X44910619Y-61951232D01*
X44910620Y-61951235D01*
X44981176Y-62089707D01*
X44994622Y-62116096D01*
X45103379Y-62265787D01*
X45234213Y-62396621D01*
X45383904Y-62505378D01*
X45464763Y-62546577D01*
X45548764Y-62589379D01*
X45548767Y-62589380D01*
X45636750Y-62617967D01*
X45724736Y-62646555D01*
X45907486Y-62675500D01*
X45907487Y-62675500D01*
X46092513Y-62675500D01*
X46092514Y-62675500D01*
X46275264Y-62646555D01*
X46451235Y-62589379D01*
X46616096Y-62505378D01*
X46765787Y-62396621D01*
X46896621Y-62265787D01*
X47005378Y-62116096D01*
X47089379Y-61951235D01*
X47146555Y-61775264D01*
X47175500Y-61592514D01*
X47175500Y-61407486D01*
X47146555Y-61224736D01*
X47109438Y-61110500D01*
X47089380Y-61048767D01*
X47089379Y-61048764D01*
X47030823Y-60933842D01*
X47005378Y-60883904D01*
X46896621Y-60734213D01*
X46883561Y-60721153D01*
X69364500Y-60721153D01*
X69364500Y-60878846D01*
X69395261Y-61033489D01*
X69395264Y-61033501D01*
X69455602Y-61179172D01*
X69455609Y-61179185D01*
X69543210Y-61310288D01*
X69543213Y-61310292D01*
X69654707Y-61421786D01*
X69654711Y-61421789D01*
X69785814Y-61509390D01*
X69785827Y-61509397D01*
X69918611Y-61564397D01*
X69931503Y-61569737D01*
X70046005Y-61592513D01*
X70086153Y-61600499D01*
X70086156Y-61600500D01*
X70086158Y-61600500D01*
X70243844Y-61600500D01*
X70243845Y-61600499D01*
X70398497Y-61569737D01*
X70544179Y-61509394D01*
X70675289Y-61421789D01*
X70786789Y-61310289D01*
X70874394Y-61179179D01*
X70874399Y-61179166D01*
X70876065Y-61176052D01*
X70877373Y-61174719D01*
X70877779Y-61174113D01*
X70877894Y-61174189D01*
X70925025Y-61126205D01*
X70985426Y-61110500D01*
X71093844Y-61110500D01*
X71093845Y-61110499D01*
X71248497Y-61079737D01*
X71394179Y-61019394D01*
X71525289Y-60931789D01*
X71636789Y-60820289D01*
X71666280Y-60776153D01*
X77873777Y-60776153D01*
X77873777Y-60933846D01*
X77904538Y-61088489D01*
X77904541Y-61088501D01*
X77964879Y-61234172D01*
X77964886Y-61234185D01*
X78052487Y-61365288D01*
X78052490Y-61365292D01*
X78163984Y-61476786D01*
X78163988Y-61476789D01*
X78295091Y-61564390D01*
X78295104Y-61564397D01*
X78382266Y-61600500D01*
X78440780Y-61624737D01*
X78595430Y-61655499D01*
X78595433Y-61655500D01*
X78595435Y-61655500D01*
X78753121Y-61655500D01*
X78753122Y-61655499D01*
X78907774Y-61624737D01*
X79053456Y-61564394D01*
X79184566Y-61476789D01*
X79296066Y-61365289D01*
X79383671Y-61234179D01*
X79444014Y-61088497D01*
X79474777Y-60933842D01*
X79474777Y-60776158D01*
X79474777Y-60776155D01*
X79474776Y-60776153D01*
X79466434Y-60734216D01*
X79444014Y-60621503D01*
X79436507Y-60603379D01*
X79383674Y-60475827D01*
X79383667Y-60475814D01*
X79296066Y-60344711D01*
X79296063Y-60344707D01*
X79184569Y-60233213D01*
X79184565Y-60233210D01*
X79053462Y-60145609D01*
X79053449Y-60145602D01*
X78907778Y-60085264D01*
X78907766Y-60085261D01*
X78753122Y-60054500D01*
X78753119Y-60054500D01*
X78595435Y-60054500D01*
X78595432Y-60054500D01*
X78440787Y-60085261D01*
X78440775Y-60085264D01*
X78295104Y-60145602D01*
X78295091Y-60145609D01*
X78163988Y-60233210D01*
X78163984Y-60233213D01*
X78052490Y-60344707D01*
X78052487Y-60344711D01*
X77964886Y-60475814D01*
X77964879Y-60475827D01*
X77904541Y-60621498D01*
X77904538Y-60621510D01*
X77873777Y-60776153D01*
X71666280Y-60776153D01*
X71694305Y-60734210D01*
X71716379Y-60701175D01*
X71716379Y-60701174D01*
X71724394Y-60689179D01*
X71784737Y-60543497D01*
X71815500Y-60388842D01*
X71815500Y-60231158D01*
X71815500Y-60231155D01*
X71815499Y-60231153D01*
X71808463Y-60195780D01*
X71784737Y-60076503D01*
X71775623Y-60054500D01*
X71724397Y-59930827D01*
X71724390Y-59930814D01*
X71636789Y-59799711D01*
X71636786Y-59799707D01*
X71525292Y-59688213D01*
X71525288Y-59688210D01*
X71440081Y-59631276D01*
X71395276Y-59577664D01*
X71386569Y-59508339D01*
X71405870Y-59459283D01*
X71459394Y-59379179D01*
X71519737Y-59233497D01*
X71550500Y-59078842D01*
X71550500Y-58921158D01*
X71544531Y-58891153D01*
X74299500Y-58891153D01*
X74299500Y-59048846D01*
X74330261Y-59203489D01*
X74330264Y-59203501D01*
X74390602Y-59349172D01*
X74390609Y-59349185D01*
X74478210Y-59480288D01*
X74478213Y-59480292D01*
X74589707Y-59591786D01*
X74589711Y-59591789D01*
X74720814Y-59679390D01*
X74720827Y-59679397D01*
X74821282Y-59721006D01*
X74866503Y-59739737D01*
X75021153Y-59770499D01*
X75021156Y-59770500D01*
X75021158Y-59770500D01*
X75178844Y-59770500D01*
X75178845Y-59770499D01*
X75333497Y-59739737D01*
X75479179Y-59679394D01*
X75610289Y-59591789D01*
X75680925Y-59521153D01*
X82199500Y-59521153D01*
X82199500Y-59678846D01*
X82230261Y-59833489D01*
X82230264Y-59833501D01*
X82290602Y-59979172D01*
X82290609Y-59979185D01*
X82378210Y-60110288D01*
X82378213Y-60110292D01*
X82489707Y-60221786D01*
X82489711Y-60221789D01*
X82620814Y-60309390D01*
X82620827Y-60309397D01*
X82706084Y-60344711D01*
X82766503Y-60369737D01*
X82921153Y-60400499D01*
X82921156Y-60400500D01*
X82921158Y-60400500D01*
X83078844Y-60400500D01*
X83078845Y-60400499D01*
X83233497Y-60369737D01*
X83379179Y-60309394D01*
X83510289Y-60221789D01*
X83621789Y-60110289D01*
X83709394Y-59979179D01*
X83769737Y-59833497D01*
X83800500Y-59678842D01*
X83800500Y-59521158D01*
X83800500Y-59521155D01*
X83800499Y-59521153D01*
X83792371Y-59480292D01*
X83769737Y-59366503D01*
X83747678Y-59313248D01*
X83709397Y-59220827D01*
X83709390Y-59220814D01*
X83621789Y-59089711D01*
X83621786Y-59089707D01*
X83510292Y-58978213D01*
X83510288Y-58978210D01*
X83379185Y-58890609D01*
X83379172Y-58890602D01*
X83233501Y-58830264D01*
X83233489Y-58830261D01*
X83078845Y-58799500D01*
X83078842Y-58799500D01*
X82921158Y-58799500D01*
X82921155Y-58799500D01*
X82766510Y-58830261D01*
X82766498Y-58830264D01*
X82620827Y-58890602D01*
X82620814Y-58890609D01*
X82489711Y-58978210D01*
X82489707Y-58978213D01*
X82378213Y-59089707D01*
X82378210Y-59089711D01*
X82290609Y-59220814D01*
X82290602Y-59220827D01*
X82230264Y-59366498D01*
X82230261Y-59366510D01*
X82199500Y-59521153D01*
X75680925Y-59521153D01*
X75721789Y-59480289D01*
X75735825Y-59459283D01*
X75744584Y-59446175D01*
X75809390Y-59349185D01*
X75809390Y-59349184D01*
X75809394Y-59349179D01*
X75869737Y-59203497D01*
X75900500Y-59048842D01*
X75900500Y-58891158D01*
X75900500Y-58891155D01*
X75900499Y-58891153D01*
X75880372Y-58789970D01*
X75869737Y-58736503D01*
X75825285Y-58629185D01*
X75809397Y-58590827D01*
X75809390Y-58590814D01*
X75721789Y-58459711D01*
X75721786Y-58459707D01*
X75610292Y-58348213D01*
X75610288Y-58348210D01*
X75479185Y-58260609D01*
X75479172Y-58260602D01*
X75333501Y-58200264D01*
X75333489Y-58200261D01*
X75178845Y-58169500D01*
X75178842Y-58169500D01*
X75021158Y-58169500D01*
X75021155Y-58169500D01*
X74866510Y-58200261D01*
X74866498Y-58200264D01*
X74720827Y-58260602D01*
X74720814Y-58260609D01*
X74589711Y-58348210D01*
X74589707Y-58348213D01*
X74478213Y-58459707D01*
X74478210Y-58459711D01*
X74390609Y-58590814D01*
X74390602Y-58590827D01*
X74330264Y-58736498D01*
X74330261Y-58736510D01*
X74299500Y-58891153D01*
X71544531Y-58891153D01*
X71544423Y-58890609D01*
X71532419Y-58830261D01*
X71519737Y-58766503D01*
X71483123Y-58678108D01*
X71459397Y-58620827D01*
X71459390Y-58620814D01*
X71371789Y-58489711D01*
X71371786Y-58489707D01*
X71260292Y-58378213D01*
X71260288Y-58378210D01*
X71129185Y-58290609D01*
X71129172Y-58290602D01*
X70983501Y-58230264D01*
X70983489Y-58230261D01*
X70828845Y-58199500D01*
X70828842Y-58199500D01*
X70671158Y-58199500D01*
X70671155Y-58199500D01*
X70516510Y-58230261D01*
X70516498Y-58230264D01*
X70370827Y-58290602D01*
X70370814Y-58290609D01*
X70239711Y-58378210D01*
X70239707Y-58378213D01*
X70128213Y-58489707D01*
X70128210Y-58489711D01*
X70040609Y-58620814D01*
X70040602Y-58620827D01*
X69980264Y-58766498D01*
X69980261Y-58766510D01*
X69949500Y-58921153D01*
X69949500Y-59078846D01*
X69980261Y-59233489D01*
X69980264Y-59233501D01*
X70040602Y-59379172D01*
X70040609Y-59379185D01*
X70128210Y-59510288D01*
X70128213Y-59510292D01*
X70239707Y-59621786D01*
X70239711Y-59621789D01*
X70324918Y-59678723D01*
X70330385Y-59685265D01*
X70338108Y-59688880D01*
X70352453Y-59711670D01*
X70369723Y-59732335D01*
X70370785Y-59740796D01*
X70375327Y-59748011D01*
X70375073Y-59774937D01*
X70378430Y-59801660D01*
X70374733Y-59811174D01*
X70374670Y-59817877D01*
X70360461Y-59847901D01*
X70359707Y-59849843D01*
X70359338Y-59850405D01*
X70305606Y-59930821D01*
X70303933Y-59934859D01*
X70298253Y-59943518D01*
X70275704Y-59962687D01*
X70254969Y-59983797D01*
X70249071Y-59985330D01*
X70245021Y-59988774D01*
X70226021Y-59991323D01*
X70194573Y-59999500D01*
X70086155Y-59999500D01*
X69931510Y-60030261D01*
X69931498Y-60030264D01*
X69785827Y-60090602D01*
X69785814Y-60090609D01*
X69654711Y-60178210D01*
X69654707Y-60178213D01*
X69543213Y-60289707D01*
X69543210Y-60289711D01*
X69455609Y-60420814D01*
X69455602Y-60420827D01*
X69395264Y-60566498D01*
X69395261Y-60566510D01*
X69364500Y-60721153D01*
X46883561Y-60721153D01*
X46765787Y-60603379D01*
X46616096Y-60494622D01*
X46579197Y-60475821D01*
X46451235Y-60410620D01*
X46451232Y-60410619D01*
X46275265Y-60353445D01*
X46183889Y-60338972D01*
X46092514Y-60324500D01*
X45907486Y-60324500D01*
X45846569Y-60334148D01*
X45724734Y-60353445D01*
X45548767Y-60410619D01*
X45548764Y-60410620D01*
X45383903Y-60494622D01*
X45316644Y-60543489D01*
X45234213Y-60603379D01*
X45234211Y-60603381D01*
X45234210Y-60603381D01*
X45103381Y-60734210D01*
X45103381Y-60734211D01*
X45103379Y-60734213D01*
X45072904Y-60776158D01*
X44994622Y-60883903D01*
X44910620Y-61048764D01*
X44910619Y-61048767D01*
X44853445Y-61224734D01*
X44824500Y-61407486D01*
X42045007Y-61407486D01*
X42044497Y-59171577D01*
X50583777Y-59171577D01*
X50583777Y-59368422D01*
X50614567Y-59562826D01*
X50675394Y-59750029D01*
X50725263Y-59847901D01*
X50764753Y-59925405D01*
X50880449Y-60084646D01*
X51019631Y-60223828D01*
X51178872Y-60339524D01*
X51206194Y-60353445D01*
X51354247Y-60428882D01*
X51354249Y-60428882D01*
X51354252Y-60428884D01*
X51454594Y-60461487D01*
X51541450Y-60489709D01*
X51735855Y-60520500D01*
X51735860Y-60520500D01*
X51932699Y-60520500D01*
X52127103Y-60489709D01*
X52169827Y-60475827D01*
X52314302Y-60428884D01*
X52489682Y-60339524D01*
X52648923Y-60223828D01*
X52788105Y-60084646D01*
X52903801Y-59925405D01*
X52993161Y-59750025D01*
X53053986Y-59562826D01*
X53055090Y-59555855D01*
X53084777Y-59368422D01*
X53084777Y-59171577D01*
X53053986Y-58977173D01*
X53024834Y-58887454D01*
X53014361Y-58855222D01*
X57814878Y-58855222D01*
X57814878Y-59012915D01*
X57845639Y-59167558D01*
X57845642Y-59167570D01*
X57905980Y-59313241D01*
X57905987Y-59313254D01*
X57993588Y-59444357D01*
X57993591Y-59444361D01*
X58105085Y-59555855D01*
X58105089Y-59555858D01*
X58236192Y-59643459D01*
X58236205Y-59643466D01*
X58345846Y-59688880D01*
X58381881Y-59703806D01*
X58525305Y-59732335D01*
X58536531Y-59734568D01*
X58536534Y-59734569D01*
X58536536Y-59734569D01*
X58694222Y-59734569D01*
X58694223Y-59734568D01*
X58848875Y-59703806D01*
X58994557Y-59643463D01*
X59125667Y-59555858D01*
X59237167Y-59444358D01*
X59324772Y-59313248D01*
X59385115Y-59167566D01*
X59415878Y-59012911D01*
X59415878Y-58855227D01*
X59415878Y-58855224D01*
X59415877Y-58855222D01*
X59385115Y-58700572D01*
X59355546Y-58629185D01*
X59324775Y-58554896D01*
X59324768Y-58554883D01*
X59237167Y-58423780D01*
X59237164Y-58423776D01*
X59125670Y-58312282D01*
X59125666Y-58312279D01*
X59059650Y-58268168D01*
X58994563Y-58224678D01*
X58994550Y-58224671D01*
X58865344Y-58171153D01*
X60949500Y-58171153D01*
X60949500Y-58328846D01*
X60980261Y-58483489D01*
X60980264Y-58483501D01*
X61040602Y-58629172D01*
X61040609Y-58629185D01*
X61128210Y-58760288D01*
X61128213Y-58760292D01*
X61239707Y-58871786D01*
X61239711Y-58871789D01*
X61370814Y-58959390D01*
X61370827Y-58959397D01*
X61416254Y-58978213D01*
X61516503Y-59019737D01*
X61662823Y-59048842D01*
X61671153Y-59050499D01*
X61671156Y-59050500D01*
X61671158Y-59050500D01*
X61828844Y-59050500D01*
X61828845Y-59050499D01*
X61983497Y-59019737D01*
X62129179Y-58959394D01*
X62260289Y-58871789D01*
X62371789Y-58760289D01*
X62459394Y-58629179D01*
X62462854Y-58620827D01*
X62517163Y-58489711D01*
X62519737Y-58483497D01*
X62550500Y-58328842D01*
X62550500Y-58171158D01*
X62550500Y-58171155D01*
X62550499Y-58171153D01*
X62526458Y-58050291D01*
X62519737Y-58016503D01*
X62519735Y-58016498D01*
X62459397Y-57870827D01*
X62459390Y-57870814D01*
X62371789Y-57739711D01*
X62371786Y-57739707D01*
X62260292Y-57628213D01*
X62260288Y-57628210D01*
X62129185Y-57540609D01*
X62129172Y-57540602D01*
X61983501Y-57480264D01*
X61983489Y-57480261D01*
X61828845Y-57449500D01*
X61828842Y-57449500D01*
X61671158Y-57449500D01*
X61671155Y-57449500D01*
X61516510Y-57480261D01*
X61516498Y-57480264D01*
X61370827Y-57540602D01*
X61370814Y-57540609D01*
X61239711Y-57628210D01*
X61239707Y-57628213D01*
X61128213Y-57739707D01*
X61128210Y-57739711D01*
X61040609Y-57870814D01*
X61040602Y-57870827D01*
X60980264Y-58016498D01*
X60980261Y-58016510D01*
X60949500Y-58171153D01*
X58865344Y-58171153D01*
X58848879Y-58164333D01*
X58848867Y-58164330D01*
X58694223Y-58133569D01*
X58694220Y-58133569D01*
X58536536Y-58133569D01*
X58536533Y-58133569D01*
X58381888Y-58164330D01*
X58381876Y-58164333D01*
X58236205Y-58224671D01*
X58236192Y-58224678D01*
X58105089Y-58312279D01*
X58105085Y-58312282D01*
X57993591Y-58423776D01*
X57993588Y-58423780D01*
X57905987Y-58554883D01*
X57905980Y-58554896D01*
X57845642Y-58700567D01*
X57845639Y-58700579D01*
X57814878Y-58855222D01*
X53014361Y-58855222D01*
X52993159Y-58789970D01*
X52911235Y-58629185D01*
X52903801Y-58614595D01*
X52788105Y-58455354D01*
X52648923Y-58316172D01*
X52489682Y-58200476D01*
X52489260Y-58200261D01*
X52314306Y-58111117D01*
X52127103Y-58050290D01*
X51932699Y-58019500D01*
X51932694Y-58019500D01*
X51735860Y-58019500D01*
X51735855Y-58019500D01*
X51541450Y-58050290D01*
X51354247Y-58111117D01*
X51178871Y-58200476D01*
X51096116Y-58260602D01*
X51019631Y-58316172D01*
X51019629Y-58316174D01*
X51019628Y-58316174D01*
X50880451Y-58455351D01*
X50880451Y-58455352D01*
X50880449Y-58455354D01*
X50860008Y-58483489D01*
X50764753Y-58614594D01*
X50675394Y-58789970D01*
X50614567Y-58977173D01*
X50583777Y-59171577D01*
X42044497Y-59171577D01*
X42043810Y-56157486D01*
X44899500Y-56157486D01*
X44899500Y-56342513D01*
X44928445Y-56525265D01*
X44985619Y-56701232D01*
X44985620Y-56701235D01*
X45056609Y-56840557D01*
X45069622Y-56866096D01*
X45178379Y-57015787D01*
X45309213Y-57146621D01*
X45458904Y-57255378D01*
X45539763Y-57296577D01*
X45623764Y-57339379D01*
X45623767Y-57339380D01*
X45711750Y-57367967D01*
X45799736Y-57396555D01*
X45982486Y-57425500D01*
X45982487Y-57425500D01*
X46167513Y-57425500D01*
X46167514Y-57425500D01*
X46350264Y-57396555D01*
X46526235Y-57339379D01*
X46691096Y-57255378D01*
X46840787Y-57146621D01*
X46971621Y-57015787D01*
X47080378Y-56866096D01*
X47164379Y-56701235D01*
X47221555Y-56525264D01*
X47250500Y-56342514D01*
X47250500Y-56171153D01*
X48449500Y-56171153D01*
X48449500Y-56328846D01*
X48480261Y-56483489D01*
X48480264Y-56483501D01*
X48540602Y-56629172D01*
X48540609Y-56629185D01*
X48628210Y-56760288D01*
X48628213Y-56760292D01*
X48739707Y-56871786D01*
X48739711Y-56871789D01*
X48870814Y-56959390D01*
X48870827Y-56959397D01*
X49016498Y-57019735D01*
X49016503Y-57019737D01*
X49171153Y-57050499D01*
X49171156Y-57050500D01*
X49171158Y-57050500D01*
X49328844Y-57050500D01*
X49328845Y-57050499D01*
X49483497Y-57019737D01*
X49629179Y-56959394D01*
X49760289Y-56871789D01*
X49871789Y-56760289D01*
X49959394Y-56629179D01*
X50019737Y-56483497D01*
X50050500Y-56328842D01*
X50050500Y-56171158D01*
X50050500Y-56171155D01*
X50050499Y-56171153D01*
X50042148Y-56129172D01*
X50019737Y-56016503D01*
X50000953Y-55971153D01*
X49959397Y-55870827D01*
X49959390Y-55870814D01*
X49871790Y-55739712D01*
X49871784Y-55739705D01*
X49803232Y-55671153D01*
X58783777Y-55671153D01*
X58783777Y-55828846D01*
X58814538Y-55983489D01*
X58814541Y-55983501D01*
X58874879Y-56129172D01*
X58874886Y-56129185D01*
X58962487Y-56260288D01*
X58962490Y-56260292D01*
X59073984Y-56371786D01*
X59073988Y-56371789D01*
X59205091Y-56459390D01*
X59205104Y-56459397D01*
X59350775Y-56519735D01*
X59350780Y-56519737D01*
X59505430Y-56550499D01*
X59505433Y-56550500D01*
X59505435Y-56550500D01*
X59663121Y-56550500D01*
X59663122Y-56550499D01*
X59817774Y-56519737D01*
X59963456Y-56459394D01*
X60094566Y-56371789D01*
X60206066Y-56260289D01*
X60293671Y-56129179D01*
X60354014Y-55983497D01*
X60356470Y-55971153D01*
X63134500Y-55971153D01*
X63134500Y-56128846D01*
X63165261Y-56283489D01*
X63165264Y-56283501D01*
X63225602Y-56429172D01*
X63225609Y-56429185D01*
X63313210Y-56560288D01*
X63313213Y-56560292D01*
X63424707Y-56671786D01*
X63424711Y-56671789D01*
X63555814Y-56759390D01*
X63555827Y-56759397D01*
X63629078Y-56789738D01*
X63701503Y-56819737D01*
X63806172Y-56840557D01*
X63856153Y-56850499D01*
X63856156Y-56850500D01*
X63856158Y-56850500D01*
X64013844Y-56850500D01*
X64013845Y-56850499D01*
X64168497Y-56819737D01*
X64314179Y-56759394D01*
X64445289Y-56671789D01*
X64556789Y-56560289D01*
X64644394Y-56429179D01*
X64704737Y-56283497D01*
X64735500Y-56128842D01*
X64735500Y-55971158D01*
X64729532Y-55941153D01*
X65323777Y-55941153D01*
X65323777Y-56098846D01*
X65354538Y-56253489D01*
X65354541Y-56253501D01*
X65414879Y-56399172D01*
X65414886Y-56399185D01*
X65502487Y-56530288D01*
X65502490Y-56530292D01*
X65613984Y-56641786D01*
X65613988Y-56641789D01*
X65745091Y-56729390D01*
X65745104Y-56729397D01*
X65844337Y-56770500D01*
X65890780Y-56789737D01*
X66041589Y-56819735D01*
X66045430Y-56820499D01*
X66045433Y-56820500D01*
X66045435Y-56820500D01*
X66203121Y-56820500D01*
X66203122Y-56820499D01*
X66357774Y-56789737D01*
X66503456Y-56729394D01*
X66634566Y-56641789D01*
X66746066Y-56530289D01*
X66833671Y-56399179D01*
X66894014Y-56253497D01*
X66924777Y-56098842D01*
X66924777Y-55941158D01*
X66924777Y-55941155D01*
X66918432Y-55909258D01*
X66918432Y-55909257D01*
X66914831Y-55891153D01*
X70363777Y-55891153D01*
X70363777Y-56048846D01*
X70394538Y-56203489D01*
X70394541Y-56203501D01*
X70454879Y-56349172D01*
X70454886Y-56349185D01*
X70542487Y-56480288D01*
X70542490Y-56480292D01*
X70653984Y-56591786D01*
X70653988Y-56591789D01*
X70785091Y-56679390D01*
X70785104Y-56679397D01*
X70930775Y-56739735D01*
X70930780Y-56739737D01*
X71085430Y-56770499D01*
X71085433Y-56770500D01*
X71085435Y-56770500D01*
X71243121Y-56770500D01*
X71243122Y-56770499D01*
X71397774Y-56739737D01*
X71543456Y-56679394D01*
X71674566Y-56591789D01*
X71786066Y-56480289D01*
X71873671Y-56349179D01*
X71934014Y-56203497D01*
X71948864Y-56128842D01*
X71949102Y-56127648D01*
X80973777Y-56127648D01*
X80973777Y-56332351D01*
X81005799Y-56534534D01*
X81069058Y-56729223D01*
X81115567Y-56820500D01*
X81138799Y-56866096D01*
X81161992Y-56911613D01*
X81282305Y-57077213D01*
X81427063Y-57221971D01*
X81582026Y-57334556D01*
X81592667Y-57342287D01*
X81699172Y-57396554D01*
X81775053Y-57435218D01*
X81775055Y-57435218D01*
X81775058Y-57435220D01*
X81879414Y-57469127D01*
X81969742Y-57498477D01*
X82070834Y-57514488D01*
X82171925Y-57530500D01*
X82171926Y-57530500D01*
X82376628Y-57530500D01*
X82376629Y-57530500D01*
X82578811Y-57498477D01*
X82773496Y-57435220D01*
X82955887Y-57342287D01*
X83075508Y-57255378D01*
X83121490Y-57221971D01*
X83121492Y-57221968D01*
X83121496Y-57221966D01*
X83266243Y-57077219D01*
X83266245Y-57077215D01*
X83266248Y-57077213D01*
X83351850Y-56959390D01*
X83386564Y-56911610D01*
X83479497Y-56729219D01*
X83542754Y-56534534D01*
X83574777Y-56332352D01*
X83574777Y-56127648D01*
X83562296Y-56048846D01*
X83542754Y-55925465D01*
X83497602Y-55786503D01*
X83479497Y-55730781D01*
X83479495Y-55730778D01*
X83479495Y-55730776D01*
X83433656Y-55640814D01*
X83386564Y-55548390D01*
X83363393Y-55516498D01*
X83266248Y-55382786D01*
X83121496Y-55238034D01*
X83080284Y-55208092D01*
X82963293Y-55123094D01*
X82963293Y-55123093D01*
X82955888Y-55117713D01*
X82779127Y-55027648D01*
X84453777Y-55027648D01*
X84453777Y-55232351D01*
X84485799Y-55434534D01*
X84549058Y-55629223D01*
X84605356Y-55739712D01*
X84635446Y-55798767D01*
X84641992Y-55811613D01*
X84762305Y-55977213D01*
X84907063Y-56121971D01*
X85019282Y-56203501D01*
X85072667Y-56242287D01*
X85153554Y-56283501D01*
X85255053Y-56335218D01*
X85255055Y-56335218D01*
X85255058Y-56335220D01*
X85359414Y-56369127D01*
X85449742Y-56398477D01*
X85550834Y-56414488D01*
X85651925Y-56430500D01*
X85651926Y-56430500D01*
X85856628Y-56430500D01*
X85856629Y-56430500D01*
X86058811Y-56398477D01*
X86253496Y-56335220D01*
X86435887Y-56242287D01*
X86528867Y-56174732D01*
X86601490Y-56121971D01*
X86601492Y-56121968D01*
X86601496Y-56121966D01*
X86746243Y-55977219D01*
X86746245Y-55977215D01*
X86746248Y-55977213D01*
X86816768Y-55880149D01*
X86866564Y-55811610D01*
X86959497Y-55629219D01*
X87022754Y-55434534D01*
X87054777Y-55232352D01*
X87054777Y-55027648D01*
X87045948Y-54971902D01*
X92013777Y-54971902D01*
X92013777Y-55208097D01*
X92050723Y-55441368D01*
X92123710Y-55665996D01*
X92206685Y-55828842D01*
X92230934Y-55876433D01*
X92369760Y-56067510D01*
X92536767Y-56234517D01*
X92727844Y-56373343D01*
X92778550Y-56399179D01*
X92938280Y-56480566D01*
X92938282Y-56480566D01*
X92938285Y-56480568D01*
X93058689Y-56519689D01*
X93162908Y-56553553D01*
X93396180Y-56590500D01*
X93396185Y-56590500D01*
X93632374Y-56590500D01*
X93865645Y-56553553D01*
X93924179Y-56534534D01*
X94090269Y-56480568D01*
X94300710Y-56373343D01*
X94491787Y-56234517D01*
X94658794Y-56067510D01*
X94797620Y-55876433D01*
X94904845Y-55665992D01*
X94977830Y-55441368D01*
X94984666Y-55398210D01*
X95014777Y-55208097D01*
X95014777Y-54971902D01*
X94977830Y-54738631D01*
X94904843Y-54514003D01*
X94836431Y-54379738D01*
X94797620Y-54303567D01*
X94658794Y-54112490D01*
X94491787Y-53945483D01*
X94300710Y-53806657D01*
X94090273Y-53699433D01*
X93865645Y-53626446D01*
X93632374Y-53589500D01*
X93632369Y-53589500D01*
X93396185Y-53589500D01*
X93396180Y-53589500D01*
X93162908Y-53626446D01*
X92938280Y-53699433D01*
X92727843Y-53806657D01*
X92618827Y-53885862D01*
X92536767Y-53945483D01*
X92536765Y-53945485D01*
X92536764Y-53945485D01*
X92369762Y-54112487D01*
X92369762Y-54112488D01*
X92369760Y-54112490D01*
X92310139Y-54194550D01*
X92230934Y-54303566D01*
X92123710Y-54514003D01*
X92050723Y-54738631D01*
X92013777Y-54971902D01*
X87045948Y-54971902D01*
X87022754Y-54825466D01*
X86959497Y-54630781D01*
X86959495Y-54630778D01*
X86959495Y-54630776D01*
X86899998Y-54514008D01*
X86866564Y-54448390D01*
X86816686Y-54379738D01*
X86746248Y-54282786D01*
X86601490Y-54138028D01*
X86435890Y-54017715D01*
X86435889Y-54017714D01*
X86435887Y-54017713D01*
X86378930Y-53988691D01*
X86253500Y-53924781D01*
X86058811Y-53861522D01*
X85884272Y-53833878D01*
X85856629Y-53829500D01*
X85651925Y-53829500D01*
X85627606Y-53833351D01*
X85449742Y-53861522D01*
X85255053Y-53924781D01*
X85072663Y-54017715D01*
X84907063Y-54138028D01*
X84762305Y-54282786D01*
X84641992Y-54448386D01*
X84549058Y-54630776D01*
X84485799Y-54825465D01*
X84453777Y-55027648D01*
X82779127Y-55027648D01*
X82773500Y-55024781D01*
X82578811Y-54961522D01*
X82404272Y-54933878D01*
X82376629Y-54929500D01*
X82171925Y-54929500D01*
X82147606Y-54933351D01*
X81969742Y-54961522D01*
X81775053Y-55024781D01*
X81592663Y-55117715D01*
X81427063Y-55238028D01*
X81282305Y-55382786D01*
X81161992Y-55548386D01*
X81069058Y-55730776D01*
X81005799Y-55925465D01*
X80973777Y-56127648D01*
X71949102Y-56127648D01*
X71954883Y-56098585D01*
X71954883Y-56098584D01*
X71964777Y-56048844D01*
X71964777Y-55891155D01*
X71964776Y-55891153D01*
X71946399Y-55798765D01*
X71934014Y-55736503D01*
X71931642Y-55730776D01*
X71873674Y-55590827D01*
X71873667Y-55590814D01*
X71786066Y-55459711D01*
X71786063Y-55459707D01*
X71674569Y-55348213D01*
X71674565Y-55348210D01*
X71543462Y-55260609D01*
X71543449Y-55260602D01*
X71397778Y-55200264D01*
X71397766Y-55200261D01*
X71243122Y-55169500D01*
X71243119Y-55169500D01*
X71085435Y-55169500D01*
X71085432Y-55169500D01*
X70930787Y-55200261D01*
X70930775Y-55200264D01*
X70785104Y-55260602D01*
X70785091Y-55260609D01*
X70653988Y-55348210D01*
X70653984Y-55348213D01*
X70542490Y-55459707D01*
X70542487Y-55459711D01*
X70454886Y-55590814D01*
X70454879Y-55590827D01*
X70394541Y-55736498D01*
X70394538Y-55736510D01*
X70363777Y-55891153D01*
X66914831Y-55891153D01*
X66894015Y-55786510D01*
X66894014Y-55786503D01*
X66874630Y-55739705D01*
X66833674Y-55640827D01*
X66833667Y-55640814D01*
X66746066Y-55509711D01*
X66746063Y-55509707D01*
X66634569Y-55398213D01*
X66634565Y-55398210D01*
X66503462Y-55310609D01*
X66503449Y-55310602D01*
X66357778Y-55250264D01*
X66357766Y-55250261D01*
X66203122Y-55219500D01*
X66203119Y-55219500D01*
X66045435Y-55219500D01*
X66045432Y-55219500D01*
X65890787Y-55250261D01*
X65890775Y-55250264D01*
X65745104Y-55310602D01*
X65745091Y-55310609D01*
X65613988Y-55398210D01*
X65613984Y-55398213D01*
X65502490Y-55509707D01*
X65502487Y-55509711D01*
X65414886Y-55640814D01*
X65414879Y-55640827D01*
X65354541Y-55786498D01*
X65354538Y-55786510D01*
X65323777Y-55941153D01*
X64729532Y-55941153D01*
X64704737Y-55816503D01*
X64692309Y-55786498D01*
X64644397Y-55670827D01*
X64644390Y-55670814D01*
X64556789Y-55539711D01*
X64556786Y-55539707D01*
X64445292Y-55428213D01*
X64445288Y-55428210D01*
X64314185Y-55340609D01*
X64314172Y-55340602D01*
X64168501Y-55280264D01*
X64168489Y-55280261D01*
X64013845Y-55249500D01*
X64013842Y-55249500D01*
X63856158Y-55249500D01*
X63856155Y-55249500D01*
X63701510Y-55280261D01*
X63701498Y-55280264D01*
X63555827Y-55340602D01*
X63555814Y-55340609D01*
X63424711Y-55428210D01*
X63424707Y-55428213D01*
X63313213Y-55539707D01*
X63313210Y-55539711D01*
X63225609Y-55670814D01*
X63225602Y-55670827D01*
X63165264Y-55816498D01*
X63165261Y-55816510D01*
X63134500Y-55971153D01*
X60356470Y-55971153D01*
X60361447Y-55946131D01*
X60362493Y-55940874D01*
X60362493Y-55940873D01*
X60384776Y-55828846D01*
X60384777Y-55828844D01*
X60384777Y-55671155D01*
X60384776Y-55671153D01*
X60378744Y-55640827D01*
X60354014Y-55516503D01*
X60340638Y-55484210D01*
X60293674Y-55370827D01*
X60293667Y-55370814D01*
X60206066Y-55239711D01*
X60206063Y-55239707D01*
X60094569Y-55128213D01*
X60094565Y-55128210D01*
X59963462Y-55040609D01*
X59963449Y-55040602D01*
X59817778Y-54980264D01*
X59817766Y-54980261D01*
X59663122Y-54949500D01*
X59663119Y-54949500D01*
X59505435Y-54949500D01*
X59505432Y-54949500D01*
X59350787Y-54980261D01*
X59350775Y-54980264D01*
X59205104Y-55040602D01*
X59205091Y-55040609D01*
X59073988Y-55128210D01*
X59073984Y-55128213D01*
X58962490Y-55239707D01*
X58962487Y-55239711D01*
X58874886Y-55370814D01*
X58874879Y-55370827D01*
X58814541Y-55516498D01*
X58814538Y-55516510D01*
X58783777Y-55671153D01*
X49803232Y-55671153D01*
X49760292Y-55628213D01*
X49760288Y-55628210D01*
X49629185Y-55540609D01*
X49629172Y-55540602D01*
X49483501Y-55480264D01*
X49483489Y-55480261D01*
X49328845Y-55449500D01*
X49328842Y-55449500D01*
X49171158Y-55449500D01*
X49171155Y-55449500D01*
X49016510Y-55480261D01*
X49016498Y-55480264D01*
X48870827Y-55540602D01*
X48870814Y-55540609D01*
X48739711Y-55628210D01*
X48739707Y-55628213D01*
X48628213Y-55739707D01*
X48628210Y-55739711D01*
X48540609Y-55870814D01*
X48540602Y-55870827D01*
X48480264Y-56016498D01*
X48480261Y-56016510D01*
X48449500Y-56171153D01*
X47250500Y-56171153D01*
X47250500Y-56157486D01*
X47221555Y-55974736D01*
X47189615Y-55876433D01*
X47164380Y-55798767D01*
X47164379Y-55798764D01*
X47099188Y-55670821D01*
X47080378Y-55633904D01*
X46971621Y-55484213D01*
X46840787Y-55353379D01*
X46691096Y-55244622D01*
X46667013Y-55232351D01*
X46526235Y-55160620D01*
X46526232Y-55160619D01*
X46350265Y-55103445D01*
X46258889Y-55088972D01*
X46167514Y-55074500D01*
X45982486Y-55074500D01*
X45921569Y-55084148D01*
X45799734Y-55103445D01*
X45623767Y-55160619D01*
X45623764Y-55160620D01*
X45458903Y-55244622D01*
X45409851Y-55280261D01*
X45309213Y-55353379D01*
X45309211Y-55353381D01*
X45309210Y-55353381D01*
X45178381Y-55484210D01*
X45178381Y-55484211D01*
X45178379Y-55484213D01*
X45159857Y-55509707D01*
X45069622Y-55633903D01*
X44985620Y-55798764D01*
X44985619Y-55798767D01*
X44928445Y-55974734D01*
X44899500Y-56157486D01*
X42043810Y-56157486D01*
X42043211Y-53531153D01*
X52413777Y-53531153D01*
X52413777Y-53688846D01*
X52444538Y-53843489D01*
X52444541Y-53843501D01*
X52504879Y-53989172D01*
X52504886Y-53989185D01*
X52592487Y-54120288D01*
X52592490Y-54120292D01*
X52703984Y-54231786D01*
X52703988Y-54231789D01*
X52835091Y-54319390D01*
X52835104Y-54319397D01*
X52980775Y-54379735D01*
X52980780Y-54379737D01*
X53135430Y-54410499D01*
X53135433Y-54410500D01*
X53135435Y-54410500D01*
X53293121Y-54410500D01*
X53293122Y-54410499D01*
X53447774Y-54379737D01*
X53593456Y-54319394D01*
X53724566Y-54231789D01*
X53836066Y-54120289D01*
X53923671Y-53989179D01*
X53984014Y-53843497D01*
X54014777Y-53688842D01*
X54014777Y-53531158D01*
X54014777Y-53531155D01*
X54014776Y-53531153D01*
X53984015Y-53376510D01*
X53984014Y-53376503D01*
X53935834Y-53260185D01*
X53923674Y-53230827D01*
X53923667Y-53230814D01*
X53836066Y-53099711D01*
X53836063Y-53099707D01*
X53724569Y-52988213D01*
X53724565Y-52988210D01*
X53593462Y-52900609D01*
X53593449Y-52900602D01*
X53447778Y-52840264D01*
X53447766Y-52840261D01*
X53293122Y-52809500D01*
X53293119Y-52809500D01*
X53135435Y-52809500D01*
X53135432Y-52809500D01*
X52980787Y-52840261D01*
X52980775Y-52840264D01*
X52835104Y-52900602D01*
X52835091Y-52900609D01*
X52703988Y-52988210D01*
X52703984Y-52988213D01*
X52592490Y-53099707D01*
X52592487Y-53099711D01*
X52504886Y-53230814D01*
X52504879Y-53230827D01*
X52444541Y-53376498D01*
X52444538Y-53376510D01*
X52413777Y-53531153D01*
X42043211Y-53531153D01*
X42042944Y-52361153D01*
X66624500Y-52361153D01*
X66624500Y-52518846D01*
X66655261Y-52673489D01*
X66655264Y-52673501D01*
X66715602Y-52819172D01*
X66715609Y-52819185D01*
X66803210Y-52950288D01*
X66803213Y-52950292D01*
X66914707Y-53061786D01*
X66914711Y-53061789D01*
X67045814Y-53149390D01*
X67045827Y-53149397D01*
X67191498Y-53209735D01*
X67191503Y-53209737D01*
X67346158Y-53240500D01*
X67346163Y-53240500D01*
X67352218Y-53241097D01*
X67351937Y-53243943D01*
X67407248Y-53260185D01*
X67443311Y-53295609D01*
X67493210Y-53370288D01*
X67493213Y-53370292D01*
X67604707Y-53481786D01*
X67604711Y-53481789D01*
X67735814Y-53569390D01*
X67735827Y-53569397D01*
X67873558Y-53626446D01*
X67881503Y-53629737D01*
X68036153Y-53660499D01*
X68036156Y-53660500D01*
X68036158Y-53660500D01*
X68193844Y-53660500D01*
X68193845Y-53660499D01*
X68348497Y-53629737D01*
X68494179Y-53569394D01*
X68625289Y-53481789D01*
X68736789Y-53370289D01*
X68824394Y-53239179D01*
X68827854Y-53230827D01*
X68838067Y-53206166D01*
X68884737Y-53093497D01*
X68915500Y-52938842D01*
X68915500Y-52781158D01*
X68915500Y-52781155D01*
X68915499Y-52781153D01*
X68884737Y-52626503D01*
X68884735Y-52626498D01*
X68824397Y-52480827D01*
X68824390Y-52480814D01*
X68736789Y-52349711D01*
X68736786Y-52349707D01*
X68625292Y-52238213D01*
X68625288Y-52238210D01*
X68494185Y-52150609D01*
X68494172Y-52150602D01*
X68348501Y-52090264D01*
X68348489Y-52090261D01*
X68193846Y-52059500D01*
X68187782Y-52058903D01*
X68188062Y-52056056D01*
X68132752Y-52039815D01*
X68096689Y-52004391D01*
X68046789Y-51929711D01*
X68046786Y-51929707D01*
X67935292Y-51818213D01*
X67935288Y-51818210D01*
X67874513Y-51777601D01*
X67829708Y-51723988D01*
X67821001Y-51654663D01*
X67851156Y-51591636D01*
X67910599Y-51554917D01*
X67943398Y-51550499D01*
X68752149Y-51550499D01*
X68811760Y-51544091D01*
X68946608Y-51493796D01*
X68958387Y-51484977D01*
X69023847Y-51460558D01*
X69080149Y-51469680D01*
X69182442Y-51512051D01*
X69182446Y-51512051D01*
X69182447Y-51512052D01*
X69375733Y-51550500D01*
X69375736Y-51550500D01*
X69572820Y-51550500D01*
X69702859Y-51524632D01*
X69766112Y-51512051D01*
X69946774Y-51437219D01*
X69948184Y-51436635D01*
X69948184Y-51436634D01*
X69948191Y-51436632D01*
X70112059Y-51327139D01*
X70251416Y-51187782D01*
X70360909Y-51023914D01*
X70436328Y-50841835D01*
X70456485Y-50740499D01*
X70474777Y-50648543D01*
X71013776Y-50648543D01*
X71052224Y-50841829D01*
X71052227Y-50841839D01*
X71127641Y-51023907D01*
X71127648Y-51023920D01*
X71237137Y-51187781D01*
X71237140Y-51187785D01*
X71376491Y-51327136D01*
X71376495Y-51327139D01*
X71540356Y-51436628D01*
X71540369Y-51436635D01*
X71722437Y-51512049D01*
X71722442Y-51512051D01*
X71722446Y-51512051D01*
X71722447Y-51512052D01*
X71915733Y-51550500D01*
X71915736Y-51550500D01*
X72112820Y-51550500D01*
X72242859Y-51524632D01*
X72306112Y-51512051D01*
X72486774Y-51437219D01*
X72488184Y-51436635D01*
X72488184Y-51436634D01*
X72488191Y-51436632D01*
X72652059Y-51327139D01*
X72791416Y-51187782D01*
X72900909Y-51023914D01*
X72976328Y-50841835D01*
X72996485Y-50740499D01*
X73014777Y-50648543D01*
X73014777Y-50487648D01*
X88663777Y-50487648D01*
X88663777Y-50692351D01*
X88695799Y-50894534D01*
X88759058Y-51089223D01*
X88851992Y-51271613D01*
X88972305Y-51437213D01*
X89117063Y-51581971D01*
X89272026Y-51694556D01*
X89282667Y-51702287D01*
X89398884Y-51761503D01*
X89465053Y-51795218D01*
X89465055Y-51795218D01*
X89465058Y-51795220D01*
X89569414Y-51829127D01*
X89659742Y-51858477D01*
X89760834Y-51874488D01*
X89861925Y-51890500D01*
X89861926Y-51890500D01*
X90066628Y-51890500D01*
X90066629Y-51890500D01*
X90268811Y-51858477D01*
X90463496Y-51795220D01*
X90645887Y-51702287D01*
X90738867Y-51634732D01*
X90811490Y-51581971D01*
X90811492Y-51581968D01*
X90811496Y-51581966D01*
X90956243Y-51437219D01*
X90956245Y-51437215D01*
X90956248Y-51437213D01*
X91036222Y-51327136D01*
X91076564Y-51271610D01*
X91169497Y-51089219D01*
X91232754Y-50894534D01*
X91264777Y-50692352D01*
X91264777Y-50487648D01*
X91247376Y-50377782D01*
X91232754Y-50285465D01*
X91169495Y-50090776D01*
X91135780Y-50024607D01*
X91076564Y-49908390D01*
X91025818Y-49838543D01*
X90956248Y-49742786D01*
X90811490Y-49598028D01*
X90645890Y-49477715D01*
X90645889Y-49477714D01*
X90645887Y-49477713D01*
X90587886Y-49448160D01*
X90463500Y-49384781D01*
X90268811Y-49321522D01*
X90094272Y-49293878D01*
X90066629Y-49289500D01*
X89861925Y-49289500D01*
X89837606Y-49293351D01*
X89659742Y-49321522D01*
X89465053Y-49384781D01*
X89282663Y-49477715D01*
X89117063Y-49598028D01*
X88972305Y-49742786D01*
X88851992Y-49908386D01*
X88759058Y-50090776D01*
X88695799Y-50285465D01*
X88663777Y-50487648D01*
X73014777Y-50487648D01*
X73014777Y-50451456D01*
X72976329Y-50258170D01*
X72976328Y-50258169D01*
X72976328Y-50258165D01*
X72976326Y-50258160D01*
X72900912Y-50076092D01*
X72900905Y-50076079D01*
X72791416Y-49912218D01*
X72791413Y-49912214D01*
X72652062Y-49772863D01*
X72652058Y-49772860D01*
X72488197Y-49663371D01*
X72488184Y-49663364D01*
X72306116Y-49587950D01*
X72306106Y-49587947D01*
X72112820Y-49549500D01*
X72112818Y-49549500D01*
X71915736Y-49549500D01*
X71915734Y-49549500D01*
X71722447Y-49587947D01*
X71722437Y-49587950D01*
X71540369Y-49663364D01*
X71540356Y-49663371D01*
X71376495Y-49772860D01*
X71376491Y-49772863D01*
X71237140Y-49912214D01*
X71237137Y-49912218D01*
X71127648Y-50076079D01*
X71127641Y-50076092D01*
X71052227Y-50258160D01*
X71052224Y-50258170D01*
X71013777Y-50451456D01*
X71013777Y-50451459D01*
X71013777Y-50648541D01*
X71013777Y-50648543D01*
X71013776Y-50648543D01*
X70474777Y-50648543D01*
X70474777Y-50451456D01*
X70436329Y-50258170D01*
X70436328Y-50258169D01*
X70436328Y-50258165D01*
X70436326Y-50258160D01*
X70360912Y-50076092D01*
X70360905Y-50076079D01*
X70251416Y-49912218D01*
X70251413Y-49912214D01*
X70112062Y-49772863D01*
X70112058Y-49772860D01*
X69948197Y-49663371D01*
X69948184Y-49663364D01*
X69766116Y-49587950D01*
X69766106Y-49587947D01*
X69572820Y-49549500D01*
X69572818Y-49549500D01*
X69375736Y-49549500D01*
X69375734Y-49549500D01*
X69182448Y-49587947D01*
X69182445Y-49587948D01*
X69182443Y-49587948D01*
X69182442Y-49587949D01*
X69182440Y-49587950D01*
X69080151Y-49630318D01*
X69010681Y-49637785D01*
X68958390Y-49615023D01*
X68946612Y-49606206D01*
X68946605Y-49606202D01*
X68811759Y-49555908D01*
X68811760Y-49555908D01*
X68752160Y-49549501D01*
X68752158Y-49549500D01*
X68752150Y-49549500D01*
X68752141Y-49549500D01*
X67656406Y-49549500D01*
X67656400Y-49549501D01*
X67596793Y-49555908D01*
X67461948Y-49606202D01*
X67461941Y-49606206D01*
X67346732Y-49692452D01*
X67346729Y-49692455D01*
X67260483Y-49807664D01*
X67260479Y-49807671D01*
X67210185Y-49942517D01*
X67203778Y-50002116D01*
X67203777Y-50002135D01*
X67203777Y-51097870D01*
X67203778Y-51097876D01*
X67210185Y-51157483D01*
X67260479Y-51292328D01*
X67260483Y-51292335D01*
X67346729Y-51407544D01*
X67346730Y-51407545D01*
X67368814Y-51424077D01*
X67410686Y-51480010D01*
X67415670Y-51549702D01*
X67382185Y-51611025D01*
X67320862Y-51644510D01*
X67318696Y-51644961D01*
X67191508Y-51670261D01*
X67191498Y-51670264D01*
X67045827Y-51730602D01*
X67045814Y-51730609D01*
X66914711Y-51818210D01*
X66914707Y-51818213D01*
X66803213Y-51929707D01*
X66803210Y-51929711D01*
X66715609Y-52060814D01*
X66715602Y-52060827D01*
X66655264Y-52206498D01*
X66655261Y-52206510D01*
X66624500Y-52361153D01*
X42042944Y-52361153D01*
X42041568Y-46327135D01*
X44824500Y-46327135D01*
X44824500Y-47772870D01*
X44824501Y-47772876D01*
X44830908Y-47832483D01*
X44881202Y-47967328D01*
X44881206Y-47967335D01*
X44967452Y-48082544D01*
X44967453Y-48082544D01*
X44967454Y-48082546D01*
X45005167Y-48110778D01*
X45052539Y-48146241D01*
X45094409Y-48202175D01*
X45099393Y-48271867D01*
X45078545Y-48318392D01*
X44994624Y-48433900D01*
X44910620Y-48598764D01*
X44910619Y-48598767D01*
X44853445Y-48774734D01*
X44842499Y-48843843D01*
X44824500Y-48957486D01*
X44824500Y-49142514D01*
X44830817Y-49182396D01*
X44853445Y-49325265D01*
X44910619Y-49501232D01*
X44910620Y-49501235D01*
X44968599Y-49615023D01*
X44994622Y-49666096D01*
X45103379Y-49815787D01*
X45234213Y-49946621D01*
X45383904Y-50055378D01*
X45453386Y-50090781D01*
X45548764Y-50139379D01*
X45548767Y-50139380D01*
X45636750Y-50167967D01*
X45724736Y-50196555D01*
X45907486Y-50225500D01*
X45907487Y-50225500D01*
X46092513Y-50225500D01*
X46092514Y-50225500D01*
X46275264Y-50196555D01*
X46451235Y-50139379D01*
X46616096Y-50055378D01*
X46765787Y-49946621D01*
X46896621Y-49815787D01*
X47005378Y-49666096D01*
X47089379Y-49501235D01*
X47146555Y-49325264D01*
X47175500Y-49142514D01*
X47175500Y-48957486D01*
X47146555Y-48774736D01*
X47109079Y-48659397D01*
X47089380Y-48598767D01*
X47089379Y-48598764D01*
X47045929Y-48513489D01*
X47005378Y-48433904D01*
X46921453Y-48318392D01*
X46897974Y-48252586D01*
X46913799Y-48184532D01*
X46947459Y-48146241D01*
X47032546Y-48082546D01*
X47118796Y-47967331D01*
X47154668Y-47871153D01*
X76524500Y-47871153D01*
X76524500Y-48028846D01*
X76555261Y-48183489D01*
X76555264Y-48183501D01*
X76615602Y-48329172D01*
X76615609Y-48329185D01*
X76703210Y-48460288D01*
X76703213Y-48460292D01*
X76814707Y-48571786D01*
X76814711Y-48571789D01*
X76945814Y-48659390D01*
X76945827Y-48659397D01*
X77073671Y-48712351D01*
X77091503Y-48719737D01*
X77190853Y-48739499D01*
X77246153Y-48750499D01*
X77246156Y-48750500D01*
X77246158Y-48750500D01*
X77403844Y-48750500D01*
X77403845Y-48750499D01*
X77558497Y-48719737D01*
X77704179Y-48659394D01*
X77835289Y-48571789D01*
X77899430Y-48507648D01*
X80973777Y-48507648D01*
X80973777Y-48712351D01*
X81005799Y-48914534D01*
X81069058Y-49109223D01*
X81111301Y-49192128D01*
X81148981Y-49266079D01*
X81161992Y-49291613D01*
X81282305Y-49457213D01*
X81427063Y-49601971D01*
X81551602Y-49692452D01*
X81592667Y-49722287D01*
X81691922Y-49772860D01*
X81775053Y-49815218D01*
X81775055Y-49815218D01*
X81775058Y-49815220D01*
X81846833Y-49838541D01*
X81969742Y-49878477D01*
X82070834Y-49894488D01*
X82171925Y-49910500D01*
X82171926Y-49910500D01*
X82376628Y-49910500D01*
X82376629Y-49910500D01*
X82578811Y-49878477D01*
X82773496Y-49815220D01*
X82955887Y-49722287D01*
X83082473Y-49630318D01*
X83121490Y-49601971D01*
X83121492Y-49601968D01*
X83121496Y-49601966D01*
X83266243Y-49457219D01*
X83266245Y-49457215D01*
X83266248Y-49457213D01*
X83364831Y-49321523D01*
X83386564Y-49291610D01*
X83479497Y-49109219D01*
X83542754Y-48914534D01*
X83574777Y-48712352D01*
X83574777Y-48507648D01*
X83558176Y-48402835D01*
X83542754Y-48305465D01*
X83525312Y-48251786D01*
X83508860Y-48201153D01*
X85404500Y-48201153D01*
X85404500Y-48358846D01*
X85435261Y-48513489D01*
X85435264Y-48513501D01*
X85495602Y-48659172D01*
X85495609Y-48659185D01*
X85583210Y-48790288D01*
X85583213Y-48790292D01*
X85694707Y-48901786D01*
X85694711Y-48901789D01*
X85825814Y-48989390D01*
X85825827Y-48989397D01*
X85971498Y-49049735D01*
X85971503Y-49049737D01*
X86111921Y-49077668D01*
X86126153Y-49080499D01*
X86126156Y-49080500D01*
X86126158Y-49080500D01*
X86283844Y-49080500D01*
X86283845Y-49080499D01*
X86438497Y-49049737D01*
X86584179Y-48989394D01*
X86715289Y-48901789D01*
X86826789Y-48790289D01*
X86914394Y-48659179D01*
X86974737Y-48513497D01*
X87005500Y-48358842D01*
X87005500Y-48350477D01*
X87025185Y-48283438D01*
X87077989Y-48237683D01*
X87147147Y-48227739D01*
X87198372Y-48250310D01*
X87199646Y-48248405D01*
X87335814Y-48339390D01*
X87335827Y-48339397D01*
X87481498Y-48399735D01*
X87481503Y-48399737D01*
X87593944Y-48422103D01*
X87636153Y-48430499D01*
X87636156Y-48430500D01*
X87636158Y-48430500D01*
X87793844Y-48430500D01*
X87793845Y-48430499D01*
X87948497Y-48399737D01*
X88094179Y-48339394D01*
X88225289Y-48251789D01*
X88336789Y-48140289D01*
X88424394Y-48009179D01*
X88451054Y-47944816D01*
X93007325Y-47944816D01*
X93007325Y-48102509D01*
X93038086Y-48257152D01*
X93038089Y-48257164D01*
X93098427Y-48402835D01*
X93098434Y-48402848D01*
X93186035Y-48533951D01*
X93186038Y-48533955D01*
X93297532Y-48645449D01*
X93297536Y-48645452D01*
X93428639Y-48733053D01*
X93428652Y-48733060D01*
X93574323Y-48793398D01*
X93574328Y-48793400D01*
X93609752Y-48800446D01*
X93665108Y-48811458D01*
X93727019Y-48843843D01*
X93761594Y-48904559D01*
X93757854Y-48974328D01*
X93728599Y-49020756D01*
X93647137Y-49102218D01*
X93537648Y-49266079D01*
X93537641Y-49266092D01*
X93462227Y-49448160D01*
X93462224Y-49448170D01*
X93423777Y-49641456D01*
X93423777Y-49641459D01*
X93423777Y-49838541D01*
X93423777Y-49838543D01*
X93423776Y-49838543D01*
X93462224Y-50031829D01*
X93462227Y-50031839D01*
X93537641Y-50213907D01*
X93537648Y-50213920D01*
X93647137Y-50377781D01*
X93647140Y-50377785D01*
X93786491Y-50517136D01*
X93786495Y-50517139D01*
X93950356Y-50626628D01*
X93950369Y-50626635D01*
X94109024Y-50692351D01*
X94132442Y-50702051D01*
X94132446Y-50702051D01*
X94132447Y-50702052D01*
X94325733Y-50740500D01*
X94325736Y-50740500D01*
X94522820Y-50740500D01*
X94652859Y-50714632D01*
X94716112Y-50702051D01*
X94898191Y-50626632D01*
X94990386Y-50565029D01*
X95057063Y-50544151D01*
X95124443Y-50562635D01*
X95128168Y-50565029D01*
X95220357Y-50626628D01*
X95220363Y-50626632D01*
X95220365Y-50626633D01*
X95220369Y-50626635D01*
X95379024Y-50692351D01*
X95402442Y-50702051D01*
X95402446Y-50702051D01*
X95402447Y-50702052D01*
X95595733Y-50740500D01*
X95595736Y-50740500D01*
X95792820Y-50740500D01*
X95922859Y-50714632D01*
X95986112Y-50702051D01*
X96088403Y-50659680D01*
X96157867Y-50652212D01*
X96210164Y-50674976D01*
X96221945Y-50683795D01*
X96221948Y-50683797D01*
X96356794Y-50734091D01*
X96356793Y-50734091D01*
X96363721Y-50734835D01*
X96416404Y-50740500D01*
X97512149Y-50740499D01*
X97571760Y-50734091D01*
X97706608Y-50683796D01*
X97821823Y-50597546D01*
X97908073Y-50482331D01*
X97941690Y-50392198D01*
X97983561Y-50336266D01*
X98049025Y-50311848D01*
X98117298Y-50326699D01*
X98166704Y-50376104D01*
X98168349Y-50379222D01*
X98205156Y-50451459D01*
X98206464Y-50454025D01*
X98336029Y-50632358D01*
X98336033Y-50632363D01*
X98491913Y-50788243D01*
X98491918Y-50788247D01*
X98565682Y-50841839D01*
X98670255Y-50917815D01*
X98798652Y-50983237D01*
X98866670Y-51017895D01*
X98866673Y-51017896D01*
X98971498Y-51051955D01*
X99076326Y-51086015D01*
X99294055Y-51120500D01*
X99294056Y-51120500D01*
X99514498Y-51120500D01*
X99514499Y-51120500D01*
X99732228Y-51086015D01*
X99941883Y-51017895D01*
X100138299Y-50917815D01*
X100316642Y-50788242D01*
X100472519Y-50632365D01*
X100602092Y-50454022D01*
X100702172Y-50257606D01*
X100770292Y-50047951D01*
X100804777Y-49830222D01*
X100804777Y-49609778D01*
X100770292Y-49392049D01*
X100729365Y-49266086D01*
X100702173Y-49182396D01*
X100702172Y-49182393D01*
X100648811Y-49077668D01*
X100602092Y-48985978D01*
X100542938Y-48904559D01*
X100472524Y-48807641D01*
X100472520Y-48807636D01*
X100316640Y-48651756D01*
X100316635Y-48651752D01*
X100138302Y-48522187D01*
X100138301Y-48522186D01*
X100138299Y-48522185D01*
X100075373Y-48490122D01*
X99941883Y-48422104D01*
X99941880Y-48422103D01*
X99732229Y-48353985D01*
X99575647Y-48329185D01*
X99514499Y-48319500D01*
X99294055Y-48319500D01*
X99232907Y-48329185D01*
X99076324Y-48353985D01*
X98866673Y-48422103D01*
X98866670Y-48422104D01*
X98670251Y-48522187D01*
X98491918Y-48651752D01*
X98491913Y-48651756D01*
X98336033Y-48807636D01*
X98336029Y-48807641D01*
X98206462Y-48985976D01*
X98159742Y-49077668D01*
X98111767Y-49128463D01*
X98043946Y-49145258D01*
X97977811Y-49122720D01*
X97934361Y-49068004D01*
X97933076Y-49064705D01*
X97908074Y-48997671D01*
X97908070Y-48997664D01*
X97821824Y-48882455D01*
X97821821Y-48882452D01*
X97706612Y-48796206D01*
X97706605Y-48796202D01*
X97571759Y-48745908D01*
X97571760Y-48745908D01*
X97512160Y-48739501D01*
X97512158Y-48739500D01*
X97512150Y-48739500D01*
X97512141Y-48739500D01*
X96416406Y-48739500D01*
X96416400Y-48739501D01*
X96356793Y-48745908D01*
X96221948Y-48796202D01*
X96221947Y-48796203D01*
X96210161Y-48805026D01*
X96144696Y-48829441D01*
X96088401Y-48820318D01*
X96057781Y-48807635D01*
X96030189Y-48796206D01*
X95986113Y-48777949D01*
X95986105Y-48777947D01*
X95792820Y-48739500D01*
X95792818Y-48739500D01*
X95595736Y-48739500D01*
X95595734Y-48739500D01*
X95402447Y-48777947D01*
X95402437Y-48777950D01*
X95220366Y-48853366D01*
X95128167Y-48914971D01*
X95061490Y-48935848D01*
X94994110Y-48917363D01*
X94990387Y-48914971D01*
X94941718Y-48882452D01*
X94898191Y-48853368D01*
X94898188Y-48853366D01*
X94898187Y-48853366D01*
X94716116Y-48777950D01*
X94716106Y-48777947D01*
X94522820Y-48739499D01*
X94516758Y-48738903D01*
X94516879Y-48737672D01*
X94456063Y-48719815D01*
X94410308Y-48667011D01*
X94400364Y-48597853D01*
X94426273Y-48539045D01*
X94426230Y-48539017D01*
X94426393Y-48538771D01*
X94427245Y-48536840D01*
X94429611Y-48533955D01*
X94429614Y-48533952D01*
X94517219Y-48402842D01*
X94577562Y-48257160D01*
X94608325Y-48102505D01*
X94608325Y-47944821D01*
X94608325Y-47944818D01*
X94608324Y-47944816D01*
X94593671Y-47871153D01*
X94577562Y-47790166D01*
X94547048Y-47716498D01*
X94517222Y-47644490D01*
X94517215Y-47644477D01*
X94429614Y-47513374D01*
X94429611Y-47513370D01*
X94318117Y-47401876D01*
X94318113Y-47401873D01*
X94187010Y-47314272D01*
X94186997Y-47314265D01*
X94041326Y-47253927D01*
X94041314Y-47253924D01*
X93886670Y-47223163D01*
X93886667Y-47223163D01*
X93728983Y-47223163D01*
X93728980Y-47223163D01*
X93574335Y-47253924D01*
X93574323Y-47253927D01*
X93428652Y-47314265D01*
X93428639Y-47314272D01*
X93297536Y-47401873D01*
X93297532Y-47401876D01*
X93186038Y-47513370D01*
X93186035Y-47513374D01*
X93098434Y-47644477D01*
X93098427Y-47644490D01*
X93038089Y-47790161D01*
X93038086Y-47790173D01*
X93007325Y-47944816D01*
X88451054Y-47944816D01*
X88484737Y-47863497D01*
X88515500Y-47708842D01*
X88515500Y-47551158D01*
X88515500Y-47551155D01*
X88494629Y-47446235D01*
X88500856Y-47376644D01*
X88543718Y-47321466D01*
X88559133Y-47312873D01*
X88558808Y-47312264D01*
X88564167Y-47309398D01*
X88564179Y-47309394D01*
X88695289Y-47221789D01*
X88806789Y-47110289D01*
X88894394Y-46979179D01*
X88954737Y-46833497D01*
X88985500Y-46678842D01*
X88985500Y-46521158D01*
X88985500Y-46521155D01*
X88985499Y-46521153D01*
X88954738Y-46366510D01*
X88954737Y-46366503D01*
X88954735Y-46366498D01*
X88894397Y-46220827D01*
X88894390Y-46220814D01*
X88806789Y-46089711D01*
X88806786Y-46089707D01*
X88695292Y-45978213D01*
X88695288Y-45978210D01*
X88564185Y-45890609D01*
X88564172Y-45890602D01*
X88418501Y-45830264D01*
X88418489Y-45830261D01*
X88263845Y-45799500D01*
X88263842Y-45799500D01*
X88106158Y-45799500D01*
X88106155Y-45799500D01*
X87951510Y-45830261D01*
X87951498Y-45830264D01*
X87805827Y-45890602D01*
X87805814Y-45890609D01*
X87674711Y-45978210D01*
X87674707Y-45978213D01*
X87563213Y-46089707D01*
X87563210Y-46089711D01*
X87475609Y-46220814D01*
X87475602Y-46220827D01*
X87415264Y-46366498D01*
X87415261Y-46366510D01*
X87384500Y-46521153D01*
X87384500Y-46678846D01*
X87405370Y-46783765D01*
X87399143Y-46853356D01*
X87356280Y-46908534D01*
X87340868Y-46917132D01*
X87341191Y-46917736D01*
X87335814Y-46920609D01*
X87204711Y-47008210D01*
X87204707Y-47008213D01*
X87093213Y-47119707D01*
X87093210Y-47119711D01*
X87005609Y-47250814D01*
X87005602Y-47250827D01*
X86945264Y-47396498D01*
X86945261Y-47396510D01*
X86914500Y-47551153D01*
X86914500Y-47559522D01*
X86894815Y-47626561D01*
X86842011Y-47672316D01*
X86772853Y-47682260D01*
X86721620Y-47659700D01*
X86720354Y-47661595D01*
X86584185Y-47570609D01*
X86584172Y-47570602D01*
X86438501Y-47510264D01*
X86438489Y-47510261D01*
X86283845Y-47479500D01*
X86283842Y-47479500D01*
X86126158Y-47479500D01*
X86126155Y-47479500D01*
X85971510Y-47510261D01*
X85971498Y-47510264D01*
X85825827Y-47570602D01*
X85825814Y-47570609D01*
X85694711Y-47658210D01*
X85694707Y-47658213D01*
X85583213Y-47769707D01*
X85583210Y-47769711D01*
X85495609Y-47900814D01*
X85495602Y-47900827D01*
X85435264Y-48046498D01*
X85435261Y-48046510D01*
X85404500Y-48201153D01*
X83508860Y-48201153D01*
X83479497Y-48110781D01*
X83386564Y-47928390D01*
X83378833Y-47917749D01*
X83266248Y-47762786D01*
X83121490Y-47618028D01*
X82955890Y-47497715D01*
X82955889Y-47497714D01*
X82955887Y-47497713D01*
X82898930Y-47468691D01*
X82773500Y-47404781D01*
X82578811Y-47341522D01*
X82394080Y-47312264D01*
X82376629Y-47309500D01*
X82171925Y-47309500D01*
X82154474Y-47312264D01*
X81969742Y-47341522D01*
X81775053Y-47404781D01*
X81592663Y-47497715D01*
X81427063Y-47618028D01*
X81282305Y-47762786D01*
X81161992Y-47928386D01*
X81069058Y-48110776D01*
X81005799Y-48305465D01*
X80973777Y-48507648D01*
X77899430Y-48507648D01*
X77946789Y-48460289D01*
X77966694Y-48430500D01*
X78034390Y-48329185D01*
X78034390Y-48329184D01*
X78034394Y-48329179D01*
X78094737Y-48183497D01*
X78125500Y-48028842D01*
X78125500Y-47871158D01*
X78125500Y-47871155D01*
X78125499Y-47871153D01*
X78109391Y-47790173D01*
X78094737Y-47716503D01*
X78070592Y-47658211D01*
X78034397Y-47570827D01*
X78034390Y-47570814D01*
X77946789Y-47439711D01*
X77946786Y-47439707D01*
X77835292Y-47328213D01*
X77835288Y-47328210D01*
X77704185Y-47240609D01*
X77704172Y-47240602D01*
X77558501Y-47180264D01*
X77558489Y-47180261D01*
X77403845Y-47149500D01*
X77403842Y-47149500D01*
X77246158Y-47149500D01*
X77246155Y-47149500D01*
X77091510Y-47180261D01*
X77091498Y-47180264D01*
X76945827Y-47240602D01*
X76945814Y-47240609D01*
X76814711Y-47328210D01*
X76814707Y-47328213D01*
X76703213Y-47439707D01*
X76703210Y-47439711D01*
X76615609Y-47570814D01*
X76615602Y-47570827D01*
X76555264Y-47716498D01*
X76555261Y-47716510D01*
X76524500Y-47871153D01*
X47154668Y-47871153D01*
X47169091Y-47832483D01*
X47175500Y-47772873D01*
X47175499Y-46327128D01*
X47169091Y-46267517D01*
X47118796Y-46132669D01*
X47118795Y-46132668D01*
X47118793Y-46132664D01*
X47032547Y-46017455D01*
X47032544Y-46017452D01*
X46917335Y-45931206D01*
X46917328Y-45931202D01*
X46782482Y-45880908D01*
X46782483Y-45880908D01*
X46722883Y-45874501D01*
X46722881Y-45874500D01*
X46722873Y-45874500D01*
X46722864Y-45874500D01*
X45277129Y-45874500D01*
X45277123Y-45874501D01*
X45217516Y-45880908D01*
X45082671Y-45931202D01*
X45082664Y-45931206D01*
X44967455Y-46017452D01*
X44967452Y-46017455D01*
X44881206Y-46132664D01*
X44881202Y-46132671D01*
X44830908Y-46267517D01*
X44824854Y-46323834D01*
X44824501Y-46327123D01*
X44824500Y-46327135D01*
X42041568Y-46327135D01*
X42041095Y-44251902D01*
X54733777Y-44251902D01*
X54733777Y-44488097D01*
X54770723Y-44721368D01*
X54843710Y-44945996D01*
X54950934Y-45156433D01*
X55089760Y-45347510D01*
X55256767Y-45514517D01*
X55447844Y-45653343D01*
X55547268Y-45704002D01*
X55658280Y-45760566D01*
X55658282Y-45760566D01*
X55658285Y-45760568D01*
X55778105Y-45799500D01*
X55882908Y-45833553D01*
X56116180Y-45870500D01*
X56116185Y-45870500D01*
X56352374Y-45870500D01*
X56585645Y-45833553D01*
X56595767Y-45830264D01*
X56810269Y-45760568D01*
X57020710Y-45653343D01*
X57211787Y-45514517D01*
X57378794Y-45347510D01*
X57517620Y-45156433D01*
X57624845Y-44945992D01*
X57697830Y-44721368D01*
X57734777Y-44488097D01*
X57734777Y-44251902D01*
X61233777Y-44251902D01*
X61233777Y-44488097D01*
X61270723Y-44721368D01*
X61343710Y-44945996D01*
X61450934Y-45156433D01*
X61589760Y-45347510D01*
X61756767Y-45514517D01*
X61947844Y-45653343D01*
X62047268Y-45704002D01*
X62158280Y-45760566D01*
X62158282Y-45760566D01*
X62158285Y-45760568D01*
X62278105Y-45799500D01*
X62382908Y-45833553D01*
X62616180Y-45870500D01*
X62616185Y-45870500D01*
X62852374Y-45870500D01*
X63085645Y-45833553D01*
X63095767Y-45830264D01*
X63310269Y-45760568D01*
X63520710Y-45653343D01*
X63711787Y-45514517D01*
X63878794Y-45347510D01*
X64017620Y-45156433D01*
X64124845Y-44945992D01*
X64166346Y-44818264D01*
X64205784Y-44760590D01*
X64270143Y-44733392D01*
X64338989Y-44745307D01*
X64390465Y-44792551D01*
X64402208Y-44818265D01*
X64443710Y-44945996D01*
X64550934Y-45156433D01*
X64689760Y-45347510D01*
X64856767Y-45514517D01*
X65047844Y-45653343D01*
X65147268Y-45704002D01*
X65258280Y-45760566D01*
X65258282Y-45760566D01*
X65258285Y-45760568D01*
X65378105Y-45799500D01*
X65482908Y-45833553D01*
X65716180Y-45870500D01*
X65716185Y-45870500D01*
X65952374Y-45870500D01*
X66185645Y-45833553D01*
X66195767Y-45830264D01*
X66410269Y-45760568D01*
X66620710Y-45653343D01*
X66811787Y-45514517D01*
X66978794Y-45347510D01*
X67117620Y-45156433D01*
X67224845Y-44945992D01*
X67297830Y-44721368D01*
X67334777Y-44488097D01*
X67334777Y-44251902D01*
X70833777Y-44251902D01*
X70833777Y-44488097D01*
X70870723Y-44721368D01*
X70943710Y-44945996D01*
X71050934Y-45156433D01*
X71189760Y-45347510D01*
X71356767Y-45514517D01*
X71547844Y-45653343D01*
X71647268Y-45704002D01*
X71758280Y-45760566D01*
X71758282Y-45760566D01*
X71758285Y-45760568D01*
X71878105Y-45799500D01*
X71982908Y-45833553D01*
X72216180Y-45870500D01*
X72216185Y-45870500D01*
X72452374Y-45870500D01*
X72685645Y-45833553D01*
X72695767Y-45830264D01*
X72910269Y-45760568D01*
X73120710Y-45653343D01*
X73311787Y-45514517D01*
X73478794Y-45347510D01*
X73617620Y-45156433D01*
X73724845Y-44945992D01*
X73797830Y-44721368D01*
X73834777Y-44488097D01*
X73834777Y-44251902D01*
X73797830Y-44018631D01*
X73752519Y-43879179D01*
X73724845Y-43794008D01*
X73724843Y-43794005D01*
X73724843Y-43794003D01*
X73617619Y-43583566D01*
X73614190Y-43578846D01*
X73499619Y-43421153D01*
X93999500Y-43421153D01*
X93999500Y-43578846D01*
X94030261Y-43733489D01*
X94030264Y-43733501D01*
X94090602Y-43879172D01*
X94090609Y-43879185D01*
X94178210Y-44010288D01*
X94178213Y-44010292D01*
X94289707Y-44121786D01*
X94289711Y-44121789D01*
X94420814Y-44209390D01*
X94420827Y-44209397D01*
X94566498Y-44269735D01*
X94566503Y-44269737D01*
X94721153Y-44300499D01*
X94721156Y-44300500D01*
X94721158Y-44300500D01*
X94878844Y-44300500D01*
X94878845Y-44300499D01*
X95033497Y-44269737D01*
X95179179Y-44209394D01*
X95310289Y-44121789D01*
X95421789Y-44010289D01*
X95509394Y-43879179D01*
X95569737Y-43733497D01*
X95600500Y-43578842D01*
X95600500Y-43421158D01*
X95600500Y-43421155D01*
X95600499Y-43421153D01*
X95569737Y-43266503D01*
X95552746Y-43225483D01*
X95509397Y-43120827D01*
X95509390Y-43120814D01*
X95421789Y-42989711D01*
X95421786Y-42989707D01*
X95310292Y-42878213D01*
X95310288Y-42878210D01*
X95179185Y-42790609D01*
X95179172Y-42790602D01*
X95033501Y-42730264D01*
X95033489Y-42730261D01*
X94878845Y-42699500D01*
X94878842Y-42699500D01*
X94721158Y-42699500D01*
X94721155Y-42699500D01*
X94566510Y-42730261D01*
X94566498Y-42730264D01*
X94420827Y-42790602D01*
X94420814Y-42790609D01*
X94289711Y-42878210D01*
X94289707Y-42878213D01*
X94178213Y-42989707D01*
X94178210Y-42989711D01*
X94090609Y-43120814D01*
X94090602Y-43120827D01*
X94030264Y-43266498D01*
X94030261Y-43266510D01*
X93999500Y-43421153D01*
X73499619Y-43421153D01*
X73478794Y-43392490D01*
X73311787Y-43225483D01*
X73120710Y-43086657D01*
X72910273Y-42979433D01*
X72685645Y-42906446D01*
X72452374Y-42869500D01*
X72452369Y-42869500D01*
X72216185Y-42869500D01*
X72216180Y-42869500D01*
X71982908Y-42906446D01*
X71758280Y-42979433D01*
X71547843Y-43086657D01*
X71500831Y-43120814D01*
X71356767Y-43225483D01*
X71356765Y-43225485D01*
X71356764Y-43225485D01*
X71189762Y-43392487D01*
X71189762Y-43392488D01*
X71189760Y-43392490D01*
X71130139Y-43474550D01*
X71050934Y-43583566D01*
X70943710Y-43794003D01*
X70870723Y-44018631D01*
X70833777Y-44251902D01*
X67334777Y-44251902D01*
X67297830Y-44018631D01*
X67252519Y-43879179D01*
X67224845Y-43794008D01*
X67224843Y-43794005D01*
X67224843Y-43794003D01*
X67117619Y-43583566D01*
X67114190Y-43578846D01*
X66978794Y-43392490D01*
X66811787Y-43225483D01*
X66620710Y-43086657D01*
X66410273Y-42979433D01*
X66185645Y-42906446D01*
X65952374Y-42869500D01*
X65952369Y-42869500D01*
X65716185Y-42869500D01*
X65716180Y-42869500D01*
X65482908Y-42906446D01*
X65258280Y-42979433D01*
X65047843Y-43086657D01*
X65000831Y-43120814D01*
X64856767Y-43225483D01*
X64856765Y-43225485D01*
X64856764Y-43225485D01*
X64689762Y-43392487D01*
X64689762Y-43392488D01*
X64689760Y-43392490D01*
X64630139Y-43474550D01*
X64550934Y-43583566D01*
X64443710Y-43794003D01*
X64402208Y-43921734D01*
X64362770Y-43979409D01*
X64298411Y-44006607D01*
X64229565Y-43994692D01*
X64178089Y-43947448D01*
X64166346Y-43921734D01*
X64124843Y-43794003D01*
X64017619Y-43583566D01*
X64014190Y-43578846D01*
X63878794Y-43392490D01*
X63711787Y-43225483D01*
X63520710Y-43086657D01*
X63310273Y-42979433D01*
X63085645Y-42906446D01*
X62852374Y-42869500D01*
X62852369Y-42869500D01*
X62616185Y-42869500D01*
X62616180Y-42869500D01*
X62382908Y-42906446D01*
X62158280Y-42979433D01*
X61947843Y-43086657D01*
X61900831Y-43120814D01*
X61756767Y-43225483D01*
X61756765Y-43225485D01*
X61756764Y-43225485D01*
X61589762Y-43392487D01*
X61589762Y-43392488D01*
X61589760Y-43392490D01*
X61530139Y-43474550D01*
X61450934Y-43583566D01*
X61343710Y-43794003D01*
X61270723Y-44018631D01*
X61233777Y-44251902D01*
X57734777Y-44251902D01*
X57697830Y-44018631D01*
X57652519Y-43879179D01*
X57624845Y-43794008D01*
X57624843Y-43794005D01*
X57624843Y-43794003D01*
X57517619Y-43583566D01*
X57514190Y-43578846D01*
X57378794Y-43392490D01*
X57211787Y-43225483D01*
X57020710Y-43086657D01*
X56810273Y-42979433D01*
X56585645Y-42906446D01*
X56352374Y-42869500D01*
X56352369Y-42869500D01*
X56116185Y-42869500D01*
X56116180Y-42869500D01*
X55882908Y-42906446D01*
X55658280Y-42979433D01*
X55447843Y-43086657D01*
X55400831Y-43120814D01*
X55256767Y-43225483D01*
X55256765Y-43225485D01*
X55256764Y-43225485D01*
X55089762Y-43392487D01*
X55089762Y-43392488D01*
X55089760Y-43392490D01*
X55030139Y-43474550D01*
X54950934Y-43583566D01*
X54843710Y-43794003D01*
X54770723Y-44018631D01*
X54733777Y-44251902D01*
X42041095Y-44251902D01*
X42040500Y-41642023D01*
X42040566Y-41637967D01*
X42040956Y-41626082D01*
X42058565Y-41088147D01*
X42059096Y-41080061D01*
X42059446Y-41076508D01*
X42112818Y-40534607D01*
X42113870Y-40526617D01*
X42203159Y-39985806D01*
X42204731Y-39977903D01*
X42329196Y-39444099D01*
X42331283Y-39436310D01*
X42490393Y-38911794D01*
X42493000Y-38904117D01*
X42523110Y-38824117D01*
X42686056Y-38391178D01*
X42689159Y-38383689D01*
X42698208Y-38363719D01*
X42737438Y-38277135D01*
X44824500Y-38277135D01*
X44824500Y-39722870D01*
X44824501Y-39722876D01*
X44830908Y-39782483D01*
X44881202Y-39917328D01*
X44881206Y-39917335D01*
X44967452Y-40032544D01*
X44967453Y-40032544D01*
X44967454Y-40032546D01*
X44995907Y-40053846D01*
X45052539Y-40096241D01*
X45094409Y-40152175D01*
X45099393Y-40221867D01*
X45078545Y-40268392D01*
X44994624Y-40383900D01*
X44910620Y-40548764D01*
X44910619Y-40548767D01*
X44853445Y-40724734D01*
X44841570Y-40799711D01*
X44824500Y-40907486D01*
X44824500Y-41092514D01*
X44837978Y-41177610D01*
X44853445Y-41275265D01*
X44910619Y-41451232D01*
X44910620Y-41451235D01*
X44967102Y-41562086D01*
X44994622Y-41616096D01*
X45103379Y-41765787D01*
X45234213Y-41896621D01*
X45383904Y-42005378D01*
X45411418Y-42019397D01*
X45548764Y-42089379D01*
X45548767Y-42089380D01*
X45613766Y-42110499D01*
X45724736Y-42146555D01*
X45907486Y-42175500D01*
X45907487Y-42175500D01*
X46092513Y-42175500D01*
X46092514Y-42175500D01*
X46275264Y-42146555D01*
X46451235Y-42089379D01*
X46616096Y-42005378D01*
X46765787Y-41896621D01*
X46896621Y-41765787D01*
X47005378Y-41616096D01*
X47089379Y-41451235D01*
X47146555Y-41275264D01*
X47155918Y-41216153D01*
X58783777Y-41216153D01*
X58783777Y-41373846D01*
X58814538Y-41528489D01*
X58814541Y-41528501D01*
X58874879Y-41674172D01*
X58874886Y-41674185D01*
X58962487Y-41805288D01*
X58962490Y-41805292D01*
X59073984Y-41916786D01*
X59073988Y-41916789D01*
X59205091Y-42004390D01*
X59205104Y-42004397D01*
X59350775Y-42064735D01*
X59350780Y-42064737D01*
X59474663Y-42089379D01*
X59505430Y-42095499D01*
X59505433Y-42095500D01*
X59505435Y-42095500D01*
X59663121Y-42095500D01*
X59663122Y-42095499D01*
X59817774Y-42064737D01*
X59930443Y-42018067D01*
X59963449Y-42004397D01*
X59963449Y-42004396D01*
X59963456Y-42004394D01*
X60094566Y-41916789D01*
X60206066Y-41805289D01*
X60293671Y-41674179D01*
X60354014Y-41528497D01*
X60384777Y-41373842D01*
X60384777Y-41216158D01*
X60384777Y-41216155D01*
X60384776Y-41216153D01*
X60379074Y-41187486D01*
X60354014Y-41061503D01*
X60299887Y-40930827D01*
X60293674Y-40915827D01*
X60293667Y-40915814D01*
X60206066Y-40784711D01*
X60206063Y-40784707D01*
X60094569Y-40673213D01*
X60094565Y-40673210D01*
X59963462Y-40585609D01*
X59963449Y-40585602D01*
X59817778Y-40525264D01*
X59817766Y-40525261D01*
X59663122Y-40494500D01*
X59663119Y-40494500D01*
X59505435Y-40494500D01*
X59505432Y-40494500D01*
X59350787Y-40525261D01*
X59350775Y-40525264D01*
X59205104Y-40585602D01*
X59205091Y-40585609D01*
X59073988Y-40673210D01*
X59073984Y-40673213D01*
X58962490Y-40784707D01*
X58962487Y-40784711D01*
X58874886Y-40915814D01*
X58874879Y-40915827D01*
X58814541Y-41061498D01*
X58814538Y-41061510D01*
X58783777Y-41216153D01*
X47155918Y-41216153D01*
X47161774Y-41179179D01*
X47175500Y-41092513D01*
X47175500Y-40907486D01*
X47170964Y-40878846D01*
X47146555Y-40724736D01*
X47109914Y-40611966D01*
X47089380Y-40548767D01*
X47089379Y-40548764D01*
X47037318Y-40446590D01*
X47005378Y-40383904D01*
X46921453Y-40268392D01*
X46897974Y-40202586D01*
X46913799Y-40134532D01*
X46947459Y-40096241D01*
X47032546Y-40032546D01*
X47118796Y-39917331D01*
X47169091Y-39782483D01*
X47172379Y-39751902D01*
X64333777Y-39751902D01*
X64333777Y-39988097D01*
X64370723Y-40221368D01*
X64443710Y-40445996D01*
X64522490Y-40600609D01*
X64550934Y-40656433D01*
X64689760Y-40847510D01*
X64856767Y-41014517D01*
X65047844Y-41153343D01*
X65147268Y-41204002D01*
X65258280Y-41260566D01*
X65258282Y-41260566D01*
X65258285Y-41260568D01*
X65303518Y-41275265D01*
X65482908Y-41333553D01*
X65716180Y-41370500D01*
X65716185Y-41370500D01*
X65952374Y-41370500D01*
X66185645Y-41333553D01*
X66410269Y-41260568D01*
X66620710Y-41153343D01*
X66811787Y-41014517D01*
X66978794Y-40847510D01*
X67117620Y-40656433D01*
X67224845Y-40445992D01*
X67297830Y-40221368D01*
X67308789Y-40152175D01*
X67334777Y-39988097D01*
X67334777Y-39751902D01*
X70833777Y-39751902D01*
X70833777Y-39988097D01*
X70870723Y-40221368D01*
X70943710Y-40445996D01*
X71022490Y-40600609D01*
X71050934Y-40656433D01*
X71189760Y-40847510D01*
X71356767Y-41014517D01*
X71547844Y-41153343D01*
X71647268Y-41204002D01*
X71758280Y-41260566D01*
X71758282Y-41260566D01*
X71758285Y-41260568D01*
X71803518Y-41275265D01*
X71982908Y-41333553D01*
X72216180Y-41370500D01*
X72216185Y-41370500D01*
X72452374Y-41370500D01*
X72685645Y-41333553D01*
X72910269Y-41260568D01*
X73120710Y-41153343D01*
X73311787Y-41014517D01*
X73478794Y-40847510D01*
X73617620Y-40656433D01*
X73724845Y-40445992D01*
X73797830Y-40221368D01*
X73808789Y-40152175D01*
X73834777Y-39988097D01*
X73834777Y-39751902D01*
X73797830Y-39518631D01*
X73747627Y-39364123D01*
X73724845Y-39294008D01*
X73724843Y-39294005D01*
X73724843Y-39294003D01*
X73617619Y-39083566D01*
X73584381Y-39037818D01*
X73478794Y-38892490D01*
X73410538Y-38824234D01*
X75939500Y-38824234D01*
X75939500Y-38975765D01*
X75978719Y-39122136D01*
X76000086Y-39159144D01*
X76054485Y-39253365D01*
X76161635Y-39360515D01*
X76249028Y-39410971D01*
X76257112Y-39415639D01*
X76305327Y-39466207D01*
X76318549Y-39534814D01*
X76298218Y-39591910D01*
X76295610Y-39595813D01*
X76295602Y-39595827D01*
X76235264Y-39741498D01*
X76235261Y-39741510D01*
X76204500Y-39896153D01*
X76204500Y-40053846D01*
X76235261Y-40208489D01*
X76235264Y-40208501D01*
X76295602Y-40354172D01*
X76295609Y-40354185D01*
X76383210Y-40485288D01*
X76383213Y-40485292D01*
X76494707Y-40596786D01*
X76494711Y-40596789D01*
X76625814Y-40684390D01*
X76625827Y-40684397D01*
X76771498Y-40744735D01*
X76771503Y-40744737D01*
X76926153Y-40775499D01*
X76926156Y-40775500D01*
X76926158Y-40775500D01*
X77083844Y-40775500D01*
X77083845Y-40775499D01*
X77238497Y-40744737D01*
X77295434Y-40721153D01*
X81099500Y-40721153D01*
X81099500Y-40878846D01*
X81130261Y-41033489D01*
X81130264Y-41033501D01*
X81190602Y-41179172D01*
X81190609Y-41179185D01*
X81278210Y-41310288D01*
X81278213Y-41310292D01*
X81389707Y-41421786D01*
X81389711Y-41421789D01*
X81520814Y-41509390D01*
X81520827Y-41509397D01*
X81666498Y-41569735D01*
X81666503Y-41569737D01*
X81821153Y-41600499D01*
X81821156Y-41600500D01*
X81821158Y-41600500D01*
X81978844Y-41600500D01*
X81978845Y-41600499D01*
X82133497Y-41569737D01*
X82279179Y-41509394D01*
X82410289Y-41421789D01*
X82521789Y-41310289D01*
X82574666Y-41231153D01*
X88524500Y-41231153D01*
X88524500Y-41388846D01*
X88555261Y-41543489D01*
X88555264Y-41543501D01*
X88615602Y-41689172D01*
X88615609Y-41689185D01*
X88703210Y-41820288D01*
X88703213Y-41820292D01*
X88814707Y-41931786D01*
X88814711Y-41931789D01*
X88945814Y-42019390D01*
X88945827Y-42019397D01*
X89091498Y-42079735D01*
X89091503Y-42079737D01*
X89246153Y-42110499D01*
X89246156Y-42110500D01*
X89246158Y-42110500D01*
X89403844Y-42110500D01*
X89403845Y-42110499D01*
X89558497Y-42079737D01*
X89704179Y-42019394D01*
X89835289Y-41931789D01*
X89946789Y-41820289D01*
X90034394Y-41689179D01*
X90094737Y-41543497D01*
X90125500Y-41388842D01*
X90125500Y-41231158D01*
X90122533Y-41216243D01*
X90120656Y-41206804D01*
X90120656Y-41206801D01*
X90116814Y-41187486D01*
X90639500Y-41187486D01*
X90639500Y-41372514D01*
X90651968Y-41451232D01*
X90668445Y-41555265D01*
X90725619Y-41731232D01*
X90725620Y-41731235D01*
X90809622Y-41896096D01*
X90918379Y-42045787D01*
X91049213Y-42176621D01*
X91198904Y-42285378D01*
X91279763Y-42326577D01*
X91363764Y-42369379D01*
X91363767Y-42369380D01*
X91451750Y-42397967D01*
X91539736Y-42426555D01*
X91722486Y-42455500D01*
X91722487Y-42455500D01*
X91907513Y-42455500D01*
X91907514Y-42455500D01*
X92090264Y-42426555D01*
X92266235Y-42369379D01*
X92431096Y-42285378D01*
X92580787Y-42176621D01*
X92711621Y-42045787D01*
X92820378Y-41896096D01*
X92904379Y-41731235D01*
X92961555Y-41555264D01*
X92990500Y-41372514D01*
X92990500Y-41187486D01*
X92961555Y-41004736D01*
X92937539Y-40930821D01*
X92904382Y-40828772D01*
X92904379Y-40828764D01*
X92886519Y-40793713D01*
X102949500Y-40793713D01*
X102949500Y-41006286D01*
X102982740Y-41216158D01*
X102982754Y-41216243D01*
X103038836Y-41388846D01*
X103048444Y-41418414D01*
X103144951Y-41607820D01*
X103269890Y-41779786D01*
X103420213Y-41930109D01*
X103592179Y-42055048D01*
X103592181Y-42055049D01*
X103592184Y-42055051D01*
X103781588Y-42151557D01*
X103983757Y-42217246D01*
X104193713Y-42250500D01*
X104193714Y-42250500D01*
X104406286Y-42250500D01*
X104406287Y-42250500D01*
X104616243Y-42217246D01*
X104818412Y-42151557D01*
X105007816Y-42055051D01*
X105056900Y-42019390D01*
X105179786Y-41930109D01*
X105179788Y-41930106D01*
X105179792Y-41930104D01*
X105330104Y-41779792D01*
X105330106Y-41779788D01*
X105330109Y-41779786D01*
X105455048Y-41607820D01*
X105455047Y-41607820D01*
X105455051Y-41607816D01*
X105551557Y-41418412D01*
X105617246Y-41216243D01*
X105650500Y-41006287D01*
X105650500Y-40793713D01*
X105617246Y-40583757D01*
X105551557Y-40381588D01*
X105455051Y-40192184D01*
X105455049Y-40192181D01*
X105455048Y-40192179D01*
X105330109Y-40020213D01*
X105179786Y-39869890D01*
X105007820Y-39744951D01*
X104818414Y-39648444D01*
X104818413Y-39648443D01*
X104818412Y-39648443D01*
X104616243Y-39582754D01*
X104616241Y-39582753D01*
X104616240Y-39582753D01*
X104454957Y-39557208D01*
X104406287Y-39549500D01*
X104193713Y-39549500D01*
X104145042Y-39557208D01*
X103983760Y-39582753D01*
X103781585Y-39648444D01*
X103592179Y-39744951D01*
X103420213Y-39869890D01*
X103269890Y-40020213D01*
X103144951Y-40192179D01*
X103048444Y-40381585D01*
X103048443Y-40381587D01*
X103048443Y-40381588D01*
X103035698Y-40420814D01*
X102982753Y-40583760D01*
X102949500Y-40793713D01*
X92886519Y-40793713D01*
X92832763Y-40688211D01*
X92820378Y-40663904D01*
X92711621Y-40514213D01*
X92580787Y-40383379D01*
X92431096Y-40274622D01*
X92418869Y-40268392D01*
X92266235Y-40190620D01*
X92266232Y-40190619D01*
X92090265Y-40133445D01*
X91997775Y-40118796D01*
X91907514Y-40104500D01*
X91722486Y-40104500D01*
X91661569Y-40114148D01*
X91539734Y-40133445D01*
X91363767Y-40190619D01*
X91363764Y-40190620D01*
X91198903Y-40274622D01*
X91113499Y-40336672D01*
X91049213Y-40383379D01*
X91049211Y-40383381D01*
X91049210Y-40383381D01*
X90918381Y-40514210D01*
X90918381Y-40514211D01*
X90918379Y-40514213D01*
X90893274Y-40548767D01*
X90809622Y-40663903D01*
X90725620Y-40828764D01*
X90725619Y-40828767D01*
X90668445Y-41004734D01*
X90655874Y-41084106D01*
X90639500Y-41187486D01*
X90116814Y-41187486D01*
X90094738Y-41076508D01*
X90094737Y-41076507D01*
X90094737Y-41076503D01*
X90076925Y-41033501D01*
X90034397Y-40930827D01*
X90034390Y-40930814D01*
X89946789Y-40799711D01*
X89946786Y-40799707D01*
X89835292Y-40688213D01*
X89835288Y-40688210D01*
X89704185Y-40600609D01*
X89704172Y-40600602D01*
X89558501Y-40540264D01*
X89558489Y-40540261D01*
X89403845Y-40509500D01*
X89403842Y-40509500D01*
X89246158Y-40509500D01*
X89246155Y-40509500D01*
X89091510Y-40540261D01*
X89091498Y-40540264D01*
X88945827Y-40600602D01*
X88945814Y-40600609D01*
X88814711Y-40688210D01*
X88814707Y-40688213D01*
X88703213Y-40799707D01*
X88703210Y-40799711D01*
X88615609Y-40930814D01*
X88615602Y-40930827D01*
X88555264Y-41076498D01*
X88555261Y-41076510D01*
X88524500Y-41231153D01*
X82574666Y-41231153D01*
X82609394Y-41179179D01*
X82609709Y-41178417D01*
X82610044Y-41177611D01*
X82610044Y-41177610D01*
X82623914Y-41144123D01*
X82669737Y-41033497D01*
X82700500Y-40878842D01*
X82700500Y-40721158D01*
X82700500Y-40721155D01*
X82700499Y-40721153D01*
X82676521Y-40600609D01*
X82669737Y-40566503D01*
X82653205Y-40526590D01*
X82609397Y-40420827D01*
X82609390Y-40420814D01*
X82521789Y-40289711D01*
X82521786Y-40289707D01*
X82410292Y-40178213D01*
X82410288Y-40178210D01*
X82279185Y-40090609D01*
X82279172Y-40090602D01*
X82133501Y-40030264D01*
X82133489Y-40030261D01*
X81978845Y-39999500D01*
X81978842Y-39999500D01*
X81821158Y-39999500D01*
X81821155Y-39999500D01*
X81666510Y-40030261D01*
X81666498Y-40030264D01*
X81520827Y-40090602D01*
X81520814Y-40090609D01*
X81389711Y-40178210D01*
X81389707Y-40178213D01*
X81278213Y-40289707D01*
X81278210Y-40289711D01*
X81190609Y-40420814D01*
X81190602Y-40420827D01*
X81130264Y-40566498D01*
X81130261Y-40566510D01*
X81099500Y-40721153D01*
X77295434Y-40721153D01*
X77384179Y-40684394D01*
X77515289Y-40596789D01*
X77626789Y-40485289D01*
X77714394Y-40354179D01*
X77774737Y-40208497D01*
X77805500Y-40053842D01*
X77805500Y-39896158D01*
X77805500Y-39896155D01*
X77805499Y-39896153D01*
X77782888Y-39782483D01*
X77774737Y-39741503D01*
X77736191Y-39648443D01*
X77714397Y-39595827D01*
X77714390Y-39595814D01*
X77626789Y-39464711D01*
X77626786Y-39464707D01*
X77515292Y-39353213D01*
X77515288Y-39353210D01*
X77384185Y-39265609D01*
X77384172Y-39265602D01*
X77238501Y-39205264D01*
X77238491Y-39205261D01*
X77169455Y-39191529D01*
X77107544Y-39159144D01*
X77072970Y-39098428D01*
X77073871Y-39037823D01*
X77090500Y-38975766D01*
X77090500Y-38824234D01*
X81719500Y-38824234D01*
X81719500Y-38975765D01*
X81758719Y-39122136D01*
X81780086Y-39159144D01*
X81834485Y-39253365D01*
X81941635Y-39360515D01*
X82072865Y-39436281D01*
X82219234Y-39475500D01*
X82219236Y-39475500D01*
X82370764Y-39475500D01*
X82370766Y-39475500D01*
X82517135Y-39436281D01*
X82648365Y-39360515D01*
X82755515Y-39253365D01*
X82831281Y-39122135D01*
X82870500Y-38975766D01*
X82870500Y-38824234D01*
X82831281Y-38677865D01*
X82755515Y-38546635D01*
X82648365Y-38439485D01*
X82564709Y-38391186D01*
X82517136Y-38363719D01*
X82429479Y-38340232D01*
X82370766Y-38324500D01*
X82219234Y-38324500D01*
X82072863Y-38363719D01*
X81941635Y-38439485D01*
X81941632Y-38439487D01*
X81834487Y-38546632D01*
X81834485Y-38546635D01*
X81758719Y-38677863D01*
X81719500Y-38824234D01*
X77090500Y-38824234D01*
X77051281Y-38677865D01*
X76975515Y-38546635D01*
X76868365Y-38439485D01*
X76784709Y-38391186D01*
X76737136Y-38363719D01*
X76649479Y-38340232D01*
X76590766Y-38324500D01*
X76439234Y-38324500D01*
X76292863Y-38363719D01*
X76161635Y-38439485D01*
X76161632Y-38439487D01*
X76054487Y-38546632D01*
X76054485Y-38546635D01*
X75978719Y-38677863D01*
X75939500Y-38824234D01*
X73410538Y-38824234D01*
X73311787Y-38725483D01*
X73120710Y-38586657D01*
X72910273Y-38479433D01*
X72685645Y-38406446D01*
X72452374Y-38369500D01*
X72452369Y-38369500D01*
X72216185Y-38369500D01*
X72216180Y-38369500D01*
X71982908Y-38406446D01*
X71758280Y-38479433D01*
X71547843Y-38586657D01*
X71438827Y-38665862D01*
X71356767Y-38725483D01*
X71356765Y-38725485D01*
X71356764Y-38725485D01*
X71189762Y-38892487D01*
X71189762Y-38892488D01*
X71189760Y-38892490D01*
X71178546Y-38907925D01*
X71050934Y-39083566D01*
X70943710Y-39294003D01*
X70870723Y-39518631D01*
X70833777Y-39751902D01*
X67334777Y-39751902D01*
X67297830Y-39518631D01*
X67247627Y-39364123D01*
X67224845Y-39294008D01*
X67224843Y-39294005D01*
X67224843Y-39294003D01*
X67117619Y-39083566D01*
X67084381Y-39037818D01*
X66978794Y-38892490D01*
X66811787Y-38725483D01*
X66620710Y-38586657D01*
X66410273Y-38479433D01*
X66185645Y-38406446D01*
X65952374Y-38369500D01*
X65952369Y-38369500D01*
X65716185Y-38369500D01*
X65716180Y-38369500D01*
X65482908Y-38406446D01*
X65258280Y-38479433D01*
X65047843Y-38586657D01*
X64938827Y-38665862D01*
X64856767Y-38725483D01*
X64856765Y-38725485D01*
X64856764Y-38725485D01*
X64689762Y-38892487D01*
X64689762Y-38892488D01*
X64689760Y-38892490D01*
X64678546Y-38907925D01*
X64550934Y-39083566D01*
X64443710Y-39294003D01*
X64370723Y-39518631D01*
X64333777Y-39751902D01*
X47172379Y-39751902D01*
X47175500Y-39722873D01*
X47175499Y-38277128D01*
X47169091Y-38217517D01*
X47118796Y-38082669D01*
X47118795Y-38082668D01*
X47118793Y-38082664D01*
X47032547Y-37967455D01*
X47032544Y-37967452D01*
X46917335Y-37881206D01*
X46917328Y-37881202D01*
X46782482Y-37830908D01*
X46782483Y-37830908D01*
X46722883Y-37824501D01*
X46722881Y-37824500D01*
X46722873Y-37824500D01*
X46722864Y-37824500D01*
X45277129Y-37824500D01*
X45277123Y-37824501D01*
X45217516Y-37830908D01*
X45082671Y-37881202D01*
X45082664Y-37881206D01*
X44967455Y-37967452D01*
X44967452Y-37967455D01*
X44881206Y-38082664D01*
X44881202Y-38082671D01*
X44830908Y-38217517D01*
X44824501Y-38277116D01*
X44824501Y-38277123D01*
X44824500Y-38277135D01*
X42737438Y-38277135D01*
X42915364Y-37884441D01*
X42918930Y-37877211D01*
X43177309Y-37393819D01*
X43181360Y-37386803D01*
X43231108Y-37306803D01*
X43470782Y-36921374D01*
X43475287Y-36914633D01*
X43794546Y-36469107D01*
X43799448Y-36462718D01*
X44147178Y-36039008D01*
X44152502Y-36032938D01*
X44527198Y-35632879D01*
X44532879Y-35627198D01*
X44831525Y-35347486D01*
X85459500Y-35347486D01*
X85459500Y-35532513D01*
X85488445Y-35715265D01*
X85545619Y-35891232D01*
X85545620Y-35891235D01*
X85620923Y-36039023D01*
X85629622Y-36056096D01*
X85738379Y-36205787D01*
X85869213Y-36336621D01*
X86018904Y-36445378D01*
X86072224Y-36472546D01*
X86183764Y-36529379D01*
X86183767Y-36529380D01*
X86271750Y-36557967D01*
X86359736Y-36586555D01*
X86542486Y-36615500D01*
X86542487Y-36615500D01*
X86727513Y-36615500D01*
X86727514Y-36615500D01*
X86910264Y-36586555D01*
X87086235Y-36529379D01*
X87251096Y-36445378D01*
X87366608Y-36361453D01*
X87432412Y-36337974D01*
X87500466Y-36353799D01*
X87538758Y-36387460D01*
X87602455Y-36472547D01*
X87717664Y-36558793D01*
X87717671Y-36558797D01*
X87852517Y-36609091D01*
X87852516Y-36609091D01*
X87859444Y-36609835D01*
X87912127Y-36615500D01*
X89357872Y-36615499D01*
X89417483Y-36609091D01*
X89552331Y-36558796D01*
X89667546Y-36472546D01*
X89753796Y-36357331D01*
X89804091Y-36222483D01*
X89810500Y-36162873D01*
X89810499Y-34717128D01*
X89804091Y-34657517D01*
X89790775Y-34621816D01*
X89753797Y-34522671D01*
X89753793Y-34522664D01*
X89667547Y-34407455D01*
X89667544Y-34407452D01*
X89552335Y-34321206D01*
X89552328Y-34321202D01*
X89417482Y-34270908D01*
X89417483Y-34270908D01*
X89357883Y-34264501D01*
X89357881Y-34264500D01*
X89357873Y-34264500D01*
X89357864Y-34264500D01*
X87912129Y-34264500D01*
X87912123Y-34264501D01*
X87852516Y-34270908D01*
X87717671Y-34321202D01*
X87717664Y-34321206D01*
X87602455Y-34407452D01*
X87538758Y-34492539D01*
X87482823Y-34534410D01*
X87413132Y-34539393D01*
X87366607Y-34518545D01*
X87251099Y-34434624D01*
X87251098Y-34434623D01*
X87251096Y-34434622D01*
X87197772Y-34407452D01*
X87086235Y-34350620D01*
X87086232Y-34350619D01*
X86910265Y-34293445D01*
X86767972Y-34270908D01*
X86727514Y-34264500D01*
X86542486Y-34264500D01*
X86502028Y-34270908D01*
X86359734Y-34293445D01*
X86183767Y-34350619D01*
X86183764Y-34350620D01*
X86018903Y-34434622D01*
X85941611Y-34490779D01*
X85869213Y-34543379D01*
X85869211Y-34543381D01*
X85869210Y-34543381D01*
X85738381Y-34674210D01*
X85738381Y-34674211D01*
X85738379Y-34674213D01*
X85707199Y-34717129D01*
X85629622Y-34823903D01*
X85545620Y-34988764D01*
X85545619Y-34988767D01*
X85488445Y-35164734D01*
X85459500Y-35347486D01*
X44831525Y-35347486D01*
X44932938Y-35252502D01*
X44938951Y-35247225D01*
X44939474Y-35246796D01*
X44939483Y-35246792D01*
X44939505Y-35246770D01*
X45362718Y-34899448D01*
X45369107Y-34894546D01*
X45814639Y-34575282D01*
X45821380Y-34570779D01*
X45871853Y-34539393D01*
X46286813Y-34281353D01*
X46293819Y-34277309D01*
X46777211Y-34018930D01*
X46784441Y-34015364D01*
X47283690Y-33789159D01*
X47291178Y-33786056D01*
X47804123Y-33592997D01*
X47811794Y-33590393D01*
X48336310Y-33431283D01*
X48344099Y-33429196D01*
X48877903Y-33304731D01*
X48885806Y-33303159D01*
X49426617Y-33213870D01*
X49434607Y-33212818D01*
X49980073Y-33159095D01*
X49988147Y-33158565D01*
X50501721Y-33141752D01*
X50505575Y-33141687D01*
X106567890Y-33060503D01*
X106572118Y-33060568D01*
G37*
%TD.AperFunction*%
%TD*%
M02*
